<svg width="66" height="54" fill="none" xmlns="http://www.w3.org/2000/svg"><path d="M52.408 3.15c-8.745 1.227-16.043 4.2-21.592 8.81-1.814 1.507-4.901 4.889-6.931 7.602-1.08 1.422-1.447 1.767-1.9 1.767-.302 0-2.548-.151-4.988-.323-2.44-.173-4.988-.324-5.679-.324-1.252 0-1.274.022-2.57 1.228-1.51 1.465-1.986 2.24-1.791 3.059.086.387 1.9 2.347 5.398 5.837l5.268 5.255-1.468 1.53c-1.641 1.68-1.987 2.498-1.447 3.489.389.71 4.988 5.298 5.7 5.665.886.43 1.771.043 3.39-1.53l1.534-1.464 5.052 5.04c3.347 3.338 5.247 5.083 5.636 5.169.842.194 1.662-.302 3.066-1.83 1.447-1.552 1.403-1.078.907-8.078-.173-2.498-.324-4.782-.324-5.083 0-.452.367-.819 1.9-1.96 2.591-1.96 6.175-5.234 7.6-6.957 4.75-5.751 7.839-13.656 8.853-22.638.216-1.83.195-2.283-.064-2.929-.67-1.572-1.857-1.852-5.55-1.335zm4.47 1.077c.54.538.561.624.432 2.304-.28 3.576-1.77 10.468-2.419 11.114-.885.905-3.713-.775-7.233-4.286-3.52-3.51-5.204-6.332-4.297-7.215.54-.539 4.902-1.551 10.127-2.327.302-.064 1.058-.107 1.684-.129.972-.021 1.23.065 1.706.539zm-14.51 2.821c.82 3.877 7.73 10.77 11.617 11.588.712.151.712.194-.475 2.93-2.268 5.19-5.55 9.283-10.926 13.612-5.269 4.243-10.58 7.086-15.007 8.013l-1.403.301-8.724-8.702.303-1.4c1.274-5.535 5.203-12.19 10.558-17.877 2.937-3.101 5.204-4.89 8.594-6.763 1.339-.732 4.815-2.262 5.182-2.283.087 0 .216.258.28.581zM16.565 21.76c2.202.13 4.297.28 4.686.345l.69.108-.841 1.378c-1.814 2.951-3.628 7.237-4.211 9.887-.13.624-.216.538-4.556-3.77-2.44-2.412-4.47-4.63-4.556-4.89-.108-.43.151-.774 1.36-2.002 1.49-1.486 1.49-1.508 2.462-1.4.54.064 2.764.215 4.966.344zm4.902 18.136c1.705 1.702 3.087 3.188 3.087 3.317 0 .15-.626.84-1.403 1.572-1.015.927-1.598 1.314-1.987 1.314-.799 0-5.894-5.04-5.894-5.815 0-.366.453-.991 1.446-1.982.8-.818 1.512-1.464 1.576-1.464.044 0 1.49 1.378 3.175 3.058zm17.792 4.868l.367 5.535-1.469 1.487c-1.209 1.227-1.554 1.464-1.964 1.357-.281-.087-2.505-2.111-4.923-4.545-4.34-4.33-4.405-4.416-3.78-4.545 2.765-.603 7.191-2.498 10.02-4.265.647-.409 1.23-.689 1.274-.646.064.043.28 2.563.475 5.622z" fill="#fff"/><path d="M34.319 15.114c-.571.216-1.34.57-1.693.785-1.083.668-2.461 2.317-3.13 3.71-.591 1.218-.63 1.473-.611 3.28 0 1.53.098 2.198.433 3.042 1.752 4.417 6.93 6.518 11.163 4.535 6.437-2.984 6.516-12.014.137-14.998-1.161-.55-1.555-.629-3.287-.668-1.575-.059-2.186.02-3.012.314zm4.33.432c1.477.314 2.718.982 3.78 2.061 3.741 3.73 2.619 9.973-2.204 12.211-1.004.471-1.359.53-3.19.53-1.87 0-2.185-.059-3.208-.569-1.457-.707-2.894-2.14-3.623-3.593-.492-1.04-.551-1.334-.551-3.2 0-1.825.059-2.198.512-3.16.964-2.042 2.815-3.612 4.902-4.182 1.338-.353 2.224-.373 3.583-.098zM11.643 44.01c-1.9 1.895-2.31 2.52-1.706 2.52.432 0 4.319-4.006 4.168-4.286-.087-.13-.216-.237-.303-.237-.086 0-1.058.905-2.159 2.003zm-.216 5.385c-1.9 1.895-2.31 2.52-1.706 2.52.432 0 4.319-4.006 4.168-4.286-.087-.13-.216-.237-.303-.237-.086 0-1.058.904-2.159 2.003zm5.053-.086c-1.36 1.357-1.879 2.024-1.792 2.283.107.258.237.28.518.129.561-.302 3.951-3.812 3.951-4.092 0-.647-.95-.065-2.677 1.68z" fill="#fff"/><path fill-rule="evenodd" clip-rule="evenodd" d="M14.695 8.407a1.373 1.373 0 1 0 0-2.746 1.373 1.373 0 0 0 0 2.746zm0 .915a2.288 2.288 0 1 0 0-4.576 2.288 2.288 0 0 0 0 4.576zm43.017 40.271a1.373 1.373 0 1 0 0-2.746 1.373 1.373 0 0 0 0 2.746zm0 .915a2.288 2.288 0 1 0 0-4.576 2.288 2.288 0 0 0 0 4.576zM19.84 13.514a.458.458 0 0 0-.237.884l.897.24-.238.885a.457.457 0 1 0 .884.236l.238-.885.896.24a.458.458 0 0 0 .238-.884l-.897-.24.236-.88a.457.457 0 1 0-.883-.235l-.237.88-.897-.24zm39.096 18.951a.458.458 0 0 0 .238-.883l-.897-.24.237-.885a.457.457 0 1 0-.884-.236l-.237.884-.897-.24a.458.458 0 0 0-.237.885l.896.24-.236.879a.457.457 0 1 0 .884.236l.236-.88.897.24zM27.262 3.855a.458.458 0 0 0-.238.884l1.28.342-.34 1.263a.457.457 0 1 0 .884.236l.34-1.262 1.278.341a.458.458 0 0 0 .237-.884l-1.278-.341.338-1.257a.457.457 0 1 0-.884-.236l-.338 1.256-1.28-.342zm24.253 38.27a.458.458 0 0 0 .237-.885l-1.28-.341.34-1.263a.457.457 0 1 0-.884-.236l-.34 1.262-1.278-.341a.458.458 0 0 0-.237.884l1.279.341-.338 1.257a.457.457 0 1 0 .884.236l.337-1.257 1.28.343zm-25.713 8.63a.459.459 0 0 0 .647 0 .456.456 0 0 0 0-.647l-.689-.688.682-.68a.456.456 0 0 0 0-.646.459.459 0 0 0-.648 0l-.682.68-.688-.687a.459.459 0 0 0-.648 0 .456.456 0 0 0 0 .647l.688.687-.678.676a.456.456 0 0 0 0 .647.459.459 0 0 0 .647 0l.679-.677.69.688zM9.326 37.06a.46.46 0 0 0 .648 0 .456.456 0 0 0 0-.647l-.69-.688.682-.68a.456.456 0 0 0 0-.646.459.459 0 0 0-.647 0l-.682.68-.69-.687a.459.459 0 0 0-.647 0 .456.456 0 0 0 0 .647l.689.687-.679.677a.456.456 0 0 0 0 .646.459.459 0 0 0 .648 0l.678-.677.69.688z" fill="#fff"/></svg>