<svg width="66" height="54" fill="none" xmlns="http://www.w3.org/2000/svg"><path d="M16.524 4.762c-1.149.49-1.765 1.446-1.914 2.934-.064.744-.106 9.567-.064 19.623.064 16.2.107 18.368.404 19.027.532 1.149 1.382 2.041 2.424 2.53.935.447 1.106.447 17.22.447 8.95 0 16.264-.085 16.264-.17 0-.106-.255-.787-.574-1.552-.829-1.956-.829-4.444 0-6.25l.574-1.276-.042-16.944-.064-16.923-.532-.574c-1.105-1.212-.616-1.17-17.475-1.17-12.48.022-15.711.064-16.221.298zm6.484 17.667v17.114h-2.041c-2.53 0-3.465.255-4.677 1.34l-.936.829.043-17.582.064-17.582.701-.616.68-.617h6.166v17.114zM49.115 5.655c1.148.787 1.105.255 1.105 17.73v16.158H23.858V5.315h12.395c10.885 0 12.437.043 12.862.34zm.68 34.781c0 .043-.191.596-.446 1.233-.595 1.552-.595 3.912 0 5.613.255.702.446 1.297.446 1.34 0 .02-6.973.063-15.477.063H18.841l-1.106-.553c-1.785-.893-2.678-2.827-2.19-4.698.298-1.084 1.085-2.062 2.127-2.615.744-.383 1.403-.404 16.455-.425 8.61 0 15.668.021 15.668.042z" fill="#fff"/><path d="M34.94 8.44c-2.159 2.698-2.153 2.721-2.153 7.441 0 3.53-.042 4.125-.361 4.422-.192.213-1.765 1.616-3.508 3.125-2.573 2.254-3.168 2.892-3.274 3.466-.17.956.085 1.977.553 2.232.212.127 2.104.212 4.23.212h3.848v1.021c0 1.53.34 1.743 2.722 1.743 2.38 0 2.806-.276 2.806-1.807v-.957h3.848c2.232 0 3.997-.085 4.252-.212.34-.191.404-.468.404-1.573v-1.34l-3.508-3.061-3.508-3.062v-4.06c0-4.656 0-4.635-2.19-7.59-1.169-1.573-1.254-1.637-2.062-1.637-.765 0-1.249.553-2.1 1.637zm2.8-.489c.957 1.02 2.53 3.55 2.722 4.316.106.446.191 4.273.191 8.504v7.717h-7.228V12.277l.531-.924c.766-1.51 2.594-3.912 2.977-3.912.191 0 .553.234.808.51zm-4.953 16.923v3.614H26.41v-.914c0-.914.021-.936 3.04-3.593 1.659-1.488 3.083-2.7 3.19-2.7.084-.021.148 1.595.148 3.593zm12.076-.638c2.785 2.424 2.806 2.445 2.806 3.338v.914h-6.378v-3.635c0-3.466.021-3.615.383-3.338.212.149 1.658 1.382 3.189 2.721zm-5.91 6.06v.977l-1.956-.064-1.978-.063-.063-.915-.064-.893H38.952v.957z" fill="#fff"/><path d="M35.742 10.694c-1.34.914-1.34 2.785 0 3.699.872.595 1.616.616 2.488.085 1.892-1.148.999-4.273-1.212-4.273-.298 0-.872.212-1.276.489zm2.36.829c.872.957.213 2.508-1.063 2.508-.808 0-1.488-.68-1.488-1.488 0-1.34 1.637-1.998 2.551-1.02zm-3.189 23.024c0 1.276.064 1.595.319 1.595s.319-.319.319-1.595c0-1.275-.064-1.594-.32-1.594-.254 0-.318.319-.318 1.594zM38.4 33.23c-.064.17-.085.914-.042 1.659.042 1.041.149 1.36.382 1.36.255 0 .32-.319.32-1.573 0-1.084-.086-1.616-.256-1.658-.149-.064-.319.042-.404.212zm-1.743 3.168c.042 1.212.127 1.552.382 1.552s.32-.298.32-1.488c0-1.255-.065-1.489-.384-1.552-.34-.064-.382.085-.318 1.488zm-18.284 6.059c.064.361.893.383 14.308.383 12.522 0 14.244-.043 14.244-.32 0-.276-1.764-.318-14.308-.382-13.563-.043-14.307-.021-14.244.319zm.107 1.892c-.085.085-.15.276-.15.447 0 .212.702.276 3.424.276 3.125 0 3.401-.021 3.337-.383-.064-.319-.425-.361-3.274-.425-1.743-.021-3.253.021-3.337.085zm8.673.106a.352.352 0 0 0 .043.426c.106.106 4.188.17 9.97.148 8.505-.063 9.759-.106 9.759-.382 0-.277-1.254-.32-9.822-.383-6.952-.021-9.865.021-9.95.191zm-8.673 2.041c-.085.064-.15.255-.15.425 0 .234 2.063.277 11.566.277 11.374 0 12.522-.064 11.587-.66-.34-.212-22.79-.254-23.003-.042zm25.597.043c-.574.361.02.659 1.36.659s1.935-.298 1.36-.66c-.17-.106-.764-.19-1.36-.19-.574 0-1.19.084-1.36.19z" fill="#fff"/><path fill-rule="evenodd" clip-rule="evenodd" d="M9 4.356a1.356 1.356 0 1 0 0-2.712 1.356 1.356 0 0 0 0 2.712zM9 5a2 2 0 1 0 0-4 2 2 0 0 0 0 4zm48.343 12.852a.632.632 0 1 0 0-1.263.632.632 0 0 0 0 1.263zm0 .644a1.276 1.276 0 1 0 0-2.551 1.276 1.276 0 0 0 0 2.551zM8.472 46.553a.712.712 0 1 0 0-1.423.712.712 0 0 0 0 1.423zm0 .644a1.355 1.355 0 1 0 0-2.71 1.355 1.355 0 0 0 0 2.71zm-.197-31.068a.322.322 0 1 0 .557-.322l-.405-.702.702-.406a.322.322 0 1 0-.322-.557l-.702.405-.406-.702a.322.322 0 1 0-.557.322l.405.702-.702.406a.322.322 0 0 0 .322.557l.702-.405.406.702zm45.22-12.265a.322.322 0 1 0 .558-.322l-.405-.702.702-.406a.322.322 0 0 0-.322-.557l-.702.405-.406-.702a.322.322 0 0 0-.557.322l.405.702-.702.406a.322.322 0 1 0 .322.557l.702-.405.405.702zM10.07 30.461a.322.322 0 1 0 .643 0v-.748h.748a.322.322 0 1 0 0-.643h-.748v-.748a.322.322 0 1 0-.643 0v.748h-.748a.322.322 0 1 0 0 .643h.748v.747zm46.151 5.302a.322.322 0 1 0 .644 0v-.898h.898a.322.322 0 1 0 0-.644h-.898v-.9a.322.322 0 1 0-.644 0v.9h-.9a.322.322 0 1 0 0 .644h.9v.898zm-2.826-11.269a.322.322 0 1 0 .167.622l.942-.253.253.942a.322.322 0 0 0 .622-.166l-.253-.942.94-.252a.322.322 0 1 0-.166-.622l-.94.252-.253-.94a.322.322 0 0 0-.621.166l.252.94-.943.253zM58 46.356a1.356 1.356 0 1 0 0-2.712 1.356 1.356 0 0 0 0 2.712zM58 47a2 2 0 1 0 0-4 2 2 0 0 0 0 4z" fill="#fff"/></svg>