<svg width="66" height="54" fill="none" xmlns="http://www.w3.org/2000/svg"><g clip-path="url(#clip0_120_194)"><path fill-rule="evenodd" clip-rule="evenodd" d="M40.87 14.61l4.215-1.267-4.16-1.432a2 2 0 0 1-1.347-1.93l.088-4.385-2.68 3.51a2 2 0 0 1-2.241.677l-4.183-1.44 2.514 3.58a2 2 0 0 1-.048 2.363l-2.656 3.477 4.237-1.273a2 2 0 0 1 2.212.766l2.536 3.613.089-4.384a2 2 0 0 1 1.425-1.876zm4.503-.309c.93-.28.956-1.587.038-1.903l-4.16-1.433a1 1 0 0 1-.674-.965l.089-4.384c.02-.966-1.208-1.395-1.794-.626l-2.68 3.508a1 1 0 0 1-1.121.339l-4.183-1.44c-.917-.316-1.701.727-1.144 1.52l2.514 3.58a1 1 0 0 1-.024 1.182l-2.657 3.478c-.589.77.153 1.843 1.082 1.564l4.238-1.273a1 1 0 0 1 1.105.383l2.537 3.613c.555.79 1.799.411 1.818-.555l.089-4.384a1 1 0 0 1 .712-.938l4.215-1.266zm-23.545 13.98l-4.26-3.805 1.191 5.563a1.982 1.982 0 0 1-.956 2.137l-4.958 2.838 5.685.593c.867.09 1.578.727 1.76 1.574l1.19 5.55 2.333-5.196a2 2 0 0 1 2.035-1.165l5.704.594-4.252-3.797a1.989 1.989 0 0 1-.495-2.298l2.325-5.18-4.958 2.84c-.75.43-1.697.33-2.344-.248zm-3.592-4.545c-.723-.646-1.852 0-1.65.944l1.192 5.563a.991.991 0 0 1-.478 1.068l-4.958 2.84c-.841.481-.566 1.754.402 1.855l5.685.593c.434.045.79.363.88.787l1.19 5.55c.202.945 1.502 1.085 1.897.205l2.333-5.197a1 1 0 0 1 1.017-.583l5.705.595c.966.1 1.494-1.086.77-1.732l-4.252-3.797a.994.994 0 0 1-.248-1.15l2.326-5.178c.395-.882-.578-1.755-1.42-1.273l-4.958 2.838a1.009 1.009 0 0 1-1.172-.123l-4.26-3.805zm30.391 1.919L46.102 23.4l.706 3.297a1.982 1.982 0 0 1-.956 2.137l-2.935 1.68 3.362.35c.867.091 1.578.727 1.76 1.575l.704 3.285 1.383-3.08a2 2 0 0 1 2.035-1.166l3.382.352-2.517-2.247a1.989 1.989 0 0 1-.494-2.298l1.375-3.063-2.936 1.68c-.75.43-1.697.33-2.344-.247zm-1.856-2.996c-.724-.645-1.853.001-1.65.945l.706 3.297a.991.991 0 0 1-.478 1.068l-2.935 1.681c-.842.482-.566 1.755.402 1.856l3.362.35c.434.045.79.364.88.788l.704 3.284c.203.945 1.502 1.085 1.897.205l1.383-3.081a1 1 0 0 1 1.018-.583l3.382.353c.966.1 1.493-1.086.77-1.732l-2.517-2.247a.995.995 0 0 1-.247-1.15l1.375-3.062c.396-.882-.578-1.755-1.42-1.273l-2.935 1.68a1.009 1.009 0 0 1-1.172-.123l-2.525-2.256zm-9.298 20.313l-.806-2.16-.805 2.16a2 2 0 0 1-1.185 1.178l-2.154.79 2.154.791a2 2 0 0 1 1.185 1.178l.805 2.16.806-2.16a2 2 0 0 1 1.185-1.178l2.154-.79-2.154-.79a2 2 0 0 1-1.185-1.18zm.131-2.509c-.323-.867-1.55-.867-1.873 0l-.806 2.16a1 1 0 0 1-.592.589l-2.154.79c-.874.32-.874 1.557 0 1.877l2.154.79a1 1 0 0 1 .592.59l.806 2.16c.323.867 1.55.867 1.873 0l.806-2.16a1 1 0 0 1 .592-.59l2.154-.79c.874-.32.874-1.556 0-1.877l-2.154-.79a1 1 0 0 1-.592-.59l-.806-2.159zM18.16 10.876l-.806-2.16-.805 2.16a2 2 0 0 1-1.185 1.178l-2.154.79 2.154.79a2 2 0 0 1 1.185 1.18l.805 2.158.806-2.159a2 2 0 0 1 1.185-1.178l2.153-.79-2.153-.791a2 2 0 0 1-1.185-1.178zm.131-2.51c-.323-.866-1.55-.866-1.874 0l-.805 2.16a1 1 0 0 1-.593.59l-2.153.79c-.874.32-.874 1.556 0 1.877l2.153.79a1 1 0 0 1 .593.59l.805 2.159c.324.867 1.55.867 1.874 0l.806-2.16a1 1 0 0 1 .592-.589l2.154-.79c.874-.32.874-1.557 0-1.877l-2.154-.79a1 1 0 0 1-.592-.59l-.806-2.16zM5.088 17.242c.869 0 1.566-.698 1.566-1.55 0-.85-.697-1.548-1.566-1.548-.869 0-1.566.698-1.566 1.549s.697 1.549 1.566 1.549zm0 .522a2.08 2.08 0 0 0 2.088-2.071 2.08 2.08 0 0 0-2.088-2.07A2.08 2.08 0 0 0 3 15.691a2.08 2.08 0 0 0 2.088 2.07zM51.544 46.23c.869 0 1.566-.698 1.566-1.55 0-.85-.697-1.548-1.566-1.548-.87 0-1.566.698-1.566 1.549s.697 1.549 1.566 1.549zm0 .522a2.08 2.08 0 0 0 2.088-2.071 2.08 2.08 0 0 0-2.088-2.07 2.08 2.08 0 0 0-2.088 2.07 2.08 2.08 0 0 0 2.088 2.07zm6.524-32.1a2.337 2.337 0 0 0 2.35-2.326 2.337 2.337 0 0 0-2.35-2.325 2.337 2.337 0 0 0-2.349 2.325 2.337 2.337 0 0 0 2.35 2.325zm0 .521c1.586 0 2.871-1.274 2.871-2.847 0-1.572-1.285-2.847-2.87-2.847-1.586 0-2.872 1.274-2.872 2.847 0 1.572 1.286 2.847 2.871 2.847zM10.83 53.478c.868 0 1.566-.697 1.566-1.549 0-.85-.698-1.548-1.566-1.548-.87 0-1.566.697-1.566 1.548 0 .852.697 1.55 1.566 1.55zm0 .522a2.08 2.08 0 0 0 2.088-2.07 2.08 2.08 0 0 0-2.088-2.071 2.08 2.08 0 0 0-2.088 2.07A2.08 2.08 0 0 0 10.83 54zm-.756-30.786a.26.26 0 1 0 0-.522H9.017v-1.047a.261.261 0 1 0-.522 0v1.047H7.437a.26.26 0 1 0 0 .522h1.058v1.046a.261.261 0 1 0 .522 0v-1.046h1.057zm15.655 28.352a.263.263 0 0 0 .358.096.259.259 0 0 0 .095-.355l-.565-.97.979-.56a.259.259 0 0 0 .095-.356.263.263 0 0 0-.358-.096l-.978.56-.565-.97a.263.263 0 0 0-.358-.095.259.259 0 0 0-.095.355l.564.97-.979.56a.259.259 0 0 0-.095.356.263.263 0 0 0 .358.096l.98-.56.564.97zm20.96-48.088a.264.264 0 0 0 .37 0 .258.258 0 0 0 0-.367l-.799-.793.8-.792a.258.258 0 0 0 0-.367.264.264 0 0 0-.371 0l-.8.792-.798-.792a.264.264 0 0 0-.37 0 .258.258 0 0 0 0 .367l.798.792-.799.793a.258.258 0 0 0 0 .367.264.264 0 0 0 .37 0l.8-.792.799.792zm13.717 45.42a.261.261 0 0 0 .522 0v-1.12h1.131a.26.26 0 1 0 0-.521h-1.13v-1.12a.26.26 0 1 0-.523 0v1.12h-1.13a.261.261 0 1 0 0 .522h1.13v1.12z" fill="#fff"/></g><defs><clipPath id="clip0_120_194"><path fill="#fff" d="M0 0H66V54H0z"/></clipPath></defs></svg>