<svg width="66" height="54" fill="none" xmlns="http://www.w3.org/2000/svg"><path d="M30.574 2.194c-7.045 1.37-12.34 7.678-12.34 14.744v1.878l-.864.97c-.486.548-1.14 1.519-1.435 2.151-.506 1.055-.548 1.372-.527 3.692.084 6.708 3.312 14.027 9.47 21.515 3.228 3.924 4.663 4.81 7.911 4.831 1.519 0 1.983-.084 3.017-.549 1.708-.801 2.425-1.455 4.703-4.303 5.105-6.349 8.375-12.318 9.577-17.486 1.034-4.388.675-7.299-1.14-9.345-.379-.443-.421-.717-.379-2.531.211-7.109-4.134-13.1-11.032-15.23-1.877-.57-4.978-.717-6.96-.337zm1.94 1.308c-.442 2.678-3.902 3.585-5.526 1.434-.168-.211-.316-.464-.316-.527 0-.359 4.092-1.582 5.463-1.646.464-.02.485.042.38.739zm3.966-.465l1.055.254-.042 1.012c-.042 1.287-.506 1.94-1.877 2.7-1.266.696-2.12 1.614-1.287 2.447.833.833 3.1.506 3.1.506l2.848-.063 1.941-.97c1.076-.528 2.088-.907 2.257-.844.169.063.57.506.886.991.506.739.527.928.316 1.35-.4.739-2.215 2.025-3.332 2.363-.823.253-1.33.274-2.764.084-1.244-.169-1.961-.169-2.573 0-1.878.506-3.143 2.848-2.447 4.493.169.422.696 1.055 1.202 1.413.844.591.992.633 2.51.591 1.477-.063 1.71 0 2.637.57.95.59 1.034.717 1.245 1.793.295 1.434.949 2.404 2.151 3.164l.928.57-.738.927c-.4.506-1.266 1.371-1.94 1.92l-1.203 1.012-.654-.633c-.337-.337-.907-.717-1.223-.822-2.173-.823-4.767.696-5.126 2.974l-.148.802H33.17c-2.785 0-6.476-1.35-8.86-3.27-2.847-2.257-4.746-5.716-5.294-9.66-.063-.423-.042-.781.084-.781.106 0 .738.548 1.435 1.244.907.907 1.35 1.561 1.687 2.468.907 2.574 1.413 2.974 3.966 3.227.928.106 1.856.275 2.11.422.463.232.505.317.885 1.835.127.465.464 1.076.78 1.372.465.421.739.506 1.92.506 1.202 0 1.434-.085 1.793-.527.316-.38.38-.675.274-1.308-.126-.696 0-1.097.844-2.806 1.456-2.953 1.14-3.691-1.898-4.556-1.35-.38-2.3-.485-4.81-.527-3.375-.043-3.944-.232-3.944-1.266 0-.612 1.223-2.13 3.143-3.944 1.777-1.653.818-1.591 1.012-3.586.106-1.097.085-1.224-.527-1.814-.907-.929-2.278-.908-4.683.084-.991.4-1.814.738-1.856.738-.021 0 .042-.19.147-.4.401-.718 2.342-2.722 3.418-3.523l1.054-.78.696.78c1.224 1.329 2.764 1.708 4.303 1.076 1.456-.633 2.363-1.815 2.363-3.165v-.738l1.118.021c.59 0 1.582.127 2.151.274zm6.076 2.975c.653.527 1.202 1.033 1.202 1.118 0 .084-.802.57-1.772 1.075-1.561.823-1.92.929-3.312.97-.865.043-2.004.127-2.531.212-1.076.168-1.371-.021-1.16-.802.063-.295.548-.696 1.244-1.055 1.266-.653 1.73-1.307 2.068-2.868l.232-1.076 1.392.738c.78.401 1.962 1.16 2.637 1.688zM26.777 8.859c.739.275 1.034 1.118.718 2.046-.346 1.038.54 1.523-.422 2.3-1.878 1.518-3.776 3.986-3.776 4.872 0 .7.793 1.367 1.223 1.857l3.46.126c4.704.169 6.918.802 6.918 1.962 0 .253-.358 1.097-.78 1.92-.59 1.096-.802 1.813-.886 2.847l-.127 1.371-1.18.063c-1.393.064-1.667-.168-2.173-1.877-.464-1.666-.844-1.92-3.207-2.215-1.097-.147-2.215-.4-2.468-.57-.274-.168-.675-.885-.97-1.729-.59-1.645-1.645-3.08-3.164-4.24l-1.055-.822.127-1.16c.126-1.33.97-4.177 1.371-4.662.148-.19 1.181-.718 2.278-1.203 2.7-1.139 3.164-1.244 4.113-.886zm20.672 4.979c.401 1.582.401 4.851-.02 6.623-.38 1.666-1.52 4.219-1.878 4.219-.148 0-.633-.275-1.097-.612-.928-.675-1.54-1.75-1.54-2.721 0-1.646-3.08-3.312-5-2.7-.569.19-1.307-.127-2.13-.886-1.054-.991-.864-2.384.486-3.628.548-.506.632-.528 3.311-.464 2.595.063 2.806.042 3.84-.464.59-.296 1.497-.907 2.024-1.371l.95-.844.358.801c.211.443.506 1.35.696 2.046zm-29.573 9.428c-.59.612-1.203 1.33-1.414 1.625l-.337.506v-.844c0-1.181.506-2.531 1.413-3.776l.78-1.054.296 1.223.316 1.245-1.054 1.075zm31.282-1.286c.295.59.59 1.603.654 2.257l.126 1.18-.485-.632c-.274-.358-.801-.97-1.16-1.371l-.675-.738.295-1.013c.17-.548.401-.949.507-.865.105.064.442.591.738 1.182zm-29.32 2.109l.548 1.097-.485.337c-.274.17-1.013.78-1.624 1.35-.907.865-1.16.992-1.33.76-.653-1.013-.337-1.94 1.224-3.628.527-.549.992-1.013 1.034-1.013.042 0 .337.485.633 1.097zm28.075 0c.78.865 1.54 2.152 1.54 2.595 0 .253-.126.632-.295.843-.274.38-.359.338-1.498-.696-.654-.611-1.286-1.097-1.392-1.097-.127 0 .042-.485.359-1.054.316-.591.632-1.055.717-1.055.084 0 .337.21.57.464zM21.778 27l.907 1.055-.59.253c-.317.147-1.14.59-1.814.97-1.097.633-1.245.675-1.646.38-.232-.169-.57-.485-.717-.696-.274-.38-.19-.507.696-1.371.95-.907 1.898-1.646 2.152-1.646.063 0 .506.464 1.012 1.055zm25.481.485l1.182 1.118-.57.675c-.316.359-.696.675-.844.675-.147 0-.801-.337-1.476-.738-.675-.401-1.308-.76-1.435-.802-.295-.084 1.33-2.046 1.688-2.046.127 0 .801.506 1.455 1.118zm-28.118 3.586c3.692 2.637 8.333 3.945 13.922 3.945 6.56 0 12.636-2.11 15.546-5.421.465-.528.844-.823.844-.675 0 .548-.823 3.311-1.35 4.471-.991 2.236-4.282 4.156-8.986 5.232-2.32.548-7.277.759-9.745.422-4.282-.57-8.353-2.215-10.547-4.282-1.139-1.034-1.266-1.245-1.73-2.911-.274-.992-.57-2.215-.654-2.743l-.147-.949.76.991c.421.549 1.35 1.414 2.087 1.92zm20.968-1.898l.57.548-1.161.527c-1.434.633-3.27 1.182-3.923 1.182-.95 0-.38-1.793.843-2.553.992-.633 2.911-.485 3.67.296zm-15.757.253c1.307.97 3.775 2.11 5.484 2.552.886.232 2.173.359 3.586.359 3.333 0 6.096-.865 8.733-2.743l1.033-.738.992.464c.548.253 1.265.675 1.603.95l.59.464-2.214 1.096c-5.168 2.553-11.918 3.165-18.057 1.604-2.003-.507-5.041-1.836-5.948-2.574l-.506-.4 1.666-.887c.928-.485 1.75-.886 1.856-.886.085 0 .633.338 1.182.739zm-1.73 8.627c6.666 2.911 16.748 2.51 22.676-.928 1.708-.991 1.708-.991-.127 2.088-1.73 2.89-2.11 3.27-3.776 3.776-5.843 1.814-12.276 1.666-17.782-.4-1.666-.612-2.278-1.309-3.86-4.388l-1.329-2.574 1.435.928c.78.507 2.025 1.182 2.763 1.498zM25.3 43.98c2.679.76 5.168 1.013 9.007.886 2.784-.084 3.839-.21 5.526-.654 1.16-.295 2.13-.506 2.194-.464.148.17-2.72 3.734-4.176 5.21-1.034 1.076-1.667 1.52-2.595 1.857-2.236.823-4.957.464-6.708-.886-.907-.675-3.691-3.86-5.02-5.738-.57-.801-.654-.991-.317-.864.212.084 1.16.38 2.089.653z" fill="#fff"/><path fill-rule="evenodd" clip-rule="evenodd" d="M11.22 46.177a.316.316 0 0 0 .317.548l1.101-.635.63 1.09a.316.316 0 1 0 .548-.316l-.63-1.09 1.1-.636a.316.316 0 0 0-.316-.548l-1.1.636-.628-1.087a.316.316 0 0 0-.548.316l.628 1.087-1.101.635zm-.79-13.346a.316.316 0 0 0 0 .633h.858v.85a.316.316 0 1 0 .633 0v-.85h.858a.316.316 0 0 0 0-.633h-.858v-.846a.316.316 0 1 0-.633 0v.846h-.858zm-2.251-9.785a.316.316 0 0 0-.164.611l.83.222-.22.821a.316.316 0 1 0 .61.164l.22-.82.83.221a.316.316 0 0 0 .164-.61l-.83-.223.22-.818a.316.316 0 1 0-.612-.164l-.219.818-.829-.222zm5.812-8.3a.316.316 0 1 0-.548.317l.43.744-.737.425a.316.316 0 1 0 .316.548l.736-.425.43.743a.316.316 0 0 0 .548-.316l-.43-.744.734-.423a.316.316 0 1 0-.317-.548l-.733.424-.43-.744zM55.93 9.91a.316.316 0 0 0-.548.316l.61 1.055-1.046.604a.316.316 0 1 0 .316.548l1.046-.604.609 1.055a.316.316 0 0 0 .548-.316l-.61-1.055 1.042-.602a.316.316 0 0 0-.316-.547l-1.041.6-.61-1.054zm-.834 11.605a.316.316 0 0 0-.633 0v.67h-.663a.316.316 0 1 0 0 .633h.663v.67a.316.316 0 0 0 .633 0v-.67h.66a.316.316 0 1 0 0-.633h-.66v-.67zm1.412 13.071a.316.316 0 0 0-.62.124l.196.987-.977.195a.316.316 0 1 0 .124.62l.977-.195.197.986a.316.316 0 0 0 .621-.124l-.197-.986.973-.194a.316.316 0 1 0-.124-.62l-.973.194-.197-.987zm-4.97 7.493a.316.316 0 1 0-.548-.317l-.503.871-.863-.498a.317.317 0 0 0-.316.548l.863.498-.503.871a.316.316 0 1 0 .548.316l.503-.87.859.496a.316.316 0 0 0 .316-.548l-.859-.496.503-.871zm4.69 8.704a1.028 1.028 0 1 0 0-2.056 1.028 1.028 0 0 0 0 2.056zm0 .475a1.503 1.503 0 1 0 0-3.006 1.503 1.503 0 0 0 0 3.006zM10.114 7.436a1.266 1.266 0 1 0 0-2.532 1.266 1.266 0 0 0 0 2.532zm0 .632a1.898 1.898 0 1 0 0-3.796 1.898 1.898 0 0 0 0 3.796zm.475 45.405a.95.95 0 1 0 0-1.899.95.95 0 0 0 0 1.899zm0 .474a1.424 1.424 0 1 0 0-2.847 1.424 1.424 0 0 0 0 2.847z" fill="#fff"/></svg>