<svg width="20" height="20" fill="none" xmlns="http://www.w3.org/2000/svg"><path fill-rule="evenodd" clip-rule="evenodd" d="M14.746 5.847a1.5 1.5 0 0 0 0 2.98 1.5 1.5 0 0 0 2.978 0 1.5 1.5 0 0 0 0-2.98 1.5 1.5 0 0 0-2.978 0zm-3.883-3.452a1 1 0 0 0 0 1.986 1 1 0 0 0 1.986 0 1 1 0 0 0 0-1.986 1 1 0 0 0-1.986 0z" fill="#fff"/><path d="M5.911 2.045C2.493 3.545.447 6.663.447 10.371c0 2.003.482 3.557 1.618 5.197 1.232 1.8 3.032 3.032 5.24 3.6 1.242.321 3.107.321 4.339 0 3.215-.857 5.604-3.193 6.536-6.397.354-1.21.354-1.8.01-2.025-.235-.15-.3-.14-1.038.203a9.85 9.85 0 0 1-1.436.547c-.825.214-2.593.225-3.397.01-3.075-.814-5.229-3.6-5.229-6.76 0-.686.193-1.865.375-2.326.075-.203-.364-.728-.61-.728-.076 0-.504.16-.944.353zm.054 2.84c0 1.253.043 1.575.257 2.218 1.104 3.257 3.6 5.336 6.869 5.743 1.103.129 2.432.01 3.396-.322.311-.107.568-.15.568-.107 0 .279-.59 1.597-.996 2.218-1.49 2.293-3.836 3.558-6.612 3.558-4.382 0-7.822-3.408-7.843-7.769 0-.621.075-1.382.171-1.821.258-1.115 1.018-2.55 1.79-3.408.632-.696 2.025-1.79 2.282-1.79.075 0 .118.483.118 1.48z" fill="#fff"/></svg>