<svg width="20" height="20" fill="none" xmlns="http://www.w3.org/2000/svg"><path d="M9.776 3.812c-.203.197-.226.362-.226 1.59 0 1.228.023 1.392.226 1.59.294.285.588.274.86-.011.18-.187.226-.439.249-1.382.045-1.25 0-1.579-.272-1.831-.237-.241-.565-.22-.837.044zM2.725 6.525c.006.284.11.412 1.01 1.25.898.836 1.034.932 1.317.917.409-.02.601-.243.578-.636-.013-.26-.167-.465-.842-1.124-.883-.885-1.155-1.076-1.525-1.05-.338.01-.546.265-.538.643zm-1.513 6.749c.197.203.362.226 1.59.226 1.228 0 1.392-.023 1.59-.226.285-.294.274-.588-.011-.86-.187-.18-.439-.226-1.382-.249-1.25-.045-1.579 0-1.831.272-.241.237-.22.565.044.837zm14.4 0c.197.203.362.226 1.59.226 1.228 0 1.392-.023 1.59-.226.285-.294.274-.588-.011-.86-.187-.18-.439-.226-1.382-.249-1.25-.045-1.579 0-1.831.272-.241.237-.22.565.044.837zm-.52-4.741c.283.004.415-.096 1.285-.963.87-.867.97-1 .966-1.283-.006-.41-.222-.61-.615-.6-.26.003-.47.149-1.154.799-.917.85-1.118 1.115-1.105 1.485-.003.339.245.555.623.562zm-6.253-.271c-1.816.51-3.19 2.225-3.32 4.131-.043.727-.032.784.226.965.311.216.666.148.816-.147.043-.102.119-.443.161-.738.194-1.6 1.354-2.849 2.869-3.087.902-.148 2.267.397 2.911 1.146.344.409.73 1.373.795 2.02.054.511.13.693.333.829.204.147.312.147.516.057.344-.17.43-.59.29-1.42-.483-2.746-3.072-4.471-5.597-3.756z" fill="#fff"/><path fill-rule="evenodd" clip-rule="evenodd" d="M10 18a.427.427 0 0 1-.425-.429v-2.608l-1.1 1.108a.423.423 0 0 1-.6 0 .431.431 0 0 1 0-.606l1.824-1.84a.423.423 0 0 1 .602 0l1.825 1.84a.431.431 0 0 1 0 .606.423.423 0 0 1-.602 0l-1.099-1.108v2.608c0 .237-.19.429-.425.429z" fill="#fff"/></svg>
