<svg width="20" height="20" fill="none" xmlns="http://www.w3.org/2000/svg"><path d="M9.776 1.562c-.203.197-.226.362-.226 1.59 0 1.228.023 1.392.226 1.59.294.285.588.274.86-.011.18-.187.226-.439.249-1.382.045-1.25 0-1.579-.272-1.831-.237-.241-.565-.22-.837.044zM2.725 4.275c.006.284.11.412 1.01 1.25.898.836 1.034.932 1.317.917.409-.02.601-.243.578-.636-.013-.26-.167-.465-.842-1.124-.883-.885-1.155-1.076-1.525-1.05-.338.01-.546.265-.538.643zm-1.513 6.749c.197.203.362.226 1.59.226 1.228 0 1.392-.023 1.59-.226.285-.294.274-.588-.011-.86-.187-.18-.439-.226-1.382-.249-1.25-.045-1.579 0-1.831.272-.241.237-.22.565.044.837zm14.4 0c.197.203.362.226 1.59.226 1.228 0 1.392-.023 1.59-.226.285-.294.274-.588-.011-.86-.187-.18-.439-.226-1.382-.249-1.25-.045-1.579 0-1.831.272-.241.237-.22.565.044.837zm-.52-4.741c.283.004.415-.096 1.285-.963.87-.867.97-1 .966-1.283-.006-.41-.222-.61-.615-.6-.26.003-.47.149-1.154.799-.917.85-1.118 1.115-1.105 1.485-.003.339.245.555.623.562zm-6.253-.271c-1.816.51-3.19 2.225-3.32 4.131-.043.727-.032.784.226.965.311.216.666.148.816-.147.043-.102.119-.443.161-.738.194-1.6 1.354-2.849 2.869-3.087.902-.148 2.267.397 2.911 1.146.344.409.73 1.373.795 2.02.054.511.13.693.333.829.204.147.312.147.516.057.344-.17.43-.59.29-1.42-.483-2.746-3.072-4.471-5.597-3.756zm-4.932 7.623c-1.259.183-1.557.343-1.557.846 0 .571.199.629 1.635.446 1.822-.229 4.737-.183 7.322.114 4.627.526 6.693.251 6.295-.823-.144-.377-.42-.457-1.016-.32-.773.183-2.53.149-4.793-.114-2.761-.309-6.34-.377-7.886-.149zm3.25 2.756c-.596.208-.837.545-.734 1.038.103.454.516.596 1.055.376.573-.233 1.433-.233 2.855 0 2.338.376 3.267.22 3.267-.57 0-.545-.275-.727-1.02-.688-.356.026-1.17-.052-1.812-.169-1.444-.246-2.9-.233-3.611.013z" fill="#fff"/></svg>