<svg width="16" height="20" viewBox="0 0 16 20" fill="none" xmlns="http://www.w3.org/2000/svg">
<g clip-path="url(#clip0_47_4)">
<path d="M4 15.5H12V14.5H4V15.5ZM4 11.5H12V10.5H4V11.5ZM2 20C1.45 20 0.979167 19.8042 0.5875 19.4125C0.195833 19.0208 0 18.55 0 18V2C0 1.45 0.195833 0.979167 0.5875 0.5875C0.979167 0.195833 1.45 0 2 0H11L16 5V18C16 18.55 15.8042 19.0208 15.4125 19.4125C15.0208 19.8042 14.55 20 14 20H2ZM11 6C10.4477 6 10 5.55228 10 5V1H2C1.44772 1 1 1.44772 1 2V18C1 18.5523 1.44772 19 2 19H14C14.5523 19 15 18.5523 15 18V6H11Z" fill="white"/>
</g>
<defs>
<clipPath id="clip0_47_4">
<rect width="16" height="20" fill="white"/>
</clipPath>
</defs>
</svg>
