<svg width="42" height="30" viewBox="0 0 42 30" fill="none" xmlns="http://www.w3.org/2000/svg">
<rect x="0.5" y="0.5" width="41" height="29" rx="7.5" stroke="white"/>
<path d="M20.1334 8.6998C18.6474 8.8498 17.3349 9.1873 15.9193 9.78262C13.7677 10.6873 11.5459 12.1967 9.71305 14.0014C9.0193 14.6811 8.93493 14.8264 9.04274 15.1967C9.14118 15.5482 10.6177 16.9217 11.9771 17.9342C14.3865 19.7248 16.8802 20.8264 19.4068 21.2154C19.8052 21.2764 20.2224 21.2998 21.0006 21.2998C22.1162 21.2998 22.6271 21.2482 23.6349 21.0232C24.6006 20.8076 26.0771 20.2686 27.0709 19.7717C28.8427 18.8811 30.7787 17.4842 32.2881 15.9982C32.9818 15.3186 33.0662 15.1732 32.9584 14.7982C32.8599 14.4514 31.3834 13.0779 30.024 12.0654C28.3318 10.8092 26.6162 9.8998 24.8162 9.31387C23.5084 8.8873 22.5615 8.72324 21.2349 8.6998C20.7334 8.69043 20.2365 8.69043 20.1334 8.6998ZM21.6709 10.1295C23.6162 10.4201 25.1865 11.7889 25.7256 13.6639C26.4756 16.2514 24.9521 18.9701 22.3365 19.7248C19.749 20.4748 17.0302 18.9514 16.2756 16.3357C15.3849 13.2561 17.724 10.1248 20.9443 10.0826C21.1599 10.0779 21.4881 10.1014 21.6709 10.1295Z" fill="white"/>
<path d="M20.5547 11.5123C20.0672 11.6107 19.9125 11.6529 19.6641 11.7561C18.825 12.1123 18.1125 12.8201 17.7562 13.6639C17.5641 14.1186 17.5078 14.4232 17.5078 14.9998C17.5078 15.5764 17.5641 15.8811 17.7562 16.3357C18.1922 17.3576 19.0781 18.117 20.2031 18.4311C20.325 18.4639 20.6766 18.4873 21.0234 18.4873C21.5812 18.4873 21.6703 18.4732 22.0547 18.342C22.6641 18.1311 23.0297 17.9061 23.4844 17.442C23.9344 16.9873 24.2109 16.5186 24.3703 15.942L24.4641 15.5998L24.3141 15.6279C23.5219 15.792 22.875 15.6139 22.3359 15.0701C21.5109 14.2498 21.5016 12.9701 22.3125 12.1311C22.4437 11.9951 22.5328 11.8732 22.5141 11.8592C22.4203 11.7795 21.975 11.6248 21.6469 11.5592C21.3141 11.4889 20.7844 11.4701 20.5547 11.5123Z" fill="white"/>
</svg>
