<svg width="22" height="22" viewBox="0 0 22 22" fill="none" xmlns="http://www.w3.org/2000/svg">
<g clip-path="url(#clip0_176_3)">
<path d="M9.97339 5.45233H12.0267V7.63327H9.97339V5.45233ZM9.97339 9.8142H12.0267V16.357H9.97339V9.8142Z" fill="white"/>
<path fill-rule="evenodd" clip-rule="evenodd" d="M11 19.8C15.8601 19.8 19.8 15.8601 19.8 11C19.8 6.13989 15.8601 2.2 11 2.2C6.13989 2.2 2.2 6.13989 2.2 11C2.2 15.8601 6.13989 19.8 11 19.8ZM11 22C17.0751 22 22 17.0751 22 11C22 4.92487 17.0751 0 11 0C4.92487 0 0 4.92487 0 11C0 17.0751 4.92487 22 11 22Z" fill="white"/>
</g>
<defs>
<clipPath id="clip0_176_3">
<rect width="22" height="22" fill="white"/>
</clipPath>
</defs>
</svg>
