<svg width="72" height="72" viewBox="0 0 72 72" fill="none" xmlns="http://www.w3.org/2000/svg">
<path d="M66.0532 8.45418C67.7365 9.68956 68.8603 11.5429 69.1775 13.6067C69.4947 15.6704 68.9793 17.7757 67.7446 19.4596L36.3997 62.2006C35.6058 63.2831 34.5797 64.1742 33.3968 64.8087C32.2138 65.4432 30.9039 65.8051 29.563 65.8678C28.2221 65.9305 26.8841 65.6925 25.6471 65.1711C24.4101 64.6498 23.3054 63.8583 22.4139 62.8547L5.04347 43.2999C3.65631 41.7384 2.94627 39.6899 3.06954 37.6049C3.19281 35.5199 4.13929 33.5692 5.70078 32.1821C7.26227 30.7949 9.31084 30.0849 11.3959 30.2081C13.4809 30.3314 15.4315 31.2779 16.8187 32.8394L27.7173 45.1082C27.8286 45.2334 27.9664 45.3321 28.1208 45.3972C28.2752 45.4624 28.4421 45.4922 28.6095 45.4845C28.7768 45.4768 28.9404 45.4319 29.0881 45.3529C29.2359 45.274 29.3642 45.163 29.4636 45.0282L55.0455 10.1454C56.281 8.46143 58.1348 7.33723 60.1991 7.02007C62.2634 6.70291 64.3692 7.21877 66.0532 8.45418Z" fill="url(#paint0_linear_613_9121)"/>
<path d="M66.0532 8.45418C67.7365 9.68956 68.8603 11.5429 69.1775 13.6067C69.4947 15.6704 68.9793 17.7757 67.7446 19.4596L36.3997 62.2006C35.6058 63.2831 34.5797 64.1742 33.3968 64.8087C32.2138 65.4432 30.9039 65.8051 29.563 65.8678C28.2221 65.9305 26.8841 65.6925 25.6471 65.1711C24.4101 64.6498 23.3054 63.8583 22.4139 62.8547L5.04347 43.2999C3.65631 41.7384 2.94627 39.6899 3.06954 37.6049C3.19281 35.5199 4.13929 33.5692 5.70078 32.1821C7.26227 30.7949 9.31084 30.0849 11.3959 30.2081C13.4809 30.3314 15.4315 31.2779 16.8187 32.8394L27.7173 45.1082C27.8286 45.2334 27.9664 45.3321 28.1208 45.3972C28.2752 45.4624 28.4421 45.4922 28.6095 45.4845C28.7768 45.4768 28.9404 45.4319 29.0881 45.3529C29.2359 45.274 29.3642 45.163 29.4636 45.0282L55.0455 10.1454C56.281 8.46143 58.1348 7.33723 60.1991 7.02007C62.2634 6.70291 64.3692 7.21877 66.0532 8.45418Z" fill="url(#paint1_radial_613_9121)"/>
<path d="M66.0532 8.45418C67.7365 9.68956 68.8603 11.5429 69.1775 13.6067C69.4947 15.6704 68.9793 17.7757 67.7446 19.4596L36.3997 62.2006C35.6058 63.2831 34.5797 64.1742 33.3968 64.8087C32.2138 65.4432 30.9039 65.8051 29.563 65.8678C28.2221 65.9305 26.8841 65.6925 25.6471 65.1711C24.4101 64.6498 23.3054 63.8583 22.4139 62.8547L5.04347 43.2999C3.65631 41.7384 2.94627 39.6899 3.06954 37.6049C3.19281 35.5199 4.13929 33.5692 5.70078 32.1821C7.26227 30.7949 9.31084 30.0849 11.3959 30.2081C13.4809 30.3314 15.4315 31.2779 16.8187 32.8394L27.7173 45.1082C27.8286 45.2334 27.9664 45.3321 28.1208 45.3972C28.2752 45.4624 28.4421 45.4922 28.6095 45.4845C28.7768 45.4768 28.9404 45.4319 29.0881 45.3529C29.2359 45.274 29.3642 45.163 29.4636 45.0282L55.0455 10.1454C56.281 8.46143 58.1348 7.33723 60.1991 7.02007C62.2634 6.70291 64.3692 7.21877 66.0532 8.45418Z" fill="url(#paint2_radial_613_9121)"/>
<defs>
<linearGradient id="paint0_linear_613_9121" x1="66.8762" y1="19.7745" x2="26.7061" y2="68.084" gradientUnits="userSpaceOnUse">
<stop stop-color="#18884F"/>
<stop offset="1" stop-color="#33C481"/>
</linearGradient>
<radialGradient id="paint1_radial_613_9121" cx="0" cy="0" r="1" gradientUnits="userSpaceOnUse" gradientTransform="translate(64.3809 13.0024) rotate(129.014) scale(7.1225 7.17114)">
<stop stop-color="#A5BE00"/>
<stop offset="1" stop-color="#564065" stop-opacity="0"/>
</radialGradient>
<radialGradient id="paint2_radial_613_9121" cx="0" cy="0" r="1" gradientUnits="userSpaceOnUse" gradientTransform="translate(56.8465 61.1395) rotate(-86.7931) scale(59.7753 92.6892)">
<stop stop-color="#21A366"/>
<stop offset="0.961" stop-color="#0B6631"/>
</radialGradient>
</defs>
</svg>
