<svg width="150" height="150" viewBox="0 0 150 150" fill="none" xmlns="http://www.w3.org/2000/svg">
<g clip-path="url(#clip0_157_81)">
<path d="M63.0129 107.564L116.314 54.2629L110.417 48.3654L63.0129 95.7692L39.2629 72.0192L33.3654 77.9167L63.0129 107.564ZM75.0279 150C64.6567 150 54.906 148.032 45.7758 144.096C36.6457 140.16 28.7037 134.818 21.9498 128.071C15.196 121.323 9.84931 113.389 5.90958 104.267C1.96986 95.1454 0 85.399 0 75.0279C0 64.6567 1.96799 54.906 5.90396 45.7758C9.84007 36.6457 15.1819 28.7037 21.9294 21.9498C28.6769 15.196 36.6114 9.84931 45.7329 5.90959C54.8546 1.96987 64.601 0 74.9721 0C85.3433 0 95.094 1.96798 104.224 5.90396C113.354 9.84007 121.296 15.1819 128.05 21.9294C134.804 28.6769 140.151 36.6114 144.09 45.7329C148.03 54.8546 150 64.601 150 74.9721C150 85.3433 148.032 95.094 144.096 104.224C140.16 113.354 134.818 121.296 128.071 128.05C121.323 134.804 113.389 140.151 104.267 144.09C95.1454 148.03 85.399 150 75.0279 150ZM75 141.667C93.6111 141.667 109.375 135.208 122.292 122.292C135.208 109.375 141.667 93.6111 141.667 75C141.667 56.3889 135.208 40.625 122.292 27.7083C109.375 14.7917 93.6111 8.33333 75 8.33333C56.3889 8.33333 40.625 14.7917 27.7083 27.7083C14.7917 40.625 8.33333 56.3889 8.33333 75C8.33333 93.6111 14.7917 109.375 27.7083 122.292C40.625 135.208 56.3889 141.667 75 141.667Z" fill="white"/>
</g>
<defs>
<clipPath id="clip0_157_81">
<rect width="150" height="150" fill="white"/>
</clipPath>
</defs>
</svg>
