<svg width="40" height="40" viewBox="0 0 40 40" fill="none" xmlns="http://www.w3.org/2000/svg">
    <g clip-path="url(#clip0_147_1388)" fill="#fff">
        <path d="M4.14.055c-.43.07-1.234.359-1.64.593C1.945.953.953 1.945.648 2.5a6.668 6.668 0 0 0-.43.977l-.179.546v31.954l.18.546c.273.82.601 1.344 1.258 2 .64.633 1.156.961 1.96 1.258l.508.18 15.782.023c17.585.024 16.351.063 17.539-.515.82-.399 1.804-1.383 2.203-2.203.578-1.188.539.047.515-17.54l-.023-15.78-.18-.509A5.298 5.298 0 0 0 36.563.22l-.508-.18-15.86-.008C11.47.023 4.25.031 4.141.055zM35.79 1.25c1.429.273 2.687 1.531 2.96 2.96.11.579.11 31 0 31.579-.273 1.43-1.531 2.688-2.96 2.961-.274.055-5.665.078-15.86.07-14.336 0-15.477-.008-15.953-.133-1.352-.351-2.47-1.546-2.727-2.898-.11-.578-.11-31 0-31.578.258-1.352 1.375-2.547 2.727-2.899.476-.125 1.617-.132 15.953-.132 10.195-.008 15.586.015 15.86.07z"/>
        <path d="M4.189 2.781c-.281.086-.508.242-.836.57-.758.766-.696-.484-.696 13.696V29.46l.196.187c.226.235.5.25.75.047l.187-.148.04-12.5c.038-12.492.038-12.508.202-12.727.086-.117.282-.281.43-.351.25-.133 1.149-.141 15.54-.141 14.39 0 15.288.008 15.538.14.149.071.344.235.43.352.156.203.164.36.203 2.102.04 1.851.04 1.875.227 2.023.25.203.523.188.75-.047l.195-.187V6.42c0-2.21-.047-2.421-.695-3.07-.766-.765.867-.695-16.68-.687-13.484 0-15.445.016-15.781.117zm32.21 7.524l-.188.148-.04 12.5c-.038 12.493-.038 12.508-.202 12.727a1.368 1.368 0 0 1-.43.351c-.25.133-1.148.141-15.539.141-14.39 0-15.29-.008-15.54-.14a1.367 1.367 0 0 1-.429-.352c-.156-.203-.164-.36-.203-2.102-.039-1.851-.039-1.875-.226-2.023-.25-.203-.524-.188-.75.047l-.196.187v1.79c0 2.21.047 2.421.696 3.07.765.765-.86.695 16.648.695s15.883.07 16.648-.695c.758-.758.696.476.696-13.696V10.54l-.196-.187c-.226-.235-.5-.25-.75-.047z"/>
        <path d="M19.283 9.113c-.438.149-.8.477-1.057.932-.196.351-.226.478-.226.963.008.672.159 1.007.664 1.47.989.896 2.513.605 3.17-.612.12-.224.166-.433.166-.858 0-.485-.03-.612-.226-.963a2.608 2.608 0 0 0-.483-.612c-.514-.418-1.351-.552-2.008-.32zm.221 6c-.368.151-.698.525-.879.978-.128.338-.143.712-.143 6.457v6.102l.173.391c.534 1.2 1.91 1.29 2.57.178l.226-.383.023-6.145c.022-6.893.045-6.617-.512-7.213-.443-.472-.924-.596-1.457-.365z"/>
    </g>
    <defs>
        <clipPath id="clip0_147_1388">
            <path fill="#fff" d="M0 0H40V40H0z"/>
        </clipPath>
    </defs>
</svg>
