<svg width="40" height="40" viewBox="0 0 40 40" fill="none" xmlns="http://www.w3.org/2000/svg">
    <path d="M4.106.026c-.43.07-1.236.36-1.642.595C1.908.926.915 1.919.61 2.474a6.673 6.673 0 0 0-.43.977L0 3.998v31.98l.18.547c.274.821.602 1.345 1.26 2.002.64.633 1.157.962 1.962 1.259l.509.18 15.798.023c17.605.023 16.37.063 17.558-.516.822-.399 1.807-1.384 2.206-2.205.579-1.188.54.047.516-17.553L39.966 3.92l-.18-.508A5.303 5.303 0 0 0 36.563.191l-.508-.18L20.178.003c-8.736-.008-15.962 0-16.072.023zM35.79 1.223c1.431.273 2.69 1.532 2.964 2.963.11.579.11 31.026 0 31.604-.273 1.431-1.533 2.69-2.964 2.964-.274.054-5.67.078-15.877.07-14.351 0-15.493-.008-15.97-.133-1.353-.352-2.472-1.548-2.73-2.9-.11-.58-.11-31.026 0-31.605.258-1.353 1.377-2.549 2.73-2.9.477-.126 1.619-.134 15.97-.134 10.207-.007 15.603.016 15.877.07z"
          fill="#fff"/>
    <path d="M4.154 2.755c-.281.086-.508.243-.837.57-.758.767-.696-.484-.696 13.707v12.425l.196.188c.227.234.5.25.75.046l.188-.148.04-12.51c.039-12.503.039-12.519.203-12.738a1.37 1.37 0 0 1 .43-.351c.25-.133 1.15-.141 15.556-.141 14.406 0 15.306.008 15.556.14.149.071.344.235.43.352.157.204.164.36.203 2.104.04 1.853.04 1.876.227 2.025.25.203.524.188.751-.047l.196-.188V6.4c0-2.213-.047-2.424-.696-3.073-.767-.766.868-.696-16.698-.688-13.5 0-15.463.015-15.799.117zm32.245 7.53l-.188.149-.039 12.51c-.039 12.502-.039 12.518-.203 12.737a1.37 1.37 0 0 1-.43.352c-.25.133-1.15.14-15.556.14-14.407 0-15.306-.007-15.556-.14a1.37 1.37 0 0 1-.43-.352c-.157-.203-.165-.36-.204-2.103-.039-1.853-.039-1.877-.227-2.025-.25-.204-.524-.188-.75.046l-.196.188v1.79c0 2.213.047 2.425.696 3.074.767.766-.86.695 16.667.695s15.9.07 16.666-.695c.759-.759.696.476.696-13.707V10.52l-.195-.188c-.227-.235-.5-.25-.75-.047z"
          fill="#fff"/>
    <path d="M13.78 9.633c-2.494.384-4.043.665-4.207.743-.14.078-.32.25-.407.383-.156.25-.156.423-.156 9.188 0 8.366.008 8.945.14 9.163.267.462.36.485 4.709 1.158 2.3.36 4.231.617 4.395.602.438-.055.743-.32.9-.767l.14-.383h1.096c.602 0 1.227-.039 1.4-.086.164-.047.469-.242.68-.438.618-.578.618-.578.618-4.3v-3.23h.743c.407 0 .743.032.743.063 0 .04-.11.165-.235.29-.297.281-.508.946-.43 1.352.203 1.142 1.486 1.752 2.464 1.173.5-.297 3.636-3.471 3.785-3.831.18-.415.156-1.017-.04-1.415-.187-.376-3.041-3.3-3.589-3.675-.47-.329-1.212-.391-1.697-.149a1.664 1.664 0 0 0-.884 1.126c-.117.532-.016.938.352 1.431l.274.352h-1.486v-3.268c0-3.261 0-3.261-.188-3.66-.227-.485-.727-.922-1.18-1.04-.189-.047-.814-.086-1.393-.086H19.27l-.055-.289c-.125-.688-.524-1.048-1.134-1.032-.195 0-2.127.281-4.301.625zm4.224 10.321v9.704l-.211-.047c-.329-.07-7.32-1.142-7.43-1.142-.078 0-.102-1.751-.102-8.515V11.44l.65-.094c.351-.047 2.049-.313 3.77-.587l3.23-.5c.07-.008.093 1.978.093 9.695zm3.465-8.28c.367.188.36.164.367 3.519v3.19h-.375c-1.29 0-2.002 1.524-1.244 2.666.235.352.767.618 1.244.618h.375V28.086l-.195.188c-.18.188-.227.195-1.29.195h-1.095V11.58h1.024c.626 0 1.087.032 1.189.094zm5.897 6.49c1.306 1.298 1.666 1.704 1.666 1.86 0 .157-.36.564-1.666 1.862-.915.915-1.729 1.657-1.799 1.657-.172 0-.446-.273-.446-.438 0-.07.368-.508.821-.97.9-.922.962-1.07.634-1.461l-.188-.22-2.534-.023c-2.252-.015-2.534-.03-2.62-.148-.133-.18-.125-.376.024-.524.101-.11.445-.125 2.534-.125 2.557 0 2.73-.024 2.886-.368.172-.367.101-.492-.736-1.352-.453-.462-.82-.892-.82-.954 0-.204.25-.422.5-.446.047-.008.829.735 1.744 1.65z"
          fill="#fff"/>
    <path d="M16.166 18.578c-.188.188-.195.22-.195 1.431 0 1.142.015 1.267.164 1.454.125.157.227.204.461.204.235 0 .337-.047.462-.204.148-.187.164-.312.164-1.454 0-1.212-.008-1.243-.196-1.43a.61.61 0 0 0-.43-.196.61.61 0 0 0-.43.195z" fill="#fff"/>
</svg>
