<svg width="40" height="40" viewBox="0 0 40 40" fill="none" xmlns="http://www.w3.org/2000/svg">
    <path fill="white" d="M4.14.055c-.43.07-1.234.359-1.64.593C1.945.953.953 1.945.648 2.5a6.668 6.668 0 0 0-.43.977l-.179.546v31.954l.18.546c.273.82.601 1.344 1.258 2 .64.633 1.156.961 1.96 1.258l.508.18 15.782.023c17.585.024 16.351.063 17.539-.515.82-.399 1.804-1.383 2.203-2.203.578-1.188.539.047.515-17.54l-.023-15.78-.18-.509A5.298 5.298 0 0 0 36.563.22l-.508-.18-15.86-.008C11.47.023 4.25.031 4.141.055zM35.79 1.25c1.429.273 2.687 1.531 2.96 2.96.11.579.11 31 0 31.579-.273 1.43-1.531 2.688-2.96 2.961-.274.055-5.665.078-15.86.07-14.336 0-15.477-.008-15.953-.133-1.352-.351-2.47-1.546-2.727-2.898-.11-.578-.11-31 0-31.578.258-1.352 1.375-2.547 2.727-2.899.476-.125 1.617-.132 15.953-.132 10.195-.008 15.586.015 15.86.07z"/>
    <path fill="white" d="M4.189 2.781c-.281.086-.508.242-.836.57-.758.766-.696-.484-.696 13.696V29.46l.196.187c.226.235.5.25.75.047l.187-.148.04-12.5c.038-12.492.038-12.508.202-12.727.086-.117.282-.281.43-.351.25-.133 1.149-.141 15.54-.141 14.39 0 15.288.008 15.538.14.149.071.344.235.43.352.156.203.164.36.203 2.102.04 1.851.04 1.875.227 2.023.25.203.523.188.75-.047l.195-.187V6.42c0-2.21-.047-2.421-.695-3.07-.766-.765.867-.695-16.68-.687-13.484 0-15.445.016-15.781.117zm32.21 7.524l-.188.148-.04 12.5c-.038 12.493-.038 12.508-.202 12.727a1.368 1.368 0 0 1-.43.351c-.25.133-1.148.141-15.539.141-14.39 0-15.29-.008-15.54-.14a1.367 1.367 0 0 1-.429-.352c-.156-.203-.164-.36-.203-2.102-.039-1.851-.039-1.875-.226-2.023-.25-.203-.524-.188-.75.047l-.196.187v1.79c0 2.21.047 2.421.696 3.07.765.765-.86.695 16.648.695s15.883.07 16.648-.695c.758-.758.696.476.696-13.696V10.54l-.196-.187c-.226-.235-.5-.25-.75-.047z"/>
    <path fill="white" d="M19.312 11.069c-1.19.326-2.05 1.454-2.072 2.72-.004.336.056.46.31.64.275.197.674.094.855-.215.047-.076.095-.264.112-.416.051-.443.176-.734.447-1.016.3-.313.606-.443 1.036-.443.43 0 .735.13 1.035.443.305.322.434.645.434 1.114-.004.269-.025.376-.129.604-.154.34-.318.515-.76.815a2.713 2.713 0 0 0-1.225 2.304v.35l-4.672 2.81c-4.388 2.64-4.693 2.831-4.981 3.127-.34.349-.537.707-.64 1.15a2.438 2.438 0 0 0 1.65 2.872c.215.063 1.087.072 9.3.072h9.06l.327-.112a2.349 2.349 0 0 0 1.362-1.244c.55-1.199.13-2.479-1.053-3.208-.223-.139-2.35-1.427-4.732-2.86l-4.332-2.612v-.278c0-.617.18-.93.778-1.346.503-.35.79-.667 1.023-1.133.228-.456.305-.796.305-1.333 0-.841-.232-1.423-.812-2.027-.421-.438-.726-.626-1.234-.76-.395-.108-1.04-.117-1.392-.018zm5.33 10.855c2.492 1.503 4.598 2.783 4.67 2.841.078.058.19.192.25.3.301.537.103 1.235-.425 1.485l-.228.108-8.961-.01-8.961-.013-.21-.134a1.187 1.187 0 0 1-.34-.353c-.112-.193-.13-.264-.13-.537 0-.269.018-.354.121-.533.065-.116.172-.25.237-.3.326-.246 9.322-5.633 9.378-5.61.034.013 2.101 1.252 4.598 2.756z"/>
</svg>
