<svg width="40" height="40" viewBox="0 0 40 40" fill="none" xmlns="http://www.w3.org/2000/svg">
    <path d="M4.07 1.375c-1.32.352-2.351 1.406-2.703 2.742-.18.672-.18 31.094 0 31.766a3.823 3.823 0 0 0 2.735 2.75c.406.101 2.289.117 15.898.117 16.836 0 15.82.023 16.734-.438.555-.28 1.243-.96 1.54-1.507.507-.961.476.195.476-16.805 0-13.61-.016-15.492-.117-15.898a3.823 3.823 0 0 0-2.75-2.735c-.664-.172-31.164-.164-31.813.008zM18.75 20v16.25l-7.102-.016c-7.039-.023-7.109-.023-7.32-.187a2.135 2.135 0 0 1-.375-.375l-.164-.211-.023-15.25c-.008-8.39 0-15.36.023-15.5.055-.313.383-.711.703-.852.188-.086 1.594-.101 7.25-.109h7.008V20zM35.672 3.953c.117.086.289.258.375.375l.164.211V35.46l-.164.212a2.136 2.136 0 0 1-.375.375c-.211.164-.281.164-7.32.187l-7.102.016V3.75l7.102.016c7.039.023 7.109.023 7.32.187z"
          fill="#fff"/>
    <path d="M10.727 13.906c-.344.078-.758.446-2.618 2.32-1.625 1.641-1.859 1.946-1.859 2.446 0 .351.266.82.586 1.015.32.196.914.235 1.219.079.101-.055.53-.43.953-.844l.758-.758v3.398c0 1.993.03 3.508.078 3.665.101.367.515.773.875.875.36.093.804-.008 1.117-.258.422-.328.43-.39.43-4.164 0-1.914.023-3.477.054-3.477.032 0 .407.352.836.774.602.585.867.796 1.11.859a1.227 1.227 0 0 0 1.359-.563c.188-.296.203-.906.047-1.21-.063-.118-.985-1.079-2.055-2.141-1.601-1.586-1.992-1.938-2.25-2.008a2.86 2.86 0 0 0-.351-.078c-.024.008-.149.031-.29.07zm17.648.211c-.14.07-.336.235-.43.367-.172.243-.172.266-.195 3.868l-.023 3.625-.797-.79c-.446-.437-.907-.828-1.024-.875-.539-.203-1.187-.007-1.508.47-.21.304-.242.905-.07 1.234.172.32 3.961 4.062 4.211 4.156.313.11.648.094.938-.047.351-.18 3.937-3.758 4.132-4.125.407-.781-.203-1.766-1.086-1.766-.187 0-.422.04-.515.086-.094.047-.532.446-.969.875l-.805.797v-3.484c0-3.445 0-3.477-.172-3.82-.328-.649-1.046-.891-1.687-.57z"
          fill="#fff"/>
</svg>
