<svg width="30" height="30" fill="none" xmlns="http://www.w3.org/2000/svg">
    <path d="M15.786 25.856a2.755 2.755 0 1 0 0-5.51 2.755 2.755 0 0 0 0 5.51z" fill="#A0A0D0"/>
    <path d="M13.24 23.357a2.755 2.755 0 0 1 2.756-2.755c.799 0 1.515.342 2.018.884a2.755 2.755 0 0 0-4.985 1.614c0 .724.28 1.38.737 1.872a2.752 2.752 0 0 1-.526-1.615z" fill="#DFDFDF"/>
    <path d="M6.31 16.148a3.8 3.8 0 1 0-.07-7.602 3.8 3.8 0 0 0 .07 7.602z" fill="#A0A0D0"/>
    <path d="M2.764 12.698a3.8 3.8 0 0 1 6.585-2.582 3.79 3.79 0 0 0-3.074-1.572 3.8 3.8 0 0 0-3.8 3.8c0 .998.388 1.903 1.015 2.583a3.78 3.78 0 0 1-.726-2.229z" fill="#DFDFDF"/>
    <path d="M22.767 8.68a1.616 1.616 0 1 0 0-3.233 1.616 1.616 0 0 0 0 3.232z" fill="#A0A0D0"/>
    <path d="M21.274 7.212a1.615 1.615 0 0 1 2.8-1.098 1.614 1.614 0 1 0-2.492 2.045 1.594 1.594 0 0 1-.308-.947z" fill="#DFDFDF"/>
    <path d="M14.868 5.406a2.008 2.008 0 1 0-2.84-2.84 2.008 2.008 0 0 0 2.84 2.84z" fill="#A0A0D0"/>
    <path d="M11.593 4.174a2.008 2.008 0 0 1 3.48-1.363 2.008 2.008 0 1 0-3.095 2.542 2.003 2.003 0 0 1-.385-1.179z" fill="#DFDFDF"/>
    <path d="M16.396 3.424a.94.94 0 1 1 .002-1.882.94.94 0 0 1-.002 1.882z" fill="#A0A0D0"/>
    <path d="M15.53 2.573a.94.94 0 0 1 1.628-.638.94.94 0 1 0-1.448 1.19.929.929 0 0 1-.18-.552z" fill="#DFDFDF"/>
    <path d="M1.534 15.94a.94.94 0 1 1 .002-1.88.94.94 0 0 1-.002 1.88z" fill="#A0A0D0"/>
    <path d="M.668 15.088a.94.94 0 0 1 1.628-.638.94.94 0 1 0-1.448 1.19.921.921 0 0 1-.18-.552z" fill="#DFDFDF"/>
    <path d="M6.76 8.16a.47.47 0 1 1 0-.938.47.47 0 0 1 0 .939z" fill="#A0A0D0"/>
    <path d="M6.327 7.734a.47.47 0 0 1 .813-.319.47.47 0 1 0-.725.595.475.475 0 0 1-.088-.276z" fill="#DFDFDF"/>
    <path d="M3.464 16.88a.47.47 0 1 1-.001-.94.47.47 0 0 1 .001.94z" fill="#A0A0D0"/>
    <path d="M3.03 16.455a.47.47 0 0 1 .814-.32.47.47 0 1 0-.725.595.488.488 0 0 1-.088-.275z" fill="#DFDFDF"/>
    <path d="M19.488 22.764a.47.47 0 1 1-.002-.938.47.47 0 0 1 .002.938z" fill="#A0A0D0"/>
    <path d="M19.054 22.338a.47.47 0 0 1 .814-.32.47.47 0 1 0-.725.595.475.475 0 0 1-.089-.275z" fill="#DFDFDF"/>
    <path d="M22.613 9.815a.47.47 0 1 1-.002-.939.47.47 0 0 1 .002.939z" fill="#A0A0D0"/>
    <path d="M22.177 9.39a.47.47 0 0 1 .814-.319.47.47 0 1 0-.725.595.488.488 0 0 1-.089-.276z" fill="#DFDFDF"/>
    <path d="M27.176 13.649a.94.94 0 1 0 0-1.88.94.94 0 0 0 0 1.88z" fill="#A0A0D0"/>
    <path d="M26.308 12.796a.94.94 0 0 1 1.628-.638.94.94 0 1 0-1.448 1.19.937.937 0 0 1-.18-.552z" fill="#DFDFDF"/>
    <path d="M21.15 27.137a.94.94 0 1 1 .002-1.88.94.94 0 0 1-.001 1.88z" fill="#A0A0D0"/>
    <path d="M20.282 26.286a.94.94 0 0 1 1.628-.638.94.94 0 1 0-1.448 1.19.937.937 0 0 1-.18-.552z" fill="#DFDFDF"/>
    <path d="M19.634 21.218a1.517 1.517 0 1 0 0-3.035 1.517 1.517 0 0 0 0 3.035z" fill="#A0A0D0"/>
    <path d="M18.23 19.84c0-.837.68-1.517 1.518-1.517.44 0 .834.188 1.111.488a1.518 1.518 0 1 0-2.34 1.92c-.18-.25-.288-.557-.288-.89z" fill="#DFDFDF"/>
    <path d="M10.277 25.259a1.517 1.517 0 1 0 0-3.034 1.517 1.517 0 0 0 0 3.034z" fill="#A0A0D0"/>
    <path d="M8.876 23.882a1.518 1.518 0 0 1 2.629-1.03 1.518 1.518 0 1 0-2.34 1.92 1.503 1.503 0 0 1-.289-.89z" fill="#DFDFDF"/>
</svg>
