<svg width="26" height="26" fill="none" xmlns="http://www.w3.org/2000/svg"><path d="M22.654 4.906c-.163.142-.2.214-.2.41 0 .298.2.53.491.583.563.101.926-.589.515-.993-.243-.238-.54-.238-.806 0zM11.873 3.372c-1.336.173-2.64.604-3.697 1.224-.462.269-.559.38-.559.624 0 .224.071.346.254.442.203.107.295.097.559-.05 1.056-.59 1.934-.935 2.945-1.148.716-.158 2.412-.173 3.123-.03 2.326.461 4.245 1.69 5.581 3.559 1.148 1.61 1.737 3.737 1.564 5.672-.066.721-.254 1.635-.452 2.204-.203.584-.757 1.64-1.122 2.158-.437.62-1.427 1.605-2.037 2.037-2.071 1.457-4.671 1.955-7.089 1.36-4.545-1.122-7.363-5.6-6.423-10.206.187-.915.578-1.925 1.04-2.682.224-.37.23-.553.031-.777-.122-.137-.183-.167-.355-.162-.264.01-.35.086-.635.574-.98 1.67-1.442 3.808-1.244 5.748a9.57 9.57 0 0 0 2.925 6.043c1.462 1.402 3.082 2.224 5.123 2.59.884.157 2.28.157 3.195 0 2.117-.37 3.895-1.31 5.362-2.834 1.407-1.462 2.235-3.108 2.59-5.123.163-.925.163-2.265 0-3.19-.355-2.016-1.183-3.66-2.59-5.123a9.596 9.596 0 0 0-5.337-2.834c-.762-.132-2.031-.168-2.752-.076z" fill="#000"/><path d="M12.752 5.232c-.213.155-.26.316-.26.815 0 .477.006.488.201.671.225.21.414.238.686.105.254-.122.295-.238.295-.831 0-.516-.006-.544-.171-.699-.207-.188-.55-.216-.75-.06zM6.143 6.27c-.164.165-.19.311-.088.511a.473.473 0 0 0 .382.227.47.47 0 0 0 .444-.44.474.474 0 0 0-.227-.386c-.2-.102-.346-.076-.51.088zm11.3 1.632c-.08.04-.934.853-1.884 1.807l-1.736 1.732-.244-.086c-.31-.107-.848-.107-1.158 0l-.244.086-.873-.868c-.477-.473-.92-.889-.98-.92a.498.498 0 0 0-.67.67c.03.062.446.504.919.98l.868.874-.086.244c-.214.63-.051 1.33.421 1.803.493.492 1.204.64 1.869.39.401-.146.823-.568.97-.97.137-.354.147-.878.03-1.223l-.086-.244 1.777-1.782c1.179-1.183 1.793-1.833 1.813-1.925a.531.531 0 0 0-.294-.574c-.219-.09-.224-.09-.412.006zm-4.052 4.489c.442.264.421 1.005-.03 1.244-.498.254-1.072-.082-1.072-.625 0-.431.284-.72.711-.72.137 0 .294.04.391.1zm-7.962.248c-.193.199-.204.488-.026.68.158.174.295.204.797.179.391-.016.417-.026.559-.183.162-.183.183-.35.071-.569-.112-.218-.218-.254-.762-.254-.472 0-.497.005-.64.147zm13.832.03c-.162.163-.177.199-.152.397.02.142.071.249.162.325.117.107.188.117.64.117.498 0 .513-.005.66-.147a.502.502 0 0 0-.142-.813c-.06-.03-.31-.056-.548-.056-.437 0-.442 0-.62.178zm-6.495 6.476c-.218.086-.274.243-.274.777 0 .487.005.502.147.65.25.248.65.177.813-.143.03-.06.056-.31.056-.548 0-.437-.005-.447-.173-.615-.178-.177-.345-.213-.569-.121z" fill="#000"/><path d="M25.97 13.977c-.27 2.842-1.169 5.115-2.855 7.205-2.098 2.614-5.08 4.282-8.489 4.75-.635.09-2.616.09-3.25 0-2.957-.407-5.502-1.663-7.565-3.723C.113 18.503-1.004 13.016.946 8.13 1.912 5.715 3.67 3.58 5.92 2.1 8.1.66 10.801-.093 13.432.009c2.743.107 5.12.951 7.483 2.66l.112.08v-.436c0-.494.066-.687.28-.784.279-.127.533-.055.66.194.06.117.076.366.076 1.24v1.099l-.148.162-.147.168H20.58c-1.169 0-1.169 0-1.3-.122-.158-.147-.214-.407-.133-.57.122-.233.254-.3.635-.3l.356-.004-.178-.148c-.254-.213-1.377-.88-1.854-1.098a12.874 12.874 0 0 0-3.404-1.017c-.447-.071-.904-.092-1.701-.092-1.24 0-1.885.077-2.972.351-2.073.529-3.937 1.602-5.486 3.153-1.555 1.55-2.621 3.412-3.15 5.491-.274 1.083-.35 1.734-.35 2.975 0 1.205.066 1.805.325 2.873.523 2.14 1.732 4.24 3.307 5.746 1.854 1.774 4.064 2.862 6.599 3.259.817.127 2.636.127 3.454 0a15.033 15.033 0 0 0 2.286-.564c3.815-1.378 6.72-4.628 7.645-8.538.28-1.174.366-2.44.28-4.037l-.026-.478.167-.148c.24-.213.574-.178.747.087.132.203.224 1.927.142 2.766z" fill="#000"/></svg>