<svg width="23" height="26" viewBox="0 0 26 26" fill="none" xmlns="http://www.w3.org/2000/svg">
    <path d="M18.121.01a2.535 2.535 0 0 0-1.38.745c-.554.578-.696 1.048-.696 2.262 0 .96.049 1.21.338 1.749l.166.299-.205.137a4.54 4.54 0 0 0-.99.974c-.5.7-.73 1.382-.73 2.17-.004.495 0 .51.133.627.24.206.651.117.759-.162.03-.073.063-.318.078-.543.064-.98.671-1.925 1.523-2.385l.255-.143.25.108c.529.23 1.278.23 1.876.01l.284-.108.26.142c.406.216.964.804 1.175 1.24.328.66.333.71.333 3.565 0 2.777 0 2.801-.265 2.978a1.219 1.219 0 0 1-.357.122c-.314.059-.441.157-.5.372-.03.103-.171 2.18-.323 4.619-.147 2.439-.294 4.55-.323 4.687-.059.304-.26.534-.505.578-.088.02-.47.024-.847.015-.661-.015-.7-.02-.823-.138-.308-.288-.289-.127-.539-4.31-.269-4.564-.323-5.348-.396-5.524-.069-.167-.304-.304-.52-.304-.146 0-.41-.161-.48-.299-.034-.053-.078-.235-.097-.401-.054-.382-.201-.549-.495-.549-.166 0-.225.03-.348.167-.142.161-.147.181-.127.514.04.617.411 1.17.945 1.406.176.078.22.122.24.254.03.157.083 1.073.274 4.37.162 2.82.245 3.996.3 4.329.092.578.396 1.018.886 1.283l.308.166h2.008l.309-.166c.51-.274.798-.705.891-1.313.03-.18.162-2.106.294-4.275.314-5.074.255-4.53.514-4.648.304-.137.637-.46.794-.784l.137-.274.015-2.713c.014-2.964 0-3.145-.265-3.806a5.636 5.636 0 0 0-.304-.622c-.205-.357-.754-.94-1.107-1.185l-.259-.177.215-.426c.265-.529.334-.974.294-1.895-.044-.994-.24-1.538-.734-2.033-.47-.47-.975-.68-1.675-.71a4.761 4.761 0 0 0-.564.005zm1.166 1.122c.318.171.52.396.69.759.123.255.128.308.128 1.077 0 .955-.059 1.186-.397 1.563a1.532 1.532 0 0 1-2.546-.397c-.138-.304-.142-.323-.142-1.141V2.16l.161-.328c.299-.607.769-.881 1.455-.857.323.015.44.04.651.157zM9.898 4.565c-.612.162-1.136.573-1.396 1.092-.225.436-.284.823-.264 1.67.02.804.093 1.132.328 1.46l.098.137-.299.22c-.578.417-1.068 1.146-1.273 1.89-.098.353-.108.525-.128 2.396-.01 1.322 0 2.106.035 2.297.098.524.328.857.769 1.107l.25.142.034.455c.014.245.083 1.254.152 2.238.215 3.164.274 3.89.323 4.134.108.539.47.97.96 1.156.387.142 1.601.142 1.988 0 .367-.137.637-.387.818-.754.176-.358.157-.181.47-4.594l.186-2.635.27-.157c.318-.191.607-.544.7-.867.05-.171.064-.72.064-2.356 0-1.87-.015-2.174-.088-2.473-.196-.769-.725-1.582-1.298-1.984l-.29-.205.148-.274c.215-.397.279-.73.279-1.48 0-.734-.074-1.126-.274-1.528-.446-.876-1.568-1.356-2.562-1.087zm.985.96c.244.073.597.382.74.646.087.172.107.3.122.872.024.789-.044 1.088-.304 1.396-.245.28-.554.416-.96.416-.578 0-1.043-.338-1.2-.862-.093-.313-.098-1.4-.005-1.66a1.28 1.28 0 0 1 1.607-.808zM9.746 9.732c.382.152 1.088.152 1.48 0l.283-.108.245.133c.309.166.784.656.946.98.298.587.303.64.303 2.884 0 2.336.01 2.277-.387 2.38-.107.03-.254.064-.318.083-.274.079-.274.06-.544 3.88-.264 3.815-.279 3.908-.538 4.04-.196.103-1.269.103-1.465 0-.289-.147-.27-.005-.519-3.698-.215-3.193-.28-3.884-.353-4.03-.073-.148-.186-.206-.46-.255a.575.575 0 0 1-.455-.421c-.05-.245-.03-3.605.02-4.012.092-.715.592-1.469 1.209-1.822.132-.073.245-.137.26-.137.014 0 .146.05.293.103zM2.493 9.13a1.983 1.983 0 0 0-1.318 1.479c-.039.171-.053.548-.039 1.028.015.745.02.774.172 1.078l.156.313-.107.069c-.27.181-.804.793-.98 1.121C.03 14.88 0 15.105 0 17c0 1.866.015 1.954.323 2.322.098.112.275.26.392.328.118.069.216.152.216.186 0 .03.068.642.146 1.352.084.715.182 1.64.22 2.057.089.886.187 1.15.55 1.47.332.293.607.357 1.45.332.64-.015.714-.03.944-.147.294-.156.48-.362.637-.7.093-.206.142-.539.309-2.204.245-2.395.225-2.263.362-2.297.186-.044.52-.367.661-.637l.132-.25V15.14l-.137-.401c-.21-.622-.73-1.328-1.2-1.631l-.117-.074.127-.25c.181-.357.22-.607.226-1.317 0-1.195-.314-1.817-1.112-2.214-.348-.171-.407-.186-.867-.196-.377-.01-.558.005-.77.074zm1.156.96c.205.088.5.426.558.651.069.24.069 1.21 0 1.45-.113.416-.544.725-1.019.725-.47.005-.803-.201-.984-.603-.078-.171-.098-.323-.098-.852 0-.588.01-.656.127-.891.255-.515.853-.715 1.416-.48zm-.466 3.815c.304 0 .485-.03.676-.103l.255-.098.299.2c.348.226.67.638.837 1.054.108.27.113.343.128 1.866.01.877.005 1.64-.015 1.704-.04.167-.2.309-.343.309-.171 0-.401.122-.465.25-.034.053-.167 1.136-.294 2.404-.157 1.47-.264 2.332-.304 2.386-.142.18-.21.196-.788.2-.544 0-.583-.005-.696-.117a.608.608 0 0 1-.142-.28 253.61 253.61 0 0 1-.377-3.52c-.049-.5-.117-.97-.152-1.049-.058-.142-.289-.274-.48-.274-.058 0-.156-.054-.22-.123l-.122-.117v-1.582c0-.887.024-1.675.053-1.798.123-.533.603-1.185 1.044-1.41.19-.098.19-.098.44 0 .182.069.368.098.666.098z" fill="#000"/>
    <path d="M14.684 9.819c-.444.566-.233 2.13.264 2.13.22 0 .434-.33.512-.777.112-.685.208-1.063-.01-1.353-.138-.184-.598-.215-.766 0z" fill="#000"/>
</svg>
