<svg width="32" height="26" fill="none" xmlns="http://www.w3.org/2000/svg"><path d="M14.954.623c-2.275.475-3.95 2.118-4.444 4.356-.08.362-.1.7-.08 1.331l.018.85-.219.056c-.119.032-.387.1-.594.15-.206.057-.7.207-1.093.344-2.575.869-4.425 1.975-5.913 3.519C.71 13.229.085 15.41.767 17.76c.3 1.031.912 2.119 1.593 2.819l.32.337-.107.344c-.256.813.1 1.662.875 2.069.569.3 1.437.206 1.912-.213.088-.075.194-.043.844.263a22.456 22.456 0 0 0 6.869 2.006c1.087.137 4.144.156 5.344.031 4.43-.468 8.225-1.994 10.606-4.281.887-.85 1.581-1.819 1.962-2.738 1.2-2.918.12-6-2.9-8.3l-.587-.45-.031-.418c-.05-.7-.382-1.206-.988-1.525-.412-.213-1.1-.2-1.537.025-.17.094-.35.206-.388.256-.069.081-.169.056-.762-.15a27.416 27.416 0 0 0-2.05-.619c-.25-.062-.27-.081-.232-.23.07-.295.038-1.55-.062-2.007A5.622 5.622 0 0 0 17.385.71c-.65-.169-1.825-.212-2.43-.087zm2.181 1.062c.207.05.6.206.875.344 1.225.6 2.075 1.656 2.42 3.012.105.419.124.644.1 1.263-.045 1.237-.076 1.294-2.457 5.275-1.131 1.893-2.075 3.444-2.094 3.444-.069 0-4.131-6.863-4.275-7.213a4.272 4.272 0 0 1-.306-1.719c.012-2.187 1.512-4 3.706-4.475.494-.106 1.494-.068 2.031.069zm-6.25 6.731c.057.15.313.619.57 1.044.255.425.474.8.48.831.007.038-.343.144-.787.244-.438.094-.825.194-.863.219-.037.019-.187-.075-.325-.213a1.747 1.747 0 0 0-1.275-.531c-.912 0-1.612.675-1.693 1.625l-.032.4-.506.331C2.485 14.96 3.398 18.73 8.48 20.735c3.044 1.206 7.106 1.594 10.875 1.044l.844-.125.212.25c.432.518 1.17.731 1.85.537.644-.187 1.22-.925 1.22-1.562 0-.107.143-.2.737-.475 1.206-.569 2.162-1.244 2.768-1.963 2.3-2.725.47-5.837-4.35-7.406-.906-.294-2.25-.631-2.525-.631-.068 0-.13-.019-.13-.038 0-.018.224-.406.493-.862.275-.45.544-.938.6-1.088.069-.162.144-.262.212-.262.17 0 1.6.406 2.163.606l.5.181.044.413c.068.687.38 1.175.956 1.475.575.3 1.437.206 1.919-.219.125-.112.218-.056.987.581 2.1 1.731 3 3.957 2.463 6.088a7.08 7.08 0 0 1-.394 1.031c-1.4 2.944-5.431 5.238-10.475 5.963-2.594.375-5.475.325-7.781-.125-1.782-.35-3.688-.988-5.175-1.738l-.494-.25-.031-.425c-.088-1.2-1.163-1.969-2.25-1.613l-.332.107-.3-.325c-1.156-1.256-1.78-3.125-1.55-4.594.388-2.394 2.37-4.519 5.57-5.975 1.068-.487 3.105-1.162 3.537-1.175.106-.006.162.063.243.256zm15.37.357c.162.168.193.243.193.506 0 .269-.031.337-.206.512s-.244.207-.513.207-.337-.032-.512-.207-.207-.243-.207-.506c0-.325.157-.575.438-.7.231-.1.6-.019.806.188zm-17 2.5c.162.168.193.243.193.506 0 .268-.031.337-.206.512s-.244.207-.513.207-.337-.032-.512-.207-.207-.244-.207-.506c0-.325.157-.575.438-.7.231-.1.6-.019.806.188zm3.987 1.162c.368.619.662 1.131.643 1.144-.012.012-.38.062-.825.112-3.393.381-5.225 1.275-5.062 2.475.1.769 1.012 1.357 2.787 1.806.394.1.72.188.725.2.007.007.063.138.132.294.162.388.425.663.8.863.262.137.406.168.787.168.413 0 .513-.024.813-.193.2-.113.437-.313.562-.481l.219-.294h1.05c3.919 0 7.094-.75 7.875-1.857.712-1-.219-1.987-2.406-2.543-.813-.213-2.432-.475-2.907-.475a.842.842 0 0 1-.312-.05c-.056-.038.112-.363.569-1.131a28.88 28.88 0 0 1 .7-1.132c.068-.068 1.568.232 2.362.469 2.525.744 4.306 1.887 4.95 3.188.225.456.244.53.244 1.03 0 .495-.019.576-.231 1.007-.488.975-1.563 1.875-3.05 2.531l-.47.207-.218-.207c-.381-.368-.719-.506-1.25-.506-.387.006-.525.031-.787.169-.463.244-.757.625-.925 1.2l-.075.256-.744.106c-4.1.588-8.388.038-11.356-1.45-2.957-1.487-3.67-3.525-1.87-5.312.382-.381 1.282-1.063 1.407-1.063.013 0 .169.1.35.219.531.356.956.425 1.563.244.618-.181 1.187-.931 1.187-1.563 0-.125.069-.156.675-.3.788-.187 1.269-.275 1.356-.262.032.012.363.518.732 1.131zm1.843 3.075c.594.987.72 1.106 1.063.981.125-.043.306-.287.725-.981l.55-.919h.244c.393 0 1.487.125 2.25.25 1.025.175 1.825.407 2.418.694.825.394.825.587 0 .994-1.237.606-3.743 1-6.406 1-.856 0-.956-.013-.987-.113-.188-.593-.463-.944-.925-1.187-.438-.225-1.12-.238-1.538-.019-.362.188-.606.419-.756.706l-.119.225-.387-.087c-.975-.219-1.838-.575-2.113-.869-.2-.212-.081-.362.519-.656.95-.457 3.087-.894 4.556-.931l.356-.007.55.919zm-1.33 1.763c.162.168.193.243.193.506 0 .268-.031.337-.206.512s-.244.206-.513.206-.337-.03-.512-.206c-.175-.175-.207-.244-.207-.506 0-.325.157-.575.438-.7.231-.1.6-.019.806.188zm8.5 3c.162.168.193.243.193.506 0 .268-.031.337-.206.512s-.244.206-.513.206-.337-.03-.512-.206c-.175-.175-.207-.244-.207-.506 0-.325.157-.575.438-.7.231-.1.6-.019.806.188zm-17.5 1c.162.168.193.243.193.506 0 .268-.031.337-.206.512s-.244.206-.513.206-.337-.03-.512-.206c-.175-.175-.207-.244-.207-.506 0-.325.157-.575.438-.7.231-.1.6-.019.806.188z" fill="#000"/><path d="M15.029 3.297c-1.825.637-2.6 2.744-1.613 4.381.625 1.038 1.957 1.631 3.107 1.388 2.162-.45 3.143-2.838 1.906-4.65-.287-.425-.869-.888-1.369-1.082-.556-.212-1.475-.23-2.031-.037zm1.813 1.037c.406.207.737.544.93.932.15.3.176.43.176.856-.006.656-.169 1.044-.631 1.462-.782.713-1.894.713-2.675 0-.963-.875-.85-2.375.237-3.106.412-.275.606-.325 1.194-.3.369.013.569.05.768.156z" fill="#000"/></svg>