<svg width="66" height="54" fill="none" xmlns="http://www.w3.org/2000/svg"><path d="M26.039 3.27C17.475 4.662 10.725 10.906 8.51 19.533c-.696 2.7-.696 7.172 0 9.872 1.582 6.117 5.252 10.926 10.653 13.943 3.016 1.687 8.142 2.847 11.39 2.573 1.498-.127 1.54-.127 2.13.485.908.95 1.646.865 2.89-.358l1.013-1.013 3.333 3.333c3.923 3.923 3.944 3.923 5.59 2.236l1.054-1.097-.147-2.236c-.064-1.223-.19-3.037-.254-4.029l-.105-1.793 1.202-.843c1.646-1.16 4.535-3.903 5.632-5.38 1.224-1.603 2.785-4.661 3.523-6.876.612-1.814 1.35-5.168 1.582-7.298.148-1.287-.19-2.32-.844-2.574-.59-.21-2.278-.148-4.134.19-3.017.527-2.658.675-3.46-1.519-1.096-3.058-2.425-5.126-4.956-7.678-3.27-3.29-6.497-5.083-10.864-6.012-2.13-.464-5.569-.548-7.699-.19zm8.543 1.16c2.763.738 7.7 3.29 7.383 3.818-.169.232-4.388 1.202-6.877 1.56-2.89.401-8.395.401-11.412-.02-2.425-.317-6.475-1.245-6.77-1.54-.38-.359 3.438-2.532 5.99-3.418 2.384-.801 4.092-1.033 7.15-.949 2.026.064 3.334.211 4.536.549zM18.551 9.577c3.185.843 5.737 1.202 9.302 1.329 4.788.168 9.45-.401 13.69-1.646l1.477-.443 1.54 1.624c.843.907 1.497 1.73 1.455 1.857-.085.274-2.32 1.054-5.105 1.75-7.13 1.815-15.862 1.815-22.992 0-2.763-.696-5.02-1.476-5.105-1.75-.042-.127.612-.95 1.435-1.835 1.223-1.308 1.603-1.604 1.961-1.498.253.063 1.308.337 2.342.612zm-5.126 3.944c1.582.612 6.18 1.772 8.923 2.236 3.27.527 10.863.527 14.132 0 2.764-.464 7.341-1.624 8.965-2.257 1.371-.548 1.287-.612 2.658 2.215l.928 1.898-1.645.78c-3.713 1.794-9.535 3.291-14.492 3.776-6.834.654-14.892-.759-21.452-3.754-1.54-.696-1.603-.76-1.413-1.266.548-1.434 1.962-4.07 2.172-4.07.064 0 .612.189 1.224.442zm-2.3 5.611c2.659 1.35 8.586 3.037 12.488 3.544 3.185.422 8.712.4 11.75-.021 4.113-.57 8.711-1.878 12.255-3.502 1.202-.57 1.476-.612 1.645-.358.317.506.106.674-1.624 1.244-1.877.633-4.345 1.835-5.78 2.805-.527.36-1.75 1.435-2.742 2.384l-1.793 1.73-1.687.274c-1.055.19-3.46.274-6.329.274-5.252 0-7.867-.337-12.55-1.645-2.257-.612-7.615-2.616-7.953-2.953-.126-.127.507-3.881.697-4.177.126-.21.738-.063 1.624.401zm45.816.274c.38.401.38.59.127 2.574-.253 2.004-1.097 5.737-1.35 6.011-.38.359-2.32-.759-4.177-2.425-1.413-1.266-3.143-3.734-3.143-4.472 0-.549.106-.612 1.667-1.034 1.645-.443 4.851-1.012 5.948-1.054.296-.022.717.168.928.4zm-9.197 2.3c.675 2.256 5.57 6.96 7.257 6.982.19 0 .358.126.358.295 0 .57-2.088 4.45-3.122 5.822-3.206 4.24-10.209 8.986-14.175 9.618l-.886.148-2.72-2.721c-1.498-1.498-2.722-2.848-2.722-2.995 0-.17.296-1.16.633-2.236 1.624-4.83 5.843-10.189 10.505-13.29 1.73-1.16 4.008-2.383 4.493-2.425.063-.021.232.358.38.802zm-37.167 2.826c6.814 2.932 15.061 4.303 22.107 3.755 1.624-.148 3.185-.317 3.459-.38.464-.105.422-.021-.422 1.097l-.907 1.223-2.869-.147c-1.56-.085-3.354-.211-3.965-.274l-1.097-.127-1.16 1.16c-.675.675-1.16 1.35-1.16 1.603 0 .253.295.78.653 1.181l.633.739-.801-.106c-5.759-.76-10.821-2.215-14.45-4.134l-1.329-.696-.253-1.371c-.232-1.308-.38-4.22-.19-4.22.043 0 .844.317 1.751.697zm1.224 7.003c1.898.865 5.21 1.962 7.594 2.531 1.856.443 3.332.675 6.538 1.076.76.085 1.14.359 3.06 2.3 2.087 2.109 2.15 2.193 1.644 2.32-.928.232-7.256-.296-10.104-.865-1.497-.274-3.88-.886-5.294-1.35-2.51-.802-2.616-.865-3.143-1.73-.738-1.202-1.856-3.417-2.215-4.408-.316-.928-.422-.928 1.92.126zm21.41-.548l.991.126-1.012 1.772c-.549.95-1.266 2.595-1.603 3.628l-.591 1.878-2.784-2.806c-1.54-1.519-2.806-2.91-2.806-3.08 0-.19.359-.696.802-1.139l.78-.801 2.616.147c1.455.064 3.08.19 3.607.275zm-16.896 7.72c4.176 1.16 8.522 1.793 12.403 1.793h2.257l-.717.738c-.97.992-.95 1.772.063 2.806.443.443.78.886.78.97 0 .295-4.999-.021-6.517-.4-3.46-.844-6.687-2.616-9.176-5.021-.95-.907-1.519-1.603-1.308-1.54.232.085 1.223.359 2.215.654zm18.794 6.75c-.506.527-1.012.95-1.118.95-.337 0-3.733-3.439-3.733-3.776 0-.17.4-.739.886-1.224l.907-.907 4.008 4.008-.95.949zm10.189-2.995c.063.168.168 1.75.253 3.543l.147 3.249-.97.928-.97.95-2.848-2.827c-1.56-1.561-2.848-2.89-2.848-2.953 0-.064.844-.38 1.878-.696 1.033-.338 2.573-1.013 3.438-1.52 1.772-1.033 1.772-1.033 1.92-.674z" fill="#fff"/><path fill-rule="evenodd" clip-rule="evenodd" d="M45.5 34a3.5 3.5 0 1 0 0-7 3.5 3.5 0 0 0 0 7zm0 1a4.5 4.5 0 1 0 0-9 4.5 4.5 0 0 0 0 9z" fill="#fff"/><path d="M16.758 44.34c0 .864 1.012 2.657 1.94 3.437.38.338 1.308.886 2.068 1.245 1.16.548 1.687.654 3.396.717 1.118.042 2.53-.021 3.122-.148 2.193-.464 5.062-2.214 4.514-2.763-.19-.21-.401-.148-.95.274-1.096.844-2.847 1.582-4.43 1.857-3.944.696-8.057-1.33-8.859-4.367-.295-1.097-.801-1.244-.801-.253z" fill="#fff"/><path fill-rule="evenodd" clip-rule="evenodd" d="M49.225 44.897a.5.5 0 0 0 .707.707l.505-.505.499.498a.5.5 0 1 0 .707-.706l-.499-.5.504-.503a.5.5 0 0 0-.707-.708l-.504.505-.496-.496a.5.5 0 1 0-.707.707l.496.496-.505.505zm-38 .994a.5.5 0 0 0 0 1h.714v.706a.5.5 0 1 0 1 0v-.706h.713a.5.5 0 0 0 0-1h-.713v-.7a.5.5 0 1 0-1 0v.7h-.714zm43.145-6.52a.5.5 0 0 0 0 1h1.058v1.047a.5.5 0 1 0 1 0v-1.047h1.057a.5.5 0 0 0 0-1h-1.057V38.33a.5.5 0 1 0-1 0v1.042H54.37zM46.12 3.613a.5.5 0 0 0-.259.966l.98.262-.259.97a.5.5 0 1 0 .966.259l.26-.97.979.263a.5.5 0 0 0 .259-.966l-.98-.263.259-.964a.5.5 0 1 0-.966-.259l-.258.965-.98-.263zM55.5 2.536a.5.5 0 0 0 0 1h1.015V4.54a.5.5 0 1 0 1 0V3.536h1.013a.5.5 0 0 0 0-1h-1.014v-.999a.5.5 0 1 0-1 0v.999H55.5zM54.386 11.2a.5.5 0 0 0-.866.5l.508.879-.87.502a.5.5 0 1 0 .5.865l.87-.502.507.878a.5.5 0 0 0 .866-.5l-.507-.878.864-.499a.5.5 0 1 0-.5-.865l-.864.499-.508-.88zM8 41a1 1 0 1 0 0-2 1 1 0 0 0 0 2zm0 1a2 2 0 1 0 0-4 2 2 0 0 0 0 4zM9.5 6a1.5 1.5 0 1 0 0-3 1.5 1.5 0 0 0 0 3zm0 1a2.5 2.5 0 1 0 0-5 2.5 2.5 0 0 0 0 5z" fill="#fff"/></svg>