<svg width="66" height="54" fill="none" xmlns="http://www.w3.org/2000/svg"><g clip-path="url(#clip0_120_284)" fill="#fff"><path d="M44.27 7.187c-1.813.718-2.211 1.056-2.211 1.913 0 .638-.02.657-2.331 1.554l-2.311.896-.458-.478c-.578-.637-1.036-.617-2.83.1-1.812.697-2.23 1.056-2.23 1.892 0 .638-.02.658-2.332 1.554l-2.33.917-.478-.478c-.618-.638-.997-.618-2.79.1-1.812.697-2.23 1.055-2.23 1.892v.637l-2.93 1.156a264.92 264.92 0 0 0-3.804 1.514c-1.036.438-1.395 1.155-1.036 2.131.14.379.199.698.16.738-.02.04-1.316.617-2.85 1.294-1.534.678-2.888 1.315-3.028 1.435-.558.438-.478 1.295.26 3.168.796 2.032 1.214 2.57 2.071 2.57.299 0 1.813-.439 3.367-.957l2.829-.976.279.657c.279.678.816 1.076 1.474 1.076.219 0 1.992-.617 3.924-1.394l3.527-1.375.458.478c.598.658 1.135.618 3.008-.12 1.733-.677 2.052-.956 2.052-1.892 0-.757.518-1.056.916-.538.22.319-.438 1.713-5.14 11.017-2.968 5.857-5.797 11.415-6.275 12.312-.617 1.135-.837 1.733-.697 1.872.12.12.299.14.418.06.14-.08 1.136-1.912 2.212-4.104l1.992-3.964h8.566l.04 4.223c.06 3.626.1 4.243.359 4.243s.298-.617.358-4.243l.04-4.223h8.566l1.993 3.964c1.075 2.192 2.072 4.024 2.21 4.104.858.538.02-1.315-5.677-12.55-5.737-11.316-6.235-12.372-5.976-12.73.159-.22.279-.698.279-1.057 0-.856.318-.996.896-.378.618.677 1.116.657 3.048-.1 1.833-.677 2.112-.956 2.092-1.853-.02-.657 0-.657 2.29-1.573l2.292-.917.458.478c.618.658 1.235.638 3.168-.159 1.813-.717 2.29-1.295 1.932-2.31-.18-.499-.14-.599.26-.778.836-.378 1.912-1.494 2.43-2.51.697-1.335.757-3.367.139-4.721-1.136-2.45-3.745-3.686-6.495-3.108-.617.12-.757.1-.757-.14 0-.378-.776-.916-1.294-.896-.22 0-1.056.259-1.873.577zm2.869 1.534c2.191 5.479 4.084 10.52 4.044 10.778-.04.18-.737.598-1.654.957-1.295.537-1.653.597-1.952.418-.518-.339-4.94-11.674-4.722-12.093.22-.378 2.49-1.354 3.208-1.374.478-.02.597.12 1.076 1.314zm4.103-.239c.977.34 2.212 1.415 2.71 2.371.18.339.358 1.195.398 1.913.08 1.135.02 1.434-.478 2.39-.558 1.116-2.171 2.57-2.47 2.251-.08-.08-.877-2.032-1.773-4.343a336.16 336.16 0 0 0-1.713-4.323c-.16-.239.717-.537 1.633-.537.438-.02 1.215.119 1.694.278zm-6.992 6.595c.996 2.49 1.793 4.661 1.793 4.78 0 .18-4.582 2.152-4.702 2.013-.179-.24-3.705-9.523-3.645-9.583.14-.139 4.642-1.892 4.701-1.832.04.02.877 2.111 1.853 4.622zm-7.81-3.447c.419.498 4.623 11.555 4.523 11.893-.12.399-3.128 1.634-3.566 1.475-.14-.06-1.315-2.79-2.61-6.096-1.972-5.02-2.29-6.017-2.072-6.236.359-.359 2.55-1.255 3.088-1.275.24-.02.518.1.638.24zm-2.37 7.411c.996 2.57 1.813 4.761 1.813 4.86 0 .34-.638.42-1.056.12-.677-.478-1.494-.378-2.152.28-.318.318-.577.717-.577.896 0 .259-.558.717-.857.717-.18 0-3.785-9.642-3.626-9.702.12-.04 1.136-.478 2.291-.956 1.156-.478 2.152-.877 2.212-.877.06-.02.936 2.092 1.952 4.662zm-7.81-3.447c.439.538 4.642 11.675 4.543 11.954-.14.358-3.188 1.574-3.586 1.434-.14-.06-.399-.438-.558-.837-3.486-8.805-4.363-11.236-4.104-11.495.359-.358 2.55-1.255 3.088-1.275.239-.02.518.1.617.22zm-2.35 7.531c1.036 2.63 1.832 4.821 1.793 4.88-.32.3-6.893 2.71-7.312 2.65-.458-.06-.637-.438-2.171-4.323-.916-2.35-1.654-4.462-1.614-4.681.04-.319.777-.678 3.646-1.833a213.306 213.306 0 0 1 3.686-1.454c.06-.02.956 2.131 1.972 4.761zm-9.184 1.335c.1.319.558 1.474.996 2.59l.797 2.012-2.949 1.016c-1.613.558-3.068.976-3.227.916-.339-.14-.558-.558-1.275-2.49-.279-.717-.458-1.474-.399-1.694.08-.278.857-.737 2.85-1.633 1.513-.677 2.808-1.235 2.888-1.235.06-.02.22.219.319.518zm19.902.299c.418.538.418.936.04 1.434-.22.279-.578.518-.777.518-.478 0-1.216-.936-1.056-1.355.219-.617.498-.837 1.056-.837.298 0 .637.12.737.24zm-1.196 18.228c-.04.04-1.872.04-4.044.02l-3.984-.06 4.004-7.869 3.984-7.869.06 7.85c.02 4.322.02 7.888-.02 7.928zm5.1-7.67l3.905 7.73H34.29v-7.91c0-4.362.08-7.828.18-7.729.079.12 1.912 3.666 4.063 7.91z"/><path fill-rule="evenodd" clip-rule="evenodd" d="M4.5 49a1.5 1.5 0 1 0 0-3 1.5 1.5 0 0 0 0 3zm0 1a2.5 2.5 0 1 0 0-5 2.5 2.5 0 0 0 0 5zM3.454 9c.786 0 1.454-.654 1.454-1.5S4.24 6 3.454 6C2.668 6 2 6.654 2 7.5S2.668 9 3.454 9zm0 1c1.355 0 2.454-1.12 2.454-2.5S4.809 5 3.454 5C2.099 5 1 6.12 1 7.5S2.099 10 3.454 10zM46 33a1 1 0 1 0 0-2 1 1 0 0 0 0 2zm0 1a2 2 0 1 0 0-4 2 2 0 0 0 0 4zm16-16a1 1 0 1 0 0-2 1 1 0 0 0 0 2zm0 1a2 2 0 1 0 0-4 2 2 0 0 0 0 4zM8.001 16.854a.5.5 0 0 0 .866.5l.748-1.295 1.28.74a.5.5 0 1 0 .5-.866l-1.28-.74.747-1.294a.5.5 0 1 0-.866-.5l-.747 1.294-1.28-.738a.5.5 0 1 0-.5.865l1.28.739L8 16.854zm43.655 26.913a.5.5 0 0 0 1 0v-1.134h1.122a.5.5 0 1 0 0-1h-1.122V40.5a.5.5 0 0 0-1 0v1.134h-1.117a.5.5 0 1 0 0 1h1.117v1.133zm6.014-14.56a.5.5 0 0 0 .707.707l.946-.946.937.937a.5.5 0 1 0 .707-.707l-.937-.937.945-.945a.5.5 0 0 0-.707-.707l-.945.945-.932-.932a.5.5 0 1 0-.707.707l.932.932-.946.946zm-39.051 9.484a.5.5 0 0 0 1 0v-1.096h1.084a.5.5 0 1 0 0-1h-1.084V35.5a.5.5 0 0 0-1 0v1.096h-1.08a.5.5 0 1 0 0 1h1.08v1.095zm-5.377 11.49a.5.5 0 0 0 .5.866l.95-.548.541.938a.5.5 0 1 0 .866-.5L15.557 50l.949-.548a.5.5 0 1 0-.5-.866l-.95.548-.54-.936a.5.5 0 1 0-.865.5l.54.936-.949.547zm7.76-41.327a.5.5 0 1 0 .866.5l.748-1.295 1.28.74a.5.5 0 1 0 .5-.866l-1.28-.74.747-1.295a.5.5 0 0 0-.866-.5l-.748 1.295-1.279-.738a.5.5 0 1 0-.5.865l1.28.739-.748 1.295z"/></g><defs><clipPath id="clip0_120_284"><path fill="#fff" d="M0 0H66V54H0z"/></clipPath></defs></svg>