<svg width="5644" height="5807" fill="none" xmlns="http://www.w3.org/2000/svg"><g clip-path="url(#clip0_7_346)"><circle cx="1859" cy="194" r="168" fill="#8E8FFA" filter="url(#filter0_f_7_346)"/><circle cx="3919" cy="178" r="280" fill="#8E8FFA" filter="url(#filter1_f_7_346)"/><g opacity=".8" filter="url(#filter2_f_7_346)"><circle cx="2030.85" cy="1276.42" r="5.578" fill="#C3D3FE"/><circle cx="2131.25" cy="1258.66" r="4.578" stroke="#C3D3FE" stroke-width="2"/><circle cx="1911.65" cy="1202.26" r="2.305" stroke="#C3D3FE" stroke-width="2"/><circle cx="2097.37" cy="1223.12" r="5.578" fill="#C3D3FE"/><circle cx="1865.58" cy="1169.82" r="5.578" fill="#C3D3FE"/><circle cx="2063.49" cy="970.67" r="5.578" fill="#C3D3FE"/><circle cx="2095.31" cy="995.874" r="3.512" fill="#C3D3FE"/><circle cx="2159.14" cy="924.187" r="4.958" fill="#C3D3FE"/><circle cx="2280.2" cy="954.349" r="4.958" fill="#C3D3FE"/><circle cx="2302.51" cy="1081.2" r="4.958" fill="#C3D3FE"/><circle cx="2354.58" cy="985.338" r="4.958" fill="#C3D3FE"/><circle cx="2302.51" cy="822.958" r="4.958" fill="#C3D3FE"/><circle cx="2024.45" cy="890.719" r="4.958" fill="#C3D3FE"/><circle cx="2047.17" cy="869.234" r="3.719" fill="#C3D3FE"/><circle cx="1966.19" cy="839.898" r="6.198" fill="#C3D3FE"/><circle cx="1936.23" cy="831.841" r="3.925" fill="#C3D3FE"/><circle cx="1945.53" cy="1228.7" r="4.545" fill="#C3D3FE"/><path d="M1936.23 831.841l28.51 8.471 58.88 50.614 22.93-21.485h35.33m0 0L2063.9 970.67m17.98-101.229l77.88 54.746m-95.86 46.483l31.82 24.377 64.04-70.86m-95.86 46.483l-154.11 3.512-44.42 195.638 44.42 30.58m249.97-276.213l81.19-16.734m0 0l63.01-84.495m-63.01 84.495l38.84 46.483m0 0l74.17 29.955 86.14-59.704-160.31 29.749zm0 0l-6.2 104.124 33.88 24.37m-360.91 147.3l84.29 46.49m0 0l68.38-52.06m-68.38 52.06l95.65-15.5" stroke="#C3D3FE" stroke-width="2"/><path d="M2084.6 857.665l.01 8.106 7.58-2.88-5.73 5.741 7.4 3.321-8.11.014 2.88 7.577-5.74-5.722-3.32 7.394-.01-8.106-7.58 2.881 5.72-5.742-7.39-3.32 8.1-.014-2.88-7.577 5.75 5.722 3.32-7.395zm-172.3 104.121l.01 8.106 7.58-2.88-5.72 5.741 7.39 3.321-8.1.014 2.88 7.577-5.74-5.722-3.32 7.394-.02-8.106-7.58 2.881 5.73-5.742-7.4-3.32 8.11-.014-2.88-7.577 5.74 5.722 3.32-7.395zm330.75-63.629l.01 6.115 5.72-2.173-4.32 4.331 5.58 2.505-6.11.011 2.17 5.716-4.33-4.317-2.51 5.579-.01-6.115-5.71 2.173 4.31-4.332-5.58-2.505 6.12-.01-2.17-5.716 4.33 4.316 2.5-5.578zm195.44 17.353l.01 6.115 5.71-2.173-4.31 4.332 5.57 2.505-6.11.01 2.17 5.716-4.33-4.316-2.5 5.578-.01-6.115-5.72 2.173 4.32-4.331-5.58-2.506 6.11-.01-2.17-5.716 4.33 4.317 2.51-5.579zm-162.59 130.98l.01 8.1 7.58-2.88-5.72 5.75 7.39 3.32-8.1.01 2.88 7.58-5.75-5.73-3.32 7.4-.01-8.11-7.58 2.88 5.72-5.74-7.39-3.32 8.11-.01-2.88-7.58 5.74 5.72 3.32-7.39z" fill="#C3D3FE"/></g><g opacity=".65" filter="url(#filter3_f_7_346)"><circle cx="3815.61" cy="641.852" r="13.706" transform="rotate(-180 3815.61 641.852)" fill="#C2D9FF"/><circle cx="3808.75" cy="555.047" r="4.569" transform="rotate(-180 3808.75 555.047)" fill="#C2D9FF"/><circle cx="3815.61" cy="641.852" r="26.912" transform="rotate(-180 3815.61 641.852)" stroke="#C2D9FF"/><circle cx="3815.61" cy="641.852" r="88.589" transform="rotate(-180 3815.61 641.852)" stroke="#C2D9FF"/><circle cx="3815.61" cy="641.851" r="49.755" transform="rotate(-180 3815.61 641.851)" stroke="#C2D9FF" stroke-linejoin="round" stroke-dasharray="2 3"/><path transform="rotate(-180 3763.07 712.666)" fill="#C2D9FF" d="M3763.07 712.666H3774.492V724.0880000000001H3763.07z"/><path d="M3644.78 744.647c0-79.404 19.8-151.267 51.78-203.262 31.99-52.004 76.11-84.065 124.76-84.065 48.65 0 92.77 32.061 124.75 84.065 31.99 51.995 51.78 123.858 51.78 203.262 0 79.403-19.79 151.266-51.78 203.261-31.98 52.004-76.1 84.062-124.75 84.062-48.65 0-92.77-32.058-124.76-84.062-31.98-51.995-51.78-123.858-51.78-203.261z" stroke="#C2D9FF"/><circle cx="3647.19" cy="973.321" r="6.853" transform="rotate(-180 3647.19 973.321)" fill="#C2D9FF"/><circle cx="3454.68" cy="756.068" r="6.853" transform="rotate(-180 3454.68 756.068)" fill="#C2D9FF"/><circle cx="3911.55" cy="495.654" r="6.853" transform="rotate(-180 3911.55 495.654)" fill="#C2D9FF"/><circle cx="3721.86" cy="784.673" r="4.569" transform="rotate(-180 3721.86 784.673)" fill="#C2D9FF"/><path d="M3533.89 657.794c-53.65-65.86-82.49-141.532-85.77-210.623-3.27-69.09 19.02-131.562 67.57-171.112 48.55-39.55 114.24-48.741 181.24-31.561 67 17.18 135.27 60.726 188.92 126.585 53.65 65.86 82.49 141.532 85.76 210.622 3.28 69.091-19.01 131.563-67.56 171.113-48.55 39.55-114.24 48.741-181.24 31.561-67-17.18-135.28-60.726-188.92-126.585z" stroke="#C2D9FF"/><circle cx="3691.11" cy="553.905" r="18.917" transform="rotate(-180 3691.11 553.905)" fill="#2A2946" stroke="#C2D9FF"/><path d="M3439.19 657.842c0-187.716 148.09-339.866 330.73-339.866 182.64 0 330.73 152.15 330.73 339.866 0 187.716-148.09 339.866-330.73 339.866-182.64 0-330.73-152.15-330.73-339.866z" stroke="#C2D9FF"/><path d="M3350.1 682.97c0-132.087 136.19-239.355 304.46-239.355 168.27 0 304.46 107.268 304.46 239.355s-136.19 239.355-304.46 239.355c-168.27 0-304.46-107.268-304.46-239.355z" stroke="#C2D9FF"/><circle cx="3885.28" cy="839.447" r="12.064" transform="rotate(-180 3885.28 839.447)" fill="#2A2946" stroke="#C2D9FF"/><circle cx="3582.93" cy="451.033" r="9.78" transform="rotate(-180 3582.93 451.033)" fill="#2A2946" stroke="#C2D9FF"/></g><g opacity=".65"><circle cx="2024.6" cy="2111.59" r="13.706" transform="rotate(-30 2024.6 2111.59)" fill="#C2D9FF"/><circle cx="2073.93" cy="2183.34" r="4.569" transform="rotate(-30 2073.93 2183.34)" fill="#C2D9FF"/><circle cx="2024.6" cy="2111.59" r="26.912" transform="rotate(-30 2024.6 2111.59)" stroke="#C2D9FF"/><circle cx="2024.6" cy="2111.59" r="88.589" transform="rotate(-30 2024.6 2111.59)" stroke="#C2D9FF"/><circle cx="2024.6" cy="2111.59" r="49.755" transform="rotate(-30 2024.6 2111.59)" stroke="#C2D9FF" stroke-linejoin="round" stroke-dasharray="2 3"/><path transform="rotate(-30 2034.69 2023.99)" fill="#C2D9FF" d="M2034.69 2023.99H2046.112V2035.412H2034.69z"/><path d="M2121.14 1937.16c39.7 68.76 58.49 140.89 56.79 201.91-1.7 61.03-23.88 110.86-66.01 135.18-42.13 24.33-96.38 18.62-150.08-10.42-53.69-29.04-106.77-81.37-146.47-150.14-39.7-68.76-58.49-140.9-56.79-201.92 1.7-61.03 23.88-110.85 66.01-135.18 42.13-24.32 96.37-18.62 150.08 10.42 53.69 29.04 106.77 81.38 146.47 150.15z" stroke="#C2D9FF"/><circle cx="2004.72" cy="1740.32" r="6.853" transform="rotate(-30 2004.72 1740.32)" fill="#C2D9FF"/><circle cx="2280.06" cy="1832.21" r="6.853" transform="rotate(-30 2280.06 1832.21)" fill="#C2D9FF"/><circle cx="2014.61" cy="2286.17" r="6.853" transform="rotate(-30 2014.61 2286.17)" fill="#C2D9FF"/><circle cx="2034.37" cy="1941.03" r="4.569" transform="rotate(-30 2034.37 1941.03)" fill="#C2D9FF"/><path d="M2260.6 1956.92c79.39 30.22 142.2 81.33 179.59 139.53 37.38 58.19 49.31 123.44 27.04 181.97-22.27 58.52-74.56 99.33-141.18 117.95-66.61 18.62-147.51 15.05-226.9-15.16-79.4-30.22-142.21-81.33-179.59-139.53-37.38-58.19-49.32-123.44-27.04-181.97 22.27-58.52 74.56-99.33 141.18-117.95 66.61-18.62 147.51-15.05 226.9 15.16z" stroke="#C2D9FF"/><circle cx="2176.39" cy="2125.51" r="18.917" transform="rotate(-30 2176.39 2125.51)" fill="#26253E" stroke="#C2D9FF"/><path d="M2342.59 1909.54c93.85 162.56 41.68 368.37-116.49 459.69s-362.49 33.6-456.35-128.97c-93.86-162.56-41.69-368.37 116.48-459.69 158.18-91.32 362.5-33.6 456.36 128.97z" stroke="#C2D9FF"/><path d="M2407.18 1843.23c66.04 114.39 1.73 275.38-144 359.52-145.72 84.13-317.3 59.33-383.34-55.06-66.05-114.39-1.73-275.39 143.99-359.52s317.3-59.33 383.35 55.06z" stroke="#C2D9FF"/><circle cx="1865.46" cy="1975.3" r="12.064" transform="rotate(-30 1865.46 1975.3)" fill="#2A2946" stroke="#C2D9FF"/><circle cx="2321.51" cy="2160.51" r="9.78" transform="rotate(-30 2321.51 2160.51)" fill="#26253E" stroke="#C2D9FF"/></g><g opacity=".65"><circle cx="3598.6" cy="4698.59" r="13.706" transform="rotate(-30 3598.6 4698.59)" fill="#C2D9FF"/><circle cx="3647.93" cy="4770.34" r="4.569" transform="rotate(-30 3647.93 4770.34)" fill="#C2D9FF"/><circle cx="3598.6" cy="4698.59" r="26.912" transform="rotate(-30 3598.6 4698.59)" stroke="#C2D9FF"/><circle cx="3598.6" cy="4698.59" r="88.589" transform="rotate(-30 3598.6 4698.59)" stroke="#C2D9FF"/><circle cx="3598.6" cy="4698.59" r="49.755" transform="rotate(-30 3598.6 4698.59)" stroke="#C2D9FF" stroke-linejoin="round" stroke-dasharray="2 3"/><path transform="rotate(-30 3608.69 4610.99)" fill="#C2D9FF" d="M3608.69 4610.99H3620.112V4622.411999999999H3608.69z"/><path d="M3695.14 4524.16c39.7 68.76 58.49 140.89 56.79 201.91-1.7 61.03-23.88 110.86-66.01 135.18-42.13 24.33-96.38 18.62-150.08-10.42-53.69-29.04-106.77-81.37-146.47-150.14-39.7-68.76-58.49-140.9-56.79-201.92 1.7-61.03 23.88-110.85 66.01-135.18 42.13-24.32 96.37-18.62 150.08 10.42 53.69 29.04 106.77 81.38 146.47 150.15z" stroke="#C2D9FF"/><circle cx="3578.72" cy="4327.32" r="6.853" transform="rotate(-30 3578.72 4327.32)" fill="#C2D9FF"/><circle cx="3854.06" cy="4419.21" r="6.853" transform="rotate(-30 3854.06 4419.21)" fill="#C2D9FF"/><circle cx="3588.61" cy="4873.17" r="6.853" transform="rotate(-30 3588.61 4873.17)" fill="#C2D9FF"/><circle cx="3608.37" cy="4528.03" r="4.569" transform="rotate(-30 3608.37 4528.03)" fill="#C2D9FF"/><path d="M3834.6 4543.92c79.39 30.22 142.2 81.33 179.59 139.53 37.38 58.19 49.31 123.44 27.04 181.97-22.27 58.52-74.56 99.33-141.18 117.95-66.61 18.62-147.51 15.05-226.9-15.16-79.4-30.22-142.21-81.33-179.59-139.53-37.38-58.19-49.32-123.44-27.04-181.97 22.27-58.52 74.56-99.33 141.18-117.95 66.61-18.62 147.51-15.05 226.9 15.16z" stroke="#C2D9FF"/><circle cx="3750.39" cy="4712.51" r="18.917" transform="rotate(-30 3750.39 4712.51)" fill="#2A2946" stroke="#C2D9FF"/><path d="M3916.59 4496.54c93.85 162.56 41.68 368.37-116.49 459.69s-362.49 33.6-456.35-128.97c-93.86-162.56-41.69-368.37 116.48-459.69 158.18-91.32 362.5-33.6 456.36 128.97z" stroke="#C2D9FF"/><path d="M3981.18 4430.23c66.04 114.39 1.73 275.38-144 359.52-145.72 84.13-317.3 59.33-383.34-55.06-66.04-114.39-1.73-275.39 143.99-359.52s317.3-59.33 383.35 55.06z" stroke="#C2D9FF"/><circle cx="3439.46" cy="4562.3" r="12.064" transform="rotate(-30 3439.46 4562.3)" fill="#14131E" stroke="#C2D9FF"/><circle cx="3895.51" cy="4747.51" r="9.78" transform="rotate(-30 3895.51 4747.51)" fill="#2A2946" stroke="#C2D9FF"/></g><circle cx="4188" cy="2188" r="272" fill="#8E8FFA" filter="url(#filter4_f_7_346)"/><circle cx="1585.5" cy="2265.5" r="401.5" fill="#8E8FFA" filter="url(#filter5_f_7_346)"/><circle cx="2003.5" cy="4476.5" r="380.5" fill="#8E8FFA" filter="url(#filter6_f_7_346)"/><g opacity=".8" filter="url(#filter7_f_7_346)"><circle cx="3818" cy="3333" r="17" fill="#ACBBFC"/><circle cx="3760.5" cy="3332.5" r="8.5" fill="#ACBBFC"/><circle cx="3875.5" cy="3332.5" r="8.5" fill="#ACBBFC"/><circle cx="3901.5" cy="3332.5" r="5.5" fill="#ACBBFC"/><circle cx="4010.5" cy="3399.36" r="5.5" fill="#ACBBFC"/><circle cx="4034.5" cy="3233.36" r="5.5" fill="#ACBBFC"/><circle cx="3734.5" cy="3332.5" r="5.5" fill="#ACBBFC"/><circle cx="3818" cy="3333" r="35.5" stroke="#ACBBFC" stroke-width="3"/><path d="M3908.17 3361.44c-12.61 39.35-34.09 71.71-58.6 92.25-24.51 20.54-51.99 29.19-76.67 21.29-24.67-7.91-42-30.93-50.01-61.89-8.01-30.96-6.67-69.78 5.93-109.13 12.61-39.34 34.09-71.71 58.6-92.24 24.52-20.54 52-29.2 76.67-21.29 24.68 7.91 42.01 30.93 50.02 61.89 8.01 30.96 6.67 69.78-5.94 109.12z" stroke="#ACBBFC"/><path d="M3864.89 3414.06c-58.63 33.86-116.99 55.32-163.93 62.67-23.47 3.68-44.07 3.82-60.4.24-16.33-3.59-28.35-10.88-34.79-22.04-6.44-11.15-6.75-25.21-1.69-41.15 5.07-15.93 15.48-33.69 30.4-52.18 29.84-36.98 77.61-76.79 136.24-110.64 58.63-33.85 116.99-55.31 163.93-62.67 23.47-3.67 44.07-3.81 60.4-.23s28.35 10.88 34.79 22.03c6.44 11.16 6.75 25.22 1.69 41.15-5.07 15.94-15.48 33.7-30.4 52.19-29.84 36.98-77.61 76.78-136.24 110.63z" stroke="#ACBBFC"/><path d="M3892.5 3377.34c-1.31 1.84-2.65 3.67-4 5.51l-.4-.3c-.68.92-1.36 1.83-2.04 2.75-.69.91-1.37 1.82-2.06 2.73l.4.3c-1.38 1.81-2.77 3.61-4.16 5.39l-.4-.31c-1.41 1.8-2.83 3.58-4.25 5.34l.39.32c-1.44 1.77-2.88 3.53-4.33 5.27l-.38-.32c-1.46 1.75-2.93 3.48-4.4 5.19l.38.33c-1.49 1.73-2.99 3.45-4.49 5.14l-.37-.33c-1.52 1.71-3.04 3.4-4.57 5.07l.37.34a446.55 446.55 0 0 1-4.64 4.98l-.36-.34c-1.57 1.66-3.15 3.3-4.72 4.91l.35.35c-1.6 1.64-3.2 3.25-4.81 4.84l-.35-.35a431.94 431.94 0 0 1-4.89 4.75l.35.36c-1.66 1.58-3.31 3.13-4.97 4.66l-.34-.37c-1.68 1.55-3.37 3.07-5.06 4.57l.34.37c-1.72 1.53-3.44 3.02-5.16 4.49l-.32-.38a389.44 389.44 0 0 1-5.23 4.36l.31.39c-1.77 1.45-3.54 2.87-5.32 4.26l-.3-.39c-1.81 1.41-3.61 2.78-5.4 4.13l.3.4a364.75 364.75 0 0 1-5.52 4.02l-.29-.41c-1.87 1.33-3.74 2.63-5.61 3.88l.28.41c-1.91 1.29-3.82 2.54-5.71 3.74l-.27-.42c-1.94 1.23-3.88 2.41-5.8 3.55l.25.43a215.84 215.84 0 0 1-5.92 3.39l-.24-.44c-2.02 1.11-4.03 2.17-6.02 3.17l.22.45c-2.06 1.04-4.11 2.02-6.15 2.95l-.2-.45c-2.11.95-4.19 1.85-6.25 2.68l.19.46c-2.16.87-4.29 1.67-6.39 2.39l-.17-.47c-2.18.75-4.34 1.43-6.47 2.03l.13.48c-2.24.63-4.44 1.17-6.61 1.63l-.1-.49c-2.27.47-4.5.85-6.68 1.13l.06.49c-2.32.3-4.59.48-6.81.55l-.02-.5c-2.31.07-4.56.01-6.75-.17l-.04.5c-2.32-.2-4.57-.54-6.74-1.02l.11-.49c-2.23-.5-4.38-1.16-6.44-1.97l-.18.46c-2.13-.85-4.16-1.86-6.09-3.05l.27-.43a40.17 40.17 0 0 1-2.79-1.89c-.9-.68-1.77-1.39-2.6-2.14l-.33.37a38.44 38.44 0 0 1-4.64-4.98l.39-.31c-1.36-1.74-2.6-3.62-3.71-5.62l-.44.24c-1.07-1.94-2.03-4-2.87-6.17l.47-.18c-.8-2.05-1.48-4.19-2.07-6.44l-.48.13c-.56-2.15-1.03-4.38-1.4-6.69l.5-.08a82.38 82.38 0 0 1-.8-6.72l-.5.04c-.17-2.21-.27-4.48-.3-6.81h.5c-.02-2.21.02-4.48.13-6.79l-.5-.02c.1-2.23.27-4.5.49-6.81l.5.05c.22-2.21.49-4.46.82-6.75l-.5-.07c.32-2.21.68-4.46 1.1-6.73l.49.09c.41-2.19.86-4.42 1.35-6.67l-.48-.11c.48-2.18 1.01-4.4 1.58-6.63l.48.12c.55-2.17 1.15-4.36 1.78-6.57l-.48-.14c.62-2.16 1.28-4.34 1.97-6.53l.48.15c.68-2.14 1.39-4.3 2.14-6.48l-.47-.16c.74-2.13 1.5-4.27 2.31-6.42l.47.17c.78-2.1 1.59-4.22 2.44-6.34l-.46-.19c.83-2.09 1.69-4.19 2.58-6.3l.46.19c.88-2.07 1.79-4.15 2.72-6.24l-.45-.21c.92-2.06 1.87-4.13 2.85-6.21l.45.22c.96-2.04 1.95-4.09 2.96-6.14l-.44-.22c.99-2.02 2.02-4.05 3.07-6.08l.44.23c1.04-2 2.1-4.01 3.18-6.02l-.44-.24c1.07-1.99 2.17-3.99 3.29-5.99l.44.25c1.11-1.97 2.23-3.94 3.38-5.91l-.43-.26c1.14-1.95 2.3-3.9 3.48-5.85l.43.26c1.17-1.94 2.36-3.87 3.57-5.81l-.42-.27c1.2-1.91 2.43-3.84 3.67-5.76l.42.28c1.23-1.9 2.48-3.79 3.75-5.68l-.42-.28c1.26-1.88 2.54-3.76 3.85-5.64l.41.29c1.29-1.86 2.6-3.73 3.93-5.59l-.41-.29c1.31-1.83 2.65-3.67 4-5.5l.4.29c.68-.91 1.36-1.83 2.04-2.74.69-.92 1.37-1.83 2.06-2.73l-.4-.31c1.38-1.81 2.77-3.61 4.16-5.39l.4.31c1.41-1.8 2.83-3.58 4.25-5.34l-.39-.31c1.44-1.78 2.88-3.54 4.33-5.28l.38.32c1.46-1.75 2.93-3.48 4.4-5.19l-.38-.33c1.49-1.73 2.99-3.45 4.49-5.14l.37.33c1.52-1.71 3.04-3.4 4.57-5.07l-.37-.33c1.54-1.69 3.09-3.35 4.64-4.99l.36.34c1.57-1.66 3.15-3.29 4.72-4.91l-.35-.35c1.6-1.64 3.2-3.25 4.81-4.84l.35.35c1.63-1.6 3.26-3.19 4.89-4.74l-.34-.37c1.65-1.58 3.3-3.13 4.96-4.65l.34.36c1.68-1.55 3.37-3.07 5.06-4.57l-.34-.37c1.72-1.52 3.44-3.02 5.16-4.48l.32.38c1.75-1.49 3.49-2.95 5.23-4.37l-.31-.39c1.77-1.45 3.54-2.87 5.32-4.26l.3.4c1.81-1.41 3.61-2.79 5.4-4.13l-.3-.4c1.85-1.38 3.68-2.72 5.52-4.03l.29.41c1.87-1.33 3.74-2.62 5.61-3.88l-.28-.41c1.91-1.29 3.82-2.53 5.71-3.73l.27.42c1.94-1.23 3.88-2.42 5.8-3.56l-.25-.43c1.99-1.18 3.96-2.31 5.92-3.39l.24.44c2.02-1.11 4.03-2.17 6.02-3.17l-.22-.45c2.06-1.04 4.11-2.02 6.15-2.95l.2.46c2.11-.96 4.19-1.86 6.25-2.69l-.19-.46c2.16-.87 4.29-1.66 6.39-2.39l.17.47c2.19-.75 4.35-1.43 6.47-2.03l-.13-.48c2.24-.63 4.44-1.17 6.61-1.63l.1.49c2.27-.47 4.5-.85 6.68-1.12l-.06-.5c2.32-.3 4.59-.48 6.81-.55l.02.5c2.31-.07 4.56-.01 6.75.17l.04-.5c2.32.2 4.57.54 6.74 1.02l-.11.49c2.23.5 4.38 1.16 6.44 1.98l.18-.47c2.13.85 4.16 1.86 6.09 3.05l-.27.43c.96.59 1.88 1.22 2.79 1.9.9.67 1.77 1.38 2.6 2.13l.33-.37c1.69 1.52 3.23 3.18 4.64 4.98l-.39.31c1.36 1.74 2.6 3.62 3.71 5.62l.44-.24c1.07 1.94 2.03 4 2.87 6.17l-.47.19c.8 2.04 1.48 4.19 2.07 6.43l.48-.13a70.77 70.77 0 0 1 1.4 6.7l-.5.07c.35 2.17.62 4.42.8 6.73l.5-.04c.17 2.21.27 4.47.3 6.8l-.5.01c.02 2.21-.02 4.47-.13 6.78l.5.03c-.1 2.22-.27 4.49-.49 6.8l-.5-.05c-.22 2.21-.49 4.46-.82 6.75l.5.07c-.32 2.21-.68 4.46-1.1 6.73l-.49-.09c-.41 2.2-.86 4.42-1.35 6.67l.48.11c-.48 2.19-1 4.4-1.58 6.64l-.48-.13c-.55 2.17-1.15 4.36-1.78 6.57l.48.14c-.62 2.16-1.28 4.34-1.97 6.54l-.48-.15c-.68 2.14-1.39 4.29-2.14 6.47l.47.16c-.74 2.13-1.5 4.27-2.31 6.43l-.47-.18c-.78 2.1-1.59 4.22-2.44 6.34l.46.19c-.83 2.09-1.69 4.19-2.58 6.3l-.46-.19c-.88 2.07-1.79 4.15-2.72 6.25l.45.2c-.92 2.06-1.87 4.13-2.85 6.21l-.45-.21c-.96 2.03-1.95 4.08-2.96 6.13l.45.22c-1 2.02-2.03 4.05-3.08 6.08l-.44-.23c-1.04 2-2.1 4.01-3.18 6.03l.44.23c-1.07 2-2.17 3.99-3.29 5.99l-.44-.24c-1.1 1.96-2.23 3.93-3.38 5.91l.43.25c-1.14 1.95-2.3 3.9-3.48 5.86l-.43-.26a453.9 453.9 0 0 1-3.57 5.8l.42.27c-1.2 1.92-2.43 3.84-3.67 5.76l-.42-.27c-1.23 1.89-2.48 3.78-3.75 5.67l.42.28a376.41 376.41 0 0 1-3.85 5.64l-.41-.29c-1.29 1.87-2.6 3.73-3.93 5.59l.41.29z" stroke="#ACBBFC" stroke-linejoin="round" stroke-dasharray="7 7"/><path d="M3844.07 3415.37c-2.23.44-4.48.87-6.73 1.29l-.09-.49-3.39.63c-1.13.2-2.26.41-3.38.61l.08.49c-2.25.4-4.51.79-6.75 1.17l-.09-.49c-2.26.38-4.52.75-6.77 1.11l.08.49c-2.26.36-4.52.71-6.77 1.04l-.07-.49c-2.27.34-4.54.66-6.8.98l.07.49c-2.27.32-4.53.62-6.78.92l-.06-.5c-2.29.3-4.56.58-6.83.85l.06.5c-2.27.27-4.54.53-6.8.78l-.06-.5c-2.28.25-4.55.49-6.82.71l.05.5c-2.29.23-4.57.44-6.83.64l-.05-.5c-2.28.21-4.55.4-6.81.57l.04.5c-2.3.18-4.59.35-6.86.5l-.04-.5c-2.29.15-4.56.29-6.82.42l.03.5c-2.3.13-4.59.24-6.87.35l-.02-.5c-2.3.1-4.58.19-6.85.26l.02.5c-2.3.08-4.58.14-6.84.19l-.01-.5c-2.31.04-4.6.08-6.88.09v.5c-2.3.02-4.58.03-6.85.01l.01-.5c-2.3-.01-4.59-.04-6.85-.08l-.01.5c-2.31-.04-4.6-.1-6.87-.18l.01-.5c-2.3-.07-4.58-.17-6.83-.28l-.03.5c-2.3-.11-4.58-.24-6.83-.38l.03-.5c-2.31-.15-4.6-.32-6.86-.5l-.04.49c-2.3-.18-4.58-.39-6.83-.62l.05-.49c-2.29-.23-4.55-.48-6.78-.75l-.06.49c-2.31-.27-4.58-.57-6.81-.89l.07-.49c-2.3-.33-4.57-.67-6.79-1.04l-.08.49c-2.3-.38-4.55-.78-6.76-1.2l.1-.49c-2.28-.44-4.52-.9-6.7-1.39l-.11.49c-2.27-.5-4.49-1.03-6.66-1.58l.12-.49c-2.25-.57-4.45-1.17-6.58-1.8l-.14.48c-2.25-.66-4.43-1.35-6.54-2.07l.16-.47c-2.21-.75-4.35-1.54-6.41-2.35l-.19.46c-2.19-.87-4.29-1.77-6.31-2.71l.21-.45c-2.13-.99-4.17-2.03-6.09-3.1l-.25.44c-2.07-1.16-4.03-2.35-5.85-3.6l.28-.41a58.84 58.84 0 0 1-5.4-4.12l-.33.38c-1.79-1.55-3.41-3.15-4.85-4.82l.38-.32a35.754 35.754 0 0 1-3.94-5.5l-.44.25c-1.16-2.02-2.08-4.1-2.75-6.26l.48-.14c-.33-1.08-.6-2.17-.81-3.28-.2-1.11-.33-2.22-.4-3.34l-.5.03c-.14-2.25-.02-4.53.36-6.83l.5.08c.35-2.16.93-4.34 1.74-6.53l-.47-.18c.75-2.06 1.7-4.13 2.83-6.22l.44.24c1.04-1.91 2.24-3.83 3.59-5.76l-.41-.29a76.6 76.6 0 0 1 4.21-5.43l.38.32c1.42-1.68 2.96-3.37 4.61-5.05l-.36-.35a119.1 119.1 0 0 1 4.94-4.77l.34.37c1.64-1.49 3.36-2.98 5.17-4.47l-.32-.39c1.72-1.42 3.52-2.83 5.38-4.24l.3.4c1.78-1.35 3.62-2.69 5.52-4.02l-.28-.41c1.83-1.28 3.72-2.56 5.67-3.84l.27.42c1.87-1.23 3.8-2.45 5.78-3.66l-.27-.43c1.92-1.18 3.89-2.35 5.9-3.52l.25.44c1.95-1.14 3.94-2.26 5.98-3.38l-.24-.44c1.98-1.08 3.99-2.16 6.05-3.24l.23.44c1.99-1.04 4.02-2.07 6.08-3.1l-.22-.44c2.02-1.01 4.08-2.01 6.17-3l.22.45c2.04-.97 4.12-1.94 6.23-2.89l-.21-.46c2.06-.93 4.15-1.86 6.26-2.78l.2.46c2.07-.9 4.17-1.79 6.3-2.68l-.2-.46c2.1-.88 4.22-1.74 6.37-2.6l.19.46c2.1-.84 4.22-1.67 6.37-2.5l-.18-.46c2.11-.82 4.25-1.62 6.41-2.42l.17.47c2.14-.79 4.29-1.57 6.47-2.34l-.17-.47c2.14-.76 4.29-1.51 6.46-2.25l.17.47c2.14-.73 4.31-1.45 6.5-2.17l-.16-.48c2.16-.71 4.35-1.41 6.55-2.1l.15.47c2.16-.68 4.33-1.35 6.53-2.02l-.15-.47c2.18-.67 4.38-1.32 6.59-1.97l.14.48c2.18-.63 4.37-1.26 6.58-1.87l-.13-.49c2.19-.61 4.39-1.22 6.61-1.81l.13.48c2.2-.59 4.41-1.17 6.64-1.75l-.13-.48c2.2-.57 4.42-1.13 6.64-1.68l.12.48c2.22-.54 4.45-1.08 6.69-1.62l-.12-.48c2.21-.53 4.43-1.04 6.66-1.55l.11.49c2.23-.5 4.46-1 6.71-1.49l-.11-.49c2.23-.48 4.46-.95 6.7-1.42l.1.49c2.24-.46 4.48-.91 6.73-1.36l-.1-.49c2.24-.44 4.48-.87 6.74-1.29l.09.49c1.12-.21 2.25-.42 3.38-.63 1.13-.2 2.26-.41 3.39-.61l-.09-.49c2.26-.4 4.51-.79 6.76-1.17l.08.49c2.27-.38 4.52-.75 6.77-1.11l-.07-.49c2.26-.36 4.51-.71 6.76-1.04l.08.49c2.27-.34 4.54-.66 6.8-.98l-.07-.49c2.26-.32 4.52-.62 6.77-.92l.07.5c2.28-.3 4.56-.58 6.82-.85l-.06-.5c2.28-.27 4.55-.53 6.81-.78l.05.5c2.29-.25 4.56-.49 6.83-.71l-.05-.5c2.28-.23 4.56-.44 6.83-.64l.04.5c2.29-.21 4.56-.4 6.82-.57l-.04-.5c2.3-.18 4.59-.35 6.86-.5l.03.5c2.29-.15 4.57-.29 6.83-.42l-.03-.5c2.3-.13 4.59-.25 6.86-.35l.03.5c2.3-.1 4.58-.19 6.85-.26l-.02-.5c2.3-.08 4.58-.14 6.84-.19l.01.5c2.31-.04 4.6-.08 6.88-.09l-.01-.5c2.3-.02 4.59-.03 6.85-.01v.5c2.3.01 4.58.04 6.84.08l.01-.5c2.32.04 4.61.1 6.88.18l-.02.5c2.31.07 4.58.17 6.84.28l.02-.5c2.31.11 4.59.24 6.84.38l-.03.5c2.31.15 4.6.32 6.85.5l.04-.49c2.31.18 4.59.39 6.84.62l-.05.49c2.29.23 4.55.48 6.78.75l.06-.49c2.3.27 4.57.57 6.81.89l-.07.49c2.3.33 4.56.67 6.79 1.04l.08-.49c2.29.38 4.54.78 6.75 1.2l-.09.49c2.28.44 4.51.9 6.7 1.39l.11-.49c2.27.5 4.49 1.03 6.66 1.58l-.13.49c2.26.57 4.45 1.17 6.59 1.8l.14-.48c2.24.66 4.42 1.35 6.53 2.07l-.16.47c2.22.75 4.36 1.54 6.42 2.35l.18-.46c2.2.87 4.3 1.77 6.32 2.71l-.22.45c2.14.99 4.17 2.03 6.1 3.1l.24-.44a75.98 75.98 0 0 1 5.86 3.6l-.28.41a58.84 58.84 0 0 1 5.4 4.12l.32-.38c1.8 1.55 3.42 3.15 4.86 4.82l-.38.32c1.53 1.77 2.84 3.61 3.94 5.5l.43-.25c1.17 2.02 2.09 4.1 2.76 6.26l-.48.14c.33 1.08.6 2.17.8 3.28.2 1.11.34 2.22.41 3.34l.5-.03c.14 2.25.01 4.53-.37 6.83l-.49-.08c-.35 2.16-.94 4.34-1.74 6.53l.47.18c-.76 2.06-1.7 4.13-2.84 6.22l-.43-.24a59.002 59.002 0 0 1-3.6 5.76l.41.29a76.396 76.396 0 0 1-4.2 5.43l-.38-.32a95.923 95.923 0 0 1-4.61 5.05l.36.35c-1.55 1.59-3.2 3.18-4.95 4.77l-.33-.37a148.78 148.78 0 0 1-5.17 4.47l.31.39c-1.72 1.42-3.51 2.83-5.37 4.24l-.31-.4c-1.77 1.35-3.61 2.68-5.52 4.02l.29.41c-1.83 1.28-3.72 2.56-5.67 3.84l-.27-.42c-1.88 1.23-3.8 2.45-5.78 3.66l.26.43c-1.92 1.18-3.88 2.35-5.89 3.52l-.25-.44c-1.95 1.14-3.95 2.26-5.98 3.38l.24.44c-1.98 1.08-4 2.16-6.05 3.24l-.24-.44c-1.99 1.04-4.01 2.07-6.08 3.1l.22.44c-2.02 1.01-4.07 2.01-6.16 3l-.22-.45c-2.05.97-4.12 1.94-6.24 2.89l.21.46c-2.05.93-4.14 1.86-6.25 2.78l-.2-.46c-2.07.9-4.17 1.79-6.3 2.68l.19.46c-2.09.88-4.22 1.74-6.37 2.6l-.18-.46c-2.1.84-4.23 1.67-6.37 2.5l.18.46c-2.12.82-4.26 1.62-6.41 2.42l-.18-.47c-2.13.79-4.29 1.57-6.47 2.34l.17.47c-2.13.76-4.28 1.51-6.46 2.25l-.16-.47c-2.15.73-4.31 1.45-6.5 2.17l.16.48c-2.17.71-4.35 1.41-6.55 2.1l-.15-.47c-2.16.68-4.34 1.35-6.53 2.02l.15.47c-2.19.67-4.38 1.32-6.6 1.97l-.14-.48c-2.17.63-4.37 1.26-6.57 1.87l.13.49c-2.19.61-4.4 1.22-6.62 1.81l-.13-.48c-2.19.59-4.41 1.17-6.63 1.75l.12.48c-2.2.57-4.41 1.13-6.64 1.68l-.12-.48c-2.21.54-4.44 1.08-6.68 1.61l.12.49c-2.21.53-4.43 1.04-6.67 1.55l-.11-.49c-2.22.5-4.46 1-6.7 1.49l.1.49c-2.22.48-4.45.95-6.7 1.42l-.1-.49c-2.23.46-4.47.91-6.72 1.36l.09.49z" stroke="#ACBBFC" stroke-linejoin="round" stroke-dasharray="7 7"/><path d="M3809.33 3404.62c-67.2-8.27-127.06-23.67-169.49-41.85-21.23-9.1-38.06-18.88-49.29-28.79-11.24-9.94-16.76-19.92-15.59-29.42 1.18-9.51 8.95-17.85 22.26-24.76 13.3-6.9 32-12.3 54.8-15.98 45.58-7.35 107.38-7.76 174.59.52 67.21 8.27 127.06 23.66 169.5 41.85 21.22 9.09 38.06 18.87 49.28 28.79 11.24 9.93 16.76 19.91 15.59 29.42-1.17 9.5-8.94 17.85-22.26 24.76-13.29 6.89-32 12.3-54.8 15.97-45.58 7.35-107.38 7.77-174.59-.51z" stroke="#ACBBFC"/><circle cx="3749.5" cy="3425.36" r="4.5" fill="#161616" stroke="#ACBBFC" stroke-width="2"/><circle cx="3677.5" cy="3290.36" r="4.5" fill="#161616" stroke="#ACBBFC" stroke-width="2"/><circle cx="3918.5" cy="3169.36" r="4.5" fill="#161616" stroke="#ACBBFC" stroke-width="2"/></g><g opacity=".65"><circle cx="2210.5" cy="3630.48" r="11.825" transform="rotate(135 2210.5 3630.48)" fill="#C2D9FF"/><path d="M2301.94 3795.46l-7.43-7.41-4.3 9.57-.01-10.49-9.81 3.73 7.4-7.43-9.57-4.3 10.5-.02-3.73-9.8 7.43 7.4 4.3-9.57.01 10.49 9.81-3.73-7.4 7.44 9.57 4.29-10.5.02 3.73 9.81zm-206.98-247.33l-8.81-5.69-2.21 10.26-2.2-10.26-8.82 5.69 5.7-8.81-10.26-2.21 10.26-2.2-5.7-8.82 8.82 5.69 2.2-10.25 2.21 10.25 8.81-5.69-5.69 8.82 10.26 2.2-10.26 2.21 5.69 8.81z" fill="#C2D9FF"/><circle cx="2178.45" cy="3484.16" r="10.825" transform="rotate(135 2178.45 3484.16)" stroke="#C2D9FF" stroke-width="2"/><circle cx="2110.16" cy="3672.29" r="10.825" transform="rotate(135 2110.16 3672.29)" stroke="#C2D9FF" stroke-width="2"/><circle cx="2270.43" cy="3676.47" r="8.854" transform="rotate(135 2270.43 3676.47)" stroke="#C2D9FF" stroke-width="2"/><circle cx="2196.57" cy="3725.25" r="9.854" transform="rotate(135 2196.57 3725.25)" fill="#C2D9FF"/><circle cx="2255.1" cy="3711.31" r="9.854" transform="rotate(145.238 2255.1 3711.31)" fill="#C2D9FF"/><circle cx="2321.99" cy="3697.37" r="9.854" transform="rotate(135 2321.99 3697.37)" fill="#C2D9FF"/><circle cx="2185.42" cy="3800.5" r="9.854" transform="rotate(135 2185.42 3800.5)" fill="#C2D9FF"/><path d="M2314.32 3693.89l-36.93-14.63m-14.63-7.67l-52.96-43.2m0 0l84.32 152.6m-84.32-152.6l-24.38 172.11m24.38-172.11l-91.27 39.72m-16.73-1.4l-51.56-41.8 33.45-89.19 85-48.78" stroke="#C2D9FF"/></g></g><defs><filter id="filter0_f_7_346" x="1091" y="-574" width="1536" height="1536" filterUnits="userSpaceOnUse" color-interpolation-filters="sRGB"><feFlood flood-opacity="0" result="BackgroundImageFix"/><feBlend in="SourceGraphic" in2="BackgroundImageFix" result="shape"/><feGaussianBlur stdDeviation="300" result="effect1_foregroundBlur_7_346"/></filter><filter id="filter1_f_7_346" x="2839" y="-902" width="2160" height="2160" filterUnits="userSpaceOnUse" color-interpolation-filters="sRGB"><feFlood flood-opacity="0" result="BackgroundImageFix"/><feBlend in="SourceGraphic" in2="BackgroundImageFix" result="shape"/><feGaussianBlur stdDeviation="400" result="effect1_foregroundBlur_7_346"/></filter><filter id="filter2_f_7_346" x="1858" y="816" width="589.475" height="468" filterUnits="userSpaceOnUse" color-interpolation-filters="sRGB"><feFlood flood-opacity="0" result="BackgroundImageFix"/><feBlend in="SourceGraphic" in2="BackgroundImageFix" result="shape"/><feGaussianBlur stdDeviation="1" result="effect1_foregroundBlur_7_346"/></filter><filter id="filter3_f_7_346" x="3347.6" y="233.737" width="755.546" height="800.736" filterUnits="userSpaceOnUse" color-interpolation-filters="sRGB"><feFlood flood-opacity="0" result="BackgroundImageFix"/><feBlend in="SourceGraphic" in2="BackgroundImageFix" result="shape"/><feGaussianBlur stdDeviation="1" result="effect1_foregroundBlur_7_346"/></filter><filter id="filter4_f_7_346" x="3316" y="1316" width="1744" height="1744" filterUnits="userSpaceOnUse" color-interpolation-filters="sRGB"><feFlood flood-opacity="0" result="BackgroundImageFix"/><feBlend in="SourceGraphic" in2="BackgroundImageFix" result="shape"/><feGaussianBlur stdDeviation="300" result="effect1_foregroundBlur_7_346"/></filter><filter id="filter5_f_7_346" x="184" y="864" width="2803" height="2803" filterUnits="userSpaceOnUse" color-interpolation-filters="sRGB"><feFlood flood-opacity="0" result="BackgroundImageFix"/><feBlend in="SourceGraphic" in2="BackgroundImageFix" result="shape"/><feGaussianBlur stdDeviation="500" result="effect1_foregroundBlur_7_346"/></filter><filter id="filter6_f_7_346" x="623" y="3096" width="2761" height="2761" filterUnits="userSpaceOnUse" color-interpolation-filters="sRGB"><feFlood flood-opacity="0" result="BackgroundImageFix"/><feBlend in="SourceGraphic" in2="BackgroundImageFix" result="shape"/><feGaussianBlur stdDeviation="500" result="effect1_foregroundBlur_7_346"/></filter><filter id="filter7_f_7_346" x="3513" y="3122" width="627" height="424.223" filterUnits="userSpaceOnUse" color-interpolation-filters="sRGB"><feFlood flood-opacity="0" result="BackgroundImageFix"/><feBlend in="SourceGraphic" in2="BackgroundImageFix" result="shape"/><feGaussianBlur stdDeviation="1" result="effect1_foregroundBlur_7_346"/></filter><clipPath id="clip0_7_346"><path fill="#fff" d="M0 0H5644V5807H0z"/></clipPath></defs></svg>