<svg width="5644" height="7230" viewBox="0 0 5644 7230" fill="none" xmlns="http://www.w3.org/2000/svg">
<g clip-path="url(#clip0_219_430)">
<g filter="url(#filter0_f_219_430)">
<circle cx="1232" cy="3177" r="648" fill="#8E8FFA"/>
</g>
<g filter="url(#filter1_f_219_430)">
<circle cx="4042" cy="5074" r="425" fill="#8E8FFA"/>
</g>
<g filter="url(#filter2_f_219_430)">
<circle cx="1541" cy="909" r="343" fill="#8E8FFA"/>
</g>
<g opacity="0.65" filter="url(#filter3_f_219_430)">
<circle cx="1948.45" cy="746.948" r="15.7175" fill="#C2D9FF"/>
<circle cx="1948.45" cy="746.948" r="15.2175" stroke="#C3D3FE" stroke-opacity="0.6"/>
<circle cx="1956.3" cy="846.492" r="5.23916" fill="#C2D9FF"/>
<circle cx="1956.3" cy="846.492" r="4.73916" stroke="#C3D3FE" stroke-opacity="0.6"/>
<circle cx="1948.45" cy="746.948" r="30.9349" stroke="#C3D3FE" stroke-opacity="0.6"/>
<circle cx="1948.45" cy="746.949" r="101.664" stroke="#C3D3FE" stroke-opacity="0.6"/>
<circle cx="1948.45" cy="746.949" r="57.1307" stroke="#C3D3FE" stroke-opacity="0.6" stroke-linejoin="round" stroke-dasharray="2 3"/>
<rect x="2008.7" y="665.741" width="13.0979" height="13.0979" fill="#C2D9FF"/>
<rect x="2009.2" y="666.241" width="12.0979" height="12.0979" stroke="#C3D3FE" stroke-opacity="0.6"/>
<circle cx="2141.58" cy="366.832" r="7.85874" fill="#C2D9FF"/>
<circle cx="2141.58" cy="366.832" r="7.35874" stroke="#C3D3FE" stroke-opacity="0.6"/>
<circle cx="2362.34" cy="615.97" r="7.85874" fill="#C2D9FF"/>
<circle cx="2362.34" cy="615.97" r="7.35874" stroke="#C3D3FE" stroke-opacity="0.6"/>
<circle cx="1838.43" cy="914.602" r="7.85874" fill="#C2D9FF"/>
<circle cx="1838.43" cy="914.602" r="7.35874" stroke="#C3D3FE" stroke-opacity="0.6"/>
<circle cx="2055.95" cy="583.167" r="5.23916" fill="#C2D9FF"/>
<circle cx="2055.95" cy="583.167" r="4.73916" stroke="#C3D3FE" stroke-opacity="0.6"/>
<path d="M2271.57 728.62C2333.1 804.155 2366.18 890.948 2369.94 970.195C2373.69 1049.44 2348.13 1121.11 2292.43 1166.48C2236.73 1211.85 2161.38 1222.39 2084.53 1202.69C2007.68 1182.98 1929.37 1133.04 1867.84 1057.5C1806.31 981.964 1773.23 895.171 1769.47 815.924C1765.72 736.677 1791.28 665.011 1846.98 619.639C1902.68 574.266 1978.03 563.727 2054.88 583.432C2131.73 603.138 2210.04 653.084 2271.57 728.62Z" stroke="#C3D3FE" stroke-opacity="0.6"/>
<path fill-rule="evenodd" clip-rule="evenodd" d="M2103.73 828.39C2129.58 773.007 2144.92 703.949 2144.92 629.067C2144.92 446.776 2054.02 299 1941.9 299C1829.78 299 1738.88 446.776 1738.88 629.067C1738.88 811.358 1829.78 959.134 1941.9 959.134C1996.05 959.134 2045.25 924.665 2081.65 868.486C2084.59 869.86 2087.88 870.628 2091.34 870.628C2104.01 870.628 2114.28 860.36 2114.28 847.693C2114.28 839.591 2110.08 832.47 2103.73 828.39ZM2102.87 827.864C2128.62 772.648 2143.92 703.777 2143.92 629.067C2143.92 538.076 2121.23 455.747 2084.6 396.198C2047.97 336.633 1997.48 300 1941.9 300C1886.32 300 1835.83 336.633 1799.2 396.198C1762.57 455.747 1739.88 538.076 1739.88 629.067C1739.88 720.058 1762.57 802.387 1799.2 861.936C1835.83 921.501 1886.32 958.134 1941.9 958.134C1995.56 958.134 2044.46 923.994 2080.75 868.04C2073.41 864.214 2068.41 856.538 2068.41 847.693C2068.41 835.026 2078.67 824.758 2091.34 824.758C2095.55 824.758 2099.49 825.889 2102.87 827.864ZM2113.28 847.693C2113.28 859.807 2103.46 869.628 2091.34 869.628C2079.23 869.628 2069.41 859.807 2069.41 847.693C2069.41 835.578 2079.23 825.758 2091.34 825.758C2103.46 825.758 2113.28 835.578 2113.28 847.693Z" fill="#C3D3FE" fill-opacity="0.6"/>
<path d="M2380.18 728.611C2380.18 943.914 2210.33 1118.43 2000.84 1118.43C1791.35 1118.43 1621.5 943.914 1621.5 728.611C1621.5 513.308 1791.35 338.794 2000.84 338.794C2210.33 338.794 2380.18 513.308 2380.18 728.611Z" stroke="#C3D3FE" stroke-opacity="0.6"/>
<circle cx="1869.37" cy="521.367" r="13.9077" stroke="#C3D3FE" stroke-opacity="0.6"/>
<path fill-rule="evenodd" clip-rule="evenodd" d="M2203.59 968.256C2180.84 971.924 2157.27 973.852 2133.13 973.852C1940.3 973.852 1784.41 850.942 1784.41 699.796C1784.41 636.113 1812.09 577.442 1858.54 530.865C1858.32 530.613 1858.1 530.352 1857.9 530.084C1811.24 576.829 1783.41 635.757 1783.41 699.796C1783.41 851.705 1939.99 974.852 2133.13 974.852C2157.33 974.852 2180.96 972.918 2203.77 969.237C2204.96 974.496 2209.66 978.424 2215.27 978.424C2221.78 978.424 2227.06 973.146 2227.06 966.636C2227.06 960.125 2221.78 954.848 2215.27 954.848C2208.76 954.848 2203.48 960.125 2203.48 966.636C2203.48 967.185 2203.52 967.726 2203.59 968.256ZM2133.13 425.74C2033.29 425.74 1943.35 458.691 1879.83 511.452C1879.59 511.209 1879.36 510.973 1879.11 510.747C1942.85 457.782 2033.08 424.74 2133.13 424.74C2326.27 424.74 2482.84 547.887 2482.84 699.796C2482.84 826.123 2374.56 932.56 2227.02 964.826C2226.99 964.491 2226.95 964.159 2226.9 963.833C2374.07 931.624 2481.84 825.471 2481.84 699.796C2481.84 548.65 2325.95 425.74 2133.13 425.74ZM2226.06 966.636C2226.06 972.594 2221.23 977.424 2215.27 977.424C2209.31 977.424 2204.48 972.594 2204.48 966.636C2204.48 960.678 2209.31 955.848 2215.27 955.848C2221.23 955.848 2226.06 960.678 2226.06 966.636Z" fill="#C3D3FE" fill-opacity="0.6"/>
</g>
<g opacity="0.65" filter="url(#filter4_f_219_430)">
<circle cx="3740.55" cy="3607.68" r="15.7175" transform="rotate(-180 3740.55 3607.68)" fill="#C2D9FF"/>
<circle cx="3740.55" cy="3607.68" r="15.2175" transform="rotate(-180 3740.55 3607.68)" stroke="#C3D3FE" stroke-opacity="0.6"/>
<circle cx="3732.7" cy="3508.13" r="5.23916" transform="rotate(-180 3732.7 3508.13)" fill="#C2D9FF"/>
<circle cx="3732.7" cy="3508.13" r="4.73916" transform="rotate(-180 3732.7 3508.13)" stroke="#C3D3FE" stroke-opacity="0.6"/>
<circle cx="3740.56" cy="3607.68" r="30.9349" transform="rotate(-180 3740.56 3607.68)" stroke="#C3D3FE" stroke-opacity="0.6"/>
<circle cx="3740.55" cy="3607.68" r="101.664" transform="rotate(-180 3740.55 3607.68)" stroke="#C3D3FE" stroke-opacity="0.6"/>
<circle cx="3740.56" cy="3607.68" r="57.1307" transform="rotate(-180 3740.56 3607.68)" stroke="#C3D3FE" stroke-opacity="0.6" stroke-linejoin="round" stroke-dasharray="2 3"/>
<rect x="3680.3" y="3688.88" width="13.0979" height="13.0979" transform="rotate(-180 3680.3 3688.88)" fill="#C2D9FF"/>
<rect x="3679.8" y="3688.38" width="12.0979" height="12.0979" transform="rotate(-180 3679.8 3688.38)" stroke="#C3D3FE" stroke-opacity="0.6"/>
<circle cx="3547.42" cy="3987.79" r="7.85874" transform="rotate(-180 3547.42 3987.79)" fill="#C2D9FF"/>
<circle cx="3547.42" cy="3987.79" r="7.35874" transform="rotate(-180 3547.42 3987.79)" stroke="#C3D3FE" stroke-opacity="0.6"/>
<circle cx="3326.66" cy="3738.65" r="7.85874" transform="rotate(-180 3326.66 3738.65)" fill="#C2D9FF"/>
<circle cx="3326.66" cy="3738.65" r="7.35874" transform="rotate(-180 3326.66 3738.65)" stroke="#C3D3FE" stroke-opacity="0.6"/>
<circle cx="3850.58" cy="3440.02" r="7.85874" transform="rotate(-180 3850.58 3440.02)" fill="#C2D9FF"/>
<circle cx="3850.58" cy="3440.02" r="7.35874" transform="rotate(-180 3850.58 3440.02)" stroke="#C3D3FE" stroke-opacity="0.6"/>
<circle cx="3633.05" cy="3771.46" r="5.23916" transform="rotate(-180 3633.05 3771.46)" fill="#C2D9FF"/>
<circle cx="3633.05" cy="3771.46" r="4.73916" transform="rotate(-180 3633.05 3771.46)" stroke="#C3D3FE" stroke-opacity="0.6"/>
<path d="M3417.43 3626C3355.9 3550.47 3322.82 3463.68 3319.07 3384.43C3315.31 3305.18 3340.87 3233.52 3396.57 3188.14C3452.27 3142.77 3527.62 3132.23 3604.47 3151.94C3681.32 3171.64 3759.63 3221.59 3821.17 3297.12C3882.7 3372.66 3915.77 3459.45 3919.53 3538.7C3923.29 3617.95 3897.72 3689.61 3842.02 3734.99C3786.33 3780.36 3710.97 3790.9 3634.12 3771.19C3557.27 3751.49 3478.96 3701.54 3417.43 3626Z" stroke="#C3D3FE" stroke-opacity="0.6"/>
<path fill-rule="evenodd" clip-rule="evenodd" d="M3585.27 3526.23C3559.42 3581.62 3544.08 3650.67 3544.08 3725.56C3544.08 3907.85 3634.98 4055.62 3747.1 4055.62C3859.23 4055.62 3950.12 3907.85 3950.12 3725.56C3950.12 3543.27 3859.23 3395.49 3747.1 3395.49C3692.95 3395.49 3643.75 3429.96 3607.35 3486.14C3604.41 3484.76 3601.12 3484 3597.66 3484C3584.99 3484 3574.73 3494.26 3574.73 3506.93C3574.73 3515.03 3578.93 3522.15 3585.27 3526.23ZM3586.13 3526.76C3560.38 3581.98 3545.08 3650.85 3545.08 3725.56C3545.08 3816.55 3567.77 3898.88 3604.4 3958.43C3641.04 4017.99 3691.52 4054.62 3747.1 4054.62C3802.69 4054.62 3853.17 4017.99 3889.8 3958.43C3926.43 3898.88 3949.12 3816.55 3949.12 3725.56C3949.12 3634.57 3926.43 3552.24 3889.81 3492.69C3853.17 3433.12 3802.69 3396.49 3747.1 3396.49C3693.44 3396.49 3644.54 3430.63 3608.25 3486.58C3615.59 3490.41 3620.6 3498.09 3620.6 3506.93C3620.6 3519.6 3610.33 3529.87 3597.66 3529.87C3593.46 3529.87 3589.52 3528.73 3586.13 3526.76ZM3575.73 3506.93C3575.73 3494.82 3585.55 3485 3597.66 3485C3609.77 3485 3619.6 3494.82 3619.6 3506.93C3619.6 3519.05 3609.77 3528.87 3597.66 3528.87C3585.55 3528.87 3575.73 3519.05 3575.73 3506.93Z" fill="#C3D3FE" fill-opacity="0.6"/>
<path d="M3308.82 3626.01C3308.82 3410.71 3478.67 3236.2 3688.16 3236.2C3897.65 3236.2 4067.5 3410.71 4067.5 3626.01C4067.5 3841.32 3897.65 4015.83 3688.16 4015.83C3478.67 4015.83 3308.82 3841.32 3308.82 3626.01Z" stroke="#C3D3FE" stroke-opacity="0.6"/>
<circle cx="3819.63" cy="3833.26" r="13.9077" transform="rotate(-180 3819.63 3833.26)" stroke="#C3D3FE" stroke-opacity="0.6"/>
<path fill-rule="evenodd" clip-rule="evenodd" d="M3485.41 3386.37C3508.16 3382.7 3531.73 3380.77 3555.87 3380.77C3748.7 3380.77 3904.59 3503.68 3904.59 3654.83C3904.59 3718.51 3876.91 3777.18 3830.46 3823.76C3830.69 3824.01 3830.9 3824.27 3831.1 3824.54C3877.76 3777.79 3905.59 3718.87 3905.59 3654.83C3905.59 3502.92 3749.02 3379.77 3555.87 3379.77C3531.67 3379.77 3508.05 3381.71 3485.23 3385.39C3484.05 3380.13 3479.35 3376.2 3473.73 3376.2C3467.22 3376.2 3461.94 3381.48 3461.94 3387.99C3461.94 3394.5 3467.22 3399.78 3473.73 3399.78C3480.24 3399.78 3485.52 3394.5 3485.52 3387.99C3485.52 3387.44 3485.48 3386.9 3485.41 3386.37ZM3555.87 3928.88C3655.72 3928.88 3745.65 3895.93 3809.18 3843.17C3809.41 3843.42 3809.65 3843.65 3809.89 3843.88C3746.15 3896.84 3655.92 3929.88 3555.87 3929.88C3362.73 3929.88 3206.16 3806.74 3206.16 3654.83C3206.16 3528.5 3314.44 3422.06 3461.98 3389.8C3462.01 3390.13 3462.05 3390.46 3462.1 3390.79C3314.93 3423 3207.16 3529.15 3207.16 3654.83C3207.16 3805.97 3363.05 3928.88 3555.87 3928.88ZM3462.94 3387.99C3462.94 3382.03 3467.77 3377.2 3473.73 3377.2C3479.69 3377.2 3484.52 3382.03 3484.52 3387.99C3484.52 3393.95 3479.69 3398.78 3473.73 3398.78C3467.77 3398.78 3462.94 3393.95 3462.94 3387.99Z" fill="#C3D3FE" fill-opacity="0.6"/>
</g>
<g filter="url(#filter5_f_219_430)">
<circle cx="3929" cy="1313" r="272" fill="#8E8FFA"/>
</g>
<g filter="url(#filter6_f_219_430)">
<circle cx="2025" cy="6279" r="272" fill="#8E8FFA"/>
</g>
<g opacity="0.8" filter="url(#filter7_f_219_430)">
<circle cx="3534.56" cy="1757.83" r="4.87714" transform="rotate(15 3534.56 1757.83)" fill="#C3D3FE"/>
<circle cx="3534.56" cy="1757.83" r="3.87714" transform="rotate(15 3534.56 1757.83)" stroke="#C3D3FE" stroke-opacity="0.6" stroke-width="2"/>
<circle cx="3623.37" cy="1765.55" r="3.87714" transform="rotate(15 3623.37 1765.55)" stroke="#C3D3FE" stroke-opacity="0.6" stroke-width="2"/>
<circle cx="3450.66" cy="1668.22" r="1.89016" transform="rotate(15 3450.66 1668.22)" stroke="#C3D3FE" stroke-opacity="0.6" stroke-width="2"/>
<circle cx="3602.8" cy="1727.87" r="4.87714" transform="rotate(15 3602.8 1727.87)" fill="#C3D3FE"/>
<circle cx="3602.8" cy="1727.87" r="3.87714" transform="rotate(15 3602.8 1727.87)" stroke="#C3D3FE" stroke-opacity="0.6" stroke-width="2"/>
<circle cx="3419.1" cy="1630.4" r="4.87714" transform="rotate(15 3419.1 1630.4)" fill="#C3D3FE"/>
<circle cx="3419.1" cy="1630.4" r="3.87714" transform="rotate(15 3419.1 1630.4)" stroke="#C3D3FE" stroke-opacity="0.6" stroke-width="2"/>
<circle cx="3631.32" cy="1506.99" r="4.87714" transform="rotate(15 3631.32 1506.99)" fill="#C3D3FE"/>
<circle cx="3631.32" cy="1506.99" r="3.87714" transform="rotate(15 3631.32 1506.99)" stroke="#C3D3FE" stroke-opacity="0.6" stroke-width="2"/>
<circle cx="3652.48" cy="1535.48" r="3.07079" transform="rotate(15 3652.48 1535.48)" fill="#C3D3FE"/>
<circle cx="3652.48" cy="1535.48" r="2.07079" transform="rotate(15 3652.48 1535.48)" stroke="#C3D3FE" stroke-opacity="0.6" stroke-width="2"/>
<circle cx="3722.62" cy="1489.38" r="4.33523" transform="rotate(15 3722.62 1489.38)" fill="#C3D3FE"/>
<circle cx="3722.62" cy="1489.38" r="3.33523" transform="rotate(15 3722.62 1489.38)" stroke="#C3D3FE" stroke-opacity="0.6" stroke-width="2"/>
<circle cx="3818.04" cy="1542.25" r="4.33523" transform="rotate(15 3818.04 1542.25)" fill="#C3D3FE"/>
<circle cx="3818.04" cy="1542.25" r="3.33523" transform="rotate(15 3818.04 1542.25)" stroke="#C3D3FE" stroke-opacity="0.6" stroke-width="2"/>
<circle cx="3808.18" cy="1654.43" r="4.33523" transform="rotate(15 3808.18 1654.43)" fill="#C3D3FE"/>
<circle cx="3808.18" cy="1654.43" r="3.33523" transform="rotate(15 3808.18 1654.43)" stroke="#C3D3FE" stroke-opacity="0.6" stroke-width="2"/>
<circle cx="3873.84" cy="1585.25" r="4.33523" transform="rotate(15 3873.84 1585.25)" fill="#C3D3FE"/>
<circle cx="3873.84" cy="1585.25" r="3.33523" transform="rotate(15 3873.84 1585.25)" stroke="#C3D3FE" stroke-opacity="0.6" stroke-width="2"/>
<circle cx="3866.62" cy="1436.33" r="4.33523" transform="rotate(15 3866.62 1436.33)" fill="#C3D3FE"/>
<circle cx="3866.62" cy="1436.33" r="3.33523" transform="rotate(15 3866.62 1436.33)" stroke="#C3D3FE" stroke-opacity="0.6" stroke-width="2"/>
<circle cx="3616.43" cy="1430.63" r="4.33523" transform="rotate(15 3616.43 1430.63)" fill="#C3D3FE"/>
<circle cx="3616.43" cy="1430.63" r="3.33523" transform="rotate(15 3616.43 1430.63)" stroke="#C3D3FE" stroke-opacity="0.6" stroke-width="2"/>
<circle cx="3640.49" cy="1417.63" r="3.25143" transform="rotate(15 3640.49 1417.63)" fill="#C3D3FE"/>
<circle cx="3640.49" cy="1417.63" r="2.25143" transform="rotate(15 3640.49 1417.63)" stroke="#C3D3FE" stroke-opacity="0.6" stroke-width="2"/>
<circle cx="3578.73" cy="1374.53" r="5.41904" transform="rotate(15 3578.73 1374.53)" fill="#C3D3FE"/>
<circle cx="3578.73" cy="1374.53" r="4.41904" transform="rotate(15 3578.73 1374.53)" stroke="#C3D3FE" stroke-opacity="0.6" stroke-width="2"/>
<circle cx="3555.25" cy="1360.94" r="3.43206" transform="rotate(15 3555.25 1360.94)" fill="#C3D3FE"/>
<circle cx="3555.25" cy="1360.94" r="2.43206" transform="rotate(15 3555.25 1360.94)" stroke="#C3D3FE" stroke-opacity="0.6" stroke-width="2"/>
<circle cx="3473.3" cy="1698.22" r="3.97396" transform="rotate(15 3473.3 1698.22)" fill="#C3D3FE"/>
<circle cx="3473.3" cy="1698.22" r="2.97396" transform="rotate(15 3473.3 1698.22)" stroke="#C3D3FE" stroke-opacity="0.6" stroke-width="2"/>
<path d="M3555.25 1360.94L3577.42 1374.55L3615.69 1430.62L3639.92 1417.66L3669.75 1425.66M3669.75 1425.66L3631.67 1507.08M3669.75 1425.66L3723.14 1489.52M3631.67 1507.08L3653.02 1534.87L3723.14 1489.52M3631.67 1507.08L3500.71 1475.17L3418.92 1630.35L3449.52 1666.23M3723.14 1489.52L3795.5 1493.76M3795.5 1493.76L3867.84 1436.66M3795.5 1493.76L3817.78 1541.81M3817.78 1541.81L3873.64 1583.89L3959.91 1552.96L3817.78 1541.81ZM3817.78 1541.81L3788.99 1628.34L3812.08 1656.6M3473.93 1699.33L3534.6 1757.66M3534.6 1757.66L3604.14 1729.17M3534.6 1757.66L3618.89 1766.22" stroke="#C3D3FE" stroke-opacity="0.6" stroke-width="2"/>
<path d="M3674.72 1416.33L3672.89 1423.18L3679.94 1422.46L3673.81 1426.01L3679.31 1430.49L3672.46 1428.67L3673.17 1435.72L3669.62 1429.59L3665.14 1435.08L3666.96 1428.23L3659.91 1428.95L3666.05 1425.39L3660.55 1420.92L3667.4 1422.74L3666.68 1415.69L3670.24 1421.82L3674.72 1416.33Z" fill="#C3D3FE"/>
<path d="M3672.94 1423.67L3677.68 1423.19L3673.56 1425.58L3672.94 1425.94L3673.5 1426.4L3677.19 1429.41L3672.59 1428.18L3671.89 1428L3671.96 1428.72L3672.44 1433.46L3670.05 1429.34L3669.69 1428.71L3669.23 1429.27L3666.22 1432.96L3667.45 1428.36L3667.63 1427.66L3666.91 1427.73L3662.18 1428.22L3666.3 1425.83L3666.92 1425.46L3666.36 1425.01L3662.67 1422L3667.27 1423.22L3667.97 1423.41L3667.9 1422.69L3667.42 1417.95L3669.8 1422.07L3670.17 1422.7L3670.63 1422.14L3673.63 1418.44L3672.41 1423.05L3672.22 1423.75L3672.94 1423.67Z" stroke="#C3D3FE" stroke-opacity="0.6"/>
<path d="M3505.64 1465.27L3503.81 1472.12L3510.86 1471.4L3504.73 1474.96L3510.23 1479.44L3503.38 1477.61L3504.09 1484.67L3500.54 1478.53L3496.06 1484.03L3497.88 1477.18L3490.83 1477.9L3496.97 1474.34L3491.47 1469.86L3498.32 1471.69L3497.6 1464.64L3501.16 1470.77L3505.64 1465.27Z" fill="#C3D3FE"/>
<path d="M3503.86 1472.62L3508.6 1472.14L3504.48 1474.53L3503.86 1474.89L3504.42 1475.35L3508.11 1478.36L3503.51 1477.13L3502.81 1476.94L3502.88 1477.66L3503.36 1482.4L3500.97 1478.28L3500.61 1477.66L3500.15 1478.22L3497.14 1481.91L3498.37 1477.31L3498.55 1476.61L3497.83 1476.68L3493.1 1477.16L3497.22 1474.77L3497.84 1474.41L3497.28 1473.95L3493.59 1470.94L3498.19 1472.17L3498.89 1472.36L3498.82 1471.64L3498.34 1466.9L3500.72 1471.02L3501.09 1471.64L3501.54 1471.08L3504.55 1467.39L3503.33 1471.99L3503.14 1472.69L3503.86 1472.62Z" stroke="#C3D3FE" stroke-opacity="0.6"/>
<path d="M3799.38 1486.38L3798.01 1491.55L3803.32 1491.01L3798.7 1493.69L3802.84 1497.07L3797.68 1495.69L3798.22 1501.01L3795.54 1496.39L3792.16 1500.53L3793.53 1495.37L3788.21 1495.91L3792.84 1493.23L3788.7 1489.85L3793.86 1491.22L3793.32 1485.9L3796 1490.53L3799.38 1486.38Z" fill="#C3D3FE"/>
<path d="M3798.06 1492.05L3801.06 1491.74L3798.45 1493.26L3797.82 1493.62L3798.38 1494.08L3800.73 1495.99L3797.8 1495.21L3797.11 1495.02L3797.18 1495.74L3797.49 1498.75L3795.97 1496.14L3795.61 1495.51L3795.15 1496.07L3793.24 1498.41L3794.02 1495.49L3794.2 1494.79L3793.48 1494.87L3790.48 1495.17L3793.09 1493.66L3793.72 1493.3L3793.16 1492.84L3790.81 1490.93L3793.73 1491.71L3794.43 1491.89L3794.36 1491.17L3794.05 1488.16L3795.57 1490.78L3795.93 1491.41L3796.39 1490.84L3798.3 1488.5L3797.52 1491.42L3797.34 1492.12L3798.06 1492.05Z" stroke="#C3D3FE" stroke-opacity="0.6"/>
<path d="M3960.51 1545.27L3959.14 1550.43L3964.46 1549.89L3959.83 1552.57L3963.97 1555.95L3958.81 1554.58L3959.35 1559.9L3956.67 1555.27L3953.29 1559.42L3954.66 1554.25L3949.35 1554.79L3953.97 1552.11L3949.83 1548.73L3954.99 1550.11L3954.45 1544.79L3957.13 1549.41L3960.51 1545.27Z" fill="#C3D3FE"/>
<path d="M3959.19 1550.93L3962.19 1550.63L3959.58 1552.14L3958.95 1552.5L3959.51 1552.96L3961.86 1554.87L3958.94 1554.09L3958.24 1553.91L3958.31 1554.63L3958.62 1557.64L3957.1 1555.02L3956.74 1554.39L3956.28 1554.95L3954.37 1557.3L3955.15 1554.38L3955.33 1553.68L3954.61 1553.75L3951.61 1554.06L3954.22 1552.54L3954.85 1552.18L3954.29 1551.72L3951.94 1549.81L3954.87 1550.59L3955.56 1550.77L3955.49 1550.05L3955.18 1547.05L3956.7 1549.66L3957.06 1550.29L3957.52 1549.73L3959.43 1547.39L3958.65 1550.31L3958.47 1551.01L3959.19 1550.93Z" stroke="#C3D3FE" stroke-opacity="0.6"/>
<path d="M3793.55 1619.09L3791.73 1625.94L3798.78 1625.22L3792.65 1628.78L3798.14 1633.26L3791.29 1631.43L3792.01 1638.49L3788.46 1632.35L3783.98 1637.85L3785.8 1631L3778.75 1631.72L3784.88 1628.16L3779.39 1623.68L3786.24 1625.51L3785.52 1618.45L3789.07 1624.59L3793.55 1619.09Z" fill="#C3D3FE"/>
<path d="M3791.78 1626.44L3796.52 1625.96L3792.4 1628.35L3791.77 1628.71L3792.33 1629.17L3796.02 1632.18L3791.42 1630.95L3790.72 1630.76L3790.8 1631.48L3791.28 1636.22L3788.89 1632.1L3788.53 1631.48L3788.07 1632.04L3785.06 1635.73L3786.28 1631.13L3786.47 1630.43L3785.75 1630.5L3781.01 1630.98L3785.13 1628.59L3785.76 1628.23L3785.2 1627.77L3781.51 1624.76L3786.11 1625.99L3786.81 1626.18L3786.73 1625.46L3786.25 1620.72L3788.64 1624.84L3789 1625.46L3789.46 1624.9L3792.47 1621.21L3791.25 1625.81L3791.06 1626.51L3791.78 1626.44Z" stroke="#C3D3FE" stroke-opacity="0.6"/>
</g>
<g opacity="0.8" filter="url(#filter8_f_219_430)">
<circle cx="2042" cy="5311" r="17" fill="#C3D3FE" fill-opacity="0.6"/>
<circle cx="1984.5" cy="5310.5" r="8.5" fill="#C3D3FE" fill-opacity="0.6"/>
<circle cx="2099.5" cy="5310.5" r="8.5" fill="#C3D3FE" fill-opacity="0.6"/>
<circle cx="2125.5" cy="5310.5" r="5.5" fill="#C3D3FE" fill-opacity="0.6"/>
<circle cx="2234.5" cy="5377.36" r="5.5" fill="#C3D3FE" fill-opacity="0.6"/>
<circle cx="2258.5" cy="5211.36" r="5.5" fill="#C3D3FE" fill-opacity="0.6"/>
<circle cx="1958.5" cy="5310.5" r="5.5" fill="#C3D3FE" fill-opacity="0.6"/>
<circle cx="2042" cy="5311" r="35.5" stroke="#C3D3FE" stroke-opacity="0.6" stroke-width="3"/>
<path d="M2132.17 5339.44C2119.56 5378.78 2098.09 5411.15 2073.58 5431.69C2049.06 5452.23 2021.58 5460.88 1996.9 5452.98C1972.23 5445.07 1954.9 5422.05 1946.89 5391.09C1938.88 5360.13 1940.22 5321.31 1952.83 5281.96C1965.43 5242.62 1986.91 5210.25 2011.42 5189.72C2035.94 5169.18 2063.42 5160.52 2088.1 5168.43C2112.77 5176.34 2130.1 5199.36 2138.11 5230.32C2146.12 5261.27 2144.78 5300.1 2132.17 5339.44Z" stroke="#C3D3FE" stroke-opacity="0.6"/>
<path d="M2088.89 5392.06C2030.26 5425.92 1971.9 5447.38 1924.96 5454.73C1901.49 5458.41 1880.89 5458.55 1864.56 5454.97C1848.23 5451.38 1836.21 5444.09 1829.77 5432.93C1823.33 5421.78 1823.02 5407.72 1828.08 5391.78C1833.15 5375.85 1843.56 5358.09 1858.48 5339.6C1888.32 5302.62 1936.09 5262.81 1994.72 5228.96C2053.35 5195.11 2111.71 5173.65 2158.65 5166.29C2182.12 5162.62 2202.72 5162.48 2219.05 5166.06C2235.38 5169.64 2247.4 5176.94 2253.84 5188.09C2260.28 5199.25 2260.59 5213.31 2255.53 5229.24C2250.46 5245.18 2240.05 5262.94 2225.13 5281.43C2195.29 5318.41 2147.52 5358.21 2088.89 5392.06Z" stroke="#C3D3FE" stroke-opacity="0.6"/>
<path d="M2033.34 5382.62C1966.13 5374.35 1906.27 5358.95 1863.84 5340.77C1842.62 5331.67 1825.78 5321.89 1814.55 5311.98C1803.31 5302.04 1797.8 5292.06 1798.97 5282.56C1800.14 5273.05 1807.91 5264.71 1821.22 5257.8C1834.52 5250.9 1853.23 5245.5 1876.02 5241.82C1921.6 5234.47 1983.4 5234.06 2050.61 5242.34C2117.82 5250.61 2177.67 5266 2220.11 5284.19C2241.33 5293.28 2258.17 5303.06 2269.39 5312.98C2280.63 5322.91 2286.15 5332.89 2284.98 5342.4C2283.81 5351.9 2276.04 5360.25 2262.72 5367.16C2249.43 5374.05 2230.72 5379.46 2207.92 5383.13C2162.34 5390.48 2100.54 5390.9 2033.34 5382.62Z" stroke="#C3D3FE" stroke-opacity="0.6"/>
<path fill-rule="evenodd" clip-rule="evenodd" d="M2054.56 5395.9L2054.48 5395.41L2054.39 5394.92C2055.52 5394.72 2056.64 5394.51 2057.77 5394.3C2058.9 5394.1 2060.03 5393.89 2061.16 5393.68L2061.25 5394.17L2061.34 5394.66C2060.21 5394.87 2059.09 5395.08 2057.95 5395.29C2056.82 5395.5 2055.69 5395.7 2054.56 5395.9ZM2068.07 5393.37L2067.98 5392.88L2067.88 5392.38C2070.13 5391.94 2072.37 5391.49 2074.6 5391.03L2074.7 5391.52L2074.8 5392.01C2072.57 5392.47 2070.33 5392.92 2068.07 5393.37ZM2081.5 5390.59L2081.4 5390.1L2081.29 5389.61C2083.54 5389.12 2085.77 5388.63 2087.99 5388.12L2088.1 5388.61L2088.21 5389.1C2085.99 5389.6 2083.75 5390.1 2081.5 5390.59ZM2094.88 5387.55L2094.76 5387.06L2094.65 5386.58C2096.88 5386.05 2099.11 5385.51 2101.32 5384.96L2101.44 5385.45L2101.56 5385.93C2099.35 5386.48 2097.12 5387.02 2094.88 5387.55ZM2108.2 5384.25L2108.08 5383.77L2107.95 5383.28C2110.18 5382.71 2112.39 5382.13 2114.58 5381.54L2114.71 5382.02L2114.84 5382.5C2112.64 5383.09 2110.43 5383.68 2108.2 5384.25ZM2121.46 5380.69L2121.33 5380.2L2121.19 5379.72C2123.4 5379.1 2125.59 5378.48 2127.76 5377.84L2127.9 5378.32L2128.04 5378.8C2125.86 5379.44 2123.67 5380.07 2121.46 5380.69ZM2134.64 5376.84L2134.49 5376.37L2134.35 5375.89C2136.54 5375.22 2138.71 5374.55 2140.87 5373.87L2141.02 5374.35L2141.17 5374.82C2139.01 5375.5 2136.83 5376.18 2134.64 5376.84ZM2147.72 5372.72L2147.56 5372.24L2147.4 5371.77C2149.59 5371.05 2151.75 5370.33 2153.9 5369.59L2154.06 5370.07L2154.22 5370.54C2152.07 5371.27 2149.9 5372 2147.72 5372.72ZM2160.68 5368.29L2160.51 5367.82L2160.35 5367.35C2162.52 5366.58 2164.68 5365.8 2166.81 5365.01L2166.98 5365.48L2167.16 5365.95C2165.02 5366.74 2162.86 5367.52 2160.68 5368.29ZM2173.57 5363.53L2173.39 5363.07L2173.21 5362.6C2175.35 5361.78 2177.48 5360.94 2179.57 5360.1L2179.76 5360.57L2179.94 5361.03C2177.84 5361.87 2175.72 5362.71 2173.57 5363.53ZM2186.31 5358.43L2186.12 5357.97L2185.93 5357.51C2188.05 5356.62 2190.15 5355.73 2192.22 5354.83L2192.42 5355.29L2192.62 5355.75C2190.54 5356.65 2188.44 5357.54 2186.31 5358.43ZM2198.87 5352.97L2198.66 5352.51L2198.46 5352.06C2200.57 5351.1 2202.64 5350.14 2204.69 5349.17L2204.9 5349.62L2205.12 5350.07C2203.07 5351.04 2200.98 5352.01 2198.87 5352.97ZM2211.28 5347.07C2213.35 5346.04 2215.38 5345.01 2217.38 5343.97L2217.14 5343.53L2216.91 5343.08C2214.92 5344.12 2212.9 5345.15 2210.84 5346.18L2211.06 5346.62L2211.28 5347.07ZM2223.43 5340.73L2223.19 5340.29L2222.95 5339.85C2224.98 5338.73 2226.97 5337.61 2228.92 5336.48L2229.17 5336.91L2229.42 5337.35C2227.47 5338.48 2225.47 5339.61 2223.43 5340.73ZM2235.31 5333.83C2237.29 5332.61 2239.22 5331.39 2241.1 5330.16L2240.83 5329.74L2240.55 5329.32C2238.68 5330.54 2236.76 5331.76 2234.79 5332.98L2235.05 5333.4L2235.31 5333.83ZM2246.77 5326.32L2246.48 5325.91L2246.2 5325.5C2248.1 5324.17 2249.93 5322.83 2251.7 5321.49L2252 5321.89L2252.31 5322.29C2250.52 5323.64 2248.68 5324.98 2246.77 5326.32ZM2257.68 5318.05L2257.37 5317.66L2257.05 5317.28C2258.85 5315.79 2260.57 5314.31 2262.2 5312.82L2262.54 5313.19L2262.87 5313.56C2261.23 5315.06 2259.5 5316.55 2257.68 5318.05ZM2267.82 5308.79L2267.46 5308.44L2267.1 5308.09C2268.74 5306.42 2270.27 5304.74 2271.68 5303.07L2272.07 5303.39L2272.45 5303.71C2271.02 5305.41 2269.47 5307.1 2267.82 5308.79ZM2276.65 5298.28L2276.24 5297.99L2275.83 5297.7C2277.18 5295.79 2278.37 5293.88 2279.4 5291.99L2279.84 5292.23L2280.27 5292.47C2279.23 5294.4 2278.02 5296.34 2276.65 5298.28ZM2283.11 5286.25L2282.64 5286.07L2282.17 5285.9C2282.96 5283.73 2283.54 5281.58 2283.89 5279.45L2284.38 5279.54L2284.87 5279.62C2284.51 5281.81 2283.92 5284.02 2283.11 5286.25ZM2285.24 5272.79L2284.74 5272.82L2284.24 5272.85C2284.17 5271.75 2284.04 5270.66 2283.84 5269.57C2283.64 5268.48 2283.38 5267.41 2283.05 5266.35L2283.53 5266.2L2284.01 5266.06C2284.34 5267.15 2284.62 5268.26 2284.82 5269.39C2285.03 5270.52 2285.17 5271.65 2285.24 5272.79ZM2281.25 5259.8L2280.82 5260.05L2280.39 5260.3C2279.31 5258.44 2278.01 5256.63 2276.5 5254.88L2276.88 5254.55L2277.26 5254.23C2278.8 5256.02 2280.14 5257.88 2281.25 5259.8ZM2272.4 5249.41L2272.08 5249.79L2271.75 5250.17C2270.12 5248.76 2268.33 5247.4 2266.4 5246.08L2266.68 5245.67L2266.96 5245.25C2268.92 5246.59 2270.74 5247.97 2272.4 5249.41ZM2261.1 5241.66L2260.86 5242.1L2260.62 5242.54C2258.7 5241.47 2256.68 5240.44 2254.55 5239.45L2254.76 5239L2254.98 5238.55C2257.12 5239.55 2259.17 5240.58 2261.1 5241.66ZM2248.66 5235.84L2248.48 5236.3L2248.3 5236.77C2246.24 5235.96 2244.11 5235.17 2241.9 5234.42L2242.06 5233.95L2242.22 5233.48C2244.45 5234.23 2246.59 5235.02 2248.66 5235.84ZM2235.69 5231.41L2235.55 5231.89L2235.41 5232.37C2233.28 5231.74 2231.09 5231.14 2228.84 5230.57L2228.96 5230.09L2229.09 5229.6C2231.35 5230.18 2233.55 5230.78 2235.69 5231.41ZM2222.43 5228.02L2222.32 5228.51L2222.21 5228.99C2220.03 5228.51 2217.8 5228.05 2215.53 5227.62L2215.62 5227.12L2215.71 5226.63C2218 5227.07 2220.24 5227.53 2222.43 5228.02ZM2208.96 5225.43L2208.88 5225.92L2208.79 5226.41C2206.57 5226.05 2204.32 5225.7 2202.02 5225.37L2202.09 5224.88L2202.16 5224.38C2204.46 5224.71 2206.73 5225.06 2208.96 5225.43ZM2195.35 5223.49L2195.29 5223.99L2195.23 5224.49C2193 5224.22 2190.75 5223.97 2188.46 5223.74L2188.51 5223.24L2188.56 5222.75C2190.85 5222.98 2193.12 5223.23 2195.35 5223.49ZM2181.72 5222.13L2181.68 5222.62L2181.64 5223.12C2179.39 5222.94 2177.1 5222.77 2174.79 5222.62L2174.83 5222.12L2174.86 5221.62C2177.17 5221.77 2179.46 5221.94 2181.72 5222.13ZM2168.02 5221.24L2168 5221.74L2167.98 5222.24C2165.72 5222.13 2163.45 5222.03 2161.15 5221.96L2161.16 5221.46L2161.18 5220.96C2163.48 5221.03 2165.77 5221.13 2168.02 5221.24ZM2154.3 5220.78L2154.29 5221.28L2154.28 5221.78C2152.03 5221.73 2149.75 5221.71 2147.45 5221.7L2147.45 5221.2L2147.45 5220.7C2149.76 5220.71 2152.04 5220.73 2154.3 5220.78ZM2140.6 5220.71L2140.61 5221.21L2140.61 5221.71C2138.34 5221.72 2136.05 5221.76 2133.74 5221.8L2133.73 5221.3L2133.72 5220.8C2136.03 5220.76 2138.32 5220.72 2140.6 5220.71ZM2126.88 5220.99L2126.9 5221.49L2126.91 5221.99C2124.65 5222.06 2122.37 5222.15 2120.07 5222.25L2120.05 5221.75L2120.02 5221.25C2122.33 5221.15 2124.61 5221.06 2126.88 5220.99ZM2113.16 5221.6L2113.19 5222.1L2113.21 5222.6C2110.96 5222.72 2108.68 5222.86 2106.4 5223.02L2106.36 5222.52L2106.33 5222.02C2108.62 5221.87 2110.9 5221.73 2113.16 5221.6ZM2099.47 5222.52L2099.51 5223.02L2099.55 5223.52C2097.29 5223.69 2095.02 5223.88 2092.74 5224.08L2092.69 5223.59L2092.65 5223.09C2094.93 5222.89 2097.21 5222.7 2099.47 5222.52ZM2085.82 5223.73L2085.87 5224.23L2085.92 5224.73C2083.65 5224.95 2081.38 5225.19 2079.1 5225.44L2079.04 5224.94L2078.99 5224.44C2081.27 5224.19 2083.55 5223.96 2085.82 5223.73ZM2072.18 5225.22L2072.24 5225.72L2072.3 5226.22C2070.04 5226.49 2067.76 5226.77 2065.48 5227.07L2065.42 5226.57L2065.35 5226.07C2067.64 5225.78 2069.92 5225.49 2072.18 5225.22ZM2058.58 5226.99L2058.65 5227.48L2058.71 5227.98C2056.46 5228.29 2054.19 5228.62 2051.92 5228.96L2051.85 5228.46L2051.77 5227.97C2054.05 5227.63 2056.32 5227.3 2058.58 5226.99ZM2045.01 5229.01L2045.08 5229.5L2045.16 5230C2042.91 5230.35 2040.66 5230.72 2038.39 5231.1L2038.31 5230.61L2038.23 5230.12C2040.49 5229.74 2042.75 5229.37 2045.01 5229.01ZM2031.47 5231.29C2030.34 5231.49 2029.21 5231.69 2028.08 5231.9C2026.95 5232.11 2025.82 5232.32 2024.7 5232.53L2024.79 5233.02L2024.88 5233.51C2026.01 5233.3 2027.13 5233.09 2028.26 5232.88C2029.39 5232.68 2030.52 5232.47 2031.65 5232.27L2031.56 5231.78L2031.47 5231.29ZM2017.96 5233.82L2018.06 5234.31L2018.16 5234.8C2015.91 5235.25 2013.67 5235.7 2011.43 5236.16L2011.33 5235.67L2011.23 5235.18C2013.47 5234.72 2015.71 5234.27 2017.96 5233.82ZM2004.53 5236.6L2004.64 5237.09L2004.75 5237.58C2002.5 5238.07 2000.27 5238.56 1998.04 5239.07L1997.93 5238.58L1997.82 5238.09C2000.05 5237.59 2002.29 5237.09 2004.53 5236.6ZM1991.16 5239.64L1991.28 5240.12L1991.39 5240.61C1989.15 5241.14 1986.93 5241.68 1984.71 5242.23L1984.59 5241.74L1984.47 5241.26C1986.69 5240.71 1988.92 5240.17 1991.16 5239.64ZM1977.83 5242.94L1977.96 5243.42L1978.08 5243.91C1975.86 5244.48 1973.65 5245.06 1971.45 5245.65L1971.32 5245.17L1971.19 5244.69C1973.39 5244.09 1975.61 5243.51 1977.83 5242.94ZM1964.58 5246.5L1964.71 5246.98L1964.85 5247.47C1962.64 5248.08 1960.45 5248.71 1958.27 5249.34L1958.13 5248.86L1957.99 5248.38C1960.17 5247.75 1962.37 5247.12 1964.58 5246.5ZM1951.4 5250.34L1951.55 5250.82L1951.69 5251.3C1949.5 5251.97 1947.32 5252.64 1945.17 5253.32L1945.02 5252.84L1944.87 5252.37C1947.03 5251.68 1949.21 5251.01 1951.4 5250.34ZM1938.32 5254.47L1938.48 5254.95L1938.63 5255.42C1936.45 5256.14 1934.28 5256.86 1932.14 5257.6L1931.98 5257.12L1931.81 5256.65C1933.96 5255.92 1936.13 5255.19 1938.32 5254.47ZM1925.35 5258.9C1923.18 5259.67 1921.02 5260.45 1918.88 5261.24L1919.05 5261.71L1919.23 5262.18C1921.36 5261.39 1923.51 5260.61 1925.69 5259.84L1925.52 5259.37L1925.35 5258.9ZM1912.47 5263.65L1912.65 5264.12L1912.83 5264.59C1910.8 5265.37 1908.8 5266.15 1906.82 5266.94C1906.73 5266.62 1906.61 5266.3 1906.47 5266C1908.45 5265.21 1910.45 5264.43 1912.47 5263.65ZM1896.3 5271.29C1895.47 5271.64 1894.64 5272 1893.82 5272.36L1893.62 5271.9L1893.42 5271.44C1894.3 5271.06 1895.17 5270.68 1896.06 5270.3C1896.02 5270.04 1896 5269.77 1896 5269.5C1896 5266.46 1898.46 5264 1901.5 5264C1904.54 5264 1907 5266.46 1907 5269.5C1907 5272.54 1904.54 5275 1901.5 5275C1899.09 5275 1897.04 5273.45 1896.3 5271.29ZM1887.16 5274.22L1887.37 5274.68L1887.58 5275.13C1885.47 5276.09 1883.39 5277.05 1881.35 5278.02L1881.14 5277.57L1880.92 5277.12C1882.97 5276.15 1885.05 5275.18 1887.16 5274.22ZM1874.75 5280.12L1874.97 5280.56L1875.2 5281.01C1873.14 5282.04 1871.11 5283.07 1869.12 5284.11L1868.89 5283.66L1868.66 5283.22C1870.65 5282.18 1872.69 5281.14 1874.75 5280.12ZM1862.61 5286.46L1862.85 5286.9L1863.09 5287.34C1861.06 5288.46 1859.07 5289.58 1857.12 5290.71L1856.87 5290.28L1856.62 5289.84C1858.57 5288.71 1860.57 5287.58 1862.61 5286.46ZM1850.72 5293.36L1850.99 5293.79L1851.25 5294.21C1849.28 5295.43 1847.35 5296.64 1845.48 5297.87L1845.21 5297.45L1844.94 5297.03C1846.81 5295.8 1848.74 5294.58 1850.72 5293.36ZM1839.27 5300.87L1839.55 5301.28L1839.84 5301.69C1837.94 5303.02 1836.1 5304.36 1834.33 5305.7L1834.03 5305.3L1833.73 5304.9C1835.51 5303.55 1837.36 5302.21 1839.27 5300.87ZM1828.35 5309.14L1828.67 5309.53L1828.99 5309.91C1827.19 5311.4 1825.47 5312.88 1823.84 5314.37L1823.5 5314L1823.16 5313.63C1824.81 5312.13 1826.54 5310.63 1828.35 5309.14ZM1818.22 5318.4L1818.58 5318.74L1818.93 5319.09C1817.3 5320.77 1815.77 5322.45 1814.35 5324.12L1813.97 5323.8L1813.59 5323.48C1815.02 5321.78 1816.56 5320.09 1818.22 5318.4ZM1809.38 5328.91L1809.79 5329.2L1810.2 5329.48C1808.86 5331.4 1807.67 5333.3 1806.64 5335.2L1806.2 5334.96L1805.76 5334.72C1806.81 5332.79 1808.02 5330.85 1809.38 5328.91ZM1802.93 5340.94L1803.4 5341.12L1803.87 5341.29C1803.07 5343.46 1802.5 5345.61 1802.15 5347.73L1801.66 5347.65L1801.16 5347.57C1801.52 5345.38 1802.11 5343.17 1802.93 5340.94ZM1800.8 5354.4L1801.3 5354.37L1801.8 5354.34C1801.86 5355.44 1802 5356.53 1802.2 5357.62C1802.4 5358.71 1802.66 5359.78 1802.99 5360.84L1802.51 5360.99L1802.03 5361.13C1801.69 5360.04 1801.42 5358.93 1801.21 5357.8C1801.01 5356.67 1800.87 5355.54 1800.8 5354.4ZM1804.78 5367.39L1805.22 5367.14L1805.65 5366.89C1806.73 5368.75 1808.03 5370.56 1809.54 5372.31L1809.16 5372.64L1808.78 5372.96C1807.23 5371.17 1805.9 5369.31 1804.78 5367.39ZM1813.63 5377.78L1813.96 5377.4L1814.29 5377.02C1815.92 5378.43 1817.71 5379.79 1819.64 5381.11L1819.36 5381.52L1819.08 5381.93C1817.12 5380.6 1815.3 5379.21 1813.63 5377.78ZM1824.93 5385.53L1825.18 5385.09L1825.42 5384.65C1827.33 5385.72 1829.36 5386.75 1831.48 5387.74L1831.27 5388.19L1831.06 5388.64C1828.91 5387.64 1826.87 5386.6 1824.93 5385.53ZM1837.37 5391.35L1837.56 5390.88L1837.74 5390.42C1839.8 5391.23 1841.93 5392.01 1844.13 5392.76L1843.97 5393.24L1843.81 5393.71C1841.59 5392.96 1839.44 5392.17 1837.37 5391.35ZM1850.35 5395.78L1850.49 5395.3L1850.63 5394.82C1852.76 5395.44 1854.95 5396.04 1857.2 5396.62L1857.07 5397.1L1856.95 5397.59C1854.69 5397.01 1852.49 5396.41 1850.35 5395.78ZM1863.61 5399.17L1863.72 5398.68L1863.83 5398.19C1866.01 5398.68 1868.24 5399.14 1870.51 5399.57L1870.42 5400.06L1870.32 5400.56C1868.04 5400.12 1865.8 5399.66 1863.61 5399.17ZM1877.08 5401.76L1877.16 5401.27L1877.24 5400.77C1879.46 5401.14 1881.72 5401.49 1884.02 5401.81L1883.95 5402.31L1883.88 5402.8C1881.57 5402.48 1879.31 5402.13 1877.08 5401.76ZM1890.69 5403.69L1890.75 5403.2L1890.81 5402.7C1893.03 5402.97 1895.29 5403.22 1897.58 5403.45L1897.53 5403.94L1897.48 5404.44C1895.18 5404.21 1892.92 5403.96 1890.69 5403.69ZM1904.31 5405.06L1904.35 5404.57L1904.39 5404.07C1906.65 5404.25 1908.93 5404.42 1911.24 5404.57L1911.21 5405.07L1911.18 5405.57C1908.86 5405.42 1906.57 5405.25 1904.31 5405.06ZM1918.01 5405.95L1918.04 5405.45L1918.06 5404.95C1920.31 5405.06 1922.59 5405.16 1924.89 5405.23L1924.87 5405.73L1924.86 5406.23C1922.55 5406.16 1920.27 5406.06 1918.01 5405.95ZM1931.73 5406.41L1931.74 5405.91L1931.75 5405.41C1934.01 5405.45 1936.29 5405.48 1938.59 5405.49L1938.59 5405.99L1938.58 5406.49C1936.28 5406.48 1934 5406.45 1931.73 5406.41ZM1945.43 5406.48L1945.43 5405.98L1945.43 5405.48C1947.7 5405.47 1949.99 5405.43 1952.3 5405.39L1952.31 5405.88L1952.32 5406.38C1950.01 5406.43 1947.71 5406.47 1945.43 5406.48ZM1959.16 5406.2L1959.14 5405.7L1959.12 5405.2C1961.39 5405.13 1963.67 5405.04 1965.97 5404.94L1965.99 5405.44L1966.01 5405.94C1963.71 5406.04 1961.43 5406.13 1959.16 5406.2ZM1972.88 5405.59L1972.85 5405.09L1972.82 5404.59C1973.88 5404.53 1974.94 5404.47 1976 5404.4C1976.05 5401.41 1978.49 5399 1981.5 5399C1984.24 5399 1986.52 5401.01 1986.93 5403.64C1989.04 5403.47 1991.17 5403.29 1993.3 5403.1L1993.34 5403.6L1993.39 5404.1C1991.25 5404.29 1989.12 5404.47 1987 5404.64C1986.93 5407.61 1984.49 5410 1981.5 5410C1978.77 5410 1976.5 5408.01 1976.07 5405.4C1975.01 5405.47 1973.94 5405.53 1972.88 5405.59ZM2000.22 5403.46C2002.49 5403.23 2004.76 5403 2007.05 5402.75L2006.99 5402.25L2006.94 5401.75C2004.66 5402 2002.38 5402.24 2000.12 5402.46L2000.17 5402.96L2000.22 5403.46ZM2013.85 5401.97L2013.79 5401.47L2013.74 5400.97C2016 5400.7 2018.27 5400.42 2020.55 5400.12L2020.62 5400.62L2020.68 5401.12C2018.4 5401.41 2016.12 5401.69 2013.85 5401.97ZM2027.46 5400.2L2027.39 5399.71L2027.32 5399.21C2029.58 5398.9 2031.84 5398.57 2034.12 5398.23L2034.19 5398.73L2034.26 5399.22C2031.99 5399.56 2029.72 5399.89 2027.46 5400.2ZM2041.03 5398.18L2040.95 5397.69L2040.87 5397.19C2043.12 5396.83 2045.38 5396.47 2047.64 5396.08L2047.72 5396.58L2047.81 5397.07C2045.54 5397.45 2043.28 5397.82 2041.03 5398.18ZM1981.5 5409C1983.99 5409 1986 5406.99 1986 5404.5C1986 5402.01 1983.99 5400 1981.5 5400C1979.01 5400 1977 5402.01 1977 5404.5C1977 5406.99 1979.01 5409 1981.5 5409ZM1906 5269.5C1906 5271.99 1903.99 5274 1901.5 5274C1899.01 5274 1897 5271.99 1897 5269.5C1897 5267.01 1899.01 5265 1901.5 5265C1903.99 5265 1906 5267.01 1906 5269.5Z" fill="#C3D3FE" fill-opacity="0.6"/>
<path fill-rule="evenodd" clip-rule="evenodd" d="M2147.92 5148.3C2147.97 5147.99 2148 5147.68 2148 5147.36C2148 5147.33 2148 5147.3 2148 5147.28C2149.22 5147.64 2150.41 5148.05 2151.57 5148.51L2151.39 5148.98L2151.2 5149.44C2150.13 5149.02 2149.04 5148.64 2147.92 5148.3ZM2137.35 5145.42C2135.45 5145.29 2133.5 5145.26 2131.51 5145.32L2131.53 5145.82L2131.54 5146.32C2133.43 5146.27 2135.28 5146.29 2137.08 5146.41C2137.14 5146.07 2137.23 5145.74 2137.35 5145.42ZM2108 5366.03L2108.4 5366.33C2109.09 5365.42 2109.77 5364.51 2110.46 5363.6C2111.14 5362.68 2111.83 5361.76 2112.5 5360.85L2112.1 5360.55L2111.7 5360.25C2111.02 5361.17 2110.34 5362.08 2109.66 5363C2108.97 5363.91 2108.29 5364.82 2107.6 5365.72L2108 5366.03ZM2120.44 5349.75C2119.14 5351.61 2117.83 5353.48 2116.5 5355.34L2116.09 5355.05L2115.69 5354.76C2117.02 5352.9 2118.32 5351.04 2119.61 5349.18L2120.02 5349.46L2120.44 5349.75ZM2123.86 5343.83L2124.28 5344.11C2125.55 5342.22 2126.8 5340.32 2128.03 5338.43L2127.61 5338.16L2127.19 5337.88C2125.96 5339.77 2124.71 5341.66 2123.45 5343.55L2123.86 5343.83ZM2131.28 5332.4L2131.7 5332.67C2132.92 5330.73 2134.11 5328.79 2135.28 5326.86L2134.85 5326.6L2134.42 5326.34C2133.26 5328.27 2132.07 5330.2 2130.85 5332.14L2131.28 5332.4ZM2138.33 5320.75L2138.76 5321C2139.91 5319.02 2141.04 5317.05 2142.15 5315.08L2141.71 5314.84L2141.27 5314.59C2140.17 5316.56 2139.05 5318.52 2137.9 5320.49L2138.33 5320.75ZM2145 5308.86L2145.44 5309.09C2146.53 5307.08 2147.59 5305.07 2148.62 5303.06L2148.18 5302.83L2147.74 5302.6C2146.7 5304.6 2145.64 5306.61 2144.56 5308.62L2145 5308.86ZM2151.25 5296.76L2151.7 5296.98C2152.71 5294.93 2153.7 5292.88 2154.66 5290.84L2154.21 5290.63L2153.76 5290.41C2152.8 5292.45 2151.81 5294.49 2150.8 5296.54L2151.25 5296.76ZM2157.06 5284.43L2157.51 5284.63C2158.45 5282.54 2159.36 5280.45 2160.24 5278.37L2159.78 5278.18L2159.32 5277.98C2158.44 5280.05 2157.53 5282.13 2156.6 5284.22L2157.06 5284.43ZM2162.36 5271.88L2162.83 5272.07C2163.67 5269.94 2164.49 5267.82 2165.27 5265.72L2164.8 5265.54L2164.34 5265.37C2163.56 5267.47 2162.74 5269.58 2161.9 5271.7L2162.36 5271.88ZM2167.11 5259.13L2167.58 5259.29C2168.33 5257.11 2169.05 5254.95 2169.73 5252.81L2169.25 5252.66L2168.77 5252.51C2168.1 5254.64 2167.38 5256.8 2166.63 5258.97L2167.11 5259.13ZM2171.22 5246.13L2171.7 5246.27C2172.34 5244.05 2172.93 5241.86 2173.49 5239.69L2173 5239.56L2172.52 5239.44C2171.97 5241.6 2171.37 5243.79 2170.74 5246L2171.22 5246.13ZM2174.58 5232.94L2175.07 5233.05C2175.56 5230.79 2176.01 5228.56 2176.42 5226.36L2175.93 5226.27L2175.44 5226.18C2175.03 5228.37 2174.58 5230.59 2174.09 5232.83L2174.58 5232.94ZM2177.02 5219.56L2177.52 5219.63C2177.85 5217.34 2178.12 5215.08 2178.34 5212.86L2177.84 5212.81L2177.34 5212.76C2177.13 5214.97 2176.86 5217.21 2176.53 5219.49L2177.02 5219.56ZM2178.33 5206.03L2178.83 5206.06C2178.94 5203.74 2178.98 5201.46 2178.96 5199.24L2178.46 5199.25L2177.96 5199.25C2177.98 5201.45 2177.94 5203.71 2177.83 5206.01L2178.33 5206.03ZM2178.16 5192.48L2178.66 5192.44C2178.47 5190.11 2178.21 5187.86 2177.86 5185.68L2177.36 5185.75L2176.87 5185.83C2177.22 5187.99 2177.48 5190.22 2177.66 5192.52L2178.16 5192.48ZM2175.98 5179.11L2176.46 5178.98C2175.87 5176.72 2175.18 5174.56 2174.38 5172.49L2173.92 5172.68L2173.45 5172.86C2174.23 5174.88 2174.92 5177.01 2175.49 5179.23L2175.98 5179.11ZM2171.07 5166.56L2171.51 5166.32C2170.39 5164.29 2169.14 5162.4 2167.76 5160.63L2167.36 5160.94L2166.97 5161.25C2168.31 5162.97 2169.54 5164.82 2170.63 5166.8L2171.07 5166.56ZM2162.78 5156.02L2163.11 5155.65C2162.27 5154.89 2161.39 5154.17 2160.48 5153.48C2159.56 5152.8 2158.62 5152.16 2157.66 5151.56L2157.39 5151.99L2157.13 5152.41C2158.07 5153 2158.99 5153.62 2159.88 5154.29C2160.77 5154.95 2161.62 5155.66 2162.45 5156.39L2162.78 5156.02ZM2124.76 5146.37L2124.7 5145.87C2122.5 5146.15 2120.26 5146.53 2117.98 5147L2118.08 5147.49L2118.19 5147.98C2120.44 5147.51 2122.66 5147.14 2124.82 5146.86L2124.76 5146.37ZM2111.5 5149.11L2111.37 5148.63C2109.23 5149.23 2107.06 5149.91 2104.86 5150.67L2105.03 5151.14L2105.19 5151.62C2107.37 5150.86 2109.52 5150.19 2111.64 5149.59L2111.5 5149.11ZM2098.66 5153.52L2098.48 5153.06C2096.41 5153.89 2094.32 5154.79 2092.21 5155.75L2092.41 5156.21L2092.62 5156.66C2094.72 5155.71 2096.79 5154.82 2098.85 5153.99L2098.66 5153.52ZM2086.28 5159.15L2086.06 5158.7C2084.06 5159.71 2082.05 5160.77 2080.02 5161.88L2080.26 5162.32L2080.51 5162.76C2082.52 5161.65 2084.52 5160.6 2086.51 5159.6L2086.28 5159.15ZM2074.36 5165.7L2074.1 5165.27C2072.17 5166.41 2070.23 5167.6 2068.28 5168.84L2068.55 5169.26L2068.82 5169.68C2070.76 5168.45 2072.69 5167.27 2074.61 5166.13L2074.36 5165.7ZM2062.85 5172.98L2062.57 5172.57C2060.7 5173.82 2058.83 5175.12 2056.95 5176.45L2057.24 5176.86L2057.53 5177.27C2059.4 5175.94 2061.27 5174.65 2063.13 5173.4L2062.85 5172.98ZM2051.73 5180.88L2051.43 5180.48C2049.63 5181.82 2047.83 5183.2 2046.03 5184.61L2046.33 5185.01L2046.64 5185.4C2048.44 5183.99 2050.24 5182.62 2052.03 5181.28L2051.73 5180.88ZM2041.02 5189.26L2040.71 5188.87C2038.96 5190.3 2037.22 5191.76 2035.47 5193.25L2035.79 5193.63L2036.12 5194.01C2037.86 5192.52 2039.6 5191.07 2041.34 5189.65L2041.02 5189.26ZM2030.65 5198.1L2030.31 5197.73C2028.63 5199.23 2026.94 5200.75 2025.25 5202.31L2025.59 5202.67L2025.93 5203.04C2027.61 5201.49 2029.29 5199.97 2030.98 5198.48L2030.65 5198.1ZM2020.63 5207.33L2020.29 5206.96C2018.65 5208.52 2017.02 5210.11 2015.39 5211.72L2015.75 5212.07L2016.1 5212.43C2017.72 5210.82 2019.35 5209.24 2020.98 5207.69L2020.63 5207.33ZM2010.93 5216.91L2010.58 5216.56C2009 5218.18 2007.42 5219.82 2005.85 5221.48L2006.21 5221.82L2006.58 5222.17C2008.15 5220.51 2009.72 5218.87 2011.29 5217.26L2010.93 5216.91ZM2001.58 5226.8L2001.21 5226.47C1999.68 5228.14 1998.16 5229.83 1996.64 5231.54L1997.01 5231.87L1997.39 5232.2C1998.9 5230.49 2000.42 5228.81 2001.95 5227.14L2001.58 5226.8ZM1992.53 5237.01L1992.15 5236.68C1990.68 5238.4 1989.21 5240.13 1987.75 5241.88L1988.13 5242.2L1988.52 5242.52C1989.97 5240.77 1991.44 5239.05 1992.91 5237.34L1992.53 5237.01ZM1983.81 5247.47L1983.42 5247.16C1982 5248.92 1980.58 5250.7 1979.16 5252.5L1979.56 5252.81L1979.95 5253.12C1981.36 5251.32 1982.78 5249.54 1984.2 5247.78L1983.81 5247.47ZM1972.94 5260.63C1973.63 5259.71 1974.32 5258.8 1975.01 5257.89L1975.4 5258.2L1975.8 5258.5C1975.11 5259.4 1974.43 5260.31 1973.74 5261.23C1973.06 5262.14 1972.38 5263.05 1971.71 5263.97L1971.3 5263.67L1970.9 5263.38C1971.58 5262.46 1972.26 5261.54 1972.94 5260.63ZM1967.31 5269.17L1966.9 5268.88C1965.57 5270.75 1964.26 5272.61 1962.97 5274.47L1963.38 5274.76L1963.79 5275.04C1965.08 5273.18 1966.39 5271.32 1967.71 5269.47L1967.31 5269.17ZM1959.54 5280.39L1959.12 5280.11C1957.85 5282.01 1956.6 5283.9 1955.38 5285.79L1955.79 5286.07L1956.21 5286.34C1957.44 5284.45 1958.69 5282.56 1959.95 5280.67L1959.54 5280.39ZM1952.13 5291.82L1951.7 5291.55C1950.49 5293.49 1949.29 5295.43 1948.12 5297.37L1948.55 5297.63L1948.98 5297.88C1950.15 5295.95 1951.34 5294.02 1952.55 5292.09L1952.13 5291.82ZM1945.07 5303.48L1944.64 5303.22C1943.49 5305.2 1942.36 5307.17 1941.26 5309.14L1941.69 5309.39L1942.13 5309.63C1943.23 5307.67 1944.36 5305.7 1945.51 5303.73L1945.07 5303.48ZM1938.4 5315.37L1937.96 5315.13C1936.88 5317.14 1935.81 5319.16 1934.78 5321.16L1935.22 5321.39L1935.67 5321.62C1936.7 5319.62 1937.76 5317.61 1938.84 5315.6L1938.4 5315.37ZM1932.15 5327.46L1931.71 5327.24C1930.69 5329.29 1929.7 5331.34 1928.74 5333.38L1929.19 5333.6L1929.64 5333.81C1930.6 5331.77 1931.59 5329.73 1932.6 5327.68L1932.15 5327.46ZM1926.35 5339.8L1925.89 5339.59C1924.95 5341.69 1924.04 5343.77 1923.17 5345.85L1923.63 5346.04L1924.09 5346.24C1924.96 5344.17 1925.87 5342.09 1926.8 5340L1926.35 5339.8ZM1921.04 5352.34L1920.58 5352.15C1919.73 5354.28 1918.91 5356.4 1918.13 5358.51L1918.6 5358.68L1919.07 5358.85C1919.85 5356.76 1920.66 5354.65 1921.51 5352.52L1921.04 5352.34ZM1916.3 5365.09L1915.82 5364.93C1915.07 5367.11 1914.35 5369.27 1913.68 5371.42L1914.15 5371.57L1914.63 5371.72C1915.31 5369.58 1916.02 5367.43 1916.77 5365.26L1916.3 5365.09ZM1912.18 5378.09L1911.7 5377.95C1911.07 5380.17 1910.47 5382.36 1909.92 5384.54L1910.4 5384.66L1910.89 5384.78C1911.44 5382.62 1912.03 5380.43 1912.66 5378.23L1912.18 5378.09ZM1908.82 5391.28L1908.34 5391.17C1907.84 5393.43 1907.39 5395.66 1906.98 5397.86L1907.48 5397.95L1907.97 5398.04C1908.37 5395.85 1908.82 5393.63 1909.31 5391.39L1908.82 5391.28ZM1906.38 5404.66L1905.88 5404.59C1905.55 5406.88 1905.28 5409.14 1905.06 5411.36L1905.56 5411.41L1906.06 5411.46C1906.28 5409.26 1906.55 5407.01 1906.87 5404.73L1906.38 5404.66ZM1905.07 5418.19L1904.57 5418.17C1904.46 5420.49 1904.42 5422.76 1904.44 5424.98L1904.94 5424.98L1905.44 5424.97C1905.42 5422.77 1905.46 5420.52 1905.57 5418.21L1905.07 5418.19ZM1905.24 5431.75L1904.74 5431.79C1904.93 5434.11 1905.19 5436.36 1905.54 5438.55L1906.04 5438.47L1906.53 5438.39C1906.19 5436.23 1905.92 5434 1905.74 5431.71L1905.24 5431.75ZM1907.42 5445.11L1906.94 5445.24C1907.53 5447.5 1908.22 5449.66 1909.02 5451.73L1909.49 5451.55L1909.95 5451.37C1909.17 5449.34 1908.49 5447.21 1907.91 5444.99L1907.42 5445.11ZM1912.33 5457.66L1911.89 5457.9C1913.02 5459.93 1914.27 5461.83 1915.65 5463.59L1916.04 5463.28L1916.43 5462.98C1915.09 5461.25 1913.87 5459.4 1912.77 5457.42L1912.33 5457.66ZM1922.92 5470.74C1922.01 5470.05 1921.13 5469.33 1920.29 5468.57L1920.62 5468.2L1920.96 5467.83C1921.78 5468.57 1922.63 5469.27 1923.52 5469.94C1924.41 5470.6 1925.33 5471.23 1926.27 5471.81L1926.01 5472.23L1925.75 5472.66C1924.78 5472.06 1923.84 5471.42 1922.92 5470.74ZM1932.01 5475.25L1931.83 5475.71C1933.91 5476.54 1936.09 5477.2 1938.35 5477.71L1938.46 5477.22L1938.56 5476.73C1936.35 5476.24 1934.23 5475.59 1932.2 5474.78L1932.01 5475.25ZM1945.12 5478.23L1945.08 5478.73C1947.29 5478.91 1949.56 5478.97 1951.89 5478.9L1951.87 5478.4L1951.86 5477.9C1949.56 5477.97 1947.33 5477.91 1945.16 5477.73L1945.12 5478.23ZM1958.64 5477.86L1958.71 5478.35C1960.9 5478.07 1963.14 5477.7 1965.42 5477.22L1965.32 5476.73L1965.21 5476.24C1962.96 5476.71 1960.75 5477.09 1958.58 5477.36L1958.64 5477.86ZM1971.9 5475.11L1972.03 5475.59C1974.17 5474.99 1976.34 5474.31 1978.54 5473.55L1978.37 5473.08L1978.21 5472.61C1976.03 5473.36 1973.88 5474.03 1971.76 5474.63L1971.9 5475.11ZM1984.74 5470.7L1984.93 5471.16C1986.99 5470.33 1989.09 5469.43 1991.19 5468.47L1990.99 5468.02L1990.78 5467.56C1988.68 5468.52 1986.61 5469.41 1984.55 5470.23L1984.74 5470.7ZM1997.12 5465.07L1997.34 5465.52C1999.34 5464.51 2001.35 5463.45 2003.38 5462.34L2003.14 5461.9L2002.9 5461.46C2000.88 5462.57 1998.88 5463.62 1996.89 5464.63L1997.12 5465.07ZM2009.05 5458.52L2009.3 5458.95C2011.23 5457.81 2013.17 5456.62 2015.12 5455.39L2014.85 5454.97L2014.58 5454.54C2012.64 5455.77 2010.71 5456.96 2008.79 5458.09L2009.05 5458.52ZM2026.45 5447.77C2024.57 5449.1 2022.7 5450.4 2020.83 5451.65L2020.55 5451.24L2020.28 5450.82C2022.14 5449.57 2024 5448.28 2025.87 5446.95L2026.16 5447.36L2026.45 5447.77ZM2037.38 5439.61C2035.57 5441.02 2033.77 5442.4 2031.97 5443.75L2031.67 5443.35L2031.37 5442.95C2033.16 5441.61 2034.96 5440.23 2036.76 5438.82L2037.07 5439.22L2037.38 5439.61ZM2047.93 5430.98C2046.19 5432.47 2044.44 5433.92 2042.7 5435.35L2042.38 5434.96L2042.06 5434.58C2043.8 5433.15 2045.54 5431.7 2047.28 5430.22L2047.61 5430.6L2047.93 5430.98ZM2052.76 5426.12L2053.09 5426.49C2054.78 5425 2056.46 5423.47 2058.15 5421.92L2057.81 5421.55L2057.47 5421.18C2055.79 5422.73 2054.11 5424.25 2052.42 5425.74L2052.76 5426.12ZM2062.77 5416.9L2063.12 5417.26C2064.75 5415.7 2066.38 5414.11 2068.01 5412.5L2067.66 5412.15L2067.3 5411.79C2065.68 5413.4 2064.05 5414.98 2062.43 5416.54L2062.77 5416.9ZM2072.47 5407.31L2072.83 5407.66C2074.4 5406.04 2075.98 5404.41 2077.55 5402.74L2077.19 5402.4L2076.82 5402.06C2075.26 5403.71 2073.68 5405.35 2072.11 5406.96L2072.47 5407.31ZM2081.82 5397.42L2082.19 5397.76C2083.72 5396.09 2085.24 5394.4 2086.76 5392.68L2086.39 5392.35L2086.01 5392.02C2084.5 5393.73 2082.98 5395.42 2081.45 5397.08L2081.82 5397.42ZM2090.87 5387.21L2091.25 5387.54C2092.73 5385.83 2094.19 5384.09 2095.65 5382.34L2095.27 5382.02L2094.88 5381.7C2093.43 5383.45 2091.96 5385.18 2090.5 5386.89L2090.87 5387.21ZM2099.59 5376.75L2099.98 5377.07C2101.41 5375.3 2102.83 5373.52 2104.24 5371.72L2103.84 5371.41L2103.45 5371.1C2102.04 5372.9 2100.63 5374.68 2099.2 5376.44L2099.59 5376.75Z" fill="#C3D3FE" fill-opacity="0.6"/>
<circle cx="2142.5" cy="5147.5" r="4.5" stroke="#C3D3FE" stroke-opacity="0.6" stroke-width="2"/>
</g>
</g>
<defs>
<filter id="filter0_f_219_430" x="-216" y="1729" width="2896" height="2896" filterUnits="userSpaceOnUse" color-interpolation-filters="sRGB">
<feFlood flood-opacity="0" result="BackgroundImageFix"/>
<feBlend mode="normal" in="SourceGraphic" in2="BackgroundImageFix" result="shape"/>
<feGaussianBlur stdDeviation="400" result="effect1_foregroundBlur_219_430"/>
</filter>
<filter id="filter1_f_219_430" x="2617" y="3649" width="2850" height="2850" filterUnits="userSpaceOnUse" color-interpolation-filters="sRGB">
<feFlood flood-opacity="0" result="BackgroundImageFix"/>
<feBlend mode="normal" in="SourceGraphic" in2="BackgroundImageFix" result="shape"/>
<feGaussianBlur stdDeviation="500" result="effect1_foregroundBlur_219_430"/>
</filter>
<filter id="filter2_f_219_430" x="398" y="-234" width="2286" height="2286" filterUnits="userSpaceOnUse" color-interpolation-filters="sRGB">
<feFlood flood-opacity="0" result="BackgroundImageFix"/>
<feBlend mode="normal" in="SourceGraphic" in2="BackgroundImageFix" result="shape"/>
<feGaussianBlur stdDeviation="400" result="effect1_foregroundBlur_219_430"/>
</filter>
<filter id="filter3_f_219_430" x="1615" y="293" width="873.842" height="925.663" filterUnits="userSpaceOnUse" color-interpolation-filters="sRGB">
<feFlood flood-opacity="0" result="BackgroundImageFix"/>
<feBlend mode="normal" in="SourceGraphic" in2="BackgroundImageFix" result="shape"/>
<feGaussianBlur stdDeviation="3" result="effect1_foregroundBlur_219_430"/>
</filter>
<filter id="filter4_f_219_430" x="3200.16" y="3135.96" width="873.842" height="925.662" filterUnits="userSpaceOnUse" color-interpolation-filters="sRGB">
<feFlood flood-opacity="0" result="BackgroundImageFix"/>
<feBlend mode="normal" in="SourceGraphic" in2="BackgroundImageFix" result="shape"/>
<feGaussianBlur stdDeviation="3" result="effect1_foregroundBlur_219_430"/>
</filter>
<filter id="filter5_f_219_430" x="2657" y="41" width="2544" height="2544" filterUnits="userSpaceOnUse" color-interpolation-filters="sRGB">
<feFlood flood-opacity="0" result="BackgroundImageFix"/>
<feBlend mode="normal" in="SourceGraphic" in2="BackgroundImageFix" result="shape"/>
<feGaussianBlur stdDeviation="500" result="effect1_foregroundBlur_219_430"/>
</filter>
<filter id="filter6_f_219_430" x="753" y="5007" width="2544" height="2544" filterUnits="userSpaceOnUse" color-interpolation-filters="sRGB">
<feFlood flood-opacity="0" result="BackgroundImageFix"/>
<feBlend mode="normal" in="SourceGraphic" in2="BackgroundImageFix" result="shape"/>
<feGaussianBlur stdDeviation="500" result="effect1_foregroundBlur_219_430"/>
</filter>
<filter id="filter7_f_219_430" x="3408.22" y="1351.51" width="562.236" height="424.92" filterUnits="userSpaceOnUse" color-interpolation-filters="sRGB">
<feFlood flood-opacity="0" result="BackgroundImageFix"/>
<feBlend mode="normal" in="SourceGraphic" in2="BackgroundImageFix" result="shape"/>
<feGaussianBlur stdDeviation="3" result="effect1_foregroundBlur_219_430"/>
</filter>
<filter id="filter8_f_219_430" x="1733" y="5096" width="635" height="432.223" filterUnits="userSpaceOnUse" color-interpolation-filters="sRGB">
<feFlood flood-opacity="0" result="BackgroundImageFix"/>
<feBlend mode="normal" in="SourceGraphic" in2="BackgroundImageFix" result="shape"/>
<feGaussianBlur stdDeviation="3" result="effect1_foregroundBlur_219_430"/>
</filter>
<clipPath id="clip0_219_430">
<rect width="5644" height="7230" fill="white"/>
</clipPath>
</defs>
</svg>
