<svg width="3006" height="697" viewBox="0 0 3006 697" fill="none" xmlns="http://www.w3.org/2000/svg">
<g clip-path="url(#clip0_79_169)">
<path d="M877.372 555.448L874.642 568.137L863.74 561.095L870.782 571.997L858.093 574.727L870.782 577.457L863.74 588.359L874.642 581.317L877.372 594.006L880.102 581.317L891.005 588.359L883.963 577.457L896.651 574.727L883.963 571.997L891.005 561.095L880.102 568.137L877.372 555.448Z" fill="#C5C0E1"/>
<path d="M591.858 351.64L589.128 364.329L578.225 357.287L585.267 368.189L572.578 370.919L585.267 373.649L578.225 384.552L589.128 377.509L591.858 390.198L594.587 377.509L605.49 384.552L598.448 373.649L611.137 370.919L598.448 368.189L605.49 357.287L594.587 364.329L591.858 351.64Z" fill="#C5C0E1"/>
<path d="M954.949 646.335L952.995 653.51L945.805 651.614L951.042 656.893L945.805 662.172L952.995 660.276L954.949 667.451L956.902 660.276L964.092 662.172L958.855 656.893L964.092 651.614L956.902 653.51L954.949 646.335Z" fill="#C5C0E1"/>
<path d="M562.021 539.841L560.068 547.016L552.878 545.12L558.115 550.399L552.878 555.677L560.068 553.782L562.021 560.956L563.974 553.782L571.164 555.677L565.927 550.399L571.164 545.12L563.974 547.016L562.021 539.841Z" fill="#C5C0E1"/>
<path d="M789.699 582.99L787.745 590.164L780.555 588.268L785.792 593.547L780.555 598.826L787.745 596.93L789.699 604.105L791.652 596.93L798.842 598.826L793.605 593.547L798.842 588.268L791.652 590.164L789.699 582.99Z" fill="#C5C0E1"/>
<path d="M713.041 495.315C713.041 499.118 716.123 502.201 719.926 502.201C723.729 502.201 726.812 499.118 726.812 495.315C726.812 491.513 723.729 488.43 719.926 488.43C716.123 488.43 713.041 491.513 713.041 495.315Z" fill="#C5C0E1"/>
<path d="M803.01 674.336C803.01 678.139 806.093 681.222 809.896 681.222C813.699 681.222 816.781 678.139 816.781 674.336C816.781 670.534 813.699 667.451 809.896 667.451C806.093 667.451 803.01 670.534 803.01 674.336Z" fill="#C5C0E1"/>
<path fill-rule="evenodd" clip-rule="evenodd" d="M685.04 620.282C696.511 624.119 704.779 634.95 704.779 647.713C704.779 660.475 696.511 671.306 685.04 675.144C687.925 676.109 691.012 676.631 694.221 676.631C710.192 676.631 723.14 663.684 723.14 647.713C723.14 631.741 710.192 618.794 694.221 618.794C691.012 618.794 687.925 619.317 685.04 620.282Z" fill="#C5C0E1"/>
<path fill-rule="evenodd" clip-rule="evenodd" d="M526.552 827.393C526.519 827.226 526.486 827.059 526.453 826.891C523.105 809.871 521.352 792.289 521.352 774.304C521.352 673.547 576.369 585.503 658.321 537.902C586.87 496.794 503.787 473.246 415.132 473.246C312.435 473.246 217.215 504.845 138.891 558.734C45.5342 645.857 -12.7179 769.286 -12.7179 906.145C-12.7179 1170.06 203.894 1384.03 471.133 1384.03C573.83 1384.03 669.05 1352.43 747.374 1298.54C784.305 1264.08 815.741 1223.93 840.252 1179.52C759.601 1238.35 659.872 1273.12 551.922 1273.12C283.596 1273.12 66.0598 1058.27 66.0598 793.224H67.4006C67.4006 1057.51 284.32 1271.78 551.922 1271.78C660.614 1271.78 760.944 1236.43 841.774 1176.74C865.892 1132.34 883.114 1083.74 892.024 1032.35C862.824 1042.68 831.36 1048.31 798.568 1048.31C664.067 1048.31 551.926 953.627 526.672 827.997L525.982 828.374L526.552 827.393ZM892.539 1029.31C863.225 1039.87 831.577 1045.62 798.568 1045.62C665.055 1045.62 553.816 951.437 529.138 826.648L809.012 673.516C865.653 751.769 898.983 847.607 898.983 951.13C898.983 977.756 896.778 1003.87 892.539 1029.31ZM811.384 672.218C868.223 750.859 901.665 847.135 901.665 951.13C901.665 977.383 899.533 1003.14 895.432 1028.25C912.811 1021.78 929.349 1013.61 944.842 1003.95C951.49 972.377 954.984 939.664 954.984 906.145C954.984 807.145 924.503 715.173 872.302 638.887L811.384 672.218ZM808.218 672.422L529.554 824.891L686.12 555.169C733.48 586.849 774.854 626.6 808.218 672.422ZM687.468 552.846C735.246 584.781 776.972 624.883 810.591 671.124L871.54 637.776C836.608 587.034 792.048 543.278 740.452 509.073C729.214 511.467 718.231 514.54 707.551 518.248L687.468 552.846ZM685.002 554.424L528.602 823.861C525.602 807.794 524.034 791.23 524.034 774.304C524.034 674.007 579.102 586.411 660.997 539.453C669.156 544.217 677.16 549.21 685.002 554.424ZM663.695 537.927C671.386 542.45 678.941 547.177 686.35 552.101L705.603 518.933C691.022 524.118 677.013 530.489 663.695 537.927ZM661.011 536.36C588.86 494.541 504.829 470.564 415.132 470.564C318.365 470.564 228.192 498.469 152.415 546.578C237.541 472.913 349.055 428.261 471.133 428.261C561.767 428.261 646.578 452.873 719.091 495.697L707.671 515.37C691.374 520.959 675.767 528.008 661.011 536.36ZM709.601 514.716L720.244 496.381C726.015 499.81 731.706 503.355 737.317 507.012C727.887 509.114 718.64 511.691 709.601 514.716ZM739.151 506.609C733.165 502.684 727.086 498.887 720.917 495.221C720.533 494.993 720.149 494.765 719.764 494.538C647.052 451.598 562.01 426.921 471.133 426.921C345.46 426.921 230.946 474.113 144.766 551.535C142.507 553.565 140.267 555.616 138.047 557.686C135.545 559.409 133.06 561.154 130.593 562.921C9.01245 650.007 -70.0598 791.447 -70.0598 951.13C-70.0598 1215.8 147.168 1430.35 415.132 1430.35C540.805 1430.35 655.319 1383.16 741.498 1305.74C743.758 1303.71 745.997 1301.66 748.217 1299.59C750.719 1297.87 753.204 1296.12 755.672 1294.35C817.164 1250.31 867.782 1192.36 902.796 1125.18C903.518 1123.79 904.233 1122.4 904.942 1121.01C923.154 1085.21 936.957 1046.84 945.647 1006.6C945.778 1006 945.908 1005.39 946.037 1004.78C946.565 1004.45 947.092 1004.12 947.617 1003.78C971.116 988.845 992.17 970.476 1010.06 949.393C1010.87 948.436 1011.67 947.473 1012.47 946.505C1051.21 899.555 1074.44 839.611 1074.44 774.304C1074.44 693.745 1039.1 621.346 982.893 571.431C981.948 570.592 980.997 569.759 980.041 568.933C931.535 527.03 868.051 501.641 798.568 501.641C779.382 501.641 760.653 503.577 742.571 507.262C741.954 507.388 741.338 507.515 740.723 507.645C740.2 507.299 739.676 506.954 739.151 506.609ZM744.144 508.313C761.735 504.817 779.935 502.982 798.568 502.982C868.996 502.982 933.225 529.19 981.821 572.272C982.526 573.608 983.224 574.946 983.917 576.289L873.906 636.481C839.255 586.087 795.164 542.538 744.144 508.313ZM874.668 637.593L984.53 577.482C1017.74 642.307 1036.44 715.607 1036.44 793.224C1036.44 846.587 1027.6 897.91 1011.28 945.842C993.283 967.617 971.928 986.577 947.997 1001.95C954.338 970.992 957.666 938.952 957.666 906.145C957.666 806.673 927.07 714.263 874.668 637.593ZM1013.69 942.885C1029.33 895.791 1037.78 845.483 1037.78 793.224C1037.78 715.144 1018.9 641.417 985.408 576.257C985.165 575.784 984.922 575.312 984.677 574.841C1039.05 624.418 1073.1 695.434 1073.1 774.304C1073.1 838.007 1050.89 896.587 1013.69 942.885ZM944.062 1007.58C928.624 1017.01 912.179 1024.98 894.925 1031.3C886.374 1081.59 869.915 1129.24 846.854 1172.94C866.362 1158.13 884.696 1141.9 901.695 1124.39C920.679 1087.92 935.055 1048.74 944.062 1007.58ZM899.511 1128.53C866.098 1191.19 819.005 1245.62 762.156 1287.96C795.078 1254.87 823.186 1217.1 845.363 1175.74C864.581 1161.34 882.681 1145.55 899.511 1128.53ZM733.85 1310.7C648.724 1384.36 537.21 1429.01 415.132 1429.01C147.893 1429.01 -68.719 1215.04 -68.719 951.13C-68.719 795.106 6.98914 656.538 124.108 569.317C37.8259 656.034 -15.3995 774.947 -15.3995 906.145C-15.3995 1171.57 202.445 1386.71 471.133 1386.71C567.901 1386.71 658.073 1358.81 733.85 1310.7Z" fill="#C5C0E1"/>
</g>
<defs>
<clipPath id="clip0_79_169">
<rect width="3006" height="697" fill="white"/>
</clipPath>
</defs>
</svg>
