<svg width="5644" height="3365" viewBox="0 0 5644 3365" fill="none" xmlns="http://www.w3.org/2000/svg">
<g clip-path="url(#clip0_219_6)">
<rect width="5644" height="3365" fill="#14131E"/>
<g filter="url(#filter0_f_219_6)">
<circle cx="1733" cy="2458" r="272" fill="#8E8FFA"/>
</g>
<g opacity="0.65">
<circle cx="3769.55" cy="1534.68" r="15.7175" transform="rotate(-180 3769.55 1534.68)" fill="#C2D9FF"/>
<circle cx="3769.55" cy="1534.68" r="15.2175" transform="rotate(-180 3769.55 1534.68)" stroke="#C3D3FE" stroke-opacity="0.6"/>
<circle cx="3761.7" cy="1435.13" r="5.23916" transform="rotate(-180 3761.7 1435.13)" fill="#C2D9FF"/>
<circle cx="3761.7" cy="1435.13" r="4.73916" transform="rotate(-180 3761.7 1435.13)" stroke="#C3D3FE" stroke-opacity="0.6"/>
<circle cx="3769.55" cy="1534.68" r="30.9349" transform="rotate(-180 3769.55 1534.68)" stroke="#C3D3FE" stroke-opacity="0.6"/>
<circle cx="3769.55" cy="1534.68" r="101.664" transform="rotate(-180 3769.55 1534.68)" stroke="#C3D3FE" stroke-opacity="0.6"/>
<circle cx="3769.56" cy="1534.67" r="57.1307" transform="rotate(-180 3769.56 1534.67)" stroke="#C3D3FE" stroke-opacity="0.6" stroke-linejoin="round" stroke-dasharray="2 3"/>
<rect x="3709.3" y="1615.88" width="13.0979" height="13.0979" transform="rotate(-180 3709.3 1615.88)" fill="#C2D9FF"/>
<rect x="3708.8" y="1615.38" width="12.0979" height="12.0979" transform="rotate(-180 3708.8 1615.38)" stroke="#C3D3FE" stroke-opacity="0.6"/>
<circle cx="3576.42" cy="1914.79" r="7.85874" transform="rotate(-180 3576.42 1914.79)" fill="#C2D9FF"/>
<circle cx="3576.42" cy="1914.79" r="7.35874" transform="rotate(-180 3576.42 1914.79)" stroke="#C3D3FE" stroke-opacity="0.6"/>
<circle cx="3355.66" cy="1665.65" r="7.85874" transform="rotate(-180 3355.66 1665.65)" fill="#C2D9FF"/>
<circle cx="3355.66" cy="1665.65" r="7.35874" transform="rotate(-180 3355.66 1665.65)" stroke="#C3D3FE" stroke-opacity="0.6"/>
<circle cx="3879.57" cy="1367.02" r="7.85874" transform="rotate(-180 3879.57 1367.02)" fill="#C2D9FF"/>
<circle cx="3879.57" cy="1367.02" r="7.35874" transform="rotate(-180 3879.57 1367.02)" stroke="#C3D3FE" stroke-opacity="0.6"/>
<circle cx="3662.05" cy="1698.46" r="5.23916" transform="rotate(-180 3662.05 1698.46)" fill="#C2D9FF"/>
<circle cx="3662.05" cy="1698.46" r="4.73916" transform="rotate(-180 3662.05 1698.46)" stroke="#C3D3FE" stroke-opacity="0.6"/>
<path d="M3446.43 1553C3384.9 1477.47 3351.82 1390.68 3348.06 1311.43C3344.31 1232.18 3369.87 1160.52 3425.57 1115.14C3481.27 1069.77 3556.62 1059.23 3633.47 1078.94C3710.32 1098.64 3788.63 1148.59 3850.16 1224.12C3911.69 1299.66 3944.77 1386.45 3948.53 1465.7C3952.28 1544.95 3926.72 1616.61 3871.02 1661.99C3815.32 1707.36 3739.97 1717.9 3663.12 1698.19C3586.27 1678.49 3507.96 1628.54 3446.43 1553Z" stroke="#C3D3FE" stroke-opacity="0.6"/>
<path fill-rule="evenodd" clip-rule="evenodd" d="M3614.27 1453.23C3588.42 1508.62 3573.08 1577.67 3573.08 1652.56C3573.08 1834.85 3663.98 1982.62 3776.1 1982.62C3888.22 1982.62 3979.12 1834.85 3979.12 1652.56C3979.12 1470.27 3888.22 1322.49 3776.1 1322.49C3721.95 1322.49 3672.75 1356.96 3636.35 1413.14C3633.41 1411.76 3630.12 1411 3626.66 1411C3613.99 1411 3603.72 1421.26 3603.72 1433.93C3603.72 1442.03 3607.92 1449.15 3614.27 1453.23ZM3615.13 1453.76C3589.38 1508.98 3574.08 1577.85 3574.08 1652.56C3574.08 1743.55 3596.77 1825.88 3633.4 1885.43C3670.03 1944.99 3720.52 1981.62 3776.1 1981.62C3831.68 1981.62 3882.17 1944.99 3918.8 1885.43C3955.43 1825.88 3978.12 1743.55 3978.12 1652.56C3978.12 1561.57 3955.43 1479.24 3918.8 1419.69C3882.17 1360.12 3831.68 1323.49 3776.1 1323.49C3722.44 1323.49 3673.54 1357.63 3637.25 1413.58C3644.59 1417.41 3649.59 1425.09 3649.59 1433.93C3649.59 1446.6 3639.33 1456.87 3626.66 1456.87C3622.45 1456.87 3618.51 1455.73 3615.13 1453.76ZM3604.72 1433.93C3604.72 1421.82 3614.54 1412 3626.66 1412C3638.77 1412 3648.59 1421.82 3648.59 1433.93C3648.59 1446.05 3638.77 1455.87 3626.66 1455.87C3614.54 1455.87 3604.72 1446.05 3604.72 1433.93Z" fill="#C3D3FE" fill-opacity="0.6"/>
<path d="M3337.82 1553.01C3337.82 1337.71 3507.67 1163.2 3717.16 1163.2C3926.65 1163.2 4096.5 1337.71 4096.5 1553.01C4096.5 1768.32 3926.65 1942.83 3717.16 1942.83C3507.67 1942.83 3337.82 1768.32 3337.82 1553.01Z" stroke="#C3D3FE" stroke-opacity="0.6"/>
<circle cx="3848.63" cy="1760.26" r="13.9077" transform="rotate(-180 3848.63 1760.26)" stroke="#C3D3FE" stroke-opacity="0.6"/>
<path fill-rule="evenodd" clip-rule="evenodd" d="M3514.41 1313.37C3537.16 1309.7 3560.73 1307.77 3584.87 1307.77C3777.7 1307.77 3933.59 1430.68 3933.59 1581.83C3933.59 1645.51 3905.91 1704.18 3859.46 1750.76C3859.68 1751.01 3859.9 1751.27 3860.1 1751.54C3906.76 1704.79 3934.59 1645.87 3934.59 1581.83C3934.59 1429.92 3778.01 1306.77 3584.87 1306.77C3560.67 1306.77 3537.04 1308.71 3514.23 1312.39C3513.04 1307.13 3508.34 1303.2 3502.73 1303.2C3496.22 1303.2 3490.94 1308.48 3490.94 1314.99C3490.94 1321.5 3496.22 1326.78 3502.73 1326.78C3509.24 1326.78 3514.52 1321.5 3514.52 1314.99C3514.52 1314.44 3514.48 1313.9 3514.41 1313.37ZM3584.87 1855.88C3684.71 1855.88 3774.65 1822.93 3838.17 1770.17C3838.41 1770.42 3838.64 1770.65 3838.89 1770.88C3775.15 1823.84 3684.92 1856.88 3584.87 1856.88C3391.73 1856.88 3235.16 1733.74 3235.16 1581.83C3235.16 1455.5 3343.44 1349.06 3490.98 1316.8C3491.01 1317.13 3491.05 1317.46 3491.1 1317.79C3343.93 1350 3236.16 1456.15 3236.16 1581.83C3236.16 1732.97 3392.05 1855.88 3584.87 1855.88ZM3491.94 1314.99C3491.94 1309.03 3496.77 1304.2 3502.73 1304.2C3508.69 1304.2 3513.52 1309.03 3513.52 1314.99C3513.52 1320.95 3508.69 1325.78 3502.73 1325.78C3496.77 1325.78 3491.94 1320.95 3491.94 1314.99Z" fill="#C3D3FE" fill-opacity="0.6"/>
</g>
<g opacity="0.8">
<circle cx="2036.04" cy="2076" r="4.87714" transform="rotate(-15 2036.04 2076)" fill="#C3D3FE"/>
<circle cx="2036.04" cy="2076" r="3.87714" transform="rotate(-15 2036.04 2076)" stroke="#C3D3FE" stroke-opacity="0.6" stroke-width="2"/>
<circle cx="2116.81" cy="2038.28" r="3.87714" transform="rotate(-15 2116.81 2038.28)" stroke="#C3D3FE" stroke-opacity="0.6" stroke-width="2"/>
<circle cx="1918.58" cy="2040.34" r="1.89016" transform="rotate(-15 1918.58 2040.34)" stroke="#C3D3FE" stroke-opacity="0.6" stroke-width="2"/>
<circle cx="2080.16" cy="2015.93" r="4.87714" transform="rotate(-15 2080.16 2015.93)" fill="#C3D3FE"/>
<circle cx="2080.16" cy="2015.93" r="3.87714" transform="rotate(-15 2080.16 2015.93)" stroke="#C3D3FE" stroke-opacity="0.6" stroke-width="2"/>
<circle cx="1872.33" cy="2023.37" r="4.87714" transform="rotate(-15 1872.33 2023.37)" fill="#C3D3FE"/>
<circle cx="1872.33" cy="2023.37" r="3.87714" transform="rotate(-15 1872.33 2023.37)" stroke="#C3D3FE" stroke-opacity="0.6" stroke-width="2"/>
<circle cx="1994.41" cy="1810.38" r="4.87714" transform="rotate(-15 1994.41 1810.38)" fill="#C3D3FE"/>
<circle cx="1994.41" cy="1810.38" r="3.87714" transform="rotate(-15 1994.41 1810.38)" stroke="#C3D3FE" stroke-opacity="0.6" stroke-width="2"/>
<circle cx="2026.99" cy="1824.47" r="3.07079" transform="rotate(-15 2026.99 1824.47)" fill="#C3D3FE"/>
<circle cx="2026.99" cy="1824.47" r="2.07079" transform="rotate(-15 2026.99 1824.47)" stroke="#C3D3FE" stroke-opacity="0.6" stroke-width="2"/>
<circle cx="2064.68" cy="1749.48" r="4.33523" transform="rotate(-15 2064.68 1749.48)" fill="#C3D3FE"/>
<circle cx="2064.68" cy="1749.48" r="3.33523" transform="rotate(-15 2064.68 1749.48)" stroke="#C3D3FE" stroke-opacity="0.6" stroke-width="2"/>
<circle cx="2173.75" cy="1747.56" r="4.33523" transform="rotate(-15 2173.75 1747.56)" fill="#C3D3FE"/>
<circle cx="2173.75" cy="1747.56" r="3.33523" transform="rotate(-15 2173.75 1747.56)" stroke="#C3D3FE" stroke-opacity="0.6" stroke-width="2"/>
<circle cx="2221.3" cy="1849.64" r="4.33523" transform="rotate(-15 2221.3 1849.64)" fill="#C3D3FE"/>
<circle cx="2221.3" cy="1849.64" r="3.33523" transform="rotate(-15 2221.3 1849.64)" stroke="#C3D3FE" stroke-opacity="0.6" stroke-width="2"/>
<circle cx="2243.57" cy="1756.9" r="4.33523" transform="rotate(-15 2243.57 1756.9)" fill="#C3D3FE"/>
<circle cx="2243.57" cy="1756.9" r="3.33523" transform="rotate(-15 2243.57 1756.9)" stroke="#C3D3FE" stroke-opacity="0.6" stroke-width="2"/>
<circle cx="2162.86" cy="1631.54" r="4.33523" transform="rotate(-15 2162.86 1631.54)" fill="#C3D3FE"/>
<circle cx="2162.86" cy="1631.54" r="3.33523" transform="rotate(-15 2162.86 1631.54)" stroke="#C3D3FE" stroke-opacity="0.6" stroke-width="2"/>
<circle cx="1943.34" cy="1751.7" r="4.33523" transform="rotate(-15 1943.34 1751.7)" fill="#C3D3FE"/>
<circle cx="1943.34" cy="1751.7" r="3.33523" transform="rotate(-15 1943.34 1751.7)" stroke="#C3D3FE" stroke-opacity="0.6" stroke-width="2"/>
<circle cx="1957.67" cy="1728.41" r="3.25143" transform="rotate(-15 1957.67 1728.41)" fill="#C3D3FE"/>
<circle cx="1957.67" cy="1728.41" r="2.25143" transform="rotate(-15 1957.67 1728.41)" stroke="#C3D3FE" stroke-opacity="0.6" stroke-width="2"/>
<circle cx="1882.64" cy="1721.96" r="5.41904" transform="rotate(-15 1882.64 1721.96)" fill="#C3D3FE"/>
<circle cx="1882.64" cy="1721.96" r="4.41904" transform="rotate(-15 1882.64 1721.96)" stroke="#C3D3FE" stroke-opacity="0.6" stroke-width="2"/>
<circle cx="1855.52" cy="1721.93" r="3.43206" transform="rotate(-15 1855.52 1721.93)" fill="#C3D3FE"/>
<circle cx="1855.52" cy="1721.93" r="2.43206" transform="rotate(-15 1855.52 1721.93)" stroke="#C3D3FE" stroke-opacity="0.6" stroke-width="2"/>
<circle cx="1953.18" cy="2055.01" r="3.97396" transform="rotate(-15 1953.18 2055.01)" fill="#C3D3FE"/>
<circle cx="1953.18" cy="2055.01" r="2.97396" transform="rotate(-15 1953.18 2055.01)" stroke="#C3D3FE" stroke-opacity="0.6" stroke-width="2"/>
<path d="M1855.52 1721.93L1881.51 1722.64L1942.69 1752.06L1957.2 1728.72L1987.03 1720.73M1987.03 1720.73L1994.76 1810.29M1987.03 1720.73L2065.2 1749.34M1994.76 1810.29L2027.15 1823.68L2065.2 1749.34M1994.76 1810.29L1865.39 1848.13L1872.15 2023.42L1916.59 2039.19M2065.2 1749.34L2129.98 1716.83M2129.98 1716.83L2164.08 1631.21M2129.98 1716.83L2173.31 1747.3M2173.31 1747.3L2242.72 1755.82L2301.97 1685.9L2173.31 1747.3ZM2173.31 1747.3L2191.63 1836.64L2225.77 1849.56M1954.28 2055.64L2035.99 2075.83M2035.99 2075.83L2081.96 2016.38M2035.99 2075.83L2113.27 2041.09" stroke="#C3D3FE" stroke-opacity="0.6" stroke-width="2"/>
<path d="M1986.66 1710.17L1988.51 1717.01L1994.26 1712.86L1990.72 1719.01L1997.72 1720.14L1990.88 1721.98L1995.03 1727.73L1988.88 1724.2L1987.75 1731.2L1985.9 1724.35L1980.16 1728.5L1983.69 1722.36L1976.69 1721.22L1983.54 1719.38L1979.39 1713.63L1985.53 1717.16L1986.66 1710.17Z" fill="#C3D3FE"/>
<path d="M1988.8 1717.42L1992.67 1714.63L1990.29 1718.76L1989.93 1719.39L1990.65 1719.5L1995.35 1720.26L1990.75 1721.5L1990.05 1721.69L1990.47 1722.28L1993.26 1726.14L1989.13 1723.77L1988.5 1723.4L1988.39 1724.12L1987.63 1728.82L1986.39 1724.22L1986.2 1723.52L1985.61 1723.95L1981.75 1726.73L1984.12 1722.61L1984.48 1721.98L1983.77 1721.86L1979.07 1721.1L1983.67 1719.86L1984.37 1719.67L1983.94 1719.09L1981.15 1715.22L1985.28 1717.6L1985.91 1717.96L1986.03 1717.24L1986.79 1712.54L1988.03 1717.14L1988.22 1717.84L1988.8 1717.42Z" stroke="#C3D3FE" stroke-opacity="0.6"/>
<path d="M1864.71 1837.1L1866.56 1843.94L1872.3 1839.79L1868.77 1845.94L1875.77 1847.07L1868.92 1848.91L1873.07 1854.66L1866.93 1851.13L1865.8 1858.12L1863.95 1851.28L1858.2 1855.43L1861.74 1849.28L1854.74 1848.15L1861.58 1846.31L1857.43 1840.56L1863.58 1844.09L1864.71 1837.1Z" fill="#C3D3FE"/>
<path d="M1866.85 1844.35L1870.71 1841.56L1868.34 1845.69L1867.98 1846.31L1868.69 1846.43L1873.39 1847.19L1868.79 1848.43L1868.09 1848.62L1868.52 1849.21L1871.31 1853.07L1867.18 1850.69L1866.55 1850.33L1866.43 1851.05L1865.67 1855.75L1864.43 1851.15L1864.24 1850.45L1863.66 1850.88L1859.79 1853.66L1862.17 1849.53L1862.53 1848.91L1861.82 1848.79L1857.11 1848.03L1861.71 1846.79L1862.41 1846.6L1861.99 1846.01L1859.2 1842.15L1863.33 1844.53L1863.96 1844.89L1864.07 1844.17L1864.83 1839.47L1866.07 1844.07L1866.26 1844.77L1866.85 1844.35Z" stroke="#C3D3FE" stroke-opacity="0.6"/>
<path d="M2129.66 1708.51L2131.05 1713.67L2135.38 1710.54L2132.72 1715.18L2138 1716.03L2132.83 1717.42L2135.96 1721.76L2131.33 1719.09L2130.48 1724.37L2129.08 1719.21L2124.75 1722.34L2127.41 1717.7L2122.13 1716.85L2127.3 1715.46L2124.17 1711.12L2128.8 1713.79L2129.66 1708.51Z" fill="#C3D3FE"/>
<path d="M2131.34 1714.07L2133.79 1712.31L2132.29 1714.93L2131.92 1715.55L2132.64 1715.67L2135.62 1716.15L2132.7 1716.94L2132.01 1717.13L2132.43 1717.71L2134.2 1720.17L2131.58 1718.66L2130.95 1718.3L2130.84 1719.01L2130.35 1722L2129.57 1719.08L2129.38 1718.38L2128.79 1718.8L2126.34 1720.57L2127.85 1717.95L2128.21 1717.32L2127.49 1717.21L2124.51 1716.73L2127.43 1715.94L2128.13 1715.75L2127.7 1715.16L2125.93 1712.71L2128.55 1714.22L2129.18 1714.58L2129.3 1713.87L2129.78 1710.88L2130.57 1713.8L2130.75 1714.5L2131.34 1714.07Z" stroke="#C3D3FE" stroke-opacity="0.6"/>
<path d="M2298.64 1678.94L2300.03 1684.1L2304.37 1680.97L2301.7 1685.6L2306.98 1686.46L2301.82 1687.85L2304.95 1692.19L2300.31 1689.52L2299.46 1694.8L2298.07 1689.64L2293.73 1692.77L2296.4 1688.13L2291.12 1687.28L2296.28 1685.88L2293.15 1681.55L2297.79 1684.21L2298.64 1678.94Z" fill="#C3D3FE"/>
<path d="M2300.33 1684.5L2302.78 1682.74L2301.27 1685.36L2300.91 1685.98L2301.62 1686.1L2304.61 1686.58L2301.69 1687.37L2300.99 1687.56L2301.41 1688.14L2303.18 1690.59L2300.56 1689.09L2299.94 1688.73L2299.82 1689.44L2299.34 1692.43L2298.55 1689.51L2298.36 1688.81L2297.77 1689.23L2295.32 1691L2296.83 1688.38L2297.19 1687.75L2296.48 1687.64L2293.49 1687.15L2296.41 1686.37L2297.11 1686.18L2296.69 1685.59L2294.92 1683.14L2297.54 1684.65L2298.17 1685.01L2298.28 1684.29L2298.76 1681.31L2299.55 1684.23L2299.74 1684.93L2300.33 1684.5Z" stroke="#C3D3FE" stroke-opacity="0.6"/>
<path d="M2190.96 1826.35L2192.81 1833.19L2198.56 1829.05L2195.02 1835.19L2202.02 1836.32L2195.18 1838.17L2199.32 1843.92L2193.18 1840.38L2192.05 1847.38L2190.2 1840.54L2184.45 1844.68L2187.99 1838.54L2180.99 1837.41L2187.83 1835.56L2183.69 1829.81L2189.83 1833.35L2190.96 1826.35Z" fill="#C3D3FE"/>
<path d="M2193.1 1833.6L2196.96 1830.81L2194.59 1834.94L2194.23 1835.57L2194.94 1835.68L2199.64 1836.44L2195.05 1837.69L2194.35 1837.87L2194.77 1838.46L2197.56 1842.32L2193.43 1839.95L2192.8 1839.59L2192.69 1840.3L2191.93 1845L2190.68 1840.41L2190.5 1839.71L2189.91 1840.13L2186.05 1842.92L2188.42 1838.79L2188.78 1838.16L2188.07 1838.05L2183.36 1837.29L2187.96 1836.04L2188.66 1835.86L2188.24 1835.27L2185.45 1831.41L2189.58 1833.78L2190.21 1834.14L2190.32 1833.43L2191.08 1828.72L2192.33 1833.32L2192.51 1834.02L2193.1 1833.6Z" stroke="#C3D3FE" stroke-opacity="0.6"/>
</g>
<g filter="url(#filter1_f_219_6)">
<circle cx="1763" cy="681" r="168" fill="#8E8FFA"/>
</g>
<g filter="url(#filter2_f_219_6)">
<circle cx="3859" cy="2294" r="272" fill="#8E8FFA"/>
</g>
<g opacity="0.8">
<circle cx="3615" cy="3077" r="17" fill="#C3D3FE" fill-opacity="0.6"/>
<circle cx="3557.5" cy="3076.5" r="8.5" fill="#C3D3FE" fill-opacity="0.6"/>
<circle cx="3672.5" cy="3076.5" r="8.5" fill="#C3D3FE" fill-opacity="0.6"/>
<circle cx="3698.5" cy="3076.5" r="5.5" fill="#C3D3FE" fill-opacity="0.6"/>
<circle cx="3807.5" cy="3143.36" r="5.5" fill="#C3D3FE" fill-opacity="0.6"/>
<circle cx="3831.5" cy="2977.36" r="5.5" fill="#C3D3FE" fill-opacity="0.6"/>
<circle cx="3531.5" cy="3076.5" r="5.5" fill="#C3D3FE" fill-opacity="0.6"/>
<circle cx="3615" cy="3077" r="35.5" stroke="#C3D3FE" stroke-opacity="0.6" stroke-width="3"/>
<path d="M3705.17 3105.44C3692.56 3144.79 3671.09 3177.15 3646.58 3197.69C3622.06 3218.23 3594.58 3226.88 3569.9 3218.98C3545.23 3211.07 3527.9 3188.05 3519.89 3157.09C3511.88 3126.13 3513.22 3087.31 3525.83 3047.96C3538.43 3008.62 3559.91 2976.25 3584.42 2955.72C3608.94 2935.18 3636.42 2926.52 3661.1 2934.43C3685.77 2942.34 3703.1 2965.36 3711.11 2996.32C3719.12 3027.28 3717.78 3066.1 3705.17 3105.44Z" stroke="#C3D3FE" stroke-opacity="0.6"/>
<path d="M3661.89 3158.06C3603.26 3191.92 3544.9 3213.38 3497.96 3220.73C3474.49 3224.41 3453.9 3224.55 3437.56 3220.97C3421.23 3217.38 3409.21 3210.09 3402.77 3198.93C3396.33 3187.78 3396.02 3173.72 3401.08 3157.78C3406.15 3141.85 3416.57 3124.09 3431.49 3105.6C3461.32 3068.62 3509.09 3028.81 3567.72 2994.96C3626.36 2961.11 3684.71 2939.65 3731.65 2932.29C3755.13 2928.62 3775.72 2928.48 3792.05 2932.06C3808.38 2935.64 3820.4 2942.94 3826.85 2954.09C3833.29 2965.25 3833.59 2979.31 3828.53 2995.24C3823.47 3011.18 3813.05 3028.94 3798.13 3047.43C3768.29 3084.41 3720.52 3124.21 3661.89 3158.06Z" stroke="#C3D3FE" stroke-opacity="0.6"/>
<path d="M3606.34 3148.62C3539.13 3140.35 3479.27 3124.95 3436.84 3106.77C3415.62 3097.67 3398.78 3087.89 3387.55 3077.98C3376.31 3068.04 3370.8 3058.06 3371.97 3048.56C3373.14 3039.05 3380.91 3030.71 3394.22 3023.8C3407.52 3016.9 3426.23 3011.5 3449.02 3007.82C3494.6 3000.47 3556.4 3000.06 3623.61 3008.34C3690.82 3016.61 3750.67 3032 3793.11 3050.19C3814.33 3059.28 3831.17 3069.06 3842.39 3078.98C3853.63 3088.91 3859.15 3098.89 3857.98 3108.4C3856.81 3117.9 3849.04 3126.25 3835.72 3133.16C3822.43 3140.05 3803.72 3145.46 3780.92 3149.13C3735.34 3156.48 3673.54 3156.9 3606.34 3148.62Z" stroke="#C3D3FE" stroke-opacity="0.6"/>
<path fill-rule="evenodd" clip-rule="evenodd" d="M3627.56 3161.9L3627.47 3161.41L3627.39 3160.92C3628.51 3160.72 3629.64 3160.51 3630.77 3160.3C3631.9 3160.1 3633.03 3159.89 3634.15 3159.68L3634.25 3160.17L3634.34 3160.66C3633.21 3160.87 3632.08 3161.08 3630.95 3161.29C3629.82 3161.5 3628.69 3161.7 3627.56 3161.9ZM3641.07 3159.37L3640.97 3158.88L3640.88 3158.38C3643.13 3157.94 3645.37 3157.49 3647.6 3157.03L3647.7 3157.52L3647.8 3158.01C3645.57 3158.47 3643.33 3158.92 3641.07 3159.37ZM3654.5 3156.59L3654.39 3156.1L3654.29 3155.61C3656.53 3155.12 3658.77 3154.63 3660.99 3154.12L3661.1 3154.61L3661.21 3155.1C3658.99 3155.6 3656.75 3156.1 3654.5 3156.59ZM3667.87 3153.55L3667.76 3153.06L3667.64 3152.58C3669.88 3152.05 3672.11 3151.51 3674.32 3150.96L3674.44 3151.45L3674.56 3151.93C3672.34 3152.48 3670.12 3153.02 3667.87 3153.55ZM3681.2 3150.25L3681.08 3149.77L3680.95 3149.28C3683.18 3148.71 3685.39 3148.13 3687.58 3147.54L3687.71 3148.02L3687.84 3148.5C3685.64 3149.09 3683.43 3149.68 3681.2 3150.25ZM3694.46 3146.69L3694.32 3146.2L3694.19 3145.72C3696.4 3145.1 3698.59 3144.48 3700.76 3143.84L3700.9 3144.32L3701.04 3144.8C3698.86 3145.44 3696.67 3146.07 3694.46 3146.69ZM3707.63 3142.84L3707.49 3142.37L3707.34 3141.89C3709.54 3141.22 3711.71 3140.55 3713.87 3139.87L3714.02 3140.35L3714.17 3140.82C3712.01 3141.5 3709.83 3142.18 3707.63 3142.84ZM3720.71 3138.72L3720.56 3138.24L3720.4 3137.77C3722.59 3137.05 3724.75 3136.33 3726.9 3135.59L3727.06 3136.07L3727.22 3136.54C3725.07 3137.27 3722.9 3138 3720.71 3138.72ZM3733.68 3134.29L3733.51 3133.82L3733.35 3133.35C3735.52 3132.58 3737.67 3131.8 3739.81 3131.01L3739.98 3131.48L3740.15 3131.95C3738.02 3132.74 3735.86 3133.52 3733.68 3134.29ZM3746.56 3129.53L3746.38 3129.07L3746.21 3128.6C3748.35 3127.78 3750.47 3126.94 3752.57 3126.1L3752.76 3126.57L3752.94 3127.03C3750.84 3127.87 3748.71 3128.71 3746.56 3129.53ZM3759.31 3124.43L3759.12 3123.97L3758.93 3123.51C3761.05 3122.62 3763.15 3121.73 3765.21 3120.83L3765.41 3121.29L3765.61 3121.75C3763.54 3122.65 3761.44 3123.54 3759.31 3124.43ZM3771.87 3118.97L3771.66 3118.51L3771.46 3118.06C3773.56 3117.1 3775.64 3116.14 3777.68 3115.17L3777.9 3115.62L3778.11 3116.07C3776.06 3117.04 3773.98 3118.01 3771.87 3118.97ZM3784.28 3113.07C3786.35 3112.04 3788.38 3111.01 3790.37 3109.97L3790.14 3109.53L3789.91 3109.08C3787.92 3110.12 3785.9 3111.15 3783.84 3112.18L3784.06 3112.62L3784.28 3113.07ZM3796.43 3106.73L3796.19 3106.29L3795.95 3105.85C3797.98 3104.73 3799.97 3103.61 3801.91 3102.48L3802.17 3102.91L3802.42 3103.35C3800.46 3104.48 3798.47 3105.61 3796.43 3106.73ZM3808.31 3099.83C3810.29 3098.61 3812.22 3097.39 3814.1 3096.16L3813.82 3095.74L3813.55 3095.32C3811.68 3096.54 3809.76 3097.76 3807.79 3098.98L3808.05 3099.4L3808.31 3099.83ZM3819.77 3092.32L3819.48 3091.91L3819.19 3091.5C3821.09 3090.17 3822.93 3088.83 3824.7 3087.49L3825 3087.89L3825.3 3088.29C3823.52 3089.64 3821.68 3090.98 3819.77 3092.32ZM3830.68 3084.05L3830.36 3083.66L3830.05 3083.28C3831.85 3081.79 3833.56 3080.31 3835.2 3078.82L3835.53 3079.19L3835.87 3079.56C3834.22 3081.06 3832.49 3082.55 3830.68 3084.05ZM3840.82 3074.79L3840.46 3074.44L3840.1 3074.09C3841.74 3072.42 3843.27 3070.74 3844.68 3069.07L3845.06 3069.39L3845.45 3069.71C3844.01 3071.41 3842.47 3073.1 3840.82 3074.79ZM3849.65 3064.28L3849.24 3063.99L3848.83 3063.7C3850.18 3061.79 3851.36 3059.88 3852.39 3057.99L3852.83 3058.23L3853.27 3058.47C3852.22 3060.4 3851.01 3062.34 3849.65 3064.28ZM3856.11 3052.25L3855.64 3052.07L3855.17 3051.9C3855.96 3049.73 3856.54 3047.58 3856.89 3045.45L3857.38 3045.54L3857.87 3045.62C3857.51 3047.81 3856.92 3050.02 3856.11 3052.25ZM3858.24 3038.79L3857.74 3038.82L3857.24 3038.85C3857.17 3037.75 3857.04 3036.66 3856.84 3035.57C3856.64 3034.48 3856.38 3033.41 3856.05 3032.35L3856.53 3032.2L3857 3032.06C3857.34 3033.15 3857.62 3034.26 3857.82 3035.39C3858.03 3036.52 3858.17 3037.65 3858.24 3038.79ZM3854.25 3025.8L3853.82 3026.05L3853.38 3026.3C3852.31 3024.44 3851.01 3022.63 3849.5 3020.88L3849.88 3020.55L3850.25 3020.23C3851.8 3022.02 3853.14 3023.88 3854.25 3025.8ZM3845.4 3015.41L3845.07 3015.79L3844.75 3016.17C3843.11 3014.76 3841.33 3013.4 3839.39 3012.08L3839.68 3011.67L3839.96 3011.25C3841.92 3012.59 3843.74 3013.97 3845.4 3015.41ZM3834.1 3007.66L3833.86 3008.1L3833.62 3008.54C3831.7 3007.47 3829.68 3006.44 3827.55 3005.45L3827.76 3005L3827.97 3004.55C3830.12 3005.55 3832.16 3006.58 3834.1 3007.66ZM3821.66 3001.84L3821.48 3002.3L3821.29 3002.77C3819.24 3001.96 3817.11 3001.17 3814.9 3000.42L3815.06 2999.95L3815.22 2999.48C3817.44 3000.23 3819.59 3001.02 3821.66 3001.84ZM3808.69 2997.41L3808.55 2997.89L3808.41 2998.37C3806.28 2997.74 3804.09 2997.14 3801.84 2996.57L3801.96 2996.09L3802.09 2995.6C3804.34 2996.18 3806.55 2996.78 3808.69 2997.41ZM3795.42 2994.02L3795.32 2994.51L3795.21 2994.99C3793.03 2994.51 3790.8 2994.05 3788.52 2993.62L3788.62 2993.12L3788.71 2992.63C3791 2993.07 3793.23 2993.53 3795.42 2994.02ZM3781.96 2991.43L3781.87 2991.92L3781.79 2992.41C3779.57 2992.05 3777.31 2991.7 3775.02 2991.37L3775.09 2990.88L3775.16 2990.38C3777.46 2990.71 3779.73 2991.06 3781.96 2991.43ZM3768.35 2989.49L3768.29 2989.99L3768.23 2990.49C3766 2990.22 3763.74 2989.97 3761.45 2989.74L3761.5 2989.24L3761.55 2988.75C3763.85 2988.98 3766.12 2989.23 3768.35 2989.49ZM3754.72 2988.13L3754.68 2988.62L3754.64 2989.12C3752.39 2988.94 3750.1 2988.77 3747.79 2988.62L3747.82 2988.12L3747.86 2987.62C3750.17 2987.77 3752.46 2987.94 3754.72 2988.13ZM3741.02 2987.24L3741 2987.74L3740.97 2988.24C3738.72 2988.13 3736.44 2988.03 3734.14 2987.96L3734.16 2987.46L3734.18 2986.96C3736.48 2987.03 3738.76 2987.13 3741.02 2987.24ZM3727.3 2986.78L3727.29 2987.28L3727.28 2987.78C3725.02 2987.73 3722.74 2987.71 3720.44 2987.7L3720.45 2987.2L3720.45 2986.7C3722.75 2986.71 3725.04 2986.73 3727.3 2986.78ZM3713.6 2986.71L3713.6 2987.21L3713.61 2987.71C3711.33 2987.72 3709.04 2987.76 3706.74 2987.8L3706.73 2987.3L3706.72 2986.8C3709.03 2986.76 3711.32 2986.72 3713.6 2986.71ZM3699.88 2986.99L3699.9 2987.49L3699.91 2987.99C3697.65 2988.06 3695.36 2988.15 3693.07 2988.25L3693.05 2987.75L3693.02 2987.25C3695.32 2987.15 3697.61 2987.06 3699.88 2986.99ZM3686.16 2987.6L3686.18 2988.1L3686.21 2988.6C3683.95 2988.72 3681.68 2988.86 3679.4 2989.02L3679.36 2988.52L3679.33 2988.02C3681.62 2987.87 3683.89 2987.73 3686.16 2987.6ZM3672.47 2988.52L3672.51 2989.02L3672.55 2989.52C3670.29 2989.69 3668.02 2989.88 3665.74 2990.08L3665.69 2989.59L3665.65 2989.09C3667.93 2988.89 3670.21 2988.7 3672.47 2988.52ZM3658.81 2989.73L3658.86 2990.23L3658.91 2990.73C3656.65 2990.95 3654.38 2991.19 3652.09 2991.44L3652.04 2990.94L3651.99 2990.44C3654.27 2990.19 3656.55 2989.96 3658.81 2989.73ZM3645.18 2991.22L3645.24 2991.72L3645.3 2992.22C3643.04 2992.49 3640.76 2992.77 3638.48 2993.07L3638.42 2992.57L3638.35 2992.07C3640.64 2991.78 3642.91 2991.49 3645.18 2991.22ZM3631.57 2992.99L3631.64 2993.48L3631.71 2993.98C3629.46 2994.29 3627.19 2994.62 3624.92 2994.96L3624.84 2994.46L3624.77 2993.97C3627.05 2993.63 3629.31 2993.3 3631.57 2992.99ZM3618 2995.01L3618.08 2995.5L3618.16 2996C3615.91 2996.35 3613.65 2996.72 3611.39 2997.1L3611.31 2996.61L3611.23 2996.12C3613.49 2995.74 3615.75 2995.37 3618 2995.01ZM3604.47 2997.29C3603.34 2997.49 3602.21 2997.69 3601.08 2997.9C3599.95 2998.11 3598.82 2998.32 3597.69 2998.53L3597.79 2999.02L3597.88 2999.51C3599 2999.3 3600.13 2999.09 3601.26 2998.88C3602.39 2998.68 3603.52 2998.47 3604.65 2998.27L3604.56 2997.78L3604.47 2997.29ZM3590.96 2999.82L3591.06 3000.31L3591.15 3000.8C3588.9 3001.25 3586.66 3001.7 3584.43 3002.16L3584.33 3001.67L3584.23 3001.18C3586.46 3000.72 3588.71 3000.27 3590.96 2999.82ZM3577.53 3002.6L3577.64 3003.09L3577.74 3003.58C3575.5 3004.07 3573.26 3004.56 3571.04 3005.07L3570.93 3004.58L3570.82 3004.09C3573.05 3003.59 3575.28 3003.09 3577.53 3002.6ZM3564.16 3005.64L3564.27 3006.12L3564.39 3006.61C3562.15 3007.14 3559.92 3007.68 3557.71 3008.23L3557.59 3007.74L3557.47 3007.26C3559.69 3006.71 3561.92 3006.17 3564.16 3005.64ZM3550.83 3008.94L3550.96 3009.42L3551.08 3009.91C3548.86 3010.48 3546.65 3011.06 3544.45 3011.65L3544.32 3011.17L3544.19 3010.69C3546.39 3010.09 3548.6 3009.51 3550.83 3008.94ZM3537.57 3012.5L3537.71 3012.98L3537.84 3013.47C3535.64 3014.08 3533.45 3014.71 3531.27 3015.34L3531.13 3014.86L3530.99 3014.38C3533.17 3013.75 3535.36 3013.12 3537.57 3012.5ZM3524.4 3016.34L3524.54 3016.82L3524.69 3017.3C3522.5 3017.97 3520.32 3018.64 3518.16 3019.32L3518.01 3018.84L3517.86 3018.37C3520.02 3017.68 3522.2 3017.01 3524.4 3016.34ZM3511.32 3020.47L3511.47 3020.95L3511.63 3021.42C3509.45 3022.14 3507.28 3022.86 3505.14 3023.6L3504.97 3023.12L3504.81 3022.65C3506.96 3021.92 3509.13 3021.19 3511.32 3020.47ZM3498.35 3024.9C3496.17 3025.67 3494.02 3026.45 3491.88 3027.24L3492.05 3027.71L3492.23 3028.18C3494.36 3027.39 3496.51 3026.61 3498.69 3025.84L3498.52 3025.37L3498.35 3024.9ZM3485.47 3029.65L3485.65 3030.12L3485.83 3030.59C3483.8 3031.37 3481.8 3032.15 3479.81 3032.94C3479.73 3032.62 3479.61 3032.3 3479.47 3032C3481.45 3031.21 3483.45 3030.43 3485.47 3029.65ZM3469.3 3037.29C3468.47 3037.64 3467.64 3038 3466.82 3038.36L3466.62 3037.9L3466.42 3037.44C3467.29 3037.06 3468.17 3036.68 3469.06 3036.3C3469.02 3036.04 3469 3035.77 3469 3035.5C3469 3032.46 3471.46 3030 3474.5 3030C3477.54 3030 3480 3032.46 3480 3035.5C3480 3038.54 3477.54 3041 3474.5 3041C3472.09 3041 3470.04 3039.45 3469.3 3037.29ZM3460.16 3040.22L3460.37 3040.68L3460.58 3041.13C3458.47 3042.09 3456.39 3043.05 3454.35 3044.02L3454.13 3043.57L3453.92 3043.12C3455.97 3042.15 3458.05 3041.18 3460.16 3040.22ZM3447.75 3046.12L3447.97 3046.56L3448.2 3047.01C3446.13 3048.04 3444.11 3049.07 3442.12 3050.11L3441.89 3049.66L3441.66 3049.22C3443.65 3048.18 3445.68 3047.14 3447.75 3046.12ZM3435.61 3052.46L3435.85 3052.9L3436.09 3053.34C3434.05 3054.46 3432.06 3055.58 3430.12 3056.71L3429.87 3056.28L3429.62 3055.84C3431.57 3054.71 3433.57 3053.58 3435.61 3052.46ZM3423.72 3059.36L3423.98 3059.79L3424.25 3060.21C3422.27 3061.43 3420.35 3062.64 3418.48 3063.87L3418.21 3063.45L3417.94 3063.03C3419.81 3061.8 3421.74 3060.58 3423.72 3059.36ZM3412.27 3066.87L3412.55 3067.28L3412.84 3067.69C3410.94 3069.02 3409.1 3070.36 3407.33 3071.7L3407.03 3071.3L3406.73 3070.9C3408.51 3069.55 3410.36 3068.21 3412.27 3066.87ZM3401.35 3075.14L3401.67 3075.53L3401.99 3075.91C3400.19 3077.4 3398.47 3078.88 3396.84 3080.37L3396.5 3080L3396.16 3079.63C3397.81 3078.13 3399.54 3076.63 3401.35 3075.14ZM3391.22 3084.4L3391.57 3084.74L3391.93 3085.09C3390.29 3086.77 3388.76 3088.45 3387.35 3090.12L3386.97 3089.8L3386.59 3089.48C3388.02 3087.78 3389.56 3086.09 3391.22 3084.4ZM3382.38 3094.91L3382.79 3095.2L3383.2 3095.48C3381.86 3097.4 3380.67 3099.3 3379.64 3101.2L3379.2 3100.96L3378.76 3100.72C3379.81 3098.79 3381.02 3096.85 3382.38 3094.91ZM3375.93 3106.94L3376.39 3107.12L3376.86 3107.29C3376.07 3109.46 3375.5 3111.61 3375.15 3113.73L3374.65 3113.65L3374.16 3113.57C3374.52 3111.38 3375.11 3109.17 3375.93 3106.94ZM3373.8 3120.4L3374.3 3120.37L3374.8 3120.34C3374.86 3121.44 3375 3122.53 3375.19 3123.62C3375.39 3124.71 3375.66 3125.78 3375.98 3126.84L3375.51 3126.99L3375.03 3127.13C3374.69 3126.04 3374.42 3124.93 3374.21 3123.8C3374 3122.67 3373.87 3121.54 3373.8 3120.4ZM3377.78 3133.39L3378.22 3133.14L3378.65 3132.89C3379.73 3134.75 3381.03 3136.56 3382.54 3138.31L3382.16 3138.64L3381.78 3138.96C3380.23 3137.17 3378.9 3135.31 3377.78 3133.39ZM3386.63 3143.78L3386.96 3143.4L3387.28 3143.02C3388.92 3144.43 3390.7 3145.79 3392.64 3147.11L3392.36 3147.52L3392.08 3147.93C3390.11 3146.6 3388.3 3145.21 3386.63 3143.78ZM3397.93 3151.53L3398.17 3151.09L3398.42 3150.65C3400.33 3151.72 3402.35 3152.75 3404.48 3153.74L3404.27 3154.19L3404.06 3154.64C3401.91 3153.64 3399.87 3152.6 3397.93 3151.53ZM3410.37 3157.35L3410.56 3156.88L3410.74 3156.42C3412.79 3157.23 3414.93 3158.01 3417.13 3158.76L3416.97 3159.24L3416.81 3159.71C3414.59 3158.96 3412.44 3158.17 3410.37 3157.35ZM3423.34 3161.78L3423.48 3161.3L3423.63 3160.82C3425.76 3161.44 3427.95 3162.04 3430.19 3162.62L3430.07 3163.1L3429.95 3163.59C3427.69 3163.01 3425.49 3162.41 3423.34 3161.78ZM3436.61 3165.17L3436.72 3164.68L3436.82 3164.19C3439.01 3164.68 3441.23 3165.14 3443.51 3165.57L3443.41 3166.06L3443.32 3166.56C3441.04 3166.12 3438.8 3165.66 3436.61 3165.17ZM3450.08 3167.76L3450.16 3167.27L3450.24 3166.77C3452.46 3167.14 3454.72 3167.49 3457.02 3167.81L3456.95 3168.31L3456.88 3168.8C3454.57 3168.48 3452.3 3168.13 3450.08 3167.76ZM3463.68 3169.69L3463.74 3169.2L3463.8 3168.7C3466.03 3168.97 3468.29 3169.22 3470.58 3169.45L3470.53 3169.94L3470.48 3170.44C3468.18 3170.21 3465.92 3169.96 3463.68 3169.69ZM3477.31 3171.06L3477.35 3170.57L3477.39 3170.07C3479.65 3170.25 3481.93 3170.42 3484.24 3170.57L3484.21 3171.07L3484.18 3171.57C3481.86 3171.42 3479.57 3171.25 3477.31 3171.06ZM3491.01 3171.95L3491.04 3171.45L3491.06 3170.95C3493.31 3171.06 3495.59 3171.16 3497.89 3171.23L3497.87 3171.73L3497.85 3172.23C3495.55 3172.16 3493.27 3172.06 3491.01 3171.95ZM3504.73 3172.41L3504.74 3171.91L3504.75 3171.41C3507.01 3171.45 3509.29 3171.48 3511.59 3171.49L3511.59 3171.99L3511.58 3172.49C3509.28 3172.48 3507 3172.45 3504.73 3172.41ZM3518.43 3172.48L3518.43 3171.98L3518.42 3171.48C3520.7 3171.47 3522.99 3171.43 3525.3 3171.39L3525.31 3171.88L3525.32 3172.38C3523 3172.43 3520.71 3172.47 3518.43 3172.48ZM3532.15 3172.2L3532.14 3171.7L3532.12 3171.2C3534.39 3171.13 3536.67 3171.04 3538.97 3170.94L3538.99 3171.44L3539.01 3171.94C3536.71 3172.04 3534.42 3172.13 3532.15 3172.2ZM3545.88 3171.59L3545.85 3171.09L3545.82 3170.59C3546.88 3170.53 3547.94 3170.47 3549 3170.4C3549.05 3167.41 3551.49 3165 3554.5 3165C3557.24 3165 3559.52 3167.01 3559.93 3169.64C3562.04 3169.47 3564.17 3169.29 3566.3 3169.1L3566.34 3169.6L3566.39 3170.1C3564.25 3170.29 3562.12 3170.47 3560 3170.64C3559.92 3173.61 3557.49 3176 3554.5 3176C3551.77 3176 3549.5 3174.01 3549.07 3171.4C3548 3171.47 3546.94 3171.53 3545.88 3171.59ZM3573.22 3169.46C3575.48 3169.23 3577.76 3169 3580.05 3168.75L3579.99 3168.25L3579.94 3167.75C3577.66 3168 3575.38 3168.24 3573.12 3168.46L3573.17 3168.96L3573.22 3169.46ZM3586.85 3167.97L3586.79 3167.47L3586.73 3166.97C3589 3166.7 3591.27 3166.42 3593.55 3166.12L3593.62 3166.62L3593.68 3167.12C3591.4 3167.41 3589.12 3167.69 3586.85 3167.97ZM3600.46 3166.2L3600.39 3165.71L3600.32 3165.21C3602.58 3164.9 3604.84 3164.57 3607.11 3164.23L3607.19 3164.73L3607.26 3165.22C3604.99 3165.56 3602.72 3165.89 3600.46 3166.2ZM3614.03 3164.18L3613.95 3163.69L3613.87 3163.19C3616.12 3162.83 3618.38 3162.47 3620.64 3162.08L3620.72 3162.58L3620.81 3163.07C3618.54 3163.45 3616.28 3163.82 3614.03 3164.18ZM3554.5 3175C3556.98 3175 3559 3172.99 3559 3170.5C3559 3168.01 3556.98 3166 3554.5 3166C3552.01 3166 3550 3168.01 3550 3170.5C3550 3172.99 3552.01 3175 3554.5 3175ZM3479 3035.5C3479 3037.99 3476.98 3040 3474.5 3040C3472.01 3040 3470 3037.99 3470 3035.5C3470 3033.01 3472.01 3031 3474.5 3031C3476.98 3031 3479 3033.01 3479 3035.5Z" fill="#C3D3FE" fill-opacity="0.6"/>
<path fill-rule="evenodd" clip-rule="evenodd" d="M3720.92 2914.3C3720.97 2913.99 3721 2913.68 3721 2913.36C3721 2913.33 3721 2913.3 3721 2913.28C3722.22 2913.64 3723.41 2914.05 3724.57 2914.51L3724.39 2914.98L3724.2 2915.44C3723.14 2915.02 3722.04 2914.64 3720.92 2914.3ZM3710.35 2911.42C3708.45 2911.29 3706.51 2911.26 3704.51 2911.32L3704.53 2911.82L3704.54 2912.32C3706.43 2912.27 3708.28 2912.29 3710.08 2912.41C3710.14 2912.07 3710.23 2911.74 3710.35 2911.42ZM3681 3132.03L3681.4 3132.33C3682.09 3131.42 3682.78 3130.51 3683.46 3129.6C3684.15 3128.68 3684.83 3127.76 3685.5 3126.85L3685.1 3126.55L3684.7 3126.25C3684.02 3127.17 3683.34 3128.08 3682.66 3129C3681.98 3129.91 3681.29 3130.82 3680.6 3131.72L3681 3132.03ZM3693.44 3115.75C3692.15 3117.61 3690.83 3119.48 3689.5 3121.34L3689.1 3121.05L3688.69 3120.76C3690.02 3118.9 3691.33 3117.04 3692.62 3115.18L3693.03 3115.46L3693.44 3115.75ZM3696.86 3109.83L3697.28 3110.11C3698.55 3108.22 3699.8 3106.32 3701.03 3104.43L3700.61 3104.16L3700.19 3103.88C3698.96 3105.77 3697.72 3107.66 3696.45 3109.55L3696.86 3109.83ZM3704.28 3098.4L3704.7 3098.67C3705.92 3096.73 3707.11 3094.79 3708.28 3092.86L3707.85 3092.6L3707.43 3092.34C3706.26 3094.27 3705.07 3096.2 3703.85 3098.14L3704.28 3098.4ZM3711.33 3086.75L3711.76 3087C3712.91 3085.02 3714.04 3083.05 3715.15 3081.08L3714.71 3080.84L3714.28 3080.59C3713.17 3082.56 3712.05 3084.52 3710.9 3086.49L3711.33 3086.75ZM3718 3074.86L3718.44 3075.09C3719.53 3073.08 3720.59 3071.07 3721.63 3069.06L3721.18 3068.83L3720.74 3068.6C3719.7 3070.6 3718.65 3072.61 3717.56 3074.62L3718 3074.86ZM3724.25 3062.76L3724.7 3062.98C3725.71 3060.93 3726.7 3058.88 3727.66 3056.84L3727.21 3056.63L3726.76 3056.41C3725.8 3058.45 3724.81 3060.49 3723.8 3062.54L3724.25 3062.76ZM3730.06 3050.43L3730.52 3050.63C3731.45 3048.54 3732.36 3046.45 3733.24 3044.37L3732.78 3044.18L3732.32 3043.98C3731.44 3046.05 3730.54 3048.13 3729.6 3050.22L3730.06 3050.43ZM3735.36 3037.88L3735.83 3038.07C3736.68 3035.94 3737.49 3033.82 3738.28 3031.72L3737.81 3031.54L3737.34 3031.37C3736.56 3033.47 3735.74 3035.58 3734.9 3037.7L3735.36 3037.88ZM3740.11 3025.13L3740.58 3025.29C3741.33 3023.11 3742.05 3020.95 3742.73 3018.81L3742.25 3018.66L3741.78 3018.51C3741.1 3020.64 3740.39 3022.8 3739.64 3024.97L3740.11 3025.13ZM3744.22 3012.13L3744.7 3012.27C3745.34 3010.05 3745.93 3007.86 3746.49 3005.69L3746 3005.56L3745.52 3005.44C3744.97 3007.6 3744.37 3009.79 3743.74 3012L3744.22 3012.13ZM3747.58 2998.94L3748.07 2999.05C3748.57 2996.79 3749.02 2994.56 3749.42 2992.36L3748.93 2992.27L3748.44 2992.18C3748.04 2994.37 3747.59 2996.59 3747.09 2998.83L3747.58 2998.94ZM3750.03 2985.56L3750.52 2985.63C3750.85 2983.34 3751.12 2981.08 3751.34 2978.86L3750.84 2978.81L3750.34 2978.76C3750.13 2980.97 3749.86 2983.21 3749.53 2985.49L3750.03 2985.56ZM3751.34 2972.03L3751.84 2972.06C3751.94 2969.74 3751.99 2967.46 3751.96 2965.24L3751.46 2965.25L3750.96 2965.25C3750.99 2967.45 3750.94 2969.71 3750.84 2972.01L3751.34 2972.03ZM3751.16 2958.48L3751.66 2958.44C3751.48 2956.11 3751.21 2953.86 3750.86 2951.68L3750.37 2951.75L3749.87 2951.83C3750.22 2953.99 3750.48 2956.22 3750.66 2958.52L3751.16 2958.48ZM3748.98 2945.11L3749.46 2944.98C3748.88 2942.72 3748.18 2940.56 3747.38 2938.49L3746.92 2938.68L3746.45 2938.86C3747.24 2940.88 3747.92 2943.01 3748.5 2945.23L3748.98 2945.11ZM3744.07 2932.56L3744.51 2932.32C3743.39 2930.29 3742.14 2928.4 3740.76 2926.63L3740.36 2926.94L3739.97 2927.25C3741.32 2928.97 3742.54 2930.82 3743.64 2932.8L3744.07 2932.56ZM3735.78 2922.02L3736.12 2921.65C3735.27 2920.89 3734.39 2920.17 3733.48 2919.48C3732.57 2918.8 3731.62 2918.16 3730.66 2917.56L3730.4 2917.99L3730.13 2918.41C3731.07 2919 3731.99 2919.62 3732.88 2920.29C3733.77 2920.95 3734.63 2921.66 3735.45 2922.39L3735.78 2922.02ZM3697.76 2912.37L3697.7 2911.87C3695.5 2912.15 3693.26 2912.53 3690.98 2913L3691.09 2913.49L3691.19 2913.98C3693.45 2913.51 3695.66 2913.14 3697.82 2912.86L3697.76 2912.37ZM3684.51 2915.11L3684.37 2914.63C3682.23 2915.23 3680.06 2915.91 3677.87 2916.67L3678.03 2917.14L3678.19 2917.62C3680.37 2916.86 3682.52 2916.19 3684.64 2915.59L3684.51 2915.11ZM3671.66 2919.52L3671.48 2919.06C3669.41 2919.89 3667.32 2920.79 3665.21 2921.75L3665.42 2922.21L3665.62 2922.66C3667.72 2921.71 3669.8 2920.82 3671.85 2919.99L3671.66 2919.52ZM3659.28 2925.15L3659.06 2924.7C3657.06 2925.71 3655.05 2926.77 3653.03 2927.88L3653.27 2928.32L3653.51 2928.76C3655.52 2927.65 3657.52 2926.6 3659.51 2925.6L3659.28 2925.15ZM3647.36 2931.7L3647.1 2931.27C3645.17 2932.41 3643.23 2933.6 3641.29 2934.84L3641.55 2935.26L3641.82 2935.68C3643.76 2934.45 3645.69 2933.27 3647.61 2932.13L3647.36 2931.7ZM3635.85 2938.98L3635.57 2938.57C3633.7 2939.82 3631.83 2941.12 3629.95 2942.45L3630.24 2942.86L3630.53 2943.27C3632.4 2941.94 3634.27 2940.65 3636.13 2939.4L3635.85 2938.98ZM3624.73 2946.88L3624.44 2946.48C3622.64 2947.82 3620.83 2949.2 3619.03 2950.61L3619.34 2951.01L3619.65 2951.4C3621.44 2949.99 3623.24 2948.62 3625.03 2947.28L3624.73 2946.88ZM3614.03 2955.26L3613.71 2954.87C3611.96 2956.3 3610.22 2957.76 3608.47 2959.25L3608.8 2959.63L3609.12 2960.01C3610.86 2958.52 3612.6 2957.07 3614.34 2955.65L3614.03 2955.26ZM3603.65 2964.1L3603.32 2963.73C3601.63 2965.23 3599.94 2966.75 3598.25 2968.31L3598.59 2968.67L3598.93 2969.04C3600.61 2967.49 3602.3 2965.97 3603.98 2964.48L3603.65 2964.1ZM3593.63 2973.33L3593.29 2972.96C3591.66 2974.52 3590.02 2976.11 3588.4 2977.72L3588.75 2978.07L3589.1 2978.43C3590.72 2976.82 3592.35 2975.24 3593.98 2973.69L3593.63 2973.33ZM3583.94 2982.91L3583.58 2982.56C3582 2984.18 3580.42 2985.82 3578.85 2987.48L3579.22 2987.82L3579.58 2988.17C3581.15 2986.51 3582.72 2984.87 3584.29 2983.26L3583.94 2982.91ZM3574.58 2992.8L3574.21 2992.47C3572.68 2994.14 3571.16 2995.83 3569.64 2997.54L3570.02 2997.87L3570.39 2998.2C3571.91 2996.49 3573.43 2994.81 3574.95 2993.14L3574.58 2992.8ZM3565.53 3003.01L3565.15 3002.68C3563.68 3004.4 3562.21 3006.13 3560.75 3007.88L3561.14 3008.2L3561.52 3008.52C3562.98 3006.77 3564.44 3005.05 3565.91 3003.34L3565.53 3003.01ZM3556.81 3013.47L3556.42 3013.16C3555 3014.92 3553.58 3016.7 3552.17 3018.5L3552.56 3018.81L3552.95 3019.12C3554.36 3017.32 3555.78 3015.54 3557.2 3013.78L3556.81 3013.47ZM3545.94 3026.63C3546.63 3025.71 3547.32 3024.8 3548.01 3023.89L3548.41 3024.2L3548.8 3024.5C3548.12 3025.4 3547.43 3026.31 3546.75 3027.23C3546.06 3028.14 3545.38 3029.05 3544.71 3029.97L3544.3 3029.67L3543.9 3029.38C3544.58 3028.46 3545.26 3027.54 3545.94 3026.63ZM3540.31 3035.17L3539.9 3034.88C3538.57 3036.75 3537.26 3038.61 3535.97 3040.47L3536.38 3040.76L3536.79 3041.04C3538.08 3039.18 3539.39 3037.32 3540.72 3035.47L3540.31 3035.17ZM3532.54 3046.39L3532.13 3046.11C3530.86 3048.01 3529.61 3049.9 3528.38 3051.79L3528.8 3052.07L3529.22 3052.34C3530.44 3050.45 3531.69 3048.56 3532.96 3046.67L3532.54 3046.39ZM3525.13 3057.82L3524.7 3057.55C3523.49 3059.49 3522.3 3061.43 3521.12 3063.37L3521.55 3063.63L3521.98 3063.88C3523.15 3061.95 3524.34 3060.02 3525.55 3058.09L3525.13 3057.82ZM3518.08 3069.48L3517.64 3069.22C3516.49 3071.2 3515.36 3073.17 3514.26 3075.14L3514.69 3075.39L3515.13 3075.63C3516.23 3073.67 3517.36 3071.7 3518.51 3069.73L3518.08 3069.48ZM3511.4 3081.37L3510.96 3081.13C3509.88 3083.14 3508.82 3085.16 3507.78 3087.16L3508.22 3087.39L3508.67 3087.62C3509.7 3085.62 3510.76 3083.61 3511.84 3081.6L3511.4 3081.37ZM3505.16 3093.46L3504.71 3093.24C3503.69 3095.29 3502.7 3097.34 3501.74 3099.38L3502.19 3099.6L3502.65 3099.81C3503.61 3097.77 3504.59 3095.73 3505.6 3093.68L3505.16 3093.46ZM3499.35 3105.8L3498.89 3105.59C3497.95 3107.69 3497.05 3109.77 3496.17 3111.85L3496.63 3112.04L3497.09 3112.24C3497.96 3110.17 3498.87 3108.09 3499.8 3106L3499.35 3105.8ZM3494.04 3118.34L3493.58 3118.15C3492.73 3120.28 3491.91 3122.4 3491.13 3124.51L3491.6 3124.68L3492.07 3124.85C3492.85 3122.76 3493.66 3120.65 3494.51 3118.52L3494.04 3118.34ZM3489.3 3131.09L3488.82 3130.93C3488.07 3133.11 3487.36 3135.27 3486.68 3137.42L3487.15 3137.57L3487.63 3137.72C3488.31 3135.58 3489.02 3133.43 3489.77 3131.26L3489.3 3131.09ZM3485.18 3144.09L3484.7 3143.95C3484.07 3146.17 3483.47 3148.36 3482.92 3150.54L3483.4 3150.66L3483.89 3150.78C3484.44 3148.62 3485.03 3146.43 3485.66 3144.23L3485.18 3144.09ZM3481.83 3157.28L3481.34 3157.17C3480.84 3159.43 3480.39 3161.66 3479.99 3163.86L3480.48 3163.95L3480.97 3164.04C3481.37 3161.85 3481.82 3159.63 3482.31 3157.39L3481.83 3157.28ZM3479.38 3170.66L3478.88 3170.59C3478.56 3172.88 3478.28 3175.14 3478.07 3177.36L3478.56 3177.41L3479.06 3177.46C3479.28 3175.26 3479.55 3173.01 3479.87 3170.73L3479.38 3170.66ZM3478.07 3184.19L3477.57 3184.17C3477.46 3186.49 3477.42 3188.76 3477.44 3190.98L3477.94 3190.98L3478.44 3190.97C3478.42 3188.77 3478.46 3186.52 3478.57 3184.21L3478.07 3184.19ZM3478.24 3197.75L3477.75 3197.79C3477.93 3200.11 3478.2 3202.36 3478.55 3204.55L3479.04 3204.47L3479.53 3204.39C3479.19 3202.23 3478.92 3200 3478.74 3197.71L3478.24 3197.75ZM3480.43 3211.11L3479.94 3211.24C3480.53 3213.5 3481.22 3215.66 3482.02 3217.73L3482.49 3217.55L3482.95 3217.37C3482.17 3215.34 3481.49 3213.21 3480.91 3210.99L3480.43 3211.11ZM3485.33 3223.66L3484.9 3223.9C3486.02 3225.93 3487.27 3227.83 3488.65 3229.59L3489.04 3229.28L3489.44 3228.98C3488.09 3227.25 3486.87 3225.4 3485.77 3223.42L3485.33 3223.66ZM3495.93 3236.74C3495.01 3236.05 3494.13 3235.33 3493.29 3234.57L3493.62 3234.2L3493.96 3233.83C3494.78 3234.57 3495.64 3235.27 3496.53 3235.94C3497.42 3236.6 3498.33 3237.23 3499.27 3237.81L3499.01 3238.23L3498.75 3238.66C3497.78 3238.06 3496.84 3237.42 3495.93 3236.74ZM3505.02 3241.25L3504.83 3241.71C3506.91 3242.54 3509.09 3243.2 3511.35 3243.71L3511.46 3243.22L3511.57 3242.73C3509.36 3242.24 3507.23 3241.59 3505.2 3240.78L3505.02 3241.25ZM3518.12 3244.23L3518.08 3244.73C3520.29 3244.91 3522.56 3244.97 3524.89 3244.9L3524.88 3244.4L3524.86 3243.9C3522.57 3243.97 3520.33 3243.91 3518.17 3243.73L3518.12 3244.23ZM3531.64 3243.86L3531.71 3244.35C3533.9 3244.07 3536.14 3243.7 3538.42 3243.22L3538.32 3242.73L3538.22 3242.24C3535.96 3242.71 3533.75 3243.09 3531.58 3243.36L3531.64 3243.86ZM3544.9 3241.11L3545.03 3241.59C3547.17 3240.99 3549.34 3240.31 3551.54 3239.55L3551.38 3239.08L3551.21 3238.61C3549.03 3239.36 3546.88 3240.03 3544.76 3240.63L3544.9 3241.11ZM3557.74 3236.7L3557.93 3237.16C3560 3236.33 3562.09 3235.43 3564.2 3234.47L3563.99 3234.02L3563.78 3233.56C3561.69 3234.52 3559.61 3235.41 3557.55 3236.23L3557.74 3236.7ZM3570.12 3231.07L3570.35 3231.52C3572.34 3230.51 3574.36 3229.45 3576.38 3228.34L3576.14 3227.9L3575.9 3227.46C3573.88 3228.57 3571.88 3229.62 3569.9 3230.63L3570.12 3231.07ZM3582.05 3224.52L3582.3 3224.95C3584.23 3223.81 3586.17 3222.62 3588.12 3221.39L3587.85 3220.97L3587.59 3220.54C3585.65 3221.77 3583.71 3222.96 3581.79 3224.09L3582.05 3224.52ZM3599.45 3213.77C3597.58 3215.1 3595.7 3216.4 3593.84 3217.65L3593.56 3217.24L3593.28 3216.82C3595.14 3215.57 3597 3214.28 3598.88 3212.95L3599.16 3213.36L3599.45 3213.77ZM3610.38 3205.61C3608.57 3207.02 3606.77 3208.4 3604.97 3209.75L3604.67 3209.35L3604.37 3208.95C3606.16 3207.61 3607.96 3206.23 3609.76 3204.82L3610.07 3205.22L3610.38 3205.61ZM3620.93 3196.98C3619.19 3198.47 3617.44 3199.92 3615.7 3201.35L3615.38 3200.96L3615.06 3200.58C3616.8 3199.15 3618.54 3197.7 3620.29 3196.22L3620.61 3196.6L3620.93 3196.98ZM3625.76 3192.12L3626.09 3192.49C3627.78 3191 3629.46 3189.47 3631.15 3187.92L3630.81 3187.55L3630.47 3187.18C3628.79 3188.73 3627.11 3190.25 3625.43 3191.74L3625.76 3192.12ZM3635.77 3182.9L3636.12 3183.26C3637.75 3181.7 3639.38 3180.11 3641.01 3178.5L3640.66 3178.15L3640.31 3177.79C3638.68 3179.4 3637.06 3180.98 3635.43 3182.54L3635.77 3182.9ZM3645.47 3173.31L3645.83 3173.66C3647.41 3172.04 3648.98 3170.41 3650.55 3168.74L3650.19 3168.4L3649.83 3168.06C3648.26 3169.71 3646.69 3171.35 3645.11 3172.96L3645.47 3173.31ZM3654.82 3163.42L3655.19 3163.76C3656.72 3162.09 3658.24 3160.4 3659.76 3158.68L3659.39 3158.35L3659.01 3158.02C3657.5 3159.73 3655.98 3161.42 3654.46 3163.08L3654.82 3163.42ZM3663.88 3153.21L3664.26 3153.54C3665.73 3151.83 3667.19 3150.09 3668.65 3148.34L3668.27 3148.02L3667.89 3147.7C3666.43 3149.45 3664.97 3151.18 3663.5 3152.89L3663.88 3153.21ZM3672.59 3142.75L3672.98 3143.07C3674.41 3141.3 3675.83 3139.52 3677.24 3137.72L3676.85 3137.41L3676.45 3137.1C3675.04 3138.9 3673.63 3140.68 3672.2 3142.44L3672.59 3142.75Z" fill="#C3D3FE" fill-opacity="0.6"/>
<circle cx="3715.5" cy="2913.5" r="4.5" stroke="#C3D3FE" stroke-opacity="0.6" stroke-width="2"/>
</g>
</g>
<defs>
<filter id="filter0_f_219_6" x="661" y="1386" width="2144" height="2144" filterUnits="userSpaceOnUse" color-interpolation-filters="sRGB">
<feFlood flood-opacity="0" result="BackgroundImageFix"/>
<feBlend mode="normal" in="SourceGraphic" in2="BackgroundImageFix" result="shape"/>
<feGaussianBlur stdDeviation="400" result="effect1_foregroundBlur_219_6"/>
</filter>
<filter id="filter1_f_219_6" x="795" y="-287" width="1936" height="1936" filterUnits="userSpaceOnUse" color-interpolation-filters="sRGB">
<feFlood flood-opacity="0" result="BackgroundImageFix"/>
<feBlend mode="normal" in="SourceGraphic" in2="BackgroundImageFix" result="shape"/>
<feGaussianBlur stdDeviation="400" result="effect1_foregroundBlur_219_6"/>
</filter>
<filter id="filter2_f_219_6" x="2587" y="1022" width="2544" height="2544" filterUnits="userSpaceOnUse" color-interpolation-filters="sRGB">
<feFlood flood-opacity="0" result="BackgroundImageFix"/>
<feBlend mode="normal" in="SourceGraphic" in2="BackgroundImageFix" result="shape"/>
<feGaussianBlur stdDeviation="500" result="effect1_foregroundBlur_219_6"/>
</filter>
<clipPath id="clip0_219_6">
<rect width="5644" height="3365" fill="white"/>
</clipPath>
</defs>
</svg>
