<svg width="2300" height="780" viewBox="0 0 2300 780" fill="none" xmlns="http://www.w3.org/2000/svg">
<g clip-path="url(#clip0_180_7)">
<g opacity="0.65" filter="url(#filter0_f_180_7)">
<circle cx="2062.37" cy="203.255" r="9.90881" transform="rotate(165 2062.37 203.255)" fill="#190482"/>
<circle cx="2041.34" cy="143.92" r="3.30294" transform="rotate(165 2041.34 143.92)" fill="#190482"/>
<circle cx="2062.37" cy="203.255" r="19.3176" transform="rotate(165 2062.37 203.255)" stroke="#190482"/>
<circle cx="2062.37" cy="203.255" r="63.9072" transform="rotate(165 2062.37 203.255)" stroke="#190482"/>
<circle cx="2062.37" cy="203.255" r="35.8323" transform="rotate(165 2062.37 203.255)" stroke="#190482" stroke-linejoin="round" stroke-dasharray="2 3"/>
<rect x="2038.93" y="262.537" width="8.25734" height="8.25734" transform="rotate(165 2038.93 262.537)" fill="#190482"/>
<path d="M1962.44 306.967C1947.59 251.538 1947.97 197.677 1960.57 155.412C1973.17 113.137 1997.95 82.5442 2031.86 73.4585C2065.77 64.3728 2102.53 78.4736 2134.58 108.785C2166.62 139.09 2193.88 185.545 2208.73 240.974C2223.58 296.402 2223.2 350.263 2210.61 392.528C2198.01 434.803 2173.22 465.396 2139.32 474.482C2105.41 483.568 2068.64 469.467 2036.6 439.155C2004.56 408.85 1977.3 362.395 1962.44 306.967Z" stroke="#190482"/>
<circle cx="2006.78" cy="466.24" r="4.9544" transform="rotate(165 2006.78 466.24)" fill="#190482"/>
<circle cx="1831.7" cy="350.548" r="4.9544" transform="rotate(165 1831.7 350.548)" fill="#190482"/>
<circle cx="2102.01" cy="83.2106" r="4.9544" transform="rotate(165 2102.01 83.2106)" fill="#190482"/>
<circle cx="2023.63" cy="320.531" r="3.30294" transform="rotate(165 2023.63 320.531)" fill="#190482"/>
<path d="M1868.7 266.989C1818.93 231.052 1784.66 183.628 1769.45 136.025C1754.25 88.421 1758.12 40.6737 1784.59 4.01462C1811.07 -32.6445 1855.17 -51.3407 1905.14 -51.8801C1955.11 -52.4194 2010.91 -34.7969 2060.68 1.14001C2110.44 37.0769 2144.72 84.5008 2159.92 132.104C2175.13 179.708 2171.25 227.455 2144.78 264.114C2118.31 300.773 2074.2 319.47 2024.23 320.009C1974.26 320.548 1918.47 302.926 1868.7 266.989Z" stroke="#190482"/>
<circle cx="1958.97" cy="165.136" r="13.5375" transform="rotate(165 1958.97 165.136)" fill="white" stroke="#190482"/>
<path d="M1802.63 284.818C1767.53 153.803 1842.43 19.9235 1969.9 -14.231C2097.36 -48.3855 2229.17 30.107 2264.28 161.122C2299.38 292.137 2224.48 426.017 2097.01 460.171C1969.55 494.326 1837.74 415.833 1802.63 284.818Z" stroke="#190482"/>
<path d="M1745.12 319.035C1720.44 226.899 1795.39 126.564 1912.85 95.0901C2030.31 63.6164 2145.39 113.033 2170.07 205.17C2194.76 297.307 2119.81 397.642 2002.35 429.115C1884.89 460.589 1769.81 411.172 1745.12 319.035Z" stroke="#190482"/>
<circle cx="2147.99" cy="328.203" r="8.58307" transform="rotate(165 2147.99 328.203)" fill="white" stroke="#190482"/>
<circle cx="1864.18" cy="113.54" r="6.93161" transform="rotate(165 1864.18 113.54)" fill="white" stroke="#190482"/>
</g>
<g opacity="0.55">
<circle cx="310.753" cy="585.995" r="9.32103" transform="rotate(135 310.753 585.995)" fill="#190482"/>
<path d="M382.832 716.039L376.974 710.201L373.586 717.746L373.572 709.475L365.841 712.414L371.679 706.556L364.135 703.168L372.405 703.154L369.466 695.424L375.324 701.262L378.712 693.717L378.726 701.988L386.457 699.049L380.619 704.907L388.163 708.295L379.893 708.309L382.832 716.039Z" fill="#190482"/>
<path d="M219.68 521.083L212.733 516.596L210.993 524.681L209.254 516.596L202.307 521.083L206.794 514.136L198.709 512.396L206.794 510.657L202.307 503.71L209.254 508.197L210.993 500.112L212.733 508.197L219.68 503.71L215.193 510.657L223.278 512.396L215.193 514.136L219.68 521.083Z" fill="#190482"/>
<circle cx="285.488" cy="470.654" r="8.32103" transform="rotate(135 285.488 470.654)" stroke="#190482" stroke-width="2"/>
<circle cx="231.661" cy="618.95" r="8.32103" transform="rotate(135 231.661 618.95)" stroke="#190482" stroke-width="2"/>
<circle cx="357.989" cy="622.246" r="6.76752" transform="rotate(135 357.989 622.246)" stroke="#190482" stroke-width="2"/>
<circle cx="299.768" cy="660.693" r="7.76752" transform="rotate(135 299.768 660.693)" fill="#190482"/>
<circle cx="345.905" cy="649.709" r="7.76752" transform="rotate(145.238 345.905 649.709)" fill="#190482"/>
<circle cx="398.632" cy="638.724" r="7.76752" transform="rotate(135 398.632 638.724)" fill="#190482"/>
<circle cx="290.98" cy="720.012" r="7.76752" transform="rotate(135 290.98 720.012)" fill="#190482"/>
<path d="M392.59 635.977L363.48 624.443M351.946 618.401L310.203 584.348M310.203 584.348L376.662 704.633M310.203 584.348L290.98 720.012M310.203 584.348L238.252 615.655M225.07 614.556L184.426 581.601L210.79 511.298L277.798 472.851" stroke="#190482"/>
</g>
</g>
<defs>
<filter id="filter0_f_180_7" x="1737.92" y="-54.3916" width="537.508" height="534.1" filterUnits="userSpaceOnUse" color-interpolation-filters="sRGB">
<feFlood flood-opacity="0" result="BackgroundImageFix"/>
<feBlend mode="normal" in="SourceGraphic" in2="BackgroundImageFix" result="shape"/>
<feGaussianBlur stdDeviation="1" result="effect1_foregroundBlur_180_7"/>
</filter>
<clipPath id="clip0_180_7">
<rect width="2300" height="780" fill="white"/>
</clipPath>
</defs>
</svg>
