<svg width="3796" height="5152" viewBox="0 0 3796 5152" fill="none" xmlns="http://www.w3.org/2000/svg">
<g clip-path="url(#clip0_163_362)">
<path d="M0 29.9999C0 13.4313 13.4315 0 30 0H3766C3782.57 0 3796 13.4315 3796 30V5122C3796 5138.57 3782.57 5152 3766 5152H29.9999C13.4314 5152 0 5138.57 0 5122V29.9999Z" fill="white"/>
<g opacity="0.55">
<path d="M2334.31 3787.15L2338.38 3806.07L2354.64 3795.57L2344.14 3811.83L2363.07 3815.91L2344.14 3819.98L2354.64 3836.24L2338.38 3825.74L2334.31 3844.66L2330.24 3825.74L2313.98 3836.24L2324.48 3819.98L2305.55 3815.91L2324.48 3811.83L2313.98 3795.57L2330.24 3806.07L2334.31 3787.15Z" fill="#3C2A95"/>
<path d="M2760.19 3483.14L2764.26 3502.07L2780.52 3491.57L2770.02 3507.83L2788.95 3511.9L2770.02 3515.97L2780.52 3532.24L2764.26 3521.73L2760.19 3540.66L2756.12 3521.73L2739.85 3532.24L2750.36 3515.97L2731.43 3511.9L2750.36 3507.83L2739.85 3491.57L2756.12 3502.07L2760.19 3483.14Z" fill="#3C2A95"/>
<path d="M2218.6 3922.72L2221.51 3933.42L2232.23 3930.59L2224.42 3938.46L2232.23 3946.34L2221.51 3943.51L2218.6 3954.21L2215.68 3943.51L2204.96 3946.34L2212.77 3938.46L2204.96 3930.59L2215.68 3933.42L2218.6 3922.72Z" fill="#3C2A95"/>
<path d="M2804.69 3763.87L2807.61 3774.57L2818.33 3771.74L2810.52 3779.62L2818.33 3787.49L2807.61 3784.66L2804.69 3795.36L2801.78 3784.66L2791.06 3787.49L2798.87 3779.62L2791.06 3771.74L2801.78 3774.57L2804.69 3763.87Z" fill="#3C2A95"/>
<path d="M2465.09 3828.23L2468 3838.93L2478.72 3836.1L2470.91 3843.98L2478.72 3851.85L2468 3849.02L2465.09 3859.73L2462.17 3849.02L2451.45 3851.85L2459.26 3843.98L2451.45 3836.1L2462.17 3838.93L2465.09 3828.23Z" fill="#3C2A95"/>
<path d="M2856.5 4193.18L2856.78 4193.33L2856.78 4191.75C2861.75 4166.46 2864.36 4140.33 2864.36 4113.6C2864.36 4088.2 2862.01 4063.35 2857.51 4039.24L2859.22 3682.12C2912.08 3669.96 2967.18 3663.53 3023.79 3663.53C3177.21 3663.53 3319.47 3710.75 3436.47 3791.27C3446.04 3800.19 3455.36 3809.37 3464.42 3818.8C3514.34 3915.79 3542.48 4025.56 3542.48 4141.82C3542.48 4536.04 3218.92 4855.64 2819.76 4855.64C2656.78 4855.64 2506.4 4802.36 2385.51 4712.47C2349.75 4646.17 2324.28 4573.65 2311.18 4496.98C2355.08 4512.72 2402.45 4521.3 2451.86 4521.3C2652.11 4521.3 2819.05 4380.26 2856.5 4193.18ZM2451.86 4519.3C2402.29 4519.3 2354.78 4510.62 2310.8 4494.72C2304.4 4456.53 2301.08 4417.33 2301.08 4377.35C2301.08 4222.76 2350.83 4079.64 2435.39 3962.78L2854.66 4192.18C2817.64 4378.63 2651.37 4519.3 2451.86 4519.3ZM2433.62 3961.81C2348.92 4078.97 2299.08 4222.41 2299.08 4377.35C2299.08 4417.05 2302.35 4455.99 2308.64 4493.93C2281.93 4484.1 2256.53 4471.6 2232.78 4456.76C2222.79 4409.47 2217.54 4360.47 2217.54 4310.25C2217.54 4162.41 2263.05 4025.06 2340.99 3911.12L2433.62 3961.81ZM2853.12 4189.05L2436.58 3961.14C2486.44 3892.64 2548.28 3833.22 2619.08 3785.87L2853.12 4189.05ZM2618.08 3784.13C2546.97 3831.67 2484.86 3891.36 2434.81 3960.18L2342.13 3909.47C2394.39 3833.52 2461.1 3768.05 2538.34 3716.91C2554.9 3720.42 2571.09 3724.92 2586.85 3730.34L2618.08 3784.13ZM2854.8 4187.97L2620.75 3784.75C2632.61 3776.87 2644.71 3769.33 2657.05 3762.14C2759.08 3820.45 2833.36 3920.91 2855.51 4039.43L2854.8 4187.97ZM2655.04 3760.99C2643.05 3768.01 2631.28 3775.36 2619.74 3783.02L2589.75 3731.35C2612.51 3739.37 2634.34 3749.32 2655.04 3760.99ZM2857.22 3680.53C2785.85 3697.11 2718.54 3724.12 2657.04 3759.83C2635.27 3747.46 2612.25 3737.01 2588.21 3728.69L2569.9 3697.16C2655.85 3646.4 2753.36 3612.77 2857.6 3601.05L2857.22 3680.53ZM2659.05 3760.98C2719.98 3725.73 2786.59 3699.04 2857.21 3682.59L2855.56 4029.44C2831.24 3914.91 2758.29 3818.07 2659.05 3760.98ZM2568.18 3698.18L2585.32 3727.7C2570.79 3722.79 2555.89 3718.67 2540.68 3715.37C2549.71 3709.44 2558.88 3703.71 2568.18 3698.18ZM2567.18 3696.45C2557.27 3702.33 2547.52 3708.45 2537.93 3714.78C2510.17 3708.95 2481.38 3705.89 2451.86 3705.89C2348.91 3705.89 2254.77 3743.16 2182.5 3804.8C2247.32 3685.48 2345.5 3586.47 2464.71 3519.93L2567.18 3696.45ZM2819.76 3428C2832.73 3428 2845.62 3428.34 2858.42 3429L2857.61 3599.04C2753 3610.77 2655.14 3644.5 2568.9 3695.43L2466.46 3518.96C2570.92 3461.03 2691.43 3428 2819.76 3428ZM2859.61 3598.82L2860.42 3429.11C3118.03 3443.22 3339.63 3590.58 3455.78 3802.55C3449.83 3798.18 3443.81 3793.9 3437.73 3789.71C3307.93 3668.65 3132.87 3594.43 2940.26 3594.43C2913 3594.43 2886.09 3595.92 2859.61 3598.82ZM3447.57 3799.06C3451.09 3801.58 3454.58 3804.13 3458.04 3806.7C3459.1 3808.66 3460.15 3810.63 3461.19 3812.6C3456.71 3808.03 3452.17 3803.52 3447.57 3799.06ZM3466.06 3817.63C3464.67 3814.92 3463.26 3812.23 3461.83 3809.54C3634.87 3939.96 3746.51 4145.78 3746.51 4377.35C3746.51 4771.57 3422.95 5091.17 3023.79 5091.17C2836.57 5091.17 2665.97 5020.85 2537.6 4905.5C2652.76 4981.66 2791.26 5026.07 2940.26 5026.07C3340.5 5026.07 3664.98 4705.6 3664.98 4310.25C3664.98 4119.38 3589.35 3945.96 3466.06 3817.63ZM3544.48 4141.82C3544.48 4027.61 3517.4 3919.65 3469.24 3823.86C3589.45 3951.34 3662.98 4122.32 3662.98 4310.25C3662.98 4704.47 3339.42 5024.07 2940.26 5024.07C2786.84 5024.07 2644.59 4976.86 2527.59 4896.34C2471.88 4844.36 2424.54 4783.73 2387.77 4716.62C2508.4 4805.22 2657.88 4857.64 2819.76 4857.64C3220 4857.64 3544.48 4537.17 3544.48 4141.82ZM2383.96 4713.81C2418.98 4778.64 2463.8 4837.53 2516.48 4888.54C2425.77 4823.58 2350.94 4738.3 2298.83 4639.47C2325.18 4666.37 2353.64 4691.24 2383.96 4713.81ZM2381.72 4709.63C2350.98 4686.47 2322.18 4660.92 2295.6 4633.27C2267.66 4578.98 2246.54 4520.67 2233.36 4459.47C2257.07 4474.14 2282.4 4486.49 2309.02 4496.2C2321.85 4572.05 2346.76 4643.86 2381.72 4709.63ZM2231 4458C2243.71 4517.83 2263.98 4574.9 2290.78 4628.21C2223.37 4556.72 2170.63 4471.55 2137.32 4377.38C2164.21 4408.67 2195.79 4435.9 2231 4458ZM2215.54 4310.25C2215.54 4359.94 2220.67 4408.44 2230.42 4455.28C2194.58 4432.54 2162.54 4404.44 2135.48 4372.12C2110.56 4299.87 2097.04 4222.4 2097.04 4141.82C2097.04 4026.04 2124.94 3916.71 2174.47 3820.01L2339.23 3910.16C2261.14 4024.38 2215.54 4162.05 2215.54 4310.25ZM2095.04 4141.82C2095.04 4220.77 2107.98 4296.74 2131.88 4367.77C2075.25 4298.22 2041.36 4209.82 2041.36 4113.6C2041.36 3994.69 2093.11 3887.73 2175.58 3813.52C2174.77 3815.07 2173.96 3816.63 2173.16 3818.19C2123.2 3915.38 2095.04 4025.35 2095.04 4141.82ZM2175.39 3818.23C2176.85 3815.39 2178.34 3812.56 2179.84 3809.74C2252.26 3746.36 2347.51 3707.89 2451.86 3707.89C2480.55 3707.89 2508.56 3710.8 2535.59 3716.34C2458.77 3767.5 2392.42 3832.81 2340.36 3908.5L2175.39 3818.23ZM2940.26 3596.43C3127.49 3596.43 3298.09 3666.75 3426.46 3782.1C3311.29 3705.95 3172.79 3661.53 3023.79 3661.53C2967.19 3661.53 2912.1 3667.94 2859.23 3680.07L2859.6 3600.83C2886.09 3597.93 2913 3596.43 2940.26 3596.43ZM2857.46 4050.73C2860.68 4071.22 2862.36 4092.22 2862.36 4113.6C2862.36 4136.31 2860.47 4158.58 2856.84 4180.27L2857.46 4050.73Z" stroke="#3C2A95" stroke-width="2"/>
<circle cx="2569.16" cy="3697.45" r="10.2704" fill="#3C2A95"/>
<circle cx="2434.96" cy="3964.48" r="10.2704" fill="#3C2A95"/>
<path fill-rule="evenodd" clip-rule="evenodd" d="M2621.2 3883.85C2604.08 3889.58 2591.75 3905.73 2591.75 3924.77C2591.75 3943.81 2604.08 3959.96 2621.2 3965.69C2616.89 3967.13 2612.29 3967.91 2607.5 3967.91C2583.68 3967.91 2564.37 3948.59 2564.37 3924.77C2564.37 3900.95 2583.68 3881.64 2607.5 3881.64C2612.29 3881.64 2616.89 3882.42 2621.2 3883.85Z" fill="#3C2A95"/>
</g>
<g opacity="0.65">
<circle cx="2865.9" cy="505.139" r="14.117" transform="rotate(-180 2865.9 505.139)" fill="#190482"/>
<circle cx="2858.84" cy="415.732" r="4.70566" transform="rotate(-180 2858.84 415.732)" fill="#190482"/>
<circle cx="2865.9" cy="505.139" r="27.7339" transform="rotate(-180 2865.9 505.139)" stroke="#190482"/>
<circle cx="2865.9" cy="505.139" r="91.2603" transform="rotate(-180 2865.9 505.139)" stroke="#190482"/>
<circle cx="2865.9" cy="505.139" r="51.2622" transform="rotate(-180 2865.9 505.139)" stroke="#190482" stroke-linejoin="round" stroke-dasharray="2 3"/>
<rect x="2811.78" y="578.076" width="11.7641" height="11.7641" transform="rotate(-180 2811.78 578.076)" fill="#190482"/>
<path d="M2689.93 611.016C2689.93 529.229 2710.33 455.209 2743.27 401.652C2776.21 348.086 2821.66 315.06 2871.78 315.06C2921.89 315.06 2967.34 348.086 3000.29 401.652C3033.23 455.209 3053.62 529.229 3053.62 611.016C3053.62 692.803 3033.23 766.823 3000.29 820.38C2967.34 873.946 2921.89 906.972 2871.78 906.972C2821.66 906.972 2776.21 873.946 2743.27 820.38C2710.33 766.823 2689.93 692.803 2689.93 611.016Z" stroke="#190482"/>
<circle cx="2692.43" cy="846.548" r="7.05848" transform="rotate(-180 2692.43 846.548)" fill="#190482"/>
<circle cx="2494.15" cy="622.78" r="7.05848" transform="rotate(-180 2494.15 622.78)" fill="#190482"/>
<circle cx="2964.71" cy="354.558" r="7.05848" transform="rotate(-180 2964.71 354.558)" fill="#190482"/>
<circle cx="2769.34" cy="652.242" r="4.70566" transform="rotate(-180 2769.34 652.242)" fill="#190482"/>
<path d="M2575.72 521.568C2520.46 453.732 2490.76 375.788 2487.38 304.622C2484.01 233.456 2506.96 169.106 2556.98 128.366C2606.99 87.6269 2674.65 78.1605 2743.66 95.8565C2812.68 113.552 2883 158.406 2938.26 226.242C2993.52 294.079 3023.23 372.023 3026.6 443.189C3029.97 514.354 3007.02 578.705 2957.01 619.444C2906.99 660.184 2839.33 669.65 2770.32 651.954C2701.3 634.258 2630.98 589.405 2575.72 521.568Z" stroke="#190482"/>
<circle cx="2737.67" cy="414.555" r="19.499" transform="rotate(-180 2737.67 414.555)" fill="white" stroke="#190482"/>
<path d="M2478.18 521.608C2478.18 328.256 2630.71 171.537 2818.84 171.537C3006.97 171.537 3159.5 328.256 3159.5 521.608C3159.5 714.96 3006.97 871.68 2818.84 871.68C2630.71 871.68 2478.18 714.96 2478.18 521.608Z" stroke="#190482"/>
<path d="M2386.42 547.49C2386.42 411.431 2526.71 300.943 2700.02 300.943C2873.34 300.943 3013.63 411.431 3013.63 547.49C3013.63 683.549 2873.34 794.037 2700.02 794.037C2526.71 794.037 2386.42 683.549 2386.42 547.49Z" stroke="#190482"/>
<circle cx="2937.66" cy="708.659" r="12.4406" transform="rotate(-180 2937.66 708.659)" fill="white" stroke="#190482"/>
<circle cx="2626.24" cy="308.599" r="10.0877" transform="rotate(-180 2626.24 308.599)" fill="white" stroke="#190482"/>
</g>
<g opacity="0.55">
<path d="M2703.32 1772.42L2771.76 1920.72L2780.52 1988.98L2780.12 2011.53L2787.58 2020.69L2770.48 2055.07M2770.48 2055.07L2811.6 2117.54L2902.44 2202.21L2908.05 2215.86M2770.48 2055.07L2613.68 1830.31M2908.05 2215.86L2817.18 2301.54M2908.05 2215.86L2798.19 2194.21" stroke="#190482" stroke-width="1.21133"/>
<path d="M2711.58 1758.95L2708.13 1769.81L2719.64 1769.22L2709.43 1774.44L2718.04 1782.09L2707.04 1778.6L2707.71 1790L2702.37 1779.85L2694.71 1788.32L2698.15 1777.46L2686.65 1778.04L2696.86 1772.82L2688.25 1765.18L2699.25 1768.66L2698.57 1757.27L2703.92 1767.42L2711.58 1758.95Z" fill="#190482"/>
<path d="M2745.88 1980.92L2740.93 1996.55L2757.43 1995.69L2742.78 2003.21L2755.11 2014.19L2739.35 2009.2L2740.29 2025.59L2732.65 2011L2721.65 2023.2L2726.6 2007.57L2710.1 2008.43L2724.75 2000.9L2712.42 1989.92L2728.18 1994.92L2727.24 1978.53L2734.89 1993.11L2745.88 1980.92Z" fill="#190482"/>
<path d="M2803.86 2184.58L2801.84 2190.93L2808.5 2190.57L2802.58 2193.64L2807.55 2198.09L2801.19 2196.08L2801.56 2202.74L2798.49 2196.82L2794.03 2201.79L2796.05 2195.43L2789.39 2195.79L2795.31 2192.72L2790.34 2188.27L2796.7 2190.28L2796.33 2183.62L2799.41 2189.54L2803.86 2184.58Z" fill="#190482"/>
<circle cx="2772.58" cy="1922.63" r="5.43386" transform="rotate(167.672 2772.58 1922.63)" fill="#190482"/>
<circle cx="2780.32" cy="1989.23" r="7.01112" transform="rotate(167.672 2780.32 1989.23)" fill="#190482"/>
<circle cx="2769.41" cy="2055.79" r="6.05663" transform="rotate(-162.328 2769.41 2055.79)" fill="#190482"/>
<ellipse cx="2811.34" cy="2117.04" rx="7.26795" ry="7.26795" transform="rotate(-162.328 2811.34 2117.04)" fill="#190482"/>
<ellipse cx="2816.6" cy="2301.36" rx="7.26795" ry="7.26795" transform="rotate(-162.328 2816.6 2301.36)" fill="#190482"/>
<ellipse cx="2613.44" cy="1831.08" rx="7.26795" ry="7.26795" transform="rotate(-162.328 2613.44 1831.08)" fill="#190482"/>
<ellipse cx="2780.18" cy="2011.34" rx="2.82643" ry="2.82642" transform="rotate(107.672 2780.18 2011.34)" fill="#190482"/>
<ellipse cx="2902.37" cy="2202.4" rx="2.82643" ry="2.82642" transform="rotate(107.672 2902.37 2202.4)" fill="#190482"/>
<circle cx="2787.71" cy="2020.94" r="2.01888" transform="rotate(107.672 2787.71 2020.94)" fill="#190482"/>
<circle cx="2908.3" cy="2215.73" r="2.01888" transform="rotate(107.672 2908.3 2215.73)" fill="#190482"/>
</g>
<g opacity="0.55">
<circle cx="1074.06" cy="942.691" r="9.80902" transform="rotate(135 1074.06 942.691)" fill="#190482"/>
<path d="M1149.91 1079.54L1143.75 1073.4L1140.18 1081.34L1140.17 1072.64L1132.03 1075.73L1138.18 1069.56L1130.24 1066L1138.94 1065.98L1135.85 1057.85L1142.01 1063.99L1145.58 1056.05L1145.59 1064.76L1153.73 1061.66L1147.58 1067.83L1155.52 1071.39L1146.82 1071.41L1149.91 1079.54Z" fill="#190482"/>
<path d="M978.218 874.38L970.907 869.658L969.077 878.167L967.246 869.658L959.936 874.38L964.658 867.069L956.149 865.239L964.658 863.408L959.936 856.098L967.246 860.82L969.077 852.311L970.907 860.82L978.218 856.098L973.496 863.408L982.005 865.239L973.496 867.069L978.218 874.38Z" fill="#190482"/>
<circle cx="1047.47" cy="821.311" r="8.80902" transform="rotate(135 1047.47 821.311)" stroke="#190482" stroke-width="2"/>
<circle cx="990.827" cy="977.371" r="8.80902" transform="rotate(135 990.827 977.371)" stroke="#190482" stroke-width="2"/>
<circle cx="1123.77" cy="980.839" r="7.17419" transform="rotate(135 1123.77 980.839)" stroke="#190482" stroke-width="2"/>
<circle cx="1062.5" cy="1021.3" r="8.17419" transform="rotate(135 1062.5 1021.3)" fill="#190482"/>
<circle cx="1111.05" cy="1009.74" r="8.17419" transform="rotate(145.238 1111.05 1009.74)" fill="#190482"/>
<circle cx="1166.54" cy="998.179" r="8.17419" transform="rotate(135 1166.54 998.179)" fill="#190482"/>
<circle cx="1053.25" cy="1083.72" r="8.17419" transform="rotate(135 1053.25 1083.72)" fill="#190482"/>
<path d="M1160.18 995.289L1129.55 983.151M1117.41 976.793L1073.48 940.957M1073.48 940.957L1143.42 1067.54M1073.48 940.957L1053.25 1083.72M1073.48 940.957L997.764 973.903M983.892 972.747L941.119 938.067L968.863 864.083L1039.38 823.623" stroke="#190482"/>
</g>
</g>
<defs>
<clipPath id="clip0_163_362">
<path d="M0 29.9999C0 13.4313 13.4315 0 30 0H3766C3782.57 0 3796 13.4315 3796 30V5122C3796 5138.57 3782.57 5152 3766 5152H29.9999C13.4314 5152 0 5138.57 0 5122V29.9999Z" fill="white"/>
</clipPath>
</defs>
</svg>
