<svg width="5644" height="2600" viewBox="0 0 5644 2600" fill="none" xmlns="http://www.w3.org/2000/svg">
    <g clip-path="url(#clip0_226_1257)">
        <circle cx="1598" cy="771" r="272" fill="#8E8FFA" filter="url(#filter0_f_226_1257)"/>
        <g opacity=".65">
            <circle cx="1886.44" cy="893.201" r="9.621" fill="#C2D9FF"/>
            <circle cx="1886.44" cy="893.201" r="9.121" stroke="#C3D3FE" stroke-opacity=".6"/>
            <circle cx="1891.25" cy="954.135" r="3.207" fill="#C2D9FF"/>
            <circle cx="1891.25" cy="954.135" r="2.707" stroke="#C3D3FE" stroke-opacity=".6"/>
            <circle cx="1886.44" cy="893.201" r="18.742" stroke="#C3D3FE" stroke-opacity=".6"/>
            <circle cx="1886.44" cy="893.201" r="62.037" stroke="#C3D3FE" stroke-opacity=".6"/>
            <circle cx="1886.44" cy="893.202" r="34.777" stroke="#C3D3FE" stroke-opacity=".6" stroke-linejoin="round" stroke-dasharray="2 3"/>
            <path fill="#C2D9FF" d="M1923.32 843.492H1931.338V851.51H1923.32z"/>
            <path stroke="#C3D3FE" stroke-opacity=".6" d="M1923.82 843.992H1930.838V851.01H1923.82z"/>
            <circle cx="2004.66" cy="660.522" r="4.811" fill="#C2D9FF"/>
            <circle cx="2004.66" cy="660.522" r="4.311" stroke="#C3D3FE" stroke-opacity=".6"/>
            <circle cx="2139.79" cy="813.025" r="4.811" fill="#C2D9FF"/>
            <circle cx="2139.79" cy="813.025" r="4.311" stroke="#C3D3FE" stroke-opacity=".6"/>
            <circle cx="1819.09" cy="995.826" r="4.811" fill="#C2D9FF"/>
            <circle cx="1819.09" cy="995.826" r="4.311" stroke="#C3D3FE" stroke-opacity=".6"/>
            <circle cx="1952.25" cy="792.946" r="3.207" fill="#C2D9FF"/>
            <circle cx="1952.25" cy="792.946" r="2.707" stroke="#C3D3FE" stroke-opacity=".6"/>
            <path d="M2084.08 882.104c37.64 46.209 57.87 99.298 60.17 147.766 2.3 48.46-13.33 92.26-47.37 119.99-34.04 27.72-80.1 34.17-127.09 22.12-47-12.05-94.9-42.6-132.54-88.8-37.64-46.21-57.87-99.302-60.17-147.766-2.3-48.464 13.33-92.266 47.37-119.992s80.09-34.177 127.09-22.126c47 12.051 94.9 42.6 132.54 88.808z" stroke="#C3D3FE" stroke-opacity=".6"/>
            <path fill-rule="evenodd" clip-rule="evenodd"
                  d="M1981.49 943.053c15.82-33.901 25.21-76.173 25.21-122.01 0-111.585-55.64-202.043-124.27-202.043-68.64 0-124.27 90.458-124.27 202.043 0 111.585 55.63 202.047 124.27 202.047 33.15 0 63.26-21.1 85.54-55.493 1.81.842 3.82 1.312 5.94 1.312 7.75 0 14.04-6.286 14.04-14.04 0-4.959-2.58-9.318-6.46-11.816zm-.86-.513c15.72-33.736 25.07-75.826 25.07-121.497 0-55.638-13.87-105.961-36.25-142.342-22.39-36.397-53.18-58.701-87.02-58.701-33.84 0-64.64 22.304-87.02 58.701-22.38 36.381-36.25 86.704-36.25 142.342 0 55.638 13.87 105.961 36.25 142.342 22.38 36.397 53.18 58.705 87.02 58.705 32.66 0 62.48-20.78 84.65-54.95a14.039 14.039 0 0 1-7.21-12.271c0-7.753 6.28-14.039 14.04-14.039 2.43 0 4.72.62 6.72 1.71zm6.32 12.329c0 7.202-5.84 13.04-13.04 13.04-7.2 0-13.04-5.838-13.04-13.04 0-7.201 5.84-13.039 13.04-13.039 7.2 0 13.04 5.838 13.04 13.039z"
                  fill="#C3D3FE" fill-opacity=".6"/>
            <path d="M2150.52 881.977c0 131.693-103.89 238.423-232.01 238.423s-232.01-106.73-232.01-238.423c0-131.691 103.89-238.424 232.01-238.424s232.01 106.733 232.01 238.424z" stroke="#C3D3FE" stroke-opacity=".6"/>
            <circle cx="1838.03" cy="755.116" r="8.319" stroke="#C3D3FE" stroke-opacity=".6"/>
            <path fill-rule="evenodd" clip-rule="evenodd"
                  d="M2042.58 1028.28c-13.91 2.25-28.32 3.43-43.09 3.43-117.91 0-213.07-75.147-213.07-167.372 0-38.852 16.89-74.672 45.25-103.12a8.722 8.722 0 0 1-.66-.765c-28.56 28.614-45.59 64.685-45.59 103.885 0 92.987 95.84 168.372 214.07 168.372 14.81 0 29.27-1.19 43.24-3.44.73 3.22 3.6 5.62 7.04 5.62 3.99 0 7.22-3.23 7.22-7.21 0-3.99-3.23-7.22-7.22-7.22-3.98 0-7.22 3.23-7.22 7.22 0 .2.01.4.03.6zm-43.09-331.311c-61.05 0-115.99 20.141-154.8 52.366a7.076 7.076 0 0 0-.7-.719c39.02-32.422 94.26-52.647 155.5-52.647 118.22 0 214.07 75.381 214.07 168.369 0 77.328-66.28 142.482-156.6 162.232-.03-.34-.08-.67-.15-.99 89.96-19.68 155.75-84.559 155.75-161.242 0-92.225-95.16-167.369-213.07-167.369zm56.5 330.711c0 3.43-2.79 6.21-6.22 6.21-3.43 0-6.22-2.78-6.22-6.21a6.22 6.22 0 0 1 12.44 0z"
                  fill="#C3D3FE" fill-opacity=".6"/>
        </g>
        <g opacity=".8">
            <circle cx="3563.04" cy="754.001" r="4.877" transform="rotate(-15 3563.04 754.001)" fill="#C3D3FE"/>
            <circle cx="3563.04" cy="754.001" r="3.877" transform="rotate(-15 3563.04 754.001)" stroke="#C3D3FE" stroke-opacity=".6" stroke-width="2"/>
            <circle cx="3643.81" cy="716.276" r="3.877" transform="rotate(-15 3643.81 716.276)" stroke="#C3D3FE" stroke-opacity=".6" stroke-width="2"/>
            <circle cx="3445.58" cy="718.34" r="1.89" transform="rotate(-15 3445.58 718.34)" stroke="#C3D3FE" stroke-opacity=".6" stroke-width="2"/>
            <circle cx="3607.16" cy="693.932" r="4.877" transform="rotate(-15 3607.16 693.932)" fill="#C3D3FE"/>
            <circle cx="3607.16" cy="693.932" r="3.877" transform="rotate(-15 3607.16 693.932)" stroke="#C3D3FE" stroke-opacity=".6" stroke-width="2"/>
            <circle cx="3399.33" cy="701.372" r="4.877" transform="rotate(-15 3399.33 701.372)" fill="#C3D3FE"/>
            <circle cx="3399.33" cy="701.372" r="3.877" transform="rotate(-15 3399.33 701.372)" stroke="#C3D3FE" stroke-opacity=".6" stroke-width="2"/>
            <circle cx="3521.41" cy="488.385" r="4.877" transform="rotate(-15 3521.41 488.385)" fill="#C3D3FE"/>
            <circle cx="3521.41" cy="488.385" r="3.877" transform="rotate(-15 3521.41 488.385)" stroke="#C3D3FE" stroke-opacity=".6" stroke-width="2"/>
            <circle cx="3553.98" cy="502.472" r="3.071" transform="rotate(-15 3553.98 502.472)" fill="#C3D3FE"/>
            <circle cx="3553.98" cy="502.472" r="2.071" transform="rotate(-15 3553.98 502.472)" stroke="#C3D3FE" stroke-opacity=".6" stroke-width="2"/>
            <circle cx="3591.68" cy="427.48" r="4.335" transform="rotate(-15 3591.68 427.48)" fill="#C3D3FE"/>
            <circle cx="3591.68" cy="427.48" r="3.335" transform="rotate(-15 3591.68 427.48)" stroke="#C3D3FE" stroke-opacity=".6" stroke-width="2"/>
            <circle cx="3700.75" cy="425.559" r="4.335" transform="rotate(-15 3700.75 425.559)" fill="#C3D3FE"/>
            <circle cx="3700.75" cy="425.559" r="3.335" transform="rotate(-15 3700.75 425.559)" stroke="#C3D3FE" stroke-opacity=".6" stroke-width="2"/>
            <circle cx="3748.3" cy="527.641" r="4.335" transform="rotate(-15 3748.3 527.641)" fill="#C3D3FE"/>
            <circle cx="3748.3" cy="527.641" r="3.335" transform="rotate(-15 3748.3 527.641)" stroke="#C3D3FE" stroke-opacity=".6" stroke-width="2"/>
            <circle cx="3770.58" cy="434.9" r="4.335" transform="rotate(-15 3770.58 434.9)" fill="#C3D3FE"/>
            <circle cx="3770.58" cy="434.9" r="3.335" transform="rotate(-15 3770.58 434.9)" stroke="#C3D3FE" stroke-opacity=".6" stroke-width="2"/>
            <circle cx="3689.86" cy="309.54" r="4.335" transform="rotate(-15 3689.86 309.54)" fill="#C3D3FE"/>
            <circle cx="3689.86" cy="309.54" r="3.335" transform="rotate(-15 3689.86 309.54)" stroke="#C3D3FE" stroke-opacity=".6" stroke-width="2"/>
            <circle cx="3470.34" cy="429.698" r="4.335" transform="rotate(-15 3470.34 429.698)" fill="#C3D3FE"/>
            <circle cx="3470.34" cy="429.698" r="3.335" transform="rotate(-15 3470.34 429.698)" stroke="#C3D3FE" stroke-opacity=".6" stroke-width="2"/>
            <circle cx="3484.67" cy="406.409" r="3.251" transform="rotate(-15 3484.67 406.409)" fill="#C3D3FE"/>
            <circle cx="3484.67" cy="406.409" r="2.251" transform="rotate(-15 3484.67 406.409)" stroke="#C3D3FE" stroke-opacity=".6" stroke-width="2"/>
            <circle cx="3409.64" cy="399.96" r="5.419" transform="rotate(-15 3409.64 399.96)" fill="#C3D3FE"/>
            <circle cx="3409.64" cy="399.96" r="4.419" transform="rotate(-15 3409.64 399.96)" stroke="#C3D3FE" stroke-opacity=".6" stroke-width="2"/>
            <ellipse cx="3382.52" cy="399.934" rx="3.432" ry="3.432" transform="rotate(-15 3382.52 399.934)" fill="#C3D3FE"/>
            <path d="M3384.87 399.304a2.444 2.444 0 0 1-1.72 2.979 2.428 2.428 0 0 1-2.98-1.72 2.43 2.43 0 0 1 1.72-2.979 2.439 2.439 0 0 1 2.98 1.72z" stroke="#C3D3FE" stroke-opacity=".6" stroke-width="2"/>
            <circle cx="3480.18" cy="733.006" r="3.974" transform="rotate(-15 3480.18 733.006)" fill="#C3D3FE"/>
            <circle cx="3480.18" cy="733.006" r="2.974" transform="rotate(-15 3480.18 733.006)" stroke="#C3D3FE" stroke-opacity=".6" stroke-width="2"/>
            <path d="M3382.52 399.934l25.99.702 61.18 29.423 14.51-23.336 29.83-7.994m0 0l7.73 89.562m-7.73-89.562l78.17 28.612m-70.44 60.95l32.39 13.389 38.05-74.339m-70.44 60.95l-129.36 37.843 6.76 175.284 44.43 15.772m148.61-289.849l64.79-32.507m0 0l34.09-85.621m-34.09 85.621l43.32 30.469m0 0l69.41 8.516 59.25-69.92-128.66 61.404zm0 0l18.33 89.34 34.13 12.922m-271.49 206.079l81.71 20.183m0 0l45.97-59.444m-45.97 59.444l77.28-34.732" stroke="#C3D3FE" stroke-opacity=".6" stroke-width="2"/>
            <path d="M3513.66 388.168l1.85 6.843 5.75-4.148-3.54 6.145 7 1.131-6.84 1.846 4.15 5.747-6.15-3.533-1.13 6.997-1.85-6.843-5.74 4.147 3.53-6.144-7-1.131 6.85-1.846-4.15-5.748 6.14 3.534 1.13-6.997z" fill="#C3D3FE"/>
            <path d="M3515.8 395.416l3.87-2.787-2.38 4.129-.36.628.72.115 4.7.76-4.6 1.241-.7.189.42.587 2.79 3.862-4.13-2.374-.63-.361-.11.714-.76 4.703-1.24-4.599-.19-.699-.59.423-3.86 2.788 2.37-4.13.36-.627-.71-.115-4.7-.761 4.6-1.24.7-.189-.43-.587-2.79-3.863 4.13 2.375.63.361.12-.714.76-4.703 1.24 4.599.19.699.58-.424z" stroke="#C3D3FE" stroke-opacity=".6"/>
            <path d="M3391.71 515.098l1.85 6.843 5.75-4.148-3.54 6.144 7 1.132-6.84 1.846 4.14 5.747-6.14-3.533-1.13 6.996-1.85-6.843-5.75 4.148 3.54-6.144-7-1.131 6.84-1.847-4.14-5.747 6.14 3.533 1.13-6.996z" fill="#C3D3FE"/>
            <path d="M3393.85 522.346l3.86-2.787-2.37 4.129-.36.627.71.116 4.7.76-4.59 1.241-.7.188.42.587 2.79 3.863-4.13-2.375-.63-.361-.11.715-.76 4.702-1.25-4.599-.18-.698-.59.423-3.86 2.787 2.37-4.129.36-.627-.71-.116-4.71-.76 4.6-1.241.7-.188-.42-.587-2.79-3.863 4.13 2.375.63.361.11-.715.76-4.702 1.25 4.599.18.699.59-.424z" stroke="#C3D3FE" stroke-opacity=".6"/>
            <path d="M3656.66 386.508l1.39 5.162 4.34-3.129-2.67 4.635 5.28.854-5.16 1.393 3.13 4.335-4.64-2.665-.85 5.278-1.4-5.162-4.33 3.129 2.66-4.635-5.27-.854 5.16-1.392-3.13-4.336 4.63 2.665.86-5.278z" fill="#C3D3FE"/>
            <path d="M3658.34 392.076l2.45-1.769-1.5 2.62-.36.628.71.115 2.99.483-2.92.787-.7.188.42.587 1.77 2.451-2.62-1.507-.63-.36-.11.714-.49 2.984-.78-2.918-.19-.699-.59.423-2.45 1.769 1.51-2.62.36-.627-.72-.116-2.98-.482 2.92-.788.7-.188-.43-.587-1.76-2.451 2.62 1.507.62.361.12-.715.48-2.984.79 2.919.19.698.58-.423z" stroke="#C3D3FE" stroke-opacity=".6"/>
            <path d="M3825.64 356.937l1.4 5.162 4.33-3.129-2.66 4.635 5.27.854-5.16 1.392 3.13 4.336-4.63-2.665-.86 5.278-1.39-5.162-4.34 3.128 2.67-4.635-5.28-.853 5.16-1.393-3.13-4.335 4.64 2.665.85-5.278z" fill="#C3D3FE"/>
            <path d="M3827.33 362.504l2.45-1.768-1.51 2.62-.36.627.72.116 2.98.482-2.92.788-.7.188.43.587 1.76 2.451-2.62-1.507-.62-.361-.12.715-.48 2.984-.79-2.919-.19-.698-.58.423-2.45 1.769 1.5-2.62.36-.628-.71-.115-2.99-.483 2.92-.787.7-.188-.42-.587-1.77-2.451 2.62 1.506.63.361.11-.714.48-2.984.79 2.918.19.699.59-.424z" stroke="#C3D3FE" stroke-opacity=".6"/>
            <path d="M3717.96 504.352l1.85 6.843 5.75-4.148-3.54 6.144 7 1.132-6.84 1.846 4.14 5.747-6.14-3.533-1.13 6.997-1.85-6.843-5.75 4.147 3.54-6.144-7-1.131 6.84-1.847-4.14-5.747 6.14 3.533 1.13-6.996z" fill="#C3D3FE"/>
            <path d="M3720.1 511.6l3.86-2.787-2.37 4.129-.36.627.71.116 4.7.76-4.59 1.241-.7.188.42.587 2.79 3.863-4.13-2.375-.63-.36-.11.714-.76 4.702-1.25-4.599-.18-.698-.59.423-3.86 2.788 2.37-4.13.36-.627-.71-.116-4.7-.76 4.59-1.241.7-.188-.42-.587-2.79-3.863 4.13 2.375.63.361.11-.715.76-4.702 1.25 4.599.18.699.59-.424z" stroke="#C3D3FE" stroke-opacity=".6"/>
        </g>
        <circle cx="3696" cy="1061" r="272" fill="#8E8FFA" filter="url(#filter1_f_226_1257)"/>
        <g opacity=".8">
            <circle cx="2115" cy="2177" r="17" fill="#C3D3FE" fill-opacity=".6"/>
            <circle cx="2057.5" cy="2176.5" r="8.5" fill="#C3D3FE" fill-opacity=".6"/>
            <circle cx="2172.5" cy="2176.5" r="8.5" fill="#C3D3FE" fill-opacity=".6"/>
            <circle cx="2198.5" cy="2176.5" r="5.5" fill="#C3D3FE" fill-opacity=".6"/>
            <circle cx="2307.5" cy="2243.36" r="5.5" fill="#C3D3FE" fill-opacity=".6"/>
            <circle cx="2331.5" cy="2077.36" r="5.5" fill="#C3D3FE" fill-opacity=".6"/>
            <circle cx="2031.5" cy="2176.5" r="5.5" fill="#C3D3FE" fill-opacity=".6"/>
            <circle cx="2115" cy="2177" r="35.5" stroke="#C3D3FE" stroke-opacity=".6" stroke-width="3"/>
            <path d="M2205.17 2205.44c-12.61 39.34-34.08 71.71-58.59 92.25-24.52 20.54-52 29.19-76.68 21.29-24.67-7.91-42-30.93-50.01-61.89-8.01-30.96-6.67-69.78 5.94-109.13 12.6-39.34 34.08-71.71 58.59-92.24 24.52-20.54 52-29.2 76.68-21.29 24.67 7.91 42 30.93 50.01 61.89 8.01 30.95 6.67 69.78-5.94 109.12z" stroke="#C3D3FE" stroke-opacity=".6"/>
            <path d="M2161.89 2258.06c-58.63 33.86-116.99 55.32-163.93 62.67-23.47 3.68-44.06 3.82-60.4.24-16.33-3.59-28.35-10.88-34.79-22.04-6.44-11.15-6.75-25.21-1.69-41.15 5.07-15.93 15.49-33.69 30.41-52.18 29.83-36.98 77.6-76.79 136.23-110.64 58.64-33.85 116.99-55.31 163.93-62.67 23.48-3.67 44.07-3.81 60.4-.23s28.35 10.88 34.8 22.03c6.44 11.16 6.74 25.22 1.68 41.15-5.06 15.94-15.48 33.7-30.4 52.19-29.84 36.98-77.61 76.78-136.24 110.63z" stroke="#C3D3FE" stroke-opacity=".6"/>
            <path d="M2106.34 2248.62c-67.21-8.27-127.07-23.67-169.5-41.85-21.22-9.1-38.06-18.88-49.29-28.79-11.24-9.94-16.75-19.92-15.58-29.42 1.17-9.51 8.94-17.85 22.25-24.76 13.3-6.9 32.01-12.3 54.8-15.98 45.58-7.35 107.38-7.76 174.59.52 67.21 8.27 127.06 23.66 169.5 41.85 21.22 9.09 38.06 18.87 49.28 28.79 11.24 9.93 16.76 19.91 15.59 29.42-1.17 9.5-8.94 17.85-22.26 24.76-13.29 6.89-32 12.3-54.8 15.97-45.58 7.35-107.38 7.77-174.58-.51z" stroke="#C3D3FE" stroke-opacity=".6"/>
            <path fill-rule="evenodd" clip-rule="evenodd"
                  d="M2127.56 2261.9l-.09-.49-.08-.49c1.12-.2 2.25-.41 3.38-.62 1.13-.2 2.26-.41 3.38-.62l.1.49.09.49-3.39.63c-1.13.21-2.26.41-3.39.61zm13.51-2.53l-.1-.49-.09-.5c2.25-.44 4.49-.89 6.72-1.35l.1.49.1.49c-2.23.46-4.47.91-6.73 1.36zm13.43-2.78l-.11-.49-.1-.49c2.24-.49 4.48-.98 6.7-1.49l.11.49.11.49c-2.22.5-4.46 1-6.71 1.49zm13.37-3.04l-.11-.49-.12-.48c2.24-.53 4.47-1.07 6.68-1.62l.12.49.12.48c-2.22.55-4.44 1.09-6.69 1.62zm13.33-3.3l-.12-.48-.13-.49c2.23-.57 4.44-1.15 6.63-1.74l.13.48.13.48c-2.2.59-4.41 1.18-6.64 1.75zm13.26-3.56l-.14-.49-.13-.48c2.21-.62 4.4-1.24 6.57-1.88l.14.48.14.48c-2.18.64-4.37 1.27-6.58 1.89zm13.17-3.85l-.14-.47-.15-.48c2.2-.67 4.37-1.34 6.53-2.02l.15.48.15.47c-2.16.68-4.34 1.36-6.54 2.02zm13.08-4.12l-.15-.48-.16-.47c2.19-.72 4.35-1.44 6.5-2.18l.16.48.16.47a708.2 708.2 0 0 1-6.51 2.18zm12.97-4.43l-.17-.47-.16-.47c2.17-.77 4.32-1.55 6.46-2.34l.17.47.17.47c-2.13.79-4.29 1.57-6.47 2.34zm12.88-4.76l-.18-.46-.17-.47c2.14-.82 4.26-1.66 6.36-2.5l.19.47.18.46c-2.1.84-4.23 1.68-6.38 2.5zm12.75-5.1l-.19-.46-.19-.46c2.12-.89 4.22-1.78 6.28-2.68l.2.46.2.46c-2.07.9-4.17 1.79-6.3 2.68zm12.56-5.46l-.21-.46-.2-.45c2.1-.96 4.18-1.92 6.22-2.89l.22.45.21.45c-2.05.97-4.13 1.94-6.24 2.9zm12.41-5.9c2.07-1.03 4.1-2.06 6.09-3.1l-.23-.44-.23-.45a380.05 380.05 0 0 1-6.07 3.1l.22.44.22.45zm12.15-6.34l-.24-.44-.24-.44c2.03-1.12 4.02-2.24 5.96-3.37l.26.43.25.44c-1.96 1.13-3.95 2.26-5.99 3.38zm11.88-6.9c1.98-1.22 3.91-2.44 5.79-3.67l-.28-.42-.27-.42c-1.87 1.22-3.79 2.44-5.76 3.66l.26.42.26.43zm11.46-7.51l-.29-.41-.29-.41c1.9-1.33 3.74-2.67 5.51-4.01l.3.4.3.4c-1.78 1.35-3.62 2.69-5.53 4.03zm10.91-8.27l-.32-.39-.31-.38a147.7 147.7 0 0 0 5.15-4.46l.33.37.34.37c-1.65 1.5-3.38 2.99-5.19 4.49zm10.14-9.26l-.36-.35-.36-.35c1.64-1.67 3.17-3.35 4.58-5.02l.38.32.39.32c-1.44 1.7-2.98 3.39-4.63 5.08zm8.83-10.51l-.41-.29-.41-.29c1.35-1.91 2.53-3.82 3.56-5.71l.44.24.44.24a60.612 60.612 0 0 1-3.62 5.81zm6.46-12.03l-.47-.18-.47-.17c.79-2.17 1.37-4.32 1.72-6.45l.49.09.49.08c-.36 2.19-.95 4.4-1.76 6.63zm2.13-13.46l-.5.03-.5.03c-.07-1.1-.2-2.19-.4-3.28-.2-1.09-.46-2.16-.79-3.22l.48-.15.47-.14c.34 1.09.62 2.2.82 3.33.21 1.13.35 2.26.42 3.4zm-3.99-12.99l-.43.25-.44.25c-1.07-1.86-2.37-3.67-3.88-5.42l.38-.33.37-.32c1.55 1.79 2.89 3.65 4 5.57zm-8.85-10.39l-.33.38-.32.38a59.787 59.787 0 0 0-5.36-4.09l.29-.41.28-.42c1.96 1.34 3.78 2.72 5.44 4.16zm-11.3-7.75l-.24.44-.24.44a92.85 92.85 0 0 0-6.07-3.09l.21-.45.21-.45c2.15 1 4.19 2.03 6.13 3.11zm-12.44-5.82l-.18.46-.19.47c-2.05-.81-4.18-1.6-6.39-2.35l.16-.47.16-.47c2.22.75 4.37 1.54 6.44 2.36zm-12.97-4.43l-.14.48-.14.48c-2.13-.63-4.32-1.23-6.57-1.8l.12-.48.13-.49c2.25.58 4.46 1.18 6.6 1.81zm-13.27-3.39l-.1.49-.11.48c-2.18-.48-4.41-.94-6.69-1.37l.1-.5.09-.49c2.29.44 4.52.9 6.71 1.39zm-13.46-2.59l-.09.49-.08.49c-2.22-.36-4.48-.71-6.77-1.04l.07-.49.07-.5c2.3.33 4.57.68 6.8 1.05zm-13.61-1.94l-.06.5-.06.5c-2.23-.27-4.49-.52-6.78-.75l.05-.5.05-.49c2.3.23 4.57.48 6.8.74zm-13.63-1.36l-.04.49-.04.5c-2.25-.18-4.54-.35-6.85-.5l.03-.5.04-.5c2.31.15 4.6.32 6.86.51zm-13.7-.89l-.02.5-.03.5c-2.25-.11-4.53-.21-6.83-.28l.02-.5.02-.5c2.3.07 4.58.17 6.84.28zm-13.72-.46l-.01.5-.01.5c-2.26-.05-4.54-.07-6.84-.08l.01-.5v-.5c2.3.01 4.59.03 6.85.08zm-13.7-.07v.5l.01.5c-2.28.01-4.57.05-6.87.09l-.01-.5-.01-.5c2.31-.04 4.6-.08 6.88-.09zm-13.72.28l.02.5.01.5c-2.26.07-4.55.16-6.84.26l-.02-.5-.03-.5c2.3-.1 4.59-.19 6.86-.26zm-13.72.61l.02.5.03.5c-2.26.12-4.53.26-6.81.42l-.04-.5-.03-.5c2.29-.15 4.56-.29 6.83-.42zm-13.69.92l.04.5.04.5c-2.26.17-4.53.36-6.81.56l-.05-.49-.04-.5c2.28-.2 4.56-.39 6.82-.57zm-13.66 1.21l.05.5.05.5c-2.26.22-4.53.46-6.82.71l-.05-.5-.05-.5c2.28-.25 4.56-.48 6.82-.71zm-13.63 1.49l.06.5.06.5c-2.26.27-4.54.55-6.82.85l-.06-.5-.07-.5c2.29-.29 4.56-.58 6.83-.85zm-13.61 1.77l.07.49.07.5c-2.25.31-4.52.64-6.79.98l-.08-.5-.07-.49c2.28-.34 4.54-.67 6.8-.98zm-13.57 2.02l.08.49.08.5c-2.25.35-4.51.72-6.77 1.1l-.08-.49-.08-.49c2.26-.38 4.52-.75 6.77-1.11zm-13.53 2.28c-1.13.2-2.26.4-3.39.61l-3.39.63.1.49.09.49c1.12-.21 2.25-.42 3.38-.63 1.13-.2 2.26-.41 3.39-.61l-.09-.49-.09-.49zm-13.51 2.53l.1.49.09.49c-2.25.45-4.49.9-6.72 1.36l-.1-.49-.1-.49c2.23-.46 4.48-.91 6.73-1.36zm-13.43 2.78l.11.49.1.49c-2.24.49-4.48.98-6.7 1.49l-.11-.49-.11-.49c2.23-.5 4.46-1 6.71-1.49zm-13.37 3.04l.11.48.12.49c-2.24.53-4.47 1.07-6.68 1.62l-.12-.49-.12-.48c2.22-.55 4.45-1.09 6.69-1.62zm-13.33 3.3l.13.48.12.49c-2.22.57-4.43 1.15-6.63 1.74l-.13-.48-.13-.48c2.2-.6 4.41-1.18 6.64-1.75zm-13.26 3.56l.14.48.13.49c-2.2.61-4.39 1.24-6.57 1.87l-.14-.48-.14-.48c2.18-.63 4.37-1.26 6.58-1.88zm-13.17 3.84l.14.48.15.48c-2.19.67-4.37 1.34-6.53 2.02l-.15-.48-.15-.47c2.16-.69 4.34-1.36 6.54-2.03zm-13.08 4.13l.15.48.16.47c-2.18.72-4.35 1.44-6.49 2.18l-.17-.48-.16-.47a708.2 708.2 0 0 1 6.51-2.18zm-12.97 4.43c-2.18.77-4.33 1.55-6.47 2.34l.17.47.18.47c2.13-.79 4.28-1.57 6.46-2.34l-.17-.47-.17-.47zm-12.88 4.75l.18.47.18.47c-2.03.78-4.03 1.56-6.02 2.35-.08-.32-.2-.64-.34-.94 1.98-.79 3.98-1.57 6-2.35zm-16.17 7.64c-.83.35-1.66.71-2.48 1.07l-.2-.46-.2-.46c.87-.38 1.75-.76 2.64-1.14a5.497 5.497 0 0 1 5.44-6.3c3.04 0 5.5 2.46 5.5 5.5s-2.46 5.5-5.5 5.5c-2.41 0-4.46-1.55-5.2-3.71zm-9.14 2.93l.21.46.21.45c-2.11.96-4.19 1.92-6.23 2.89l-.22-.45-.21-.45c2.05-.97 4.13-1.94 6.24-2.9zm-12.41 5.9l.22.44.23.45c-2.07 1.03-4.09 2.06-6.08 3.1l-.23-.45-.23-.44c1.99-1.04 4.02-2.08 6.09-3.1zm-12.14 6.34l.24.44.24.44c-2.04 1.12-4.03 2.24-5.97 3.37l-.25-.43-.25-.44c1.95-1.13 3.95-2.26 5.99-3.38zm-11.89 6.9l.26.43.27.42c-1.98 1.22-3.9 2.43-5.77 3.66l-.27-.42-.27-.42c1.87-1.23 3.8-2.45 5.78-3.67zm-11.45 7.51l.28.41.29.41c-1.9 1.33-3.74 2.67-5.51 4.01l-.3-.4-.3-.4a185 185 0 0 1 5.54-4.03zm-10.92 8.27l.32.39.32.38c-1.8 1.49-3.52 2.97-5.15 4.46l-.34-.37-.34-.37c1.65-1.5 3.38-3 5.19-4.49zm-10.13 9.26l.35.34.36.35a94.445 94.445 0 0 0-4.58 5.03l-.38-.32-.38-.32c1.43-1.7 2.97-3.39 4.63-5.08zm-8.84 10.51l.41.29.41.28a59.918 59.918 0 0 0-3.56 5.72l-.44-.24-.44-.24c1.05-1.93 2.26-3.87 3.62-5.81zm-6.45 12.03l.46.18.47.17c-.79 2.17-1.36 4.32-1.71 6.44l-.5-.08-.49-.08c.36-2.19.95-4.4 1.77-6.63zm-2.13 13.46l.5-.03.5-.03c.06 1.1.2 2.19.39 3.28.2 1.09.47 2.16.79 3.22l-.47.15-.48.14c-.34-1.09-.61-2.2-.82-3.33-.21-1.13-.34-2.26-.41-3.4zm3.98 12.99l.44-.25.43-.25c1.08 1.86 2.38 3.67 3.89 5.42l-.38.33-.38.32a36.944 36.944 0 0 1-4-5.57zm8.85 10.39l.33-.38.32-.38c1.64 1.41 3.42 2.77 5.36 4.09l-.28.41-.28.41a59.886 59.886 0 0 1-5.45-4.15zm11.3 7.75l.24-.44.25-.44c1.91 1.07 3.93 2.1 6.06 3.09l-.21.45-.21.45c-2.15-1-4.19-2.04-6.13-3.11zm12.44 5.82l.19-.47.18-.46c2.05.81 4.19 1.59 6.39 2.34l-.16.48-.16.47c-2.22-.75-4.37-1.54-6.44-2.36zm12.97 4.43l.14-.48.15-.48c2.13.62 4.32 1.22 6.56 1.8l-.12.48-.12.49c-2.26-.58-4.46-1.18-6.61-1.81zm13.27 3.39l.11-.49.1-.49c2.19.49 4.41.95 6.69 1.38l-.1.49-.09.5c-2.28-.44-4.52-.9-6.71-1.39zm13.47 2.59l.08-.49.08-.5c2.22.37 4.48.72 6.78 1.04l-.07.5-.07.49c-2.31-.32-4.58-.67-6.8-1.04zm13.6 1.93l.06-.49.06-.5c2.23.27 4.49.52 6.78.75l-.05.49-.05.5c-2.3-.23-4.56-.48-6.8-.75zm13.63 1.37l.04-.49.04-.5c2.26.18 4.54.35 6.85.5l-.03.5-.03.5c-2.32-.15-4.61-.32-6.87-.51zm13.7.89l.03-.5.02-.5c2.25.11 4.53.21 6.83.28l-.02.5-.02.5c-2.3-.07-4.58-.17-6.84-.28zm13.72.46l.01-.5.01-.5c2.26.04 4.54.07 6.84.08v.5l-.01.5c-2.3-.01-4.58-.04-6.85-.08zm13.7.07v-.5l-.01-.5c2.28-.01 4.57-.05 6.88-.09l.01.49.01.5c-2.32.05-4.61.09-6.89.1zm13.72-.28l-.01-.5-.02-.5c2.27-.07 4.55-.16 6.85-.26l.02.5.02.5c-2.3.1-4.59.19-6.86.26zm13.73-.61l-.03-.5-.03-.5c1.06-.06 2.12-.12 3.18-.19.05-2.99 2.49-5.4 5.5-5.4 2.74 0 5.02 2.01 5.43 4.64 2.11-.17 4.24-.35 6.37-.54l.04.5.05.5c-2.14.19-4.27.37-6.39.54-.07 2.97-2.51 5.36-5.5 5.36-2.73 0-5-1.99-5.43-4.6-1.07.07-2.13.13-3.19.19zm27.34-2.13c2.26-.23 4.54-.46 6.83-.71l-.06-.5-.05-.5c-2.28.25-4.56.49-6.82.71l.05.5.05.5zm13.63-1.49l-.06-.5-.06-.5c2.27-.27 4.54-.55 6.82-.85l.07.5.06.5c-2.28.29-4.56.57-6.83.85zm13.61-1.77l-.07-.49-.07-.5c2.26-.31 4.52-.64 6.79-.98l.08.5.07.49c-2.27.34-4.54.67-6.8.98zm13.57-2.02l-.08-.49-.08-.5c2.25-.36 4.51-.72 6.77-1.11l.08.5.09.49c-2.27.38-4.53.75-6.78 1.11zM2054.5 2275a4.5 4.5 0 1 0 0-9 4.5 4.5 0 0 0 0 9zm-75.5-139.5a4.5 4.5 0 1 1-9 0 4.5 4.5 0 0 1 9 0z"
                  fill="#C3D3FE" fill-opacity=".6"/>
            <path fill-rule="evenodd" clip-rule="evenodd"
                  d="M2220.92 2014.3c.05-.31.08-.62.08-.94v-.08c1.22.36 2.41.77 3.57 1.23l-.18.47-.19.46c-1.06-.42-2.16-.8-3.28-1.14zm-10.57-2.88c-1.9-.13-3.84-.16-5.84-.1l.02.5.01.5c1.89-.05 3.74-.03 5.54.09.06-.34.15-.67.27-.99zM2181 2232.03l.4.3a386.737 386.737 0 0 0 4.1-5.48l-.4-.3-.4-.3c-.68.92-1.36 1.83-2.04 2.75-.68.91-1.37 1.82-2.06 2.72l.4.31zm12.44-16.28c-1.29 1.86-2.61 3.73-3.94 5.59l-.4-.29-.41-.29c1.33-1.86 2.64-3.72 3.93-5.58l.41.28.41.29zm3.42-5.92l.42.28c1.27-1.89 2.52-3.79 3.75-5.68l-.42-.27-.42-.28c-1.23 1.89-2.47 3.78-3.74 5.67l.41.28zm7.42-11.43l.42.27c1.22-1.94 2.41-3.88 3.58-5.81l-.43-.26-.42-.26c-1.17 1.93-2.36 3.86-3.58 5.8l.43.26zm7.05-11.65l.43.25c1.15-1.98 2.28-3.95 3.39-5.92l-.44-.24-.43-.25c-1.11 1.97-2.23 3.93-3.38 5.9l.43.26zm6.67-11.89l.44.23c1.09-2.01 2.15-4.02 3.19-6.03l-.45-.23-.44-.23c-1.04 2-2.09 4.01-3.18 6.02l.44.24zm6.25-12.1l.45.22c1.01-2.05 2-4.1 2.96-6.14l-.45-.21-.45-.22c-.96 2.04-1.95 4.08-2.96 6.13l.45.22zm5.81-12.33l.46.2c.93-2.09 1.84-4.18 2.72-6.26l-.46-.19-.46-.2c-.88 2.07-1.78 4.15-2.72 6.24l.46.21zm5.3-12.55l.47.19c.85-2.13 1.66-4.25 2.45-6.35l-.47-.18-.47-.17c-.78 2.1-1.6 4.21-2.44 6.33l.46.18zm4.75-12.75l.47.16c.75-2.18 1.47-4.34 2.15-6.48l-.48-.15-.47-.15c-.68 2.13-1.39 4.29-2.14 6.46l.47.16zm4.11-13l.48.14c.64-2.22 1.23-4.41 1.79-6.58l-.49-.13-.48-.12c-.55 2.16-1.15 4.35-1.78 6.56l.48.13zm3.36-13.19l.49.11c.5-2.26.95-4.49 1.35-6.69l-.49-.09-.49-.09c-.4 2.19-.85 4.41-1.35 6.65l.49.11zm2.45-13.38l.49.07c.33-2.29.6-4.55.82-6.77l-.5-.05-.5-.05c-.21 2.21-.48 4.45-.81 6.73l.5.07zm1.31-13.53l.5.03c.1-2.32.15-4.6.12-6.82l-.5.01h-.5c.03 2.2-.02 4.46-.12 6.76l.5.02zm-.18-13.55l.5-.04a82.86 82.86 0 0 0-.8-6.76l-.49.07-.5.08c.35 2.16.61 4.39.79 6.69l.5-.04zm-2.18-13.37l.48-.13a57.92 57.92 0 0 0-2.08-6.49l-.46.19-.47.18a57.19 57.19 0 0 1 2.05 6.37l.48-.12zm-4.91-12.55l.44-.24a43.043 43.043 0 0 0-3.75-5.69l-.4.31-.39.31c1.35 1.72 2.57 3.57 3.67 5.55l.43-.24zm-8.29-10.54l.34-.37a42.25 42.25 0 0 0-2.64-2.17c-.91-.68-1.86-1.32-2.82-1.92l-.26.43-.27.42a39.26 39.26 0 0 1 5.32 3.98l.33-.37zm-38.02-9.65l-.06-.5c-2.2.28-4.44.66-6.72 1.13l.11.49.1.49c2.26-.47 4.47-.84 6.63-1.12l-.06-.49zm-13.25 2.74l-.14-.48c-2.14.6-4.31 1.28-6.5 2.04l.16.47.16.48c2.18-.76 4.33-1.43 6.45-2.03l-.13-.48zm-12.85 4.41l-.18-.46c-2.07.83-4.16 1.73-6.27 2.69l.21.46.2.45c2.1-.95 4.18-1.84 6.23-2.67l-.19-.47zm-12.38 5.63l-.22-.45c-2 1.01-4.01 2.07-6.03 3.18l.24.44.24.44c2.01-1.11 4.01-2.16 6-3.16l-.23-.45zm-11.92 6.55l-.26-.43c-1.93 1.14-3.87 2.33-5.81 3.57l.26.42.27.42c1.94-1.23 3.87-2.41 5.79-3.55l-.25-.43zm-11.51 7.28l-.28-.41c-1.87 1.25-3.74 2.55-5.62 3.88l.29.41.29.41c1.87-1.33 3.74-2.62 5.6-3.87l-.28-.42zm-11.12 7.9l-.29-.4c-1.8 1.34-3.61 2.72-5.41 4.13l.31.4.31.39c1.79-1.41 3.59-2.78 5.38-4.12l-.3-.4zm-10.7 8.38l-.32-.39c-1.75 1.43-3.49 2.89-5.24 4.38l.33.38.32.38c1.74-1.49 3.48-2.94 5.22-4.36l-.31-.39zm-10.38 8.84l-.33-.37c-1.69 1.5-3.38 3.02-5.07 4.58l.34.36.34.37c1.68-1.55 3.37-3.07 5.05-4.56l-.33-.38zm-10.02 9.23l-.34-.37c-1.63 1.56-3.27 3.15-4.89 4.76l.35.35.35.36c1.62-1.61 3.25-3.19 4.88-4.74l-.35-.36zm-9.69 9.58l-.36-.35c-1.58 1.62-3.16 3.26-4.73 4.92l.37.34.36.35c1.57-1.66 3.14-3.3 4.71-4.91l-.35-.35zm-9.36 9.89l-.37-.33c-1.53 1.67-3.05 3.36-4.57 5.07l.38.33.37.33c1.52-1.71 3.04-3.39 4.56-5.06l-.37-.34zm-9.05 10.21l-.38-.33c-1.47 1.72-2.94 3.45-4.4 5.2l.39.32.38.32c1.46-1.75 2.92-3.47 4.39-5.18l-.38-.33zm-8.72 10.46l-.39-.31c-1.42 1.76-2.84 3.54-4.25 5.34l.39.31.39.31c1.41-1.8 2.83-3.58 4.25-5.34l-.39-.31zm-10.87 13.16c.69-.92 1.38-1.83 2.07-2.74l.4.31.39.3c-.68.9-1.37 1.81-2.05 2.73-.69.91-1.37 1.82-2.04 2.74l-.41-.3-.4-.29c.68-.92 1.36-1.84 2.04-2.75zm-5.63 8.54l-.41-.29c-1.33 1.87-2.64 3.73-3.93 5.59l.41.29.41.28c1.29-1.86 2.6-3.72 3.93-5.57l-.41-.3zm-7.77 11.22l-.41-.28c-1.27 1.9-2.52 3.79-3.75 5.68l.42.28.42.27c1.22-1.89 2.47-3.78 3.74-5.67l-.42-.28zm-7.41 11.43l-.43-.27c-1.21 1.94-2.4 3.88-3.58 5.82l.43.26.43.25c1.17-1.93 2.36-3.86 3.57-5.79l-.42-.27zm-7.05 11.66l-.44-.26c-1.15 1.98-2.28 3.95-3.38 5.92l.43.25.44.24c1.1-1.96 2.23-3.93 3.38-5.9l-.43-.25zm-6.68 11.89l-.44-.24c-1.08 2.01-2.14 4.03-3.18 6.03l.44.23.45.23c1.03-2 2.09-4.01 3.17-6.02l-.44-.23zm-6.24 12.09l-.45-.22c-1.02 2.05-2.01 4.1-2.97 6.14l.45.22.46.21c.96-2.04 1.94-4.08 2.95-6.13l-.44-.22zm-5.81 12.34l-.46-.21c-.94 2.1-1.84 4.18-2.72 6.26l.46.19.46.2c.87-2.07 1.78-4.15 2.71-6.24l-.45-.2zm-5.31 12.54l-.46-.19c-.85 2.13-1.67 4.25-2.45 6.36l.47.17.47.17c.78-2.09 1.59-4.2 2.44-6.33l-.47-.18zm-4.74 12.75l-.48-.16c-.75 2.18-1.46 4.34-2.14 6.49l.47.15.48.15c.68-2.14 1.39-4.29 2.14-6.46l-.47-.17zm-4.12 13l-.48-.14c-.63 2.22-1.23 4.41-1.78 6.59l.48.12.49.12c.55-2.16 1.14-4.35 1.77-6.55l-.48-.14zm-3.35 13.19l-.49-.11c-.5 2.26-.95 4.49-1.35 6.69l.49.09.49.09c.4-2.19.85-4.41 1.34-6.65l-.48-.11zm-2.45 13.38l-.5-.07c-.32 2.29-.6 4.55-.81 6.77l.49.05.5.05c.22-2.2.49-4.45.81-6.73l-.49-.07zm-1.31 13.53l-.5-.02c-.11 2.32-.15 4.59-.13 6.81h.5l.5-.01c-.02-2.2.02-4.45.13-6.76l-.5-.02zm.17 13.56l-.49.04c.18 2.32.45 4.57.8 6.76l.49-.08.49-.08c-.34-2.16-.61-4.39-.79-6.68l-.5.04zm2.19 13.36l-.49.13c.59 2.26 1.28 4.42 2.08 6.49l.47-.18.46-.18a60.25 60.25 0 0 1-2.04-6.38l-.48.12zm4.9 12.55l-.43.24c1.12 2.03 2.37 3.93 3.75 5.69l.39-.31.4-.3a42.775 42.775 0 0 1-3.67-5.56l-.44.24zm10.6 13.08c-.92-.69-1.8-1.41-2.64-2.17l.33-.37.34-.37a37.429 37.429 0 0 0 5.31 3.98l-.26.42-.26.43c-.97-.6-1.91-1.24-2.82-1.92zm9.09 4.51l-.19.46c2.08.83 4.26 1.49 6.52 2l.11-.49.11-.49c-2.21-.49-4.34-1.14-6.37-1.95l-.18.47zm13.1 2.98l-.04.5c2.21.18 4.48.24 6.81.17l-.01-.5-.02-.5c-2.29.07-4.53.01-6.69-.17l-.05.5zm13.52-.37l.07.49c2.19-.28 4.43-.65 6.71-1.13l-.1-.49-.1-.49c-2.26.47-4.47.85-6.64 1.12l.06.5zm13.26-2.75l.13.48c2.14-.6 4.31-1.28 6.51-2.04l-.16-.47-.17-.47c-2.18.75-4.33 1.42-6.45 2.02l.14.48zm12.84-4.41l.19.46c2.07-.83 4.16-1.73 6.27-2.69l-.21-.45-.21-.46c-2.09.96-4.17 1.85-6.23 2.67l.19.47zm12.38-5.63l.23.45c1.99-1.01 4.01-2.07 6.03-3.18l-.24-.44-.24-.44c-2.02 1.11-4.02 2.16-6 3.17l.22.44zm11.93-6.55l.25.43c1.93-1.14 3.87-2.33 5.82-3.56l-.27-.42-.26-.43c-1.94 1.23-3.88 2.42-5.8 3.55l.26.43zm17.4-10.75c-1.87 1.33-3.75 2.63-5.61 3.88l-.28-.41-.28-.42a283.7 283.7 0 0 0 5.6-3.87l.28.41.29.41zm10.93-8.16c-1.81 1.41-3.61 2.79-5.41 4.14l-.3-.4-.3-.4c1.79-1.34 3.59-2.72 5.39-4.13l.31.4.31.39zm10.55-8.63c-1.74 1.49-3.49 2.94-5.23 4.37l-.32-.39-.32-.38c1.74-1.43 3.48-2.88 5.23-4.36l.32.38.32.38zm4.83-4.86l.33.37c1.69-1.49 3.37-3.02 5.06-4.57l-.34-.37-.34-.37c-1.68 1.55-3.36 3.07-5.04 4.56l.33.38zm10.01-9.22l.35.36c1.63-1.56 3.26-3.15 4.89-4.76l-.35-.35-.35-.36c-1.63 1.61-3.25 3.19-4.88 4.75l.34.36zm9.7-9.59l.36.35c1.58-1.62 3.15-3.25 4.72-4.92l-.36-.34-.36-.34c-1.57 1.65-3.14 3.29-4.72 4.9l.36.35zm9.35-9.89l.37.34c1.53-1.67 3.05-3.36 4.57-5.08l-.37-.33-.38-.33c-1.51 1.71-3.03 3.4-4.55 5.06l.36.34zm9.06-10.21l.38.33c1.47-1.71 2.93-3.45 4.39-5.2l-.38-.32-.38-.32c-1.46 1.75-2.92 3.48-4.39 5.19l.38.32zm8.71-10.46l.39.32c1.43-1.77 2.85-3.55 4.26-5.35l-.39-.31-.4-.31c-1.41 1.8-2.82 3.58-4.25 5.34l.39.31z"
                  fill="#C3D3FE" fill-opacity=".6"/>
            <circle cx="2215.5" cy="2013.5" r="4.5" stroke="#C3D3FE" stroke-opacity=".6" stroke-width="2"/>
        </g>
    </g>
    <defs>
        <filter id="filter0_f_226_1257" x="726" y="-101" width="1744" height="1744" filterUnits="userSpaceOnUse" color-interpolation-filters="sRGB">
            <feFlood flood-opacity="0" result="BackgroundImageFix"/>
            <feBlend in="SourceGraphic" in2="BackgroundImageFix" result="shape"/>
            <feGaussianBlur stdDeviation="300" result="effect1_foregroundBlur_226_1257"/>
        </filter>
        <filter id="filter1_f_226_1257" x="2424" y="-211" width="2544" height="2544" filterUnits="userSpaceOnUse" color-interpolation-filters="sRGB">
            <feFlood flood-opacity="0" result="BackgroundImageFix"/>
            <feBlend in="SourceGraphic" in2="BackgroundImageFix" result="shape"/>
            <feGaussianBlur stdDeviation="500" result="effect1_foregroundBlur_226_1257"/>
        </filter>
        <clipPath id="clip0_226_1257">
            <path fill="#fff" d="M0 0H5644V2600H0z"/>
        </clipPath>
    </defs>
</svg>
