<svg width="213" height="73" fill="none" xmlns="http://www.w3.org/2000/svg">
    <path fill-rule="evenodd" clip-rule="evenodd"
          d="M192.263 3.765l-1.948 1.603 2.308 1.924-3.875-.923-3.545 2.33 1.622-2.758-5.485-.882 6.101-.72.489-1.176 1.201 1.17 3.132-.568zm-2.649 39.206c-.968 1.15-2.657.68-3.307-.548-.81-1.526-1.093-3.138-.165-3.71.52-.32.578-1.323.041-1.686-2.852-1.93-7.775-1.874-11.343-.74-1.623.516-3.611 1.414-4.84 2.669-1.106 1.13-1.504 2.283-1.515 3.169.256-.397.33-.177.357 0 .165 1.052.607 1.255 1.3 4.078.098.397.192.895.276 1.341.084.446.18.693.121.764.127.725-.445.95-.834.188-.405-.649-.743-1.334-.978-2.833-.19-1.204.121-2.14-.227-2.4-.164-.123-.396 1.684-.156 3.212.241 1.537 1.338 3.575 2.061 4.55a17.725 17.725 0 0 0 4.174 4.01c-.093.072-.128.19-.174.285a1.47 1.47 0 0 1 .65-.178c.607-.019 1.24.282 1.295.47.008.1-.384.023-.842-.075-.51-.11-1.122-.032-1.322.208-.453.546.035 1.182.276 1.416-.166.584-.809 1.377-1.473.943-.821-.537-1.499-1.881-.117-2.56a5.813 5.813 0 0 1 1.255-.318c-3.242-1.8-5.203-3.347-6.643-7.046-.356-.915-1.243-4.582-1.001-7.177.466-4.998 4.124-7.286 8.919-8.242 5.012-1 10.568-.663 11.701.866.541.731 1.311.06 2.186.786 1.879 1.41 3.904 4 4.028 7.77.16 4.906-2.254 7.273-2.138 6.477.106-.729.294-2.688-.108-4.318-.842-3.42-1.543-4.87-3.891-6.675-.261-.244-.406-.012-.129.34 1.292 1.448 1.737 2.243 2.563 4.964zm-.711 6.383c-.204 1.42-.852 2.47-1.51 3.114.357.237.863.902 1.072 1.263-.789-.089-1.736.29-2.591 1.368-.292-.138-.6-.695-.49-.998.245-.676.948-1.08 1.754-1.125.255-.014-.02-.279-.127-.277-.629.008-1.787.337-2.046 1.317-.483-.305-1.701.61-2.02 1.038-.746 1.001-.933 1.594-2.496 1.852-1.557.257-2.24-.105-2.798-.86.171-1.105-.721-1.365-1.009-1.526-.29-.163-1.478-.378-1.894.273-1.115-1.17-3.444-3.911-3.612-5.661-.069-.721.221-.664.097-2.288-.077-.996-.376-1.82-.447-2.083-.098-.359-.664-.472-.712-.835-.094-.714-.054-1.464.444-1.592.72-.185 1.442-.042 2.136.187-.32.09-.824.392-1.109.739-.268.326-.472.538-.615.728-.102.137.327.221.563.187.574-.085.604-.958 1.235-1.043.095.363.288.663.618.753l.834-.116c.213-.146.31-.394.29-.726.482-.087.932.251 1.108.689.078.193.075.356.129.371.104.031.016-1.193-.456-1.763-.639-.77-1.471-.971-2.959-.971-.595 0-1.763-.263-2.235.107-.23.18-.242.465-.339.614-.065.004-.106.005-.108-.002a3.486 3.486 0 0 1 1.075-3.386c1.026-.89 3.015-1.536 4.2-1.935 2.797-.943 5.312-1.133 6.735-.7 1.036.317 1.966.91 1.635 1.514-.126.23-.405-.023-.712-.05-1.052-.094-.928.408-3.523 1.878-.26.148-.332.31-.828.433-.165.041-.3.3-.282.664.017.346.54.21.364.402-.176.192-.373.451-.385.748-.014.387.05.59.056.811 0 .033.049.78.35.902.27.111.586-.392.59-.743-.092-.552.808-1.527.913-1.162.056.193-.351.604-.039.73.137.085.767-.069.867-.25.027-.051-.38-.068-.359-.127.196-.178.478-.745.698-.872-.031.505.213.827.713.908.069.012.134.017.194.018l.55-.19c.167-.163.242-.412.244-.686.179.026.514.108.625.29.458-.229.885-.584 1.333-1 .287-.267.316.295.363.485.408 1.642.94 2.599 1.936 3.071a10.196 10.196 0 0 0-.51 1.56c-.161.727.601 1.53.669 2.719.05.874-.187 1.995-.091 1.887.483-.23.633-1.477.597-2.43-.021-.562-.14-1.105.132-1.172 1.073-.265 1.403 1.416 1.183 2.95zm-13.846-.068c-.019.239-.093.562-.115.874-.023.312.005.613-.051.805-.049.168-.706-.16-.507-.54.198-.378.712-1.616.673-1.139zm8.241-2.914c.607.252 1.638.81 2.001 1.276.262.335.151.598.113.725-.058.19-1.193-1-2.133-1.458-1.139-.556-1.8-.465-1.894-.617-.11-.176 1.168-.235 1.913.074zm-35.514-10.928c0-15.37 12.111-28.048 27.433-29.288-12.795 2.366-22.528 13.448-22.528 26.693 0 .436.011.87.032 1.3 2.584-11.199 12.806-19.603 24.962-19.603 14.097 0 25.594 11.3 25.594 25.155s-11.497 25.155-25.594 25.155c-16.349 0-29.899-13.239-29.899-29.412zM169.14 61.8l1.038-1.323c5.796 2.97 14.321-.387 19.275-4.379l.934 1.136 2.431-2.245-1.064-1.072c5.117-5.898 5.395-12.822 3.467-19.25-.245-.748-.498-.54-.367.215 1.161 6.367.402 12.596-4.085 17.465-3.959 4.298-8.774 7.007-14.81 7.383-4.233.263-8.566-2.373-9.998-4.636-2.708-4.281-3.176-7.484-3.395-10.484l-1.116-.738c-.304 6.01 1.388 11.398 5.886 14.87l-1.006 1.134 2.81 1.924zM156.063 40.92c-.407 1.276-.736 7.731 5.367 9.971.249.091-2.153-2.914-2.741-5.102-.5-1.86.097-3.3.203-3.335-.665-.341-1.88-1.2-2.403-1.8-.496-.57-1.348-3.303.372-5.842 2.438-3.598 6.652-5.448 10.455-6.6 4.131-1.25 11.509-1.914 17.389-1.057 6.533.952 9.696 2.898 11.001 3.784-.051.047-.272.303-.482.468.34 2.914 1.44 5.894 3.318 8.564.579.823 1.712 1.302 1.286.533-.423-.762-1.3-3.058-1.823-5.524-.357-1.688-.439-3.456-.536-4.868-.127-1.866-2.068-.597-2.64-1.141-.99-.943-2.464-1.888-3.993-2.63-1.349-.656-2.421-.879-2.274-1.44.116-.444 2.083-.293 3.505.113.635.181.323-3.703-5.842-6.947-2.702-1.421-6.608-2.19-11.797-1.058-.643-.22-1.977-.37-2.83-.2-2.068.418-3.544 1.222-4.928 2.77-1.489-.027-4.3 3.179-5.402 4.435-.304.02-.981.444-1.271.637-2.255 1.5-3.024 7.532-4.117 9.654-1.299 1.768-1.626 5.242.183 6.615zm11.053 14.56c-2.258-2.732-2.798-5.245-3.004-5.787-.409-1.081-1.134-4.555-.605-4.729.114-.037 1.132 1.37 1.551 1.975.538.779 1.321 2.03.786 2.473-.51.421.001 2.53 1.194 4.75 1.383 2.575 3.879 3.644 4.039 3.923.256.446-2.198-.472-3.961-2.604zm12.205-26.96l.224.62c-5.914-.048-16.11 1.909-20.176 6.408-1.357 1.502-2.023 3.703-1.1 4.197-.182-1.124.635-2.357 1.646-3.654 2.327-2.985 9.309-5.009 13.308-5.608 4.704-.704 9.341-.746 13.106-.057 2.204.404 4.693 1.137 5.895 1.815.33-.582-2.51-2.696-10.123-3.059l-.061-1.867c-6.715-.43-16.145.356-22.864 5.987-.517.433-.822 1.39-.56 1.746 4.428-4.26 12.836-6.6 20.705-6.528zm-5.847 14.411c.09 0 .164.073.164.162a.163.163 0 0 1-.164.162.164.164 0 0 1-.165-.162c0-.09.074-.162.165-.162zm8.086-2.13c.091 0 .165.073.165.162a.164.164 0 0 1-.165.162.163.163 0 0 1-.164-.162c0-.089.074-.161.164-.161zm1.456-1.835c.96 0 1.204.358 1.204.695 0 .337-.434.585-1.459.265-1.024-.32-1.565.028-1.637-.152-.085-.217.931-.808 1.892-.808zm-5.124 9.875c.454-.08.549-.415.98-.844.181-.18.126-.395-.002-.822-.153-.512-.349-1.083-.225-1.257.183-.256.495.062.953.048.566-.016.86.23 1.338.505.151.087.722.984.2 1.371-.597.442-1.008.834-1.04.915-.121.302-.727.795-1.69.766-.439-.013-.7-.08-.929-.185-.499-.226-.888-.143-1.08-.267-.125-.081-.365-.286-.151-.508.03-.03.255.179.648.31.286.096.69.022.998-.032zm2.087-2.492c.362 0 .561.241.561.547 0 .306-.384.703-.702.703-.182 0-.35.023-.415-.431-.019-.13-.097-.247-.135-.357-.144-.417.329-.462.691-.462zm-.711 4.888c.472-.102.33-.311 1.239-.725.428-.195.848-.235 1.305-.46.815-.404 1.638-.77 2.176-.895.291-.067.483.098.594.19-.289.15-.592.45-.974.677-.398.236-.761.732-.948 1.065-.193.345-.241.826-.495 1.16-.444.58-2.393 1.483-3.879.943-.911-.331-1.165-1.095-1.508-1.184-.793-.206-.826-.147-.812-.483.181.031.486.115 1.217.03.383-.046.836-.276 1.202-.315.37-.04.697.038.883-.003zm.124.693c1.142-.32 2.199-1.199 2.375-.872.177.326-.609 1.253-2.251 1.575-.909.177-1.806-.046-1.89-.325-.1-.336.382.011 1.766-.378zm-6.403-32.305c.506-.005.834-.132 1.226-.186.474-.066 1.002-.06 1.525-.061.764-.002 1.241.504 1.246.951.011 1.124-.32 1.502-.976 1.924-.547.352-1.762.403-2.489.424-.106.328-.167.55-.058.702.052.072.254.002.236.064l-.071.254-1.613.11.05-.259c.089-.075.422-.029.512-.417l.76-3.289-.333.003-.015-.22zm1.272.175c.281 0 1.405-.292 1.584.212.16.45.008 1.834-.775 2.128-.58.218-1.008.245-1.451.278l.642-2.619zm-4.052.359c1.117-.011.985 1.307.314 1.232-.759-.084-.186-.691-.604-.779-.569-.118-.916.662-1.139 1.343-.234.713-.657 1.805-.246 2.061.257.16 1.12.168 1.311-.698.122-.557 1.065-.58.895-.053-.307.954-1.397 1.219-2.13 1.248-1.214.05-1.269-1.566-.896-2.34.636-1.318 1.246-2.002 2.495-2.014zm-4.978 1.985c.57 0 .376 1.151-.155 1.07-.479-.073-.009-.404-.321-.54-.372-.162-.858 1.174-.93 1.365-.26.692-.563 1.903-.362 2.017.157.09.766.102.917-.764.097-.557.696-.471.657-.26-.174.968-1.178 1.432-1.759 1.467-.814.049-.626-1.35-.298-2.112.329-.763 1.26-2.243 2.251-2.243zm-2.994 2.003c.533 0 .217 1.119-.28 1.037-.448-.073.251-.545-.041-.68-.348-.163-.886 1.38-.953 1.57-.244.693-.724 1.686-.535 1.8.146.09.716.102.857-.764.091-.557.579-.471.543-.26-.163.968-1.081 1.44-1.574 1.467-.584.033-.244-1.284.022-1.905s1.21-2.265 1.961-2.265z"
          fill="#3C2B99"/>
    <path d="M190.313 5.367l1.948-1.603-3.132.569-1.201-1.171-.489 1.175-6.102.72 5.486.883-1.622 2.759 3.545-2.331 3.876.923-2.309-1.924zm12.513 5.872l1.311 1.581c.313.378.523.71.631.996.097.265.12.477.067.636-.048.164-.168.325-.358.483l-.591.494c-.177.147-.357.212-.539.196-.178-.021-.375-.115-.59-.281l-.027.022c.159.275.235.538.229.79a.748.748 0 0 1-.276.61l-.74.618c-.322.268-.649.337-.98.206-.331-.132-.73-.48-1.198-1.043l-1.351-1.629 4.412-3.679zm-.602 3.212c.23.277.434.44.614.49.188.052.372.002.554-.15l.516-.43c.168-.14.235-.3.201-.48-.034-.179-.169-.412-.407-.698l-.763-.92-1.495 1.247.78.94zm-2.003 1.717c.275.331.503.537.684.617.181.08.353.051.516-.085l.667-.556c.117-.098.19-.2.216-.307a.492.492 0 0 0-.025-.348 1.706 1.706 0 0 0-.172-.306 4.246 4.246 0 0 0-.275-.359l-.803-.968-1.611 1.344.803.968zm2.882 5.128c-.204-.353-.329-.645-.375-.878a.825.825 0 0 1 .111-.619c.121-.18.34-.362.656-.546.28-.163.519-.25.716-.263a.8.8 0 0 1 .572.21c.179.156.37.41.574.763l.644 1.111.589-.343c.137-.08.226-.169.264-.266.047-.096.049-.217.006-.362a2.833 2.833 0 0 0-.27-.571c-.222-.384-.498-.79-.829-1.22l.505-.293c.339.479.627.923.864 1.332.248.43.399.765.451 1.009.057.24.029.444-.085.613-.113.168-.336.35-.667.542l-2.615 1.523-.386-.667.352-.205c-.318.11-.677-.18-1.077-.87zm.518-.148c.145.25.286.453.422.605.179.204.353.256.521.158l1.009-.587-.617-1.066c-.127-.22-.237-.368-.329-.444a.32.32 0 0 0-.294-.085c-.11.023-.267.094-.471.212a1.584 1.584 0 0 0-.397.303.44.44 0 0 0-.103.317c.013.116.072.265.179.45l.08.137zm1.261 3.17a1.268 1.268 0 0 1-.07-.25l.633-.251c.014.083.036.163.067.24.093.236.337.356.731.358.402.005 1.066-.177 1.991-.546l.937-.373 1.074 2.711-3.977 1.584-.294-.741 3.492-1.391-.519-1.31-.575.229c-.904.36-1.661.537-2.272.533-.605-.007-1.011-.272-1.218-.794zm2.146 6.548c-.3-1.277-.025-2.016.824-2.216l1.644-.388c.505-.119.9-.06 1.186.176.292.24.515.686.667 1.336.145.616.142 1.084-.006 1.404-.148.327-.483.551-1.005.674l-.921.217-.657-2.804-.629.148c-.287.067-.47.217-.549.448-.079.231-.069.557.03.977.093.397.272.85.536 1.358l-.594.14a7.312 7.312 0 0 1-.526-1.47zm2.715.307l.654-.154c.252-.06.406-.178.462-.355.062-.173.05-.443-.036-.811-.084-.357-.193-.604-.329-.742-.129-.14-.32-.18-.573-.12l-.654.154.476 2.028zm2.28 2.407l.063.796-1.771.142.168 2.103 1.771-.142.064.795-4.266.343-.063-.795 1.912-.154-.168-2.103-1.912.153-.064-.795 4.266-.343zm-.34 6.608l.109-1.503.582.043-.276 3.793-.582-.042.109-1.495-3.686-.27.058-.795 3.686.27zm-.743 8.253l-4.167-.974.181-.777 3.074.719-2.568-2.895.18-.777 4.168.974-.181.778-3.177-.743 2.661 2.962-.171.733zm-.537 1.688l-.302.739-1.644-.678-.8 1.952 1.644.677-.302.738-3.958-1.63.302-.738 1.775.73.799-1.95-1.774-.732.302-.738 3.958 1.63zm-2.233 5.205l-.448.681-1.291-.854-.458.695c-.201.306-.382.533-.543.681-.165.154-.331.235-.499.244-.164.012-.346-.048-.548-.182l-.738-.488c-.517-.342-.488-.95.087-1.823l.867-1.317 3.571 2.363zm-2.103 3.197l-.438.666-3.572-2.363.438-.666 3.572 2.363zm-1.878-4.004a2.122 2.122 0 0 0-.233.483c-.069.202-.001.372.206.508l.45.298c.143.094.264.146.364.156.096.014.192-.018.286-.098.091-.074.2-.207.327-.4l.404-.614-1.409-.932-.395.6zm-2.171 10.885l-1.626 1.254c-.388.3-.726.497-1.016.594-.268.087-.48.102-.636.043-.161-.054-.317-.18-.468-.377l-.469-.611c-.14-.183-.199-.365-.175-.548.027-.177.128-.37.302-.58l-.021-.028c-.28.149-.545.215-.795.2a.744.744 0 0 1-.598-.3l-.588-.766c-.255-.333-.311-.662-.167-.99.143-.326.505-.713 1.084-1.16l1.675-1.291 3.498 4.56zm-3.178-.725c-.285.22-.455.418-.512.596-.058.187-.015.373.129.56l.409.535c.133.173.29.246.47.22.18-.028.417-.155.711-.382l.946-.73-1.186-1.545-.967.746zm-1.634-2.073c-.341.263-.555.484-.641.662-.086.179-.065.352.065.52l.528.69a.6.6 0 0 0 .298.228c.104.04.22.035.348-.011a1.69 1.69 0 0 0 .311-.162c.087-.052.21-.139.369-.261l.995-.768-1.278-1.665-.995.767zm-3.819 1.99c.079-.04.159-.07.241-.091l.303.611c-.082.021-.16.05-.234.087-.227.113-.326.366-.295.76.027.402.262 1.05.705 1.945l.447.906-2.606 1.295-1.9-3.844.713-.355 1.668 3.376 1.26-.626-.275-.556c-.432-.874-.67-1.616-.716-2.227-.042-.605.187-1.032.689-1.282zm-5.847 2.48c.389-.12.702-.175.938-.168a.82.82 0 0 1 .576.25c.147.159.274.413.381.764.095.31.126.563.093.759a.799.799 0 0 1-.334.51c-.191.14-.482.27-.87.389l-1.226.376.199.653c.047.153.113.259.2.319.082.067.199.096.35.087.145-.007.351-.052.616-.133.422-.13.88-.308 1.372-.533l.171.56c-.543.221-1.039.402-1.49.54-.474.146-.834.217-1.082.212-.246.002-.438-.072-.576-.221-.138-.15-.264-.408-.376-.775l-.886-2.9.736-.225.119.39c-.035-.336.328-.62 1.089-.854zm.026.539a3.682 3.682 0 0 0-.683.275c-.239.129-.329.286-.272.473l.342 1.119 1.175-.361c.242-.075.411-.148.506-.22a.323.323 0 0 0 .149-.27c.003-.111-.031-.28-.1-.506a1.56 1.56 0 0 0-.204-.457.435.435 0 0 0-.284-.172c-.115-.014-.274.01-.477.072l-.152.047zm-7.386 1.592l-.237-1.695.675-.094.164 1.176 3.266-.46-.165-1.176.674-.094.237 1.694-.271.038c-.128.018-.24.133-.336.343-.095.216-.153.546-.174.991-.02.45.017 1.012.111 1.686l.115.825-2.941.413-.522-3.73-.596.083zm1.384-.195l.449 3.214 1.462-.206-.086-.615a8.84 8.84 0 0 1-.097-1.588c.015-.444.111-.807.285-1.088l-2.013.283zm-6.22 3.93l.078-4.29.796.014-.058 3.165 2.285-3.123.796.014-.079 4.29-.795-.014.06-3.271-2.332 3.229-.751-.014zm-1.792-.115l-1.258-.245-.613-3.677-.035-.007-1.852 3.198-1.215-.236.814-4.212.721.14-.677 3.499.044.008 1.969-3.247.79.153.669 3.76.044.009.676-3.499.738.144-.815 4.212zm-10.75-3.014l1.537-4.004.743.286-1.134 2.954 3.213-2.152.742.287-1.536 4.005-.743-.287 1.172-3.053-3.293 2.235-.701-.27zm-1.529-.714l-.694-.39.225-.403c-.235.288-.748.209-1.54-.237-.473-.266-.774-.568-.903-.905a1.072 1.072 0 0 1 .062-.961l.862-1.539a1.76 1.76 0 0 1 .425-.523c.154-.13.308-.213.463-.248.141-.035.309-.032.502.009.188.038.366.094.534.169.153.065.332.156.538.272.226.127.419.27.581.428.153.161.224.306.212.435l.992-1.77.693.39-2.952 5.273zm.194-4.294a2.959 2.959 0 0 0-.639-.288.574.574 0 0 0-.43.042c-.119.069-.238.209-.356.42l-.771 1.376c-.13.232-.196.422-.197.57a.527.527 0 0 0 .182.397c.116.12.31.256.582.41.273.153.493.25.659.29a.52.52 0 0 0 .427-.055c.125-.08.252-.234.382-.466l.771-1.376c.115-.206.172-.38.171-.524a.613.613 0 0 0-.195-.394 3.07 3.07 0 0 0-.586-.402zm-3.771-3.135c.298.232.513.416.645.555.135.135.25.295.345.48.1.19.125.389.077.597-.053.213-.182.453-.387.72l-.907 1.18a2.27 2.27 0 0 1-.504.494c-.174.12-.337.191-.489.215a.838.838 0 0 1-.456-.061 2.614 2.614 0 0 1-.511-.25c-.175-.12-.354-.251-.536-.392a6.536 6.536 0 0 1-.529-.444 2.724 2.724 0 0 1-.345-.379.924.924 0 0 1-.19-.45c-.015-.145.011-.319.077-.521a2.4 2.4 0 0 1 .361-.628l.907-1.18c.306-.397.621-.617.943-.658a.949.949 0 0 1 .457.073c.173.066.339.15.499.252.184.128.365.26.543.397zm-.319.415a5.748 5.748 0 0 0-.438-.317.951.951 0 0 0-.318-.123.405.405 0 0 0-.316.047c-.105.06-.218.167-.336.322l-1.059 1.375c-.162.21-.253.383-.274.516a.474.474 0 0 0 .12.395c.096.127.275.291.536.494.261.202.468.335.619.4.143.066.278.07.405.011.123-.054.266-.186.428-.397l1.058-1.375c.119-.155.197-.289.232-.403a.439.439 0 0 0-.041-.323.951.951 0 0 0-.2-.278 5.638 5.638 0 0 0-.416-.344zm-5.318.592l-1.306-1.348a4.752 4.752 0 0 1-.59-.711c-.131-.194-.195-.367-.193-.517a.724.724 0 0 1 .087-.356c.056-.096.151-.21.286-.34l.108-.106c.165-.16.329-.238.491-.23.163.006.362.088.597.246l.025-.025c-.392-.574-.416-1.028-.074-1.361l.184-.18c.207-.201.411-.317.612-.348.192-.03.406.025.641.166.236.142.52.384.853.728l1.348 1.393-3.069 2.989zm-.062-2.66c-.164-.169-.3-.284-.407-.344-.112-.056-.212-.07-.3-.042-.092.032-.201.11-.328.234l-.038.037c-.114.11-.183.21-.205.298-.026.083-.006.18.059.289.056.11.169.251.337.425l.782.808.901-.877-.801-.827zm1.339-1.353a2.775 2.775 0 0 0-.475-.414c-.124-.077-.232-.108-.324-.093-.096.02-.201.085-.315.196l-.203.198a.46.46 0 0 0-.137.393c.023.16.167.377.434.652l.856.884.99-.963-.826-.853zm-5.041-.038l-.467-.646 1.438-1.047-1.236-1.707-1.438 1.047-.468-.646 3.463-2.521.467.646-1.552 1.13 1.236 1.707 1.552-1.13.468.646-3.463 2.52zm-3.275-4.643l-.359-.731 1.388-.686-.367-.747a3.768 3.768 0 0 1-.312-.815c-.048-.22-.034-.405.043-.555.073-.148.217-.275.434-.382l.793-.391c.555-.274 1.063.058 1.524.997l.695 1.415-3.839 1.895zm-1.687-3.436l-.351-.716 3.839-1.895.351.716-3.839 1.895zm4.394.4a2.103 2.103 0 0 0-.297-.446c-.139-.162-.319-.188-.542-.078l-.483.239c-.154.075-.26.154-.318.235-.061.077-.082.176-.061.297.017.117.077.278.179.485l.324.66 1.515-.747-.317-.645zm-7.926-8.473l.363 1.916-.59.112-.887-4.677.591-.112.363 1.916 5.046-.962.16.845-5.046.962zm4.489-6.214c.048 1.311-.364 1.983-1.236 2.015l-1.687.062c-.519.019-.895-.115-1.13-.402-.24-.293-.373-.773-.397-1.44-.023-.633.069-1.092.277-1.377.208-.292.579-.447 1.115-.467l.946-.035.105 2.88.645-.024c.294-.01.502-.122.624-.333.123-.212.176-.533.16-.964-.015-.408-.103-.886-.265-1.437l.61-.022c.138.54.215 1.054.233 1.544zm-2.604-.827l-.672.024c-.259.01-.433.096-.521.26-.095.156-.135.424-.121.802.013.366.073.63.179.792.1.162.28.238.539.228l.671-.024-.075-2.082zm-1.781-2.747l.093-.792.457.054c-.356-.107-.48-.613-.374-1.517.063-.54.225-.935.486-1.184.254-.25.558-.353.909-.312l1.747.206c.252.03.467.094.645.192a1.1 1.1 0 0 1 .406.334c.087.117.149.273.186.468.037.19.053.375.05.56a6.043 6.043 0 0 1-.044.601 2.783 2.783 0 0 1-.172.703c-.089.204-.195.325-.318.364l2.01.238-.093.792-5.988-.707zm4.027-1.47c.036-.306.043-.54.02-.703a.572.572 0 0 0-.204-.381c-.109-.085-.283-.141-.523-.17l-1.563-.184c-.264-.03-.464-.019-.601.037a.524.524 0 0 0-.296.322c-.065.153-.116.385-.153.696-.036.31-.041.551-.013.721a.522.522 0 0 0 .214.374c.121.085.313.144.576.175l1.563.184c.234.028.417.014.548-.042a.612.612 0 0 0 .288-.332c.06-.16.108-.392.144-.697zm1.418-4.543c-.355 1.263-.952 1.776-1.792 1.54l-1.625-.46c-.499-.14-.817-.384-.952-.73-.14-.352-.12-.85.061-1.492.171-.61.399-1.018.684-1.226.286-.213.688-.247 1.204-.102l.911.257-.779 2.774.621.175c.284.08.516.038.697-.125.18-.164.329-.454.446-.87.11-.392.172-.875.186-1.448l.587.166a7.271 7.271 0 0 1-.249 1.541zm-2.227-1.586l-.647-.183c-.25-.07-.441-.042-.575.086-.138.12-.258.363-.361.727-.099.353-.122.623-.071.81.046.184.194.312.444.382l.647.183.563-2.005zm-.88-3.283l.356-.714 3.305 1.659.748-1.498-3.305-1.66.36-.72 3.305 1.658.748-1.498-3.305-1.659.357-.713 3.826 1.92-2.568 5.145-3.827-1.92zm3.57-6.595l.488-.63 1.46 1.135a.384.384 0 0 0 .088-.2 1.613 1.613 0 0 0-.017-.283l-.361-2.166.596-.77.408 2.785c.061-.05.191-.087.389-.112.202-.03.516-.06.941-.088l1.779-.13-.602.777-1.763.11a2.588 2.588 0 0 0-.629.105 1.064 1.064 0 0 0-.257.114.397.397 0 0 0-.107.096l-.06.077 1.516 1.18-.488.63-3.381-2.63zm7.832-2.38a6.11 6.11 0 0 1-.654.544c-.155.111-.332.198-.53.261a.827.827 0 0 1-.6-.024c-.201-.088-.415-.256-.643-.504l-1.006-1.095a2.268 2.268 0 0 1-.402-.58 1.198 1.198 0 0 1-.129-.52.84.84 0 0 1 .136-.44c.095-.168.205-.322.332-.464.148-.152.306-.307.475-.463.226-.209.401-.358.525-.45.125-.099.269-.191.431-.277a.92.92 0 0 1 .474-.112c.145.01.312.065.5.164.187.108.373.262.557.462l1.006 1.095c.34.37.503.717.49 1.043a.951.951 0 0 1-.149.44c-.094.159-.205.309-.331.45-.157.161-.318.318-.482.47zm-.354-.385c.182-.168.31-.294.385-.38a.957.957 0 0 0 .174-.293.408.408 0 0 0 .007-.32 1.212 1.212 0 0 0-.26-.387l-1.174-1.278c-.18-.195-.334-.314-.461-.357a.469.469 0 0 0-.409.052c-.141.074-.332.223-.575.447-.243.225-.409.406-.498.545a.467.467 0 0 0-.078.398c.032.131.138.294.318.49l1.174 1.277c.132.144.251.243.357.297.107.046.215.05.325.014a.958.958 0 0 0 .307-.151 5.91 5.91 0 0 0 .408-.354zm.306-5.352l1.568-1.03c.321-.21.59-.358.809-.445.215-.091.396-.122.542-.09.139.028.25.08.333.152.082.073.175.189.279.347l.082.126c.126.193.17.369.133.527-.038.16-.156.34-.356.54l.019.03c.637-.276 1.086-.214 1.348.187l.14.215c.158.242.233.465.225.668-.007.195-.102.395-.285.6-.183.205-.475.439-.874.7l-1.621 1.063-2.342-3.59zm2.615.445a1.98 1.98 0 0 0 .415-.335c.076-.1.109-.195.098-.287a.985.985 0 0 0-.166-.368l-.029-.044c-.087-.134-.171-.22-.253-.258-.076-.042-.174-.041-.294.002a2.014 2.014 0 0 0-.48.251l-.94.617.687 1.053.962-.63zm1.07 1.576c.232-.152.397-.282.496-.389.099-.107.15-.208.153-.301-.001-.098-.045-.214-.132-.348l-.155-.237a.46.46 0 0 0-.359-.21c-.16-.008-.4.093-.721.304l-1.028.674.755 1.157.991-.65zm4.474-1.7a6.025 6.025 0 0 1-.795.301 1.877 1.877 0 0 1-.586.074.826.826 0 0 1-.559-.219c-.161-.148-.31-.377-.444-.685l-.597-1.365a2.294 2.294 0 0 1-.191-.68 1.212 1.212 0 0 1 .047-.534.83.83 0 0 1 .272-.371c.143-.128.298-.238.464-.33.189-.096.389-.19.6-.283.281-.123.495-.208.642-.253a2.75 2.75 0 0 1 .497-.122.923.923 0 0 1 .485.048c.134.058.274.164.419.32.142.163.268.369.377.618l.596 1.364c.201.46.243.842.124 1.146a.952.952 0 0 1-.283.366c-.141.12-.294.226-.46.319-.2.1-.403.196-.608.286zm-.21-.479c.227-.1.389-.177.487-.233a.951.951 0 0 0 .261-.221.405.405 0 0 0 .11-.3 1.226 1.226 0 0 0-.12-.45l-.696-1.592c-.106-.244-.213-.407-.319-.489a.47.47 0 0 0-.404-.084c-.157.024-.386.102-.689.235-.302.133-.518.25-.647.352a.468.468 0 0 0-.204.351c-.012.135.035.324.142.567l.696 1.592c.078.178.158.31.241.397a.439.439 0 0 0 .303.119.944.944 0 0 0 .338-.043c.108-.034.275-.101.501-.2zm5.609-5.876l1.066 4.156-.771.198-.786-3.065-1.372 3.622-.77.199-1.066-4.156.771-.199.812 3.168 1.388-3.735.728-.188zM165.153.95c-.382.1-.709.08-.982-.057-.274-.143-.462-.379-.564-.706l.633-.164c.155.437.423.605.806.507.376-.097.53-.375.461-.833l.634-.164c.072.33.02.624-.157.883-.171.258-.448.436-.831.534zM42.635 17.575c.743.186 1.39.499 1.94.938.551.44 1.033 1.038 1.446 1.797l2.188 4.052h-2.002l-1.962-3.513c-.385-.68-.777-1.191-1.176-1.537-.4-.36-.867-.606-1.404-.74-.523-.146-1.19-.219-2.003-.219v6.01H37.64V11.404h2.023v5.59c.826 0 1.466-.073 1.92-.22.454-.16.867-.499 1.239-1.018l3.2-4.352h2.188l-3.82 4.851c-.508.639-1.093 1.078-1.754 1.318zM52.41 24.5l-3.86-9.802h2.023l2.787 7.885h.041l2.519-7.885h1.878l-5.016 13.814h-1.94l1.568-4.012zm6.73-.12c-.207 0-.407-.02-.6-.06v-1.537c.193.04.386.06.579.06.591 0 1.06-.413 1.404-1.238.357-.838.536-2.382.536-4.631v-2.276h6.792v9.662h-1.858v-8.484H62.71v1.397c0 2.196-.269 3.933-.805 5.21-.537 1.265-1.46 1.897-2.767 1.897zm11.923-9.682h1.858v3.494h2.56c.854 0 1.528.06 2.023.18.51.119.881.332 1.115.638.234.293.351.712.351 1.258v1.996c0 1.397-1.218 2.096-3.654 2.096h-4.253V14.7zm4.13 8.504c.398 0 .811-.053 1.238-.16.482-.12.722-.459.722-1.018v-1.217c0-.386-.055-.679-.165-.879-.096-.2-.282-.339-.557-.419-.262-.08-.66-.12-1.197-.12H72.9v3.813h2.291zm8.53-7.186h-3.51v-1.318h8.857v1.318h-3.49v8.344h-1.857v-8.344zm9.956 8.484l-3.86-9.802h2.022l2.787 7.885h.042l2.518-7.885h1.879l-5.017 13.814h-1.94l1.569-4.012zm7.121-9.802h1.858v1.038c.152-.825 1.287-1.238 3.407-1.238 1.266 0 2.222.26 2.869.779.647.506.97 1.158.97 1.956v3.973c0 .572-.089 1.071-.268 1.497-.165.426-.385.759-.661.998-.247.226-.591.406-1.032.54-.426.132-.853.219-1.28.259-.385.04-.853.06-1.404.06a6.603 6.603 0 0 1-1.672-.2c-.495-.146-.805-.353-.929-.619v4.572h-1.858V14.699zm4.501 8.644c.715 0 1.259-.047 1.631-.14.385-.106.66-.293.825-.559.166-.266.248-.672.248-1.217v-3.554c0-.599-.082-1.045-.248-1.337-.165-.293-.44-.486-.825-.58-.372-.106-.923-.159-1.652-.159-.729 0-1.287.053-1.672.16-.372.093-.64.286-.805.579-.165.292-.248.738-.248 1.337v3.553c0 .533.083.939.248 1.218.179.266.461.453.846.56.386.092.936.139 1.652.139zm7.454-8.644h1.858v4.013h4.914v-4.013h1.858v9.662h-1.858V20.03h-4.914v4.332h-1.858V14.7zm16.087 9.862c-.881 0-1.542-.034-1.982-.1a4.499 4.499 0 0 1-1.321-.38 1.902 1.902 0 0 1-.991-.958c-.207-.452-.31-1.058-.31-1.816v-3.354c0-.599.076-1.125.227-1.577.152-.453.351-.805.599-1.058.206-.226.516-.4.929-.52a6.25 6.25 0 0 1 1.301-.259c.495-.026 1.011-.04 1.548-.04.716 0 1.252.02 1.61.06a6.62 6.62 0 0 1 1.177.2c.427.12.757.3.991.539.234.24.433.585.599 1.038.151.466.227 1.005.227 1.617v3.354c0 1.131-.269 1.956-.806 2.475-.22.213-.536.38-.949.5-.413.119-.84.199-1.28.239-.523.026-1.046.04-1.569.04zm0-1.178c.578 0 .998-.013 1.259-.04.262-.027.516-.1.764-.22a.923.923 0 0 0 .516-.519c.11-.252.165-.598.165-1.038v-3.912c0-.6-.075-1.032-.227-1.298-.151-.28-.413-.46-.784-.539-.358-.093-.922-.14-1.693-.14s-1.342.047-1.714.14c-.357.08-.612.26-.763.539-.152.266-.227.699-.227 1.298v3.912c0 .44.048.786.144 1.038.11.24.289.413.537.52.248.12.502.192.764.219.261.027.681.04 1.259.04zM0 32.139h6.31v7.544H4.92v-6.516H1.388v6.516H0V32.14zm8.811 0H10.2v.81c.113-.644.962-.966 2.545-.966.947 0 1.661.202 2.145.608.483.395.725.904.725 1.527v3.102c0 .447-.067.837-.2 1.17-.124.332-.289.592-.494.779-.185.177-.443.317-.772.42a4.488 4.488 0 0 1-.956.203 9.956 9.956 0 0 1-1.05.047c-.452 0-.868-.052-1.249-.156-.37-.114-.602-.275-.694-.483v3.57H8.81V32.138zm3.364 6.75c.534 0 .94-.037 1.218-.11.288-.083.494-.229.617-.436.124-.208.185-.525.185-.951v-2.775c0-.468-.061-.816-.185-1.044-.123-.229-.329-.38-.617-.452-.277-.084-.689-.125-1.234-.125s-.962.041-1.25.125a.909.909 0 0 0-.601.452c-.124.228-.185.576-.185 1.044v2.775c0 .415.061.732.185.95.133.209.344.354.632.437.288.073.7.11 1.235.11zm8.733.95c-.658 0-1.152-.026-1.481-.078a3.255 3.255 0 0 1-.987-.296 1.453 1.453 0 0 1-.74-.748c-.155-.354-.232-.826-.232-1.419V34.68c0-.467.056-.878.17-1.231.113-.353.262-.629.447-.826.154-.177.386-.312.694-.406.319-.104.643-.171.972-.202.37-.021.756-.031 1.157-.031.535 0 .936.015 1.203.046.278.021.571.073.88.156.319.094.565.234.74.421.175.187.324.457.448.81.113.365.17.785.17 1.263v2.62c0 .883-.201 1.527-.602 1.932-.165.166-.401.296-.71.39a4.876 4.876 0 0 1-.956.187c-.391.02-.782.031-1.173.031zm0-.92c.432 0 .746-.01.941-.03.195-.022.386-.079.57-.172a.708.708 0 0 0 .387-.406c.082-.197.123-.467.123-.81v-3.055c0-.468-.056-.806-.17-1.014-.113-.218-.308-.358-.586-.42-.267-.073-.689-.11-1.265-.11s-1.003.037-1.28.11c-.268.062-.458.202-.571.42-.113.208-.17.546-.17 1.014V37.5c0 .343.036.613.108.81a.769.769 0 0 0 .401.406c.185.093.375.15.571.171.195.021.51.031.941.031zm8.614.92c-.514 0-.89-.01-1.126-.031a4.524 4.524 0 0 1-.787-.156c-.319-.083-.566-.208-.74-.374-.175-.166-.324-.41-.448-.733-.123-.312-.185-.701-.185-1.169v-2.775c0-.841.16-1.444.478-1.808.175-.208.35-.364.525-.468.185-.114.421-.192.71-.233.287-.042.545-.068.77-.078.227-.021.546-.031.957-.031.71 0 1.42.077 2.13.233v1.03a9.418 9.418 0 0 0-2.3-.313c-.534 0-.93.042-1.187.125a.807.807 0 0 0-.525.421c-.092.197-.139.504-.139.92v3.086c0 .385.052.67.155.858.113.187.308.322.586.405.288.073.71.109 1.265.109.75 0 1.502-.099 2.252-.296v1.06c-.699.145-1.496.218-2.39.218zm4.24-7.7h3.271c.669 0 1.203.041 1.605.124.4.073.694.203.879.39.175.177.288.358.34.546.05.187.077.446.077.779v.265c0 .405-.103.707-.309.904-.206.197-.55.348-1.034.452v.062c1.193.208 1.79.733 1.79 1.575v.452c0 .51-.103.91-.309 1.2-.195.28-.524.483-.987.608-.463.125-1.11.187-1.944.187h-3.378V32.14zm3.395 3.18c.411 0 .72-.032.925-.094.206-.073.345-.182.417-.327.072-.156.108-.39.108-.702v-.093c0-.281-.041-.489-.124-.624-.072-.135-.216-.228-.432-.28-.205-.063-.519-.094-.94-.094h-1.96v2.214h2.006zm.061 3.351c.484 0 .849-.031 1.096-.094.246-.062.416-.16.509-.296.092-.145.139-.358.139-.639v-.499a.815.815 0 0 0-.324-.654c-.227-.167-.674-.25-1.343-.25h-2.144v2.432h2.067zm8.443 1.17c-2.283 0-3.425-.77-3.425-2.308v-2.977c0-.915.257-1.57.771-1.964.525-.406 1.368-.608 2.53-.608 1.101 0 1.893.192 2.376.576.494.385.74 1.05.74 1.996v1.668H43.64v1.138c0 .52.18.893.54 1.122.36.229.915.343 1.666.343.71 0 1.548-.125 2.515-.374v1.075c-.947.208-1.846.312-2.7.312zm1.604-4.537v-1.185c0-.457-.139-.769-.416-.935-.268-.177-.73-.265-1.389-.265-.637 0-1.1.088-1.388.265-.288.166-.432.478-.432.935v1.185h3.625zm5.387-2.136h-2.623v-1.029h6.619v1.03H54.04v6.515h-1.388v-6.516zm12.33-1.029v7.545h-1.388v-5.565l-3.888 5.565h-1.388V32.14h1.388v5.752l3.965-5.752h1.311zm4.288 1.03h-2.623v-1.03h6.618v1.03h-2.607v6.515H69.27v-6.516zm8.813 6.671c-2.284 0-3.425-.769-3.425-2.307v-2.977c0-.915.257-1.57.771-1.964.525-.406 1.368-.608 2.53-.608 1.1 0 1.893.192 2.376.576.494.385.74 1.05.74 1.996v1.668h-5.013v1.138c0 .52.18.893.54 1.122.36.229.915.343 1.666.343.71 0 1.548-.125 2.514-.374v1.075a12.59 12.59 0 0 1-2.7.312zm1.604-4.536v-1.185c0-.457-.139-.769-.416-.935-.268-.177-.73-.265-1.389-.265-.638 0-1.1.088-1.388.265-.288.166-.432.478-.432.935v1.185h3.625zm3.211 4.396c-.154 0-.303-.016-.447-.047v-1.2c.144.03.288.047.432.047.442 0 .792-.323 1.049-.967.267-.655.401-1.86.401-3.616v-1.777h5.076v7.544H88.02v-6.625h-2.453v1.091c0 1.715-.2 3.071-.601 4.069-.401.987-1.09 1.48-2.068 1.48zm8.911-7.56h1.389v2.727h1.913c.637 0 1.141.047 1.511.14.381.094.659.26.834.5.174.228.262.556.262.982v1.558c0 1.092-.91 1.637-2.73 1.637h-3.179V32.14zm3.086 6.64c.298 0 .606-.042.925-.125.36-.093.54-.358.54-.795v-.95c0-.302-.04-.53-.123-.686-.072-.156-.211-.265-.417-.328-.195-.062-.493-.093-.894-.093h-1.744v2.977h1.713zm7.501 1.06c-.515 0-.89-.01-1.127-.031a4.516 4.516 0 0 1-.786-.156c-.319-.083-.566-.208-.74-.374-.176-.166-.325-.41-.448-.733-.124-.312-.185-.701-.185-1.169v-2.775c0-.841.159-1.444.478-1.808.175-.208.35-.364.524-.468.186-.114.422-.192.71-.233.288-.042.545-.068.771-.078.227-.021.546-.031.957-.031.71 0 1.419.077 2.129.233v1.03c-.823-.209-1.589-.313-2.299-.313-.535 0-.931.042-1.188.125a.806.806 0 0 0-.524.421c-.093.197-.139.504-.139.92v3.086c0 .385.051.67.154.858.113.187.309.322.586.405.288.073.71.109 1.266.109.75 0 1.501-.099 2.252-.296v1.06c-.699.145-1.497.218-2.391.218zm4.132-7.7h1.389v3.257a.653.653 0 0 0 .37-.093c.103-.073.226-.182.37-.327l2.592-2.837h1.697l-3.394 3.57c.134.03.324.17.571.42.257.25.632.655 1.126 1.216l2.083 2.338h-1.713l-2.036-2.338a4.54 4.54 0 0 0-.818-.764c-.206-.135-.35-.213-.432-.234a.689.689 0 0 0-.247-.046h-.169v3.382h-1.389V32.14zm14.424 0v7.544h-1.388v-5.565l-3.888 5.565h-1.389V32.14h1.389v5.752l3.965-5.752h1.311zm9.07 0v7.544h-1.389v-5.565l-3.887 5.565h-1.389V32.14h1.389v5.752l3.964-5.752h1.312zm-3.333-1.076c-.689 0-1.234-.177-1.635-.53-.401-.364-.617-.847-.648-1.45h1.142c.072.81.452 1.216 1.141 1.216.679 0 1.06-.405 1.142-1.216h1.142c-.021.593-.237 1.07-.648 1.434-.401.364-.946.546-1.636.546zM9.315 58.73H0V47.563h2.045v9.645h5.43v-9.645H9.52v9.645h1.545v4.385h-1.75V58.73zm8.83.231c-3.363 0-5.045-1.138-5.045-3.415V51.14c0-1.354.379-2.323 1.136-2.908.773-.6 2.015-.9 3.726-.9 1.621 0 2.788.285 3.5.854.727.57 1.09 1.554 1.09 2.954v2.469h-7.384v1.684c0 .77.265 1.323.795 1.662.53.338 1.348.507 2.454.507 1.045 0 2.28-.184 3.703-.554v1.593c-1.393.307-2.719.461-3.976.461zm2.362-6.715v-1.753c0-.677-.204-1.139-.613-1.385-.394-.261-1.076-.392-2.045-.392-.94 0-1.62.13-2.045.392-.424.246-.636.708-.636 1.385v1.753h5.34zm5.161-4.684h2.045v4.638h5.408v-4.638h2.044v11.168h-2.044v-5.007h-5.408v5.007h-2.045V47.563zm15.819 1.523h-3.863v-1.523h9.747v1.523h-3.84v9.645h-2.044v-9.645zm8.344-1.523h2.045v1.2c.166-.954 1.416-1.43 3.749-1.43 1.393 0 2.446.3 3.158.9.712.584 1.068 1.338 1.068 2.26v4.593c0 .661-.099 1.238-.296 1.73-.181.492-.424.877-.727 1.154-.272.261-.651.469-1.136.623-.47.154-.939.254-1.408.3-.425.046-.94.07-1.545.07a6.94 6.94 0 0 1-1.84-.232c-.546-.169-.887-.407-1.023-.715V63.3H49.83V47.563zm4.953 9.991c.788 0 1.386-.053 1.795-.161.424-.123.727-.338.909-.646.181-.308.272-.777.272-1.408v-4.107c0-.692-.09-1.207-.272-1.546-.182-.338-.485-.561-.91-.67-.408-.122-1.014-.184-1.817-.184-.803 0-1.416.062-1.84.185-.409.108-.704.33-.886.67-.182.338-.273.853-.273 1.545v4.107c0 .616.091 1.085.273 1.408.197.308.507.523.931.646.425.108 1.03.161 1.818.161zm23.256-9.99V58.73h-2.045v-8.237L70.27 58.73h-2.045V47.563h2.045v8.515l5.839-8.515h1.931zm3.678 0h3.295l3.34 9.09h.09l3.113-9.09h3.181V58.73h-1.886v-9.276h-.113l-3.386 9.276h-2.067l-3.522-9.276h-.114v9.276h-1.93V47.563zm21.34 11.398c-3.363 0-5.044-1.138-5.044-3.415V51.14c0-1.354.378-2.323 1.136-2.908.772-.6 2.014-.9 3.726-.9 1.621 0 2.787.285 3.499.854.727.57 1.09 1.554 1.09 2.954v2.469h-7.384v1.684c0 .77.265 1.323.795 1.662.531.338 1.348.507 2.454.507 1.045 0 2.28-.184 3.704-.554v1.593c-1.394.307-2.719.461-3.976.461zm2.362-6.715v-1.753c0-.677-.204-1.139-.613-1.385-.394-.261-1.075-.392-2.045-.392-.939 0-1.621.13-2.045.392-.424.246-.636.708-.636 1.385v1.753h5.339zm5.162-4.684h2.044v4.638h5.408v-4.638h2.045v11.168h-2.045v-5.007h-5.408v5.007h-2.044V47.563zm22.861 0v11.168h-2.045v-8.237l-5.725 8.237h-2.045V47.563h2.045v8.515l5.839-8.515h1.931zM0 18.904h3.555v.58H.871v4.953H0v-5.533zm6.273 0H7.28l2.262 5.533h-.907l-.664-1.68H5.474l-.655 1.68h-.862l2.316-5.533zm1.481 3.282l-.987-2.497h-.08l-.988 2.497h2.055zm7.078-3.282l-2.245 4.552a4.194 4.194 0 0 1-.35.605 1.137 1.137 0 0 1-.386.341c-.15.08-.335.12-.556.12-.24 0-.491-.029-.754-.085v-.597c.173.04.356.06.547.06.198 0 .353-.054.467-.162.114-.114.234-.299.36-.555l.098-.213-2.334-4.066h.97l1.759 3.248 1.562-3.248h.862zm2.657 2.634c.323.08.604.213.844.401.239.188.449.443.628.767l.952 1.73h-.871l-.853-1.5c-.168-.29-.338-.508-.512-.656a1.412 1.412 0 0 0-.61-.316 3.362 3.362 0 0 0-.871-.093v2.566h-.88v-5.533h.88v2.387c.36 0 .637-.031.835-.094.197-.068.377-.213.539-.434l1.391-1.859h.952l-1.661 2.072a1.73 1.73 0 0 1-.763.562zm9.327-2.634v5.533h-.871V22.33h-1.329l-1.185 2.106h-1.068l1.391-2.25c-.31-.058-.562-.171-.754-.342a.841.841 0 0 1-.278-.648v-1.21c0-.296.066-.52.197-.673.132-.154.341-.26.629-.316.293-.062.7-.094 1.22-.094h2.048zm-.871.546h-1.221c-.754 0-1.131.207-1.131.622v1.023c0 .233.09.406.269.52.18.114.494.17.943.17h1.14V19.45zm4.662 5.072c-1.628 0-2.442-.5-2.442-1.5v-2.617c0-1.057.814-1.586 2.442-1.586 1.646 0 2.469.526 2.469 1.577v2.625c0 .535-.228.918-.683 1.151-.454.233-1.05.35-1.786.35zm.018-.554c1.071 0 1.607-.319 1.607-.955v-2.634c0-.682-.539-1.023-1.616-1.023-.52 0-.922.077-1.203.23-.275.154-.413.418-.413.793v2.634c0 .636.541.955 1.625.955z"
          fill="#3C2B99"/>
</svg>
