<svg width="252" height="87" viewBox="0 0 252 87" fill="none" xmlns="http://www.w3.org/2000/svg">
<g clip-path="url(#clip0_84_15)">
<path d="M50.7298 22.705C51.6054 22.9246 52.3675 23.293 53.0161 23.8105C53.6647 24.3279 54.2323 25.0335 54.7187 25.9272L57.2969 30.7017H54.9376L52.627 26.5622C52.173 25.7626 51.7108 25.1589 51.2406 24.7512C50.7704 24.3279 50.219 24.0378 49.5867 23.881C48.9705 23.7085 48.1841 23.6223 47.2274 23.6223V30.7017H44.8438V15.4375H47.2274V22.023C48.2003 22.023 48.9543 21.9367 49.4894 21.7643C50.0245 21.5761 50.5109 21.1763 50.9487 20.5648L54.7187 15.4375H57.2969L52.7972 21.1527C52.1973 21.9054 51.5081 22.4228 50.7298 22.705Z" fill="white"/>
<path d="M62.2452 30.8663L57.6969 19.3182H60.0805L63.3641 28.6084H63.4127L66.3801 19.3182H68.5934L62.683 35.5938H60.3967L62.2452 30.8663Z" fill="white"/>
<path d="M70.1734 30.7252C69.9302 30.7252 69.6951 30.7017 69.4681 30.6546V28.8436C69.6951 28.8907 69.9221 28.9142 70.1491 28.9142C70.8464 28.9142 71.3977 28.4281 71.803 27.456C72.2246 26.4682 72.4354 24.6493 72.4354 21.9995V19.3182H80.4376V30.7017H78.2485V20.7059H74.3812V22.3522C74.3812 24.9394 74.065 26.9856 73.4327 28.4908C72.8003 29.9804 71.7139 30.7252 70.1734 30.7252Z" fill="white"/>
<path d="M84.222 19.3182H86.411V23.4341H89.427C90.4324 23.4341 91.2269 23.5047 91.8106 23.6458C92.4106 23.7869 92.8484 24.0378 93.1241 24.3984C93.3997 24.7434 93.5375 25.2373 93.5375 25.8802V28.2321C93.5375 29.8785 92.1025 30.7017 89.2324 30.7017H84.222V19.3182ZM89.0865 29.3376C89.5568 29.3376 90.0432 29.2748 90.5459 29.1494C91.1134 29.0083 91.3972 28.6084 91.3972 27.9499V26.5152C91.3972 26.0605 91.3323 25.7155 91.2026 25.4803C91.0891 25.2452 90.8702 25.0805 90.5459 24.9864C90.2378 24.8924 89.7675 24.8453 89.1352 24.8453H86.3867V29.3376H89.0865Z" fill="white"/>
<path d="M99.1369 20.8705H95.002V19.3182H105.436V20.8705H101.326V30.7017H99.1369V20.8705Z" fill="white"/>
<path d="M110.867 30.8663L106.318 19.3182H108.702L111.985 28.6084H112.034L115.001 19.3182H117.215L111.304 35.5938H109.018L110.867 30.8663Z" fill="white"/>
<path d="M119.257 19.3182H121.446V20.5412C121.624 19.5691 122.962 19.083 125.459 19.083C126.951 19.083 128.078 19.3888 128.84 20.0003C129.602 20.5961 129.983 21.3644 129.983 22.3052V26.9856C129.983 27.6598 129.878 28.2478 129.667 28.7496C129.472 29.2513 129.213 29.6433 128.889 29.9255C128.597 30.1921 128.191 30.4038 127.673 30.5606C127.17 30.7174 126.667 30.8193 126.165 30.8663C125.711 30.9134 125.159 30.9369 124.511 30.9369C123.797 30.9369 123.14 30.8585 122.541 30.7017C121.957 30.5292 121.592 30.2862 121.446 29.9726V35.3586H119.257V19.3182ZM124.559 29.5022C125.402 29.5022 126.043 29.4473 126.481 29.3376C126.935 29.2121 127.259 28.9926 127.454 28.679C127.648 28.3654 127.746 27.8872 127.746 27.2443V23.0578C127.746 22.3522 127.648 21.827 127.454 21.482C127.259 21.1371 126.935 20.9097 126.481 20.8C126.043 20.6745 125.394 20.6118 124.535 20.6118C123.676 20.6118 123.019 20.6745 122.565 20.8C122.127 20.9097 121.811 21.1371 121.616 21.482C121.422 21.827 121.324 22.3522 121.324 23.0578V27.2443C121.324 27.8715 121.422 28.3497 121.616 28.679C121.827 28.9926 122.159 29.2121 122.613 29.3376C123.067 29.4473 123.716 29.5022 124.559 29.5022Z" fill="white"/>
<path d="M133.342 19.3182H135.531V24.0457H141.32V19.3182H143.509V30.7017H141.32V25.5979H135.531V30.7017H133.342V19.3182Z" fill="white"/>
<path d="M152.295 30.9369C151.257 30.9369 150.479 30.8977 149.96 30.8193C149.441 30.7566 148.922 30.6076 148.403 30.3724C147.868 30.1372 147.479 29.7609 147.236 29.2435C146.992 28.7104 146.871 27.9969 146.871 27.1032V23.1519C146.871 22.4463 146.96 21.827 147.138 21.2939C147.317 20.7608 147.552 20.3452 147.844 20.0473C148.087 19.7808 148.452 19.5769 148.938 19.4358C149.441 19.279 149.952 19.1771 150.471 19.1301C151.054 19.0987 151.662 19.083 152.295 19.083C153.138 19.083 153.77 19.1065 154.192 19.1536C154.63 19.1849 155.092 19.2633 155.578 19.3888C156.081 19.5299 156.47 19.7416 156.746 20.0238C157.021 20.306 157.257 20.7137 157.451 21.2468C157.63 21.7956 157.719 22.4306 157.719 23.1519V27.1032C157.719 28.436 157.403 29.4081 156.77 30.0196C156.511 30.2705 156.138 30.4665 155.651 30.6076C155.165 30.7487 154.662 30.8428 154.143 30.8898C153.527 30.9212 152.911 30.9369 152.295 30.9369ZM152.295 29.5492C152.976 29.5492 153.47 29.5335 153.778 29.5022C154.087 29.4708 154.387 29.3846 154.678 29.2435C154.97 29.118 155.173 28.9142 155.286 28.632C155.416 28.3341 155.481 27.9264 155.481 27.4089V22.7991C155.481 22.0935 155.392 21.5839 155.214 21.2703C155.035 20.9411 154.727 20.7294 154.289 20.6353C153.868 20.5256 153.203 20.4707 152.295 20.4707C151.387 20.4707 150.714 20.5256 150.276 20.6353C149.854 20.7294 149.554 20.9411 149.376 21.2703C149.198 21.5839 149.109 22.0935 149.109 22.7991V27.4089C149.109 27.9264 149.165 28.3341 149.279 28.632C149.409 28.9142 149.619 29.118 149.911 29.2435C150.203 29.3846 150.503 29.4708 150.811 29.5022C151.119 29.5335 151.614 29.5492 152.295 29.5492Z" fill="white"/>
<path d="M0.5 39.8647H7.93403V48.7537H6.29818V41.0768H2.13585V48.7537H0.5V39.8647Z" fill="white"/>
<path d="M10.8813 39.8647H12.5171V40.8197C12.6504 40.0606 13.6501 39.681 15.5162 39.681C16.631 39.681 17.4731 39.9198 18.0427 40.3973C18.6122 40.8626 18.8969 41.4625 18.8969 42.1971V45.8519C18.8969 46.3784 18.8182 46.8375 18.6606 47.2293C18.5152 47.6211 18.3214 47.9272 18.079 48.1476C17.8609 48.3557 17.558 48.521 17.1702 48.6435C16.7946 48.7659 16.4189 48.8455 16.0433 48.8822C15.704 48.9189 15.292 48.9373 14.8073 48.9373C14.2741 48.9373 13.7834 48.8761 13.335 48.7537C12.8988 48.619 12.6262 48.4292 12.5171 48.1843V52.39H10.8813V39.8647ZM14.8437 47.817C15.4738 47.817 15.9524 47.7742 16.2796 47.6885C16.6189 47.5905 16.8612 47.4191 17.0066 47.1742C17.152 46.9293 17.2247 46.5559 17.2247 46.0539V42.7848C17.2247 42.2339 17.152 41.8237 17.0066 41.5543C16.8612 41.285 16.6189 41.1074 16.2796 41.0217C15.9524 40.9238 15.4677 40.8748 14.8255 40.8748C14.1833 40.8748 13.6925 40.9238 13.3532 41.0217C13.026 41.1074 12.7898 41.285 12.6443 41.5543C12.4989 41.8237 12.4262 42.2339 12.4262 42.7848V46.0539C12.4262 46.5437 12.4989 46.9171 12.6443 47.1742C12.8019 47.4191 13.0503 47.5905 13.3896 47.6885C13.7289 47.7742 14.2136 47.817 14.8437 47.817Z" fill="white"/>
<path d="M25.1332 48.9373C24.3577 48.9373 23.776 48.9067 23.3883 48.8455C23.0005 48.7965 22.6128 48.6802 22.225 48.4965C21.8251 48.3129 21.5343 48.019 21.3526 47.615C21.1708 47.1987 21.0799 46.6416 21.0799 45.9437V42.8583C21.0799 42.3073 21.1466 41.8237 21.2799 41.4074C21.4131 40.9911 21.5888 40.6667 21.807 40.434C21.9887 40.2259 22.2614 40.0667 22.6249 39.9565C23.0005 39.8341 23.3822 39.7545 23.77 39.7178C24.2062 39.6933 24.6606 39.681 25.1332 39.681C25.7633 39.681 26.2359 39.6994 26.5509 39.7361C26.8781 39.7606 27.2234 39.8218 27.587 39.9198C27.9626 40.03 28.2534 40.1953 28.4594 40.4157C28.6654 40.6361 28.8411 40.9544 28.9865 41.3707C29.1198 41.7992 29.1865 42.2951 29.1865 42.8583V45.9437C29.1865 46.9844 28.9502 47.7435 28.4776 48.2211C28.2837 48.417 28.005 48.57 27.6415 48.6802C27.278 48.7904 26.9023 48.8638 26.5146 48.9006C26.0541 48.9251 25.5936 48.9373 25.1332 48.9373ZM25.1332 47.8537C25.6421 47.8537 26.0117 47.8415 26.2419 47.817C26.4722 47.7925 26.6963 47.7252 26.9145 47.615C27.1326 47.517 27.284 47.3579 27.3689 47.1375C27.4658 46.9049 27.5143 46.5865 27.5143 46.1825V42.5828C27.5143 42.0318 27.4476 41.6339 27.3143 41.389C27.181 41.1319 26.9508 40.9666 26.6236 40.8932C26.3086 40.8075 25.8118 40.7646 25.1332 40.7646C24.4546 40.7646 23.9517 40.8075 23.6246 40.8932C23.3095 40.9666 23.0853 41.1319 22.9521 41.389C22.8188 41.6339 22.7521 42.0318 22.7521 42.5828V46.1825C22.7521 46.5865 22.7945 46.9049 22.8793 47.1375C22.9763 47.3579 23.1338 47.517 23.3519 47.615C23.57 47.7252 23.7942 47.7925 24.0244 47.817C24.2547 47.8415 24.6243 47.8537 25.1332 47.8537Z" fill="white"/>
<path d="M35.282 48.9373C34.6761 48.9373 34.2338 48.9251 33.9551 48.9006C33.6886 48.8761 33.3796 48.8149 33.0282 48.7169C32.6525 48.619 32.3617 48.472 32.1557 48.2761C31.9497 48.0802 31.774 47.7925 31.6286 47.413C31.4832 47.0457 31.4105 46.5865 31.4105 46.0355V42.7665C31.4105 41.7747 31.5983 41.0646 31.9739 40.6361C32.1799 40.3912 32.3859 40.2075 32.5919 40.0851C32.81 39.9504 33.0887 39.8586 33.428 39.8096C33.7673 39.7606 34.0703 39.73 34.3368 39.7178C34.6034 39.6933 34.9791 39.681 35.4638 39.681C36.2999 39.681 37.136 39.7729 37.9721 39.9565V41.1687C37.0027 40.9238 36.0999 40.8013 35.2638 40.8013C34.6337 40.8013 34.1672 40.8503 33.8643 40.9483C33.5734 41.034 33.3674 41.1993 33.2463 41.4441C33.1372 41.6768 33.0827 42.038 33.0827 42.5277V46.1641C33.0827 46.6171 33.1433 46.9538 33.2644 47.1742C33.3977 47.3946 33.628 47.5538 33.9551 47.6517C34.2944 47.7374 34.7912 47.7803 35.4456 47.7803C36.3302 47.7803 37.2147 47.664 38.0993 47.4313V48.6802C37.2753 48.8516 36.3362 48.9373 35.282 48.9373Z" fill="white"/>
<path d="M40.278 39.8647H44.1314C44.919 39.8647 45.5491 39.9137 46.0217 40.0116C46.4943 40.0973 46.8396 40.2504 47.0577 40.4708C47.2637 40.6789 47.397 40.8932 47.4576 41.1136C47.5182 41.334 47.5485 41.64 47.5485 42.0318V42.3441C47.5485 42.8216 47.4273 43.1766 47.1849 43.4093C46.9426 43.6419 46.5367 43.8194 45.9671 43.9419V44.0153C47.3728 44.2602 48.0756 44.8785 48.0756 45.8703V46.4029C48.0756 47.0028 47.9544 47.4742 47.7121 47.817C47.4818 48.1476 47.0941 48.3863 46.5488 48.5333C46.0035 48.6802 45.2401 48.7537 44.2586 48.7537H40.278V39.8647ZM44.2768 43.6113C44.7615 43.6113 45.125 43.5746 45.3673 43.5011C45.6097 43.4154 45.7733 43.2868 45.8581 43.1154C45.9429 42.9318 45.9853 42.6563 45.9853 42.289V42.1788C45.9853 41.8482 45.9369 41.6033 45.8399 41.4441C45.7551 41.285 45.5854 41.1748 45.331 41.1136C45.0886 41.0401 44.7191 41.0034 44.2222 41.0034H41.9139V43.6113H44.2768ZM44.3495 47.5599C44.919 47.5599 45.3492 47.5232 45.64 47.4497C45.9308 47.3762 46.1307 47.2599 46.2398 47.1008C46.3488 46.9293 46.4034 46.6783 46.4034 46.3478V45.7601C46.4034 45.454 46.2761 45.1968 46.0217 44.9887C45.7551 44.7928 45.228 44.6949 44.4404 44.6949H41.9139V47.5599H44.3495Z" fill="white"/>
<path d="M54.2962 48.9373C51.6061 48.9373 50.2611 48.0313 50.2611 46.2192V42.7114C50.2611 41.6339 50.564 40.8626 51.1699 40.3973C51.7879 39.9198 52.7815 39.681 54.1508 39.681C55.4474 39.681 56.3804 39.9076 56.9499 40.3606C57.5316 40.8136 57.8224 41.5972 57.8224 42.7114V44.6765H51.9151V46.0172C51.9151 46.6294 52.1272 47.0701 52.5513 47.3395C52.9754 47.6089 53.6297 47.7435 54.5143 47.7435C55.3504 47.7435 56.338 47.5966 57.477 47.3028V48.57C56.3622 48.8149 55.302 48.9373 54.2962 48.9373ZM56.1865 43.5929V42.1971C56.1865 41.6584 56.0229 41.2911 55.6958 41.0952C55.3807 40.8871 54.8354 40.783 54.0599 40.783C53.3086 40.783 52.7634 40.8871 52.4241 41.0952C52.0848 41.2911 51.9151 41.6584 51.9151 42.1971V43.5929H56.1865Z" fill="white"/>
<path d="M62.5328 41.0768H59.4429V39.8647H67.2404V41.0768H64.1687V48.7537H62.5328V41.0768Z" fill="white"/>
<path d="M77.0602 39.8647V48.7537H75.4244V42.1971L70.844 48.7537H69.2082V39.8647H70.844V46.6416L75.5153 39.8647H77.0602Z" fill="white"/>
<path d="M82.1112 41.0768H79.0213V39.8647H86.8188V41.0768H83.7471V48.7537H82.1112V41.0768Z" fill="white"/>
<path d="M92.4945 48.9373C89.8044 48.9373 88.4594 48.0313 88.4594 46.2192V42.7114C88.4594 41.6339 88.7623 40.8626 89.3682 40.3973C89.9862 39.9198 90.9798 39.681 92.3491 39.681C93.6456 39.681 94.5787 39.9076 95.1482 40.3606C95.7298 40.8136 96.0206 41.5972 96.0206 42.7114V44.6765H90.1134V46.0172C90.1134 46.6294 90.3254 47.0701 90.7496 47.3395C91.1737 47.6089 91.828 47.7435 92.7126 47.7435C93.5487 47.7435 94.5362 47.5966 95.6753 47.3028V48.57C94.5605 48.8149 93.5002 48.9373 92.4945 48.9373ZM94.3848 43.5929V42.1971C94.3848 41.6584 94.2212 41.2911 93.894 41.0952C93.579 40.8871 93.0337 40.783 92.2582 40.783C91.5069 40.783 90.9616 40.8871 90.6223 41.0952C90.283 41.2911 90.1134 41.6584 90.1134 42.1971V43.5929H94.3848Z" fill="white"/>
<path d="M98.1683 48.772C97.9865 48.772 97.8108 48.7537 97.6412 48.7169V47.3028C97.8108 47.3395 97.9804 47.3579 98.1501 47.3579C98.6711 47.3579 99.0831 46.9783 99.3861 46.2192C99.7011 45.4478 99.8586 44.0276 99.8586 41.9584V39.8647H105.839V48.7537H104.203V40.9483H101.313V42.2339C101.313 44.2541 101.076 45.8519 100.604 47.0273C100.131 48.1904 99.3194 48.772 98.1683 48.772Z" fill="white"/>
<path d="M108.667 39.8647H110.303V43.0787H112.556C113.308 43.0787 113.901 43.1338 114.338 43.244C114.786 43.3542 115.113 43.5501 115.319 43.8317C115.525 44.101 115.628 44.4867 115.628 44.9887V46.8253C115.628 48.1109 114.556 48.7537 112.411 48.7537H108.667V39.8647ZM112.302 47.6885C112.653 47.6885 113.017 47.6395 113.392 47.5415C113.817 47.4313 114.029 47.1191 114.029 46.6049V45.4846C114.029 45.1295 113.98 44.8601 113.883 44.6765C113.798 44.4928 113.635 44.3643 113.392 44.2908C113.162 44.2174 112.811 44.1806 112.338 44.1806H110.284V47.6885H112.302Z" fill="white"/>
<path d="M121.139 48.9373C120.533 48.9373 120.091 48.9251 119.812 48.9006C119.546 48.8761 119.237 48.8149 118.885 48.7169C118.51 48.619 118.219 48.472 118.013 48.2761C117.807 48.0802 117.631 47.7925 117.486 47.413C117.341 47.0457 117.268 46.5865 117.268 46.0355V42.7665C117.268 41.7747 117.456 41.0646 117.831 40.6361C118.037 40.3912 118.243 40.2075 118.449 40.0851C118.667 39.9504 118.946 39.8586 119.285 39.8096C119.625 39.7606 119.928 39.73 120.194 39.7178C120.461 39.6933 120.836 39.681 121.321 39.681C122.157 39.681 122.993 39.7729 123.829 39.9565V41.1687C122.86 40.9238 121.957 40.8013 121.121 40.8013C120.491 40.8013 120.025 40.8503 119.722 40.9483C119.431 41.034 119.225 41.1993 119.104 41.4441C118.995 41.6768 118.94 42.038 118.94 42.5277V46.1641C118.94 46.6171 119.001 46.9538 119.122 47.1742C119.255 47.3946 119.485 47.5538 119.812 47.6517C120.152 47.7374 120.649 47.7803 121.303 47.7803C122.187 47.7803 123.072 47.664 123.957 47.4313V48.6802C123.133 48.8516 122.194 48.9373 121.139 48.9373Z" fill="white"/>
<path d="M126.008 39.8647H127.644V43.7031C127.826 43.7031 127.971 43.6664 128.08 43.5929C128.201 43.5072 128.347 43.3787 128.516 43.2072L131.57 39.8647H133.569L129.571 44.0704C129.728 44.1072 129.952 44.2724 130.243 44.5663C130.546 44.8601 130.988 45.3377 131.57 45.9988L134.024 48.7537H132.006L129.607 45.9988C129.28 45.6193 128.959 45.3193 128.644 45.0989C128.401 44.9397 128.232 44.8479 128.135 44.8234C128.038 44.7867 127.941 44.7683 127.844 44.7683C127.747 44.7683 127.68 44.7683 127.644 44.7683V48.7537H126.008V39.8647Z" fill="white"/>
<path d="M143.002 39.8647V48.7537H141.366V42.1971L136.786 48.7537H135.15V39.8647H136.786V46.6416L141.457 39.8647H143.002Z" fill="white"/>
<path d="M153.687 39.8647V48.7537H152.052V42.1971L147.471 48.7537H145.835V39.8647H147.471V46.6416L152.143 39.8647H153.687ZM149.761 38.5975C148.95 38.5975 148.307 38.3893 147.835 37.973C147.362 37.5445 147.108 36.9752 147.071 36.265H148.416C148.501 37.2201 148.95 37.6976 149.761 37.6976C150.561 37.6976 151.01 37.2201 151.106 36.265H152.452C152.427 36.9629 152.173 37.5261 151.688 37.9547C151.216 38.3832 150.573 38.5975 149.761 38.5975Z" fill="white"/>
<path d="M11.4751 71.1954H0.5V58.0375H2.90917V69.4011H9.30685V58.0375H11.716V69.4011H13.5363V74.5664H11.4751V71.1954Z" fill="white"/>
<path d="M21.877 71.4672C17.9152 71.4672 15.9344 70.1261 15.9344 67.4437V62.2513C15.9344 60.6564 16.3805 59.5146 17.2728 58.8259C18.1829 58.119 19.6463 57.7656 21.6628 57.7656C23.5723 57.7656 24.9464 58.1009 25.7852 58.7715C26.6418 59.4421 27.0701 60.602 27.0701 62.2513V65.1601H18.3703V67.1447C18.3703 68.0509 18.6826 68.7033 19.3072 69.1021C19.9318 69.5008 20.8955 69.7001 22.1982 69.7001C23.4296 69.7001 24.884 69.4827 26.5615 69.0477V70.9235C24.9197 71.286 23.3582 71.4672 21.877 71.4672ZM24.6609 63.5562V61.4901C24.6609 60.6926 24.42 60.1489 23.9382 59.8589C23.4742 59.5508 22.6711 59.3968 21.529 59.3968C20.4226 59.3968 19.6195 59.5508 19.1198 59.8589C18.6201 60.1489 18.3703 60.6926 18.3703 61.4901V63.5562H24.6609Z" fill="white"/>
<path d="M30.7415 58.0375H33.1507V63.5018H39.5216V58.0375H41.9308V71.1954H39.5216V65.2961H33.1507V71.1954H30.7415V58.0375Z" fill="white"/>
<path d="M49.3783 59.8317H44.8276V58.0375H56.3114V59.8317H51.7875V71.1954H49.3783V59.8317Z" fill="white"/>
<path d="M59.2093 58.0375H61.6184V59.4511C61.8147 58.3275 63.287 57.7656 66.0352 57.7656C67.677 57.7656 68.9173 58.119 69.7561 58.8259C70.5948 59.5146 71.0142 60.4026 71.0142 61.4901V66.9C71.0142 67.6793 70.8982 68.359 70.6662 68.9389C70.452 69.5189 70.1665 69.972 69.8096 70.2982C69.4884 70.6063 69.0422 70.851 68.4712 71.0322C67.918 71.2135 67.3647 71.3313 66.8115 71.3857C66.3118 71.44 65.7051 71.4672 64.9913 71.4672C64.2061 71.4672 63.4833 71.3766 62.823 71.1954C62.1806 70.996 61.779 70.7151 61.6184 70.3526V76.5781H59.2093V58.0375ZM65.0448 69.8089C65.9728 69.8089 66.6777 69.7455 67.1595 69.6186C67.6592 69.4736 68.0161 69.2199 68.2303 68.8574C68.4444 68.4949 68.5515 67.9421 68.5515 67.1991V62.36C68.5515 61.5444 68.4444 60.9373 68.2303 60.5386C68.0161 60.1398 67.6592 59.877 67.1595 59.7502C66.6777 59.6052 65.9639 59.5327 65.018 59.5327C64.0722 59.5327 63.3495 59.6052 62.8498 59.7502C62.3679 59.877 62.02 60.1398 61.8058 60.5386C61.5917 60.9373 61.4846 61.5444 61.4846 62.36V67.1991C61.4846 67.924 61.5917 68.4768 61.8058 68.8574C62.0378 69.2199 62.4036 69.4736 62.9033 69.6186C63.403 69.7455 64.1168 69.8089 65.0448 69.8089Z" fill="white"/>
<path d="M92.4443 58.0375V71.1954H90.0351V61.4901L83.2894 71.1954H80.8803V58.0375H83.2894V68.069L90.169 58.0375H92.4443Z" fill="white"/>
<path d="M96.7779 58.0375H100.659L104.594 68.7486H104.701L108.369 58.0375H112.116V71.1954H109.894V60.2667H109.761L105.772 71.1954H103.336L99.187 60.2667H99.0532V71.1954H96.7779V58.0375Z" fill="white"/>
<path d="M121.919 71.4672C117.957 71.4672 115.977 70.1261 115.977 67.4437V62.2513C115.977 60.6564 116.423 59.5146 117.315 58.8259C118.225 58.119 119.688 57.7656 121.705 57.7656C123.614 57.7656 124.989 58.1009 125.827 58.7715C126.684 59.4421 127.112 60.602 127.112 62.2513V65.1601H118.412V67.1447C118.412 68.0509 118.725 68.7033 119.349 69.1021C119.974 69.5008 120.938 69.7001 122.24 69.7001C123.472 69.7001 124.926 69.4827 126.604 69.0477V70.9235C124.962 71.286 123.4 71.4672 121.919 71.4672ZM124.703 63.5562V61.4901C124.703 60.6926 124.462 60.1489 123.98 59.8589C123.516 59.5508 122.713 59.3968 121.571 59.3968C120.465 59.3968 119.662 59.5508 119.162 59.8589C118.662 60.1489 118.412 60.6926 118.412 61.4901V63.5562H124.703Z" fill="white"/>
<path d="M130.784 58.0375H133.193V63.5018H139.564V58.0375H141.973V71.1954H139.564V65.2961H133.193V71.1954H130.784V58.0375Z" fill="white"/>
<path d="M157.719 58.0375V71.1954H155.31V61.4901L148.564 71.1954H146.155V58.0375H148.564V68.069L155.443 58.0375H157.719Z" fill="white"/>
<path d="M0.5 24.2723H4.68851V24.9552H1.52597V30.7902H0.5V24.2723Z" fill="white"/>
<path d="M7.89088 24.2723H9.07551L11.7409 30.7902H10.6726L9.88994 28.8117H6.94952L6.1774 30.7902H5.162L7.89088 24.2723ZM9.63609 28.1389L8.47262 25.1963H8.37742L7.21395 28.1389H9.63609Z" fill="white"/>
<path d="M17.9744 24.2723L15.3302 29.6353C15.1821 29.9365 15.0446 30.1742 14.9177 30.3483C14.7908 30.5224 14.6391 30.6563 14.4629 30.75C14.2866 30.8438 14.068 30.8906 13.8071 30.8906C13.525 30.8906 13.2289 30.8571 12.9186 30.7902V30.0872C13.1231 30.1341 13.3382 30.1575 13.5638 30.1575C13.7965 30.1575 13.9798 30.0939 14.1138 29.9667C14.2478 29.8328 14.3888 29.6152 14.5369 29.3139L14.6532 29.0628L11.9032 24.2723H13.0455L15.1186 28.0987L16.959 24.2723H17.9744Z" fill="white"/>
<path d="M21.1047 27.3756C21.4854 27.4693 21.8169 27.6267 22.0989 27.8476C22.381 28.0685 22.6278 28.3698 22.8393 28.7515L23.9605 30.7902H22.9345L21.9297 29.0226C21.7322 28.6812 21.5313 28.4234 21.3268 28.2493C21.1223 28.0685 20.8826 27.9447 20.6076 27.8777C20.3396 27.8041 19.9976 27.7673 19.5816 27.7673V30.7902H18.545V24.2723H19.5816V27.0843C20.0047 27.0843 20.3325 27.0475 20.5652 26.9739C20.7979 26.8935 21.0095 26.7228 21.1999 26.4617L22.8393 24.2723H23.9605L22.0037 26.7127C21.7428 27.0341 21.4431 27.2551 21.1047 27.3756Z" fill="white"/>
<path d="M32.0933 24.2723V30.7902H31.0673V28.3096H29.5019L28.1058 30.7902H26.8471L28.4865 28.1389C28.1199 28.0719 27.8237 27.938 27.5981 27.7371C27.3795 27.5363 27.2702 27.2818 27.2702 26.9739V25.5478C27.2702 25.1996 27.3477 24.9351 27.5029 24.7544C27.658 24.5736 27.9048 24.4497 28.2433 24.3828C28.5888 24.3091 29.0683 24.2723 29.6818 24.2723H32.0933ZM31.0673 24.9151H29.6289C28.7404 24.9151 28.2962 25.1594 28.2962 25.6482V26.8533C28.2962 27.1279 28.4019 27.3321 28.6135 27.466C28.825 27.5999 29.1952 27.6668 29.7241 27.6668H31.0673V24.9151Z" fill="white"/>
<path d="M36.5601 30.8906C34.6421 30.8906 33.6831 30.3014 33.6831 29.1231V26.0399C33.6831 24.7945 34.6421 24.1719 36.5601 24.1719C38.4992 24.1719 39.4687 24.7912 39.4687 26.0298V29.1231C39.4687 29.7524 39.2008 30.2044 38.6649 30.4789C38.129 30.7534 37.4274 30.8906 36.5601 30.8906ZM36.5812 30.2378C37.8434 30.2378 38.4745 29.8629 38.4745 29.113V26.0097C38.4745 25.2063 37.8399 24.8046 36.5706 24.8046C35.9572 24.8046 35.4847 24.895 35.1533 25.0757C34.8289 25.2565 34.6668 25.5678 34.6668 26.0097V29.113C34.6668 29.8629 35.3049 30.2378 36.5812 30.2378Z" fill="white"/>
<circle cx="208.531" cy="47.7177" r="28.2187" fill="white"/>
<path fill-rule="evenodd" clip-rule="evenodd" d="M226.765 5.12306L224.47 7.01091L227.189 9.27838L222.624 8.19077L218.447 10.9365L220.359 7.6866L213.895 6.64647L221.084 5.79818L221.66 4.41338L223.074 5.79276L226.765 5.12306ZM223.643 51.3134C222.503 52.6694 220.514 52.1139 219.747 50.6686C218.794 48.8703 218.46 46.9713 219.554 46.2972C220.166 45.9197 220.234 44.7387 219.601 44.3104C216.241 42.0366 210.442 42.1025 206.238 43.4391C204.325 44.0473 201.983 45.1045 200.536 46.583C199.232 47.915 198.764 49.2729 198.75 50.3166C199.052 49.8489 199.139 50.1084 199.172 50.3163C199.366 51.5561 199.886 51.7951 200.703 55.1211C200.818 55.5897 200.929 56.1766 201.028 56.7016C201.127 57.2266 201.24 57.5181 201.171 57.6021C201.32 58.4562 200.646 58.7206 200.187 57.8229C199.71 57.0589 199.313 56.2515 199.035 54.4852C198.812 53.0673 199.178 51.9633 198.768 51.6568C198.575 51.5126 198.301 53.6416 198.584 55.4415C198.869 57.2533 200.16 59.6535 201.013 60.8026C202.483 62.7846 204.301 64.4262 205.93 65.5269C205.821 65.6124 205.78 65.7518 205.726 65.863C206.023 65.7049 206.289 65.6602 206.491 65.6538C207.206 65.631 207.952 65.9852 208.016 66.2077C208.027 66.3242 207.564 66.2341 207.025 66.1183C206.424 65.9892 205.702 66.0807 205.467 66.3642C204.934 67.0065 205.508 67.7564 205.793 68.0324C205.597 68.7206 204.839 69.6543 204.057 69.1426C203.09 68.5098 202.291 66.9268 203.919 66.1271C203.959 66.1074 204.629 65.8541 205.398 65.7521C201.578 63.6311 199.267 61.8083 197.571 57.4505C197.152 56.3728 196.106 52.0527 196.392 48.9947C196.941 43.1066 201.25 40.4107 206.9 39.2841C212.805 38.1066 219.351 38.5037 220.685 40.3054C221.323 41.1666 222.23 40.3748 223.261 41.2307C225.475 42.8917 227.861 45.9426 228.006 50.3862C228.196 56.1657 225.351 58.9543 225.488 58.0162C225.612 57.1579 225.834 54.85 225.361 52.929C224.368 48.9008 223.542 47.1914 220.777 45.0648C220.469 44.7772 220.298 45.0505 220.624 45.4653C222.147 47.1714 222.671 48.1084 223.643 51.3134ZM222.806 58.8344C222.566 60.5079 221.803 61.744 221.027 62.5033C221.448 62.7823 222.044 63.5656 222.29 63.9911C221.361 63.8861 220.245 64.3336 219.238 65.6024C218.894 65.44 218.53 64.7839 218.66 64.4264C218.949 63.6306 219.778 63.1553 220.726 63.1014C221.027 63.0843 220.703 62.7728 220.577 62.7745C219.836 62.7843 218.472 63.1721 218.166 64.327C217.598 63.9678 216.163 65.046 215.787 65.55C214.908 66.729 214.688 67.4275 212.846 67.7315C211.012 68.0342 210.206 67.6084 209.55 66.7172C209.751 65.4165 208.7 65.1098 208.361 64.9203C208.019 64.7288 206.619 64.4753 206.129 65.2426C204.815 63.8627 202.071 60.6339 201.874 58.5725C201.793 57.7226 202.134 57.7896 201.988 55.8767C201.898 54.7029 201.545 53.7327 201.461 53.4233C201.346 53.0001 200.679 52.8667 200.623 52.4388C200.512 51.5976 200.559 50.7147 201.146 50.5637C201.994 50.3454 202.844 50.5134 203.662 50.7838C203.285 50.8896 202.692 51.2455 202.356 51.6539C202.04 52.0385 201.799 52.2879 201.631 52.5121C201.511 52.6737 202.016 52.7729 202.294 52.7317C202.971 52.6317 203.006 51.6036 203.749 51.5029C203.861 51.9312 204.088 52.2851 204.478 52.3904L205.46 52.2537C205.711 52.0823 205.826 51.7896 205.801 51.3981C206.37 51.2963 206.9 51.6944 207.108 52.2104C207.199 52.4374 207.196 52.6297 207.259 52.648C207.381 52.6839 207.278 51.2416 206.722 50.5701C205.969 49.6632 204.988 49.4264 203.235 49.4264C202.535 49.4264 201.158 49.1162 200.602 49.5521C200.332 49.7639 200.317 50.1007 200.203 50.2753C200.126 50.2805 200.078 50.2816 200.076 50.2731C199.694 48.6672 200.367 47.1291 201.342 46.2842C202.551 45.2361 204.895 44.475 206.291 44.0042C209.586 42.8932 212.55 42.6694 214.226 43.1806C215.447 43.553 216.542 44.2517 216.152 44.964C216.003 45.2345 215.675 44.9362 215.313 44.904C214.074 44.794 214.22 45.3856 211.163 47.1175C210.856 47.2911 210.772 47.4815 210.186 47.6273C209.992 47.6757 209.833 47.9797 209.854 48.4097C209.874 48.817 210.491 48.6565 210.283 48.883C210.076 49.11 209.844 49.4148 209.83 49.7644C209.813 50.2205 209.888 50.4593 209.895 50.7205C209.896 50.7586 209.954 51.6382 210.308 51.7831C210.626 51.9136 210.999 51.3208 211.004 50.9073C210.895 50.2568 211.955 49.1085 212.079 49.5378C212.144 49.7654 211.666 50.25 212.033 50.3991C212.195 50.4981 212.937 50.3175 213.054 50.1034C213.087 50.0435 212.607 50.0237 212.631 49.9546C212.862 49.7442 213.195 49.0764 213.454 48.9268C213.417 49.5212 213.704 49.9014 214.294 49.9971C214.375 50.0102 214.451 50.0171 214.523 50.0184L215.17 49.793C215.368 49.6021 215.456 49.3086 215.458 48.9852C215.669 49.0159 216.063 49.113 216.195 49.3275C216.734 49.0577 217.237 48.6394 217.765 48.1485C218.103 47.835 218.137 48.4966 218.192 48.72C218.673 50.6556 219.3 51.7824 220.474 52.3389C220.278 52.815 220.019 53.5189 219.873 54.1767C219.683 55.0338 220.58 55.9788 220.661 57.3799C220.72 58.4096 220.44 59.7312 220.553 59.603C221.123 59.3333 221.299 57.8634 221.257 56.7395C221.233 56.0782 221.092 55.4385 221.412 55.3595C222.677 55.0474 223.065 57.028 222.806 58.8344ZM206.494 58.7542C206.471 59.0354 206.384 59.4165 206.357 59.784C206.331 60.1514 206.364 60.5053 206.298 60.7321C206.241 60.9301 205.466 60.543 205.7 60.097C205.934 59.651 206.54 58.1917 206.494 58.7542ZM216.203 55.3208C216.917 55.617 218.132 56.2758 218.56 56.8242C218.868 57.2187 218.738 57.5288 218.693 57.6779C218.625 57.9014 217.287 56.5012 216.18 55.9604C214.839 55.3049 214.06 55.4123 213.948 55.234C213.819 55.0264 215.325 54.9569 216.203 55.3208ZM174.361 42.4452C174.361 24.3368 188.63 9.4009 206.682 7.93897C191.607 10.7274 180.14 23.7831 180.141 39.3887C180.141 39.9021 180.153 40.4127 180.178 40.9203C183.222 27.7257 195.265 17.8241 209.588 17.8241C226.196 17.824 239.741 31.1376 239.741 47.4611C239.741 63.7846 226.196 77.098 209.588 77.098C190.325 77.098 174.361 61.5007 174.361 42.4452ZM199.523 73.498L200.745 71.9389C207.574 75.4375 217.618 71.4829 223.454 66.7797L224.555 68.1179L227.419 65.4724L226.165 64.2097C232.194 57.261 232.522 49.103 230.249 41.5293C229.961 40.6486 229.663 40.8951 229.817 41.784C231.185 49.2848 230.291 56.6242 225.005 62.3606C220.34 67.4238 214.667 70.6153 207.556 71.0583C202.568 71.369 197.464 68.263 195.777 65.5961C192.586 60.5526 192.034 56.7795 191.777 53.2444L190.462 52.3752C190.104 59.4561 192.098 65.8039 197.397 69.8945L196.211 71.2308L199.523 73.498ZM184.115 48.8961C183.636 50.399 183.248 58.0047 190.439 60.644C190.732 60.7515 187.902 57.2101 187.209 54.6331C186.62 52.441 187.324 50.7446 187.449 50.7029C186.664 50.3018 185.233 49.2899 184.617 48.5827C184.032 47.9118 183.029 44.6917 185.056 41.7002C187.927 37.4604 192.892 35.2811 197.373 33.9245C202.24 32.4512 210.933 31.6693 217.86 32.6785C225.558 33.8 229.284 36.093 230.821 37.1365C230.761 37.1927 230.5 37.4935 230.254 37.6878C230.653 41.1215 231.95 44.6323 234.163 47.7778C234.844 48.7474 236.18 49.3125 235.677 48.4059C235.179 47.508 234.147 44.8037 233.53 41.8975C233.109 39.9091 233.013 37.8261 232.899 36.1625C232.749 33.9646 230.462 35.4592 229.788 34.8181C228.621 33.7077 226.885 32.5936 225.084 31.7188C223.494 30.9469 222.232 30.684 222.405 30.0224C222.541 29.4995 224.859 29.6774 226.534 30.1563C227.282 30.3699 226.914 25.793 219.651 21.9721C216.468 20.2973 211.866 19.392 205.752 20.7244C204.995 20.466 203.423 20.2882 202.418 20.4905C199.981 20.9813 198.243 21.9288 196.612 23.7526C194.858 23.7209 191.546 27.4982 190.248 28.9781C189.889 29.0021 189.092 29.501 188.75 29.7283C186.093 31.4954 185.187 38.6021 183.899 41.1029C182.369 43.1859 181.984 47.2782 184.115 48.8961ZM197.138 66.0511C194.477 62.8314 193.841 59.8715 193.599 59.2319C193.116 57.9585 192.262 53.8656 192.886 53.661C193.02 53.6171 194.219 55.2738 194.713 55.9873C195.347 56.9048 196.269 58.3794 195.639 58.9007C195.038 59.3976 195.64 61.8826 197.046 64.4986C198.675 67.5317 201.616 68.7907 201.804 69.119C202.106 69.6445 199.215 68.5639 197.138 66.0511ZM211.517 34.2874L211.781 35.0169C204.813 34.9611 192.801 37.2663 188.011 42.5672C186.412 44.3363 185.626 46.9302 186.715 47.5116C186.499 46.1876 187.462 44.7344 188.653 43.2066C191.395 39.6905 199.621 37.3055 204.332 36.5999C209.875 35.7697 215.337 35.7205 219.773 36.5324C222.371 37.0079 225.302 37.8718 226.719 38.6711C227.107 37.985 223.761 35.4948 214.793 35.0671L214.72 32.8671C206.809 32.3613 195.699 33.2868 187.783 39.9209C187.174 40.4313 186.815 41.558 187.123 41.9779C192.34 36.9589 202.246 34.2027 211.517 34.2874ZM204.628 51.2658C204.735 51.2658 204.822 51.3514 204.822 51.4562C204.822 51.5611 204.735 51.6466 204.628 51.6466C204.521 51.6466 204.434 51.5611 204.434 51.4562C204.434 51.3512 204.521 51.2659 204.628 51.2658ZM214.155 48.7568C214.262 48.7568 214.349 48.8423 214.349 48.9472C214.349 49.0521 214.262 49.1376 214.155 49.1376C214.048 49.1376 213.961 49.0521 213.961 48.9472C213.961 48.8423 214.048 48.7568 214.155 48.7568ZM215.87 46.5939C217.001 46.5939 217.289 47.0161 217.289 47.4133C217.289 47.8104 216.777 48.1022 215.57 47.7247C214.363 47.3473 213.726 47.7574 213.642 47.5458C213.541 47.291 214.738 46.5939 215.87 46.5939ZM209.833 58.229C210.369 58.1348 210.48 57.74 210.988 57.2338C211.201 57.0214 211.136 56.7692 210.985 56.266C210.805 55.6621 210.574 54.9894 210.72 54.7852C210.937 54.4828 211.303 54.8575 211.844 54.8418C212.51 54.8224 212.857 55.1117 213.42 55.4363C213.598 55.5391 214.27 56.5959 213.655 57.0515C212.952 57.5724 212.468 58.0343 212.43 58.1297C212.288 58.4854 211.573 59.0667 210.439 59.0322C209.921 59.0165 209.614 58.9372 209.344 58.8144C208.757 58.5478 208.298 58.6461 208.072 58.4999C207.924 58.4039 207.642 58.1625 207.894 57.901C207.929 57.865 208.195 58.1114 208.658 58.2665C208.995 58.3797 209.471 58.2926 209.833 58.229ZM212.292 55.2925C212.719 55.2925 212.953 55.5764 212.953 55.9368C212.953 56.2972 212.501 56.765 212.126 56.765C211.912 56.765 211.714 56.7927 211.637 56.2572C211.615 56.1048 211.523 55.966 211.479 55.8372C211.308 55.3452 211.866 55.2925 212.292 55.2925ZM211.455 61.0515C212.011 60.9308 211.843 60.6847 212.914 60.1973C213.419 59.9675 213.914 59.9202 214.452 59.6543C215.412 59.1792 216.381 58.749 217.016 58.6014C217.358 58.5218 217.584 58.7164 217.716 58.8241C217.375 59.0021 217.018 59.3555 216.567 59.6226C216.098 59.9006 215.671 60.4843 215.451 60.8768C215.223 61.2836 215.167 61.8498 214.867 62.2428C214.345 62.9281 212.049 63.9907 210.297 63.3541C209.225 62.9642 208.925 62.0649 208.521 61.9598C207.587 61.7164 207.547 61.7867 207.565 61.3906C207.778 61.4272 208.137 61.5267 208.998 61.4251C209.449 61.3719 209.982 61.1007 210.414 61.0547C210.85 61.0082 211.236 61.0991 211.455 61.0515ZM211.601 61.8679C212.946 61.4897 214.191 60.4555 214.399 60.8402C214.607 61.2247 213.682 62.317 211.747 62.6956C210.676 62.9051 209.618 62.6421 209.52 62.3127C209.402 61.9171 209.971 62.3262 211.601 61.8679ZM204.057 23.8073C204.654 23.8017 205.039 23.6519 205.502 23.5877C206.06 23.5103 206.682 23.5166 207.298 23.5154C208.198 23.5136 208.76 24.1104 208.766 24.637C208.779 25.9605 208.389 26.4056 207.617 26.9031C206.972 27.3182 205.54 27.3776 204.683 27.4025C204.559 27.789 204.487 28.0509 204.615 28.2293C204.677 28.3144 204.914 28.2325 204.894 28.305L204.809 28.6046L202.91 28.7348L202.968 28.4291C203.073 28.3413 203.465 28.3954 203.571 27.9376L204.467 24.0627L204.074 24.0669L204.057 23.8073ZM205.556 24.0127C205.886 24.0127 207.211 23.6688 207.422 24.2628C207.61 24.7922 207.431 26.4238 206.508 26.7704C205.826 27.0269 205.321 27.0587 204.799 27.0975L205.556 24.0127ZM200.781 24.436C202.098 24.4232 201.943 25.9759 201.152 25.8883C200.257 25.7891 200.932 25.0731 200.44 24.9705C199.769 24.831 199.361 25.75 199.097 26.5524C198.822 27.392 198.324 28.6794 198.808 28.981C199.111 29.1697 200.128 29.1777 200.353 28.1575C200.497 27.5015 201.608 27.4736 201.408 28.0951C201.046 29.2196 199.761 29.5318 198.898 29.5666C197.467 29.624 197.402 27.7207 197.842 26.8088C198.591 25.2559 199.31 24.4503 200.781 24.436ZM194.916 26.7753C195.588 26.7753 195.36 28.1309 194.734 28.0353C194.169 27.9489 194.723 27.5596 194.355 27.3996C193.917 27.2086 193.345 28.7819 193.26 29.0071C192.953 29.823 192.596 31.2496 192.834 31.3844C193.018 31.489 193.736 31.5043 193.914 30.4839C194.029 29.8279 194.734 29.9283 194.689 30.1779C194.483 31.3175 193.3 31.8647 192.616 31.9058C191.657 31.9633 191.878 30.3163 192.265 29.4175C192.652 28.5188 193.75 26.7753 194.916 26.7753ZM191.389 29.1353C192.017 29.1353 191.645 30.4525 191.06 30.3568C190.531 30.2705 191.355 29.7145 191.011 29.5544C190.601 29.3635 189.967 31.1804 189.888 31.4055C189.601 32.2216 189.035 33.3916 189.257 33.5264C189.43 33.631 190.101 33.6463 190.268 32.626C190.375 31.9699 190.949 32.0703 190.907 32.3198C190.715 33.4595 189.634 34.0154 189.053 34.0479C188.365 34.0863 188.766 32.5353 189.079 31.8033C189.392 31.0712 190.505 29.1353 191.389 29.1353Z" fill="#3C2B99"/>
<path d="M224.471 7.00976L226.765 5.12192L223.075 5.79162L221.66 4.41224L221.084 5.79703L213.896 6.64533L220.359 7.68546L218.448 10.9354L222.624 8.18963L227.19 9.27724L224.471 7.00976Z" fill="white"/>
<path d="M240.621 15.9868L242.166 17.8498C242.535 18.2942 242.782 18.6854 242.909 19.0234C243.024 19.3356 243.05 19.5852 242.989 19.7724C242.931 19.9649 242.791 20.1547 242.567 20.3417L241.87 20.9228C241.662 21.0965 241.45 21.1734 241.235 21.1536C241.025 21.1293 240.794 21.019 240.54 20.8226L240.508 20.8493C240.696 21.1731 240.786 21.483 240.778 21.779C240.781 22.0759 240.672 22.3156 240.453 22.4982L239.58 23.2262C239.201 23.5424 238.817 23.6232 238.427 23.4685C238.036 23.3139 237.566 22.9047 237.015 22.2409L235.424 20.3216L238.022 18.1542L240.621 15.9868ZM239.912 19.7708C240.183 20.0974 240.424 20.2902 240.635 20.3492C240.857 20.4092 241.074 20.3501 241.288 20.172L241.896 19.6644C242.094 19.4996 242.173 19.3116 242.133 19.1002C242.093 18.8889 241.933 18.6146 241.654 18.2773L240.754 17.1932L238.993 18.6626L239.912 19.7708ZM237.552 21.7933C237.876 22.1842 238.145 22.4265 238.358 22.5203C238.571 22.6141 238.774 22.5809 238.966 22.4206L239.751 21.766C239.89 21.6502 239.975 21.5295 240.006 21.4038C240.047 21.279 240.038 21.1422 239.977 20.9932C239.912 20.8487 239.844 20.7288 239.774 20.6333C239.709 20.5334 239.601 20.3924 239.45 20.2104L238.504 19.0701L236.606 20.653L237.552 21.7933Z" fill="white"/>
<path d="M239.857 26.9835C239.616 26.568 239.469 26.2231 239.414 25.9489C239.363 25.6806 239.407 25.4376 239.546 25.2198C239.688 25.0081 239.946 24.7938 240.318 24.5769C240.648 24.3846 240.93 24.2811 241.162 24.2665C241.404 24.2545 241.629 24.3371 241.836 24.5144C242.046 24.6978 242.272 24.9972 242.513 25.4127L243.271 26.7224L243.965 26.3184C244.127 26.224 244.231 26.1192 244.276 26.004C244.332 25.8913 244.334 25.7492 244.282 25.5777C244.235 25.4122 244.129 25.188 243.965 24.9049C243.703 24.4533 243.378 23.9745 242.989 23.4685L243.583 23.1223C243.982 23.687 244.322 24.2102 244.601 24.6919C244.893 25.1977 245.071 25.5938 245.132 25.8801C245.2 26.1629 245.166 26.4037 245.033 26.6024C244.899 26.8012 244.637 27.0142 244.246 27.2415L241.166 29.0356L240.711 28.2498L241.125 28.0085C240.75 28.1381 240.328 27.7964 239.857 26.9835ZM240.467 26.8095C240.638 27.1045 240.803 27.3422 240.964 27.5224C241.175 27.7619 241.38 27.824 241.578 27.7086L242.767 27.0161L242.039 25.7606C241.89 25.5017 241.76 25.3273 241.652 25.2374C241.55 25.1439 241.434 25.1106 241.305 25.1375C241.176 25.1643 240.992 25.2476 240.751 25.3875C240.535 25.5134 240.379 25.6324 240.284 25.7445C240.194 25.8531 240.153 25.9773 240.162 26.1172C240.177 26.2536 240.247 26.4301 240.373 26.6469L240.467 26.8095Z" fill="white"/>
<path d="M241.633 30.5433C241.595 30.4462 241.567 30.3485 241.55 30.2502L242.296 29.9533C242.312 30.0516 242.339 30.146 242.374 30.2366C242.485 30.5149 242.772 30.6552 243.236 30.6576C243.709 30.6639 244.491 30.4498 245.582 30.0154L246.686 29.5758L247.951 32.7694L243.265 34.6358L242.919 33.7622L247.034 32.1233L246.422 30.5799L245.744 30.8498C244.68 31.274 243.787 31.4833 243.068 31.4777C242.355 31.4695 241.877 31.1581 241.633 30.5433Z" fill="white"/>
<path d="M244.161 38.2586C243.808 36.7538 244.132 35.8834 245.132 35.6475L247.069 35.1908C247.664 35.0506 248.129 35.1196 248.466 35.398C248.81 35.6815 249.072 36.2063 249.252 36.9722C249.422 37.6975 249.419 38.249 249.244 38.6265C249.07 39.0109 248.676 39.2756 248.061 39.4206L246.976 39.6765L246.201 36.3719L245.461 36.5465C245.123 36.6262 244.907 36.8022 244.814 37.0745C244.721 37.3468 244.732 37.7304 244.848 38.2252C244.958 38.6929 245.169 39.2262 245.48 39.8252L244.781 39.9901C244.499 39.3984 244.293 38.8212 244.161 38.2586ZM247.359 38.6203L248.13 38.4386C248.427 38.3685 248.609 38.2291 248.674 38.0206C248.748 37.8173 248.733 37.4987 248.632 37.0649C248.533 36.6446 248.404 36.3531 248.245 36.1904C248.092 36.0261 247.867 35.979 247.57 36.0492L246.799 36.2309L247.359 38.6203Z" fill="white"/>
<path d="M250.045 41.4564L250.12 42.3935L248.033 42.5611L248.231 45.0391L250.318 44.8715L250.393 45.8085L245.368 46.2122L245.293 45.2751L247.546 45.0941L247.348 42.6161L245.095 42.7971L245.02 41.86L250.045 41.4564Z" fill="white"/>
<path d="M249.645 49.242L249.774 47.4711L250.459 47.5213L250.134 51.9903L249.448 51.9401L249.577 50.1796L245.234 49.8616L245.302 48.924L249.645 49.242Z" fill="white"/>
<path d="M248.77 57.7589L243.861 56.6109L244.073 55.6954L247.695 56.5421L244.669 53.132L244.882 52.2165L249.792 53.3645L249.579 54.28L245.836 53.4047L248.971 56.8942L248.77 57.7589Z" fill="white"/>
<path d="M248.137 59.7478L247.781 60.6173L245.844 59.8196L244.902 62.119L246.839 62.9168L246.483 63.7864L241.819 61.8654L242.176 60.9958L244.266 61.8571L245.208 59.5576L243.118 58.6964L243.474 57.8268L248.137 59.7478Z" fill="white"/>
<path d="M245.507 65.88L244.979 66.6821L243.457 65.6754L242.918 66.4949C242.681 66.8553 242.467 67.1228 242.278 67.2975C242.084 67.4781 241.888 67.5736 241.69 67.5842C241.497 67.5987 241.282 67.5273 241.044 67.37L240.175 66.7948C239.566 66.3921 239.601 65.6764 240.277 64.6476L241.299 63.0958L245.507 65.88ZM243.028 69.6463L242.512 70.4309L238.304 67.6467L238.82 66.8621L243.028 69.6463ZM240.816 64.929C240.705 65.0975 240.614 65.2872 240.541 65.4981C240.46 65.736 240.541 65.9355 240.784 66.0966L241.314 66.4475C241.483 66.5587 241.625 66.6199 241.743 66.6309C241.857 66.6477 241.969 66.6095 242.08 66.5163C242.188 66.4289 242.316 66.2718 242.465 66.0451L242.941 65.3215L241.281 64.2228L240.816 64.929Z" fill="white"/>
<path d="M237.051 77.9894L235.135 79.4668C234.679 79.8192 234.279 80.0525 233.938 80.1667C233.622 80.2694 233.372 80.2864 233.188 80.2176C232.999 80.1531 232.815 80.0049 232.637 79.7731L232.084 79.0528C231.919 78.8375 231.851 78.6225 231.879 78.4076C231.911 78.1983 232.03 77.9705 232.235 77.7243L232.21 77.6912C231.88 77.8665 231.568 77.9448 231.273 77.9262C230.977 77.9172 230.742 77.7996 230.569 77.5733L229.876 76.6709C229.576 76.279 229.51 75.8905 229.679 75.5054C229.848 75.1204 230.274 74.6646 230.956 74.1382L232.929 72.6162L237.051 77.9894ZM233.307 77.1346C232.971 77.3936 232.77 77.6279 232.703 77.8377C232.635 78.0572 232.686 78.2773 232.855 78.4981L233.338 79.1273C233.494 79.3315 233.679 79.4177 233.891 79.3859C234.103 79.3541 234.382 79.2044 234.729 78.937L235.844 78.0772L234.446 76.2558L233.307 77.1346ZM231.382 74.6929C230.98 75.0028 230.728 75.2628 230.626 75.473C230.525 75.6831 230.55 75.8876 230.703 76.0863L231.325 76.8976C231.435 77.0411 231.552 77.1309 231.676 77.167C231.799 77.2129 231.936 77.2084 232.086 77.1537C232.233 77.0934 232.355 77.0299 232.453 76.9633C232.555 76.9021 232.7 76.7994 232.887 76.6551L234.059 75.7508L232.554 73.7886L231.382 74.6929Z" fill="white"/>
<path d="M228.089 76.8003C228.182 76.7539 228.277 76.7184 228.374 76.6938L228.73 77.4145C228.633 77.439 228.542 77.473 228.455 77.5162C228.187 77.6492 228.071 77.9478 228.107 78.4119C228.139 78.8854 228.416 79.6493 228.937 80.7037L229.465 81.7706L226.394 83.2966L224.155 78.767L224.995 78.3496L226.961 82.327L228.445 81.5895L228.121 80.9344C227.612 79.9049 227.331 79.0304 227.278 78.3109C227.228 77.5976 227.498 77.094 228.089 76.8003Z" fill="white"/>
<path d="M221.201 79.7229C221.659 79.5822 222.027 79.5163 222.306 79.5253C222.578 79.5364 222.804 79.6344 222.984 79.8194C223.157 80.0065 223.307 80.3064 223.433 80.7192C223.545 81.0854 223.582 81.3836 223.543 81.614C223.5 81.853 223.369 82.0536 223.15 82.2156C222.924 82.3797 222.582 82.5321 222.124 82.6729L220.68 83.1166L220.915 83.8856C220.97 84.0654 221.048 84.1906 221.149 84.2614C221.246 84.3409 221.384 84.3751 221.562 84.364C221.734 84.355 221.975 84.3025 222.287 84.2066C222.785 84.0536 223.324 83.8443 223.904 83.5788L224.106 84.2379C223.467 84.4998 222.881 84.7124 222.35 84.8756C221.793 85.047 221.368 85.1302 221.076 85.1252C220.786 85.127 220.559 85.0399 220.397 84.8641C220.234 84.6883 220.087 84.3841 219.954 83.9513L218.911 80.5359L219.777 80.2696L219.917 80.729C219.877 80.3337 220.304 79.9984 221.201 79.7229ZM221.231 80.3581C220.906 80.458 220.637 80.566 220.426 80.682C220.146 80.8337 220.039 81.0194 220.106 81.2391L220.509 82.5574L221.893 82.132C222.179 82.0443 222.377 81.9577 222.489 81.8723C222.603 81.7936 222.662 81.6882 222.665 81.5562C222.668 81.4241 222.629 81.2249 222.548 80.9586C222.474 80.7189 222.394 80.5396 222.307 80.4207C222.222 80.3085 222.111 80.2408 221.973 80.2176C221.837 80.2011 221.65 80.2295 221.41 80.303L221.231 80.3581Z" fill="white"/>
<path d="M212.53 82.2336L212.251 80.2372L213.045 80.1255L213.239 81.5116L217.086 80.9705L216.892 79.5844L217.687 79.4727L217.966 81.4691L217.646 81.5141C217.495 81.5353 217.363 81.6699 217.25 81.9178C217.139 82.1726 217.07 82.5619 217.045 83.0857C217.022 83.6164 217.065 84.2783 217.176 85.0713L217.312 86.0437L213.846 86.5311L213.231 82.135L212.53 82.2336ZM214.16 82.0044L214.689 85.7902L216.412 85.548L216.31 84.8239C216.21 84.1067 216.172 83.4828 216.196 82.952C216.214 82.4292 216.326 82.0021 216.532 81.6707L214.16 82.0044Z" fill="white"/>
<path d="M206.831 86.6342L206.924 81.5796L207.861 81.5969L207.793 85.3252L210.486 81.6453L211.423 81.6625L211.33 86.7171L210.393 86.6998L210.464 82.8462L207.716 86.6505L206.831 86.6342Z" fill="white"/>
<path d="M204.721 86.4986L203.238 86.2104L202.516 81.8781L202.475 81.8701L200.293 85.6379L198.861 85.3596L199.821 80.3966L200.67 80.5616L199.873 84.6838L199.924 84.6937L202.244 80.8677L203.175 81.0486L203.963 85.4789L204.014 85.4888L204.811 81.3666L205.68 81.5356L204.721 86.4986Z" fill="white"/>
<path d="M192.055 82.9479L193.866 78.2297L194.741 78.5673L193.405 82.0475L197.19 79.5127L198.065 79.8503L196.255 84.5684L195.38 84.2308L196.76 80.6337L192.882 83.2667L192.055 82.9479Z" fill="white"/>
<path d="M190.254 82.1062L189.436 81.6459L189.702 81.1723C189.424 81.5113 188.819 81.4182 187.887 80.8931C187.33 80.5794 186.975 80.2241 186.823 79.827C186.668 79.4361 186.692 79.0584 186.896 78.6941L187.911 76.8818C188.057 76.6207 188.224 76.4152 188.412 76.2652C188.593 76.1118 188.775 76.0146 188.957 75.9735C189.124 75.9317 189.322 75.9349 189.549 75.9833C189.771 76.0283 189.981 76.0945 190.179 76.182C190.358 76.2593 190.569 76.3661 190.812 76.5025C191.078 76.6525 191.306 76.8209 191.496 77.0078C191.677 77.1973 191.76 77.3681 191.747 77.5203L192.915 75.4347L193.732 75.895L190.254 82.1062ZM190.482 77.0478C190.167 76.8705 189.916 76.7571 189.729 76.7075C189.532 76.6606 189.364 76.6774 189.223 76.7579C189.082 76.8385 188.942 77.0032 188.803 77.2521L187.895 78.8732C187.742 79.1465 187.665 79.3703 187.662 79.5448C187.66 79.7193 187.732 79.8755 187.878 80.0135C188.014 80.1541 188.243 80.3148 188.564 80.4955C188.884 80.6762 189.143 80.79 189.34 80.8369C189.527 80.8864 189.695 80.8649 189.842 80.7722C189.99 80.6796 190.14 80.4966 190.293 80.2234L191.201 78.6023C191.337 78.3594 191.404 78.1538 191.403 77.9854C191.392 77.8196 191.316 77.6647 191.173 77.5207C191.027 77.3827 190.797 77.2251 190.482 77.0478Z" fill="white"/>
<path d="M186.039 73.3543C186.391 73.6266 186.644 73.8445 186.799 74.0082C186.958 74.1664 187.093 74.3549 187.206 74.5737C187.323 74.7968 187.354 75.0312 187.296 75.277C187.234 75.5282 187.082 75.811 186.841 76.1252L185.772 77.5144C185.581 77.7625 185.383 77.9569 185.178 78.0975C184.973 78.2382 184.781 78.3226 184.602 78.3507C184.447 78.3806 184.268 78.3566 184.065 78.2786C183.852 78.2018 183.652 78.1037 183.463 77.9841C183.257 77.8419 183.046 77.6879 182.832 77.522C182.546 77.3008 182.338 77.1266 182.208 76.9995C182.068 76.8736 181.932 76.7248 181.801 76.5531C181.669 76.3716 181.594 76.1951 181.577 76.0235C181.56 75.852 181.591 75.6469 181.669 75.4084C181.757 75.1687 181.899 74.922 182.094 74.6684L183.163 73.2792C183.523 72.8106 183.894 72.5518 184.273 72.5027C184.429 72.4825 184.609 72.5115 184.812 72.5895C185.015 72.6675 185.211 72.7663 185.399 72.8859C185.617 73.0365 185.83 73.1926 186.039 73.3543ZM185.663 73.8422C185.433 73.6635 185.261 73.5393 185.148 73.4695C185.035 73.3997 184.91 73.3513 184.773 73.3243C184.64 73.2919 184.516 73.3104 184.401 73.3798C184.276 73.4505 184.144 73.5768 184.004 73.7588L182.757 75.3795C182.566 75.6276 182.458 75.8302 182.434 75.9872C182.405 76.1498 182.453 76.3051 182.576 76.453C182.689 76.6022 182.899 76.7959 183.207 77.0341C183.515 77.2724 183.758 77.4296 183.936 77.5059C184.105 77.5834 184.264 77.5877 184.413 77.5187C184.558 77.4553 184.727 77.2995 184.917 77.0514L186.165 75.4306C186.305 75.2487 186.396 75.0905 186.438 74.956C186.47 74.8227 186.454 74.6957 186.389 74.575C186.328 74.4489 186.25 74.3398 186.154 74.248C186.058 74.1561 185.894 74.0209 185.663 73.8422Z" fill="white"/>
<path d="M179.397 74.5402L177.859 72.9516C177.545 72.6269 177.313 72.3477 177.164 72.1141C177.01 71.8853 176.935 71.6823 176.937 71.5051C176.94 71.3377 176.974 71.1978 177.039 71.0855C177.105 70.9732 177.217 70.8395 177.377 70.6842L177.504 70.5605C177.698 70.3713 177.891 70.2806 178.082 70.2883C178.274 70.2961 178.508 70.3931 178.785 70.5794L178.815 70.5503C178.353 69.8738 178.324 69.339 178.728 68.9461L178.945 68.7351C179.189 68.4974 179.429 68.3606 179.665 68.3246C179.892 68.2886 180.144 68.3538 180.421 68.5204C180.699 68.687 181.033 68.9726 181.425 69.3773L183.014 71.0183L179.397 74.5402ZM179.325 71.4072C179.132 71.2074 178.972 71.0721 178.845 71.0013C178.714 70.9353 178.596 70.9188 178.492 70.9518C178.384 70.9896 178.255 71.0813 178.105 71.2268L178.06 71.2704C177.926 71.4014 177.846 71.5184 177.82 71.6215C177.789 71.7195 177.812 71.8331 177.888 71.9623C177.955 72.0913 178.088 72.2582 178.286 72.463L179.208 73.4147L180.269 72.3814L179.325 71.4072ZM180.903 69.8128C180.676 69.578 180.489 69.4152 180.343 69.3244C180.197 69.2336 180.07 69.1973 179.962 69.2154C179.848 69.2383 179.724 69.3153 179.59 69.4463L179.351 69.6791C179.226 69.8004 179.172 69.9548 179.189 70.1421C179.216 70.3297 179.387 70.5858 179.701 70.9105L180.71 71.952L181.875 70.8169L180.903 69.8128Z" fill="white"/>
<path d="M174.964 69.7672L174.413 69.0065L176.107 67.773L174.651 65.7614L172.956 66.9949L172.406 66.2342L176.485 63.2639L177.036 64.0246L175.207 65.3563L176.664 67.3679L178.493 66.0362L179.043 66.7969L174.964 69.7672Z" fill="white"/>
<path d="M171.105 64.2976L170.681 63.4355L172.317 62.6282L171.885 61.7473C171.694 61.36 171.572 61.04 171.518 60.7874C171.46 60.5286 171.477 60.3107 171.568 60.1338C171.653 59.9599 171.824 59.8099 172.079 59.6838L173.014 59.2225C173.668 58.8996 174.266 59.2911 174.809 60.3969L175.628 62.065L171.105 64.2976ZM169.117 60.2492L168.703 59.4058L173.227 57.1732L173.641 58.0166L169.117 60.2492ZM174.295 60.7207C174.206 60.5395 174.089 60.3644 173.944 60.1953C173.78 60.0043 173.568 59.9734 173.306 60.1026L172.736 60.384C172.555 60.4731 172.431 60.5658 172.362 60.6619C172.29 60.7518 172.266 60.8684 172.29 61.0118C172.311 61.1489 172.381 61.3394 172.5 61.583L172.882 62.3608L174.667 61.4798L174.295 60.7207Z" fill="white"/>
<path d="M164.859 50.2397L165.287 52.4972L164.591 52.6299L163.546 47.1196L164.242 46.9869L164.67 49.2444L170.616 48.1109L170.804 49.1062L164.859 50.2397Z" fill="white"/>
<path d="M170.245 43.4168C170.301 44.9616 169.816 45.7528 168.789 45.7905L166.801 45.8633C166.19 45.8857 165.746 45.7277 165.47 45.3894C165.187 45.0445 165.03 44.4788 165.002 43.6924C164.975 42.9479 165.083 42.4073 165.328 42.0709C165.573 41.7274 166.011 41.5442 166.642 41.521L167.756 41.4802L167.88 44.8726L168.64 44.8448C168.987 44.8321 169.232 44.7011 169.376 44.452C169.52 44.2028 169.582 43.8243 169.564 43.3163C169.546 42.8361 169.442 42.272 169.252 41.624L169.97 41.5977C170.132 42.2328 170.224 42.8392 170.245 43.4168ZM167.176 42.4422L166.385 42.4711C166.08 42.4823 165.875 42.5839 165.771 42.7758C165.66 42.9611 165.612 43.2764 165.628 43.7218C165.644 44.1532 165.714 44.4642 165.839 44.6547C165.958 44.8455 166.169 44.9353 166.475 44.9241L167.266 44.8951L167.176 42.4422Z" fill="white"/>
<path d="M165.079 39.2064L165.188 38.2728L165.726 38.3362C165.307 38.2097 165.161 37.614 165.285 36.5489C165.36 35.9127 165.551 35.4479 165.858 35.1546C166.158 34.8605 166.515 34.7378 166.929 34.7867L168.988 35.0295C169.284 35.0645 169.538 35.14 169.748 35.2559C169.959 35.365 170.118 35.496 170.226 35.6489C170.329 35.7872 170.402 35.9711 170.445 36.2005C170.488 36.4231 170.508 36.6427 170.504 36.8596C170.502 37.0556 170.484 37.292 170.452 37.5686C170.416 37.8729 170.349 38.1489 170.25 38.3967C170.145 38.6367 170.02 38.7797 169.874 38.8257L172.243 39.1051L172.134 40.0388L165.079 39.2064ZM169.823 37.4734C169.865 37.1138 169.873 36.8378 169.847 36.6454C169.815 36.4452 169.734 36.2955 169.606 36.1963C169.478 36.097 169.272 36.0307 168.99 35.9973L167.148 35.7801C166.838 35.7435 166.602 35.7577 166.44 35.8228C166.279 35.8879 166.163 36.0144 166.092 36.2023C166.015 36.3826 165.955 36.6559 165.912 37.0225C165.869 37.389 165.863 37.6723 165.896 37.8725C165.922 38.0649 166.006 38.2116 166.148 38.3124C166.29 38.4133 166.517 38.4821 166.827 38.5187L168.668 38.7359C168.944 38.7685 169.159 38.7518 169.314 38.6859C169.462 38.6123 169.576 38.4819 169.653 38.2948C169.724 38.1068 169.781 37.8331 169.823 37.4734Z" fill="white"/>
<path d="M171.494 32.122C171.076 33.61 170.372 34.2143 169.383 33.935L167.468 33.3942C166.88 33.2281 166.506 32.9416 166.346 32.5348C166.181 32.1193 166.205 31.5329 166.418 30.7755C166.619 30.0583 166.888 29.5771 167.224 29.3319C167.561 29.08 168.034 29.04 168.643 29.2117L169.715 29.5147L168.798 32.7822L169.53 32.9889C169.864 33.0833 170.137 33.034 170.35 32.8409C170.563 32.6478 170.738 32.3066 170.876 31.8173C171.006 31.3549 171.079 30.7859 171.095 30.1106L171.787 30.3059C171.748 30.9603 171.65 31.5657 171.494 32.122ZM168.87 30.2525L168.108 30.0373C167.814 29.9543 167.588 29.9881 167.43 30.1389C167.267 30.2811 167.126 30.5667 167.005 30.9956C166.889 31.4112 166.861 31.7289 166.922 31.9486C166.976 32.1665 167.15 32.317 167.444 32.4L168.206 32.6152L168.87 30.2525Z" fill="white"/>
<path d="M167.833 26.3847L168.253 25.544L172.147 27.4983L173.028 25.7329L169.134 23.7787L169.558 22.9287L173.452 24.8829L174.333 23.1176L170.44 21.1634L170.859 20.3228L175.367 22.5855L172.342 28.6474L167.833 26.3847Z" fill="white"/>
<path d="M172.039 18.615L172.614 17.8722L174.334 19.2102C174.398 19.1276 174.433 19.0488 174.438 18.9737C174.442 18.8888 174.436 18.7779 174.418 18.6412L173.993 16.0895L174.695 15.1816L175.175 18.4633C175.247 18.4046 175.4 18.3604 175.634 18.3308C175.872 18.2957 176.241 18.2613 176.742 18.2276L178.838 18.0736L178.13 18.9898L176.052 19.119C175.767 19.1353 175.52 19.1765 175.311 19.2427C175.154 19.2973 175.054 19.3423 175.009 19.3778C174.958 19.409 174.916 19.4467 174.882 19.4907C174.848 19.5347 174.824 19.565 174.811 19.5815L176.598 20.9706L176.023 21.7134L172.039 18.615Z" fill="white"/>
<path d="M181.266 15.8108C180.939 16.1129 180.683 16.3267 180.496 16.4521C180.313 16.5827 180.105 16.6851 179.871 16.7593C179.632 16.8382 179.397 16.8287 179.165 16.7305C178.928 16.6272 178.676 16.4297 178.408 16.1378L177.221 14.8477C177.01 14.6173 176.852 14.3891 176.748 14.1631C176.644 13.9371 176.593 13.733 176.596 13.5508C176.592 13.3929 176.646 13.2202 176.757 13.0325C176.868 12.835 176.998 12.653 177.148 12.4866C177.322 12.3065 177.509 12.1244 177.708 11.9403C177.973 11.6949 178.179 11.5185 178.326 11.4111C178.474 11.2939 178.643 11.185 178.833 11.0844C179.034 10.9841 179.22 10.94 179.392 10.9519C179.563 10.9638 179.76 11.0285 179.981 11.1459C180.202 11.2732 180.421 11.4546 180.637 11.6901L181.823 12.9803C182.223 13.4154 182.416 13.8249 182.4 14.2087C182.394 14.3661 182.335 14.5386 182.224 14.7263C182.113 14.914 181.983 15.091 181.834 15.2574C181.649 15.447 181.46 15.6315 181.266 15.8108ZM180.85 15.3577C181.064 15.1595 181.215 15.0104 181.303 14.9105C181.39 14.8106 181.459 14.6951 181.508 14.5641C181.563 14.4382 181.565 14.3126 181.516 14.1874C181.468 14.0524 181.366 13.9004 181.21 13.7314L179.827 12.2262C179.615 11.9958 179.434 11.8554 179.283 11.8049C179.128 11.7493 178.968 11.7699 178.802 11.8666C178.636 11.9535 178.41 12.1291 178.124 12.3934C177.838 12.6577 177.643 12.8715 177.538 13.0348C177.434 13.1882 177.403 13.3446 177.445 13.5041C177.483 13.6584 177.608 13.8507 177.82 14.0811L179.204 15.5863C179.359 15.7553 179.499 15.8719 179.625 15.9361C179.75 15.9905 179.878 15.9957 180.007 15.9517C180.142 15.9128 180.262 15.8537 180.368 15.7742C180.475 15.6948 180.635 15.556 180.85 15.3577Z" fill="white"/>
<path d="M181.21 9.05124L183.058 7.83911C183.436 7.59135 183.753 7.41645 184.01 7.31442C184.263 7.20655 184.477 7.17076 184.65 7.20705C184.813 7.24132 184.943 7.30137 185.041 7.38721C185.138 7.47304 185.248 7.6092 185.37 7.79568L185.467 7.94428C185.615 8.17156 185.667 8.37867 185.623 8.56563C185.579 8.75258 185.439 8.96477 185.204 9.2022L185.227 9.23716C185.977 8.91156 186.506 8.98477 186.814 9.4568L186.979 9.71029C187.166 9.99584 187.254 10.2583 187.244 10.4977C187.236 10.7275 187.124 10.9631 186.909 11.2046C186.693 11.446 186.349 11.7211 185.879 12.0299L183.97 13.282L181.21 9.05124ZM184.291 9.57659C184.523 9.42412 184.686 9.29229 184.78 9.18109C184.869 9.06406 184.908 8.95141 184.895 8.84315C184.879 8.72905 184.814 8.58459 184.7 8.40977L184.666 8.35732C184.563 8.19998 184.464 8.09868 184.368 8.05341C184.278 8.00434 184.162 8.00525 184.021 8.05616C183.882 8.09743 183.693 8.1962 183.455 8.35248L182.348 9.07861L183.158 10.3199L184.291 9.57659ZM185.552 11.4331C185.825 11.2539 186.02 11.1011 186.136 10.9747C186.253 10.8482 186.313 10.73 186.316 10.6199C186.315 10.504 186.263 10.3674 186.16 10.2101L185.978 9.93036C185.883 9.78467 185.742 9.70232 185.555 9.6833C185.367 9.67392 185.083 9.79311 184.706 10.0409L183.494 10.8356L184.384 12.1992L185.552 11.4331Z" fill="white"/>
<path d="M190.823 9.43031C190.415 9.60923 190.103 9.72748 189.886 9.78505C189.671 9.84901 189.441 9.87788 189.196 9.87168C188.944 9.86827 188.725 9.78231 188.537 9.61379C188.347 9.43888 188.172 9.16967 188.013 8.80615L187.311 7.19901C187.185 6.91202 187.11 6.64473 187.085 6.39714C187.061 6.14955 187.079 5.94001 187.14 5.76851C187.188 5.61816 187.295 5.47235 187.461 5.33108C187.63 5.18064 187.813 5.05112 188.008 4.94253C188.231 4.82913 188.467 4.71791 188.715 4.60888C189.046 4.46351 189.298 4.36404 189.471 4.31049C189.649 4.24776 189.844 4.19997 190.057 4.16712C190.279 4.13785 190.47 4.15685 190.628 4.22412C190.786 4.29139 190.951 4.41667 191.122 4.59996C191.29 4.79242 191.437 5.03534 191.566 5.3287L192.268 6.93585C192.505 7.47794 192.554 7.92786 192.415 8.28562C192.358 8.43239 192.246 8.57641 192.08 8.71768C191.915 8.85895 191.734 8.98388 191.539 9.09247C191.303 9.21146 191.064 9.32407 190.823 9.43031ZM190.576 8.8659C190.843 8.74848 191.034 8.65683 191.149 8.59096C191.265 8.52509 191.367 8.43829 191.456 8.33057C191.548 8.22923 191.592 8.11137 191.586 7.97701C191.584 7.83347 191.537 7.65647 191.445 7.44601L190.625 5.57101C190.5 5.28402 190.374 5.09213 190.249 4.99533C190.12 4.89215 189.962 4.85917 189.773 4.89639C189.588 4.92444 189.318 5.01674 188.962 5.1733C188.605 5.32985 188.351 5.4682 188.199 5.58832C188.05 5.69927 187.97 5.83709 187.959 6.00177C187.945 6.16008 188 6.38272 188.126 6.66971L188.945 8.54471C189.037 8.75517 189.132 8.9112 189.23 9.01281C189.331 9.10524 189.45 9.1518 189.586 9.1525C189.726 9.15957 189.859 9.14293 189.985 9.10257C190.112 9.06221 190.309 8.98332 190.576 8.8659Z" fill="white"/>
<path d="M197.184 1.94263L198.439 6.83871L197.531 7.07287L196.605 3.46151L194.989 7.72852L194.081 7.96268L192.826 3.0666L193.733 2.83244L194.691 6.56519L196.326 2.16378L197.184 1.94263ZM194.826 1.80662C194.375 1.92283 193.989 1.90012 193.668 1.73847C193.345 1.57008 193.123 1.29291 193.003 0.906968L193.749 0.714436C193.931 1.22832 194.248 1.42715 194.698 1.31094C195.142 1.19646 195.324 0.869274 195.242 0.329373L195.989 0.136841C196.074 0.524713 196.012 0.871358 195.804 1.17678C195.602 1.48046 195.276 1.69041 194.826 1.80662Z" fill="white"/>
</g>
<defs>
<clipPath id="clip0_84_15">
<rect width="252" height="87" fill="white"/>
</clipPath>
</defs>
</svg>
