<svg width="252" height="86" fill="none" xmlns="http://www.w3.org/2000/svg">
    <g clip-path="url(#clip0_84_15)">
        <circle cx="208.762" cy="47.031" r="28.219" fill="#fff"/>
        <path fill-rule="evenodd" clip-rule="evenodd"
              d="M226.995 4.436l-2.294 1.888 2.719 2.267-4.565-1.087-4.177 2.746L220.589 7l-6.463-1.04 7.188-.849.577-1.385 1.414 1.38 3.69-.67zm-3.121 46.19c-1.14 1.357-3.13.801-3.896-.644-.954-1.799-1.287-3.698-.194-4.372.612-.377.681-1.558.048-1.986-3.36-2.274-9.16-2.208-13.364-.872-1.913.608-4.254 1.666-5.702 3.144-1.304 1.332-1.772 2.69-1.785 3.734.301-.468.388-.209.421 0 .194 1.24.714 1.478 1.531 4.804.115.469.227 1.056.326 1.58.099.526.212.817.142.901.149.854-.525 1.119-.983.221-.477-.764-.875-1.571-1.153-3.338-.223-1.418.144-2.522-.267-2.828-.193-.144-.466 1.985-.183 3.785.284 1.811 1.576 4.212 2.428 5.36a20.886 20.886 0 0 0 4.918 4.725c-.11.085-.151.225-.205.336.298-.158.563-.203.765-.21.715-.022 1.461.332 1.526.555.01.116-.452.026-.992-.09-.601-.129-1.322-.037-1.557.246-.534.643.041 1.392.325 1.668-.196.689-.954 1.622-1.736 1.11-.967-.632-1.766-2.215-.138-3.015.04-.02.71-.273 1.479-.375-3.82-2.12-6.13-3.944-7.826-8.301-.42-1.078-1.465-5.398-1.18-8.456.549-5.888 4.859-8.584 10.508-9.71 5.905-1.178 12.452-.781 13.786 1.02.637.862 1.545.07 2.576.926 2.214 1.66 4.599 4.712 4.745 9.155.189 5.78-2.655 8.568-2.519 7.63.125-.858.346-3.166-.127-5.087-.992-4.028-1.818-5.737-4.584-7.864-.308-.288-.478-.014-.152.4 1.522 1.706 2.046 2.644 3.019 5.849zm-.837 7.522c-.24 1.673-1.004 2.91-1.78 3.668.422.28 1.017 1.063 1.263 1.488-.929-.105-2.045.343-3.052 1.611-.344-.162-.707-.818-.577-1.176.289-.795 1.117-1.27 2.066-1.325.301-.017-.023-.328-.149-.326-.742.01-2.105.397-2.411 1.552-.569-.36-2.004.72-2.379 1.223-.88 1.18-1.1 1.878-2.942 2.182-1.833.302-2.639-.124-3.296-1.015.201-1.3-.85-1.607-1.189-1.797-.342-.191-1.741-.445-2.232.323-1.313-1.38-4.057-4.609-4.255-6.67-.081-.85.261-.783.114-2.696-.09-1.174-.442-2.144-.526-2.454-.115-.423-.783-.556-.839-.984-.11-.841-.064-1.724.523-1.875.849-.219 1.699-.05 2.517.22-.377.106-.971.462-1.306.87-.316.385-.558.634-.725.858-.121.162.384.261.663.22.676-.1.711-1.128 1.454-1.23.112.43.34.783.729.889l.983-.137c.251-.172.365-.464.341-.856.569-.102 1.098.296 1.306.813.092.227.088.419.151.437.123.036.02-1.406-.537-2.078-.752-.907-1.733-1.144-3.486-1.144-.7 0-2.078-.31-2.634.126-.27.212-.285.549-.399.723-.076.006-.124.007-.126-.002-.383-1.606.291-3.144 1.265-3.989 1.21-1.048 3.553-1.809 4.949-2.28 3.295-1.11 6.259-1.334 7.935-.823 1.221.372 2.317 1.07 1.926 1.783-.148.27-.476-.028-.839-.06-1.239-.11-1.093.482-4.15 2.214-.306.173-.391.364-.976.51-.195.048-.353.352-.332.782.02.407.636.247.429.473-.208.227-.44.532-.453.882-.017.455.058.694.065.956.001.038.059.917.412 1.062.319.13.692-.462.696-.876-.108-.65.952-1.798 1.075-1.37.066.228-.413.713-.046.862.163.1.904-.081 1.022-.296.032-.06-.448-.08-.423-.148.231-.21.563-.879.822-1.028-.037.594.251.974.84 1.07.081.013.158.02.23.021l.647-.225c.197-.19.285-.484.287-.808.212.031.606.128.737.343.54-.27 1.043-.689 1.571-1.18.337-.313.371.349.427.572.481 1.936 1.108 3.062 2.281 3.619-.196.476-.455 1.18-.601 1.838-.19.857.708 1.802.788 3.203.059 1.03-.22 2.351-.107 2.223.569-.27.746-1.74.704-2.863-.025-.662-.166-1.301.155-1.38 1.264-.313 1.653 1.668 1.394 3.474zm-16.313-.08c-.023.28-.109.662-.136 1.03-.027.367.006.72-.06.947-.057.198-.831-.189-.597-.635.233-.446.839-1.905.793-1.343zm9.709-3.434c.715.296 1.929.955 2.358 1.503.308.395.178.705.132.854-.068.224-1.405-1.177-2.512-1.718-1.342-.655-2.121-.548-2.232-.726-.13-.207 1.376-.277 2.254.087zm-41.841-12.876c0-18.108 14.269-33.044 32.32-34.506-15.075 2.788-26.541 15.844-26.541 31.45 0 .513.013 1.024.037 1.531 3.044-13.194 15.087-23.096 29.41-23.096 16.608 0 30.154 13.314 30.154 29.637 0 16.324-13.546 29.637-30.154 29.637-19.262 0-35.226-15.597-35.226-34.653zm25.161 31.053l1.223-1.559c6.828 3.499 16.873-.456 22.709-5.16l1.1 1.339 2.864-2.645-1.253-1.263c6.028-6.949 6.356-15.107 4.084-22.68-.288-.881-.587-.635-.432.254 1.368 7.5.474 14.84-4.812 20.577-4.666 5.063-10.338 8.254-17.45 8.697-4.987.311-10.092-2.795-11.779-5.462-3.19-5.043-3.742-8.816-4-12.352l-1.314-.869c-.358 7.081 1.635 13.429 6.934 17.52l-1.185 1.336 3.311 2.267zM184.346 48.21c-.48 1.503-.868 9.109 6.323 11.748.293.108-2.537-3.434-3.23-6.01-.589-2.193.115-3.89.24-3.931-.784-.401-2.215-1.413-2.832-2.12-.584-.671-1.587-3.891.439-6.883 2.872-4.24 7.837-6.419 12.318-7.775 4.866-1.474 13.559-2.256 20.487-1.246 7.697 1.121 11.423 3.414 12.961 4.457-.061.057-.321.358-.568.552.4 3.434 1.697 6.944 3.909 10.09.682.97 2.017 1.535 1.515.628-.498-.898-1.531-3.602-2.147-6.508-.422-1.989-.518-4.072-.632-5.735-.15-2.198-2.437-.704-3.11-1.345-1.167-1.11-2.903-2.224-4.705-3.1-1.589-.771-2.852-1.034-2.679-1.695.137-.523 2.454-.345 4.13.133.747.214.38-4.363-6.883-8.184-3.184-1.675-7.786-2.58-13.9-1.247-.757-.259-2.329-.437-3.333-.234-2.437.49-4.175 1.438-5.807 3.262-1.754-.032-5.065 3.745-6.364 5.225-.358.024-1.156.523-1.498.75-2.656 1.767-3.562 8.874-4.85 11.375-1.53 2.083-1.916 6.175.216 7.793zm13.023 17.155c-2.662-3.22-3.297-6.18-3.54-6.819-.482-1.273-1.337-5.366-.713-5.57.134-.045 1.334 1.612 1.827 2.325.635.918 1.556 2.393.926 2.914-.6.497.002 2.982 1.407 5.598 1.63 3.033 4.57 4.292 4.759 4.62.301.526-2.589-.555-4.666-3.068zM211.747 33.6l.264.73c-6.968-.056-18.98 2.25-23.77 7.55-1.599 1.77-2.384 4.363-1.296 4.945-.215-1.324.747-2.778 1.939-4.305 2.742-3.516 10.968-5.902 15.678-6.607 5.543-.83 11.006-.88 15.442-.067 2.597.475 5.529 1.339 6.945 2.138.389-.686-2.957-3.176-11.926-3.604l-.073-2.2c-7.911-.506-19.02.42-26.936 7.054-.61.51-.969 1.637-.66 2.057 5.216-5.019 15.122-7.775 24.393-7.69zm-6.889 16.979c.107 0 .194.085.194.19s-.087.19-.194.19a.192.192 0 0 1-.193-.19c0-.105.087-.19.193-.19zm9.528-2.51c.106 0 .193.086.193.191 0 .105-.087.19-.193.19a.192.192 0 0 1-.194-.19c0-.105.087-.19.194-.19zm1.714-2.162c1.132 0 1.42.422 1.42.82 0 .397-.512.688-1.719.31-1.207-.377-1.845.034-1.929-.178-.101-.255 1.097-.952 2.228-.952zm-6.037 11.635c.536-.094.647-.489 1.155-.995.214-.212.148-.465-.002-.968-.181-.604-.412-1.276-.265-1.48.216-.303.583.072 1.123.056.666-.02 1.013.27 1.576.594.178.103.851 1.16.235 1.616-.703.52-1.187.982-1.225 1.078-.142.355-.856.937-1.991.902-.517-.015-.824-.095-1.095-.218-.587-.266-1.046-.168-1.271-.314-.148-.096-.431-.337-.178-.599.035-.036.3.21.763.366.338.113.813.026 1.175-.038zm2.46-2.936c.426 0 .661.283.661.644 0 .36-.452.828-.828.828-.214 0-.411.028-.488-.508-.022-.152-.114-.291-.159-.42-.171-.492.387-.544.814-.544zm-.838 5.759c.556-.121.389-.367 1.46-.855.504-.23.999-.277 1.537-.543.961-.475 1.93-.905 2.564-1.053.342-.08.568.115.7.223-.34.178-.698.532-1.148.799-.469.278-.896.861-1.116 1.254-.228.407-.284.973-.584 1.366-.523.685-2.819 1.748-4.57 1.111-1.073-.39-1.373-1.289-1.777-1.394-.934-.244-.973-.173-.956-.57.214.037.573.137 1.434.035.451-.053.984-.324 1.416-.37.436-.047.821.044 1.04-.003zm.146.816c1.345-.378 2.591-1.412 2.799-1.028.208.385-.718 1.477-2.653 1.856-1.071.21-2.128-.054-2.226-.383-.118-.396.45.013 2.08-.445zm-7.544-38.06c.597-.006.983-.156 1.445-.22.558-.078 1.181-.071 1.797-.073.899-.001 1.462.596 1.467 1.122.013 1.324-.376 1.769-1.149 2.266-.645.415-2.077.475-2.933.5-.125.386-.197.648-.068.826.061.085.299.004.278.076l-.084.3-1.9.13.059-.306c.105-.088.497-.034.603-.491l.896-3.875-.393.004-.018-.26zm1.499.205c.331 0 1.655-.344 1.866.25.189.53.01 2.16-.913 2.507-.683.257-1.188.289-1.71.328l.757-3.085zm-4.774.423c1.317-.013 1.161 1.54.37 1.452-.895-.099-.219-.815-.712-.917-.67-.14-1.079.78-1.342 1.581-.276.84-.773 2.128-.29 2.43.303.188 1.32.196 1.545-.824.144-.656 1.255-.684 1.055-.063-.362 1.125-1.646 1.437-2.51 1.472-1.431.057-1.495-1.846-1.055-2.758.749-1.553 1.468-2.359 2.939-2.373zm-5.865 2.34c.671 0 .443 1.355-.183 1.26-.564-.087-.011-.476-.378-.636-.439-.191-1.011 1.382-1.095 1.607-.307.816-.664 2.243-.427 2.378.185.104.902.12 1.081-.901.114-.656.819-.556.774-.306-.205 1.14-1.389 1.687-2.073 1.728-.958.057-.737-1.59-.351-2.488.387-.9 1.485-2.643 2.652-2.643zm-3.527 2.36c.628 0 .256 1.317-.33 1.22-.528-.085.295-.642-.049-.802-.41-.19-1.043 1.627-1.122 1.852-.287.816-.854 1.986-.631 2.12.172.105.844.12 1.011-.9.107-.656.681-.556.639-.306-.192 1.14-1.274 1.695-1.855 1.728-.688.038-.287-1.513.027-2.245.313-.732 1.425-2.668 2.31-2.668z"
              fill="#3C2B99"/>
        <path d="M224.701 6.323l2.295-1.888-3.691.67-1.414-1.38-.576 1.385-7.189.848 6.463 1.04-1.911 3.25 4.177-2.745 4.565 1.087-2.719-2.267zm14.739 6.918l1.545 1.864c.369.444.617.835.744 1.173.114.312.14.562.079.749-.057.193-.198.382-.422.57l-.697.58c-.208.174-.42.251-.635.231-.21-.024-.441-.134-.694-.33l-.032.026c.187.324.277.634.269.93a.878.878 0 0 1-.324.719l-.873.728c-.379.316-.764.397-1.154.242-.39-.154-.861-.564-1.411-1.227l-1.592-1.92 5.197-4.335zm-.709 3.785c.271.326.512.519.724.578.221.06.439 0 .652-.177l.609-.508c.197-.165.276-.353.236-.564-.04-.212-.199-.486-.479-.823l-.899-1.084-1.762 1.47.919 1.108zm-2.36 2.022c.324.39.593.633.806.727.214.094.416.06.609-.1l.785-.654a.72.72 0 0 0 .255-.363.587.587 0 0 0-.029-.41 2.059 2.059 0 0 0-.204-.36c-.065-.1-.173-.241-.324-.423l-.946-1.14-1.898 1.583.946 1.14zm3.396 6.042c-.24-.415-.388-.76-.442-1.035a.974.974 0 0 1 .131-.729c.143-.211.4-.426.772-.642.331-.193.612-.296.844-.31a.94.94 0 0 1 .674.247c.211.183.436.483.677.898l.758 1.31.694-.404c.162-.094.266-.2.312-.314.055-.113.057-.255.006-.427-.048-.165-.154-.39-.318-.672a13.33 13.33 0 0 0-.976-1.437l.594-.346c.4.565.739 1.088 1.018 1.57.293.505.47.901.531 1.188.068.283.035.523-.099.722-.134.199-.396.412-.786.64l-3.081 1.793-.455-.786.414-.24c-.374.129-.797-.213-1.268-1.026zm.61-.174c.171.295.337.533.497.713.211.24.416.302.614.186l1.189-.692-.727-1.256c-.15-.259-.279-.433-.388-.523a.375.375 0 0 0-.346-.1c-.129.027-.314.11-.554.25a1.848 1.848 0 0 0-.468.357.512.512 0 0 0-.121.373c.014.136.084.313.21.53l.094.162zm1.486 3.734a1.44 1.44 0 0 1-.082-.293l.745-.297c.017.098.043.193.079.283.11.279.397.419.862.421.473.007 1.255-.207 2.345-.642l1.104-.44 1.265 3.194-4.685 1.866-.346-.873 4.114-1.639-.611-1.544-.678.27c-1.065.425-1.957.634-2.677.628-.713-.008-1.191-.32-1.435-.934zm2.528 7.715c-.353-1.505-.029-2.375.972-2.61l1.936-.458c.595-.14 1.061-.07 1.397.208.345.283.607.808.787 1.574.17.725.167 1.277-.008 1.654-.174.385-.569.65-1.184.794l-1.085.256-.775-3.304-.74.174c-.338.08-.553.256-.647.528-.093.272-.081.656.035 1.15.11.469.32 1.002.632 1.6l-.7.166a8.659 8.659 0 0 1-.62-1.732zm3.199.362l.77-.182c.298-.07.479-.21.544-.418.074-.203.06-.522-.042-.956-.098-.42-.227-.711-.387-.874-.152-.164-.377-.211-.675-.141l-.77.181.56 2.39zm2.686 2.836l.075.937-2.087.168.198 2.478 2.087-.168.074.937-5.025.404-.075-.937 2.253-.181-.198-2.478-2.253.18-.075-.936 5.026-.404zm-.401 7.786l.129-1.771.686.05-.326 4.469-.685-.05.128-1.76-4.342-.319.068-.937 4.342.318zm-.874 9.723l-4.91-1.148.213-.916 3.621.847-3.025-3.41.213-.916 4.91 1.148-.213.916-3.743-.875 3.135 3.49-.201.864zm-.633 1.989l-.357.87-1.936-.798-.942 2.3 1.936.797-.356.87-4.663-1.922.356-.87 2.091.862.942-2.3-2.091-.86.356-.87 4.664 1.92zm-2.631 6.132l-.528.802-1.521-1.007-.539.82c-.238.36-.451.628-.641.803-.194.18-.39.276-.588.286-.192.015-.408-.057-.645-.214l-.87-.575c-.608-.403-.574-1.118.103-2.147l1.021-1.552 4.208 2.784zm-2.478 3.766l-.517.785-4.207-2.784.516-.785 4.208 2.784zm-2.212-4.717a2.497 2.497 0 0 0-.275.57c-.082.237-.001.437.243.598l.53.35c.168.112.311.173.428.184.114.017.227-.021.338-.115.107-.087.236-.244.385-.47l.476-.724-1.661-1.1-.464.707zm-2.558 12.824l-1.916 1.478c-.457.352-.856.585-1.198.7-.315.102-.565.12-.749.05-.19-.064-.373-.212-.551-.444l-.553-.72c-.165-.215-.233-.43-.206-.645.033-.21.151-.438.357-.684l-.026-.033c-.329.175-.642.254-.936.235a.879.879 0 0 1-.705-.353l-.692-.902c-.3-.392-.366-.78-.197-1.166.169-.385.594-.84 1.277-1.367l1.973-1.522 4.122 5.373zm-3.744-.854c-.336.258-.537.493-.604.703-.068.22-.018.44.152.66l.482.63c.157.204.341.29.553.258.213-.032.492-.182.839-.45l1.114-.859-1.397-1.821-1.139.879zm-1.926-2.442c-.401.31-.653.57-.755.78-.101.21-.076.415.076.613l.623.812c.11.143.227.233.351.269a.58.58 0 0 0 .41-.013c.147-.06.269-.124.367-.19.102-.062.246-.165.433-.309l1.173-.904-1.505-1.963-1.173.905zm-4.499 2.343c.093-.046.188-.082.284-.106l.356.72a1.391 1.391 0 0 0-.275.102c-.267.133-.383.432-.348.896.033.473.31 1.237.831 2.292l.527 1.067-3.071 1.526-2.238-4.53.84-.417 1.966 3.977 1.483-.737-.323-.656c-.509-1.029-.79-1.903-.844-2.623-.05-.713.22-1.217.812-1.51zm-6.889 2.923c.458-.14.827-.207 1.105-.198.272.011.498.11.678.294.174.188.324.487.45.9.112.367.148.665.11.895a.945.945 0 0 1-.394.602c-.226.164-.568.316-1.026.457l-1.444.444.235.769c.055.18.133.305.235.376.097.079.234.113.413.102.171-.009.413-.061.725-.157a13.318 13.318 0 0 0 1.617-.628l.201.659c-.639.262-1.224.474-1.755.638-.558.171-.983.254-1.275.25-.29.001-.516-.086-.679-.262-.162-.176-.31-.48-.442-.913l-1.044-3.415.867-.266.14.46c-.041-.396.387-.732 1.283-1.007zm.031.635a4.37 4.37 0 0 0-.806.324c-.28.152-.387.337-.32.557l.403 1.318 1.385-.425c.285-.088.484-.174.596-.26a.377.377 0 0 0 .175-.316c.004-.132-.035-.331-.117-.597a1.844 1.844 0 0 0-.24-.538.516.516 0 0 0-.335-.203c-.136-.017-.323.012-.562.085l-.179.055zm-8.702 1.876l-.279-1.997.794-.111.194 1.386 3.848-.541-.194-1.387.794-.111.279 1.996-.319.045c-.152.021-.284.156-.396.404-.112.255-.18.644-.205 1.168-.024.53.02 1.192.13 1.985l.136.973-3.466.487-.614-4.396-.702.099zm1.63-.23l.529 3.786 1.723-.242-.101-.724c-.1-.717-.139-1.341-.115-1.872.018-.523.13-.95.337-1.281l-2.373.334zm-7.328 4.63l.092-5.054.938.017-.069 3.728 2.693-3.68.937.018-.092 5.054-.938-.017.071-3.854-2.747 3.805-.885-.017zm-2.111-.135l-1.482-.288-.723-4.333-.04-.008-2.182 3.768-1.432-.278.959-4.963.849.165-.797 4.122.051.01 2.321-3.826.93.18.789 4.431.051.01.797-4.122.869.169-.96 4.963zm-12.665-3.551l1.81-4.718.875.337-1.335 3.48 3.785-2.534.875.337-1.811 4.719-.875-.338 1.381-3.597-3.879 2.633-.826-.319zm-1.802-.842l-.817-.46.265-.474c-.277.34-.882.246-1.815-.279-.557-.314-.911-.669-1.063-1.066a1.258 1.258 0 0 1 .073-1.133l1.015-1.812c.146-.261.313-.467.5-.617.182-.153.364-.25.546-.291.167-.042.364-.039.592.01.221.044.431.11.629.198.18.077.391.184.633.32.266.15.495.319.685.506.18.19.264.36.25.512l1.168-2.085.818.46-3.479 6.211zm.229-5.058c-.315-.177-.566-.29-.753-.34-.197-.047-.366-.03-.507.05-.14.08-.28.245-.42.494l-.907 1.621c-.153.273-.231.497-.233.672a.62.62 0 0 0 .215.469c.136.14.365.3.686.482.321.18.58.294.776.341.188.05.355.028.503-.065.147-.092.297-.275.45-.548l.908-1.622c.136-.243.203-.448.202-.617a.725.725 0 0 0-.229-.464c-.146-.138-.376-.296-.691-.473zm-4.444-3.694c.352.273.606.49.76.654.159.159.295.347.407.566a.977.977 0 0 1 .09.703c-.061.251-.213.534-.455.848l-1.069 1.39a2.697 2.697 0 0 1-.593.583c-.205.14-.397.225-.577.253-.154.03-.333.006-.536-.072a3.068 3.068 0 0 1-.603-.295 14.678 14.678 0 0 1-.631-.462 7.673 7.673 0 0 1-.624-.522 3.237 3.237 0 0 1-.406-.447 1.084 1.084 0 0 1-.224-.53 1.533 1.533 0 0 1 .091-.614c.088-.24.23-.487.425-.74l1.069-1.39c.361-.468.731-.727 1.111-.776.156-.02.335.008.538.087.203.078.399.176.588.296.217.15.43.307.639.468zm-.375.488a6.794 6.794 0 0 0-.516-.372 1.119 1.119 0 0 0-.375-.146.475.475 0 0 0-.372.056c-.124.07-.256.197-.396.379l-1.248 1.62c-.191.249-.298.451-.323.608a.558.558 0 0 0 .142.466c.113.15.324.343.632.581.308.238.551.396.729.472a.547.547 0 0 0 .477.013c.145-.064.313-.22.504-.467l1.247-1.621c.14-.182.231-.34.273-.475a.516.516 0 0 0-.049-.38 1.105 1.105 0 0 0-.235-.328 6.737 6.737 0 0 0-.49-.406zm-6.266.698l-1.538-1.588c-.315-.325-.547-.604-.695-.838-.154-.229-.23-.432-.227-.609a.837.837 0 0 1 .102-.42c.065-.112.178-.245.337-.4l.127-.124c.194-.19.387-.28.579-.273.191.008.425.105.703.291l.029-.029c-.461-.676-.49-1.21-.087-1.604l.217-.21c.244-.239.484-.375.721-.411.226-.036.478.029.756.195.277.167.612.453 1.004.857l1.589 1.641-3.617 3.522zm-.072-3.133c-.194-.2-.354-.335-.48-.406-.132-.066-.25-.082-.353-.05-.109.039-.238.13-.387.276l-.045.043c-.135.132-.215.249-.241.352-.031.098-.008.211.069.34.067.13.199.296.398.501l.921.952 1.061-1.034-.943-.974zm1.578-1.594c-.228-.235-.415-.398-.561-.489-.146-.09-.273-.127-.381-.109-.113.023-.237.1-.372.231l-.239.233a.546.546 0 0 0-.161.463c.026.188.197.444.512.769l1.008 1.041 1.166-1.135-.972-1.004zm-5.94-.046l-.55-.76 1.694-1.234-1.457-2.012-1.694 1.234-.551-.76 4.08-2.971.55.76-1.829 1.332 1.457 2.012 1.829-1.332.551.761-4.08 2.97zm-3.859-5.47l-.423-.861 1.635-.808-.432-.88c-.19-.388-.312-.708-.367-.96-.057-.26-.04-.477.051-.654.085-.174.255-.324.51-.45l.935-.461c.654-.323 1.253.068 1.796 1.174l.818 1.668-4.523 2.233zm-1.987-4.048l-.414-.843 4.523-2.233.414.844-4.523 2.232zm5.177.472a2.506 2.506 0 0 0-.351-.526c-.163-.19-.376-.222-.637-.092l-.57.281c-.181.09-.306.182-.375.278-.072.09-.096.206-.072.35.021.137.091.327.211.571l.382.778 1.785-.881-.373-.76zm-9.338-9.983l.428 2.257-.696.133-1.045-5.51.696-.133.428 2.257 5.945-1.133.189.995-5.945 1.133zm5.288-7.321c.057 1.545-.429 2.336-1.456 2.373l-1.988.073c-.611.023-1.054-.135-1.33-.474-.284-.344-.44-.91-.469-1.697-.027-.744.082-1.285.327-1.621.244-.343.682-.527 1.314-.55l1.114-.04.123 3.392.76-.028c.347-.013.593-.144.736-.393.144-.25.207-.628.188-1.136-.017-.48-.121-1.044-.312-1.692l.719-.026c.162.635.253 1.241.274 1.819zm-3.068-.975l-.791.03c-.306.01-.51.112-.615.304-.111.185-.159.5-.142.946.015.431.086.742.211.933.118.19.33.28.635.27l.791-.03-.089-2.453zm-2.098-3.236l.11-.933.538.063c-.419-.126-.566-.722-.441-1.787.075-.636.265-1.101.573-1.394a1.25 1.25 0 0 1 1.071-.368l2.058.243c.297.035.55.11.76.226.211.109.371.24.479.393.102.138.175.322.218.552.044.222.064.442.059.659a6.686 6.686 0 0 1-.052.709c-.035.304-.103.58-.202.828-.105.24-.23.383-.375.429l2.369.28-.11.933-7.055-.832zm4.745-1.733c.042-.36.05-.635.023-.828-.032-.2-.112-.35-.241-.449-.128-.099-.333-.165-.616-.199l-1.841-.217c-.311-.036-.547-.022-.708.043a.617.617 0 0 0-.349.38c-.077.18-.137.453-.18.82-.043.366-.048.65-.016.85a.617.617 0 0 0 .253.44c.142.1.368.17.678.206l1.842.217c.276.033.491.016.645-.05a.721.721 0 0 0 .34-.391c.071-.188.128-.462.17-.822zm1.67-5.35c-.418 1.487-1.121 2.091-2.111 1.812l-1.915-.54c-.588-.167-.962-.453-1.122-.86-.164-.416-.14-1.002.072-1.76.202-.717.47-1.198.806-1.443.338-.252.811-.292 1.419-.12l1.073.303-.918 3.267.732.207c.334.094.608.045.821-.148.213-.193.388-.534.525-1.024.13-.462.203-1.031.22-1.706l.692.195a8.682 8.682 0 0 1-.294 1.816zm-2.624-1.87l-.762-.216c-.294-.083-.52-.049-.678.102-.162.142-.304.428-.424.857-.117.415-.145.733-.084.953.054.218.229.368.523.451l.762.215.663-2.362zm-1.036-3.868l.42-.84 3.893 1.953.881-1.765-3.893-1.954.424-.85 3.893 1.954.882-1.765-3.894-1.954.42-.841 4.508 2.263-3.026 6.061-4.508-2.262zm4.206-7.77l.574-.743 1.721 1.338a.448.448 0 0 0 .103-.236 1.923 1.923 0 0 0-.019-.333l-.426-2.551.702-.908.481 3.281c.072-.058.224-.102.458-.132.238-.035.608-.07 1.108-.103l2.097-.154-.709.916-2.077.13a3.058 3.058 0 0 0-.742.123c-.156.054-.257.1-.302.135a.465.465 0 0 0-.127.113l-.07.09 1.786 1.39-.575.742-3.983-3.098zm9.227-2.804a7.061 7.061 0 0 1-.771.641 2.21 2.21 0 0 1-.624.307.975.975 0 0 1-.707-.028c-.236-.104-.489-.301-.757-.593l-1.186-1.29a2.683 2.683 0 0 1-.474-.685 1.445 1.445 0 0 1-.152-.612c-.003-.158.051-.33.161-.518.112-.198.242-.38.391-.546.174-.18.361-.363.56-.547.266-.245.472-.421.619-.529a3.22 3.22 0 0 1 .507-.327c.201-.1.387-.144.558-.132.172.012.368.077.589.194.221.127.44.309.657.544l1.186 1.29c.4.436.592.845.576 1.229a1.13 1.13 0 0 1-.175.517 3.355 3.355 0 0 1-.39.531c-.185.19-.374.375-.568.554zm-.417-.453c.215-.198.366-.348.453-.447.088-.1.156-.216.206-.347a.479.479 0 0 0 .008-.377 1.448 1.448 0 0 0-.306-.456l-1.384-1.505c-.212-.23-.393-.37-.543-.421a.553.553 0 0 0-.482.062c-.165.087-.391.262-.677.527-.286.264-.481.478-.586.64a.548.548 0 0 0-.093.47c.038.155.163.347.375.577l1.383 1.505c.156.17.296.286.421.35.126.055.253.06.383.016.134-.04.254-.098.361-.178.106-.08.267-.218.481-.416zm.36-6.307l1.848-1.212c.378-.248.696-.422.953-.524.253-.108.466-.144.639-.108a.84.84 0 0 1 .391.18c.098.086.207.222.329.409l.097.148c.148.228.2.435.156.622-.044.187-.183.399-.418.636l.022.035c.751-.325 1.28-.252 1.588.22l.165.253c.186.286.274.548.265.788-.008.23-.12.465-.336.707-.216.241-.559.516-1.03.825l-1.909 1.252-2.76-4.23zm3.081.526c.233-.153.396-.285.489-.396.09-.117.128-.23.116-.338-.017-.114-.082-.258-.196-.433l-.034-.053c-.103-.157-.202-.258-.298-.304-.09-.049-.205-.048-.347.003-.139.042-.327.14-.565.297l-1.108.726.81 1.24 1.133-.742zm1.261 1.856c.273-.179.468-.332.585-.458.116-.127.176-.245.179-.355-.001-.116-.053-.252-.155-.41l-.183-.28a.542.542 0 0 0-.422-.247c-.189-.009-.472.11-.85.358l-1.211.795.889 1.363 1.168-.766zm5.271-2.003a7 7 0 0 1-.937.355 2.203 2.203 0 0 1-.69.087.973.973 0 0 1-.658-.258c-.191-.175-.365-.444-.524-.808l-.703-1.607a2.707 2.707 0 0 1-.225-.802 1.431 1.431 0 0 1 .055-.628c.048-.15.155-.297.321-.438.169-.15.351-.28.546-.388.224-.114.459-.225.707-.334.331-.145.583-.245.757-.298.177-.063.372-.111.586-.144.222-.03.412-.01.57.057.159.067.323.193.494.376.168.193.316.435.444.729l.703 1.607c.237.542.286.992.146 1.35-.057.146-.168.29-.334.432a3.337 3.337 0 0 1-.541.375c-.236.119-.475.231-.717.337zm-.247-.564c.267-.117.459-.21.574-.275.115-.066.217-.153.307-.26a.481.481 0 0 0 .13-.354 1.458 1.458 0 0 0-.142-.53l-.819-1.876c-.126-.287-.251-.479-.377-.576a.552.552 0 0 0-.475-.099c-.185.029-.456.12-.812.277-.356.157-.61.295-.763.415a.553.553 0 0 0-.24.414c-.014.158.042.38.167.668l.82 1.875c.092.21.187.366.284.468.101.092.22.139.357.14.14.007.273-.01.399-.05s.323-.12.59-.237zm6.608-6.923l1.256 4.896-.908.234-.926-3.611-1.616 4.267-.908.234-1.256-4.896.908-.234.957 3.732 1.636-4.401.857-.221zm-2.358-.136c-.451.116-.836.093-1.158-.068-.322-.169-.544-.446-.665-.832l.747-.192c.182.513.498.712.949.596.444-.114.625-.442.544-.982l.746-.192c.086.388.024.734-.185 1.04-.201.304-.527.513-.978.63zM50.71 20.705c.876.22 1.638.588 2.287 1.106.648.517 1.216 1.223 1.702 2.116l2.578 4.775h-2.359l-2.31-4.14c-.455-.8-.917-1.403-1.387-1.81a3.798 3.798 0 0 0-1.654-.871c-.616-.172-1.403-.259-2.36-.259v7.08h-2.383V13.437h2.384v6.586c.973 0 1.727-.086 2.262-.259.535-.188 1.021-.588 1.46-1.2l3.77-5.127h2.577l-4.5 5.716c-.6.752-1.288 1.27-2.067 1.552zm11.516 8.161l-4.549-11.548h2.384l3.283 9.29h.05l2.967-9.29h2.213l-5.91 16.276h-2.287l1.849-4.728zm7.928-.14c-.243 0-.478-.024-.706-.071v-1.811c.228.047.455.07.682.07.697 0 1.248-.486 1.654-1.458.421-.988.632-2.807.632-5.456v-2.682h8.002v11.384h-2.189v-9.996h-3.867v1.646c0 2.587-.316 4.634-.949 6.139-.632 1.49-1.719 2.234-3.26 2.234zm14.049-11.408h2.188v4.116h3.016c1.006 0 1.8.07 2.384.212.6.14 1.038.392 1.314.752.275.345.413.84.413 1.482v2.352c0 1.646-1.435 2.47-4.305 2.47h-5.01V17.318zm4.864 10.02c.47 0 .957-.063 1.46-.189.567-.14.85-.54.85-1.2v-1.434c0-.454-.064-.8-.194-1.035-.114-.235-.332-.4-.657-.494-.308-.094-.778-.14-1.41-.14h-2.749v4.492h2.7zm10.05-8.468h-4.135v-1.552h10.435v1.552h-4.111v9.832h-2.189V18.87zm11.73 9.996l-4.548-11.548h2.383l3.284 9.29h.049l2.967-9.29h2.213l-5.91 16.276h-2.286l1.848-4.728zm8.39-11.548h2.189v1.223c.179-.972 1.517-1.458 4.014-1.458 1.491 0 2.618.306 3.381.917.762.596 1.143 1.364 1.143 2.305v4.68c0 .675-.106 1.263-.317 1.765-.194.501-.454.893-.778 1.175-.292.267-.697.479-1.216.636a7.353 7.353 0 0 1-1.508.305c-.454.047-1.005.07-1.654.07-.713 0-1.37-.078-1.97-.234-.584-.173-.949-.416-1.095-.73v5.387h-2.189v-16.04zm5.303 10.184c.843 0 1.483-.055 1.921-.164.454-.126.779-.345.973-.659.195-.314.292-.792.292-1.435v-4.186c0-.706-.097-1.231-.292-1.576-.194-.345-.519-.572-.973-.682-.438-.126-1.086-.188-1.946-.188-.859 0-1.516.063-1.97.188-.438.11-.754.337-.948.682-.195.345-.292.87-.292 1.576v4.186c0 .628.097 1.106.292 1.435.211.314.543.533.997.659.454.11 1.103.164 1.946.164zm8.783-10.184h2.189v4.728h5.788v-4.728h2.189v11.384H141.3v-5.104h-5.788v5.104h-2.189V17.318zm18.952 11.619c-1.037 0-1.816-.04-2.335-.118a5.298 5.298 0 0 1-1.556-.447 2.243 2.243 0 0 1-1.168-1.128c-.243-.534-.365-1.247-.365-2.14v-3.952c0-.706.09-1.325.268-1.858.178-.533.413-.949.705-1.247.243-.266.608-.47 1.095-.611a7.35 7.35 0 0 1 1.532-.306 34.004 34.004 0 0 1 1.824-.047c.843 0 1.476.024 1.897.07.438.032.9.11 1.387.236.502.14.892.353 1.167.635.276.282.511.69.706 1.223.178.549.267 1.184.267 1.905v3.951c0 1.333-.316 2.305-.948 2.917-.26.25-.633.447-1.119.588a7.993 7.993 0 0 1-1.508.282c-.616.031-1.233.047-1.849.047zm0-1.388c.681 0 1.176-.015 1.484-.047.308-.031.608-.117.9-.258.292-.126.494-.33.608-.612.13-.298.195-.706.195-1.223v-4.61c0-.706-.09-1.215-.268-1.529-.178-.329-.486-.54-.924-.635-.422-.11-1.087-.164-1.995-.164-.908 0-1.581.055-2.019.164-.421.094-.721.306-.899.635-.179.314-.268.823-.268 1.53v4.609c0 .517.057.925.17 1.223.13.282.341.486.633.611.292.142.592.228.9.26.308.03.802.046 1.483.046zM.48 37.865h7.434v8.889H6.28v-7.677H2.116v7.677H.48v-8.89zm10.382 0h1.636v.955c.133-.76 1.133-1.139 2.999-1.139 1.114 0 1.957.239 2.526.716.57.466.854 1.066.854 1.8v3.655c0 .526-.078.986-.236 1.377-.145.392-.34.698-.581.919-.219.208-.522.373-.91.495a5.292 5.292 0 0 1-1.126.24c-.34.036-.752.054-1.236.054a5.58 5.58 0 0 1-1.473-.183c-.436-.135-.708-.325-.817-.57v4.206h-1.636V37.865zm3.962 7.952c.63 0 1.109-.043 1.436-.129.34-.098.582-.269.727-.514.146-.245.218-.618.218-1.12v-3.27c0-.55-.072-.96-.218-1.23-.145-.269-.388-.447-.727-.532-.327-.098-.812-.147-1.454-.147-.642 0-1.133.049-1.472.147-.327.085-.564.263-.71.532-.145.27-.217.68-.217 1.23v3.27c0 .49.072.863.218 1.12.157.245.406.416.745.514.34.086.824.129 1.454.129zm10.29 1.12c-.776 0-1.358-.03-1.745-.091a3.832 3.832 0 0 1-1.163-.35c-.4-.183-.691-.477-.873-.881-.182-.416-.273-.973-.273-1.671v-3.086c0-.55.067-1.034.2-1.45.134-.417.31-.741.527-.974.182-.208.455-.367.818-.477a5.296 5.296 0 0 1 1.145-.24c.437-.024.891-.036 1.364-.036.63 0 1.102.018 1.417.055.328.025.673.086 1.036.184.376.11.667.275.873.496.206.22.382.538.527.955.133.428.2.924.2 1.487v3.086c0 1.04-.236 1.8-.709 2.277-.194.196-.473.349-.836.46-.364.11-.74.183-1.127.22-.46.024-.92.036-1.381.036zm0-1.083c.509 0 .878-.012 1.108-.037.23-.025.455-.092.673-.202a.834.834 0 0 0 .454-.477c.097-.233.146-.551.146-.956v-3.6c0-.55-.067-.948-.2-1.193-.134-.257-.364-.422-.69-.496-.316-.086-.813-.128-1.491-.128-.679 0-1.182.042-1.509.128-.315.074-.54.239-.672.496-.134.245-.2.643-.2 1.194v3.6c0 .404.042.722.127.955.097.22.254.379.472.477.218.11.443.177.673.202.23.025.6.037 1.109.037zm10.149 1.083c-.606 0-1.049-.012-1.327-.036a5.331 5.331 0 0 1-.927-.184c-.376-.098-.667-.245-.873-.44-.206-.197-.382-.485-.527-.864-.145-.367-.218-.826-.218-1.377v-3.27c0-.991.188-1.701.563-2.13.206-.245.412-.428.618-.55.218-.136.497-.227.836-.276.34-.05.643-.08.91-.092.266-.025.642-.037 1.126-.037.836 0 1.672.092 2.508.276v1.212c-.969-.245-1.872-.368-2.708-.368-.63 0-1.096.05-1.4.147-.29.086-.496.251-.617.496-.11.233-.164.594-.164 1.084v3.636c0 .453.06.79.182 1.01.133.22.363.38.69.478.34.085.837.128 1.491.128.885 0 1.77-.116 2.654-.349v1.25c-.824.17-1.763.256-2.817.256zm4.995-9.072h3.854c.788 0 1.418.049 1.89.147.473.085.818.238 1.036.459.206.208.34.422.4.643.06.22.09.526.09.918v.312c0 .478-.12.833-.363 1.065-.242.233-.648.41-1.217.533v.073c1.405.245 2.108.864 2.108 1.855v.533c0 .6-.121 1.071-.363 1.414-.23.33-.618.57-1.164.716-.545.147-1.308.22-2.29.22h-3.98v-8.888zm4 3.746c.484 0 .847-.036 1.09-.11.242-.086.406-.214.49-.386.085-.183.128-.459.128-.826v-.11c0-.33-.049-.576-.146-.735-.084-.159-.254-.27-.509-.33-.242-.074-.611-.11-1.108-.11h-2.309v2.607h2.363zm.072 3.949c.57 0 1-.037 1.29-.11.291-.074.491-.19.6-.35.11-.17.164-.422.164-.752v-.588c0-.306-.127-.563-.382-.771-.266-.196-.794-.294-1.581-.294h-2.527v2.865h2.436zm9.947 1.377c-2.69 0-4.035-.906-4.035-2.718v-3.508c0-1.077.303-1.848.908-2.314.618-.477 1.612-.716 2.981-.716 1.297 0 2.23.227 2.8.68.581.453.872 1.236.872 2.35v1.965h-5.907v1.341c0 .612.212 1.053.636 1.322.424.27 1.078.404 1.963.404.836 0 1.824-.146 2.963-.44v1.267a14.837 14.837 0 0 1-3.181.367zm1.89-5.344v-1.396c0-.539-.164-.906-.49-1.102-.316-.208-.861-.312-1.637-.312-.75 0-1.296.104-1.636.312-.339.196-.508.563-.508 1.102v1.396h4.271zm6.346-2.516h-3.09v-1.212h7.798v1.212h-3.072v7.677h-1.636v-7.677zm14.528-1.212v8.889h-1.636v-6.557l-4.58 6.557h-1.636v-8.89h1.636v6.778l4.67-6.777h1.546zm5.05 1.212h-3.09v-1.212H86.8v1.212h-3.072v7.677h-1.635v-7.677zm10.384 7.86c-2.69 0-4.035-.906-4.035-2.718v-3.508c0-1.077.303-1.848.909-2.314.618-.477 1.611-.716 2.98-.716 1.297 0 2.23.227 2.8.68.581.453.872 1.236.872 2.35v1.965h-5.907v1.341c0 .612.212 1.053.636 1.322.424.27 1.078.404 1.963.404.836 0 1.824-.146 2.963-.44v1.267a14.837 14.837 0 0 1-3.181.367zm1.89-5.344v-1.396c0-.539-.163-.906-.49-1.102-.316-.208-.86-.312-1.636-.312-.752 0-1.297.104-1.636.312-.34.196-.51.563-.51 1.102v1.396h4.272zm3.784 5.179a2.48 2.48 0 0 1-.527-.055v-1.414c.17.037.339.055.508.055.522 0 .934-.38 1.237-1.139.315-.771.472-2.191.472-4.26v-2.094h5.98v8.889h-1.636v-7.806h-2.89v1.286c0 2.02-.236 3.618-.709 4.793-.472 1.163-1.284 1.745-2.435 1.745zm10.498-8.907h1.636v3.214h2.254c.751 0 1.345.055 1.781.165.448.11.776.306.982.588.206.269.309.655.309 1.157v1.836c0 1.286-1.073 1.929-3.218 1.929h-3.744v-8.89zm3.635 7.823c.352 0 .715-.049 1.091-.147.424-.11.636-.422.636-.936v-1.12c0-.355-.048-.625-.145-.809-.085-.183-.249-.312-.491-.385-.23-.074-.582-.11-1.054-.11h-2.054v3.508h2.017zm8.838 1.25a16.93 16.93 0 0 1-1.327-.037 5.317 5.317 0 0 1-.927-.184c-.376-.098-.667-.245-.873-.44-.205-.197-.381-.485-.527-.864-.145-.367-.218-.826-.218-1.377v-3.27c0-.991.188-1.701.564-2.13.206-.245.412-.428.618-.55.218-.136.497-.227.836-.276a9.44 9.44 0 0 1 .909-.092c.266-.025.642-.037 1.127-.037.836 0 1.672.092 2.508.276v1.212c-.97-.245-1.872-.368-2.708-.368-.63 0-1.097.05-1.4.147-.291.086-.497.251-.618.496-.109.233-.164.594-.164 1.084v3.636c0 .453.061.79.182 1.01.134.22.364.38.691.478.339.085.836.128 1.49.128.885 0 1.77-.116 2.654-.349v1.25c-.824.17-1.763.256-2.817.256zm4.869-9.073h1.635v3.838a.77.77 0 0 0 .437-.11c.121-.086.266-.214.436-.386l3.053-3.342h2l-3.999 4.205c.158.037.382.202.673.496.303.294.745.772 1.326 1.433l2.454 2.755h-2.017l-2.4-2.755a5.356 5.356 0 0 0-.963-.9c-.242-.16-.412-.251-.509-.276a.817.817 0 0 0-.291-.055h-.2v3.986h-1.635v-8.89zm16.993 0v8.889h-1.635v-6.557l-4.581 6.557h-1.636v-8.89h1.636v6.778l4.671-6.777h1.545zm10.686 0v8.889h-1.636v-6.557l-4.58 6.557h-1.636v-8.89h1.636v6.778l4.671-6.777h1.545zm-3.926-1.268c-.812 0-1.454-.208-1.927-.624-.472-.428-.727-.998-.763-1.708h1.345c.085.955.533 1.433 1.345 1.433.8 0 1.248-.478 1.345-1.433h1.345c-.024.698-.279 1.261-.763 1.69-.473.428-1.115.642-1.927.642zM11.456 69.195H.48V56.038h2.41V67.4h6.397V56.038h2.41V67.4h1.82v5.165h-2.061v-3.37zm10.401.272c-3.961 0-5.942-1.34-5.942-4.023V60.25c0-1.595.446-2.736 1.338-3.425.91-.707 2.374-1.06 4.39-1.06 1.91 0 3.284.335 4.123 1.006.856.67 1.285 1.83 1.285 3.48v2.908h-8.7v1.985c0 .906.312 1.558.937 1.957.624.399 1.588.598 2.89.598 1.232 0 2.686-.217 4.364-.652v1.876c-1.642.362-3.203.543-4.685.543zm2.784-7.91V59.49c0-.797-.24-1.341-.722-1.631-.464-.308-1.267-.462-2.41-.462-1.106 0-1.909.154-2.409.462-.5.29-.75.834-.75 1.631v2.066h6.291zm6.081-5.52h2.41v5.465h6.37v-5.465h2.41v13.158h-2.41v-5.899h-6.37v5.9h-2.41V56.037zm18.637 1.795h-4.55v-1.794h11.483v1.794h-4.524v11.363h-2.41V57.832zm9.83-1.794h2.41v1.413c.196-1.123 1.669-1.685 4.417-1.685 1.641 0 2.882.353 3.72 1.06.84.689 1.259 1.577 1.259 2.664v5.41c0 .78-.116 1.459-.348 2.039-.215.58-.5 1.033-.857 1.36-.321.307-.767.552-1.338.733-.554.181-1.107.3-1.66.354-.5.054-1.106.081-1.82.081-.785 0-1.508-.09-2.168-.272-.643-.199-1.044-.48-1.205-.842v6.225h-2.41v-18.54zm5.836 11.77c.928 0 1.633-.063 2.115-.19.5-.144.857-.398 1.07-.76.215-.363.322-.916.322-1.659V60.36c0-.816-.107-1.423-.321-1.821-.214-.4-.571-.662-1.071-.789-.482-.145-1.196-.217-2.141-.217-.946 0-1.67.072-2.169.217-.482.127-.83.39-1.044.789-.214.398-.32 1.005-.32 1.821v4.84c0 .724.106 1.277.32 1.657.232.363.598.617 1.098.762.5.127 1.213.19 2.141.19zm27.4-11.77v13.157h-2.41V59.49l-6.745 9.705h-2.41V56.038h2.41v10.031l6.88-10.032h2.275zm4.333 0h3.882l3.935 10.71h.107l3.667-10.71h3.748v13.157h-2.222V58.267h-.134l-3.988 10.928h-2.436l-4.15-10.928h-.133v10.928h-2.276V56.038zm25.142 13.43c-3.962 0-5.943-1.342-5.943-4.024V60.25c0-1.595.446-2.736 1.338-3.425.911-.707 2.374-1.06 4.39-1.06 1.91 0 3.284.335 4.123 1.006.856.67 1.285 1.83 1.285 3.48v2.908h-8.7v1.985c0 .906.312 1.558.937 1.957.624.399 1.588.598 2.891.598 1.231 0 2.686-.217 4.363-.652v1.876c-1.642.362-3.203.543-4.684.543zm2.784-7.912V59.49c0-.797-.241-1.341-.723-1.631-.464-.308-1.267-.462-2.409-.462-1.107 0-1.91.154-2.41.462-.499.29-.749.834-.749 1.631v2.066h6.291zm6.08-5.518h2.409v5.464h6.371v-5.465h2.409v13.158h-2.409v-5.899h-6.371v5.9h-2.409V56.037zm26.935 0v13.157h-2.409V59.49l-6.746 9.705h-2.409V56.038h2.409v10.031l6.88-10.032h2.275zM.48 22.272H4.67v.683H1.506v5.835H.48v-6.518zm7.391 0h1.185l2.665 6.518h-1.068l-.783-1.978H6.93l-.772 1.978H5.142l2.73-6.518zm1.746 3.867l-1.164-2.943h-.095L7.194 26.14h2.423zm8.338-3.867l-2.644 5.363a4.931 4.931 0 0 1-.413.713 1.337 1.337 0 0 1-.455.402c-.176.094-.394.14-.655.14-.283 0-.579-.033-.889-.1v-.703c.205.047.42.07.645.07.233 0 .416-.063.55-.19.134-.134.275-.352.423-.653l.117-.251-2.75-4.79h1.142l2.073 3.826 1.84-3.827h1.016zm3.13 3.104c.38.093.712.25.994.472.282.22.53.522.74.904l1.122 2.038h-1.026l-1.005-1.767c-.197-.342-.398-.6-.603-.774a1.662 1.662 0 0 0-.719-.371c-.268-.074-.61-.11-1.026-.11v3.022h-1.037v-6.518h1.037v2.812c.423 0 .751-.037.984-.11.232-.08.444-.251.634-.512l1.64-2.19h1.12l-1.956 2.44c-.26.322-.56.543-.899.664zm10.989-3.104v6.518h-1.026v-2.48h-1.566l-1.396 2.48h-1.258l1.639-2.651c-.367-.067-.663-.201-.889-.402a.991.991 0 0 1-.327-.763v-1.426c0-.348.077-.613.232-.794.155-.18.402-.304.74-.371.346-.074.826-.11 1.44-.11h2.41zm-1.026.643h-1.439c-.888 0-1.332.244-1.332.733v1.205c0 .275.105.48.317.613.211.134.582.2 1.11.2h1.344v-2.75zm5.493 5.976c-1.918 0-2.877-.59-2.877-1.768V24.04c0-1.245.959-1.868 2.877-1.868 1.939 0 2.908.62 2.908 1.858v3.093c0 .63-.268 1.081-.804 1.356-.536.274-1.237.412-2.105.412zm.02-.653c1.263 0 1.894-.375 1.894-1.125V24.01c0-.804-.635-1.205-1.904-1.205-.613 0-1.086.09-1.417.27-.325.181-.487.493-.487.935v3.103c0 .75.638 1.125 1.915 1.125z"
              fill="#fff"/>
    </g>
    <defs>
        <clipPath id="clip0_84_15">
            <path fill="#fff" d="M0 0H252V86H0z"/>
        </clipPath>
    </defs>
</svg>
