<svg width="44" height="44" viewBox="0 0 44 44" fill="none" xmlns="http://www.w3.org/2000/svg">
<g clip-path="url(#clip0_187_79)">
<path d="M44 21.9477V22.0023C44 22.0568 44 22.1114 44 22.166C44 22.4342 43.9955 22.7025 43.9818 22.9662C43.9773 23.1663 43.9636 23.3709 43.95 23.5709C43.9 24.2757 43.8181 24.9714 43.7045 25.6534C43.6863 25.7671 43.6681 25.8762 43.6453 25.9899C43.6272 26.0945 43.6044 26.1945 43.5817 26.2991C43.3271 27.5813 42.9633 28.8226 42.495 30.0139C42.0267 31.2051 41.4628 32.3464 40.8036 33.4285C40.7399 33.5331 40.6762 33.6377 40.608 33.7423C40.4534 33.9924 40.2898 34.2333 40.1261 34.4743C40.0306 34.6062 39.9396 34.7426 39.8442 34.8699C39.7805 34.9608 39.7169 35.0518 39.6487 35.1382C39.5532 35.2609 39.4622 35.3837 39.3667 35.5065C39.3304 35.5565 39.2895 35.6065 39.2531 35.6565C39.1985 35.7293 39.1439 35.7975 39.0848 35.8657C39.0394 35.9202 38.9894 35.9793 38.9439 36.0339C38.9075 36.0794 38.8711 36.1248 38.8348 36.1658C38.762 36.2522 38.6938 36.334 38.6211 36.4158C38.5665 36.484 38.5074 36.5477 38.4483 36.6114C38.4074 36.6614 38.3619 36.7068 38.321 36.7569C38.3119 36.7705 38.2982 36.7841 38.2846 36.7978C38.1982 36.8887 38.1164 36.9842 38.03 37.0751C37.9754 37.1297 37.9254 37.1888 37.8663 37.2434C37.8117 37.3025 37.7572 37.357 37.7026 37.4161C37.5662 37.5526 37.4298 37.689 37.2888 37.8254C37.2388 37.8754 37.1888 37.9209 37.1388 37.9709C37.0388 38.0664 36.9342 38.1618 36.8296 38.2573C36.816 38.271 36.8023 38.2846 36.7841 38.2982C36.6932 38.3801 36.6023 38.4619 36.5159 38.5392C36.3931 38.6483 36.2658 38.7529 36.1385 38.8621C36.0475 38.9348 35.9566 39.0121 35.8702 39.0848C35.7838 39.153 35.6974 39.2213 35.611 39.2895C35.4746 39.394 35.3382 39.4986 35.2018 39.6032C35.0927 39.685 34.9881 39.7623 34.879 39.8396C34.8744 39.8442 34.8699 39.8442 34.8654 39.8487C34.6698 39.9897 34.4743 40.1261 34.2743 40.2625L34.0196 40.4307C33.8923 40.5126 33.765 40.5944 33.6377 40.6762C33.5922 40.7035 33.5468 40.7354 33.5013 40.7626C33.4013 40.8263 33.3012 40.8854 33.2012 40.9445C33.1921 40.9491 33.1876 40.9536 33.1785 40.9582C33.1148 40.9945 33.0557 41.0309 32.992 41.0673C32.7192 41.2264 32.4464 41.3719 32.1645 41.5174C32.0781 41.5629 31.9917 41.6084 31.9008 41.6538C31.8371 41.6857 31.7735 41.722 31.7053 41.7493C31.5416 41.8312 31.3779 41.9084 31.2142 41.9857C31.1688 42.0039 31.1278 42.0267 31.0869 42.0449C30.946 42.1085 30.8005 42.1722 30.6595 42.2313C30.5777 42.2677 30.5004 42.2995 30.4185 42.3313C30.3003 42.3813 30.1775 42.4313 30.0548 42.4814C29.9502 42.5223 29.8411 42.5632 29.7319 42.6041C29.6365 42.6405 29.5364 42.6769 29.4364 42.7132C29.3136 42.7587 29.1909 42.7996 29.0681 42.8406C28.9635 42.8769 28.8544 42.9133 28.7498 42.9451C28.2815 43.0952 27.8041 43.2316 27.3221 43.3498L27.163 43.3907C27.1039 43.4044 27.0402 43.418 26.9811 43.4316C26.9083 43.4453 26.8356 43.4635 26.7583 43.4817C26.7037 43.4953 26.6492 43.5089 26.5901 43.518C26.5628 43.5226 26.5355 43.5271 26.5037 43.5362C26.4127 43.5544 26.3218 43.5726 26.2309 43.5908C26.199 43.5953 26.1672 43.5999 26.1354 43.609C25.7671 43.6817 25.3942 43.7408 25.0214 43.7909C24.9441 43.7999 24.8623 43.8136 24.785 43.8227C24.7486 43.8272 24.7077 43.8318 24.6713 43.8363C24.5713 43.85 24.4712 43.8591 24.3712 43.8727C24.3212 43.8772 24.2712 43.8818 24.2211 43.8863C24.1438 43.8909 24.0711 43.9 23.9938 43.9045C23.3391 43.9636 22.6798 43.9955 22.0114 43.9955C21.7158 43.9955 21.4203 43.9909 21.1247 43.9773C20.2881 43.9454 19.4651 43.8636 18.6558 43.7408C18.624 43.7363 18.5921 43.7317 18.5603 43.7272C18.2875 43.6863 18.0238 43.6363 17.7555 43.5862C17.3554 43.5044 16.9553 43.418 16.5642 43.318C15.8731 43.1406 15.1956 42.9315 14.5318 42.6951C14.1498 42.5587 13.7724 42.4086 13.3996 42.2495C13.245 42.1813 13.0904 42.1176 12.9404 42.0494C12.222 41.722 11.5218 41.3628 10.8488 40.9627C10.817 40.9445 10.7852 40.9263 10.7579 40.9081C9.88488 40.3898 9.04826 39.8123 8.26165 39.1758C6.64297 37.8799 5.21071 36.3567 4.01488 34.6562C2.79177 32.9375 1.81875 31.0369 1.13672 28.9999C0.977576 28.527 0.836623 28.0496 0.709311 27.5631C0.659295 27.3721 0.613827 27.1766 0.568358 26.9856C0.404671 26.2945 0.277359 25.5852 0.181875 24.8668C0.150047 24.6076 0.118218 24.353 0.0954841 24.0893C0.0863904 24.0029 0.0772967 23.9165 0.0727498 23.8301C0.0727498 23.7937 0.068203 23.7574 0.0636561 23.7255C0.0227343 23.1572 0 22.5797 0 21.9977C0 21.7795 0 21.5612 0.00909373 21.3384C0.0591092 19.6061 0.309187 17.9192 0.741139 16.3096C0.804795 16.0641 0.872998 15.8231 0.945748 15.5821C0.945748 15.5776 0.945748 15.573 0.950294 15.5685C1.04578 15.2456 1.1549 14.9228 1.26857 14.6091C1.83693 13.0222 2.57807 11.5218 3.4738 10.1259C3.59202 9.9349 3.71933 9.74848 3.84665 9.56206C4.11946 9.16193 4.41046 8.76636 4.71055 8.38442C5.66994 7.17041 6.75209 6.06097 7.94337 5.06975C8.03431 4.99246 8.12979 4.91516 8.22528 4.84241C8.40715 4.69236 8.59357 4.55141 8.78454 4.41046C8.81637 4.38772 8.8482 4.36044 8.88003 4.33771C8.90276 4.31952 8.92549 4.30588 8.94823 4.28769C9.03917 4.21949 9.1301 4.15583 9.22104 4.08763C9.37109 3.98305 9.52113 3.87393 9.67573 3.76935C9.7803 3.70115 9.88033 3.63295 9.98491 3.56474C10.0849 3.49654 10.1895 3.43288 10.2896 3.36923C10.3668 3.32376 10.4396 3.27374 10.5123 3.22827C10.526 3.21918 10.5442 3.21009 10.5624 3.20099C10.6078 3.17371 10.6533 3.14643 10.6988 3.1146C10.8079 3.0464 10.9216 2.98274 11.0352 2.91909C11.0625 2.9009 11.0943 2.88726 11.1216 2.86907C11.1762 2.83724 11.2308 2.80542 11.2853 2.77813C11.3535 2.74176 11.4172 2.70538 11.4854 2.66901C11.5127 2.65537 11.5445 2.63718 11.5718 2.62354C11.6309 2.59171 11.6854 2.55989 11.7445 2.5326C11.7991 2.50078 11.8537 2.47349 11.9173 2.44167C11.9264 2.43712 11.931 2.43257 11.9401 2.42803C11.9855 2.40529 12.031 2.37801 12.0765 2.35982C12.2174 2.28707 12.3629 2.21887 12.5039 2.15067C12.6175 2.09156 12.7312 2.04154 12.8403 1.99153C12.9995 1.91878 13.1586 1.84603 13.3223 1.77782C13.386 1.75054 13.4496 1.72326 13.5133 1.69598C13.6133 1.65506 13.7133 1.61414 13.8134 1.57322C13.8861 1.54593 13.9543 1.51411 14.0316 1.48683C14.0362 1.48683 14.0407 1.48228 14.0453 1.48228C14.1089 1.45954 14.168 1.43226 14.2317 1.40953C14.2953 1.38679 14.359 1.35951 14.4227 1.33678C15.0774 1.0958 15.7412 0.886639 16.4187 0.709312C16.5051 0.686577 16.587 0.66839 16.6688 0.645655C16.737 0.627468 16.8007 0.613827 16.8689 0.59564C16.8825 0.591093 16.8961 0.586546 16.9098 0.586546C16.9462 0.577453 16.9825 0.572906 17.0189 0.563812C17.0507 0.559265 17.0826 0.550171 17.1144 0.541078C17.1144 0.541078 17.1189 0.541078 17.1235 0.541078C17.2008 0.52289 17.2781 0.504703 17.3599 0.491062C17.3736 0.486515 17.3872 0.486515 17.4054 0.481968C17.4872 0.463781 17.5691 0.445593 17.6509 0.431953C17.7282 0.418312 17.8055 0.400125 17.8828 0.386484C17.9146 0.381937 17.9465 0.377391 17.9783 0.368297C18.0465 0.359203 18.1147 0.345562 18.1829 0.331922C18.2738 0.318281 18.3648 0.300094 18.4512 0.286453C18.7194 0.240985 18.9877 0.20461 19.2605 0.172782C19.3287 0.163688 19.3969 0.154594 19.4651 0.150047C19.6652 0.127313 19.8698 0.104579 20.0744 0.0863912C20.1562 0.0818443 20.2335 0.0727506 20.3108 0.0682037C20.3745 0.0636569 20.4382 0.05911 20.5018 0.05911C20.5927 0.0545631 20.6837 0.0454694 20.7746 0.0409225H20.7837C20.8747 0.0363757 20.9656 0.0318288 21.052 0.027282L21.1793 0.0227351H21.2339C21.3475 0.0181882 21.4657 0.0136414 21.584 0.0136414H21.5931C21.7295 0.0136414 21.8659 0.0136414 21.9977 0.0136414C23.1299 0.0136414 24.2393 0.100032 25.326 0.263719C25.4533 0.281906 25.5852 0.304641 25.7125 0.327375C25.7125 0.327375 25.7125 0.327375 25.7171 0.327375C25.8125 0.341016 25.908 0.359203 26.0035 0.377391C26.3172 0.4365 26.631 0.500156 26.9402 0.572906C27.4403 0.686577 27.9359 0.818436 28.4224 0.968483C28.9408 1.12762 29.45 1.30495 29.9502 1.49592C30.2867 1.62323 30.6231 1.76418 30.9505 1.90968C31.6735 2.23251 32.3782 2.59171 33.0602 2.98729C33.5013 3.24646 33.9332 3.51927 34.3561 3.80573C34.8608 4.15129 35.3519 4.51049 35.8247 4.89243C35.8338 4.90152 35.8475 4.91061 35.8566 4.91971C35.943 4.98791 36.0293 5.05611 36.1112 5.12886C36.675 5.60174 37.2161 6.10189 37.7299 6.62933C38.0936 6.99763 38.4392 7.37956 38.7757 7.77059C39.003 8.03886 39.2258 8.31167 39.4395 8.59357C39.7714 9.02553 40.0897 9.47112 40.3943 9.93035C40.4671 10.0349 40.5307 10.1395 40.5989 10.2486C41.2401 11.258 41.7993 12.322 42.2676 13.4314C42.4177 13.7815 42.5541 14.1317 42.686 14.4909C42.8951 15.0729 43.0861 15.6685 43.2498 16.2732C43.3771 16.7506 43.4908 17.2326 43.5862 17.7191C43.659 18.0738 43.7181 18.433 43.7727 18.7922C43.9182 19.8107 44 20.8701 44 21.9477Z" fill="url(#paint0_linear_187_79)"/>
<path d="M42.2632 13.4178C41.7812 14.3499 41.1083 15.182 40.2353 15.7503C38.6484 16.7916 36.6387 16.8598 34.7381 16.8916C32.5784 16.9325 30.0549 16.7916 28.8318 15.0137C28.1816 14.0725 28.0588 12.8494 27.4359 11.8855C26.5492 10.5078 24.6077 9.92126 23.1027 10.576C21.2658 11.3808 20.3655 13.6179 18.5149 14.3954C17.3646 14.8773 15.955 14.6682 14.9957 13.8725C14.0317 13.0813 13.5634 11.7355 13.8226 10.5124C14.1727 8.84365 15.7186 7.59781 15.9869 5.91092C16.2324 4.38318 14.8411 2.89181 14.0317 1.48228C14.0363 1.48228 14.0408 1.47773 14.0454 1.47773C14.109 1.455 14.1681 1.42772 14.2318 1.40498C14.2954 1.38225 14.3591 1.35497 14.4228 1.33223C15.0775 1.09125 15.7413 0.882092 16.4188 0.704764C16.5052 0.68203 16.5871 0.663843 16.6689 0.641108C16.7371 0.622921 16.8008 0.60928 16.869 0.591093C16.8826 0.586546 16.8962 0.581999 16.9099 0.581999C16.9463 0.572905 16.9826 0.568359 17.019 0.559265C17.0508 0.554718 17.0827 0.545624 17.1145 0.53653C17.1145 0.53653 17.119 0.53653 17.1236 0.53653C17.2009 0.518343 17.2782 0.500156 17.36 0.486515C17.3737 0.481968 17.3873 0.481968 17.4055 0.477421C17.4873 0.459234 17.5692 0.441046 17.651 0.427406C17.7283 0.413765 17.8056 0.395578 17.8829 0.381937C17.9147 0.37739 17.9466 0.372843 17.9784 0.36375C18.0466 0.354656 18.1148 0.341015 18.183 0.327375C18.274 0.313734 18.3649 0.295547 18.4513 0.281906C18.7195 0.236437 18.9878 0.200063 19.2606 0.168234C19.3288 0.159141 19.397 0.150047 19.4652 0.1455C19.6653 0.122766 19.8699 0.100032 20.0745 0.0818441C20.1564 0.0772972 20.2336 0.0682035 20.3109 0.0636566C20.3746 0.0591097 20.4383 0.0545629 20.5019 0.0545629C20.5929 0.050016 20.6838 0.0409223 20.7747 0.0363754H20.7838C20.8748 0.0318286 20.9657 0.0272817 21.0521 0.0227348L21.1794 0.018188H21.234C21.3476 0.0136411 21.4659 0.00909424 21.5841 0.00909424H21.5932C21.7296 0.00909424 21.866 0.00909424 21.9978 0.00909424C23.13 0.00909424 24.2394 0.0954847 25.3261 0.259172C25.4534 0.277359 25.5853 0.300094 25.7126 0.322828C25.7126 0.322828 25.7126 0.322828 25.7172 0.322828C25.8127 0.336468 25.9081 0.354656 26.0036 0.372843C26.3174 0.431953 26.6311 0.495609 26.9403 0.568359C27.4404 0.68203 27.936 0.813889 28.4226 0.963936C28.9409 1.12308 29.4501 1.3004 29.9503 1.49137C30.2868 1.61868 30.6232 1.75964 30.9506 1.90514C31.6736 2.22796 32.3783 2.58717 33.0604 2.98274C33.5014 3.24191 33.9334 3.51473 34.3562 3.80118C34.8609 4.14674 35.352 4.50594 35.8248 4.88788C35.8339 4.89697 35.8476 4.90607 35.8567 4.91516C35.9431 4.98336 36.0295 5.05157 36.1113 5.12432C36.6751 5.59719 37.2162 6.09734 37.73 6.62478C38.0937 6.99308 38.4393 7.37501 38.7758 7.76604C39.0031 8.03431 39.2259 8.30712 39.4396 8.58903C39.7715 9.02098 40.0898 9.46657 40.3944 9.9258C40.4672 10.0304 40.5309 10.135 40.5991 10.2441C41.2311 11.2398 41.7903 12.3084 42.2632 13.4178Z" fill="#1BCC84"/>
<path d="M21.1111 43.9818C20.2745 43.95 19.4515 43.8681 18.6421 43.7454C18.6103 43.7408 18.5785 43.7363 18.5467 43.7317C18.2738 43.6908 18.0101 43.6408 17.7419 43.5908C17.3417 43.5089 16.9416 43.4226 16.5506 43.3225C15.8595 43.1452 15.182 42.936 14.5181 42.6996C14.1362 42.5632 13.7588 42.4131 13.386 42.254C13.2314 42.1858 13.0768 42.1221 12.9267 42.0539C12.9858 41.3719 13.1086 40.6944 13.2814 40.0442C13.9452 37.5344 15.2229 35.0427 14.7955 32.4828C14.3544 29.8092 12.0992 27.7541 9.63026 26.6492C7.15676 25.5443 4.42865 25.1987 1.79146 24.5849C1.21856 24.453 0.636561 24.303 0.0909373 24.0893C0.0818435 24.0029 0.0727498 23.9165 0.068203 23.8301C0.068203 23.7937 0.0636561 23.7574 0.0591092 23.7255C0.0227343 23.1572 0 22.5797 0 21.9977C0 21.7795 0 21.5612 0.00909373 21.3384C0.0591092 19.6061 0.309187 17.9192 0.741139 16.3096C0.804795 16.0641 0.872998 15.8231 0.945748 15.5821C0.945748 15.5776 0.945748 15.573 0.950294 15.5685C1.04578 15.2456 1.1549 14.9228 1.26857 14.6091C1.83693 13.0222 2.57807 11.5218 3.4738 10.1259C3.59202 9.9349 3.71933 9.74848 3.84665 9.56206C5.16978 10.9625 6.37925 12.5493 7.72967 13.7725C10.9898 16.737 13.2177 16.6734 17.4281 16.3733C18.9695 16.2596 20.7337 16.6188 21.5476 17.9283C22.7752 19.9062 21.0838 22.3615 19.5106 24.0847C17.9419 25.808 16.3232 28.3542 17.6691 30.2594C18.6194 31.6053 20.6428 31.8326 21.6203 33.1603C23.2299 35.3473 20.9338 38.2664 20.7701 40.9763C20.7155 41.9676 20.9519 42.9861 21.1111 43.9818Z" fill="#1BCC84"/>
<path d="M43.9998 21.9477V22.0023C43.9998 22.0568 43.9998 22.1114 43.9998 22.166C43.9998 22.4342 43.9953 22.7025 43.9817 22.9662C43.9771 23.1663 43.9635 23.3709 43.9498 23.5709C43.8998 24.2757 43.818 24.9714 43.7043 25.6534C43.6861 25.7671 43.6679 25.8762 43.6452 25.9899C43.627 26.0945 43.6043 26.1945 43.5815 26.2991C43.3269 27.5813 42.9632 28.8226 42.4948 30.0138C42.0265 31.2051 41.4627 32.3464 40.8034 33.4285C40.7397 33.5331 40.6761 33.6377 40.6079 33.7423C40.4533 33.9924 40.2896 34.2333 40.1259 34.4743C40.0304 34.6062 39.9395 34.7426 39.844 34.8699C39.7804 34.9608 39.7167 35.0518 39.6485 35.1382C39.553 35.2609 39.4621 35.3837 39.3666 35.5065C39.3302 35.5565 39.2893 35.6065 39.2529 35.6565C39.1984 35.7293 39.1438 35.7975 39.0847 35.8657C39.0392 35.9202 38.9892 35.9793 38.9437 36.0339C38.9074 36.0794 38.871 36.1248 38.8346 36.1658C38.7619 36.2521 38.6937 36.334 38.6209 36.4158C38.5663 36.484 38.5072 36.5477 38.4481 36.6113C38.4072 36.6614 38.3617 36.7068 38.3208 36.7568C38.3117 36.7705 38.2981 36.7841 38.2844 36.7978C38.198 36.8887 38.1162 36.9842 38.0298 37.0751C37.9753 37.1297 37.9252 37.1888 37.8661 37.2434C37.8116 37.3025 37.757 37.357 37.7024 37.4161C37.566 37.5525 37.4296 37.689 37.2887 37.8254C37.2387 37.8754 37.1886 37.9208 37.1386 37.9709C37.0386 38.0663 36.934 38.1618 36.8294 38.2573C36.8158 38.271 36.8022 38.2846 36.784 38.2982C36.693 38.3801 36.6021 38.4619 36.5157 38.5392C36.3929 38.6483 36.2656 38.7529 36.1383 38.862C36.0474 38.9348 35.9564 39.0121 35.8701 39.0848C35.7837 39.153 35.6973 39.2212 35.6109 39.2895C35.4745 39.394 35.3381 39.4986 35.2017 39.6032C35.0925 39.685 34.988 39.7623 34.8788 39.8396C34.8743 39.8442 34.8697 39.8442 34.8652 39.8487C34.6697 39.9897 34.4742 40.1261 34.2741 40.2625L34.0195 40.4307C33.8922 40.5126 33.7649 40.5944 33.6375 40.6762C33.5921 40.7035 33.5466 40.7354 33.5011 40.7626C33.4011 40.8263 33.3011 40.8854 33.201 40.9445C33.1919 40.9491 33.1874 40.9536 33.1783 40.9581C33.1147 40.9945 33.0555 41.0309 32.9919 41.0673C32.7191 41.2264 32.4463 41.3719 32.1644 41.5174C32.078 41.5629 31.9916 41.6083 31.9006 41.6538C31.837 41.6856 31.7733 41.722 31.7051 41.7493C31.5414 41.8311 31.3778 41.9084 31.2141 41.9857C31.1686 42.0039 31.1277 42.0267 31.0868 42.0448C30.9458 42.1085 30.8003 42.1722 30.6593 42.2313C30.5775 42.2676 30.5002 42.2995 30.4184 42.3313C30.3001 42.3813 30.1774 42.4313 30.0546 42.4813C29.95 42.5223 29.8409 42.5632 29.7318 42.6041C29.6363 42.6405 29.5363 42.6769 29.4362 42.7132C29.3135 42.7587 29.1907 42.7996 29.0679 42.8406C28.9634 42.8769 28.8542 42.9133 28.7497 42.9451C28.2813 43.0952 27.8039 43.2316 27.3219 43.3498L27.1628 43.3907C27.1037 43.4044 27.04 43.418 26.9809 43.4316C25.3895 39.8714 24.2119 35.5246 26.4535 32.36C27.0764 31.4825 27.9358 30.7504 28.3586 29.7592C29.5772 26.8765 26.6763 23.0026 28.7633 20.6746C29.9 19.4106 31.9188 19.4788 33.5284 20.0289C35.138 20.5791 36.6476 21.5021 38.339 21.6522C40.7898 21.8659 42.0674 19.5015 43.7816 18.7649C43.918 19.8107 43.9998 20.8701 43.9998 21.9477Z" fill="#1BCC84"/>
<path d="M40.3853 9.91671C40.3035 11.7127 39.7033 13.5269 38.1483 14.2953C37.4799 14.6227 36.7206 14.7091 35.9794 14.7227C33.8879 14.7546 31.7372 14.1908 30.1322 12.8494C28.8227 11.7536 27.9588 10.2259 26.7447 9.02098C25.5307 7.82061 23.6847 6.9567 22.1297 7.66601C21.0794 8.14798 20.4428 9.21649 19.5425 9.94399C18.6468 10.6715 17.0599 10.8943 16.5143 9.87579C16.0278 8.97096 16.7553 7.92973 17.2009 7.00217C17.7601 5.84727 17.8784 4.48776 17.5419 3.24646C17.2827 2.30526 16.9372 1.36406 17.019 0.563812C17.0508 0.559265 17.0827 0.550171 17.1145 0.541078C17.1145 0.541078 17.119 0.541078 17.1236 0.541078C17.2009 0.52289 17.2782 0.504703 17.36 0.491062C17.3737 0.486515 17.3873 0.486515 17.4055 0.481968C17.4873 0.463781 17.5692 0.445593 17.651 0.431953C17.7283 0.418312 17.8056 0.400125 17.8829 0.386484C17.9147 0.381937 17.9466 0.37739 17.9784 0.368297C18.0466 0.359203 18.1148 0.345562 18.183 0.331922C18.2739 0.318281 18.3649 0.300094 18.4513 0.286453C18.7195 0.240985 18.9878 0.20461 19.2606 0.172782C19.3288 0.163688 19.397 0.154594 19.4652 0.150047C19.6653 0.127313 19.8699 0.104579 20.0745 0.0863912C20.1563 0.0818443 20.2336 0.0727506 20.3109 0.0682037C20.3746 0.0636569 20.4382 0.05911 20.5019 0.05911C20.5928 0.0545631 20.6838 0.0454694 20.7747 0.0409225H20.7838C20.8747 0.0363757 20.9657 0.0318288 21.0521 0.0272819L21.1794 0.0227351H21.2339C21.3476 0.0181882 21.4658 0.0136414 21.5841 0.0136414H21.5932C21.7296 0.0136414 21.866 0.0136414 21.9978 0.0136414C23.13 0.0136414 24.2394 0.100032 25.3261 0.263719C25.4534 0.281906 25.5853 0.304641 25.7126 0.327375C25.7126 0.327375 25.7126 0.327375 25.7172 0.327375C27.6314 1.29131 29.4956 2.40529 31.5917 2.80087C32.0691 2.89181 32.5556 2.94637 33.0512 2.99184C33.4923 3.25101 33.9242 3.52382 34.3471 3.81027C34.8518 4.15583 35.3429 4.51504 35.8157 4.89697C35.8248 4.90607 35.8385 4.91516 35.8476 4.92425C35.934 4.99246 36.0204 5.06066 36.1022 5.13341C36.666 5.60628 37.2071 6.10644 37.7209 6.63388C38.0846 7.00217 38.4302 7.38411 38.7667 7.77514C38.994 8.0434 39.2168 8.31621 39.4305 8.59812C39.767 9.01188 40.0852 9.45748 40.3853 9.91671Z" fill="#15BA73"/>
<path d="M19.0695 39.3349C19.0059 40.6308 19.1923 41.9721 18.7831 43.2043C18.724 43.3862 18.6421 43.559 18.5466 43.7272C18.2738 43.6863 18.0101 43.6362 17.7418 43.5862C17.3417 43.5044 16.9416 43.418 16.5506 43.318C15.8594 43.1406 15.182 42.9315 14.5181 42.6951C14.5181 42.5177 14.5363 42.3404 14.5681 42.1676C14.7636 41.0491 15.3775 40.0533 15.7458 38.9757C16.8416 35.7565 15.6412 32.2509 14.3772 29.0999C13.8679 27.8268 13.3087 26.5037 12.2583 25.6307C10.1395 23.871 6.9976 24.5485 4.28767 24.0665C3.46014 23.921 2.62352 23.6346 2.04152 23.0299C1.46407 22.4251 1.22309 21.4339 1.67777 20.7246C1.86419 20.4382 2.13701 20.2199 2.33707 19.9425C3.51471 18.2829 0.441027 15.3229 1.80054 14.5136C3.05093 13.7679 6.17008 16.9598 7.50231 17.2372C9.92578 17.7464 12.4447 17.2735 14.9182 17.4145C15.5457 17.4509 16.2232 17.5463 16.6642 17.9919C17.2417 18.5694 17.2008 19.5379 16.8734 20.2927C16.546 21.0429 15.9913 21.6658 15.6048 22.3888C14.7909 23.8892 14.7591 25.7262 15.2138 27.3721C15.6685 29.0181 16.5688 30.5049 17.56 31.8962C18.192 32.7829 18.874 33.6741 19.165 34.7244C19.5788 36.2203 19.1468 37.7935 19.0695 39.3349Z" fill="#15BA73"/>
<path d="M43.9817 22.9617C43.9771 23.1617 43.9635 23.3663 43.9498 23.5664C43.8998 24.2712 43.818 24.9668 43.7043 25.6489C43.6861 25.7625 43.6679 25.8717 43.6452 25.9853C43.0632 26.3036 42.363 26.5355 41.7992 26.8811C39.8213 28.0996 39.5485 30.8368 39.7167 33.1512C39.7576 33.715 39.8122 34.2879 39.844 34.8654C39.7804 34.9563 39.7167 35.0472 39.6485 35.1336C39.553 35.2564 39.4621 35.3792 39.3666 35.5019C39.3302 35.5519 39.2893 35.6019 39.2529 35.652C39.1984 35.7247 39.1438 35.7929 39.0847 35.8611C39.0392 35.9157 38.9892 35.9748 38.9437 36.0294C38.9074 36.0748 38.871 36.1203 38.8346 36.1612C38.7619 36.2476 38.6937 36.3294 38.6209 36.4113C38.5664 36.4795 38.5072 36.5431 38.4481 36.6068C38.4072 36.6568 38.3617 36.7023 38.3208 36.7523C38.3117 36.7659 38.2981 36.7796 38.2844 36.7932C38.1981 36.8842 38.1162 36.9796 38.0298 37.0706C37.9753 37.1251 37.9252 37.1843 37.8661 37.2388C37.8116 37.2979 37.757 37.3525 37.7024 37.4116C37.566 37.548 37.4296 37.6844 37.2887 37.8208C37.2387 37.8708 37.1886 37.9163 37.1386 37.9663C37.0386 38.0618 36.934 38.1573 36.8294 38.2528C36.8158 38.2664 36.8022 38.2801 36.784 38.2937C36.693 38.3755 36.6021 38.4574 36.5157 38.5347C36.3929 38.6438 36.2656 38.7484 36.1383 38.8575C36.0474 38.9303 35.9564 39.0075 35.8701 39.0803C35.7837 39.1485 35.6973 39.2167 35.6109 39.2849C35.4745 39.3895 35.3381 39.4941 35.2017 39.5986C35.0925 39.6805 34.988 39.7578 34.8788 39.8351C34.8743 39.8396 34.8697 39.8396 34.8652 39.8442C34.6697 39.9851 34.4742 40.1215 34.2741 40.2579L34.0195 40.4262C33.8922 40.508 33.7649 40.5899 33.6376 40.6717C33.5921 40.699 33.5466 40.7308 33.5011 40.7581C33.4011 40.8217 33.3011 40.8809 33.201 40.94C33.192 40.9445 33.1874 40.9491 33.1783 40.9536C33.1147 40.99 33.0555 41.0264 32.9919 41.0627C32.7191 41.2219 32.4463 41.3674 32.1644 41.5129C32.078 41.5583 31.9916 41.6038 31.9006 41.6493C31.837 41.6811 31.7733 41.7175 31.7051 41.7448C31.5414 41.8266 31.3778 41.9039 31.2141 41.9812C31.1686 41.9994 31.1277 42.0221 31.0868 42.0403C30.9458 42.104 30.8003 42.1676 30.6594 42.2267C30.5775 42.2631 30.5002 42.2949 30.4184 42.3268C30.3002 42.3768 30.1774 42.4268 30.0546 42.4768C27.8812 41.3947 26.6263 38.5392 27.5493 36.2431C28.2495 34.5107 29.9091 33.2467 30.3911 31.4416C30.8731 29.6365 30.0683 27.7722 29.7909 25.9217C29.6863 25.2169 29.6681 24.4621 30.0001 23.8347C30.4593 22.9662 31.5051 22.5388 32.4872 22.5434C34.8152 22.5524 36.4975 24.1575 38.8846 23.3572C40.085 22.9571 41.2626 22.3342 42.5267 22.3933C43.0314 22.4297 43.5634 22.6388 43.9817 22.9617Z" fill="#15BA73"/>
<path opacity="0.1" d="M43.7635 18.774C43.7135 18.4103 43.6499 18.0556 43.5771 17.7009C43.4816 17.2144 43.368 16.7325 43.2406 16.255C43.077 15.6503 42.886 15.0547 42.6768 14.4727C42.545 14.1135 42.4086 13.7634 42.2585 13.4132C41.7856 12.3038 41.2264 11.2353 40.5898 10.2304C40.5216 10.1259 40.4534 10.0167 40.3852 9.91216C40.0851 9.45293 39.7668 9.00734 39.4304 8.57539C39.2167 8.29348 38.9939 8.02067 38.7665 7.7524C38.4301 7.36137 38.0845 6.97944 37.7208 6.61114C37.207 6.0837 36.6659 5.58355 36.1021 5.11067C36.0157 5.03792 35.9338 4.96972 35.8474 4.90152C35.8383 4.89243 35.8247 4.88333 35.8156 4.87424C35.3427 4.4923 34.8517 4.12855 34.347 3.78754C33.9241 3.50109 33.4922 3.22827 33.0511 2.9691C32.3736 2.57352 31.6689 2.20978 30.9414 1.8915C30.614 1.746 30.2775 1.60504 29.9411 1.47773C29.4409 1.28676 28.9317 1.10489 28.4133 0.950294C27.9268 0.800248 27.4312 0.668389 26.931 0.554717C26.6219 0.481968 26.3081 0.418311 25.9944 0.359202C25.8989 0.341015 25.8034 0.327374 25.7079 0.309187C25.7079 0.309187 25.7079 0.309187 25.7034 0.309187C25.5761 0.286452 25.4488 0.268265 25.3215 0.245531C24.2393 0.0863904 23.1253 0 21.9977 0C21.8613 0 21.7249 0 21.593 0H21.5839C21.4703 0 21.352 0.00454686 21.2338 0.00909373H21.1793L21.0519 0.0181875C20.961 0.0181875 20.8746 0.0227343 20.7837 0.031828H20.7746C20.6837 0.0363749 20.5927 0.0409218 20.5018 0.0500155C20.4381 0.0500155 20.3745 0.0545624 20.3108 0.0591092C20.2335 0.0636561 20.1562 0.0727498 20.0744 0.0772967C19.9061 0.0909373 19.7425 0.109125 19.5742 0.127312C19.8789 0.15914 20.1835 0.200062 20.4836 0.245531C20.6109 0.263718 20.7428 0.286452 20.8701 0.309187C20.8701 0.309187 20.8701 0.309187 20.8746 0.309187C20.9701 0.322827 21.0656 0.341015 21.1611 0.359202C21.4748 0.418311 21.7885 0.481968 22.0977 0.554717C22.5979 0.668389 23.0935 0.800248 23.58 0.950294C24.0983 1.10943 24.6076 1.28676 25.1078 1.47773C25.4442 1.60504 25.7807 1.746 26.1081 1.8915C26.831 2.21432 27.5358 2.57352 28.2178 2.9691C28.6589 3.22827 29.0908 3.50109 29.5137 3.78754C30.0184 4.1331 30.5094 4.4923 30.9823 4.87424C30.9914 4.88333 31.005 4.89243 31.0141 4.90152C31.1005 4.96972 31.1869 5.03792 31.2688 5.11067C31.8326 5.58355 32.3736 6.0837 32.8874 6.61114C33.2512 6.97944 33.5967 7.36137 33.9332 7.7524C34.1606 8.02067 34.3834 8.29348 34.5971 8.57539C34.929 9.00734 35.2473 9.45293 35.5519 9.91216C35.6246 10.0167 35.6883 10.1213 35.7565 10.2304C36.3976 11.2398 36.9569 12.3038 37.4252 13.4132C37.5753 13.7634 37.7117 14.1135 37.8435 14.4727C38.0527 15.0547 38.2436 15.6503 38.4073 16.255C38.5346 16.7325 38.6483 17.2144 38.7438 17.7009C38.8165 18.0556 38.8757 18.4148 38.9302 18.774C39.0848 19.8107 39.1621 20.8656 39.1667 21.9432V21.9977C39.1667 22.0523 39.1667 22.1069 39.1667 22.1614C39.1667 22.4297 39.1621 22.6979 39.1485 22.9617C39.1439 23.1617 39.1303 23.3663 39.1166 23.5664C39.0666 24.2712 38.9848 24.9668 38.8711 25.6489C38.8529 25.7625 38.8347 25.8717 38.812 25.9853C38.7938 26.0899 38.7711 26.1899 38.7483 26.2945C38.4937 27.5767 38.13 28.818 37.6616 30.0093C37.1933 31.2006 36.6295 32.3418 35.9702 33.424C35.9066 33.5286 35.8429 33.6331 35.7747 33.7377C35.6201 33.9878 35.4564 34.2288 35.2927 34.4698C35.1972 34.6016 35.1063 34.738 35.0108 34.8654C34.9472 34.9563 34.8835 35.0472 34.8153 35.1336C34.7198 35.2564 34.6289 35.3791 34.5334 35.5019C34.497 35.5519 34.4561 35.6019 34.4197 35.652C34.3652 35.7247 34.3106 35.7929 34.2515 35.8611C34.206 35.9157 34.156 35.9748 34.1105 36.0293C34.0742 36.0748 34.0378 36.1203 34.0014 36.1612C33.9287 36.2476 33.8605 36.3294 33.7877 36.4113C33.7332 36.4795 33.674 36.5431 33.6149 36.6068C33.574 36.6568 33.5285 36.7023 33.4876 36.7523C33.4785 36.7659 33.4649 36.7796 33.4512 36.7932C33.3649 36.8842 33.283 36.9796 33.1966 37.0706C33.1421 37.1251 33.092 37.1843 33.0329 37.2388C32.9784 37.2979 32.9238 37.3525 32.8692 37.4116C32.7328 37.548 32.5964 37.6844 32.4555 37.8208C32.4055 37.8708 32.3555 37.9163 32.3054 37.9663C32.2054 38.0618 32.1008 38.1573 31.9963 38.2528C31.9826 38.2664 31.969 38.28 31.9508 38.2937C31.8598 38.3755 31.7689 38.4574 31.6825 38.5347C31.5598 38.6438 31.4324 38.7484 31.3051 38.8575C31.2142 38.9302 31.1233 39.0075 31.0369 39.0803C30.9505 39.1485 30.8641 39.2167 30.7777 39.2849C30.6413 39.3895 30.5049 39.4941 30.3685 39.5986C30.2593 39.6805 30.1548 39.7578 30.0456 39.8351C30.0411 39.8396 30.0366 39.8396 30.032 39.8442C29.841 39.9851 29.641 40.1215 29.4409 40.2579L29.1863 40.4262C29.059 40.508 28.9317 40.5899 28.8044 40.6717C28.7589 40.699 28.7134 40.7308 28.6679 40.7581C28.5679 40.8217 28.4679 40.8809 28.3679 40.94C28.3588 40.9445 28.3542 40.9491 28.3451 40.9536C28.2815 40.99 28.2224 41.0264 28.1587 41.0627C27.8859 41.2219 27.6131 41.3674 27.3312 41.5129C27.2448 41.5583 27.1584 41.6038 27.0674 41.6493C27.0038 41.6811 26.9401 41.7175 26.8719 41.7448C26.7082 41.8266 26.5446 41.9039 26.3809 41.9812C26.3354 41.9994 26.2945 42.0221 26.2536 42.0403C26.1126 42.104 25.9671 42.1676 25.8262 42.2267C25.7443 42.2631 25.667 42.2949 25.5852 42.3268C25.467 42.3768 25.3442 42.4268 25.2214 42.4768C25.1168 42.5177 25.0077 42.5586 24.8986 42.5996C24.7986 42.6359 24.7031 42.6723 24.6031 42.7087C24.4803 42.7542 24.3575 42.7951 24.2348 42.836C24.1302 42.8724 24.0211 42.9088 23.9165 42.9406C23.4481 43.0906 22.9707 43.227 22.4888 43.3453L22.3296 43.3862C22.2705 43.3998 22.2069 43.4135 22.1477 43.4271C22.075 43.4407 22.0022 43.4589 21.9249 43.4771C21.8704 43.4908 21.8158 43.5044 21.7567 43.5135C21.7294 43.518 21.7022 43.5226 21.6703 43.5317C21.5794 43.5499 21.4884 43.568 21.3975 43.5862C21.3657 43.5908 21.3339 43.5953 21.302 43.6044C20.9337 43.6772 20.5609 43.7363 20.188 43.7863C20.1107 43.7954 20.0289 43.809 19.9516 43.8181C19.9152 43.8227 19.8743 43.8272 19.8379 43.8318C19.7652 43.8409 19.6879 43.85 19.6106 43.859C20.1153 43.9136 20.62 43.9545 21.1338 43.9727C21.4293 43.9818 21.7249 43.9909 22.0204 43.9909C22.6888 43.9909 23.3481 43.9636 24.0029 43.9C24.0802 43.8954 24.1575 43.8863 24.2302 43.8818C24.2802 43.8772 24.3302 43.8727 24.3803 43.8681C24.4803 43.859 24.5803 43.8454 24.6803 43.8318C24.7167 43.8272 24.7576 43.8227 24.794 43.8181C24.8713 43.809 24.9532 43.7999 25.0305 43.7863C25.4033 43.7363 25.7761 43.6772 26.1444 43.6044C26.1763 43.5999 26.2081 43.5953 26.2399 43.5862C26.3309 43.568 26.4218 43.5499 26.5127 43.5317C26.54 43.5271 26.5673 43.518 26.5991 43.5135C26.6582 43.5044 26.7128 43.4908 26.7674 43.4771C26.8447 43.4635 26.9174 43.4453 26.9902 43.4271C27.0493 43.4135 27.1129 43.3998 27.172 43.3862L27.3312 43.3453C27.8131 43.227 28.2906 43.0906 28.7589 42.9406C28.8635 42.9088 28.9726 42.8724 29.0772 42.836C29.1999 42.7951 29.3227 42.7496 29.4455 42.7087C29.5455 42.6723 29.6455 42.6359 29.741 42.5996C29.8501 42.5586 29.9547 42.5177 30.0638 42.4768C30.1866 42.4268 30.3048 42.3813 30.4276 42.3268C30.5094 42.2949 30.5913 42.2586 30.6686 42.2267C30.8095 42.1676 30.955 42.104 31.096 42.0403C31.1369 42.0221 31.1824 41.9994 31.2233 41.9812C31.387 41.9039 31.5507 41.8266 31.7143 41.7448C31.7825 41.7129 31.8462 41.6811 31.9099 41.6493C32.0008 41.6038 32.0872 41.5583 32.1736 41.5129C32.4555 41.3674 32.7283 41.2219 33.0011 41.0627C33.0648 41.0264 33.1239 40.99 33.1875 40.9536C33.1966 40.9491 33.2012 40.9445 33.2103 40.94C33.3103 40.8809 33.4103 40.8217 33.5104 40.7581C33.5558 40.7308 33.6013 40.699 33.6468 40.6717C33.7741 40.5899 33.9014 40.508 34.0287 40.4262L34.2833 40.2579C34.4834 40.1215 34.6789 39.9851 34.8744 39.8442C34.879 39.8442 34.8835 39.8396 34.8881 39.8351C34.9972 39.7578 35.1018 39.6759 35.2109 39.5986C35.3473 39.4941 35.4837 39.3895 35.6201 39.2849C35.7065 39.2167 35.7929 39.1485 35.8793 39.0803C35.9702 39.0075 36.0611 38.9302 36.1475 38.8575C36.2748 38.7529 36.3976 38.6438 36.5249 38.5347C36.6159 38.4528 36.7023 38.3755 36.7932 38.2937C36.8068 38.2846 36.8205 38.2664 36.8387 38.2528C36.9387 38.1573 37.0433 38.0618 37.1478 37.9663C37.1979 37.9208 37.2479 37.8708 37.2979 37.8208C37.4388 37.6844 37.5753 37.548 37.7117 37.4116C37.7662 37.3525 37.8208 37.2979 37.8753 37.2388C37.9299 37.1843 37.9845 37.1251 38.039 37.0706C38.1254 36.9796 38.2118 36.8842 38.2937 36.7932C38.3028 36.7796 38.3164 36.7659 38.33 36.7523C38.3755 36.7068 38.4164 36.6568 38.4573 36.6068C38.5165 36.5431 38.5756 36.4749 38.6301 36.4113C38.7029 36.3249 38.7756 36.2431 38.8438 36.1612C38.8802 36.1157 38.9211 36.0703 38.953 36.0293C38.9984 35.9748 39.0484 35.9157 39.0939 35.8611C39.153 35.7884 39.2076 35.7202 39.2621 35.652C39.3031 35.6019 39.3394 35.5565 39.3758 35.5019C39.4713 35.3837 39.5668 35.2564 39.6577 35.1336C39.7259 35.0427 39.7896 34.9517 39.8532 34.8654C39.9487 34.7335 40.0442 34.6016 40.1351 34.4698C40.3034 34.2288 40.4625 33.9878 40.6171 33.7377C40.6853 33.6331 40.749 33.5286 40.8126 33.424C41.4719 32.3418 42.0357 31.2051 42.5041 30.0093C42.9724 28.818 43.3361 27.5767 43.5908 26.2945C43.6135 26.1899 43.6317 26.0899 43.6544 25.9853C43.6726 25.8717 43.6953 25.7625 43.7135 25.6489C43.8272 24.9668 43.909 24.2712 43.959 23.5664C43.9727 23.3663 43.9863 23.1663 43.9909 22.9617C44.0045 22.6979 44.0091 22.4297 44.0091 22.1614C44.0091 22.1069 44.0091 22.0523 44.0091 21.9977V21.9432C43.9954 20.8701 43.9136 19.8107 43.7635 18.774Z" fill="black"/>
<path opacity="0.3" d="M17.128 20.5746C16.7187 21.4748 16.7142 22.5388 17.0416 23.4755C17.1962 23.912 17.4144 24.3257 17.5053 24.7759C17.6599 25.5807 17.3735 26.4127 16.9643 27.1266C16.7278 27.5358 16.4505 27.9359 16.3777 28.3997C16.2641 29.1227 16.7369 29.8729 17.4144 30.1412C18.0919 30.4094 18.9149 30.2048 19.4287 29.6865C19.747 29.3682 19.947 28.9544 20.1653 28.5589C20.6927 27.5904 21.3656 26.6401 22.3614 26.1718C23.2981 25.7262 24.3938 25.7716 25.4123 25.9762C26.299 26.1536 27.2311 26.44 28.0904 26.1445C28.7588 25.9126 29.2726 25.3488 29.5909 24.7168C30.0683 23.7801 30.1593 22.6116 29.6546 21.6885C28.9544 20.4018 27.1947 19.9107 25.8307 20.4382C25.3487 20.6246 24.9122 20.911 24.4166 21.0474C23.9801 21.1657 23.5208 21.1611 23.0753 21.0838C22.5069 20.9792 21.9658 20.7519 21.4975 20.4154C20.87 19.9698 20.0425 18.7513 19.1968 18.7831C18.3238 18.8058 17.4462 19.8743 17.128 20.5746Z" fill="url(#paint1_linear_187_79)"/>
<path opacity="0.3" d="M11.8128 5.80635C10.7897 6.57022 9.91673 7.71603 9.99403 8.98915C10.0122 9.26651 10.0895 9.57115 10.3123 9.73939C10.4487 9.83942 10.6169 9.88034 10.7852 9.90307C12.0719 10.0577 13.2314 9.18012 14.4727 8.79819C16.0414 8.31622 17.7419 8.64359 19.3151 9.12556C20.8838 9.60753 22.4297 10.2441 24.0666 10.385C24.8032 10.4487 25.6171 10.385 26.1536 9.87579C26.5946 9.45748 26.7583 8.79364 26.6628 8.18891C26.5673 7.58417 26.2445 7.03855 25.8444 6.57477C25.2078 5.84272 24.3576 5.29255 23.43 5.01065C21.4749 4.41956 19.3924 5.01065 17.4191 4.52868C16.3915 4.2786 15.6049 4.23768 14.55 4.50595C13.5588 4.75602 12.6267 5.19707 11.8128 5.80635Z" fill="url(#paint2_linear_187_79)"/>
<path opacity="0.3" d="M2.19172 18.9877C1.77795 19.838 1.7825 20.8792 2.20536 21.7249C2.45543 22.2205 2.84192 22.6616 2.9465 23.2072C3.04653 23.7119 2.88739 24.2302 2.70096 24.7077C2.51454 25.1851 2.29175 25.6625 2.25537 26.1763C2.21445 26.6901 2.40542 27.2584 2.86011 27.4994C3.11018 27.6313 3.40118 27.6495 3.68309 27.654C4.48334 27.6677 5.33815 27.5631 5.94288 27.0402C6.44758 26.6037 6.69766 25.9353 6.83861 25.2806C6.97956 24.6258 7.03413 23.9483 7.24783 23.3163C7.49336 22.6025 7.9435 21.9614 8.53004 21.4885C9.01656 21.0974 9.58946 20.8246 10.0987 20.47C10.608 20.1108 11.0808 19.6334 11.2218 19.0241C11.4309 18.0965 10.7807 17.1417 9.93957 16.6961C9.07567 16.2414 8.00261 16.205 7.11142 16.6006C6.6431 16.8098 6.22933 17.1235 5.761 17.319C5.01987 17.6282 4.40149 17.1917 3.69218 17.5191C3.04653 17.8283 2.5009 18.3466 2.19172 18.9877Z" fill="url(#paint3_linear_187_79)"/>
<path opacity="0.3" d="M18.2558 37.5344C18.9515 37.6753 19.6699 37.6117 20.3747 37.548C21.1658 37.4753 21.9661 37.4025 22.7027 37.1115C23.5847 36.7659 24.3168 36.1339 25.1034 35.6065C26.0719 34.9517 27.1358 34.4425 28.2498 34.1015C28.8 33.9332 29.3774 33.8014 29.9549 33.8469C30.5323 33.8969 31.1098 34.1424 31.4508 34.6107C31.7918 35.0791 31.8328 35.7747 31.4599 36.2203C31.2189 36.5068 30.8552 36.6477 30.5005 36.7659C29.3047 37.157 28.0498 37.3388 26.8494 37.7117C25.649 38.08 24.4577 38.6756 23.703 39.6805C23.2301 40.3125 22.9164 41.1173 22.2343 41.522C21.6069 41.8948 20.8202 41.8311 20.0973 41.7493C19.1834 41.6447 18.224 41.5038 17.4919 40.94C17.1009 40.6399 16.8008 40.2307 16.4234 39.9169C15.8596 39.444 15.1185 39.1849 14.3819 39.2076C14.0727 39.2167 13.7544 39.2713 13.4543 39.1849C12.8087 38.9985 11.9129 37.9436 11.9493 37.2434C11.9811 36.625 12.595 36.3522 13.1224 36.2294C15.0685 35.7656 16.4689 37.1706 18.2558 37.5344Z" fill="url(#paint4_linear_187_79)"/>
</g>
<defs>
<linearGradient id="paint0_linear_187_79" x1="38.1772" y1="32.7625" x2="1.53852" y2="8.38593" gradientUnits="userSpaceOnUse">
<stop stop-color="#02C1EA"/>
<stop offset="1" stop-color="#02EED6"/>
</linearGradient>
<linearGradient id="paint1_linear_187_79" x1="16.356" y1="24.5166" x2="29.9867" y2="24.5166" gradientUnits="userSpaceOnUse">
<stop stop-color="white"/>
<stop offset="1" stop-color="white" stop-opacity="0.5"/>
</linearGradient>
<linearGradient id="paint2_linear_187_79" x1="9.98948" y1="7.35992" x2="26.6848" y2="7.35992" gradientUnits="userSpaceOnUse">
<stop stop-color="white"/>
<stop offset="1" stop-color="white" stop-opacity="0.5"/>
</linearGradient>
<linearGradient id="paint3_linear_187_79" x1="1.88408" y1="22" x2="11.2636" y2="22" gradientUnits="userSpaceOnUse">
<stop stop-color="white"/>
<stop offset="1" stop-color="white" stop-opacity="0.5"/>
</linearGradient>
<linearGradient id="paint4_linear_187_79" x1="11.9535" y1="37.8212" x2="31.7243" y2="37.8212" gradientUnits="userSpaceOnUse">
<stop stop-color="white"/>
<stop offset="1" stop-color="white" stop-opacity="0.5"/>
</linearGradient>
<clipPath id="clip0_187_79">
<rect width="44" height="44" fill="white"/>
</clipPath>
</defs>
</svg>
