<svg width="44" height="44" viewBox="0 0 44 44" fill="none" xmlns="http://www.w3.org/2000/svg">
<g clip-path="url(#clip0_187_61)">
<path d="M44 21.9477V22.0023C44 22.0568 44 22.1114 44 22.1659C44 22.4341 43.9955 22.7023 43.9818 22.966C43.9773 23.166 43.9636 23.3706 43.95 23.5706C43.9 24.2752 43.8181 24.9708 43.7045 25.6527C43.6863 25.7663 43.6681 25.8754 43.6453 25.989C43.6272 26.0936 43.6044 26.1936 43.5817 26.2982C43.3271 27.5801 42.9633 28.8212 42.495 30.0122C42.3358 30.4122 42.1676 30.8123 41.9903 31.1987C41.9448 31.2987 41.8948 31.4032 41.8448 31.5033V31.5078V31.5123C41.7766 31.6578 41.7038 31.8033 41.6311 31.9442C41.5311 32.1397 41.431 32.3352 41.3219 32.5261C41.2446 32.667 41.1673 32.8125 41.0855 32.9489C40.9945 33.108 40.9036 33.2625 40.8081 33.4171C40.7444 33.5216 40.6808 33.6262 40.6126 33.7308C40.5671 33.8035 40.5216 33.8717 40.4762 33.9444C40.3671 34.1217 40.2488 34.2944 40.1306 34.4626C40.0351 34.5945 39.9442 34.7309 39.8487 34.8581C39.7851 34.9491 39.7214 35.04 39.6532 35.1264C39.5577 35.2491 39.4668 35.3718 39.3713 35.4946C39.3349 35.5446 39.294 35.5946 39.2576 35.6446C39.2031 35.7173 39.1485 35.7855 39.0894 35.8537C39.0439 35.9083 38.9939 35.9673 38.9484 36.0219C38.9121 36.0674 38.8757 36.1128 38.8393 36.1537C38.7666 36.2401 38.6984 36.3219 38.6256 36.4038C38.571 36.4719 38.5119 36.5356 38.4528 36.5992C38.4119 36.6492 38.3664 36.6992 38.3255 36.7447C38.3164 36.7583 38.3028 36.772 38.2891 36.7856C38.2027 36.8765 38.1209 36.972 38.0345 37.0629C37.98 37.1175 37.9299 37.1766 37.8708 37.2311C37.8617 37.2402 37.8526 37.2493 37.8435 37.2584C37.7981 37.3039 37.7526 37.3539 37.7071 37.3993C37.5707 37.5357 37.4343 37.6721 37.2934 37.8084C37.2434 37.8585 37.1933 37.9039 37.1433 37.9539C37.0433 38.0494 36.9387 38.1494 36.8341 38.2403C36.8205 38.254 36.8069 38.2676 36.7887 38.2812C36.7659 38.304 36.7387 38.3267 36.7159 38.3449C36.6477 38.4085 36.5841 38.4631 36.5204 38.5222C36.3976 38.6313 36.2703 38.7358 36.143 38.8449C36.0521 38.9177 35.9611 38.9949 35.8748 39.0677L35.6156 39.2722C35.4792 39.3768 35.3428 39.4814 35.2064 39.5859C35.0972 39.6677 34.9927 39.745 34.8835 39.8223C34.879 39.8268 34.8744 39.8268 34.8699 39.8314C34.6744 39.9723 34.4789 40.1087 34.2788 40.2451L34.0242 40.4133C33.8969 40.4951 33.7696 40.5769 33.6422 40.6587C33.5968 40.686 33.5513 40.7178 33.5058 40.7451C33.4058 40.8088 33.3058 40.8679 33.2057 40.927C33.1967 40.9315 33.1921 40.936 33.183 40.9406C33.1194 40.977 33.0602 41.0133 32.9966 41.0497C32.7238 41.2088 32.451 41.3543 32.1691 41.4997C32.0827 41.5452 31.9963 41.5907 31.9053 41.6361C31.8417 41.6679 31.778 41.7043 31.7098 41.7316C31.5461 41.8134 31.3825 41.8907 31.2188 41.968C31.1733 41.9862 31.1324 42.0089 31.0915 42.0271C30.9505 42.0907 30.805 42.1544 30.6641 42.2135C30.5822 42.2498 30.5049 42.2816 30.4231 42.3135C30.3048 42.3635 30.1821 42.4135 30.0593 42.4635C29.9547 42.5044 29.8456 42.5453 29.7365 42.5862C29.641 42.6226 29.541 42.659 29.4409 42.6953C29.3182 42.7408 29.1954 42.7817 29.0726 42.8226C29.0636 42.8226 29.059 42.8272 29.0499 42.8317C28.9544 42.8635 28.8544 42.8953 28.7544 42.9272C28.286 43.0772 27.8086 43.2136 27.3267 43.3317L27.1675 43.3727C27.1084 43.3863 27.0447 43.3999 26.9856 43.4136C26.9129 43.4272 26.8401 43.4454 26.7628 43.4636C26.7083 43.4772 26.6537 43.4909 26.5946 43.4999C26.5673 43.5045 26.54 43.509 26.5082 43.5181C26.4173 43.5363 26.3263 43.5545 26.2354 43.5727C26.2036 43.5772 26.1717 43.5818 26.1399 43.5909C26.1217 43.5954 26.1035 43.5954 26.0854 43.6C25.7352 43.6681 25.3806 43.7227 25.0259 43.7727C24.9486 43.7818 24.8668 43.7954 24.7895 43.8045C24.7531 43.8091 24.7122 43.8136 24.6758 43.8182C24.5758 43.8318 24.4758 43.8409 24.3757 43.8545C24.3257 43.8591 24.2757 43.8636 24.2257 43.8682C24.1484 43.8727 24.0756 43.8818 23.9983 43.8864C23.3436 43.9454 22.6843 43.9773 22.0159 43.9773C21.7204 43.9773 21.4248 43.9727 21.1293 43.9591C20.2927 43.9273 19.4697 43.8454 18.6603 43.7227C18.6285 43.7182 18.5967 43.7136 18.5648 43.7091C18.292 43.6681 18.0283 43.6181 17.7601 43.5681C17.6646 43.55 17.5736 43.5318 17.4827 43.509C17.1735 43.4454 16.8689 43.3772 16.5688 43.2999C15.8776 43.1226 15.2002 42.9135 14.5363 42.6771C14.1544 42.5408 13.777 42.3907 13.4042 42.2316C13.2496 42.1634 13.095 42.0998 12.9449 42.0316C12.2265 41.7043 11.5263 41.3452 10.8534 40.9451C10.8215 40.927 10.7897 40.9088 10.7624 40.8906C9.88943 40.3723 9.05281 39.795 8.2662 39.1586C7.98884 38.9358 7.72057 38.7085 7.45686 38.4767C6.16555 37.3402 5.01064 36.0537 4.01943 34.6399C2.79177 32.9398 1.81875 31.035 1.13672 29.003C0.977576 28.5302 0.836623 28.0529 0.709311 27.5665C0.659295 27.3756 0.613827 27.1801 0.568358 26.9892C0.404671 26.2982 0.277359 25.589 0.186421 24.8708C0.154593 24.6116 0.122765 24.3571 0.100031 24.0934C0.0909373 24.007 0.0818435 23.9207 0.0772967 23.8343C0.0772967 23.7979 0.0727498 23.7615 0.068203 23.7297C0.0454686 23.4524 0.031828 23.1706 0.0181875 22.8887C0.00454686 22.5932 0 22.2978 0 22.0023C0 21.7841 0 21.5659 0.00909373 21.3431C0.0363749 20.3476 0.131859 19.3702 0.290999 18.4155C0.404671 17.7018 0.559264 17.0018 0.745686 16.3108C0.809342 16.0653 0.877545 15.8244 0.950294 15.5834C0.950294 15.5789 0.950294 15.5743 0.954841 15.5698C1.05033 15.247 1.15945 14.9243 1.27312 14.6106C1.84148 13.0241 2.58262 11.5239 3.47835 10.1283C3.59657 9.93739 3.72388 9.75101 3.85119 9.56462C4.12401 9.16458 4.415 8.76909 4.7151 8.38723C5.67449 7.17347 6.75664 6.06426 7.94792 5.07325C8.03885 4.99597 8.13434 4.91869 8.22982 4.84595C8.23437 4.84141 8.23892 4.83686 8.24801 4.83232C8.42534 4.68685 8.60721 4.55047 8.78909 4.41409C8.82092 4.39136 8.85274 4.36409 8.88457 4.34136C8.90731 4.32317 8.93004 4.30953 8.95277 4.29135C9.04371 4.22316 9.13465 4.15952 9.22559 4.09133C9.29834 4.04133 9.36654 3.99132 9.43929 3.94131C9.52113 3.88676 9.59843 3.83221 9.68027 3.77312C9.78485 3.70493 9.88488 3.63674 9.98946 3.56855C10.0895 3.50036 10.1941 3.43672 10.2941 3.37307C10.3714 3.32761 10.4441 3.27761 10.5169 3.23215C10.5305 3.22306 10.5487 3.21397 10.5669 3.20488C10.6124 3.1776 10.6578 3.15032 10.7033 3.1185C10.8124 3.05031 10.9261 2.98667 11.0398 2.92303C11.0671 2.90484 11.0989 2.89121 11.1262 2.87302C11.1807 2.8412 11.2353 2.80938 11.2899 2.7821C11.3581 2.74574 11.4217 2.70937 11.4899 2.673C11.5172 2.65936 11.549 2.64118 11.5763 2.62754C11.6354 2.59572 11.69 2.5639 11.7491 2.53662C11.8037 2.5048 11.8582 2.47753 11.9219 2.44571C11.931 2.44116 11.9355 2.43661 11.9446 2.43207C11.9901 2.40934 12.0355 2.38206 12.081 2.36388C12.222 2.29114 12.3675 2.22296 12.5084 2.15477C12.6175 2.10022 12.7267 2.05021 12.8403 2.00021C12.9995 1.92747 13.1586 1.85474 13.3223 1.78655C13.386 1.75927 13.4496 1.732 13.5133 1.70472C13.6042 1.66835 13.6997 1.62744 13.7906 1.59562C13.7997 1.59107 13.8043 1.58653 13.8134 1.58653C13.8861 1.55925 13.9543 1.52743 14.0316 1.50015C14.0362 1.50015 14.0407 1.49561 14.0453 1.49561C14.1089 1.47288 14.168 1.4456 14.2317 1.42287C14.2953 1.40014 14.359 1.37287 14.4227 1.35014C14.841 1.19558 15.2638 1.05465 15.6912 0.927367C15.9322 0.854632 16.1732 0.786443 16.4187 0.7228C16.5051 0.700071 16.587 0.681887 16.6688 0.659157C16.737 0.640974 16.8007 0.627336 16.8689 0.609152C16.8825 0.604606 16.8961 0.60006 16.9098 0.60006C16.9462 0.590969 16.9825 0.586423 17.0189 0.577331C17.0507 0.572785 17.0826 0.563693 17.1144 0.554601C17.1144 0.554601 17.1189 0.554601 17.1235 0.554601C17.2008 0.531872 17.2781 0.513688 17.3599 0.50005C17.3736 0.495504 17.3872 0.495504 17.4054 0.490958C17.4872 0.472775 17.5691 0.454591 17.6509 0.440953C17.7282 0.427315 17.8055 0.409132 17.8828 0.395494C17.9146 0.390948 17.9465 0.386402 17.9783 0.37731C18.0465 0.368218 18.1147 0.35458 18.1829 0.340943C18.2738 0.327305 18.3648 0.309121 18.4512 0.295483C18.7194 0.250024 18.9877 0.213657 19.2605 0.181835C19.3287 0.172743 19.3969 0.163652 19.4651 0.159106C19.6652 0.136376 19.8698 0.113646 20.0744 0.0954628C20.1562 0.0909168 20.2335 0.081825 20.3108 0.0772791C20.3745 0.0727331 20.4382 0.0681872 20.5018 0.0681872C20.5927 0.0636413 20.6837 0.0545494 20.7746 0.0500035H20.7837C20.8747 0.0454576 20.9656 0.0409117 21.052 0.0363657L21.1793 0.0318198H21.2339C21.3475 0.0272739 21.4657 0.022728 21.584 0.022728H21.5931C21.7295 0.022728 21.8659 0.022728 21.9977 0.022728C22.8298 0.022728 23.6437 0.0681872 24.453 0.159106C24.744 0.190927 25.035 0.23184 25.326 0.272754C25.4533 0.290938 25.5852 0.313667 25.7125 0.336397C25.7125 0.336397 25.7125 0.336397 25.7171 0.336397C25.8125 0.350035 25.908 0.368218 26.0035 0.386402C26.3172 0.445499 26.631 0.509142 26.9402 0.581877C27.4403 0.695525 27.9359 0.827357 28.4224 0.977372C28.9408 1.13648 29.45 1.31377 29.9502 1.5047C30.2867 1.63199 30.6231 1.77291 30.9505 1.91838C31.6735 2.24114 32.3782 2.60027 33.0602 2.99576C33.5013 3.25488 33.9332 3.52764 34.3561 3.81403C34.5607 3.95495 34.7699 4.10042 34.9699 4.25044C35.2609 4.45955 35.5474 4.67775 35.8247 4.90505C35.8338 4.91414 35.8475 4.92323 35.8566 4.93233C35.943 5.00052 36.0293 5.0687 36.1112 5.14144C36.675 5.61422 37.2161 6.11427 37.7299 6.64159C38.0936 7.00981 38.4392 7.39167 38.7757 7.78262C39.003 8.05083 39.2258 8.32359 39.4395 8.60543C39.7714 9.0373 40.0897 9.4828 40.3943 9.94194C40.4671 10.0465 40.5307 10.151 40.5989 10.2601C41.2401 11.2693 41.7993 12.3331 42.2676 13.4423C42.4177 13.7923 42.5541 14.1424 42.686 14.5015C42.8542 14.9652 43.0088 15.4334 43.1452 15.9107C43.1816 16.0335 43.2179 16.1562 43.2498 16.2835C43.3771 16.7608 43.4908 17.2427 43.5862 17.7246C43.659 18.0791 43.7181 18.4383 43.7727 18.7974C43.7999 18.9883 43.8272 19.1793 43.85 19.3656C43.8681 19.5293 43.8909 19.6884 43.9045 19.8475C43.9045 19.8793 43.9091 19.9066 43.9136 19.9384C43.9227 20.0793 43.9363 20.2248 43.9454 20.3657C43.9545 20.4839 43.9636 20.6067 43.9682 20.7249C43.9682 20.7431 43.9682 20.7612 43.9682 20.7794C43.9727 20.8749 43.9773 20.9703 43.9818 21.0704C43.9864 21.1613 43.9864 21.2567 43.9909 21.3477C43.9955 21.534 44 21.7432 44 21.9477Z" fill="url(#paint0_linear_187_61)"/>
<path opacity="0.5" d="M37.8345 37.2766C37.789 37.322 37.7435 37.372 37.698 37.4175C37.5616 37.5539 37.4252 37.6903 37.2843 37.8266C37.2343 37.8766 37.1842 37.9221 37.1342 37.9721C37.0342 38.0676 36.9296 38.1676 36.825 38.2585C36.8114 38.2721 36.7978 38.2858 36.7796 38.2994C36.7568 38.3221 36.7296 38.3449 36.7068 38.363C36.6386 38.4267 36.575 38.4812 36.5113 38.5403C36.3885 38.6494 36.2612 38.754 36.1339 38.8631C36.043 38.9358 35.952 39.0131 35.8657 39.0859L35.6065 39.2904C35.4701 39.395 35.3337 39.4995 35.1973 39.6041C35.0881 39.6859 34.9836 39.7632 34.8744 39.8405C34.8699 39.845 34.8653 39.845 34.8608 39.8496C34.6653 39.9905 34.4698 40.1269 34.2697 40.2632L34.0151 40.4314C33.8878 40.5133 33.7605 40.5951 33.6331 40.6769C33.5877 40.7042 33.5422 40.736 33.4967 40.7633C33.3967 40.8269 33.2967 40.886 33.1967 40.9451C33.1876 40.9497 33.183 40.9542 33.1739 40.9588C33.1103 40.9951 33.0512 41.0315 32.9875 41.0679C32.7147 41.227 32.4419 41.3725 32.16 41.5179C32.0736 41.5634 31.9872 41.6088 31.8962 41.6543C31.8326 41.6861 31.7689 41.7225 31.7007 41.7498C31.537 41.8316 31.3734 41.9089 31.2097 41.9862C31.1642 42.0043 31.1233 42.0271 31.0824 42.0452C30.9414 42.1089 30.7959 42.1725 30.655 42.2316C30.5731 42.268 30.4958 42.2998 30.414 42.3316C30.2958 42.3816 30.173 42.4317 30.0502 42.4817C29.9456 42.5226 29.8365 42.5635 29.7274 42.6044C29.6319 42.6408 29.5319 42.6771 29.4318 42.7135C29.3091 42.759 29.1863 42.7999 29.0636 42.8408C29.0545 42.8408 29.0499 42.8453 29.0408 42.8499C28.9453 42.8817 28.8453 42.9135 28.7453 42.9453C28.2769 43.0954 27.7995 43.2317 27.3176 43.3499L27.1584 43.3908C27.0993 43.4045 27.0357 43.4181 26.9765 43.4318C26.9038 43.4454 26.831 43.4636 26.7537 43.4818C26.6992 43.4954 26.6446 43.509 26.5855 43.5181C26.5582 43.5227 26.5309 43.5272 26.4991 43.5363C26.4082 43.5545 26.3172 43.5727 26.2263 43.5909C26.1945 43.5954 26.1627 43.6 26.1308 43.609C26.1126 43.6136 26.0944 43.6136 26.0763 43.6181C27.1039 40.8406 30.4003 38.213 29.4455 35.3309C26.3491 34.5581 23.1754 35.3127 20.0471 36.1856C19.1514 36.4356 18.2602 36.6947 17.3781 36.9265C14.3181 37.7403 10.8306 38.1721 7.97974 37.0902C7.12948 36.7674 6.33833 36.3128 5.62902 35.6855C5.27891 35.3764 4.94244 35.0036 4.88333 34.5399C4.81513 33.9944 5.1516 33.4807 5.48352 33.0443C7.86607 29.944 11.017 27.6756 14.5045 25.9027C16.8188 24.7253 19.2923 23.7661 21.7886 22.9205C23.139 22.466 24.494 22.0477 25.8444 21.6477C27.5858 21.1295 29.4228 20.5703 30.6504 19.2338C31.8781 17.8928 32.1418 15.4971 30.705 14.3924C28.959 13.0468 26.5173 14.4742 24.7077 15.7334C23.9893 16.2289 23.2572 16.7063 22.507 17.1563C19.4788 18.9792 16.2096 20.4067 12.8176 21.3931C9.12556 22.4705 5.28346 23.0387 1.44136 23.0478C0.986669 23.0478 0.486514 23.0024 0.0227343 22.8887C0.00454686 22.5932 0 22.2978 0 22.0023C0 21.7841 0 21.5659 0.00909373 21.3431C0.0363749 20.3476 0.131859 19.3702 0.290999 18.4155C2.74176 16.1108 5.86545 14.5242 9.17557 13.9196C9.31198 13.8923 9.44384 13.8696 9.58024 13.8469C13.7906 13.1741 21.2202 13.5378 21.5067 7.87809C21.5158 7.72352 21.5158 7.56442 21.5158 7.39622C16.4642 8.39178 11.8355 7.46895 8.25256 4.83232C8.42988 4.68685 8.61176 4.55047 8.79363 4.41409C8.82546 4.39136 8.85729 4.36409 8.88912 4.34136C8.91185 4.32317 8.93459 4.30954 8.95732 4.29135C9.04826 4.22316 9.1392 4.15952 9.23013 4.09133C9.30288 4.04133 9.37109 3.99132 9.44384 3.94132C9.52568 3.88676 9.60298 3.83221 9.68482 3.77312C9.7894 3.70493 9.88943 3.63674 9.99401 3.56855C10.094 3.50036 10.1986 3.43672 10.2986 3.37308C10.3759 3.32762 10.4487 3.27761 10.5214 3.23215C10.5351 3.22306 10.5533 3.21397 10.5715 3.20488C10.6169 3.1776 10.6624 3.15032 10.7079 3.1185C10.817 3.05031 10.9307 2.98667 11.0443 2.92303C11.0716 2.90484 11.1034 2.89121 11.1307 2.87302C11.1853 2.8412 11.2398 2.80938 11.2944 2.78211C11.3626 2.74574 11.4263 2.70937 11.4945 2.673C11.5218 2.65937 11.5536 2.64118 11.5809 2.62754C11.64 2.59572 11.6945 2.5639 11.7536 2.53663C11.8082 2.5048 11.8628 2.47753 11.9264 2.44571C11.9355 2.44116 11.9401 2.43661 11.9492 2.43207C11.9946 2.40934 12.0401 2.38206 12.0856 2.36388C12.2265 2.29115 12.372 2.22296 12.513 2.15477C12.6221 2.10022 12.7312 2.05021 12.8449 2.00021C13.004 1.92747 13.1632 1.85474 13.3269 1.78655C13.3905 1.75927 13.4542 1.732 13.5178 1.70472C13.6088 1.66835 13.7042 1.62744 13.7952 1.59562C13.8043 1.59107 13.8088 1.58653 13.8179 1.58653C13.8907 1.55925 13.9589 1.52743 14.0362 1.50015C14.0407 1.50015 14.0453 1.49561 14.0498 1.49561C14.1135 1.47288 14.1726 1.4456 14.2362 1.42287C14.2999 1.40014 14.3635 1.37287 14.4272 1.35014C14.8455 1.19558 15.2684 1.05465 15.6958 0.927368C17.4327 1.03192 19.2287 1.17285 21.0656 1.54561C21.7249 1.68199 22.3978 1.86837 22.9162 2.30024C23.0481 2.40934 23.1663 2.53208 23.2708 2.65482C25.1442 4.9596 21.8886 9.51916 23.6573 11.9376C23.7528 12.0694 23.8665 12.1967 23.9983 12.3195C25.9626 11.1239 28.0087 9.94194 30.2776 9.56008C32.5464 9.17822 35.1154 9.7601 36.5386 11.5739C37.6844 13.0332 37.9027 15.0288 37.6935 16.8699C37.1615 21.5931 33.7741 26.0118 29.1863 27.2574C26.3673 28.0211 22.9889 27.7938 20.2927 28.5848C18.874 28.9984 17.6464 29.694 16.7825 30.9623C17.3417 32.2533 18.5739 32.6534 20.0107 32.6625C21.3748 32.6716 22.9207 32.3306 24.2348 32.0715C28.9226 31.1487 34.0378 32.8852 37.1933 36.4674C37.4161 36.7174 37.6344 36.9902 37.8345 37.2766Z" fill="#C2A9FF"/>
<path opacity="0.5" d="M43.9999 21.9477V22.0023C43.9999 22.0568 43.9999 22.1114 43.9999 22.1659C43.9999 22.4341 43.9954 22.7023 43.9817 22.966C43.9772 23.166 43.9635 23.3706 43.9499 23.5706C43.8999 24.2752 43.818 24.9708 43.7044 25.6527C43.6862 25.7663 43.668 25.8754 43.6453 25.989C43.6271 26.0936 43.6043 26.1936 43.5816 26.2982C43.327 27.5801 42.9632 28.8212 42.4949 30.0122C42.3358 30.4122 42.1675 30.8123 41.9902 31.1987C41.9447 31.2987 41.8947 31.4032 41.8447 31.5033V31.5078V31.5123C41.7765 31.6578 41.7038 31.8033 41.631 31.9442C41.531 32.1397 41.4309 32.3352 41.3218 32.5261C41.2445 32.667 41.1672 32.8125 41.0854 32.9489C40.9944 33.108 40.9035 33.2625 40.808 33.4171C40.7444 33.5216 40.6807 33.6262 40.6125 33.7308C40.567 33.8035 40.5216 33.8717 40.4761 33.9444C39.9168 32.417 39.2166 30.935 38.0799 29.7894C36.9796 28.6848 35.3609 27.5392 35.7292 26.0254C36.1157 24.4571 38.2163 24.2343 39.5667 23.3433C41.2945 22.2068 41.7492 19.9339 42.2585 17.9337C42.4267 17.27 42.7404 16.5472 43.1451 15.8789C43.1815 16.0017 43.2179 16.1244 43.2497 16.2517C43.377 16.729 43.4907 17.2109 43.5862 17.6927C43.6589 18.0473 43.718 18.4064 43.7726 18.7656C43.7999 18.9565 43.8271 19.1474 43.8499 19.3338C43.8681 19.4975 43.8908 19.6566 43.9044 19.8157C43.9044 19.8475 43.909 19.8748 43.9135 19.9066C43.9226 20.0475 43.9363 20.193 43.9454 20.3339C43.9544 20.4521 43.9635 20.5749 43.9681 20.693C43.9681 20.7112 43.9681 20.7294 43.9681 20.7476C43.9726 20.8431 43.9772 20.9385 43.9817 21.0385C43.9863 21.1295 43.9863 21.2249 43.9908 21.3158C43.9954 21.534 43.9999 21.7432 43.9999 21.9477Z" fill="#C2A9FF"/>
<path opacity="0.2" d="M34.9655 4.23226C33.7379 5.66422 32.0283 6.64159 30.3277 7.48714C28.4362 8.42814 26.4629 9.27823 24.8624 10.6602C23.2619 12.0376 22.0661 14.0878 22.3116 16.1835C22.4207 17.1154 22.8118 18.0064 22.8663 18.9429C22.9527 20.3748 22.2707 21.7204 21.7342 23.0524C20.5292 26.0436 20.0336 29.2939 20.0109 32.517C19.9972 34.749 20.2019 37.0129 19.7654 39.1995C19.4425 40.8269 18.6787 42.4453 17.4692 43.5272C17.16 43.4636 16.8554 43.3954 16.5553 43.3181C15.8642 43.1408 15.1867 42.9317 14.5228 42.6953C14.1409 42.5589 13.7635 42.4089 13.3907 42.2498C13.2361 42.1816 13.0815 42.118 12.9314 42.0498C12.213 41.7225 11.5128 41.3634 10.8399 40.9633C10.808 40.9451 10.7762 40.927 10.7489 40.9088C9.87593 40.3905 9.03931 39.8132 8.2527 39.1768C7.97534 38.954 7.70708 38.7267 7.44336 38.4949C7.78892 37.2311 8.48459 36.0765 9.2621 35.0173C10.7444 32.9943 12.5722 31.1896 13.6771 28.9348C14.7775 26.68 14.9775 23.7161 13.2906 21.8568C12.6677 21.1658 11.8356 20.684 11.2127 19.993C10.4898 19.1883 10.0896 18.1473 9.75771 17.1154C9.16662 15.3061 8.77559 13.1741 9.87138 11.6239C11.0718 9.92375 13.4452 9.71009 15.5095 9.44188C16.9236 9.26005 18.3195 8.9782 19.6972 8.60543C20.5383 8.37814 21.4022 8.09174 22.0115 7.47805C23.4574 6.02335 22.8527 3.564 23.5165 1.62289C23.7075 1.07284 24.0303 0.577332 24.4577 0.14547C24.7487 0.177291 25.0397 0.218204 25.3307 0.259118C25.458 0.277301 25.5899 0.300031 25.7172 0.322761C25.7172 0.322761 25.7172 0.322761 25.7218 0.322761C25.8172 0.336398 25.9127 0.354582 26.0082 0.372766C26.3219 0.431863 26.6357 0.495506 26.9449 0.568241C27.445 0.681889 27.9406 0.81372 28.4271 0.963736C28.9455 1.12284 29.4547 1.30013 29.9549 1.49106C30.2913 1.61835 30.6278 1.75927 30.9552 1.90474C31.6781 2.2275 32.3829 2.58663 33.0649 2.98213C33.506 3.24124 33.9379 3.514 34.3608 3.80039C34.5609 3.94132 34.7655 4.08224 34.9655 4.23226Z" fill="#C2A9FF"/>
<path opacity="0.3" d="M43.9999 21.9477V22.0023C43.9999 22.0568 43.9999 22.1114 43.9999 22.1659C43.9999 22.4341 43.9953 22.7023 43.9817 22.966C43.9771 23.166 43.9635 23.3706 43.9499 23.5706C43.8998 24.2752 43.818 24.9708 43.7043 25.6527C43.6861 25.7663 43.6679 25.8754 43.6452 25.989C43.627 26.0936 43.6043 26.1936 43.5816 26.2982C43.3269 27.5801 42.9632 28.8212 42.4949 30.0122C42.3357 30.4122 42.1675 30.8123 41.9902 31.1987C41.9447 31.2987 41.8947 31.4032 41.8447 31.5033V31.5078C41.6901 31.3441 41.5627 31.1532 41.4673 30.935C41.2126 30.3577 41.2172 29.6758 40.8989 29.1303C40.2396 28.0074 38.3663 27.671 38.3163 26.3664C38.289 25.639 38.9165 25.048 39.5712 24.7253C40.4033 24.3071 41.299 24.0889 41.8901 23.3206C42.4357 22.6205 42.4039 21.7795 42.7358 21.0113C42.9996 20.4067 43.4042 20.0475 43.9089 19.9111C43.918 20.0521 43.9317 20.1975 43.9408 20.3385C43.9499 20.4567 43.9589 20.5794 43.9635 20.6976C43.9635 20.7158 43.9635 20.734 43.9635 20.7521C43.968 20.8476 43.9726 20.9431 43.9771 21.0431C43.9817 21.134 43.9817 21.2295 43.9862 21.3204C43.9953 21.534 43.9999 21.7432 43.9999 21.9477Z" fill="#6C53CE"/>
<path opacity="0.3" d="M36.7021 38.363C36.6339 38.4267 36.5703 38.4812 36.5066 38.5403C36.3839 38.6494 36.2566 38.754 36.1292 38.8631C36.0383 38.9358 35.9474 39.0131 35.861 39.0859L35.6018 39.2904C35.4654 39.395 35.329 39.4995 35.1926 39.6041C35.0835 39.6859 34.9789 39.7632 34.8698 39.8405C34.8652 39.845 34.8607 39.845 34.8561 39.8496C34.6606 39.9905 34.4651 40.1269 34.265 40.2632L34.0104 40.4314C33.8831 40.5133 33.7558 40.5951 33.6285 40.6769C33.583 40.7042 33.5375 40.736 33.4921 40.7633C33.392 40.8269 33.292 40.886 33.192 40.9451C33.1829 40.9497 33.1783 40.9542 33.1692 40.9588C33.1056 40.9951 33.0465 41.0315 32.9828 41.0679C32.71 41.227 32.4372 41.3725 32.1553 41.5179C32.0689 41.5634 31.9825 41.6088 31.8916 41.6543C31.8279 41.6861 31.7643 41.7225 31.696 41.7498C31.5324 41.8316 31.3687 41.9089 31.205 41.9862C31.1595 42.0043 31.1186 42.0271 31.0777 42.0452C30.9367 42.1089 30.7912 42.1725 30.6503 42.2316C30.5684 42.268 30.4911 42.2998 30.4093 42.3316C30.2911 42.3816 30.1683 42.4317 30.0455 42.4817C29.941 42.5226 29.8318 42.5635 29.7227 42.6044C29.6272 42.6408 29.5272 42.6771 29.4272 42.7135C29.3044 42.759 29.1816 42.7999 29.0589 42.8408C29.0498 42.8408 29.0452 42.8453 29.0361 42.8499C29.2817 42.0452 29.7091 41.2406 29.7955 40.3905C29.8273 40.0814 29.8455 39.7541 29.9819 39.4723C30.2229 38.9813 30.7639 38.7176 31.1368 38.313C31.6006 37.7994 31.7597 37.0311 31.5324 36.3765C31.2959 35.6991 30.6821 35.0763 30.8594 34.3808C31.0413 33.6626 32.0507 33.4262 32.6964 33.7944C33.342 34.1626 33.6694 34.9081 33.8558 35.6264C33.974 36.0992 34.0832 36.6356 34.4969 36.8947C34.9016 37.172 35.4654 37.0493 35.9019 37.2766C36.2293 37.4493 36.4293 37.7948 36.593 38.1312C36.6339 38.2085 36.6703 38.2812 36.7021 38.363Z" fill="#6C53CE"/>
<path opacity="0.3" d="M10.0395 29.3439C9.5894 29.844 9.13017 30.4122 9.0847 31.085C9.04833 31.6078 9.25748 32.167 9.0165 32.6306C8.71186 33.2216 7.84795 33.3216 7.51149 33.8944C7.28869 34.2763 7.37508 34.7854 7.63425 35.1491C7.89342 35.5082 8.289 35.7446 8.69822 35.9173C10.0714 36.4992 11.6173 36.4856 13.1087 36.4583C13.5906 36.4492 14.0817 36.4401 14.5273 36.2537C15.473 35.8628 15.9596 34.6263 15.5367 33.6989C15.2548 33.0761 14.6501 32.617 14.4864 31.9578C14.2954 31.1759 14.8001 30.3804 15.4276 29.8804C16.055 29.3803 16.8189 29.0712 17.4555 28.5802C17.7056 28.3893 17.942 28.1575 18.042 27.862C18.2921 27.121 17.5191 26.3527 16.7416 26.3164C15.9596 26.28 15.2502 26.7437 14.6455 27.2392C13.7361 27.9847 13.3269 27.7801 12.3403 27.9029C11.39 28.0256 10.667 28.653 10.0395 29.3439Z" fill="#6C53CE"/>
<path opacity="0.3" d="M4.41069 17.4382C4.08332 17.7882 3.78777 18.2155 3.78322 18.6974C3.77868 19.4702 4.57438 20.0657 5.34734 20.0975C6.12031 20.1294 6.84781 19.7429 7.48892 19.3111C8.13002 18.8792 8.7484 18.3837 9.48044 18.1382C10.2625 17.8746 11.1128 17.9246 11.9403 17.9609C12.7678 17.9973 13.6226 18.0064 14.382 17.6836C15.1413 17.3563 15.7824 16.6017 15.7051 15.7789C15.6187 14.8334 14.6229 14.1787 13.6772 14.1424C12.7269 14.106 11.8266 14.5197 10.9764 14.9425C8.76659 16.0289 6.23398 15.5016 4.41069 17.4382Z" fill="#6C53CE"/>
<path opacity="0.3" d="M33.2876 15.7607C33.2194 17.9064 31.8281 19.9566 29.8547 20.8112C29.1818 21.1022 28.4543 21.2613 27.7995 21.5931C27.1448 21.925 26.5446 22.4887 26.44 23.216C26.2991 24.2252 27.2266 25.1571 28.236 25.2981C29.2454 25.4435 30.2503 24.9799 31.0551 24.3571C31.9099 23.6979 32.6192 22.8524 33.1103 21.8932C33.4695 21.1976 33.7241 20.4339 34.2333 19.843C34.6016 19.4156 35.0836 19.102 35.461 18.6838C35.9657 18.1246 36.2612 17.4018 36.4022 16.6654C36.7978 14.547 35.8111 12.2331 34.0106 11.0466C32.942 10.342 31.6189 10.0556 30.3503 10.192C29.6137 10.2692 27.9359 10.4647 28.4543 11.433C28.859 12.1831 30.5595 12.3786 31.2642 12.6786C32.6192 13.2559 33.3331 14.2742 33.2876 15.7607Z" fill="#6C53CE"/>
<path opacity="0.3" d="M20.9021 5.16872C20.4065 5.6324 19.6835 5.79605 19.0106 5.72332C17.7329 5.58694 16.4462 4.69594 15.264 5.19599C14.973 5.31873 14.7184 5.51421 14.4183 5.60512C12.8723 6.05517 10.5671 5.32782 9.43945 3.94586C9.5213 3.89131 9.59859 3.83676 9.68044 3.77766C9.78502 3.70948 9.88505 3.64129 9.98962 3.5731C10.0897 3.50491 10.1942 3.44127 10.2943 3.37762C10.3716 3.33216 10.4443 3.28216 10.5171 3.2367C10.5307 3.22761 10.5489 3.21852 10.5671 3.20942C10.6125 3.18215 10.658 3.15487 10.7035 3.12305C10.8126 3.05486 10.9263 2.99122 11.0399 2.92758C11.0672 2.90939 11.0991 2.89575 11.1263 2.87757C11.1809 2.84575 11.2355 2.81393 11.29 2.78665C11.3582 2.75029 11.4219 2.71392 11.4901 2.67755C11.5174 2.66391 11.5492 2.64573 11.5765 2.63209C11.6356 2.60027 11.6902 2.56845 11.7493 2.54117C11.8038 2.50935 11.8584 2.48208 11.922 2.45025C11.9311 2.44571 11.9357 2.44116 11.9448 2.43662C11.9902 2.41389 12.0357 2.38661 12.0812 2.36843C12.2221 2.29569 12.3676 2.2275 12.5086 2.15931C12.6177 2.10476 12.7268 2.05476 12.8405 2.00475C12.9996 1.93202 13.1588 1.85928 13.3225 1.7911C13.3861 1.76382 13.4498 1.73654 13.5134 1.70927C13.6044 1.6729 13.6999 1.63199 13.7908 1.60017C13.7317 2.29569 13.6135 3.00486 14 3.55491C14.0682 3.65038 14.15 3.73675 14.2591 3.77312C14.3637 3.80949 14.4819 3.7913 14.5911 3.76403C15.6368 3.50945 16.3962 2.57754 17.4147 2.23205C18.2422 1.9502 19.1516 2.09567 19.9745 2.38661C20.4929 2.56845 21.0203 2.8412 21.2795 3.31853C21.5978 3.9095 21.3977 4.70503 20.9021 5.16872Z" fill="#6C53CE"/>
<path opacity="0.2" d="M35.8018 8.98274C36.3019 9.1373 36.8294 9.24186 37.2704 9.51916C38.3116 10.1738 38.5754 11.5876 38.448 12.8059C38.3798 13.4968 38.2162 14.2015 38.3526 14.8834C38.489 15.5652 39.0437 16.238 39.7394 16.2108C40.2486 16.1926 40.6851 15.7925 40.8761 15.3243C41.067 14.8561 41.0489 14.3242 40.9625 13.8242C40.8215 13.0013 40.5032 12.2103 40.0394 11.5194C39.1892 10.2556 37.8479 9.31914 37.2795 7.90536C36.8976 6.95526 35.7836 5.52784 34.656 6.61432C33.6557 7.57805 34.8697 8.6918 35.8018 8.98274Z" fill="#6C53CE"/>
<path opacity="0.2" d="M25.8355 28.6302C25.4717 28.6711 25.0898 28.7348 24.8124 28.9712C24.5351 29.2076 24.4123 29.6667 24.6487 29.944C24.7851 30.1031 25.0034 30.1667 25.208 30.2077C25.9855 30.3759 26.7948 30.4077 27.5815 30.3031C28.4499 30.1895 29.3093 29.9076 30.1823 29.9986C31.7646 30.1622 32.9422 31.4714 34.2653 32.3533C34.9428 32.8034 35.9113 33.1352 36.516 32.5897C36.9844 32.167 36.9707 31.3896 36.6388 30.8532C36.3023 30.3168 35.734 29.9849 35.1611 29.7167C34.8019 29.5485 34.4154 29.3803 34.2017 29.0485C34.0516 28.8166 34.0016 28.5348 33.8789 28.2847C33.1605 26.8573 31.369 27.2801 30.3187 27.8347C28.9592 28.562 27.3223 28.462 25.8355 28.6302Z" fill="#6C53CE"/>
<path opacity="0.3" d="M3.00082 27.2392C2.98263 27.6892 2.98718 28.1756 3.26454 28.5302C3.43277 28.7484 3.6874 28.8848 3.95112 28.9666C4.51493 29.1394 5.15149 29.0666 5.66074 28.7712C6.69742 28.1665 7.15211 26.7482 8.29792 26.38C9.10726 26.1163 10.0257 26.4846 10.8305 26.2073C10.976 26.1572 11.1124 26.0891 11.217 25.9754C11.3261 25.8572 11.3852 25.7072 11.4125 25.5481C11.5353 24.8844 11.1124 24.2116 10.5395 23.8616C9.96662 23.507 9.27095 23.4161 8.59801 23.3888C7.384 23.3388 5.85625 23.3751 4.71954 23.8661C3.34638 24.4571 3.05993 25.8936 3.00082 27.2392Z" fill="#6C53CE"/>
<path opacity="0.1" d="M43.7679 18.7701C43.7179 18.4064 43.6543 18.0519 43.5815 17.6973C43.486 17.2109 43.3724 16.729 43.245 16.2562C43.0814 15.6516 42.8904 15.0561 42.6812 14.4742C42.5494 14.1151 42.413 13.7651 42.2629 13.415C41.79 12.3058 41.2308 11.2375 40.5942 10.2329C40.526 10.1283 40.4578 10.0192 40.3896 9.91466C40.0895 9.45552 39.7712 9.01002 39.4348 8.57816C39.2211 8.29631 38.9983 8.02356 38.7709 7.75535C38.4345 7.3644 38.0889 6.98254 37.7251 6.61432C37.2114 6.08699 36.6703 5.58694 36.1065 5.11416C36.0201 5.04143 35.9382 4.97324 35.8518 4.90505C35.8427 4.89596 35.8291 4.88687 35.82 4.87778C35.3471 4.49592 34.8561 4.13225 34.3514 3.7913C33.9285 3.50491 33.4966 3.23215 33.0555 2.97303C32.378 2.57754 31.6733 2.21387 30.9458 1.89565C30.6184 1.75018 30.2819 1.60926 29.9455 1.48197C29.4453 1.29104 28.9361 1.10921 28.4177 0.954644C27.9312 0.804629 27.4356 0.672797 26.9354 0.559149C26.6263 0.486414 26.3125 0.422771 25.9988 0.36822C25.9033 0.350036 25.8078 0.336398 25.7123 0.318215C25.7123 0.318215 25.7123 0.318215 25.7078 0.318215C25.5805 0.295485 25.4532 0.277301 25.3213 0.254572C24.2437 0.0863726 23.1297 0 22.0021 0C21.8657 0 21.7293 0 21.5974 0H21.5883C21.4747 0 21.3564 0.00454592 21.2382 0.00909185H21.1837L21.0563 0.0136378C20.9654 0.0136378 20.879 0.0181837 20.7881 0.0272755H20.779C20.688 0.0318215 20.5971 0.0363674 20.5062 0.0454592C20.4425 0.0454592 20.3789 0.0500052 20.3152 0.0545511C20.2379 0.059097 20.1606 0.0681889 20.0788 0.0727348C19.9105 0.0863726 19.7468 0.104556 19.5786 0.12274C19.8833 0.154561 20.1879 0.195475 20.488 0.240934C20.6153 0.259118 20.7472 0.281847 20.8745 0.304577C20.8745 0.304577 20.8745 0.304577 20.879 0.304577C20.9745 0.318215 21.07 0.336398 21.1655 0.354582C21.4792 0.413679 21.7929 0.477322 22.1021 0.545511C22.6023 0.659159 23.0979 0.790991 23.5844 0.941006C24.1027 1.10011 24.612 1.2774 25.1121 1.46833C25.4486 1.59562 25.7851 1.73654 26.1125 1.88201C26.8354 2.20477 27.5402 2.5639 28.2222 2.9594C28.6632 3.21851 29.0952 3.49127 29.5181 3.77766C30.0228 4.12315 30.5138 4.48228 30.9867 4.86414C30.9958 4.87323 31.0094 4.88232 31.0185 4.89141C31.1049 4.9596 31.1913 5.02779 31.2731 5.10053C31.837 5.5733 32.378 6.07336 32.8918 6.60068C33.2556 6.9689 33.6011 7.35076 33.9376 7.74171C34.165 8.00992 34.3877 8.28267 34.6014 8.56452C34.9334 8.99638 35.2517 9.44189 35.5563 9.90102C35.629 10.0056 35.6927 10.1101 35.7609 10.2192C36.402 11.2284 36.9613 12.2922 37.4296 13.4014C37.5796 13.7514 37.7161 14.1015 37.8479 14.4606C38.0571 15.0425 38.248 15.638 38.4117 16.2426C38.539 16.7199 38.6527 17.2018 38.7482 17.6836C38.8209 18.0382 38.88 18.3974 38.9346 18.7565C39.0892 19.793 39.1665 20.8476 39.171 21.925V21.9795C39.171 22.0341 39.171 22.0886 39.171 22.1432C39.171 22.4114 39.1665 22.6796 39.1529 22.9433C39.1483 23.1433 39.1347 23.3479 39.121 23.5479C39.071 24.2525 38.9892 24.948 38.8755 25.6299C38.8573 25.7436 38.8391 25.8527 38.8164 25.9663C38.7982 26.0709 38.7755 26.1709 38.7527 26.2754C38.4981 27.5574 38.1344 28.7984 37.666 29.9895C37.1977 31.1805 36.6339 32.3215 35.9746 33.4035C35.9109 33.508 35.8473 33.6126 35.7791 33.7171C35.6245 33.9671 35.4608 34.2081 35.2971 34.449C35.2016 34.5808 35.1107 34.7172 35.0152 34.8445C34.9516 34.9354 34.8879 35.0263 34.8197 35.1127C34.7242 35.2355 34.6333 35.3582 34.5378 35.4809C34.5014 35.5309 34.4605 35.5809 34.4241 35.631C34.3696 35.7037 34.315 35.7719 34.2559 35.8401C34.2104 35.8946 34.1604 35.9537 34.1149 36.0083C34.0786 36.0537 34.0422 36.0992 34.0058 36.1401C33.9331 36.2265 33.8649 36.3083 33.7921 36.3901C33.7375 36.4583 33.6784 36.522 33.6193 36.5856C33.5784 36.6356 33.5329 36.6811 33.492 36.7311C33.4829 36.7447 33.4693 36.7583 33.4556 36.772C33.3693 36.8629 33.2874 36.9584 33.201 37.0493C33.1465 37.1038 33.0964 37.1629 33.0373 37.2175C32.9828 37.2766 32.9282 37.3311 32.8736 37.3902C32.7372 37.5266 32.6008 37.663 32.4599 37.7994C32.4099 37.8494 32.3598 37.8994 32.3098 37.9448C32.2098 38.0403 32.1052 38.1358 32.0006 38.2312C31.987 38.2449 31.9734 38.2585 31.9552 38.2721C31.8642 38.354 31.7733 38.4358 31.6869 38.5131C31.5641 38.6222 31.4368 38.7267 31.3095 38.8358C31.2186 38.9086 31.1276 38.9858 31.0413 39.0586C30.9549 39.1268 30.8685 39.195 30.7821 39.2631C30.6457 39.3677 30.5093 39.4723 30.3729 39.5768C30.2637 39.6586 30.1592 39.7359 30.05 39.8132C30.0455 39.8178 30.0409 39.8178 30.0364 39.8223C29.8454 39.9632 29.6454 40.0996 29.4453 40.236L29.1907 40.4042C29.0634 40.486 28.9361 40.5678 28.8087 40.6497C28.7633 40.6769 28.7178 40.7088 28.6723 40.736C28.5723 40.7997 28.4723 40.8588 28.3722 40.9179C28.3632 40.9224 28.3586 40.927 28.3495 40.9315C28.2859 40.9679 28.2267 41.0042 28.1631 41.0406C27.8903 41.1997 27.6175 41.3452 27.3356 41.4907C27.2492 41.5361 27.1628 41.5816 27.0718 41.627C27.0082 41.6589 26.9445 41.6952 26.8763 41.7225C26.7126 41.8043 26.549 41.8816 26.3853 41.9589C26.3398 41.9771 26.2989 41.9998 26.258 42.018C26.117 42.0816 25.9715 42.1453 25.8306 42.2044C25.7487 42.2407 25.6714 42.2725 25.5896 42.3044C25.4713 42.3544 25.3486 42.4044 25.2258 42.4544C25.1212 42.4953 25.0121 42.5362 24.903 42.5771C24.8075 42.6135 24.7075 42.6499 24.6074 42.6862C24.4847 42.7317 24.3619 42.7726 24.2391 42.8135C24.1346 42.8499 24.0254 42.8863 23.9209 42.9181C23.4525 43.0681 22.9751 43.2045 22.4932 43.3227L22.334 43.3636C22.2749 43.3772 22.2112 43.3908 22.1521 43.4045C22.0794 43.4181 22.0066 43.4363 21.9293 43.4545C21.8748 43.4681 21.8202 43.4818 21.7611 43.4909C21.7338 43.4954 21.7065 43.4999 21.6747 43.509C21.5838 43.5272 21.4928 43.5454 21.4019 43.5636C21.3701 43.5681 21.3382 43.5727 21.3064 43.5818C20.9381 43.6545 20.5653 43.7136 20.1924 43.7636C20.1151 43.7727 20.0333 43.7863 19.956 43.7954C19.9196 43.8 19.8787 43.8045 19.8423 43.8091C19.7696 43.8182 19.6923 43.8273 19.615 43.8363C20.1197 43.8909 20.6244 43.9318 21.1382 43.95C21.4337 43.9591 21.7293 43.9682 22.0248 43.9682C22.6932 43.9682 23.3525 43.9409 24.0073 43.8773C24.0846 43.8727 24.1619 43.8636 24.2346 43.8591C24.2846 43.8545 24.3346 43.85 24.3846 43.8454C24.4847 43.8363 24.5847 43.8227 24.6847 43.8091C24.7211 43.8045 24.762 43.8 24.7984 43.7954C24.8757 43.7863 24.9576 43.7773 25.0348 43.7636C25.4077 43.7136 25.7805 43.6545 26.1488 43.5818C26.1807 43.5772 26.2125 43.5727 26.2443 43.5636C26.3353 43.5454 26.4262 43.5272 26.5171 43.509C26.5444 43.5045 26.5717 43.4954 26.6035 43.4909C26.6626 43.4818 26.7172 43.4681 26.7718 43.4545C26.849 43.4409 26.9218 43.4227 26.9945 43.4045C27.0537 43.3908 27.1173 43.3772 27.1764 43.3636L27.3356 43.3227C27.8175 43.2045 28.2949 43.0681 28.7633 42.9181C28.8679 42.8863 28.977 42.8499 29.0816 42.8135C29.2043 42.7726 29.3271 42.7271 29.4499 42.6862C29.5499 42.6499 29.6499 42.6135 29.7454 42.5771C29.8545 42.5362 29.9591 42.4953 30.0682 42.4544C30.191 42.4044 30.3092 42.3589 30.432 42.3044C30.5138 42.2725 30.5957 42.2362 30.673 42.2044C30.8139 42.1453 30.9594 42.0816 31.1004 42.018C31.1413 41.9998 31.1868 41.9771 31.2277 41.9589C31.3914 41.8816 31.5551 41.8043 31.7187 41.7225C31.7869 41.6907 31.8506 41.6589 31.9143 41.627C32.0052 41.5816 32.0916 41.5361 32.178 41.4907C32.4599 41.3452 32.7327 41.1997 33.0055 41.0406C33.0692 41.0042 33.1283 40.9679 33.1919 40.9315C33.201 40.927 33.2056 40.9224 33.2147 40.9179C33.3147 40.8588 33.4147 40.7997 33.5147 40.736C33.5602 40.7088 33.6057 40.6769 33.6512 40.6497C33.7785 40.5678 33.9058 40.486 34.0331 40.4042L34.2877 40.236C34.4878 40.0996 34.6833 39.9632 34.8788 39.8223C34.8834 39.8223 34.8879 39.8178 34.8924 39.8132C35.0016 39.7359 35.1062 39.6541 35.2153 39.5768C35.3517 39.4723 35.4881 39.3677 35.6245 39.2631C35.7109 39.195 35.7973 39.1268 35.8837 39.0586C35.9746 38.9858 36.0655 38.9086 36.1519 38.8358C36.2792 38.7313 36.402 38.6222 36.5293 38.5131C36.6203 38.4312 36.7066 38.354 36.7976 38.2721C36.8112 38.263 36.8249 38.2449 36.8431 38.2312C36.9431 38.1358 37.0477 38.0403 37.1522 37.9448C37.2023 37.8994 37.2523 37.8494 37.3023 37.7994C37.4432 37.663 37.5796 37.5266 37.7161 37.3902C37.7706 37.3311 37.8252 37.2766 37.8797 37.2175C37.9343 37.1629 37.9889 37.1038 38.0434 37.0493C38.1298 36.9584 38.2162 36.8629 38.2981 36.772C38.3071 36.7583 38.3208 36.7447 38.3344 36.7311C38.3799 36.6856 38.4208 36.6356 38.4617 36.5856C38.5208 36.522 38.58 36.4538 38.6345 36.3901C38.7073 36.3038 38.78 36.2219 38.8482 36.1401C38.8846 36.0946 38.9255 36.0492 38.9573 36.0083C39.0028 35.9537 39.0528 35.8946 39.0983 35.8401C39.1574 35.7673 39.212 35.6991 39.2665 35.631C39.3075 35.5809 39.3438 35.5355 39.3802 35.4809C39.4757 35.3627 39.5712 35.2355 39.6621 35.1127C39.7303 35.0218 39.794 34.9309 39.8576 34.8445C39.9531 34.7127 40.0486 34.5808 40.1395 34.449C40.3078 34.2081 40.4669 33.9671 40.6215 33.7171C40.6897 33.6126 40.7534 33.508 40.817 33.4035C41.4763 32.3215 42.0401 31.185 42.5084 29.9895C42.9768 28.7984 43.3405 27.5574 43.5951 26.2754C43.6179 26.1709 43.6361 26.0709 43.6588 25.9663C43.677 25.8527 43.6997 25.7436 43.7179 25.6299C43.8316 24.948 43.9134 24.2525 43.9634 23.5479C43.9771 23.3479 43.9907 23.1478 43.9953 22.9433C44.0089 22.6796 44.0135 22.4114 44.0135 22.1432C44.0135 22.0886 44.0135 22.0341 44.0135 21.9795V21.925C43.9998 20.8658 43.918 19.8066 43.7679 18.7701Z" fill="black"/>
<path opacity="0.2" d="M27.9812 14.206C26.9036 14.5379 25.8987 15.2925 25.5304 16.3608C25.0621 17.7109 25.685 19.1702 26.267 20.4794C26.849 21.7841 27.4128 23.2888 26.8445 24.6025C26.4398 25.5435 25.5441 26.1572 24.8529 26.9119C24.1664 27.671 23.6707 28.8393 24.2391 29.6894C24.6165 30.2531 25.3303 30.4759 25.9987 30.6032C27.1173 30.8214 28.2858 30.8941 29.3816 30.5804C30.4774 30.2668 31.4868 29.5212 31.9188 28.4666C32.7508 26.4073 31.2276 23.8661 32.2916 21.9204C32.9463 20.7203 34.3922 20.1612 35.2061 19.0565C36.1701 17.7473 35.9746 15.7198 34.7787 14.6197C33.4192 13.365 31.3413 13.4468 29.4998 13.6014" fill="white"/>
</g>
<defs>
<linearGradient id="paint0_linear_187_61" x1="38.1767" y1="32.7628" x2="1.54322" y2="8.38461" gradientUnits="userSpaceOnUse">
<stop stop-color="#5851F8"/>
<stop offset="1" stop-color="#9268FC"/>
</linearGradient>
<clipPath id="clip0_187_61">
<rect width="44" height="44" fill="white"/>
</clipPath>
</defs>
</svg>
