<svg width="44" height="44" viewBox="0 0 44 44" fill="none" xmlns="http://www.w3.org/2000/svg">
<g clip-path="url(#clip0_187_7)">
<path d="M44 21.9477V22.0023C44 22.0568 44 22.1114 44 22.166C44 22.2296 44 22.2978 44 22.3615C44 22.5615 43.9955 22.7661 43.9818 22.9662C43.9773 23.1663 43.9637 23.3709 43.95 23.5709C43.9 24.2757 43.8182 24.9714 43.7045 25.6534C43.6863 25.7671 43.6681 25.8762 43.6454 25.9899C43.6272 26.0945 43.6045 26.1945 43.5817 26.2991C43.5408 26.5037 43.4999 26.7037 43.4499 26.9083C43.4408 26.9629 43.4271 27.0175 43.4135 27.072C43.2998 27.5676 43.1634 28.0496 43.0179 28.5316C42.8951 28.9362 42.7542 29.3318 42.6087 29.7274C42.5769 29.8229 42.5359 29.9184 42.4996 30.0139C42.3677 30.3503 42.2268 30.6822 42.0813 31.0051C42.054 31.0687 42.0267 31.1369 41.9949 31.2006C41.9494 31.3006 41.8994 31.4052 41.8494 31.5052V31.5098V31.5143C41.7812 31.6598 41.7084 31.8053 41.6357 31.9463C41.5356 32.1418 41.4356 32.3373 41.3265 32.5283C41.2492 32.6692 41.1719 32.8147 41.09 32.9511C41.0355 33.0466 40.9809 33.1421 40.9264 33.233C40.89 33.2967 40.8536 33.3558 40.8172 33.4195C40.7763 33.4831 40.7399 33.5468 40.699 33.6104C40.6763 33.6513 40.649 33.6923 40.6217 33.7332C40.6217 33.7377 40.6172 33.7423 40.6126 33.7468C40.5717 33.815 40.5262 33.8787 40.4853 33.9423C40.3762 34.1197 40.258 34.2925 40.1397 34.4607C40.0443 34.5925 39.9533 34.729 39.8578 34.8563C39.7942 34.9472 39.7305 35.0381 39.6623 35.1245C39.5668 35.2473 39.4759 35.3701 39.3804 35.4928C39.344 35.5428 39.3031 35.5929 39.2667 35.6429C39.2122 35.7156 39.1576 35.7838 39.0985 35.852C39.053 35.9066 39.003 35.9657 38.9576 36.0203C38.9212 36.0657 38.8848 36.1112 38.8484 36.1521C38.7757 36.2385 38.7075 36.3204 38.6347 36.4022C38.5802 36.4704 38.5211 36.5341 38.462 36.5977C38.421 36.6477 38.3756 36.6932 38.3346 36.7432C38.3255 36.7569 38.3119 36.7705 38.2983 36.7841C38.2119 36.8751 38.13 36.9706 38.0436 37.0615C37.9891 37.1161 37.9391 37.1752 37.88 37.2297C37.8709 37.2388 37.8618 37.2479 37.8527 37.257C37.8072 37.3025 37.7617 37.3525 37.7163 37.398C37.6981 37.4161 37.6799 37.4343 37.6617 37.4525C37.5435 37.5707 37.4253 37.689 37.3025 37.8072C37.2525 37.8572 37.2025 37.9027 37.1525 37.9527C37.0524 38.0482 36.9478 38.1482 36.8433 38.2391C36.8296 38.2528 36.816 38.2664 36.7978 38.2801C36.7751 38.3028 36.7478 38.3255 36.725 38.3437C36.6568 38.4074 36.5932 38.4619 36.5295 38.521C36.4068 38.6302 36.2795 38.7347 36.1521 38.8439C36.0612 38.9166 35.9703 38.9939 35.8839 39.0667L35.6247 39.2713C35.5974 39.2895 35.5747 39.3122 35.5474 39.3304C35.4383 39.4168 35.3292 39.5032 35.2155 39.585C35.1064 39.6668 35.0018 39.7441 34.8927 39.8214C34.8881 39.826 34.8836 39.826 34.879 39.8305C34.6881 39.9715 34.488 40.1079 34.2879 40.2443L34.0333 40.4125C34.0151 40.4262 33.9924 40.4398 33.9742 40.4489C33.8696 40.5217 33.7605 40.5899 33.6514 40.6535C33.6059 40.6808 33.5604 40.7126 33.515 40.7399C33.4149 40.8036 33.3149 40.8627 33.2149 40.9218C33.2058 40.9263 33.2012 40.9309 33.1921 40.9354C33.1285 40.9718 33.0694 41.0082 33.0057 41.0445C32.7329 41.2037 32.4601 41.3492 32.1782 41.4947C32.0918 41.5402 32.0054 41.5856 31.9145 41.6311C31.8508 41.6629 31.7872 41.6993 31.719 41.7266C31.5553 41.8084 31.3916 41.8857 31.2279 41.963C31.1824 41.9812 31.1415 42.0039 31.1006 42.0221C30.9596 42.0858 30.8141 42.1494 30.6732 42.2085C30.6277 42.2267 30.5822 42.2495 30.5368 42.2677C30.5049 42.2813 30.4686 42.2995 30.4322 42.3131C30.314 42.3631 30.1912 42.4132 30.0684 42.4632C29.9639 42.5041 29.8547 42.545 29.7456 42.5859C29.6501 42.6223 29.5501 42.6587 29.4501 42.6951C29.3273 42.7405 29.2045 42.7814 29.0818 42.8224C29.0727 42.8224 29.0681 42.8269 29.059 42.8315C28.9636 42.8633 28.8635 42.8951 28.7635 42.927C28.5725 42.9906 28.377 43.0497 28.1769 43.1088C27.8996 43.1907 27.6177 43.2634 27.3358 43.3362L27.1766 43.3771C27.1175 43.3907 27.0539 43.4044 26.9948 43.418C26.922 43.4316 26.8493 43.4498 26.772 43.468C26.7174 43.4817 26.6628 43.4953 26.6037 43.5044C26.5764 43.5089 26.5492 43.5135 26.5173 43.5226C26.4264 43.5408 26.3355 43.559 26.2445 43.5771C26.2127 43.5817 26.1809 43.5862 26.149 43.5953C26.1309 43.5999 26.1127 43.5999 26.0945 43.6044C25.7444 43.6726 25.3897 43.7272 25.0351 43.7772C24.9578 43.7863 24.8759 43.7999 24.7986 43.809C24.7623 43.8136 24.7213 43.8181 24.685 43.8227C24.5849 43.8363 24.4849 43.8454 24.3849 43.8591C24.3348 43.8636 24.2848 43.8681 24.2348 43.8727C24.1575 43.8772 24.0848 43.8863 24.0075 43.8909C23.5119 43.9364 23.0117 43.9636 22.507 43.9773C22.3661 43.9773 22.2206 43.9818 22.0796 43.9818H22.025C21.7295 43.9818 21.4339 43.9773 21.1384 43.9636C20.3018 43.9318 19.4788 43.85 18.6695 43.7272C18.6376 43.7226 18.6058 43.7181 18.574 43.7136C18.3012 43.6726 18.0374 43.6226 17.7692 43.5726C17.6737 43.5544 17.5828 43.5362 17.4918 43.5135C17.1826 43.4498 16.878 43.3816 16.5779 43.3043C16.1005 43.1861 15.6321 43.0452 15.1729 42.8951C14.9638 42.8269 14.7546 42.7587 14.5454 42.6814C14.1635 42.545 13.7861 42.395 13.4133 42.2358C13.2587 42.1676 13.1041 42.104 12.954 42.0358C12.2356 41.7084 11.5354 41.3492 10.8625 40.9491C10.8307 40.9309 10.7988 40.9127 10.7716 40.8945C10.4487 40.7035 10.1304 40.5035 9.82126 40.2989C9.68485 40.2079 9.54844 40.1124 9.41659 40.0215C9.27563 39.926 9.13923 39.826 9.00282 39.726C8.90734 39.6578 8.81185 39.585 8.71637 39.5168C8.56632 39.4031 8.42082 39.2895 8.27078 39.1712C7.99342 38.9484 7.72515 38.7211 7.46143 38.4892C7.4387 38.471 7.41597 38.4483 7.39323 38.4301C6.67937 37.7981 6.00644 37.1161 5.38352 36.3931C5.11525 36.0885 4.85608 35.7702 4.61055 35.4474C4.55144 35.3746 4.49688 35.3019 4.44232 35.2246C4.43322 35.2109 4.41958 35.1927 4.41049 35.1791C4.2559 35.0109 4.12858 34.8381 4.00582 34.6608C3.9649 34.6062 3.92852 34.5562 3.89215 34.5016C3.89215 34.4971 3.8876 34.4925 3.88305 34.488C3.69663 34.2197 3.5193 33.9514 3.34652 33.6741C3.18284 33.4104 3.0237 33.1466 2.87365 32.8738C2.52354 32.26 2.20071 31.628 1.91426 30.9823C1.84151 30.8186 1.76876 30.6504 1.70056 30.4822C1.58234 30.2094 1.47322 29.932 1.37318 29.6501C1.29134 29.4364 1.21404 29.2182 1.14129 28.9999C0.982154 28.527 0.841201 28.0496 0.713889 27.5631C0.663873 27.3721 0.618405 27.1766 0.572936 26.9856C0.486546 26.6264 0.413796 26.2627 0.35014 25.8944C0.286484 25.5534 0.236468 25.2124 0.191 24.8623C0.159172 24.6031 0.127343 24.3485 0.104609 24.0847C0.104609 24.0529 0.100062 24.0211 0.0955154 23.9893C0.0909686 23.9347 0.0864217 23.8801 0.0818748 23.8256C0.0818748 23.7892 0.077328 23.7528 0.0727811 23.721C0.0727811 23.6846 0.0682342 23.6482 0.0682342 23.6164C0.0545937 23.4254 0.0409531 23.2345 0.0318593 23.039C0.0318593 22.9889 0.0273125 22.9344 0.0273125 22.8844C0.0227656 22.7116 0.0182187 22.5434 0.0136719 22.3706C0.0136719 22.3569 0.0136719 22.3387 0.0136719 22.3206C0.0136719 22.216 0.0136719 22.1069 0.0136719 22.0023C0.0136719 21.784 0.0136719 21.5658 0.0227656 21.343C0.0227656 21.2611 0.0273125 21.1793 0.0318593 21.102C0.0500468 20.5791 0.0909686 20.0608 0.145531 19.5561C0.154625 19.4515 0.168265 19.3424 0.186453 19.2378C0.218281 18.9604 0.259203 18.6876 0.300124 18.4193C0.386515 17.8919 0.491093 17.3736 0.613858 16.8643C0.627499 16.8007 0.645686 16.7325 0.663873 16.6688C0.691155 16.5506 0.722983 16.4324 0.754811 16.3187C0.818467 16.0732 0.88667 15.8322 0.959419 15.5912C0.959419 15.5867 0.959419 15.5821 0.963966 15.5776C1.00943 15.4275 1.05945 15.2775 1.10492 15.1274C1.15948 14.9546 1.21859 14.7864 1.28225 14.6182C1.8506 13.0313 2.59174 11.5309 3.48748 10.135C3.54204 10.0486 3.5966 9.96218 3.65571 9.87579C3.72391 9.77576 3.78757 9.67118 3.86032 9.57115C4.11494 9.19831 4.37866 8.83456 4.65602 8.4799C4.67875 8.44808 4.70149 8.42079 4.72422 8.38897C5.45172 7.4705 6.24742 6.61114 7.11133 5.81544C7.38869 5.56082 7.67059 5.31529 7.96159 5.0743C8.05253 4.99701 8.14801 4.91971 8.24349 4.84696C8.24804 4.84241 8.25259 4.83787 8.26168 4.83332C8.43901 4.68782 8.62088 4.55141 8.80276 4.41501C8.83459 4.39227 8.86642 4.36499 8.89824 4.34226C8.92098 4.32407 8.94371 4.31043 8.96645 4.29224C9.05738 4.22404 9.14832 4.16038 9.23926 4.09218C9.31201 4.04216 9.38021 3.99215 9.45296 3.94213C9.5348 3.88757 9.6121 3.83301 9.69394 3.7739C9.77124 3.72388 9.84854 3.66932 9.92583 3.61931C9.95312 3.60112 9.97585 3.58293 10.0031 3.56929C10.1032 3.50109 10.2077 3.43743 10.3078 3.37377C10.3851 3.32831 10.4578 3.27829 10.5306 3.23282C10.5442 3.22373 10.5624 3.21463 10.5806 3.20554C10.6261 3.17826 10.6715 3.15098 10.717 3.11915C10.8261 3.05095 10.9398 2.98729 11.0535 2.92364C11.0807 2.90545 11.1126 2.89181 11.1398 2.87362C11.1944 2.84179 11.249 2.80996 11.3035 2.78268C11.3717 2.74631 11.4354 2.70993 11.5036 2.67356L11.59 2.62809C11.6491 2.59626 11.7037 2.56443 11.7628 2.53715C11.8173 2.50532 11.8719 2.47804 11.9355 2.44621C11.9446 2.44167 11.9492 2.43712 11.9583 2.43257C12.0038 2.40984 12.0492 2.38256 12.0947 2.36437C12.2356 2.29162 12.3811 2.22342 12.5221 2.15522C12.6312 2.10065 12.7403 2.05064 12.854 2.00062C13.0132 1.92787 13.1723 1.85512 13.336 1.78692C13.3769 1.76873 13.4178 1.75054 13.4587 1.73236C13.4815 1.72326 13.4997 1.71417 13.5224 1.70508C13.6133 1.6687 13.7088 1.62778 13.7998 1.59595C13.8089 1.5914 13.8134 1.58686 13.8225 1.58686C13.8952 1.55958 13.9634 1.52775 14.0407 1.50047C14.0453 1.50047 14.0498 1.49592 14.0544 1.49592C14.118 1.47319 14.1772 1.4459 14.2408 1.42317C14.3045 1.40044 14.3681 1.37315 14.4318 1.35042C14.8501 1.19583 15.2729 1.05487 15.7004 0.927562C15.9413 0.854812 16.1823 0.786609 16.4279 0.722953C16.5142 0.700219 16.5961 0.682031 16.6779 0.659297C16.7461 0.641109 16.8098 0.627469 16.878 0.609281C16.8916 0.604735 16.9053 0.600188 16.9189 0.600188C16.9553 0.591094 16.9917 0.586547 17.028 0.577453C17.0599 0.572906 17.0917 0.563813 17.1235 0.554719C17.1235 0.554719 17.1281 0.554719 17.1326 0.554719C17.2099 0.536532 17.2872 0.518344 17.3691 0.504704C17.3827 0.500157 17.3963 0.500157 17.4145 0.49561C17.4964 0.477422 17.5782 0.459235 17.6601 0.445594C17.7373 0.431954 17.8146 0.413766 17.8919 0.400126C17.9238 0.395579 17.9556 0.391032 17.9874 0.381938C18.0556 0.372844 18.1238 0.359204 18.192 0.345563C18.283 0.331923 18.3739 0.313735 18.4603 0.300095C18.7286 0.254626 18.9968 0.218251 19.2696 0.186423C19.3378 0.177329 19.406 0.168236 19.4743 0.163689C19.6743 0.140954 19.8789 0.11822 20.0835 0.100033C20.1654 0.0954857 20.2427 0.086392 20.32 0.0818451C20.3563 0.0818451 20.3973 0.0772982 20.4336 0.0772982C20.4609 0.0772982 20.4882 0.0727514 20.5155 0.0727514C20.6064 0.0682045 20.6974 0.0591108 20.7883 0.0545639H20.7974C20.8883 0.050017 20.9793 0.0454702 21.0657 0.0409233L21.193 0.0363764H21.2475C21.3612 0.0318296 21.4794 0.0272827 21.5976 0.0272827H21.6067C21.6704 0.0272827 21.7295 0.0272827 21.7931 0.0272827C21.8659 0.0272827 21.9432 0.0272827 22.0159 0.0272827C22.4252 0.0272827 22.8344 0.0363764 23.2436 0.0591108C23.6528 0.0818451 24.0666 0.113673 24.4713 0.159142C24.7623 0.19097 25.0533 0.231892 25.3443 0.272813C25.4716 0.291001 25.6034 0.313735 25.7307 0.336469C25.7307 0.336469 25.7307 0.336469 25.7353 0.336469C25.8308 0.35011 25.9262 0.368298 26.0217 0.386485C26.1763 0.413766 26.3264 0.445594 26.4764 0.477422C26.6356 0.50925 26.7992 0.545625 26.9584 0.582C27.4585 0.695672 27.9541 0.827531 28.4407 0.977577C28.5361 1.00486 28.6362 1.03669 28.7317 1.07306C29.15 1.20492 29.5592 1.35497 29.9639 1.50956C30.3003 1.63687 30.6368 1.77783 30.9642 1.92333C31.0551 1.96425 31.146 2.00517 31.237 2.04609C31.3461 2.09611 31.4552 2.14612 31.5598 2.20068C31.6326 2.23251 31.7053 2.26889 31.7781 2.30526C32.2009 2.50078 32.6329 2.72812 33.0557 2.9782C33.1785 3.05095 33.3013 3.1237 33.424 3.19645C33.4422 3.20554 33.4604 3.21918 33.4831 3.23282C33.7787 3.41015 34.0651 3.60112 34.3516 3.79209C34.5562 3.93304 34.7654 4.07854 34.9654 4.22859C35.2428 4.42865 35.5156 4.6378 35.7793 4.85151C35.7929 4.8606 35.8066 4.86969 35.8202 4.88333C35.8293 4.89243 35.843 4.90152 35.8521 4.91061C35.9384 4.97882 36.0248 5.04702 36.1067 5.11977C36.2522 5.24254 36.3977 5.3653 36.5386 5.49261C36.6023 5.54718 36.6614 5.60174 36.725 5.66085C37.0661 5.96549 37.398 6.28831 37.7254 6.62024C37.9118 6.80666 38.0891 6.99763 38.2619 7.19314C38.3255 7.26134 38.3892 7.32955 38.4529 7.4023C38.4892 7.44322 38.5302 7.48414 38.562 7.52506C38.6302 7.60691 38.6984 7.6842 38.7666 7.76605C38.8075 7.81606 38.8484 7.86153 38.8894 7.91155C38.9985 8.0434 39.1076 8.17526 39.2122 8.31167C39.2895 8.40261 39.3577 8.49354 39.4304 8.58903C39.5259 8.71634 39.6214 8.84365 39.7214 8.97096C39.9488 9.28015 40.1716 9.59843 40.3853 9.92126C40.458 10.0258 40.5217 10.1304 40.5899 10.2395C40.649 10.335 40.7081 10.4305 40.7672 10.526C40.8582 10.6669 40.9445 10.8124 41.0264 10.9579C41.2765 11.3854 41.5129 11.8264 41.7311 12.2765C41.9221 12.6539 42.0949 13.0404 42.2631 13.4314C42.4132 13.7815 42.5496 14.1317 42.6814 14.4909C42.8497 14.9546 43.0043 15.423 43.1407 15.9004C43.1589 15.9686 43.1816 16.0322 43.1998 16.1004C43.218 16.155 43.2316 16.2141 43.2498 16.2732C43.3771 16.7506 43.4908 17.2326 43.5863 17.7146C43.6408 17.9828 43.6863 18.2511 43.7272 18.5239C43.7409 18.6103 43.7545 18.7013 43.7681 18.7876C43.7954 18.9786 43.8227 19.1696 43.8454 19.356C43.8545 19.4469 43.8682 19.5333 43.8773 19.6243C43.8864 19.697 43.8955 19.7698 43.9 19.8425C43.9 19.8743 43.9045 19.9016 43.9091 19.9335C43.9182 20.0517 43.9273 20.1699 43.9364 20.2881C43.9364 20.3108 43.9364 20.3381 43.9409 20.3609C43.95 20.4791 43.9591 20.6018 43.9637 20.7201C43.9637 20.7382 43.9637 20.7564 43.9637 20.7746C43.9682 20.8701 43.9728 20.9656 43.9773 21.0656C43.9818 21.1566 43.9818 21.252 43.9864 21.343C43.9955 21.5339 44 21.7431 44 21.9477Z" fill="url(#paint0_linear_187_7)"/>
<path opacity="0.3" d="M43.7226 18.5148C43.6044 18.5603 43.4816 18.6058 43.3634 18.6421C39.444 19.9516 35.1563 19.7379 31.1915 20.9065C30.2184 21.1929 29.2227 21.6158 28.3951 22.2114C27.5267 22.8344 26.8447 23.6437 26.5718 24.6758C26.0671 26.6173 27.1948 28.718 26.6537 30.6459C26.3672 31.6553 25.6534 32.4964 25.3396 33.4967C25.2805 33.6832 25.2396 33.8696 25.2078 34.0515C24.9168 35.802 25.8671 37.3025 27.172 38.7666C28.2087 39.9306 29.4773 41.0764 30.5094 42.2949C30.4776 42.3086 30.4412 42.3268 30.4049 42.3404C30.2866 42.3904 30.1639 42.4404 30.0411 42.4904C29.9365 42.5314 29.8274 42.5723 29.7183 42.6132C29.6228 42.6496 29.5228 42.686 29.4227 42.7223C29.3 42.7678 29.1772 42.8087 29.0544 42.8496C29.0453 42.8496 29.0408 42.8542 29.0317 42.8587C28.9362 42.8906 28.8362 42.9224 28.7362 42.9542C28.5452 43.0179 28.3497 43.077 28.1496 43.1361C27.8723 43.2179 27.5903 43.2907 27.3084 43.3634L27.1493 43.4044C27.0902 43.418 27.0265 43.4316 26.9674 43.4453C26.8947 43.4589 26.8219 43.4771 26.7446 43.4953C26.6901 43.5089 26.6355 43.5226 26.5764 43.5317C26.5491 43.5362 26.5218 43.5408 26.49 43.5499C26.3991 43.568 26.3081 43.5862 26.2172 43.6044C26.1854 43.609 26.1535 43.6135 26.1217 43.6226C26.1035 43.6272 26.0853 43.6272 26.0671 43.6317C25.717 43.6999 25.3624 43.7545 25.0077 43.8045C24.9304 43.8136 24.8486 43.8272 24.7713 43.8363C24.7349 43.8409 24.694 43.8454 24.6576 43.85C24.5576 43.8636 24.4576 43.8727 24.3575 43.8863C24.3075 43.8909 24.2575 43.8954 24.2075 43.9C24.1302 43.9045 24.0574 43.9136 23.9801 43.9182C23.4845 43.9636 22.9844 43.9909 22.4797 44.0045C22.0886 42.0585 21.6112 40.1534 20.1926 38.8802C19.8743 38.5938 19.5106 38.3437 19.1377 38.1027C18.142 37.4525 17.0962 36.8523 16.737 35.7565C16.5324 35.12 16.6051 34.4516 16.7824 33.7741C17.228 32.1009 18.3147 30.3867 17.3417 29.0408C13.8452 29.6865 10.0849 28.1133 7.9297 25.3169C7.47502 24.7304 7.09308 24.0938 6.79753 23.4073C6.09732 24.9123 5.68355 26.5355 5.19249 28.1269C4.88331 29.1318 4.54229 30.1184 4.07851 31.0505C3.9512 31.3052 3.81479 31.5552 3.66929 31.8008C3.44195 32.1827 3.17368 32.5464 2.8645 32.8829C2.51439 32.2691 2.19156 31.6371 1.90511 30.9914C1.83236 30.8277 1.75961 30.6595 1.69141 30.4913C1.57319 30.2185 1.46406 29.9411 1.36403 29.6592C1.28219 29.4455 1.20489 29.2272 1.13214 29.009C0.973002 28.5361 0.832049 28.0587 0.704737 27.5722C0.654721 27.3812 0.609253 27.1857 0.563784 26.9947C0.477394 26.6355 0.404644 26.2718 0.340988 25.9035C0.277332 25.5625 0.227316 25.2215 0.181847 24.8713C0.150019 24.6122 0.118191 24.3576 0.0954569 24.0938C0.0954569 24.062 0.0909101 24.0302 0.0863632 23.9983C0.0818164 23.9438 0.0772695 23.8892 0.0727226 23.8347C0.0727226 23.7983 0.0681758 23.7619 0.0636289 23.7301C0.0636289 23.6937 0.059082 23.6573 0.059082 23.6255C1.45952 22.7298 2.90087 21.875 4.10579 20.8246C4.94696 20.088 5.67446 19.2605 6.19735 18.2511C6.45652 17.7555 6.65204 17.2235 6.86119 16.7052C7.11127 16.0777 7.37499 15.4593 7.76602 14.9137C10.144 11.6081 14.6454 12.7221 17.7555 10.8716C20.4245 9.2847 20.6291 7.12948 20.8019 4.76966C20.9155 3.22827 21.0201 1.61414 21.7795 0.00454712C21.8522 0.00454712 21.9295 0.00454712 22.0022 0.00454712C22.4115 0.00454712 22.8207 0.0136408 23.2299 0.0363752C23.6391 0.0591095 24.0529 0.0909375 24.4576 0.136406C24.7486 0.168234 25.0396 0.209156 25.3306 0.250078C25.4579 0.268265 25.5897 0.291 25.717 0.313734C25.717 0.313734 25.717 0.313734 25.7216 0.313734C25.8171 0.327374 25.9126 0.345562 26.008 0.363749C26.1626 0.391031 26.3127 0.422859 26.4627 0.454687C26.6219 0.486515 26.7855 0.52289 26.9447 0.559265C27.4448 0.672936 27.9405 0.804795 28.427 0.954842C28.5225 0.982123 28.6225 1.01395 28.718 1.05033C29.1363 1.18218 29.5455 1.33223 29.9502 1.48682C30.2866 1.61414 30.6231 1.75509 30.9505 1.90059C31.0414 1.94151 31.1324 1.98243 31.2233 2.02335C31.3324 2.07337 31.4415 2.12339 31.5461 2.17795C30.8277 2.61445 30.032 2.98274 29.2545 3.26465C27.172 4.02397 25.9353 5.82453 24.8668 7.85243C23.8665 9.74848 23.0162 11.8446 21.7658 13.4678C21.0747 14.3681 20.2517 15.1229 19.2196 15.6185C16.2277 17.0553 11.5808 16.3414 10.5032 19.4833C9.67115 21.8931 12.3674 24.3485 14.9182 24.2666C16.014 24.2348 17.0416 23.8983 18.0056 23.3936C19.2878 22.7207 20.4609 21.7522 21.5476 20.7837C21.9977 20.3836 22.4524 19.9698 22.9162 19.5697C24.4121 18.2784 26.0171 17.1098 27.9268 16.737C29.0817 16.5097 30.3594 16.5506 31.5779 16.496C33.133 16.4187 34.5789 16.1823 35.5155 15.0092C35.5337 14.9865 35.5519 14.9637 35.5701 14.9364C36.384 13.8588 36.4204 12.3948 36.7295 11.0762C37.0342 9.76666 37.6844 8.53446 38.5665 7.52051C38.6347 7.60236 38.7029 7.67965 38.7711 7.7615C38.9211 7.94337 39.0712 8.12525 39.2167 8.30712C39.294 8.39806 39.3622 8.48899 39.4349 8.58448C39.5304 8.71179 39.6259 8.8391 39.7259 8.96642C39.9533 9.2756 40.1761 9.59388 40.3898 9.91671C40.4625 10.0213 40.5262 10.1259 40.5944 10.235C40.6535 10.3305 40.7126 10.426 40.7717 10.5214C40.8626 10.6624 40.949 10.8079 41.0309 10.9534C41.281 11.3808 41.5174 11.8218 41.7356 12.272C41.9266 12.6494 42.0994 13.0359 42.2676 13.4269C42.4177 13.777 42.5541 14.1271 42.6859 14.4863C42.8542 14.9501 43.0088 15.4184 43.1452 15.8958C43.1634 15.964 43.1861 16.0277 43.2043 16.0959C43.2225 16.1505 43.2361 16.2096 43.2543 16.2687C43.3816 16.7461 43.4953 17.2281 43.5908 17.71C43.6362 17.9738 43.6862 18.242 43.7226 18.5148Z" fill="white"/>
<path opacity="0.8" d="M9.90322 7.94792C9.87594 8.46171 9.95324 8.99824 9.77591 9.48021C9.5804 10.0213 9.10297 10.4032 8.6301 10.7306C7.56613 11.4581 6.35667 12.0628 5.62917 13.1313C4.90167 14.1953 4.94259 15.9368 6.09295 16.5142C6.93867 16.9371 7.95262 16.5642 8.80288 16.1414C11.772 14.6727 14.7138 12.5994 18.0239 12.7949C19.5017 12.8813 20.9248 13.4314 22.4026 13.536C23.8803 13.6406 25.5808 13.1359 26.1901 11.7855C26.6721 10.7215 26.3083 9.4211 25.5581 8.52082C24.8078 7.62509 23.7393 7.06128 22.6663 6.60205C22.0024 6.31559 21.2658 6.00186 20.9748 5.34257C20.8521 5.06521 20.8248 4.75147 20.7111 4.47411C20.2746 3.42834 18.8742 3.26465 17.742 3.35559C14.9411 3.58293 10.0851 4.33316 9.90322 7.94792Z" fill="url(#paint1_linear_187_7)"/>
<path opacity="0.8" d="M22.0522 44H21.9976C21.7021 44 21.4065 43.9955 21.111 43.9818C20.2744 43.95 19.4514 43.8681 18.642 43.7454C18.6102 43.7408 18.5784 43.7363 18.5466 43.7317C18.2738 43.6908 18.01 43.6408 17.7418 43.5908C17.6463 43.5726 17.5553 43.5544 17.4644 43.5317C17.1552 43.468 16.8506 43.3998 16.5505 43.3225C16.0731 43.2043 15.6047 43.0633 15.1455 42.9133C14.9409 41.9084 14.8772 40.8627 14.8682 39.8351C14.8636 39.2122 14.8727 38.5801 14.6817 37.9845C14.3998 37.1161 13.7269 36.4386 13.1312 35.7474C12.5083 35.029 11.9309 34.2333 11.6944 33.3103C11.5171 32.6238 11.6081 30.5731 12.5129 30.2321C13.8451 29.7365 14.0725 31.8826 14.5681 32.5783C15.0637 33.2785 15.9412 33.4967 16.7869 33.7696C17.3735 33.9605 17.9509 34.1742 18.3692 34.6062C19.1649 35.4246 19.1331 36.7023 19.1377 37.839C19.1377 37.9254 19.1377 38.0118 19.1422 38.0982C19.1558 39.0848 19.265 40.0942 19.7106 40.9718C20.2335 42.0039 21.161 42.7633 21.843 43.6954C21.9203 43.7954 21.9885 43.8954 22.0522 44Z" fill="url(#paint2_linear_187_7)"/>
<path opacity="0.8" d="M36.4933 8.57084C36.3432 9.13011 36.5933 9.71665 36.5615 10.2896C36.5115 11.1034 35.9158 11.7718 35.7021 12.5584C35.5248 13.2177 35.6294 13.9134 35.5976 14.5954C35.593 14.7046 35.5839 14.8182 35.5657 14.9319C35.4793 15.5094 35.2383 16.0823 34.7382 16.3505C34.5654 16.446 34.3654 16.496 34.2108 16.6142C33.3378 17.2599 34.329 19.0332 33.4014 19.597C32.8922 19.9016 32.2056 19.4833 31.9692 18.9331C31.7327 18.3875 31.7873 17.7646 31.7282 17.1735C31.7054 16.9462 31.6554 16.7097 31.5781 16.4915C31.4463 16.1414 31.2235 15.8367 30.887 15.7003C30.1277 15.3911 29.0182 15.9686 28.5681 15.2866C28.3726 14.9865 28.4499 14.5636 28.6772 14.2862C28.9046 14.0089 29.2547 13.8588 29.6002 13.7679C30.3778 13.5678 31.228 13.6451 31.9555 13.9816C32.342 14.1635 32.7376 14.4181 33.1559 14.3408C33.4651 14.2817 33.7106 14.0498 33.9152 13.8088C34.6018 12.9995 35.0246 11.9719 35.111 10.9125C35.2293 9.45748 34.7064 7.86153 35.3975 6.49292C35.6567 5.97913 36.0704 5.6563 36.5478 5.49261C36.6115 5.54718 36.6706 5.60174 36.7343 5.66085C37.0753 5.96549 37.4072 6.28832 37.7346 6.62024C37.921 6.80666 38.0983 6.99763 38.2711 7.19314C38.3348 7.26134 38.3984 7.32955 38.4621 7.4023C37.6482 7.52052 36.7752 7.52052 36.4933 8.57084Z" fill="url(#paint3_linear_187_7)"/>
<path opacity="0.8" d="M40.5988 33.7605C40.5579 33.8287 40.5124 33.8923 40.4715 33.956C40.3624 34.1333 40.2442 34.3061 40.126 34.4743C40.0305 34.6062 39.9395 34.7426 39.8441 34.8699C39.7804 34.9608 39.7167 35.0518 39.6485 35.1382C39.5531 35.2609 39.4621 35.3837 39.3666 35.5065C39.3303 35.5565 39.2893 35.6065 39.253 35.6565C39.1984 35.7293 39.1438 35.7975 39.0847 35.8657C39.0393 35.9202 38.9892 35.9793 38.9438 36.0339C38.9074 36.0794 38.871 36.1248 38.8347 36.1658C38.7619 36.2521 38.6937 36.334 38.621 36.4158C38.5664 36.484 38.5073 36.5477 38.4482 36.6113C38.4072 36.6614 38.3618 36.7068 38.3209 36.7568C38.3118 36.7705 38.2981 36.7841 38.2845 36.7978C38.1981 36.8887 38.1162 36.9842 38.0299 37.0751C37.9753 37.1297 37.9253 37.1888 37.8662 37.2434C37.8571 37.2525 37.848 37.2616 37.8389 37.2706C37.7934 37.3161 37.748 37.3661 37.7025 37.4116C37.6843 37.4298 37.6661 37.448 37.6479 37.4662C37.5297 37.5844 37.4115 37.7026 37.2887 37.8208C37.2387 37.8708 37.1887 37.9163 37.1387 37.9663C37.0386 38.0618 36.9341 38.1618 36.8295 38.2528C36.8158 38.2664 36.8022 38.28 36.784 38.2937C36.7613 38.3164 36.734 38.3392 36.7113 38.3573C36.6431 38.421 36.5794 38.4756 36.5158 38.5347C36.393 38.6438 36.2657 38.7484 36.1384 38.8575C36.0474 38.9302 35.9565 39.0075 35.8701 39.0803L35.6109 39.2849C35.5836 39.3031 35.5609 39.3258 35.5336 39.344C35.4245 39.4304 35.3154 39.5168 35.2017 39.5986C35.0926 39.6805 34.988 39.7578 34.8789 39.8351C34.8743 39.8396 34.8698 39.8396 34.8652 39.8442C34.6743 39.9851 34.4742 40.1215 34.2741 40.2579L34.0195 40.4262C34.0013 40.4398 33.9786 40.4534 33.9604 40.4625C33.8558 40.5353 33.7467 40.6035 33.6376 40.6672C33.5921 40.6944 33.5466 40.7263 33.5012 40.7535C33.4011 40.8172 33.3011 40.8763 33.2011 40.9354C33.192 40.94 33.1874 40.9445 33.1784 40.9491C33.1147 40.9854 33.0556 41.0218 32.9919 41.0582C32.7191 41.2173 32.4463 41.3628 32.1644 41.5083C32.078 41.5538 31.9916 41.5993 31.9007 41.6447C31.837 41.6766 31.7734 41.7129 31.7052 41.7402C31.5415 41.8221 31.3778 41.8994 31.2141 41.9766C31.1686 41.9948 31.1277 42.0176 31.0868 42.0358C30.9458 42.0994 30.8003 42.1631 30.6594 42.2222C30.6139 42.2404 30.5685 42.2631 30.523 42.2813C30.4912 42.2949 30.4548 42.3131 30.4184 42.3268C30.3002 42.3768 30.1774 42.4268 30.0547 42.4768C29.9501 42.5177 29.841 42.5586 29.7318 42.5996C29.6363 42.6359 29.5363 42.6723 29.4363 42.7087C29.3135 42.7542 29.1908 42.7951 29.068 42.836C29.0589 42.836 29.0543 42.8406 29.0453 42.8451C28.9498 42.8769 28.8497 42.9088 28.7497 42.9406C28.5587 43.0042 28.3632 43.0633 28.1632 43.1225C27.3356 42.936 26.5263 42.6723 25.7488 42.3268C24.7894 41.9039 23.7482 41.0809 23.9482 40.0533C24.1301 39.1212 25.2441 38.6984 26.1944 38.6984C26.5263 38.6984 26.8582 38.7302 27.1901 38.7575C27.8176 38.8075 28.4405 38.8484 29.0316 38.6574C30.232 38.2664 30.9868 36.8341 30.6276 35.6247C30.5184 35.2564 30.3093 34.9063 29.9819 34.7108C29.4545 34.3925 28.7861 34.5562 28.1723 34.6289C27.1583 34.7517 26.0852 34.5971 25.2259 34.0469C25.1986 34.0287 25.1668 34.0105 25.1349 33.9878C24.262 33.3922 23.6709 32.3418 23.78 31.2915C23.9118 30.0275 24.9349 29.0726 25.5487 27.9632C26.1625 26.8538 26.1216 25.076 24.8985 24.7213C24.4984 24.6076 24.0619 24.6895 23.6618 24.8122C22.7115 25.1078 21.843 25.6443 20.8745 25.8717C19.9061 26.1035 18.733 25.9353 18.1782 25.1078C17.819 24.5758 17.819 23.9756 18.0146 23.38C18.2828 22.5797 18.9239 21.7931 19.5696 21.2111C20.1971 20.6428 20.8609 20.0926 21.6521 19.797C22.0613 19.6425 22.4932 19.5652 22.9252 19.5561C23.8391 19.5242 24.7757 19.7698 25.6033 20.179C26.64 20.6882 27.5402 21.4294 28.4087 22.1978C28.5633 22.3342 28.7133 22.4706 28.8679 22.607C29.9046 23.5391 30.9868 24.5212 31.4596 25.8353C31.8825 27.0084 31.7734 28.327 32.2008 29.4955C33.1647 32.1372 36.3384 33.1012 39.0893 33.7059C39.5803 33.815 40.1078 33.9242 40.5852 33.7605C40.5806 33.7696 40.5897 33.765 40.5988 33.7605Z" fill="url(#paint4_linear_187_7)"/>
<path opacity="0.8" d="M8.70728 25.0305C8.46629 25.1578 8.18893 25.2169 7.93886 25.3124C7.81154 25.3624 7.68423 25.4215 7.57511 25.5034C7.03403 25.9217 7.06131 26.7628 7.34322 27.3858C7.63422 28.0314 8.14801 28.6452 8.06617 29.35C7.97978 30.0866 7.16134 30.614 6.43384 30.4731C5.70635 30.3276 5.16527 29.6137 5.13344 28.8726C5.12435 28.6271 5.16072 28.3724 5.20164 28.1224C5.28803 27.6177 5.39716 27.1129 5.19255 26.6537C4.94702 26.1172 4.24226 25.8444 3.70118 26.0717C3.01915 26.3627 2.77817 27.2448 2.91912 27.9723C3.06007 28.7044 3.47838 29.3409 3.76938 30.0229C3.91033 30.3503 4.01946 30.6959 4.09676 31.0414C4.35593 32.1782 4.28772 33.3876 3.89669 34.488C3.71027 34.2197 3.53294 33.9514 3.36016 33.6741C3.18284 33.4104 3.0237 33.1466 2.87365 32.8738C2.52354 32.26 2.20071 31.628 1.91426 30.9823C1.84151 30.8186 1.76876 30.6504 1.70056 30.4822C1.58234 30.2094 1.47322 29.932 1.37318 29.6501C1.29134 29.4364 1.21404 29.2181 1.14129 28.9999C0.982154 28.527 0.841201 28.0496 0.713889 27.5631C0.663874 27.3721 0.618405 27.1766 0.572936 26.9856C0.486546 26.6264 0.413796 26.2627 0.35014 25.8944C0.286484 25.5534 0.236468 25.2124 0.191 24.8623C0.159172 24.6031 0.127343 24.3485 0.104609 24.0847C0.104609 24.0529 0.100062 24.0211 0.0955154 23.9893C0.0909686 23.9347 0.0864217 23.8801 0.0818748 23.8256C0.0818748 23.7892 0.077328 23.7528 0.0727811 23.721C0.0727811 23.6846 0.0682343 23.6482 0.0682343 23.6164C0.0545937 23.4254 0.0409531 23.2345 0.0318593 23.039C0.0318593 22.9889 0.0273125 22.9344 0.0273125 22.8844C0.0227656 22.7116 0.0182187 22.5434 0.0136719 22.3706C0.818467 21.8477 1.56415 21.2202 2.47353 20.8792C2.99187 20.6837 3.61934 20.6246 4.11494 20.8201C4.33774 20.9065 4.53326 21.0429 4.67876 21.2475C5.188 21.9477 4.80607 22.9389 4.9743 23.7892C5.00158 23.9301 5.05615 24.0802 5.17891 24.1484C5.2653 24.1939 5.36533 24.1939 5.46082 24.1802C6.32927 24.0575 6.70211 22.9571 7.49326 22.5797C8.12982 22.2796 8.98464 22.5797 9.29837 23.2117C9.60756 23.8438 9.3302 24.6986 8.70728 25.0305Z" fill="url(#paint5_linear_187_7)"/>
<path opacity="0.1" d="M11.2761 13.3723C11.0215 15.1911 12.3355 16.8279 12.8084 18.6012C13.2449 20.2335 12.9357 22.0477 11.9808 23.4436C11.2352 24.5349 10.053 25.6625 10.4395 26.922C10.6168 27.504 11.1079 27.9359 11.6262 28.2451C12.8084 28.9544 14.2679 29.1863 15.6138 28.8817C16.6141 28.6543 17.5235 28.1496 18.451 27.7177C20.5835 26.7219 23.0934 26.0945 25.2622 27.0038C26.4171 27.4903 27.4857 28.3997 28.7315 28.3088C29.6045 28.2451 30.3775 27.6813 30.9231 26.9947C32.2144 25.3851 32.4554 23.0344 31.6097 21.152C30.7594 19.2696 28.8952 17.9146 26.8582 17.5918C25.0576 17.3054 23.0024 17.71 21.5702 16.587C21.2883 16.3687 21.0473 16.0914 20.9154 15.7594C20.6835 15.1683 20.8427 14.4863 21.1473 13.927C22.4114 11.6127 25.8988 10.8352 26.4353 8.25256C26.6672 7.13857 26.2307 5.97003 25.5578 5.05156C25.2077 4.57414 24.7666 4.12855 24.2074 3.93304C23.5299 3.6966 22.7887 3.85119 22.0931 4.00579C21.0655 4.23768 19.9015 4.57414 19.4604 5.52898C19.174 6.15191 19.2831 6.87486 19.2831 7.56143C19.2877 8.42079 19.0467 9.74848 18.1555 10.1622C17.4325 10.4987 16.8096 10.0258 16.0912 9.92126C14.0315 9.6348 11.5716 11.258 11.2761 13.3723Z" fill="white"/>
<path opacity="0.1" d="M17.5053 33.9605C18.2238 33.4786 18.8649 32.8602 19.656 32.5055C21.8112 31.5325 24.4439 32.7147 26.6627 31.8917C29.0226 31.0187 30.0638 28.2633 32.0417 26.7037C32.7101 26.1763 33.4876 25.7898 34.3106 25.5716C34.7471 25.4579 35.2063 25.3897 35.6473 25.4806C37.1342 25.7853 37.7116 27.5858 37.8889 29.0954C37.9481 29.6001 37.9844 30.1503 37.7116 30.5822C37.3524 31.146 36.6113 31.2915 35.9565 31.4143C34.2651 31.7235 32.6055 32.2054 31.0095 32.842C30.0774 33.2148 29.0407 33.8105 28.9498 34.8062C28.8816 35.5519 29.3818 36.2158 29.5818 36.9342C29.9774 38.3437 29.018 39.9806 27.5994 40.3261C26.1762 40.6717 24.5757 39.6532 24.2802 38.2209C24.071 37.2024 24.412 35.9975 23.7346 35.2109C23.198 34.588 22.2523 34.5334 21.4429 34.688C20.3744 34.8972 19.365 35.4019 18.5557 36.1248C17.6781 36.9114 16.9961 37.9709 15.9049 38.421C14.7318 38.903 13.395 38.5392 12.1946 38.1345C10.7078 37.6298 9.10275 36.9933 8.05697 35.7656C7.36584 34.9517 6.74292 33.8514 8.1479 33.7877C9.42557 33.7286 10.7851 34.6562 11.9855 34.9836C13.8497 35.4883 15.9139 35.029 17.5053 33.9605Z" fill="white"/>
<path opacity="0.1" d="M35.9567 10.9716C35.9567 11.931 36.6978 12.7176 36.9933 13.6315C37.5571 15.3684 36.1385 17.4463 34.3198 17.5509C32.4965 17.6555 30.8505 15.7594 31.2052 13.9725C31.2825 13.586 31.4371 13.2086 31.4507 12.8176C31.5053 11.3399 29.7047 10.4669 29.2864 9.04826C29.0454 8.22982 29.3546 6.77028 30.1048 6.24284C31.0506 5.56991 31.7144 6.6657 32.7238 6.5975C33.6196 6.53839 33.997 5.37894 33.8333 4.49685C33.7514 4.06944 33.6014 3.65568 33.4786 3.23737C33.7742 3.41469 34.0606 3.60566 34.3471 3.79663C34.5517 3.93758 34.7608 4.08308 34.9609 4.23313C35.2382 4.43319 35.5111 4.64235 35.7748 4.85605C35.7884 4.86514 35.8021 4.87424 35.8157 4.88788C35.8248 4.89697 35.8384 4.90607 35.8475 4.91516C35.9339 4.98336 36.0203 5.05156 36.1022 5.12431C36.2477 5.24708 36.3932 5.36985 36.5341 5.49716C36.5978 5.55172 36.6569 5.60628 36.7205 5.66539C37.0615 5.97003 37.3935 6.29286 37.7208 6.62478C37.9073 6.8112 38.0846 7.00217 38.2574 7.19768C38.321 7.26589 38.3847 7.33409 38.4483 7.40684C38.4847 7.44776 38.5256 7.48868 38.5575 7.52961C38.6257 7.61145 38.6939 7.68875 38.7621 7.77059C38.803 7.82061 38.8439 7.86607 38.8848 7.91609C38.4665 8.13434 38.0437 8.35259 37.6435 8.60267C36.7887 9.13465 35.9567 9.95308 35.9567 10.9716Z" fill="white"/>
<path opacity="0.1" d="M43.7679 18.774C43.7179 18.4103 43.6543 18.0556 43.5815 17.7009C43.486 17.2144 43.3724 16.7325 43.245 16.2596C43.0814 15.6549 42.8904 15.0592 42.6812 14.4772C42.5494 14.118 42.413 13.7679 42.2629 13.4178C41.79 12.3084 41.2308 11.2398 40.5942 10.235C40.526 10.1304 40.4578 10.0213 40.3896 9.91671C40.0895 9.45748 39.7712 9.01188 39.4348 8.57993C39.2211 8.29803 38.9983 8.02521 38.7709 7.75695C38.4345 7.36592 38.0889 6.98398 37.7251 6.61569C37.2114 6.08825 36.6703 5.5881 36.1065 5.11522C36.0201 5.04247 35.9382 4.97427 35.8518 4.90607C35.8427 4.89697 35.8291 4.88788 35.82 4.87878C35.3471 4.49685 34.8561 4.1331 34.3514 3.79208C33.9285 3.50563 33.4966 3.23282 33.0555 2.97365C32.378 2.57807 31.6733 2.21432 30.9458 1.89604C30.6184 1.75054 30.2819 1.60959 29.9455 1.48228C29.4453 1.29131 28.9361 1.10943 28.4177 0.954841C27.9312 0.804795 27.4356 0.672936 26.9354 0.559264C26.6263 0.486514 26.3125 0.422858 25.9988 0.368296C25.9033 0.350108 25.8078 0.336468 25.7123 0.31828C25.7123 0.31828 25.7123 0.31828 25.7078 0.31828C25.5805 0.295546 25.4532 0.277359 25.3213 0.254624C24.2437 0.0863904 23.1297 0 22.0021 0C21.8657 0 21.7293 0 21.5974 0H21.5883C21.4747 0 21.3564 0.00454686 21.2382 0.00909373H21.1837L21.0563 0.0136406C20.9654 0.0136406 20.879 0.0181875 20.7881 0.0272812H20.779C20.688 0.031828 20.5971 0.0363749 20.5062 0.0454686C20.4425 0.0454686 20.3789 0.0500155 20.3152 0.0545624C20.2379 0.0591092 20.1606 0.068203 20.0788 0.0727498C19.9105 0.0863904 19.7468 0.104578 19.5786 0.122765C19.8833 0.154593 20.1879 0.195515 20.488 0.240984C20.6153 0.259171 20.7472 0.281906 20.8699 0.30464C20.8699 0.30464 20.8699 0.30464 20.8745 0.30464C20.97 0.31828 21.0654 0.336468 21.1609 0.354655C21.4747 0.413765 21.7884 0.477421 22.0976 0.545624C22.5977 0.659295 23.0933 0.791154 23.5799 0.941201C24.0982 1.10034 24.6074 1.27767 25.1076 1.46864C25.4441 1.59595 25.7805 1.7369 26.1079 1.8824C26.8309 2.20523 27.5356 2.56443 28.2177 2.96001C28.6587 3.21918 29.0907 3.49199 29.5135 3.77844C30.0182 4.12401 30.5093 4.48321 30.9821 4.86514C30.9912 4.87424 31.0049 4.88333 31.014 4.89243C31.1004 4.96063 31.1868 5.02883 31.2686 5.10158C31.8324 5.57445 32.3735 6.07461 32.8873 6.60205C33.251 6.97034 33.5966 7.35228 33.9331 7.74331C34.1604 8.01157 34.3832 8.28439 34.5969 8.56629C34.9288 8.99824 35.2471 9.44384 35.5517 9.90307C35.6245 10.0076 35.6882 10.1122 35.7564 10.2213C36.3975 11.2308 36.9567 12.2947 37.4251 13.4042C37.5751 13.7543 37.7115 14.1044 37.8434 14.4636C38.0525 15.0456 38.2435 15.6412 38.4072 16.2459C38.5345 16.7234 38.6482 17.2053 38.7436 17.6873C38.8164 18.042 38.8755 18.4012 38.9301 18.7604C39.0847 19.797 39.162 20.8519 39.1665 21.9295V21.9841C39.1665 22.0386 39.1665 22.0932 39.1665 22.1478C39.1665 22.416 39.162 22.6843 39.1483 22.948C39.1438 23.1481 39.1301 23.3527 39.1165 23.5528C39.0665 24.2575 38.9846 24.9532 38.871 25.6352C38.8528 25.7489 38.8346 25.858 38.8118 25.9717C38.7937 26.0763 38.7709 26.1763 38.7482 26.2809C38.4936 27.5631 38.1298 28.8044 37.6615 29.9957C37.1932 31.1869 36.6294 32.3282 35.9701 33.4104C35.9064 33.5149 35.8427 33.6195 35.7745 33.7241C35.6199 33.9742 35.4563 34.2151 35.2926 34.4561C35.1971 34.588 35.1062 34.7244 35.0107 34.8517C34.947 34.9426 34.8834 35.0336 34.8152 35.12C34.7197 35.2427 34.6287 35.3655 34.5332 35.4883C34.4969 35.5383 34.456 35.5883 34.4196 35.6383C34.365 35.7111 34.3105 35.7793 34.2513 35.8475C34.2059 35.902 34.1559 35.9611 34.1104 36.0157C34.074 36.0612 34.0376 36.1066 34.0013 36.1476C33.9285 36.234 33.8603 36.3158 33.7876 36.3976C33.733 36.4658 33.6739 36.5295 33.6148 36.5932C33.5739 36.6432 33.5284 36.6886 33.4875 36.7387C33.4784 36.7523 33.4647 36.7659 33.4511 36.7796C33.3647 36.8705 33.2829 36.966 33.1965 37.0569C33.1419 37.1115 33.0919 37.1706 33.0328 37.2252C32.9782 37.2843 32.9237 37.3388 32.8691 37.398C32.7327 37.5344 32.5963 37.6708 32.4553 37.8072C32.4053 37.8572 32.3553 37.9072 32.3053 37.9527C32.2053 38.0482 32.1007 38.1436 31.9961 38.2391C31.9825 38.2528 31.9688 38.2664 31.9506 38.28C31.8597 38.3619 31.7688 38.4437 31.6824 38.521C31.5596 38.6302 31.4323 38.7347 31.305 38.8439C31.214 38.9166 31.1231 38.9939 31.0367 39.0666C30.9503 39.1349 30.8639 39.2031 30.7775 39.2713C30.6411 39.3758 30.5047 39.4804 30.3683 39.585C30.2592 39.6668 30.1546 39.7441 30.0455 39.8214C30.0409 39.826 30.0364 39.826 30.0319 39.8305C29.8409 39.9715 29.6408 40.1079 29.4408 40.2443L29.1861 40.4125C29.0588 40.4944 28.9315 40.5762 28.8042 40.6581C28.7587 40.6853 28.7133 40.7172 28.6678 40.7444C28.5678 40.8081 28.4677 40.8672 28.3677 40.9263C28.3586 40.9309 28.3541 40.9354 28.345 40.94C28.2813 40.9763 28.2222 41.0127 28.1585 41.0491C27.8857 41.2082 27.6129 41.3537 27.331 41.4992C27.2446 41.5447 27.1582 41.5902 27.0673 41.6356C27.0036 41.6675 26.94 41.7038 26.8718 41.7311C26.7081 41.813 26.5444 41.8903 26.3807 41.9676C26.3353 41.9857 26.2943 42.0085 26.2534 42.0267C26.1125 42.0903 25.967 42.154 25.826 42.2131C25.7442 42.2495 25.6669 42.2813 25.585 42.3131C25.4668 42.3631 25.344 42.4131 25.2213 42.4632C25.1167 42.5041 25.0076 42.545 24.8984 42.5859C24.803 42.6223 24.7029 42.6587 24.6029 42.695C24.4801 42.7405 24.3574 42.7814 24.2346 42.8224C24.13 42.8587 24.0209 42.8951 23.9163 42.9269C23.448 43.077 22.9706 43.2134 22.4886 43.3316L22.3295 43.3725C22.2704 43.3862 22.2067 43.3998 22.1476 43.4135C22.0748 43.4271 22.0021 43.4453 21.9248 43.4635C21.8702 43.4771 21.8157 43.4907 21.7566 43.4998C21.7293 43.5044 21.702 43.5089 21.6702 43.518C21.5792 43.5362 21.4883 43.5544 21.3974 43.5726C21.3655 43.5771 21.3337 43.5817 21.3019 43.5908C20.9336 43.6635 20.5607 43.7226 20.1879 43.7727C20.1106 43.7817 20.0288 43.7954 19.9515 43.8045C19.9151 43.809 19.8742 43.8136 19.8378 43.8181C19.765 43.8272 19.6877 43.8363 19.6104 43.8454C20.1151 43.9 20.6198 43.9409 21.1336 43.9591C21.4292 43.9682 21.7247 43.9773 22.0203 43.9773C22.6887 43.9773 23.348 43.95 24.0027 43.8863C24.08 43.8818 24.1573 43.8727 24.2301 43.8681C24.2801 43.8636 24.3301 43.859 24.3801 43.8545C24.4801 43.8454 24.5802 43.8318 24.6802 43.8181C24.7166 43.8136 24.7575 43.809 24.7939 43.8045C24.8712 43.7954 24.953 43.7863 25.0303 43.7727C25.4031 43.7226 25.776 43.6635 26.1443 43.5908C26.1761 43.5862 26.2079 43.5817 26.2398 43.5726C26.3307 43.5544 26.4216 43.5362 26.5126 43.518C26.5399 43.5135 26.5671 43.5044 26.599 43.4998C26.6581 43.4907 26.7126 43.4771 26.7672 43.4635C26.8445 43.4498 26.9173 43.4316 26.99 43.4135C27.0491 43.3998 27.1128 43.3862 27.1719 43.3725L27.331 43.3316C27.813 43.2134 28.2904 43.077 28.7587 42.9269C28.8633 42.8951 28.9724 42.8587 29.077 42.8224C29.1998 42.7814 29.3225 42.736 29.4453 42.695C29.5453 42.6587 29.6454 42.6223 29.7409 42.5859C29.85 42.545 29.9546 42.5041 30.0637 42.4632C30.1864 42.4131 30.3047 42.3677 30.4274 42.3131C30.5093 42.2813 30.5911 42.2449 30.6684 42.2131C30.8094 42.154 30.9549 42.0903 31.0958 42.0267C31.1367 42.0085 31.1822 41.9857 31.2231 41.9676C31.3868 41.8903 31.5505 41.813 31.7142 41.7311C31.7824 41.6993 31.8461 41.6675 31.9097 41.6356C32.0006 41.5902 32.087 41.5447 32.1734 41.4992C32.4553 41.3537 32.7281 41.2082 33.001 41.0491C33.0646 41.0127 33.1237 40.9763 33.1874 40.94C33.1965 40.9354 33.201 40.9309 33.2101 40.9263C33.3101 40.8672 33.4102 40.8081 33.5102 40.7444C33.5557 40.7172 33.6011 40.6853 33.6466 40.6581C33.7739 40.5762 33.9012 40.4944 34.0285 40.4125L34.2832 40.2443C34.4832 40.1079 34.6787 39.9715 34.8743 39.8305C34.8788 39.8305 34.8834 39.826 34.8879 39.8214C34.997 39.7441 35.1016 39.6623 35.2107 39.585C35.3471 39.4804 35.4835 39.3758 35.6199 39.2713C35.7063 39.2031 35.7927 39.1349 35.8791 39.0666C35.9701 38.9939 36.061 38.9166 36.1474 38.8439C36.2747 38.7393 36.3975 38.6302 36.5248 38.521C36.6157 38.4392 36.7021 38.3619 36.793 38.28C36.8067 38.271 36.8203 38.2528 36.8385 38.2391C36.9385 38.1436 37.0431 38.0482 37.1477 37.9527C37.1977 37.9072 37.2477 37.8572 37.2977 37.8072C37.4387 37.6708 37.5751 37.5344 37.7115 37.398C37.7661 37.3388 37.8206 37.2843 37.8752 37.2252C37.9298 37.1706 37.9843 37.1115 38.0389 37.0569C38.1253 36.966 38.2117 36.8705 38.2935 36.7796C38.3026 36.7659 38.3162 36.7523 38.3299 36.7387C38.3753 36.6932 38.4163 36.6432 38.4572 36.5932C38.5163 36.5295 38.5754 36.4613 38.63 36.3976C38.7027 36.3113 38.7755 36.2294 38.8437 36.1476C38.8801 36.1021 38.921 36.0566 38.9528 36.0157C38.9983 35.9611 39.0483 35.902 39.0938 35.8475C39.1529 35.7747 39.2074 35.7065 39.262 35.6383C39.3029 35.5883 39.3393 35.5428 39.3757 35.4883C39.4711 35.3701 39.5666 35.2427 39.6576 35.12C39.7258 35.029 39.7894 34.9381 39.8531 34.8517C39.9486 34.7198 40.044 34.588 40.135 34.4561C40.3032 34.2151 40.4624 33.9742 40.617 33.7241C40.6852 33.6195 40.7488 33.5149 40.8125 33.4104C41.4718 32.3282 42.0356 31.1915 42.5039 29.9957C42.9722 28.8044 43.336 27.5631 43.5906 26.2809C43.6133 26.1763 43.6315 26.0763 43.6543 25.9717C43.6724 25.858 43.6952 25.7489 43.7134 25.6352C43.827 24.9532 43.9089 24.2575 43.9589 23.5528C43.9725 23.3527 43.9862 23.1526 43.9907 22.948C44.0044 22.6843 44.0089 22.416 44.0089 22.1478C44.0089 22.0932 44.0089 22.0386 44.0089 21.9841V21.9295C43.9998 20.8701 43.918 19.8107 43.7679 18.774Z" fill="black"/>
</g>
<defs>
<linearGradient id="paint0_linear_187_7" x1="38.1764" y1="32.7652" x2="1.53882" y2="8.38929" gradientUnits="userSpaceOnUse">
<stop stop-color="#C91F3E"/>
<stop offset="1" stop-color="#E33C50"/>
</linearGradient>
<linearGradient id="paint1_linear_187_7" x1="5.14061" y1="10.0163" x2="26.406" y2="10.0163" gradientUnits="userSpaceOnUse">
<stop stop-color="#A91A34"/>
<stop offset="1" stop-color="#C33445"/>
</linearGradient>
<linearGradient id="paint2_linear_187_7" x1="11.6265" y1="37.0803" x2="22.0543" y2="37.0803" gradientUnits="userSpaceOnUse">
<stop stop-color="#A91A34"/>
<stop offset="1" stop-color="#C33445"/>
</linearGradient>
<linearGradient id="paint3_linear_187_7" x1="28.449" y1="12.5968" x2="38.4543" y2="12.5968" gradientUnits="userSpaceOnUse">
<stop stop-color="#A91A34"/>
<stop offset="1" stop-color="#C33445"/>
</linearGradient>
<linearGradient id="paint4_linear_187_7" x1="17.8692" y1="31.3488" x2="40.5995" y2="31.3488" gradientUnits="userSpaceOnUse">
<stop stop-color="#A91A34"/>
<stop offset="1" stop-color="#C33445"/>
</linearGradient>
<linearGradient id="paint5_linear_187_7" x1="0.00448721" y1="27.5923" x2="9.42213" y2="27.5923" gradientUnits="userSpaceOnUse">
<stop stop-color="#A91A34"/>
<stop offset="1" stop-color="#C33445"/>
</linearGradient>
<clipPath id="clip0_187_7">
<rect width="44" height="44" fill="white"/>
</clipPath>
</defs>
</svg>
