<svg width="44" height="44" viewBox="0 0 44 44" fill="none" xmlns="http://www.w3.org/2000/svg">
<g clip-path="url(#clip0_187_35)">
<path d="M44 21.95V22.0046C44 22.0591 44 22.1137 44 22.1682C44 22.2319 44 22.3001 44 22.3637C44 22.5638 43.9955 22.7683 43.9818 22.9684C43.9773 23.1684 43.9636 23.373 43.95 23.5731C43.9 24.2777 43.8181 24.9733 43.7045 25.6553C43.6863 25.769 43.6681 25.8781 43.6453 25.9917C43.6272 26.0963 43.6044 26.1963 43.5817 26.3009C43.5408 26.5055 43.4998 26.7055 43.4498 26.9101C43.4407 26.9647 43.4271 27.0192 43.4135 27.0738C43.2998 27.5693 43.1634 28.0513 43.0179 28.5332C42.8951 28.9378 42.7542 29.3333 42.6087 29.7289C42.5768 29.8243 42.5359 29.9198 42.4995 30.0153C42.3677 30.3517 42.2267 30.6836 42.0812 31.0064C42.0539 31.0701 42.0267 31.1383 41.9948 31.2019C41.9494 31.3019 41.8993 31.4065 41.8493 31.5065V31.5111V31.5156C41.7811 31.6611 41.7084 31.8066 41.6356 31.9475C41.5356 32.143 41.4356 32.3385 41.3264 32.5295C41.2491 32.6704 41.1719 32.8159 41.09 32.9523C41.0354 33.0477 40.9809 33.1432 40.9263 33.2341C40.8899 33.2978 40.8536 33.3569 40.8172 33.4205C40.7763 33.4842 40.7399 33.5478 40.699 33.6115C40.6762 33.6524 40.649 33.6933 40.6217 33.7342C40.5762 33.807 40.5307 33.8752 40.4853 33.9479C40.3762 34.1252 40.2579 34.298 40.1397 34.4662C40.0442 34.5981 39.9533 34.7345 39.8578 34.8618C39.7942 34.9527 39.7305 35.0436 39.6623 35.13C39.5668 35.2527 39.4759 35.3755 39.3804 35.4982C39.344 35.5483 39.3031 35.5983 39.2667 35.6483C39.2122 35.721 39.1576 35.7892 39.0985 35.8574C39.053 35.912 39.003 35.9711 38.9575 36.0256C38.9212 36.0711 38.8848 36.1166 38.8484 36.1575C38.7757 36.2439 38.7075 36.3257 38.6347 36.4075C38.5801 36.4757 38.521 36.5394 38.4619 36.603C38.421 36.653 38.3755 36.6985 38.3346 36.7485C38.3255 36.7621 38.3119 36.7758 38.2982 36.7894C38.2118 36.8803 38.13 36.9758 38.0436 37.0668C37.989 37.1213 37.939 37.1804 37.8799 37.235C37.8708 37.2441 37.8617 37.2532 37.8526 37.2622C37.8072 37.3077 37.7617 37.3577 37.7162 37.4032C37.698 37.4214 37.6799 37.4396 37.6617 37.4577C37.5435 37.5759 37.4252 37.6942 37.3025 37.8124C37.2525 37.8624 37.2024 37.9078 37.1524 37.9578C37.0524 38.0533 36.9478 38.1488 36.8432 38.2443C36.8296 38.2579 36.816 38.2715 36.7978 38.2852C36.775 38.3079 36.7478 38.3306 36.725 38.3488C36.6568 38.4125 36.5932 38.467 36.5295 38.5261C36.4067 38.6353 36.2794 38.7398 36.1521 38.8489C36.0612 38.9217 35.9702 38.999 35.8838 39.0717L35.6247 39.2763C35.5974 39.2945 35.5747 39.3172 35.5474 39.3354C35.4383 39.4218 35.3291 39.5082 35.2155 39.59C35.1063 39.6718 35.0018 39.7491 34.8926 39.8264C34.8881 39.831 34.8835 39.831 34.879 39.8355C34.688 39.9764 34.488 40.1128 34.2879 40.2492L34.0333 40.4174C34.0151 40.4311 33.9924 40.4447 33.9742 40.4538C33.8696 40.5266 33.7605 40.5948 33.6513 40.6584C33.6059 40.6857 33.5604 40.7175 33.5149 40.7448C33.4149 40.8084 33.3149 40.8675 33.2148 40.9266C33.2057 40.9312 33.2012 40.9357 33.1921 40.9403C33.1284 40.9767 33.0693 41.013 33.0057 41.0494C32.7329 41.2085 32.4601 41.354 32.1782 41.4995C32.0918 41.545 32.0054 41.5904 31.9144 41.6359C31.8508 41.6677 31.7871 41.7041 31.7189 41.7314C31.5552 41.8132 31.3915 41.8905 31.2279 41.9678C31.1824 41.986 31.1415 42.0087 31.1005 42.0269C30.9596 42.0905 30.8141 42.1542 30.6731 42.2133C30.5913 42.2496 30.514 42.2815 30.4322 42.3133C30.3139 42.3633 30.1912 42.4133 30.0684 42.4633C29.9638 42.5042 29.8547 42.5452 29.7456 42.5861C29.6501 42.6224 29.5501 42.6588 29.45 42.6952C29.3273 42.7407 29.2045 42.7816 29.0817 42.8225C29.0726 42.8225 29.0681 42.827 29.059 42.8316C28.959 42.8634 28.8635 42.8952 28.7635 42.9271C28.2951 43.0771 27.8177 43.2135 27.3357 43.3317L27.1766 43.3726C27.1175 43.3862 27.0538 43.3999 26.9947 43.4135C26.922 43.4272 26.8492 43.4453 26.7719 43.4635C26.7174 43.4772 26.6628 43.4908 26.6037 43.4999C26.5764 43.5044 26.5491 43.509 26.5173 43.5181C26.4264 43.5363 26.3354 43.5545 26.2445 43.5726C26.2127 43.5772 26.1808 43.5817 26.149 43.5908C26.1308 43.5954 26.1126 43.5954 26.0945 43.5999C25.7443 43.6681 25.3897 43.7227 25.035 43.7727C24.9577 43.7818 24.8759 43.7954 24.7986 43.8045C24.7622 43.8091 24.7213 43.8136 24.6849 43.8181C24.5849 43.8318 24.4849 43.8409 24.3848 43.8545C24.3348 43.8591 24.2848 43.8636 24.2348 43.8682C24.1575 43.8727 24.0847 43.8818 24.0074 43.8863C23.3527 43.9454 22.6934 43.9773 22.025 43.9773C21.7295 43.9773 21.4339 43.9727 21.1384 43.9591C20.3017 43.9273 19.4788 43.8454 18.6694 43.7227C18.6376 43.7181 18.6058 43.7136 18.5739 43.709C18.3011 43.6681 18.0374 43.6181 17.7691 43.5681C17.6737 43.5499 17.5827 43.5317 17.4918 43.509C17.1826 43.4453 16.878 43.3771 16.5779 43.2999C15.8867 43.1225 15.2093 42.9134 14.5454 42.677C14.1635 42.5406 13.7861 42.3906 13.4132 42.2315C13.2587 42.1633 13.1041 42.0996 12.954 42.0314C12.2356 41.7041 11.5354 41.3449 10.8625 40.9448C10.8306 40.9266 10.7988 40.9085 10.7715 40.8903C10.4487 40.6993 10.1304 40.4993 9.82123 40.2947C9.68482 40.2038 9.54841 40.1083 9.41655 40.0174C9.2756 39.9219 9.1392 39.8219 9.00279 39.7218C8.90731 39.6537 8.81182 39.5809 8.71634 39.5127C8.56629 39.3991 8.42079 39.2854 8.27075 39.1672C7.99339 38.9444 7.72512 38.7171 7.4614 38.4852C7.43867 38.467 7.41593 38.4443 7.3932 38.4261C6.67934 37.7942 6.00641 37.1122 5.38349 36.3893C5.11522 36.0847 4.85605 35.7665 4.61052 35.4437C4.55141 35.3709 4.49685 35.2982 4.44229 35.2209C4.43319 35.2073 4.41955 35.1891 4.41046 35.1755C4.2786 35.0027 4.15129 34.8299 4.02397 34.6526C3.96487 34.6072 3.92849 34.5526 3.89212 34.498C3.70115 34.2253 3.51927 33.9525 3.34649 33.6706C2.80541 32.8113 2.32799 31.9111 1.90968 30.9791C1.83693 30.8155 1.76418 30.6472 1.69598 30.479C1.57776 30.2062 1.46864 29.9289 1.36861 29.647C1.28676 29.4334 1.20947 29.2151 1.13672 28.9969C0.977576 28.5241 0.836623 28.0467 0.709311 27.5602C0.659295 27.3693 0.613827 27.1738 0.568358 26.9829C0.481968 26.6237 0.409218 26.26 0.345562 25.8917C0.281906 25.5507 0.23189 25.2098 0.186421 24.8597C0.154593 24.6005 0.122765 24.3459 0.100031 24.0823C0.100031 24.0504 0.0954841 24.0186 0.0909373 23.9868C0.0863904 23.9322 0.0818435 23.8777 0.0772967 23.8231C0.0772967 23.7867 0.0727498 23.7504 0.068203 23.7185C0.0500155 23.4912 0.0363749 23.2639 0.0272812 23.0366C0.0272812 22.9866 0.0227343 22.932 0.0227343 22.882C0.00909373 22.7002 0.00454686 22.5092 0 22.3228C0 22.2182 0 22.1091 0 22.0046C0 21.7863 0 21.5681 0.00909373 21.3453C0.00909373 21.2635 0.0136406 21.1817 0.0181875 21.1044C0.0363749 20.5815 0.0772967 20.0632 0.131859 19.5586C0.140953 19.454 0.154593 19.3449 0.172781 19.2403C0.204609 18.963 0.245531 18.6902 0.286452 18.422C0.372843 17.8946 0.477421 17.3763 0.600186 16.8671C0.613827 16.8035 0.632014 16.7353 0.650201 16.6716C0.677483 16.5534 0.709311 16.4352 0.741139 16.3216C0.804795 16.0761 0.872998 15.8351 0.945748 15.5941C0.945748 15.5896 0.945748 15.585 0.950294 15.5805C0.995763 15.4305 1.04578 15.2804 1.09125 15.1304C1.14581 14.9576 1.20492 14.7894 1.26857 14.6212C1.83693 13.0345 2.57807 11.5342 3.4738 10.1385C3.52837 10.0521 3.58293 9.9657 3.64204 9.87932C3.71024 9.7793 3.7739 9.67473 3.84665 9.57471C4.10127 9.20191 4.36499 8.83819 4.64235 8.48358C4.66508 8.45175 4.68782 8.42447 4.71055 8.39265C5.43805 7.47428 6.23375 6.61501 7.09765 5.81939C7.37501 5.56479 7.65692 5.31928 7.94792 5.07833C8.03885 5.00104 8.13434 4.92375 8.22982 4.85101C8.23437 4.84646 8.23892 4.84191 8.24801 4.83737C8.42534 4.69188 8.60721 4.55549 8.78909 4.4191C8.82092 4.39637 8.85274 4.36909 8.88457 4.34636C8.90731 4.32817 8.93004 4.31453 8.95277 4.29635C9.04371 4.22815 9.13465 4.1645 9.22559 4.0963C9.29834 4.04629 9.36654 3.99628 9.43929 3.94627C9.52113 3.89172 9.59843 3.83716 9.68027 3.77806C9.75757 3.72805 9.83487 3.67349 9.91216 3.62348C9.93944 3.60529 9.96218 3.58711 9.98946 3.57347C10.0895 3.50527 10.1941 3.44162 10.2941 3.37797C10.3714 3.33251 10.4441 3.2825 10.5169 3.23704C10.5305 3.22794 10.5487 3.21885 10.5669 3.20976C10.6124 3.18248 10.6578 3.1552 10.7033 3.12338C10.8124 3.05518 10.9261 2.99153 11.0398 2.92788C11.0671 2.9097 11.0989 2.89606 11.1262 2.87787C11.1807 2.84605 11.2353 2.81422 11.2899 2.78694C11.3581 2.75057 11.4217 2.7142 11.4899 2.67783L11.5763 2.63237C11.6354 2.60054 11.69 2.56872 11.7491 2.54144C11.8037 2.50961 11.8582 2.48233 11.9219 2.45051C11.931 2.44596 11.9355 2.44142 11.9446 2.43687C11.9901 2.41414 12.0355 2.38686 12.081 2.36867C12.222 2.29593 12.3675 2.22774 12.5084 2.15954C12.6175 2.09589 12.7312 2.04588 12.8403 1.99587C12.9995 1.92313 13.1586 1.85039 13.3223 1.78219C13.3632 1.764 13.4042 1.74582 13.4451 1.72763C13.4678 1.71854 13.486 1.70945 13.5087 1.70036C13.5997 1.66398 13.6952 1.62307 13.7861 1.59124C13.7952 1.5867 13.7997 1.58215 13.8088 1.58215C13.8816 1.55487 13.9498 1.52305 14.0271 1.49577C14.0316 1.49577 14.0362 1.49122 14.0407 1.49122C14.1044 1.46849 14.1635 1.44121 14.2271 1.41848C14.2908 1.39575 14.3544 1.36847 14.4181 1.34574C14.8364 1.19116 15.2593 1.05022 15.6867 0.922922C15.9277 0.850179 16.1686 0.781983 16.4142 0.718334C16.5006 0.695602 16.5824 0.677416 16.6643 0.654684C16.7325 0.636499 16.7961 0.62286 16.8643 0.604674C16.878 0.600128 16.8916 0.595581 16.9052 0.595581C16.9416 0.586488 16.978 0.581942 17.0144 0.572849C17.0462 0.568303 17.078 0.55921 17.1098 0.550117C17.1098 0.550117 17.1144 0.550117 17.1189 0.550117C17.1962 0.531932 17.2735 0.513746 17.3554 0.500107C17.369 0.495561 17.3827 0.495561 17.4008 0.491014C17.4827 0.472829 17.5645 0.454643 17.6464 0.441004C17.7237 0.427365 17.801 0.409179 17.8783 0.39554C17.9101 0.390994 17.9419 0.386447 17.9738 0.377354C18.042 0.368262 18.1102 0.354622 18.1784 0.340983C18.2693 0.327344 18.3602 0.309158 18.4466 0.295519C18.7149 0.250055 18.9832 0.213684 19.256 0.181859C19.3242 0.172767 19.3924 0.163674 19.4606 0.159127C19.6606 0.136395 19.8652 0.113663 20.0699 0.0954779C20.1517 0.0909315 20.229 0.0818387 20.3063 0.0772923C20.3427 0.0772923 20.3836 0.0727459 20.42 0.0727459C20.4472 0.0727459 20.4745 0.0681995 20.5018 0.0681995C20.5927 0.0636531 20.6837 0.0545604 20.7746 0.050014H20.7837C20.8747 0.0454676 20.9656 0.0409212 21.052 0.0363748L21.1793 0.0318284H21.2339C21.3475 0.027282 21.4657 0.0227356 21.584 0.0227356H21.5931C21.7295 0.0227356 21.8659 0.0227356 21.9977 0.0227356C22.4069 0.0227356 22.8162 0.0318284 23.2254 0.0545604C23.6346 0.0772923 24.0484 0.109117 24.453 0.154581C24.744 0.186406 25.035 0.227323 25.326 0.268241C25.4533 0.286426 25.5852 0.309158 25.7125 0.33189C25.7125 0.33189 25.7125 0.33189 25.7171 0.33189C25.8125 0.34553 25.908 0.363715 26.0035 0.381901C26.1581 0.409179 26.3082 0.441004 26.4582 0.472829C26.6173 0.504653 26.781 0.541025 26.9402 0.577396C27.4403 0.691056 27.9359 0.822901 28.4224 0.972932C28.5179 1.00021 28.618 1.03204 28.7134 1.06841C29.1318 1.20025 29.541 1.35028 29.9456 1.50486C30.2821 1.63216 30.6186 1.7731 30.946 1.91858C31.0369 1.9595 31.1278 2.00042 31.2188 2.04133C31.4006 2.12772 31.5825 2.2141 31.7644 2.30048C32.2054 2.51871 32.6328 2.75057 33.0557 2.99608C33.1785 3.06882 33.3012 3.14156 33.424 3.2143C33.7377 3.40525 34.0469 3.60529 34.3516 3.80988C34.5562 3.95082 34.7653 4.0963 34.9654 4.24634C35.2427 4.44638 35.5156 4.65551 35.7793 4.86919C35.7929 4.87828 35.8066 4.88738 35.8202 4.90102C35.8293 4.91011 35.8429 4.9192 35.852 4.92829C35.9384 4.99649 36.0248 5.06469 36.1066 5.13743C36.3158 5.31474 36.525 5.49205 36.725 5.67845C37.066 5.98306 37.398 6.30585 37.7253 6.63774C37.9118 6.82414 38.0891 7.01509 38.2619 7.21058C38.4346 7.39699 38.6029 7.58794 38.7666 7.78343C38.9166 7.96529 39.0667 8.14714 39.2122 8.329C39.2894 8.41993 39.3577 8.51085 39.4304 8.60633C39.5259 8.73363 39.6259 8.86093 39.7214 8.99277C39.9487 9.30193 40.1715 9.62017 40.3852 9.94297C40.458 10.0475 40.5216 10.1521 40.5899 10.2612C40.649 10.3567 40.7081 10.4522 40.7672 10.5476C40.8581 10.6886 40.9445 10.8341 41.0264 10.9795C41.2764 11.4069 41.5129 11.8479 41.7311 12.298C41.9221 12.6754 42.0949 13.0618 42.2631 13.4528C42.4131 13.8029 42.5496 14.1529 42.6814 14.5121C42.8496 14.9758 43.0042 15.4441 43.1406 15.9215C43.1588 15.9897 43.1816 16.0533 43.1998 16.1215C43.2179 16.1761 43.2316 16.2352 43.2498 16.2943C43.3771 16.7717 43.4908 17.2536 43.5862 17.74C43.659 18.0947 43.7181 18.4538 43.7727 18.813C43.7999 19.0039 43.8272 19.1949 43.85 19.3813C43.859 19.4722 43.8727 19.5586 43.8818 19.6495C43.8909 19.7223 43.9 19.795 43.9045 19.8677C43.9045 19.8996 43.9091 19.9268 43.9136 19.9587C43.9227 20.0769 43.9318 20.1951 43.9409 20.3133C43.9409 20.336 43.9409 20.3633 43.9454 20.386C43.9545 20.5042 43.9636 20.627 43.9682 20.7452C43.9682 20.7634 43.9682 20.7816 43.9682 20.7998C43.9727 20.8998 43.9773 20.9907 43.9818 21.0907C43.9864 21.1817 43.9864 21.2771 43.9909 21.3681C43.9955 21.5363 44 21.7409 44 21.95Z" fill="url(#paint0_linear_187_35)"/>
<path opacity="0.4" d="M43.9362 20.2724C43.5043 20.4269 43.0723 20.5861 42.6722 20.7998C40.7443 21.8227 39.5667 23.8958 37.6979 25.0279C36.6567 25.6598 35.4518 25.9645 34.2605 26.2145C30.9186 26.9147 27.472 27.2511 24.0983 26.751C21.8976 26.4236 19.6196 25.7553 17.5008 26.4327C16.6141 26.7192 15.8139 27.2238 14.9181 27.4784C12.6493 28.1149 10.2985 27.0238 8.15241 26.0508C6.47462 25.2916 4.52856 24.5233 2.65525 24.8506C2.09599 24.9461 1.09568 25.6417 0.345445 25.8963C0.281789 25.5553 0.231773 25.2143 0.186304 24.8642C0.154476 24.6051 0.122648 24.3505 0.099914 24.0868C0.099914 24.055 0.0953672 24.0231 0.0908203 23.9913C2.07325 22.7638 7.43401 23.6776 8.48433 24.0277C10.7987 24.8006 13.0676 26.2327 15.482 25.8644C16.4232 25.7235 17.3007 25.3098 18.2237 25.0734C21.1292 24.3187 24.1665 25.3189 27.1583 25.5325C32.4054 25.9008 37.8753 23.5594 40.8535 19.2267C41.5946 18.1492 42.2175 16.9262 43.1996 16.0851C43.2178 16.1397 43.2315 16.1988 43.2497 16.2579C43.377 16.7353 43.4906 17.2172 43.5861 17.7037C43.6589 18.0583 43.718 18.4174 43.7725 18.7766C43.7998 18.9676 43.8271 19.1585 43.8498 19.3449C43.8589 19.4358 43.8726 19.5222 43.8817 19.6131C43.8908 19.6859 43.8999 19.7586 43.9044 19.8314C43.9044 19.8632 43.909 19.8905 43.9135 19.9223C43.9135 20.0405 43.9271 20.1542 43.9362 20.2724Z" fill="#BDF0FD"/>
<path opacity="0.4" d="M33.4239 3.19612C31.3278 3.90536 29.891 6.04216 27.7767 6.78777C24.8121 7.83799 21.4247 5.88759 18.442 6.88779C17.7145 7.1333 17.0688 7.53338 16.4505 7.99257C15.0909 9.00187 13.8633 10.2749 12.2401 10.7249C10.9851 11.075 9.712 10.8795 8.42979 10.5795C7.25669 10.3021 6.07451 9.94752 4.88778 9.84295C4.45128 9.80658 4.04206 9.81567 3.64648 9.86568C3.71469 9.76566 3.77834 9.66109 3.85109 9.56107C4.10572 9.18827 4.36944 8.82456 4.64679 8.46994C5.23789 8.43357 5.72895 8.43811 5.98812 8.46084C7.12029 8.55632 8.2661 8.74727 9.40736 8.86093C11.0488 9.02914 12.672 9.04733 14.1861 8.43811C14.9091 8.14714 15.5638 7.72888 16.2095 7.28788C17.1598 6.63319 18.0873 5.9376 19.1649 5.54206C21.6066 4.64642 24.3893 5.45113 26.9355 5.09651H26.9401C27.463 5.01922 27.9768 4.90102 28.4724 4.70552C28.9498 4.51457 29.3908 4.26907 29.8091 3.9781C30.5094 3.49618 31.1459 2.89606 31.7643 2.2823C32.2053 2.50052 32.6327 2.73239 33.0556 2.97789C33.1829 3.05064 33.3057 3.12338 33.4239 3.19612Z" fill="#BDF0FD"/>
<path opacity="0.4" d="M26.458 0.454645C25.7988 0.963841 25.1122 1.42303 24.3392 1.70036C21.3701 2.74603 17.9827 0.795625 15.0045 1.79583C12.6856 2.57326 11.1624 4.97831 8.80258 5.63753C8.23877 5.79666 7.67041 5.84212 7.10205 5.81939C7.37941 5.56479 7.66131 5.31929 7.95231 5.07833C8.04325 5.00104 8.13874 4.92375 8.23422 4.85101C8.23877 4.84646 8.24331 4.84192 8.25241 4.83737C8.42973 4.69188 8.61161 4.55549 8.79348 4.4191C8.82531 4.39637 8.85714 4.36909 8.88897 4.34636C8.9117 4.32817 8.93444 4.31453 8.95717 4.29635C9.04811 4.22815 9.13905 4.1645 9.22998 4.09631C9.30273 4.0463 9.37094 3.99629 9.44369 3.94628C9.52553 3.89172 9.60283 3.83716 9.68467 3.77806C9.76197 3.72805 9.83926 3.67349 9.91656 3.62348C10.1985 3.55074 10.4758 3.46436 10.7532 3.3507C11.7262 2.95971 12.581 2.32776 13.4495 1.72764C13.4722 1.71854 13.4904 1.70945 13.5131 1.70036C13.6041 1.66399 13.6996 1.62307 13.7905 1.59124C13.7996 1.5867 13.8041 1.58215 13.8132 1.58215C13.886 1.55487 13.9542 1.52305 14.0315 1.49577C14.036 1.49577 14.0406 1.49122 14.0451 1.49122C14.1088 1.46849 14.1679 1.44121 14.2315 1.41848C14.2952 1.39575 14.3588 1.36847 14.4225 1.34574C14.8408 1.19116 15.2637 1.05022 15.6911 0.922924C15.9321 0.850181 16.173 0.781986 16.4186 0.718336C16.505 0.695604 16.5868 0.677418 16.6687 0.654687C16.7369 0.636501 16.8005 0.622862 16.8687 0.604676C16.8824 0.60013 16.896 0.595583 16.9096 0.595583C16.946 0.586491 16.9824 0.581944 17.0188 0.572851C17.0506 0.568305 17.0824 0.559212 17.1142 0.550119C17.1142 0.550119 17.1188 0.550119 17.1233 0.550119C17.2006 0.531934 17.2779 0.513748 17.3598 0.500109C17.3734 0.495563 17.3871 0.495563 17.4052 0.491016C17.4871 0.472831 17.5689 0.454645 17.6508 0.441006C17.7281 0.427367 17.8054 0.409181 17.8827 0.395542C17.9145 0.390996 17.9463 0.386449 17.9781 0.377356C18.0464 0.368264 18.1146 0.354625 18.1828 0.340985C18.2737 0.327346 18.3646 0.309161 18.451 0.295521C18.7193 0.250057 18.9876 0.213686 19.2604 0.181862C19.3286 0.172769 19.3968 0.163676 19.465 0.15913C19.665 0.136398 19.8696 0.113666 20.0743 0.0954801C20.1561 0.0909337 20.2334 0.0818409 20.3107 0.0772945C20.3471 0.0772945 20.388 0.0727481 20.4244 0.0727481C21.3701 0.100026 22.3113 0.136398 23.2252 0.036377C23.6344 0.0591089 24.0482 0.0909337 24.4529 0.136398C24.7439 0.168222 25.0349 0.20914 25.3259 0.250057C25.4532 0.268243 25.5851 0.290975 25.7124 0.313707C25.7124 0.313707 25.7124 0.313707 25.7169 0.313707C25.8124 0.327346 25.9079 0.345532 26.0034 0.363717C26.1534 0.395542 26.3035 0.42282 26.458 0.454645Z" fill="#BDF0FD"/>
<path opacity="0.4" d="M43.4499 26.9101C43.4408 26.9647 43.4272 27.0192 43.4135 27.0738C43.2999 27.5693 43.1635 28.0513 43.018 28.5332C42.8952 28.9378 42.7542 29.3333 42.6087 29.7289C40.8809 29.8607 39.4123 30.6018 37.8982 31.261C36.8479 31.7202 35.7793 32.1385 34.5881 32.293C33.3922 32.4476 32.1782 32.3158 30.9688 32.0748C28.1861 31.5247 25.3852 30.3881 22.6298 30.7018C21.7841 30.7973 20.9975 31.0246 20.2427 31.311C18.3876 32.0066 16.6916 33.0432 14.6637 33.3251C14.4955 33.3478 14.3272 33.366 14.159 33.3796C10.9944 33.6069 8.02075 31.8429 4.87432 31.1746C3.81944 30.9519 2.85551 30.9246 1.9234 30.9791C1.85065 30.8155 1.7779 30.6472 1.7097 30.479C1.59148 30.2062 1.48236 29.9289 1.38232 29.647C3.39204 29.5652 5.71549 29.838 6.48391 30.0017C9.83949 30.7063 13.2678 31.9202 16.5734 31.5202C16.7098 31.5065 16.8417 31.4883 16.9735 31.4656C17.4464 31.3883 17.9011 31.2747 18.3467 31.1474C18.3467 31.1474 18.3467 31.1474 18.3512 31.1474C20.1654 30.62 21.8205 29.7652 23.7483 29.5016C26.6129 29.1106 29.632 30.0789 32.5693 30.3836C33.6469 30.4972 34.7108 30.5199 35.7566 30.3608H35.7612C38.6211 29.9107 40.6945 28.1513 43.1816 27.0329C43.268 26.9874 43.359 26.951 43.4499 26.9101Z" fill="#BDF0FD"/>
<path opacity="0.4" d="M39.2167 8.30626C38.2573 8.46539 37.2661 8.51994 36.3522 8.85638C34.5971 9.50651 33.3786 11.1114 31.8599 12.1889C31.478 12.4617 31.0778 12.6981 30.6459 12.8799C29.6092 13.3118 28.5271 13.38 27.4131 13.2937C25.558 13.1482 23.6346 12.5708 21.7568 12.5344C19.7789 12.498 17.7965 13.0982 16.1732 14.2257C15.323 14.8122 14.5636 15.5441 13.7498 16.1761C13.2041 16.5943 12.6358 16.9717 11.9992 17.2354C11.5127 17.4309 11.0171 17.5536 10.5124 17.6173C9.08012 17.79 7.60239 17.4854 6.18832 17.1854C5.14254 16.9626 4.10585 16.6853 3.04189 16.5625C2.71451 16.5216 1.3641 16.6807 0.654785 16.6671C0.682066 16.5489 0.713894 16.4307 0.745722 16.317C0.809378 16.0715 0.877581 15.8305 0.950331 15.5896C0.950331 15.585 0.950331 15.5805 0.954878 15.5759C1.00035 15.4259 1.05036 15.2759 1.09583 15.1259C1.48231 14.9258 1.89153 14.7803 2.1507 14.7394C4.41049 14.3893 6.72485 15.8942 8.95736 16.0124C13.1405 16.2397 16.4597 12.5253 20.5064 11.4478C22.7025 10.8659 25.0623 11.0659 27.3267 10.9295C28.0906 10.8795 28.8453 10.7977 29.5728 10.6249C30.1457 10.4976 30.7005 10.3158 31.237 10.0612C33.3513 9.0746 34.9109 7.11966 36.7251 5.66026C37.0661 5.96487 37.398 6.28767 37.7254 6.61955C37.9118 6.80595 38.0891 6.9969 38.2619 7.1924C38.4347 7.3788 38.6029 7.56975 38.7666 7.76524C38.9212 7.94255 39.0712 8.12441 39.2167 8.30626Z" fill="#BDF0FD"/>
<path opacity="0.4" d="M37.6388 37.4759C37.5205 37.5941 37.4023 37.7123 37.2796 37.8305C37.2295 37.8806 37.1795 37.926 37.1295 37.976C37.0295 38.0715 36.9249 38.167 36.8203 38.2625C36.8067 38.2761 36.793 38.2897 36.7749 38.3034C36.7521 38.3261 36.7248 38.3488 36.7021 38.367C36.6339 38.4307 36.5702 38.4852 36.5066 38.5443C36.3838 38.6534 36.2565 38.758 36.1292 38.8671C36.0383 38.9399 35.9473 39.0172 35.8609 39.0899L35.6018 39.2945C35.5745 39.3127 35.5517 39.3354 35.5245 39.3536C35.4153 39.44 35.3062 39.5263 35.1925 39.6082C35.0834 39.69 34.9788 39.7673 34.8697 39.8446C34.8652 39.8491 34.8606 39.8491 34.8561 39.8537C34.6651 39.9946 34.465 40.131 34.265 40.2674L34.0104 40.4356C33.9922 40.4493 33.9694 40.4629 33.9512 40.472C30.5456 40.6084 27.3538 38.3807 23.9663 37.4577C21.6656 36.8303 19.2012 36.8167 17.0233 37.4214C15.1272 37.9442 13.4222 38.9308 11.3988 39.0808C10.0166 39.1854 8.67524 38.8899 7.37483 38.4352C6.66097 37.8033 5.98804 37.1213 5.36512 36.3984C5.09685 36.0938 4.83768 35.7756 4.59215 35.4528C4.53304 35.38 4.47848 35.3073 4.42392 35.23C4.41482 35.2164 4.40118 35.1982 4.39209 35.1845C5.63793 35.862 6.86558 36.5939 8.15689 36.9895C12.9857 38.4579 17.7872 35.862 22.7842 36.0256C26.3762 36.1438 29.9773 37.7032 33.5102 37.9442C34.2332 37.9942 34.9516 37.9851 35.67 37.9033C36.3474 37.8214 37.0022 37.6669 37.6388 37.4759Z" fill="#BDF0FD"/>
<path opacity="0.4" d="M41.731 12.2662C41.0035 12.3207 40.2851 12.4526 39.6713 12.8299C38.1435 13.7619 37.7025 15.8942 36.1929 16.8489C35.5154 17.2763 34.7061 17.4127 33.9149 17.5445C31.7916 17.8946 29.6682 18.2447 27.5448 18.5948C26.3626 18.7902 25.1804 18.9857 23.98 19.0448C22.8024 19.1039 21.6157 19.0312 20.438 19.1403C18.9785 19.2813 17.5508 19.7132 16.2549 20.3997C15.3274 20.8952 14.4544 21.5317 13.445 21.8363C12.0081 22.2728 10.4668 22 9.00267 21.6999C6.06539 21.0953 3.41912 20.7088 0.427284 21.068C0.290878 21.0816 0.149925 21.0998 0.0180664 21.1044C0.0362539 20.5815 0.0771756 20.0632 0.131738 19.5586C0.140832 19.454 0.154472 19.3449 0.17266 19.2403C0.886517 19.0539 1.75952 19.1494 2.37334 19.2176C6.07449 19.6086 9.74381 21.2089 13.3949 20.477C15.4501 20.0678 17.2871 18.9448 19.2877 18.3174C24.0983 16.808 29.6272 18.1947 34.115 15.9078C36.6431 14.6212 38.5618 12.2889 40.7625 10.5249C40.8535 10.6658 40.9398 10.8113 41.0217 10.9568C41.2763 11.3796 41.5127 11.8206 41.731 12.2662Z" fill="#BDF0FD"/>
<path opacity="0.4" d="M22.8609 33.6933C22.8609 35.1073 21.0151 36.2484 18.7373 36.2484C16.4596 36.2484 14.6138 35.1027 14.6138 33.6933C14.6138 32.2794 16.4596 31.1383 18.7373 31.1383C21.0151 31.1383 22.8609 32.2839 22.8609 33.6933Z" fill="#1075BD"/>
<path opacity="0.4" d="M30.8638 20.7225C31.2093 21.3226 30.5001 22.3819 29.2771 23.0866C28.0541 23.7913 26.7811 23.8777 26.4356 23.2775C26.0901 22.6774 26.7993 21.6181 28.0223 20.9134C29.2452 20.2087 30.5182 20.1223 30.8638 20.7225Z" fill="#1075BD"/>
<path opacity="0.4" d="M32.3869 14.9713C31.7095 15.8533 30.0137 15.6805 28.5952 14.5894C27.1767 13.4982 26.572 11.9025 27.2494 11.025C27.9269 10.1476 29.6227 10.3158 31.0411 11.4069C32.4596 12.4935 33.0643 14.0893 32.3869 14.9713Z" fill="#1075BD"/>
<path opacity="0.4" d="M40.6842 33.6206C40.6614 33.6615 40.6341 33.7024 40.6069 33.7433C40.5614 33.8161 40.5159 33.8843 40.4705 33.957C40.3614 34.1343 40.2432 34.3071 40.1249 34.4753C40.0295 34.6072 39.9385 34.7435 39.8431 34.8708C39.7794 34.9618 39.7158 35.0527 39.6476 35.1391C39.5521 35.2618 39.4612 35.3846 39.3657 35.5073C39.3293 35.5573 39.2884 35.6074 39.252 35.6574C39.1975 35.7301 39.1429 35.7983 39.0838 35.8665C39.0384 35.9211 38.9883 35.9802 38.9429 36.0347C38.9065 36.0802 38.8701 36.1256 38.8338 36.1666C38.761 36.2529 38.6928 36.3348 38.6201 36.4166C38.5655 36.4848 38.5064 36.5485 38.4473 36.6121C38.4064 36.6621 38.3609 36.7076 38.32 36.7576C38.3109 36.7712 38.2973 36.7849 38.2837 36.7985C38.1973 36.8894 38.1154 36.9849 38.0291 37.0758C37.9745 37.1304 37.9245 37.1895 37.8654 37.2441C37.8563 37.2532 37.8472 37.2622 37.8381 37.2713C37.7926 37.3168 37.7472 37.3668 37.7017 37.4123C37.6835 37.4305 37.6653 37.4486 37.6472 37.4668C37.529 37.585 37.4108 37.7032 37.288 37.8215C37.238 37.8715 37.188 37.9169 37.138 37.9669C37.0379 38.0624 36.9334 38.1579 36.8288 38.2534C36.8152 38.267 36.8015 38.2806 36.7833 38.2943C36.7606 38.317 36.7333 38.3397 36.7106 38.3579C36.6424 38.4216 36.5788 38.4761 36.5151 38.5352C36.3924 38.6444 36.2651 38.7489 36.1378 38.858C36.0468 38.9308 35.9559 39.0081 35.8695 39.0808L35.6104 39.2854C35.5831 39.3036 35.5604 39.3263 35.5331 39.3445C35.0466 39.0854 34.5693 38.7762 34.101 38.4216C33.8964 38.2625 33.7009 38.1033 33.5145 37.9351C31.455 36.1029 30.4548 33.7433 30.9685 32.0703C31.0594 31.7702 31.2004 31.4929 31.3913 31.2428C31.6914 30.8518 32.0915 30.5654 32.5688 30.3745C33.4417 30.0289 34.5647 30.0244 35.7559 30.3517C36.456 30.5427 37.1834 30.8427 37.8927 31.2565C38.2746 31.4747 38.6519 31.7293 39.0202 32.0112C39.6612 32.5113 40.2204 33.0523 40.6842 33.6206Z" fill="#1075BD"/>
<path opacity="0.4" d="M16.0042 6.9969C17.068 8.25171 16.2906 10.6568 14.2675 12.3707C12.2443 14.0847 9.74379 14.4621 8.68448 13.2073C7.62063 11.9525 8.39806 9.54743 10.4212 7.83344C12.4398 6.1149 14.9403 5.7421 16.0042 6.9969Z" fill="#1075BD"/>
<path opacity="0.4" d="M29.7721 4.15086C29.5084 5.06014 28.1036 5.45113 26.6396 5.02377C25.1757 4.59641 24.2028 3.51436 24.4665 2.60509C24.7302 1.69581 26.1304 1.30482 27.5989 1.73218C29.0629 2.15954 30.0358 3.24158 29.7721 4.15086Z" fill="#1075BD"/>
<path opacity="0.4" d="M37.1659 19.7177C37.3978 20.1178 36.925 20.8225 36.1066 21.2953C35.2928 21.7681 34.4426 21.8227 34.2108 21.4226C33.9789 21.0225 34.4517 20.3178 35.2701 19.845C36.0839 19.3722 36.9341 19.3176 37.1659 19.7177Z" fill="#1075BD"/>
<path d="M4.29202 17.2187C4.64349 16.0108 4.44761 14.8917 3.85452 14.7191C3.26142 14.5465 2.49569 15.3858 2.14421 16.5937C1.79274 17.8016 1.98861 18.9207 2.58171 19.0933C3.17481 19.2659 3.94054 18.4266 4.29202 17.2187Z" fill="#1075BD"/>
<path opacity="0.4" d="M37.4476 14.9167C37.6113 15.2031 37.2748 15.7032 36.6929 16.0397C36.111 16.3761 35.5063 16.417 35.3426 16.1306C35.179 15.8442 35.5154 15.3441 36.0973 15.0077C36.6793 14.6712 37.2839 14.6303 37.4476 14.9167Z" fill="#1075BD"/>
<path opacity="0.4" d="M13.6632 16.0533C14.1042 16.5716 13.7814 17.5627 12.9449 18.272C12.1083 18.9812 11.0763 19.1358 10.6398 18.6175C10.1988 18.0992 10.5216 17.1081 11.3582 16.3988C12.1902 15.6896 13.2222 15.535 13.6632 16.0533Z" fill="#1075BD"/>
<path opacity="0.4" d="M4.97375 34.8117C4.79189 34.9663 4.61004 35.1027 4.42364 35.23C4.27815 35.0436 4.13721 34.8527 4.00537 34.6572C3.96445 34.6072 3.92808 34.5526 3.89171 34.498C3.70076 34.2253 3.5189 33.9525 3.34614 33.6706C2.70965 32.6568 2.15953 31.5929 1.6958 30.479C3.49617 29.0787 5.62389 28.815 6.5559 29.9062C7.52428 31.0519 6.81504 33.2478 4.97375 34.8117Z" fill="#1075BD"/>
<path opacity="0.1" d="M43.7681 18.7721C43.7181 18.4083 43.6544 18.0537 43.5817 17.6991C43.4862 17.2126 43.3725 16.7307 43.2452 16.2579C43.0815 15.6532 42.8905 15.0577 42.6814 14.4757C42.5495 14.1166 42.4131 13.7665 42.2631 13.4164C41.7902 12.3071 41.2309 11.2387 40.5944 10.2339C40.5262 10.1294 40.458 10.0203 40.3898 9.91568C40.0897 9.4565 39.7714 9.01095 39.4349 8.57905C39.2212 8.29717 38.9984 8.02438 38.7711 7.75615C38.4346 7.36516 38.089 6.98326 37.7253 6.615C37.2115 6.08762 36.6704 5.58752 36.1066 5.11469C36.0202 5.04195 35.9384 4.97375 35.852 4.90556C35.8429 4.89647 35.8293 4.88737 35.8202 4.87828C35.3473 4.49638 34.8562 4.13267 34.3515 3.79169C33.9287 3.50527 33.4967 3.23249 33.0557 2.97334C32.3782 2.57781 31.6734 2.21409 30.9459 1.89585C30.6186 1.75036 30.2821 1.60942 29.9456 1.48212C29.4455 1.29118 28.9362 1.10932 28.4179 0.954743C27.9314 0.804712 27.4357 0.672866 26.9356 0.559206C26.6264 0.486464 26.3127 0.422815 25.9989 0.363712C25.9035 0.345526 25.808 0.331887 25.7125 0.313701C25.7125 0.313701 25.7125 0.313701 25.7079 0.313701C25.5806 0.290969 25.4533 0.272784 25.3215 0.250052C24.2438 0.0863815 23.1299 0 22.0022 0C21.8658 0 21.7294 0 21.5976 0H21.5885C21.4748 0 21.3566 0.00454639 21.2384 0.00909279H21.1838L21.0565 0.0136392C20.9656 0.0136392 20.8792 0.0181856 20.7882 0.0272784H20.7791C20.6882 0.0318248 20.5973 0.0363712 20.5063 0.0454639C20.4427 0.0454639 20.379 0.0500103 20.3108 0.0545567C20.2335 0.0591031 20.1562 0.0681959 20.0744 0.0727423C19.9061 0.0863815 19.7425 0.104567 19.5742 0.122753C19.8789 0.154577 20.1835 0.195495 20.4836 0.240959C20.6109 0.259144 20.7428 0.281876 20.8655 0.304608C20.8655 0.304608 20.8655 0.304608 20.8701 0.304608C20.9656 0.318248 21.061 0.336433 21.1565 0.354619C21.4703 0.413722 21.784 0.477371 22.0932 0.550114C22.5933 0.663774 23.0889 0.795619 23.5755 0.94565C24.0938 1.10477 24.6031 1.28208 25.1032 1.47303C25.4397 1.60033 25.7761 1.74127 26.1035 1.88675C26.8265 2.20955 27.5312 2.56871 28.2133 2.96425C28.6543 3.22339 29.0863 3.49618 29.5091 3.7826C30.0138 4.12813 30.5049 4.48729 30.9778 4.86919C30.9868 4.87828 31.0005 4.88737 31.0096 4.89647C31.096 4.96466 31.1824 5.03286 31.2642 5.1056C31.828 5.57842 32.3691 6.07853 32.8829 6.60591C33.2466 6.97417 33.5922 7.35607 33.9287 7.74706C34.156 8.01529 34.3788 8.28808 34.5925 8.56995C34.9244 9.00186 35.2427 9.44741 35.5474 9.90659C35.6201 10.0112 35.6838 10.1157 35.752 10.2248C36.3931 11.2341 36.9523 12.298 37.4207 13.4073C37.5707 13.7574 37.7071 14.1075 37.839 14.4666C38.0481 15.0486 38.2391 15.6441 38.4028 16.2488C38.5301 16.7262 38.6438 17.2081 38.7392 17.69C38.812 18.0446 38.8711 18.4038 38.9257 18.763C39.0803 19.7995 39.1576 20.8543 39.1621 21.9318V21.9864C39.1621 22.0409 39.1621 22.0955 39.1621 22.15C39.1621 22.4183 39.1576 22.6865 39.1439 22.9502C39.1394 23.1502 39.1257 23.3548 39.1121 23.5549C39.0621 24.2596 38.9802 24.9552 38.8666 25.6371C38.8484 25.7508 38.8302 25.8599 38.8075 25.9735C38.7893 26.0781 38.7665 26.1781 38.7438 26.2827C38.4892 27.5648 38.1254 28.806 37.6571 29.9971C37.1888 31.1883 36.625 32.3294 35.9657 33.4114C35.902 33.516 35.8384 33.6206 35.7701 33.7251C35.6156 33.9752 35.4519 34.2162 35.2882 34.4571C35.1927 34.589 35.1018 34.7254 35.0063 34.8527C34.9426 34.9436 34.879 35.0345 34.8108 35.1209C34.7153 35.2436 34.6243 35.3664 34.5289 35.4891C34.4925 35.5392 34.4516 35.5892 34.4152 35.6392C34.3606 35.7119 34.3061 35.7801 34.2469 35.8483C34.2015 35.9029 34.1515 35.962 34.106 36.0165C34.0696 36.062 34.0332 36.1075 33.9969 36.1484C33.9241 36.2348 33.8559 36.3166 33.7832 36.3984C33.7286 36.4666 33.6695 36.5303 33.6104 36.5939C33.5695 36.6439 33.524 36.6894 33.4831 36.7394C33.474 36.753 33.4603 36.7667 33.4467 36.7803C33.3603 36.8713 33.2785 36.9667 33.1921 37.0577C33.1375 37.1122 33.0875 37.1713 33.0284 37.2259C32.9738 37.285 32.9193 37.3395 32.8647 37.3986C32.7283 37.535 32.5919 37.6714 32.4509 37.8078C32.4009 37.8578 32.3509 37.9033 32.3009 37.9533C32.2009 38.0488 32.0963 38.1442 31.9917 38.2397C31.9781 38.2534 31.9644 38.267 31.9462 38.2806C31.8553 38.3625 31.7644 38.4443 31.678 38.5216C31.5552 38.6307 31.4279 38.7353 31.3006 38.8444C31.2096 38.9171 31.1187 38.9944 31.0323 39.0672C30.9459 39.1354 30.8595 39.2036 30.7731 39.2717C30.6367 39.3763 30.5003 39.4809 30.3639 39.5855C30.2548 39.6673 30.1502 39.7446 30.0411 39.8219C30.0366 39.8264 30.032 39.8264 30.0275 39.831C29.8365 39.9719 29.6364 40.1083 29.4364 40.2447L29.1817 40.4129C29.0544 40.4947 28.9271 40.5766 28.7998 40.6584C28.7543 40.6857 28.7089 40.7175 28.6634 40.7448C28.5634 40.8084 28.4633 40.8675 28.3633 40.9266C28.3542 40.9312 28.3497 40.9357 28.3406 40.9403C28.2769 40.9766 28.2178 41.013 28.1542 41.0494C27.8813 41.2085 27.6085 41.354 27.3266 41.4995C27.2402 41.5449 27.1538 41.5904 27.0629 41.6359C26.9992 41.6677 26.9356 41.7041 26.8674 41.7313C26.7037 41.8132 26.54 41.8905 26.3763 41.9678C26.3309 41.9859 26.2899 42.0087 26.249 42.0269C26.1081 42.0905 25.9626 42.1542 25.8216 42.2133C25.7398 42.2496 25.6625 42.2815 25.5806 42.3133C25.4624 42.3633 25.3396 42.4133 25.2169 42.4633C25.1123 42.5042 25.0032 42.5452 24.8941 42.5861C24.7986 42.6224 24.6985 42.6588 24.5985 42.6952C24.4757 42.7406 24.353 42.7816 24.2302 42.8225C24.1256 42.8589 24.0165 42.8952 23.9119 42.927C23.4436 43.0771 22.9662 43.2135 22.4842 43.3317L22.3251 43.3726C22.266 43.3862 22.2023 43.3999 22.1432 43.4135C22.0704 43.4272 21.9977 43.4453 21.9204 43.4635C21.8658 43.4772 21.8113 43.4908 21.7522 43.4999C21.7249 43.5044 21.6976 43.509 21.6658 43.5181C21.5748 43.5363 21.4839 43.5545 21.393 43.5726C21.3611 43.5772 21.3293 43.5817 21.2975 43.5908C20.9292 43.6636 20.5563 43.7227 20.1835 43.7727C20.1062 43.7818 20.0244 43.7954 19.9471 43.8045C19.9107 43.809 19.8698 43.8136 19.8334 43.8181C19.7606 43.8272 19.6833 43.8363 19.606 43.8454C20.1107 43.9 20.6155 43.9409 21.1292 43.9591C21.4248 43.9682 21.7203 43.9773 22.0159 43.9773C22.6843 43.9773 23.3436 43.95 23.9983 43.8863C24.0756 43.8818 24.1529 43.8727 24.2257 43.8682C24.2757 43.8636 24.3257 43.8591 24.3757 43.8545C24.4757 43.8454 24.5758 43.8318 24.6758 43.8181C24.7122 43.8136 24.7531 43.809 24.7895 43.8045C24.8668 43.7954 24.9486 43.7863 25.0259 43.7727C25.3988 43.7227 25.7716 43.6636 26.1399 43.5908C26.1717 43.5863 26.2035 43.5817 26.2354 43.5726C26.3263 43.5545 26.4172 43.5363 26.5082 43.5181C26.5355 43.5135 26.5627 43.5044 26.5946 43.4999C26.6537 43.4908 26.7082 43.4772 26.7628 43.4635C26.8401 43.4499 26.9129 43.4317 26.9856 43.4135C27.0447 43.3999 27.1084 43.3862 27.1675 43.3726L27.3266 43.3317C27.8086 43.2135 28.286 43.0771 28.7543 42.927C28.8589 42.8952 28.968 42.8589 29.0726 42.8225C29.1954 42.7816 29.3181 42.7361 29.4409 42.6952C29.5409 42.6588 29.641 42.6224 29.7365 42.5861C29.8456 42.5452 29.9502 42.5042 30.0593 42.4633C30.1821 42.4133 30.3003 42.3678 30.423 42.3133C30.5049 42.2815 30.5867 42.2451 30.664 42.2133C30.805 42.1542 30.9505 42.0905 31.0914 42.0269C31.1323 42.0087 31.1778 41.9859 31.2187 41.9678C31.3824 41.8905 31.5461 41.8132 31.7098 41.7313C31.778 41.6995 31.8417 41.6677 31.9053 41.6359C31.9963 41.5904 32.0826 41.5449 32.169 41.4995C32.4509 41.354 32.7237 41.2085 32.9966 41.0494C33.0602 41.013 33.1193 40.9766 33.183 40.9403C33.1921 40.9357 33.1966 40.9312 33.2057 40.9266C33.3057 40.8675 33.4058 40.8084 33.5058 40.7448C33.5513 40.7175 33.5967 40.6857 33.6422 40.6584C33.7695 40.5766 33.8968 40.4947 34.0242 40.4129L34.2788 40.2447C34.4788 40.1083 34.6744 39.9719 34.8699 39.831C34.8744 39.831 34.879 39.8264 34.8835 39.8219C34.9926 39.7446 35.0972 39.6627 35.2063 39.5855C35.3427 39.4809 35.4792 39.3763 35.6156 39.2717C35.7019 39.2036 35.7883 39.1354 35.8747 39.0672C35.9657 38.9944 36.0566 38.9171 36.143 38.8444C36.2703 38.7398 36.3931 38.6307 36.5204 38.5216C36.6113 38.4398 36.6977 38.3625 36.7886 38.2806C36.8023 38.2715 36.8159 38.2534 36.8341 38.2397C36.9341 38.1442 37.0387 38.0488 37.1433 37.9533C37.1933 37.9078 37.2433 37.8578 37.2933 37.8078C37.4343 37.6714 37.5707 37.535 37.7071 37.3986C37.7617 37.3395 37.8162 37.285 37.8708 37.2259C37.9254 37.1713 37.9799 37.1122 38.0345 37.0577C38.1209 36.9667 38.2073 36.8713 38.2891 36.7803C38.2982 36.7667 38.3118 36.753 38.3255 36.7394C38.371 36.6939 38.4119 36.6439 38.4528 36.5939C38.5119 36.5303 38.571 36.4621 38.6256 36.3984C38.6983 36.312 38.7711 36.2302 38.8393 36.1484C38.8757 36.1029 38.9166 36.0574 38.9484 36.0165C38.9939 35.962 39.0439 35.9029 39.0894 35.8483C39.1485 35.7756 39.203 35.7074 39.2576 35.6392C39.2985 35.5892 39.3349 35.5392 39.3713 35.4891C39.4667 35.3709 39.5622 35.2436 39.6532 35.1209C39.7214 35.03 39.785 34.939 39.8487 34.8527C39.9442 34.7208 40.0397 34.589 40.1306 34.4571C40.2988 34.2162 40.458 33.9752 40.6126 33.7251C40.6808 33.6206 40.7444 33.516 40.8081 33.4114C41.4674 32.3294 42.0312 31.1928 42.4995 29.9971C42.9678 28.806 43.3316 27.5648 43.5862 26.2827C43.6089 26.1781 43.6271 26.0781 43.6499 25.9735C43.6681 25.8599 43.6908 25.7508 43.709 25.6371C43.8226 24.9552 43.9045 24.2596 43.9545 23.5549C43.9681 23.3548 43.9818 23.1548 43.9863 22.9502C44 22.6865 44.0045 22.4183 44.0045 22.15C44.0045 22.0955 44.0045 22.0409 44.0045 21.9864V21.9318C44 20.8679 43.9181 19.8086 43.7681 18.7721Z" fill="black"/>
<path opacity="0.2" d="M16.2276 5.72845C15.9639 6.36495 16.0366 7.09237 16.2367 7.7516C16.4368 8.41083 16.7551 9.02459 16.9778 9.67927C17.1597 10.2112 17.2779 10.784 17.1825 11.3387C16.9688 12.5571 15.8138 13.3437 14.7817 14.0256C13.7496 14.7076 12.6401 15.6078 12.5992 16.8489C12.5765 17.54 12.9175 18.2083 13.4222 18.6811C13.9224 19.154 14.5726 19.4495 15.2364 19.6313C16.6186 20.0087 18.2601 19.8586 19.2331 18.8084C19.6696 18.3401 19.9288 17.7355 20.2516 17.1854C21.2746 15.4259 23.1207 14.0529 25.1531 14.0165C26.3899 13.9938 27.6175 14.4484 28.8406 14.2666C29.1089 14.2257 29.3771 14.1529 29.6045 14.012C29.8455 13.862 30.0319 13.6346 30.1774 13.3891C30.6366 12.5935 30.623 11.5797 30.282 10.7295C29.941 9.87477 29.2998 9.17007 28.5724 8.60632C27.7084 7.938 26.6627 7.43335 25.5714 7.45608C24.9849 7.46518 24.4074 7.62885 23.8209 7.67886C23.2343 7.72887 22.5932 7.64249 22.1658 7.2424C21.793 6.89233 21.6429 6.37404 21.3838 5.93304C20.9154 5.14197 19.7196 4.05083 18.7511 4.14176C17.7508 4.2236 16.6277 4.76916 16.2276 5.72845Z" fill="url(#paint1_linear_187_35)"/>
<path opacity="0.2" d="M7.46576 28.2604C8.29329 29.4515 9.7983 30.1199 10.3758 31.4474C11.0851 33.0841 10.0802 34.9936 10.4258 36.744C10.6622 37.9306 11.5125 38.9308 12.5446 39.5582C13.5767 40.1901 14.7771 40.4902 15.9729 40.6675C17.3325 40.8721 18.7193 40.9357 20.0924 40.8539C20.879 40.8084 21.7111 40.6902 22.3204 40.1901C23.4389 39.2672 23.2798 37.4668 22.5977 36.1893C21.4474 34.0252 19.2467 32.6522 17.6053 30.8291C16.8459 29.988 16.173 28.9423 16.2458 27.8103C16.3094 26.7874 16.9778 25.8417 16.896 24.8188C16.8187 23.8549 16.0821 23.0684 15.2591 22.5592C13.554 21.5044 10.5804 21.1907 8.84801 22.4274C7.15658 23.6412 6.22902 26.4782 7.46576 28.2604Z" fill="url(#paint2_linear_187_35)"/>
<path opacity="0.2" d="M27.9495 23.3867C28.3042 24.9779 29.2863 26.4964 29.0408 28.1104C28.8771 29.1924 28.1814 30.1108 27.4767 30.9428C26.7719 31.7793 26.0126 32.6158 25.6716 33.6524C25.3305 34.689 25.5442 36.0074 26.4673 36.5894C27.1447 37.0213 28.0177 36.9622 28.8134 36.8394C30.0093 36.6576 31.2597 36.3302 32.0963 35.4619C32.9284 34.5981 33.2148 33.3478 33.283 32.1521C33.3512 30.9564 33.2285 29.7471 33.4103 28.565C33.6559 26.9374 34.4788 25.4053 35.6974 24.3005C36.3885 23.6776 37.216 23.1639 37.6844 22.3592C38.3391 21.2271 38.0936 19.7314 37.3343 18.672C36.1248 16.9762 32.4964 15.0122 30.6004 16.5398C28.6452 18.1037 27.3994 20.9089 27.9495 23.3867Z" fill="url(#paint3_linear_187_35)"/>
</g>
<defs>
<linearGradient id="paint0_linear_187_35" x1="38.1764" y1="32.7642" x2="1.54121" y2="8.38738" gradientUnits="userSpaceOnUse">
<stop stop-color="#50F5EF"/>
<stop offset="1" stop-color="#0F7FA7"/>
</linearGradient>
<linearGradient id="paint1_linear_187_35" x1="12.5948" y1="11.9693" x2="30.5238" y2="11.9693" gradientUnits="userSpaceOnUse">
<stop stop-color="white"/>
<stop offset="1" stop-color="white" stop-opacity="0.5"/>
</linearGradient>
<linearGradient id="paint2_linear_187_35" x1="6.89731" y1="31.2579" x2="23.1285" y2="31.2579" gradientUnits="userSpaceOnUse">
<stop stop-color="white"/>
<stop offset="1" stop-color="white" stop-opacity="0.5"/>
</linearGradient>
<linearGradient id="paint3_linear_187_35" x1="25.519" y1="26.4566" x2="38.0587" y2="26.4566" gradientUnits="userSpaceOnUse">
<stop stop-color="white"/>
<stop offset="1" stop-color="white" stop-opacity="0.5"/>
</linearGradient>
<clipPath id="clip0_187_35">
<rect width="44" height="44" fill="white"/>
</clipPath>
</defs>
</svg>
