<svg width="24" height="24" viewBox="0 0 24 24" fill="none" xmlns="http://www.w3.org/2000/svg">
    <path d="M24 11.972V12.197c0 .11-.003.22-.01.33-.002.11-.01.22-.017.33a12.153 12.153 0 0 1-.166 1.32c-.01.056-.023.11-.035.168a12.111 12.111 0 0 1-.59 2.026c-.072.184-.15.365-.229.54a5.014 5.014 0 0 1-.127.273v.006c-.036.079-.076.158-.116.235a7.71 7.71 0 0 1-.168.318c-.043.077-.085.156-.13.23-.029.052-.059.105-.089.154l-.06.102c-.034.057-.069.114-.106.17-.024.04-.05.078-.074.117-.06.097-.124.191-.189.283-.052.072-.101.146-.153.216-.035.05-.07.1-.107.146l-.154.201-.062.082c-.03.04-.06.077-.092.114l-.076.092c-.02.025-.04.05-.06.072-.04.047-.077.092-.117.136-.03.037-.061.072-.094.107-.022.027-.047.052-.07.08a.154.154 0 0 1-.02.021c-.046.05-.09.102-.138.152-.03.03-.057.062-.09.092l-.014.015c-.025.024-.05.052-.074.076l-.226.224a10.376 10.376 0 0 1-.25.236l-.026.021a.492.492 0 0 1-.04.035c-.036.035-.071.065-.106.097-.067.06-.136.117-.206.176-.05.04-.099.082-.146.122l-.141.111-.224.171c-.06.045-.116.087-.176.13l-.007.004c-.107.077-.213.151-.322.226l-.14.092-.208.134-.074.047-.164.099-.012.007-.102.06a9.805 9.805 0 0 1-.451.245l-.144.075c-.035.017-.07.037-.107.052-.09.044-.178.087-.268.129l-.07.032a9.248 9.248 0 0 1-.364.156c-.064.028-.131.055-.198.082l-.176.067-.161.06-.201.07c-.005 0-.008.002-.013.004a11.707 11.707 0 0 1-.94.273l-.086.022-.1.023c-.04.007-.079.017-.121.027a.99.99 0 0 1-.092.02.376.376 0 0 0-.047.01l-.149.03a.383.383 0 0 0-.052.01l-.03.004c-.19.037-.384.067-.578.095-.042.004-.086.012-.128.017l-.063.007c-.054.008-.109.013-.163.02l-.082.008c-.042.002-.082.007-.124.01a12.023 12.023 0 0 1-2.964-.097c-.149-.023-.292-.05-.439-.077a2.787 2.787 0 0 1-.151-.032 10.36 10.36 0 0 1-.499-.114c-.377-.097-.746-.211-1.108-.34a10.996 10.996 0 0 1-.618-.243c-.084-.038-.168-.072-.25-.11a11.815 11.815 0 0 1-1.19-.622c-.177-.104-.35-.213-.519-.325l-.22-.151a7.39 7.39 0 0 1-.226-.161l-.157-.114a12.883 12.883 0 0 1-.685-.56 11.23 11.23 0 0 1-1.133-1.147 9.325 9.325 0 0 1-.421-.516 8.782 8.782 0 0 1-.32-.431c-.02-.03-.042-.057-.06-.087A11.951 11.951 0 0 1 .4 15.03c-.027-.104-.052-.21-.077-.315-.089-.377-.158-.763-.208-1.155-.017-.142-.035-.28-.047-.424a2.715 2.715 0 0 1-.017-.199 9.35 9.35 0 0 1-.023-.372l-.002-.084c-.02-.1-.023-.204-.025-.305V12c0-.119 0-.238.005-.36a12.43 12.43 0 0 1 .154-1.597 11.662 11.662 0 0 1 .362-1.55 12.044 12.044 0 0 1 1.376-2.969A11.845 11.845 0 0 1 4.5 2.636c.097-.078.196-.152.295-.227l.052-.04c.013-.01.025-.017.037-.027l.15-.109.116-.082a4.2 4.2 0 0 0 .131-.092l.169-.111c.054-.037.111-.072.166-.107.042-.025.082-.052.121-.077l.028-.015a4.437 4.437 0 0 1 .258-.154c.015-.01.032-.017.047-.027l.09-.05.108-.059.047-.024c.033-.018.062-.035.095-.05l.094-.05.012-.007c.025-.013.05-.027.075-.037.077-.04.156-.077.233-.114.06-.035.121-.062.18-.09.088-.04.174-.08.264-.116L7.37.925c.05-.02.102-.042.151-.06.005-.002.008-.004.013-.004.04-.015.076-.033.119-.048L7.66.811c.035-.012.067-.027.102-.04.034-.012.07-.027.104-.04A11.308 11.308 0 0 1 8.956.39l.136-.034.11-.028c.007-.002.014-.005.022-.005.02-.005.04-.007.059-.012.017-.002.035-.007.052-.012h.005c.042-.01.084-.02.129-.028l.025-.005c.044-.01.09-.02.134-.027.042-.007.084-.017.126-.025.018-.002.035-.005.052-.01.038-.005.075-.012.112-.02.05-.007.1-.017.146-.024.147-.025.293-.045.442-.062A13.709 13.709 0 0 1 10.95.05c.044-.003.086-.008.129-.01.034-.003.07-.005.104-.005.05-.003.099-.008.149-.01h.005l.146-.008.07-.002h.03c.061-.003.126-.005.19-.005h.225a11.951 11.951 0 0 1 2.027.171h.002c.053.007.105.017.157.027.17.033.342.067.51.107a11.08 11.08 0 0 1 1.64.506c.183.07.367.146.546.226l.148.067c.343.158.678.332 1.002.52.241.142.477.29.707.447.112.077.226.156.335.238.151.109.3.223.444.34.007.005.015.01.022.017l.018.015c.047.037.094.074.139.114a11.972 11.972 0 0 1 1.813 1.892l.158.211c.124.169.246.342.362.518.04.058.075.115.112.174a11.967 11.967 0 0 1 1.389 3.083 12.033 12.033 0 0 1 .342 1.577c.015.104.03.209.042.31.005.05.013.097.018.146.005.04.01.08.012.12 0 .017.002.032.005.05l.017.232c.005.065.01.132.013.196v.03l.007.159c.003.05.003.101.005.151.008.092.01.203.01.318z" fill="url(#paint0_linear_187_20)"/>
    <path d="M20.873 3.921c-.209.208-.457.38-.74.496-1.066.442-2.45.21-3.246 1.05-.652.689-.59 1.812-1.148 2.578-.65.898-1.945 1.047-3.036.841-1.091-.208-2.13-.687-3.239-.741-1.106-.057-2.38.496-2.619 1.577-.087.394-.025.804-.084 1.203-.268 1.746-2.56 2.289-4.306 2.021-.843-.129-1.639-.297-2.44-.377l-.003-.084c-.007-.104-.01-.208-.012-.31V12c0-.119 0-.238.005-.36a12.43 12.43 0 0 1 .154-1.597c.047-.287.104-.57.17-.848 1.791-.28 3.29.784 4.807-.736 1.08-1.082.687-3.13 2.185-3.921 1.65-.873 3.631 1.135 5.422.602 1.79-.535 1.922-2.966 2.919-4.57a11.971 11.971 0 0 1 1.218.463l.148.067c.343.159.678.333 1.002.521.241.141.477.29.707.446.112.077.226.157.335.239.151.109.3.223.444.34.007.004.015.01.022.017l.018.015c.047.037.094.074.139.114.307.258.602.53.883.818.101.1.2.203.295.31zM24 11.971V12.198c-1.242.42-2.604.615-3.613 1.444-.566.46-.975 1.09-1.54 1.55-2.558 2.068-6.657-.219-9.564 1.314-.69.365-1.257.92-1.875 1.396-1.056.811-2.86 1.749-4.479 1.952a9.33 9.33 0 0 1-.422-.516 8.837 8.837 0 0 1-.32-.431c-.02-.03-.042-.057-.06-.087a8.922 8.922 0 0 1-.297-.451c.791-.538 1.838-.672 2.805-1.062 2.361-.947 3.004-3.013 5.092-4.134 1.104-.593 2.46-.404 3.673-.734 2.063-.56 3.4-2.488 4.655-4.219.967-1.337 2.15-2.718 3.621-3.328.124.168.246.342.362.518.04.057.075.114.112.174a11.983 11.983 0 0 1 1.389 3.083 12.097 12.097 0 0 1 .342 1.577c.015.104.03.208.042.31.005.05.013.097.018.146.004.04.01.08.012.12 0 .017.002.031.005.049l.017.233c.005.064.01.131.013.196v.03l.007.158c.002.05.002.102.005.152-.003.109 0 .22 0 .335zm-.32 2.796a12.111 12.111 0 0 1-.498 1.604c-.072.184-.15.365-.229.54-.015.036-.03.073-.047.107a5.014 5.014 0 0 1-.08.167v.005c-.036.079-.076.158-.116.235a7.71 7.71 0 0 1-.168.318c-.043.077-.085.156-.13.23a8.4 8.4 0 0 1-.089.154c-1.012.052-2.04-.06-3.028.181-.66.161-1.33.528-1.61 1.18-.133.313-.166.663-.265.99-.151.494-.496.955-.972 1.08-.476.123-1.054-.212-1.099-.732-.015-.201.042-.405-.005-.6-.106-.442-.664-.541-1.088-.46-1.243.241-2.27 1.24-3.517 1.446-1.36.224-2.76-.53-4.097-.186-.67.174-1.02.531-1.293.953l-.22-.152a7.39 7.39 0 0 1-.226-.16c-.052-.038-.104-.078-.156-.115.33-.412.746-.754 1.056-.927.87-.484 1.89-.598 2.87-.506.662.062 1.322.21 1.981.141 1.888-.203 3.299-2.13 5.184-2.351.528-.062 1.066.015 1.592-.052 1.101-.146 2.024-.905 2.969-1.523a13.704 13.704 0 0 1 3.281-1.567z" fill="#BDF0FD"/>
    <path d="M19.516 2.644c-.035.04-.072.077-.112.111-.426.377-1.029.47-1.562.673-.74.28-1.386.798-1.82 1.46-.539.826-.764 1.875-1.506 2.528-1 .877-2.515.699-3.822.448-1.307-.25-2.8-.476-3.849.343-1.242.972-1.27 2.993-2.544 3.92-.985.717-2.342.52-3.525.231-.253-.062-.513-.126-.776-.183V12c0-.119 0-.238.005-.36.01-.33.032-.657.07-.976.376.047.701.104.897.121 2.175.2 4.415-1.007 5.442-2.936.372-.697.65-1.533 1.356-1.89.757-.382 1.654-.038 2.478.17.96.244 1.999.284 2.921-.081 1.761-.694 2.65-2.607 3.495-4.298.109-.22.228-.444.367-.652.342.158.677.332 1.002.52.24.142.476.29.707.447.111.077.225.156.335.238.148.112.297.223.441.34zm4.415 8.053a3.73 3.73 0 0 1-.764.17c-.819.102-1.677.045-2.436.365-.352.15-.682.387-.846.732-.121.255-.143.546-.218.819-.104.386-.362.778-.754.863-.392.084-.853-.318-.697-.69.075-.176.25-.283.377-.426.127-.144.194-.387.045-.509a.403.403 0 0 0-.2-.074c-.497-.085-1.127.022-1.29.496-.13.377.114.774.166 1.168a1.273 1.273 0 0 1-.784 1.317 1.268 1.268 0 0 1-1.46-.464c-.093-.136-.16-.293-.284-.4-.208-.175-.508-.165-.78-.146-.61.045-1.221.092-1.816.236-1.79.439-3.22 1.734-4.742 2.773a18.992 18.992 0 0 1-4.943 2.41 8.843 8.843 0 0 1-.32-.431c-.02-.03-.042-.057-.06-.087.338-.067.67-.159.995-.268 1.143-.39 2.192-1.007 3.222-1.64.602-.369 1.212-.756 1.656-1.306.241-.298.43-.64.71-.903.645-.605 1.614-.655 2.495-.754 3.735-.419 7.38-2.473 9.196-5.766.27-.489.503-1.005.853-1.441.29-.36.685-.665 1.129-.769a11.967 11.967 0 0 1 1.153 2.693c.02.067.04.134.057.204a12.035 12.035 0 0 1 .285 1.374c.015.104.03.208.042.31.003.047.008.097.013.144zm-7.133 9.734a.595.595 0 0 1-.273.124c-.332.042-.556-.335-.645-.66-.087-.325-.179-.714-.494-.833-.146-.055-.31-.035-.463 0-.717.159-1.34.593-1.984.945-1.367.744-2.972 1.146-4.5.843-.391-.077-.778-.2-1.177-.218a2.32 2.32 0 0 0-1.908.875 5.521 5.521 0 0 0-.228.328c-.077-.052-.151-.107-.225-.161.111-.124.233-.24.34-.348.45-.46.991-.858 1.634-.99.692-.14 1.406.04 2.108.125a7.772 7.772 0 0 0 2.58-.122c.436-.094.872-.23 1.24-.488.371-.263.649-.638 1.006-.923.643-.508 1.483-.682 2.29-.838.267-.052.56-.102.798.027.293.156.407.516.434.843.045.544-.102 1.144-.533 1.471zm6.664-4.866a11.575 11.575 0 0 1-.511 1.35c-.184.143-.39.25-.613.31-.275.074-.565.071-.85.091a5.37 5.37 0 0 0-2.265.682c-.203.114-.406.246-.637.285-.23.043-.501-.034-.608-.243.263-.36.682-.573 1.111-.694.427-.122.873-.169 1.307-.268.464-.11.913-.28 1.33-.51.419-.232.8-.52 1.22-.75a4.36 4.36 0 0 1 .516-.253z" fill="#71DAF8"/>
    <path opacity=".1" d="M23.871 10.24a11.724 11.724 0 0 0-.82-2.922 12.162 12.162 0 0 0-.911-1.735l-.112-.174c-.163-.25-.337-.493-.52-.729a10.56 10.56 0 0 0-.363-.449 12.276 12.276 0 0 0-1.453-1.44 5.62 5.62 0 0 0-.139-.115l-.017-.015a11.704 11.704 0 0 0-.801-.593c-.231-.156-.467-.305-.707-.446-.37-.216-.754-.414-1.15-.588-.18-.08-.363-.156-.547-.225A11.77 11.77 0 0 0 14.69.305c-.169-.04-.34-.074-.511-.107l-.156-.027h-.003c-.07-.012-.139-.022-.208-.035C13.222.047 12.614 0 11.999 0h-.226a5.04 5.04 0 0 0-.191.005h-.03l-.07.005c-.049 0-.096.002-.146.007h-.005c-.05.003-.099.005-.148.01-.035 0-.07.003-.107.005-.042.003-.084.008-.129.01-.092.008-.18.018-.273.027a10.813 10.813 0 0 1 .707.1h.003c.052.007.104.017.156.027.171.032.342.067.51.107.274.062.544.133.81.215a13.193 13.193 0 0 1 1.378.514c.395.176.779.372 1.151.588a12.593 12.593 0 0 1 1.508 1.04l.017.014c.047.037.095.074.14.114.307.258.602.53.882.818.198.201.387.41.57.623a12.938 12.938 0 0 1 .883 1.178c.04.057.075.114.112.173a11.787 11.787 0 0 1 1.138 2.314c.114.318.219.643.308.972a12.343 12.343 0 0 1 .285 1.372c.085.565.127 1.14.13 1.729v.119c0 .146-.003.292-.01.436a12.149 12.149 0 0 1-.183 1.65l-.036.168a12.054 12.054 0 0 1-1.885 4.46c-.052.071-.102.145-.154.215-.034.05-.07.1-.106.146l-.154.201-.062.082c-.03.04-.06.077-.092.114l-.077.092c-.02.025-.04.05-.06.072-.039.047-.076.092-.116.136-.03.037-.062.072-.094.107-.022.027-.047.052-.07.08-.005.007-.012.014-.02.022-.046.05-.091.101-.138.15-.03.03-.057.063-.09.093l-.089.094-.225.223c-.028.027-.055.052-.082.08l-.169.156c-.008.007-.015.015-.025.022l-.146.131c-.067.06-.137.117-.206.177-.05.04-.1.081-.146.121a77.06 77.06 0 0 0-.142.112l-.223.17a7.87 7.87 0 0 1-.176.13c-.002.002-.005.002-.007.005-.107.077-.214.151-.323.225l-.139.092-.208.134-.075.047c-.054.035-.109.067-.163.1l-.013.007-.101.06a9.956 9.956 0 0 1-.595.32c-.035.017-.07.037-.107.051-.09.045-.179.087-.268.13-.025.01-.047.022-.07.032a9.983 9.983 0 0 1-.364.156l-.198.082-.177.067-.16.06-.202.069a11.687 11.687 0 0 1-.952.278l-.087.022-.099.022-.121.027a.987.987 0 0 1-.092.02.381.381 0 0 0-.047.01l-.15.03a10.079 10.079 0 0 1-.66.11c-.041.004-.086.011-.128.016l-.062.008-.124.015a11.443 11.443 0 0 0 1.315.072c.364 0 .724-.015 1.08-.05.043-.003.085-.008.125-.01l.082-.007c.054-.005.109-.013.164-.02l.061-.008c.043-.005.087-.01.13-.017.203-.027.406-.06.607-.1.017-.002.035-.004.052-.01l.149-.029c.015-.002.03-.007.047-.01a.987.987 0 0 0 .092-.02c.042-.007.082-.017.121-.027l.1-.022.086-.023a11.687 11.687 0 0 0 .953-.277l.2-.07.162-.06.176-.066c.067-.028.131-.052.198-.082l.132-.055c.077-.032.156-.067.233-.101l.07-.033c.089-.042.178-.084.267-.129a4.274 4.274 0 0 0 .25-.126c.155-.08.303-.159.452-.246l.102-.06.012-.007c.055-.032.11-.064.164-.099l.074-.047.209-.134.139-.092c.109-.074.215-.148.322-.225.002 0 .005-.003.007-.005.06-.042.117-.087.176-.13l.224-.17.141-.112c.05-.04.1-.082.146-.122.07-.056.137-.116.206-.176l.146-.131c.008-.005.015-.015.025-.022l.169-.157c.027-.024.054-.052.082-.079.077-.074.151-.149.226-.223l.089-.094.089-.092.139-.151c.005-.008.012-.015.02-.023.025-.025.047-.052.07-.08.031-.034.064-.071.093-.106.04-.047.08-.091.117-.136l.06-.072.076-.092.092-.114c.023-.027.042-.054.062-.082a6.23 6.23 0 0 0 .154-.2l.107-.147a11.498 11.498 0 0 0 .416-.615c.037-.057.072-.114.107-.171a11.944 11.944 0 0 0 1.515-3.889c.013-.057.023-.112.035-.169l.032-.183a12.115 12.115 0 0 0 .161-1.902v-.12a12.82 12.82 0 0 0-.131-1.726z" fill="#000"/>
    <path opacity=".3" d="M3.668 5.994c-.017.608.179 1.2.404 1.764.204.508.44 1.046.325 1.582-.156.73-.888 1.158-1.354 1.739a2.646 2.646 0 0 0-.548 1.232c-.06.367-.015.804.285 1.022.325.238.781.114 1.153-.037.603-.246 1.223-.588 1.488-1.18.164-.368.167-.787.167-1.189v-2.8c0-.335.002-.68.134-.984.285-.66 1.073-.943 1.79-1.005.724-.062 1.456.025 2.183.015.729-.01 1.485-.131 2.078-.555.593-.425.965-1.218.722-1.903-.214-.605-.824-.974-1.424-1.198-.536-.198-1.138-.32-1.674-.124-.513.189-.885.635-1.359.906-.908.518-1.848-.052-2.75.37-.91.423-1.59 1.324-1.62 2.345z" fill="url(#paint1_linear_187_20)"/>
    <path opacity=".3" d="M10.627 16.57c-.51-.186-1.071-.206-1.61-.132-.428.06-.86.184-1.207.444-.347.258-.603.67-.593 1.104.02.99 1.3 1.597 1.342 2.587.007.173-.025.352.015.52.096.397.54.588.935.692.558.147 1.237.204 1.634-.218.186-.198.27-.469.41-.702.235-.397.637-.69 1.086-.791.454-.104.994-.042 1.314-.382.275-.293.243-.784.012-1.111-.23-.327-.612-.518-.997-.633-.483-.146-.9-.143-1.23-.495-.354-.38-.605-.7-1.11-.883z" fill="url(#paint2_linear_187_20)"/>
    <path opacity=".3" d="M14.819 7.983c-.422.462-.605 1.112-.56 1.734.01.122.029.25.106.342a.507.507 0 0 0 .295.152c.449.091.945-.11 1.203-.486.159-.234.245-.534.486-.678.161-.094.357-.099.543-.094.337.01.675.037 1.01.087.305.045.647.097.895-.087.198-.146.28-.416.233-.66-.047-.24-.206-.45-.402-.6-.595-.449-1.34-.315-2.029-.3-.682.015-1.282.047-1.78.59z" fill="url(#paint3_linear_187_20)"/>
    <path opacity=".3" d="M3.53 15.265c-.34.342-.507.83-.527 1.312a.788.788 0 0 0 .055.372c.082.176.268.285.451.35.37.129.816.116 1.114-.14.236-.2.35-.522.603-.698.347-.239.81-.127 1.23-.085.483.05 1.004-.02 1.384-.32.382-.302.565-.878.32-1.297-.231-.39-.727-.523-1.176-.565-.804-.077-1.133.21-1.79.543-.559.283-1.156.017-1.665.528z" fill="url(#paint4_linear_187_20)"/>
    <defs>
        <linearGradient id="paint0_linear_187_20" x1="20.823" y1="17.871" x2=".839" y2="4.574" gradientUnits="userSpaceOnUse">
            <stop stop-color="#19A0E4"/>
            <stop offset="1" stop-color="#46B9D6"/>
        </linearGradient>
        <linearGradient id="paint1_linear_187_20" x1="2.471" y1="7.871" x2="12.571" y2="7.871" gradientUnits="userSpaceOnUse">
            <stop stop-color="#fff"/>
            <stop offset="1" stop-color="#fff" stop-opacity=".5"/>
        </linearGradient>
        <linearGradient id="paint2_linear_187_20" x1="7.215" y1="19.144" x2="14.146" y2="19.144" gradientUnits="userSpaceOnUse">
            <stop stop-color="#fff"/>
            <stop offset="1" stop-color="#fff" stop-opacity=".5"/>
        </linearGradient>
        <linearGradient id="paint3_linear_187_20" x1="14.253" y1="8.799" x2="19.047" y2="8.799" gradientUnits="userSpaceOnUse">
            <stop stop-color="#fff"/>
            <stop offset="1" stop-color="#fff" stop-opacity=".5"/>
        </linearGradient>
        <linearGradient id="paint4_linear_187_20" x1="3.002" y1="15.78" x2="8.271" y2="15.78" gradientUnits="userSpaceOnUse">
            <stop stop-color="#fff"/>
            <stop offset="1" stop-color="#fff" stop-opacity=".5"/>
        </linearGradient>
    </defs>
</svg>
