<svg width="24" height="24" viewBox="0 0 24 24" fill="none" xmlns="http://www.w3.org/2000/svg">
    <g clip-path="url(#clip0_187_79)">
        <path d="M24 11.972v.118c0 .147-.003.293-.01.437-.002.11-.01.22-.017.33a12.153 12.153 0 0 1-.166 1.32c-.01.056-.023.11-.035.168a11.84 11.84 0 0 1-.593 2.026 12.049 12.049 0 0 1-1.03 2.034c-.084.136-.173.268-.262.4-.052.071-.102.146-.154.215-.035.05-.07.1-.107.146l-.153.201-.062.082c-.03.04-.06.077-.092.114l-.077.092c-.02.025-.04.05-.06.072-.04.047-.076.091-.116.136-.03.037-.062.072-.094.107-.023.027-.047.052-.07.08-.005.007-.012.014-.02.021-.047.05-.091.102-.138.152-.03.03-.057.062-.09.092l-.089.094c-.074.074-.149.149-.226.223l-.081.08c-.055.052-.112.104-.17.156-.007.007-.014.015-.024.022l-.146.131c-.067.06-.137.117-.206.177-.05.04-.1.081-.146.121l-.142.112-.223.17c-.06.045-.117.088-.176.13l-.008.005c-.106.076-.213.15-.322.225l-.139.092-.208.134-.075.047c-.054.035-.109.067-.163.1l-.013.007-.101.06a9.957 9.957 0 0 1-.596.32c-.034.017-.069.037-.106.051-.09.045-.179.087-.268.13-.025.01-.047.022-.07.032a9.572 9.572 0 0 1-.364.156l-.198.082-.177.067a11.368 11.368 0 0 1-1.314.406l-.087.023-.099.022c-.04.007-.08.017-.122.027-.03.008-.06.015-.091.02a.422.422 0 0 0-.047.01l-.15.03a10 10 0 0 1-.66.11c-.041.004-.086.011-.128.016l-.062.008c-.055.007-.11.012-.164.02l-.082.007-.123.01a11.983 11.983 0 0 1-2.912-.09l-.052-.007c-.149-.022-.293-.05-.44-.077a13.76 13.76 0 0 1-.649-.146c-.377-.097-.746-.21-1.109-.34a10.995 10.995 0 0 1-.617-.243c-.084-.037-.169-.072-.25-.109a11.814 11.814 0 0 1-1.191-.622 12.009 12.009 0 0 1-3.678-3.41 11.752 11.752 0 0 1-1.803-3.87c-.027-.104-.052-.21-.077-.315-.09-.377-.159-.763-.21-1.155-.018-.142-.036-.28-.048-.424a2.71 2.71 0 0 1-.017-.199C.012 12.631 0 12.316 0 12c0-.12 0-.238.005-.36a11.907 11.907 0 0 1 .51-3.14c0-.002 0-.005.003-.007a12.044 12.044 0 0 1 1.376-2.969c.065-.104.135-.206.204-.307a11.849 11.849 0 0 1 2.694-2.81c.017-.013.034-.028.052-.04.012-.01.024-.017.037-.027.05-.037.1-.072.149-.11.082-.056.163-.116.248-.173l.168-.112c.055-.037.112-.072.166-.106.043-.025.082-.052.122-.077a.27.27 0 0 1 .027-.015c.025-.015.05-.03.075-.047.06-.037.121-.072.183-.107.015-.01.032-.017.047-.027.03-.017.06-.035.09-.05l.109-.06.047-.024c.032-.017.062-.035.094-.05l.094-.05.013-.007c.025-.012.05-.027.074-.037.077-.04.156-.077.233-.114A8.411 8.411 0 0 1 7.266.97l.105-.045.164-.067c.04-.015.076-.032.119-.047L7.66.809c.035-.013.067-.028.102-.04l.104-.04c.357-.131.72-.245 1.089-.342.047-.013.091-.022.136-.035l.11-.027c.007-.003.014-.005.022-.005l.059-.012C9.3.305 9.318.3 9.335.295h.005c.042-.01.084-.02.129-.027.007-.003.015-.003.025-.005.044-.01.09-.02.134-.027.042-.008.084-.018.126-.025A.385.385 0 0 0 9.806.2c.038-.005.075-.013.112-.02.05-.007.1-.017.146-.025.147-.025.293-.044.442-.062.037-.005.074-.01.111-.012.11-.013.221-.025.333-.035.044-.002.087-.007.129-.01.034-.002.07-.005.104-.005.05-.002.099-.007.149-.01h.005l.146-.007.07-.003h.03c.061-.002.126-.005.19-.005h.225a12.171 12.171 0 0 1 2.027.172h.002c.053.007.105.017.157.027.17.032.342.067.51.106.273.062.544.134.81.216a13.193 13.193 0 0 1 1.378.514c.394.176.779.372 1.15.587a12.625 12.625 0 0 1 1.508 1.04l.018.014c.047.038.094.075.139.115a12.32 12.32 0 0 1 1.453 1.44 12.938 12.938 0 0 1 .883 1.178c.04.058.075.115.112.174a11.796 11.796 0 0 1 1.138 2.314c.114.318.218.642.308.972a12.165 12.165 0 0 1 .285 1.374c.08.556.124 1.134.124 1.722z" fill="url(#paint0_linear_187_79)"/>
        <path d="M23.053 7.319c-.263.508-.63.962-1.107 1.272-.865.568-1.961.605-2.998.623-1.178.022-2.555-.055-3.222-1.025-.354-.513-.421-1.18-.761-1.706-.484-.751-1.543-1.071-2.364-.714-1.002.439-1.493 1.659-2.502 2.083a1.914 1.914 0 0 1-1.92-.285 1.908 1.908 0 0 1-.64-1.833c.191-.91 1.035-1.59 1.181-2.51.134-.833-.625-1.647-1.066-2.415L7.66.806c.035-.012.067-.027.102-.04.034-.012.07-.027.104-.04.357-.13.72-.245 1.089-.342L9.092.35l.11-.028c.007-.002.014-.005.021-.005l.06-.012c.017-.002.035-.007.052-.012h.005c.042-.01.084-.02.129-.028L9.494.26c.044-.01.09-.02.134-.027.042-.007.084-.017.126-.025a.385.385 0 0 0 .052-.01c.038-.005.075-.012.112-.02.05-.007.1-.017.146-.024.147-.025.293-.045.442-.062a13.648 13.648 0 0 1 .444-.047c.044-.003.086-.008.129-.01.034-.003.07-.005.104-.005.05-.003.099-.008.149-.01h.004l.147-.008.07-.002h.03c.061-.003.126-.005.19-.005h.225a12.172 12.172 0 0 1 2.027.171h.002a11.651 11.651 0 0 1 .667.134c.273.062.544.134.81.216a13.17 13.17 0 0 1 1.378.513c.394.176.779.372 1.15.588a12.594 12.594 0 0 1 1.508 1.04l.018.014c.047.037.094.074.139.114.308.258.603.53.883.819.198.2.387.409.57.622a12.837 12.837 0 0 1 .883 1.178c.04.057.075.114.112.174.345.543.65 1.126.908 1.73zM11.515 23.99a12.022 12.022 0 0 1-1.347-.129l-.052-.007c-.148-.023-.292-.05-.439-.077a13.76 13.76 0 0 1-.65-.146c-.376-.097-.746-.211-1.108-.34a10.996 10.996 0 0 1-.618-.243c-.084-.038-.168-.072-.25-.11.032-.371.1-.741.193-1.096.362-1.369 1.06-2.728.826-4.124-.24-1.458-1.47-2.58-2.817-3.182-1.35-.603-2.837-.791-4.276-1.126a6.618 6.618 0 0 1-.927-.27 2.71 2.71 0 0 1-.018-.199C.012 12.631 0 12.316 0 12c0-.12 0-.238.005-.36a11.907 11.907 0 0 1 .51-3.14c0-.002 0-.005.003-.007a12.044 12.044 0 0 1 1.376-2.969c.065-.104.135-.206.204-.307.722.764 1.382 1.63 2.118 2.296C5.994 9.13 7.21 9.095 9.506 8.931c.841-.062 1.803.134 2.247.848.67 1.079-.253 2.418-1.11 3.358-.857.94-1.74 2.329-1.005 3.368.518.734 1.622.858 2.155 1.582.878 1.193-.375 2.786-.464 4.264-.03.54.1 1.096.186 1.64zM24 11.972v.118c0 .147-.003.293-.01.437-.002.11-.01.22-.017.33a12.149 12.149 0 0 1-.167 1.32c-.01.056-.022.11-.034.168a11.84 11.84 0 0 1-.593 2.026 12.054 12.054 0 0 1-1.03 2.034c-.084.136-.173.268-.262.4-.052.071-.102.146-.154.215-.035.05-.07.1-.107.146l-.153.201c-.02.027-.043.055-.062.082-.03.04-.06.077-.092.114l-.077.092c-.02.025-.04.05-.06.072-.04.047-.076.091-.116.136-.03.037-.062.072-.094.107-.023.027-.047.052-.07.08-.005.007-.012.014-.02.021-.047.05-.091.102-.139.152-.03.03-.056.062-.089.092l-.09.094c-.073.074-.148.149-.225.223l-.082.08c-.054.052-.111.104-.168.156a50.392 50.392 0 0 1-.171.154c-.067.059-.137.116-.206.175-.05.04-.1.082-.146.122l-.142.112-.223.17c-.06.045-.117.088-.176.13l-.008.005c-.106.076-.213.151-.322.225l-.139.092-.208.134-.075.047c-.054.035-.109.067-.163.1l-.013.007-.101.06a10.011 10.011 0 0 1-.596.32c-.034.017-.07.037-.106.051-.09.045-.179.087-.268.13-.025.01-.047.022-.07.032a9.572 9.572 0 0 1-.364.156l-.199.082-.176.067a11.368 11.368 0 0 1-1.314.406l-.087.023-.1.022c-.867-1.942-1.51-4.313-.287-6.04.34-.478.809-.877 1.04-1.418.664-1.572-.918-3.685.22-4.955.62-.69 1.721-.652 2.6-.352.877.3 1.7.803 2.623.885 1.337.117 2.034-1.173 2.969-1.575.074.57.119 1.149.119 1.737z" fill="#1BCC84"/>
        <path d="M22.028 5.41c-.044.979-.372 1.968-1.22 2.387-.365.179-.779.226-1.183.234-1.14.017-2.314-.29-3.19-1.022-.714-.598-1.185-1.431-1.847-2.088-.662-.655-1.67-1.126-2.517-.74-.573.263-.92.846-1.412 1.243-.488.397-1.354.518-1.651-.037-.266-.494.131-1.062.374-1.568.305-.63.37-1.371.186-2.048-.141-.514-.33-1.027-.285-1.463C9.3.305 9.318.3 9.335.295h.005c.042-.01.084-.02.129-.027.007-.003.015-.003.025-.005.044-.01.089-.02.134-.027.042-.008.084-.018.126-.025A.385.385 0 0 0 9.806.2c.037-.005.075-.013.112-.02.05-.007.1-.017.146-.025.146-.025.293-.044.442-.062.037-.005.074-.01.111-.012.11-.013.221-.025.333-.035.044-.002.086-.007.129-.01.034-.002.069-.005.104-.005.05-.002.099-.007.149-.01h.004l.147-.007.07-.003h.029c.062-.002.127-.005.191-.005h.225a12.172 12.172 0 0 1 2.027.172h.002c1.045.525 2.061 1.133 3.205 1.349.26.05.526.08.796.104a12.596 12.596 0 0 1 1.508 1.04l.017.014c.047.037.094.074.139.114a12.271 12.271 0 0 1 1.453 1.44c.124.147.246.296.362.45a8.6 8.6 0 0 1 .521.72zM10.402 21.454c-.035.707.067 1.439-.157 2.111-.032.1-.077.193-.129.285-.149-.022-.292-.05-.439-.077a13.76 13.76 0 0 1-.65-.146c-.376-.097-.746-.21-1.108-.34 0-.096.01-.193.027-.288.107-.61.442-1.153.643-1.74.597-1.756-.057-3.669-.747-5.387-.278-.695-.583-1.416-1.156-1.893-1.155-.96-2.87-.59-4.347-.853-.452-.08-.908-.235-1.225-.565-.315-.33-.447-.87-.199-1.258.102-.156.25-.275.36-.426.642-.905-1.034-2.52-.293-2.962.682-.406 2.383 1.335 3.11 1.486 1.322.278 2.696.02 4.045.097.342.02.712.072.953.315.315.315.292.843.114 1.255-.179.409-.482.749-.692 1.143-.444.819-.462 1.82-.214 2.718.248.898.74 1.709 1.28 2.468.345.484.717.97.876 1.543.225.816-.01 1.674-.053 2.514zm13.588-8.93c-.002.109-.01.22-.017.33a12.149 12.149 0 0 1-.167 1.319c-.317.173-.699.3-1.007.488-1.078.665-1.227 2.158-1.135 3.42.022.308.052.62.07.935-.036.05-.07.1-.108.147-.052.067-.101.134-.153.2-.02.028-.043.055-.062.082-.03.04-.06.077-.092.115l-.077.091c-.02.025-.04.05-.06.072-.04.047-.076.092-.116.137-.03.037-.062.072-.094.106-.023.028-.047.052-.07.08-.005.007-.012.015-.02.022-.047.05-.091.102-.139.151-.03.03-.056.062-.089.092l-.09.094c-.073.075-.148.15-.225.224l-.082.079a9.935 9.935 0 0 1-.168.156l-.025.023-.146.13c-.067.06-.137.117-.206.177-.05.04-.1.082-.146.122l-.142.111-.223.171a7.87 7.87 0 0 1-.176.13l-.008.004c-.106.077-.213.151-.322.226l-.139.092-.208.134c-.025.014-.05.032-.075.047-.054.034-.109.067-.163.099l-.013.007-.101.06a10.01 10.01 0 0 1-.596.32c-.034.017-.07.037-.106.052l-.268.129c-.025.01-.047.022-.07.032a9.983 9.983 0 0 1-.364.156c-.065.028-.132.055-.199.082-1.185-.59-1.87-2.148-1.366-3.4.382-.945 1.287-1.634 1.55-2.62.263-.984-.176-2-.327-3.01-.058-.384-.067-.796.114-1.138.25-.474.82-.707 1.356-.705 1.27.005 2.188.88 3.49.444.654-.218 1.297-.558 1.986-.526.276.02.566.134.794.31z" fill="#15BA73"/>
        <path opacity=".1" d="M23.87 10.24a12.035 12.035 0 0 0-.593-2.346A12.151 12.151 0 0 0 22.14 5.58l-.11-.173c-.165-.25-.338-.494-.522-.73a10.638 10.638 0 0 0-.362-.448 12.276 12.276 0 0 0-1.453-1.441 5.616 5.616 0 0 0-.139-.114l-.017-.015a11.706 11.706 0 0 0-.801-.593c-.231-.156-.467-.305-.707-.446a11.15 11.15 0 0 0-1.151-.588 11.787 11.787 0 0 0-2.187-.73 11.68 11.68 0 0 0-.511-.106c-.052-.01-.104-.017-.157-.027h-.002c-.07-.013-.139-.023-.208-.035A12.478 12.478 0 0 0 11.999 0h-.226c-.062 0-.127.002-.191.005h-.03l-.07.005c-.049 0-.096.002-.146.007h-.005c-.05.003-.099.005-.148.01-.035 0-.07.003-.104.005-.043.003-.085.008-.13.01-.091.008-.18.018-.272.027a10.849 10.849 0 0 1 .707.1h.002c.052.007.104.017.156.027.171.032.343.067.511.107.273.062.543.133.809.215a13.17 13.17 0 0 1 1.379.514c.394.176.778.372 1.15.588A12.59 12.59 0 0 1 16.9 2.66l.018.014c.047.037.094.074.139.114a12.276 12.276 0 0 1 1.453 1.44 12.889 12.889 0 0 1 .883 1.178c.04.058.074.115.111.174a11.797 11.797 0 0 1 1.139 2.314 12.165 12.165 0 0 1 .722 4.075v.119c0 .146-.003.293-.01.437a12.149 12.149 0 0 1-.183 1.65c-.01.056-.023.11-.036.167a12.045 12.045 0 0 1-1.515 3.889c-.035.057-.07.114-.107.171-.084.137-.173.268-.263.4-.052.072-.101.146-.153.215-.035.05-.07.1-.107.147l-.154.2-.062.082c-.03.04-.06.077-.091.115l-.077.091c-.02.025-.04.05-.06.072l-.116.137c-.03.037-.062.072-.095.106-.022.028-.047.052-.07.08a.154.154 0 0 1-.019.022c-.047.05-.092.102-.139.151-.03.03-.057.062-.09.092l-.088.094-.226.224-.082.079a9.944 9.944 0 0 1-.193.178l-.147.132c-.067.06-.136.117-.206.176-.05.04-.099.082-.146.122l-.141.111-.224.171c-.059.045-.116.087-.176.13l-.007.004c-.104.077-.213.151-.322.226l-.14.092-.208.134c-.024.014-.05.032-.074.047l-.164.099-.012.007-.102.06a9.902 9.902 0 0 1-.451.245l-.144.075c-.035.017-.07.037-.107.052-.089.044-.178.087-.268.129-.024.01-.047.022-.069.032a9.626 9.626 0 0 1-.364.156c-.065.028-.132.055-.199.082-.057.023-.117.045-.176.067l-.161.06-.201.07a11.648 11.648 0 0 1-.952.278l-.087.021-.1.023c-.04.007-.079.017-.121.027-.03.007-.06.015-.092.02-.015.002-.03.005-.047.01l-.149.03a9.932 9.932 0 0 1-.66.11c-.042.003-.086.01-.128.016l-.062.007-.124.015a11.452 11.452 0 0 0 1.314.072c.365 0 .724-.015 1.081-.05.042-.002.085-.007.124-.01l.082-.007c.055-.005.11-.012.164-.02l.062-.007c.042-.005.087-.01.129-.018a9.92 9.92 0 0 0 .66-.109l.148-.03c.015-.002.03-.007.047-.01.033-.004.063-.012.092-.02.042-.007.082-.017.122-.026l.099-.023.087-.022a11.648 11.648 0 0 0 .952-.278c.067-.022.134-.047.201-.07.055-.02.11-.039.161-.059l.176-.067c.067-.027.132-.052.199-.082.044-.017.09-.037.131-.054.077-.033.156-.067.233-.102l.07-.032c.09-.042.178-.085.268-.13.037-.016.072-.034.106-.051l.144-.075c.154-.079.303-.158.451-.245l.102-.06.013-.007c.054-.032.109-.065.163-.1.025-.014.05-.032.075-.046l.208-.134.139-.092c.109-.075.216-.149.322-.226.003 0 .005-.002.008-.005.06-.042.116-.087.176-.129l.223-.17.141-.112c.05-.04.1-.082.147-.122.07-.057.136-.117.206-.176l.146-.131.025-.023c.054-.052.111-.104.168-.156.028-.025.055-.052.082-.08.077-.074.151-.148.226-.223l.09-.094.088-.092c.048-.05.095-.101.14-.151.004-.007.012-.015.02-.022.024-.025.046-.052.069-.08.032-.034.064-.072.094-.106.04-.047.08-.092.116-.137.02-.024.043-.05.06-.072l.077-.091a18.664 18.664 0 0 0 .154-.196c.052-.065.104-.134.153-.201.038-.05.072-.1.107-.147.052-.072.104-.143.154-.215.092-.132.178-.263.263-.4a11.926 11.926 0 0 0 1.622-4.06l.034-.168c.01-.062.023-.122.033-.184.062-.372.106-.751.134-1.136.007-.109.014-.218.017-.33.007-.143.01-.29.01-.436v-.119a13.248 13.248 0 0 0-.134-1.729z" fill="#000"/>
        <path opacity=".3" d="M9.342 11.223c-.223.49-.225 1.07-.047 1.582.085.238.204.464.253.71.085.438-.072.892-.295 1.281-.129.224-.28.442-.32.695-.062.394.196.803.566.95.37.146.818.034 1.098-.248.174-.174.283-.4.402-.615.288-.529.655-1.047 1.198-1.303.511-.243 1.109-.218 1.664-.106.484.097.992.253 1.461.092.365-.127.645-.434.819-.78.26-.51.31-1.147.034-1.65-.382-.703-1.341-.97-2.086-.683-.263.102-.5.258-.77.332a1.693 1.693 0 0 1-.733.02 2.14 2.14 0 0 1-.86-.364c-.342-.243-.794-.908-1.255-.89-.476.012-.955.595-1.129.976z" fill="url(#paint1_linear_187_79)"/>
        <path opacity=".3" d="M6.443 3.167c-.558.417-1.034 1.042-.992 1.736.01.151.052.318.174.41a.554.554 0 0 0 .258.089c.702.084 1.334-.395 2.011-.603.856-.263 1.783-.084 2.642.179.855.262 1.698.61 2.591.687.402.034.846 0 1.139-.278.24-.228.33-.59.277-.92-.052-.33-.228-.628-.446-.88-.347-.4-.811-.7-1.317-.854-1.066-.322-2.202 0-3.279-.263-.56-.136-.99-.159-1.565-.012a4.21 4.21 0 0 0-1.493.71z" fill="url(#paint2_linear_187_79)"/>
        <path opacity=".3" d="M1.196 10.357a1.714 1.714 0 0 0 .007 1.493c.136.27.347.51.404.809.055.275-.032.557-.134.818-.101.26-.223.52-.243.801-.022.28.082.59.33.722.136.072.295.082.449.084.436.008.903-.05 1.233-.335.275-.238.411-.603.488-.96.077-.357.107-.726.223-1.071.134-.39.38-.74.7-.997.265-.213.578-.362.855-.556.278-.195.536-.456.613-.788.114-.506-.24-1.027-.7-1.27a1.798 1.798 0 0 0-1.542-.052c-.255.114-.481.285-.737.392-.404.168-.741-.07-1.128.109-.352.169-.65.451-.818.8z" fill="url(#paint3_linear_187_79)"/>
        <path opacity=".3" d="M9.958 20.473c.379.077.77.043 1.155.008.432-.04.868-.08 1.27-.238.481-.189.88-.534 1.31-.821a6.432 6.432 0 0 1 1.716-.821c.3-.092.615-.164.93-.14.315.028.63.162.816.418.186.255.208.634.005.877-.132.157-.33.234-.523.298-.653.213-1.337.313-1.992.516-.655.2-1.304.526-1.716 1.074-.258.345-.43.784-.801 1.004-.343.204-.772.169-1.166.124-.498-.057-1.022-.134-1.421-.441-.213-.164-.377-.387-.583-.558a1.671 1.671 0 0 0-1.113-.387c-.17.005-.343.035-.506-.012-.353-.102-.841-.677-.821-1.06.017-.337.352-.486.64-.552 1.061-.253 1.825.513 2.8.711z" fill="url(#paint4_linear_187_79)"/>
    </g>
    <defs>
        <linearGradient id="paint0_linear_187_79" x1="20.824" y1="17.87" x2=".839" y2="4.574" gradientUnits="userSpaceOnUse">
            <stop stop-color="#02C1EA"/>
            <stop offset="1" stop-color="#02EED6"/>
        </linearGradient>
        <linearGradient id="paint1_linear_187_79" x1="8.921" y1="13.373" x2="16.356" y2="13.373" gradientUnits="userSpaceOnUse">
            <stop stop-color="#fff"/>
            <stop offset="1" stop-color="#fff" stop-opacity=".5"/>
        </linearGradient>
        <linearGradient id="paint2_linear_187_79" x1="5.449" y1="4.014" x2="14.555" y2="4.014" gradientUnits="userSpaceOnUse">
            <stop stop-color="#fff"/>
            <stop offset="1" stop-color="#fff" stop-opacity=".5"/>
        </linearGradient>
        <linearGradient id="paint3_linear_187_79" x1="1.028" y1="12" x2="6.144" y2="12" gradientUnits="userSpaceOnUse">
            <stop stop-color="#fff"/>
            <stop offset="1" stop-color="#fff" stop-opacity=".5"/>
        </linearGradient>
        <linearGradient id="paint4_linear_187_79" x1="6.52" y1="20.63" x2="17.304" y2="20.63" gradientUnits="userSpaceOnUse">
            <stop stop-color="#fff"/>
            <stop offset="1" stop-color="#fff" stop-opacity=".5"/>
        </linearGradient>
        <clipPath id="clip0_187_79">
            <path fill="#fff" d="M0 0H24V24H0z"/>
        </clipPath>
    </defs>
</svg>
