<svg width="24" height="24" viewBox="0 0 24 24" fill="none" xmlns="http://www.w3.org/2000/svg">
    <g clip-path="url(#clip0_187_35)">
        <path d="M24 11.973V12.199c0 .109-.003.22-.01.33-.002.109-.01.22-.017.33a12.149 12.149 0 0 1-.166 1.319c-.01.057-.023.111-.035.168a7.89 7.89 0 0 1-.092.422 12.111 12.111 0 0 1-.439 1.448c-.017.052-.04.105-.06.157-.071.183-.148.364-.228.54a5.014 5.014 0 0 1-.127.273v.005a7.71 7.71 0 0 1-.285.553c-.041.077-.084.156-.128.23l-.09.155-.06.101c-.021.035-.041.07-.064.104a.985.985 0 0 1-.042.067c-.024.04-.05.077-.074.117-.06.097-.124.191-.189.283-.052.072-.101.146-.153.216-.035.05-.07.099-.107.146l-.154.2-.062.082c-.03.04-.06.077-.092.115l-.076.091c-.02.025-.04.05-.06.072-.04.047-.077.092-.117.137-.03.037-.061.072-.094.106-.022.028-.047.052-.07.08a.154.154 0 0 1-.02.022c-.046.05-.09.102-.138.151-.03.03-.057.062-.09.092l-.014.015-.074.077-.03.03-.196.193c-.027.027-.055.052-.082.08l-.169.156-.024.022a.492.492 0 0 1-.04.035l-.107.096c-.067.06-.136.117-.206.177-.05.04-.099.081-.146.121l-.141.112c-.015.01-.028.022-.042.032-.06.047-.12.094-.182.139-.06.044-.116.087-.176.129-.002.002-.005.002-.007.005-.104.077-.213.151-.322.225l-.14.092a2.631 2.631 0 0 1-.208.131l-.074.048c-.055.035-.11.067-.164.099l-.012.007-.102.06a9.805 9.805 0 0 1-.451.245l-.144.075c-.035.017-.07.037-.107.052-.09.045-.178.087-.268.129l-.07.032a8.898 8.898 0 0 1-.364.156c-.064.028-.131.055-.198.082a13.865 13.865 0 0 1-.337.127l-.201.07c-.005 0-.008.002-.013.004l-.16.052c-.256.082-.517.156-.78.22l-.086.023-.1.023c-.04.007-.079.017-.121.027a.99.99 0 0 1-.092.02 78.29 78.29 0 0 0-.248.05l-.03.004c-.19.037-.384.067-.578.095l-.128.017-.063.007c-.054.008-.109.013-.163.02l-.082.008c-.042.002-.082.007-.124.01a12.023 12.023 0 0 1-2.912-.09l-.052-.007c-.149-.023-.292-.05-.439-.077a2.695 2.695 0 0 1-.151-.032 10.481 10.481 0 0 1-.499-.114c-.377-.097-.746-.211-1.108-.34a10.996 10.996 0 0 1-.618-.243c-.084-.037-.168-.072-.25-.11a11.837 11.837 0 0 1-1.141-.592l-.05-.03c-.176-.104-.35-.213-.518-.325l-.22-.151a7.39 7.39 0 0 1-.226-.161l-.157-.114a12.883 12.883 0 0 1-.685-.56l-.036-.033a11.59 11.59 0 0 1-1.518-1.627 2.18 2.18 0 0 1-.092-.122l-.017-.024a12.047 12.047 0 0 1-.211-.286c-.032-.024-.052-.054-.072-.084a11.887 11.887 0 0 1-1.736-3.785c-.027-.104-.052-.21-.077-.315a9.374 9.374 0 0 1-.122-.595 10.24 10.24 0 0 1-.086-.563c-.018-.141-.035-.28-.047-.424a.369.369 0 0 0-.005-.052l-.008-.09a9.351 9.351 0 0 1-.027-.43c0-.026-.003-.055-.003-.083-.007-.099-.01-.203-.012-.305v-.173c0-.12 0-.238.005-.36A11.622 11.622 0 0 1 .327 9.2l.028-.106a10.401 10.401 0 0 1 .161-.588c0-.003 0-.005.002-.008l.077-.245a12.044 12.044 0 0 1 1.3-2.723c.03-.047.06-.095.092-.142.037-.054.071-.111.111-.166.14-.203.283-.402.434-.595.013-.017.025-.032.037-.05A12.228 12.228 0 0 1 4.335 2.77a3.73 3.73 0 0 1 .164-.131c.097-.08.196-.154.295-.228l.052-.04c.013-.01.025-.017.037-.027.05-.037.1-.072.15-.11l.116-.081a4.2 4.2 0 0 0 .131-.092c.042-.027.084-.057.127-.084.015-.01.027-.02.042-.028.054-.037.111-.072.166-.106.042-.025.082-.052.121-.077a.27.27 0 0 1 .028-.015c.025-.015.05-.03.074-.047.06-.037.122-.072.184-.107.015-.01.032-.017.047-.027.03-.017.06-.035.09-.05l.108-.06.047-.024c.033-.017.062-.035.095-.05l.094-.05.012-.007c.025-.012.05-.027.075-.037.077-.04.156-.077.233-.114.06-.035.121-.062.18-.09.088-.039.174-.079.264-.116l.067-.03.034-.014c.05-.02.102-.043.152-.06.005-.002.007-.005.012-.005.04-.015.077-.032.12-.047.002 0 .004-.003.007-.003.034-.012.067-.027.101-.04.035-.012.07-.026.104-.039a11.308 11.308 0 0 1 1.09-.342C9 .378 9.043.369 9.09.356L9.199.33c.007-.003.015-.005.022-.005l.06-.012a.396.396 0 0 0 .052-.013h.005c.042-.01.084-.02.129-.027.007-.003.014-.003.024-.005.045-.01.09-.02.134-.027.042-.008.085-.018.127-.025a.385.385 0 0 0 .052-.01c.037-.005.074-.013.111-.02.05-.007.1-.017.147-.025.146-.025.292-.044.441-.062a13.648 13.648 0 0 1 .444-.047c.045-.002.087-.007.13-.01l.061-.002.045-.003c.05-.002.099-.007.149-.01h.005l.146-.007.07-.003h.03c.061-.002.126-.005.19-.005h.225a12.067 12.067 0 0 1 2.027.17h.002a7.246 7.246 0 0 1 .404.077 11.08 11.08 0 0 1 1.902.563c.184.068.368.145.547.225l.148.067.298.141c.24.119.474.245.704.38l.201.118a10.247 10.247 0 0 1 .84.563c.152.11.301.224.445.34.007.005.015.01.022.018l.018.014c.047.038.094.075.139.115a12.016 12.016 0 0 1 1.45 1.443c.082.1.164.198.243.298.043.05.08.099.12.15.052.07.106.14.158.212.124.168.246.342.362.518.04.057.075.114.112.174l.097.156a10.465 10.465 0 0 1 .526.955 11.157 11.157 0 0 1 .518 1.208c.091.252.176.508.25.768.01.038.023.072.033.11.01.03.017.061.027.094a12.163 12.163 0 0 1 .285 1.374c.015.104.03.208.042.31.005.05.013.096.018.146.005.04.01.08.012.12a116.792 116.792 0 0 0 .022.283c.005.063.01.13.013.195v.03l.007.158c.003.05.003.102.005.152.002.091.005.203.005.317z" fill="url(#paint0_linear_187_35)"/>
        <path opacity=".4" d="M23.965 11.058a5.102 5.102 0 0 0-.69.287c-1.05.558-1.693 1.69-2.712 2.307-.568.345-1.226.51-1.875.647-1.823.382-3.703.566-5.543.293-1.2-.179-2.443-.543-3.6-.174-.483.157-.92.432-1.408.57-1.237.348-2.52-.247-3.69-.778-.915-.414-1.977-.833-2.999-.655-.305.052-.85.432-1.26.57a10.238 10.238 0 0 1-.086-.562c-.018-.142-.035-.28-.047-.424a.369.369 0 0 0-.005-.052c1.08-.67 4.005-.172 4.578.02 1.262.421 2.5 1.202 3.817 1.001.513-.077.992-.302 1.495-.431 1.585-.412 3.242.134 4.874.25 2.862.201 5.845-1.076 7.47-3.44.404-.587.744-1.255 1.28-1.713.01.03.017.062.027.094a12.098 12.098 0 0 1 .285 1.374c.015.104.03.208.042.31.005.05.012.097.018.146.004.04.01.08.012.12 0 .017.002.032.005.049 0 .064.007.126.012.19zm-5.734-9.315c-1.143.386-1.927 1.552-3.08 1.959-1.617.573-3.465-.491-5.092.054-.397.134-.749.353-1.086.603-.742.55-1.411 1.245-2.297 1.49-.684.192-1.379.085-2.078-.079-.64-.151-1.285-.344-1.932-.402a3.224 3.224 0 0 0-.677.013c.037-.055.072-.112.112-.166a11.4 11.4 0 0 1 .434-.596c.322-.02.59-.017.731-.005.618.053 1.243.157 1.865.219.896.092 1.781.101 2.607-.23.394-.16.751-.388 1.104-.628.518-.357 1.024-.737 1.612-.953 1.331-.488 2.85-.05 4.238-.243h.003a3.76 3.76 0 0 0 .835-.213 3.64 3.64 0 0 0 .73-.397c.381-.263.729-.59 1.066-.925a11.96 11.96 0 0 1 .905.499zm-3.8-1.496c-.359.278-.733.528-1.155.68-1.62.57-3.467-.494-5.092.052-1.264.424-2.095 1.736-3.382 2.095a2.951 2.951 0 0 1-.928.1 12.02 12.02 0 0 1 .627-.536c.097-.08.196-.154.296-.228.017-.013.034-.028.052-.04.012-.01.025-.017.037-.027.05-.037.1-.072.149-.11l.116-.081c.045-.03.087-.06.132-.092l.126-.084c.154-.04.305-.087.457-.15.53-.212.997-.557 1.47-.885.013-.004.023-.01.035-.014.05-.02.102-.043.151-.06.005-.002.008-.005.013-.005.04-.015.077-.032.119-.047L7.66.812c.035-.012.067-.027.102-.04.035-.012.07-.026.104-.039A11.308 11.308 0 0 1 8.956.391c.047-.013.092-.022.136-.035l.11-.027a.072.072 0 0 1 .022-.005l.06-.012a.397.397 0 0 0 .051-.013h.005c.042-.01.085-.02.13-.027.007-.003.014-.003.024-.005.045-.01.09-.02.134-.027.042-.008.084-.018.126-.025a.385.385 0 0 0 .052-.01c.038-.005.075-.013.112-.02.05-.007.1-.017.146-.025a8.585 8.585 0 0 1 .553-.074c.11-.013.221-.025.333-.035.044-.002.087-.007.129-.01L11.14.04c.516.015 1.029.034 1.527-.02a11.978 11.978 0 0 1 1.357.151h.003l.156.027c.082.018.164.033.248.05zM23.7 14.679a12.111 12.111 0 0 1-.459 1.538c-.942.071-1.744.476-2.57.835-.572.25-1.155.479-1.805.563-.652.085-1.314.013-1.974-.119-1.518-.3-3.046-.92-4.549-.749a5.34 5.34 0 0 0-1.302.332c-1.011.38-1.937.945-3.043 1.1a5.247 5.247 0 0 1-.275.029c-1.726.124-3.348-.838-5.064-1.203a5.939 5.939 0 0 0-1.61-.107c-.04-.089-.08-.18-.117-.272a7.171 7.171 0 0 1-.178-.454c1.096-.045 2.363.104 2.783.193 1.83.385 3.7 1.047 5.503.829.074-.008.146-.018.218-.03.258-.042.506-.104.75-.174h.002c.99-.287 1.892-.754 2.944-.898 1.562-.213 3.209.315 4.811.482.588.062 1.168.074 1.738-.013h.003c1.56-.245 2.69-1.205 4.047-1.815.048-.025.097-.045.147-.067zM21.39 4.53c-.523.087-1.064.117-1.563.3-.957.355-1.622 1.23-2.45 1.818a3.432 3.432 0 0 1-.662.377c-.566.236-1.156.273-1.763.226-1.012-.08-2.061-.394-3.086-.414a5.21 5.21 0 0 0-3.045.922c-.464.32-.878.72-1.322 1.064a4.263 4.263 0 0 1-.955.578 3.254 3.254 0 0 1-.811.208c-.781.095-1.587-.071-2.359-.235-.57-.122-1.135-.273-1.716-.34-.178-.022-.915.065-1.302.057a10.394 10.394 0 0 1 .161-.588c0-.002 0-.005.003-.007l.077-.246c.21-.109.434-.188.575-.21 1.233-.191 2.495.63 3.713.694 2.282.124 4.092-1.902 6.3-2.49 1.197-.318 2.484-.208 3.72-.283a7.397 7.397 0 0 0 1.225-.166c.312-.07.615-.169.907-.308 1.154-.538 2.004-1.604 2.994-2.4A12.014 12.014 0 0 1 21.39 4.53zm-.86 15.912c-.065.065-.13.13-.197.194l-.081.08-.17.156c-.007.007-.014.015-.024.022a.492.492 0 0 1-.04.035l-.106.096c-.067.06-.137.117-.206.177-.05.04-.1.081-.146.121l-.142.112c-.015.01-.027.022-.042.032-.06.047-.119.094-.181.139l-.176.129-.008.005c-.104.077-.213.15-.322.225l-.139.092a.225.225 0 0 1-.032.02c-1.858.074-3.599-1.14-5.446-1.644-1.255-.343-2.6-.35-3.788-.02-1.034.285-1.964.823-3.067.905-.754.057-1.486-.104-2.195-.352a11.602 11.602 0 0 1-1.518-1.627 2.257 2.257 0 0 1-.092-.122l-.017-.024c.68.37 1.349.768 2.053.984 2.634.801 5.253-.615 7.979-.526 1.96.065 3.923.916 5.85 1.047.395.027.787.022 1.178-.022.37-.045.727-.13 1.074-.233z" fill="#BDF0FD"/>
        <path opacity=".4" d="M22.762 6.69c-.396.03-.788.102-1.123.308-.833.508-1.074 1.671-1.897 2.192-.37.233-.811.308-1.243.38l-3.474.573c-.645.106-1.29.213-1.945.245-.642.032-1.29-.007-1.932.052a6.15 6.15 0 0 0-2.282.687c-.505.27-.982.618-1.532.784-.784.238-1.625.09-2.423-.074-1.602-.33-3.046-.541-4.678-.345-.074.007-.151.017-.223.02a11.622 11.622 0 0 1 .084-1.017c.39-.102.866-.05 1.2-.013 2.02.214 4.021 1.087 6.012.687 1.121-.223 2.123-.835 3.215-1.178 2.624-.823 5.64-.067 8.087-1.314 1.38-.702 2.426-1.974 3.626-2.937.05.077.097.157.142.236.139.23.267.471.386.714z" fill="#BDF0FD"/>
        <path opacity=".4" d="M12.47 18.38c0 .77-1.007 1.393-2.25 1.393-1.242 0-2.25-.625-2.25-1.394.001-.771 1.008-1.394 2.25-1.394 1.243 0 2.25.625 2.25 1.394zm4.365-7.077c.188.328-.198.906-.866 1.29-.667.384-1.361.431-1.55.104-.188-.327.199-.905.866-1.29.667-.384 1.361-.431 1.55-.104zm.83-3.137c-.369.481-1.294.387-2.068-.208-.774-.596-1.103-1.466-.734-1.945.37-.478 1.295-.387 2.069.209.773.592 1.103 1.463.734 1.944zm4.527 10.173a.988.988 0 0 1-.042.067l-.075.117a5.62 5.62 0 0 1-.188.283c-.052.072-.102.146-.154.215-.035.05-.07.1-.107.147-.052.067-.101.134-.153.2-.02.028-.043.055-.062.083-.03.04-.06.076-.092.114l-.077.091c-.02.025-.04.05-.06.072-.04.047-.076.092-.116.137-.03.037-.062.072-.094.106-.023.028-.047.052-.07.08a.16.16 0 0 1-.02.022c-.047.05-.091.102-.139.151-.03.03-.056.062-.089.092l-.015.015-.074.077-.03.03c-.064.064-.129.129-.196.193l-.082.08a9.935 9.935 0 0 1-.168.156l-.025.022a.492.492 0 0 1-.04.035l-.106.096c-.067.06-.137.117-.206.177-.05.04-.1.081-.146.121l-.142.112c-.015.01-.027.022-.042.032a5.872 5.872 0 0 1-1.101-.769c-1.124-1-1.67-2.287-1.39-3.2a1.415 1.415 0 0 1 .874-.924c.476-.189 1.089-.191 1.738-.013.382.104.78.268 1.166.494a5.67 5.67 0 0 1 1.523 1.29zM8.73 3.816c.58.684.156 1.996-.947 2.931-1.104.935-2.468 1.141-3.046.457-.58-.685-.156-1.997.947-2.932 1.102-.937 2.466-1.14 3.046-.456zm7.51-1.553c-.144.496-.91.71-1.709.477-.799-.234-1.33-.824-1.186-1.32.144-.496.908-.71 1.71-.476.798.233 1.329.823 1.185 1.32zm4.032 8.492c.127.218-.131.603-.577.86-.444.259-.908.288-1.035.07-.126-.218.132-.602.578-.86.444-.258.908-.288 1.034-.07z" fill="#1075BD"/>
        <path d="M2.341 9.392c.192-.659.085-1.27-.238-1.364-.324-.094-.742.364-.933 1.023-.192.659-.085 1.27.238 1.364.324.094.742-.364.933-1.023z" fill="#1075BD"/>
        <path opacity=".4" d="M20.426 8.136c.09.157-.094.43-.411.613-.318.183-.648.206-.737.05-.09-.157.094-.43.412-.613.317-.184.647-.206.736-.05zm-12.973.62c.24.283.064.824-.392 1.21-.456.388-1.02.472-1.257.19-.241-.284-.065-.824.391-1.211.454-.387 1.017-.471 1.258-.189zM2.713 18.99c-.099.084-.198.159-.3.228a5.615 5.615 0 0 1-.228-.312c-.022-.027-.042-.057-.062-.087a11.795 11.795 0 0 1-1.198-2.192c.982-.764 2.143-.908 2.651-.313.529.625.142 1.823-.863 2.676z" fill="#1075BD"/>
        <path opacity=".1" d="M23.873 10.24a11.723 11.723 0 0 0-.82-2.922 12.15 12.15 0 0 0-.91-1.736c-.038-.057-.075-.117-.112-.174-.164-.25-.338-.493-.521-.729a10.625 10.625 0 0 0-.362-.449 12.278 12.278 0 0 0-1.454-1.44 5.44 5.44 0 0 0-.139-.115c-.004-.005-.012-.01-.017-.015a11.706 11.706 0 0 0-.8-.593c-.232-.156-.467-.305-.708-.446a11.16 11.16 0 0 0-1.15-.588 11.787 11.787 0 0 0-2.187-.73 11.68 11.68 0 0 0-.512-.106L14.025.17h-.003c-.069-.012-.139-.022-.21-.035A12.08 12.08 0 0 0 12.002 0h-.227c-.062 0-.126.003-.19.005h-.03l-.07.002c-.05 0-.096.003-.146.008h-.005c-.05.002-.1.005-.149.01-.035 0-.07.002-.107.005-.042.002-.084.007-.128.01-.092.007-.181.017-.273.027a10.849 10.849 0 0 1 .704.1h.003c.052.007.104.017.156.026.171.033.342.067.51.107.273.062.544.134.81.216a13.193 13.193 0 0 1 1.378.513c.395.176.779.372 1.151.588a12.621 12.621 0 0 1 1.508 1.04l.017.014a11.973 11.973 0 0 1 1.022.933c.198.2.387.409.57.622a12.938 12.938 0 0 1 .883 1.178c.04.057.075.114.112.174a11.796 11.796 0 0 1 1.138 2.314c.114.317.219.642.308.972a12.481 12.481 0 0 1 .285 1.371c.084.566.127 1.141.13 1.73v.119c0 .145-.003.292-.01.436a12.147 12.147 0 0 1-.183 1.65c-.011.056-.024.11-.036.167a12.031 12.031 0 0 1-1.622 4.06c-.084.137-.174.268-.263.4-.052.072-.102.146-.154.216-.035.05-.07.099-.106.146l-.154.2-.062.083c-.03.04-.06.076-.092.114l-.077.091c-.02.025-.04.05-.06.072-.039.047-.076.092-.116.137-.03.037-.062.072-.094.106-.022.028-.047.053-.07.08a.165.165 0 0 1-.02.022c-.047.05-.091.102-.138.151-.03.03-.057.062-.09.092l-.089.094c-.074.075-.149.15-.226.224l-.081.079c-.055.052-.112.104-.17.156a68.564 68.564 0 0 1-.171.154c-.066.06-.136.116-.205.176-.05.04-.1.082-.146.122l-.142.111-.223.171-.176.13-.008.004c-.104.077-.213.151-.322.226l-.139.092-.208.134-.075.047c-.054.035-.109.067-.163.099l-.013.007-.101.06a9.805 9.805 0 0 1-.452.245l-.143.075c-.035.017-.07.037-.107.052-.09.045-.179.087-.268.129-.025.01-.047.022-.07.032a9.053 9.053 0 0 1-.364.156c-.064.028-.131.055-.198.082a13.865 13.865 0 0 1-.338.127l-.2.07c-.058.019-.117.039-.174.056-.256.082-.516.156-.779.22l-.087.023-.099.023c-.04.007-.08.017-.121.027-.03.007-.06.015-.092.02a.42.42 0 0 0-.047.01l-.15.03c-.017.002-.034.004-.051.01-.201.039-.405.071-.608.099l-.129.017-.062.007-.124.015c.275.03.55.052.831.062.161.005.322.01.484.01.364 0 .724-.015 1.08-.05.043-.002.085-.007.125-.01l.082-.007c.054-.005.109-.012.163-.02l.062-.007c.043-.005.087-.01.13-.017.203-.028.406-.06.607-.1.017-.002.035-.005.052-.01l.149-.03c.015-.002.03-.007.047-.01.032-.004.062-.012.092-.02.042-.007.082-.016.121-.026l.1-.023.086-.022a11.707 11.707 0 0 0 .953-.278c.067-.022.134-.047.2-.07l.162-.059.176-.067c.067-.027.131-.052.198-.082.045-.017.09-.037.132-.054.077-.032.156-.067.233-.102l.07-.032c.089-.042.178-.084.267-.13.037-.016.072-.034.107-.051l.144-.075c.153-.079.302-.158.451-.245l.102-.06.012-.007c.055-.032.11-.064.164-.1.025-.014.05-.032.074-.046l.208-.134.14-.092a14.588 14.588 0 0 0 .33-.23l.175-.13.224-.17.14-.112c.05-.04.1-.082.147-.122.07-.057.137-.116.206-.176l.146-.132c.008-.004.015-.014.025-.022l.169-.156.082-.08c.077-.074.151-.148.225-.223l.09-.094.089-.092.139-.15c.005-.008.012-.016.02-.023.024-.025.047-.052.07-.08.031-.034.064-.071.093-.106.04-.047.08-.092.117-.137l.06-.072.076-.091.092-.114c.023-.028.042-.055.062-.082.052-.065.104-.134.154-.201.037-.05.072-.1.107-.146.052-.072.104-.144.153-.216.092-.132.179-.263.263-.4l.107-.17a11.943 11.943 0 0 0 1.515-3.89c.013-.056.023-.111.035-.168l.032-.184c.062-.372.107-.751.134-1.136.008-.109.015-.218.017-.33.008-.143.01-.29.01-.436v-.119a12.419 12.419 0 0 0-.129-1.724z" fill="#000"/>
        <path opacity=".2" d="M8.852 3.124c-.144.347-.105.744.005 1.104.109.36.282.694.404 1.051.099.29.163.603.111.905-.116.665-.746 1.094-1.31 1.466-.562.372-1.167.863-1.19 1.54-.012.377.174.742.45 1 .272.258.627.419.989.518.754.206 1.65.124 2.18-.449.238-.255.38-.585.555-.885.559-.96 1.565-1.709 2.674-1.729.675-.012 1.344.236 2.011.137.147-.023.293-.062.417-.14a.979.979 0 0 0 .313-.34c.25-.433.243-.986.056-1.45-.186-.466-.535-.85-.932-1.158-.471-.365-1.042-.64-1.637-.628-.32.005-.635.095-.955.122-.32.027-.67-.02-.902-.238-.204-.191-.286-.474-.427-.714-.255-.432-.908-1.027-1.436-.978-.546.045-1.158.343-1.376.866z" fill="url(#paint1_linear_187_35)"/>
        <path opacity=".2" d="M4.072 15.415c.452.65 1.273 1.015 1.588 1.739.387.893-.162 1.934.027 2.89.129.647.593 1.192 1.156 1.534.563.345 1.217.509 1.87.606.741.111 1.498.146 2.247.101.429-.024.883-.089 1.215-.362.61-.503.523-1.485.151-2.182-.627-1.18-1.828-1.93-2.723-2.924-.414-.46-.781-1.03-.741-1.647.034-.558.399-1.074.354-1.632-.042-.526-.444-.955-.893-1.233-.93-.575-2.552-.746-3.497-.072-.922.663-1.428 2.21-.754 3.182z" fill="url(#paint2_linear_187_35)"/>
        <path opacity=".2" d="M15.245 12.757c.194.868.73 1.696.595 2.577-.089.59-.468 1.09-.853 1.545-.384.456-.798.912-.984 1.478-.186.565-.07 1.285.434 1.602.37.236.845.203 1.28.136.652-.099 1.334-.277 1.79-.751.454-.471.61-1.153.647-1.806.038-.652-.03-1.312.07-1.957a3.968 3.968 0 0 1 1.247-2.326c.377-.34.829-.62 1.084-1.059.357-.617.223-1.433-.19-2.011-.66-.925-2.64-1.997-3.674-1.163-1.066.853-1.746 2.383-1.446 3.735z" fill="url(#paint3_linear_187_35)"/>
    </g>
    <defs>
        <linearGradient id="paint0_linear_187_35" x1="20.823" y1="17.872" x2=".839" y2="4.576" gradientUnits="userSpaceOnUse">
            <stop stop-color="#50F5EF"/>
            <stop offset="1" stop-color="#0F7FA7"/>
        </linearGradient>
        <linearGradient id="paint1_linear_187_35" x1="6.87" y1="6.528" x2="16.649" y2="6.528" gradientUnits="userSpaceOnUse">
            <stop stop-color="#fff"/>
            <stop offset="1" stop-color="#fff" stop-opacity=".5"/>
        </linearGradient>
        <linearGradient id="paint2_linear_187_35" x1="3.762" y1="17.05" x2="12.616" y2="17.05" gradientUnits="userSpaceOnUse">
            <stop stop-color="#fff"/>
            <stop offset="1" stop-color="#fff" stop-opacity=".5"/>
        </linearGradient>
        <linearGradient id="paint3_linear_187_35" x1="13.919" y1="14.431" x2="20.759" y2="14.431" gradientUnits="userSpaceOnUse">
            <stop stop-color="#fff"/>
            <stop offset="1" stop-color="#fff" stop-opacity=".5"/>
        </linearGradient>
        <clipPath id="clip0_187_35">
            <path fill="#fff" transform="translate(0 -.001)" d="M0 0H24V24.003H0z"/>
        </clipPath>
    </defs>
</svg>
