<svg width="24" height="24" viewBox="0 0 24 24" fill="none" xmlns="http://www.w3.org/2000/svg">
    <path d="M24 11.972V12.197c0 .11-.003.22-.01.33-.002.11-.01.22-.017.33a12.153 12.153 0 0 1-.167 1.32c-.01.056-.022.11-.034.168a7.89 7.89 0 0 1-.092.422 12.237 12.237 0 0 1-.439 1.448c-.017.052-.04.104-.06.156-.072.184-.148.365-.228.54-.015.036-.03.073-.047.107a5.014 5.014 0 0 1-.08.167v.005c-.036.079-.076.158-.116.235a7.71 7.71 0 0 1-.168.318c-.043.077-.085.156-.13.23-.03.052-.059.105-.089.154l-.06.102c-.022.035-.041.07-.064.104-.012.022-.027.045-.042.067 0 .002-.002.005-.005.007-.022.038-.047.072-.07.107-.059.097-.123.191-.188.283-.052.072-.101.146-.153.215-.035.05-.07.1-.107.147l-.154.2-.062.083c-.03.04-.06.076-.092.114-.024.03-.052.062-.077.091-.02.025-.04.05-.06.072-.039.047-.076.092-.116.137-.03.037-.062.072-.094.106-.022.028-.047.053-.07.08a.16.16 0 0 1-.02.022c-.046.05-.09.102-.138.151-.03.03-.057.062-.09.092l-.014.015-.075.077-.03.03c-.064.064-.128.129-.195.193-.028.027-.055.052-.082.08-.055.051-.112.106-.169.156a.492.492 0 0 1-.064.057l-.107.097c-.067.059-.136.116-.206.176-.05.04-.099.081-.146.121l-.142.112c-.014.01-.027.022-.042.032-.06.047-.119.094-.18.139-.06.045-.117.087-.177.129-.002.002-.005.002-.007.005-.104.077-.213.151-.323.225l-.139.092a2.604 2.604 0 0 1-.208.131c-.025.015-.05.033-.074.048l-.164.099-.012.007-.102.06a9.904 9.904 0 0 1-.451.245l-.144.075c-.035.017-.07.037-.107.052-.09.045-.178.087-.268.129l-.07.032c-.076.035-.155.07-.232.102l-.075.032-.057.025-.198.082a12.798 12.798 0 0 1-.337.126c-.067.025-.134.047-.201.07-.005 0-.008.002-.013.005l-.161.052a9.665 9.665 0 0 1-.779.223l-.087.022-.099.023c-.04.007-.08.017-.121.027a.997.997 0 0 1-.092.02.376.376 0 0 0-.047.01l-.149.03a.38.38 0 0 0-.052.01l-.03.004c-.19.037-.384.067-.578.095-.042.004-.086.012-.129.017l-.062.007c-.054.008-.109.013-.163.02l-.082.008c-.042.002-.082.007-.124.01-.27.024-.543.04-.819.047l-.233.002h-.03a12.022 12.022 0 0 1-1.83-.139l-.052-.007c-.149-.023-.293-.05-.439-.077a2.784 2.784 0 0 1-.151-.032 10.85 10.85 0 0 1-1.265-.337c-.114-.038-.228-.075-.342-.117a10.996 10.996 0 0 1-.618-.243c-.084-.038-.168-.072-.25-.11a11.816 11.816 0 0 1-1.19-.622 12.2 12.2 0 0 1-.52-.325l-.22-.151a7.365 7.365 0 0 1-.226-.161l-.156-.114a12.892 12.892 0 0 1-.685-.56l-.036-.033a11.602 11.602 0 0 1-1.518-1.627 2.218 2.218 0 0 1-.092-.122l-.017-.024a2.57 2.57 0 0 1-.221-.283 1.935 1.935 0 0 1-.062-.087c0-.002-.003-.005-.005-.007a10.514 10.514 0 0 1-.55-.88 11.507 11.507 0 0 1-.82-1.76 11.87 11.87 0 0 1-.36-1.138l-.076-.315a9.357 9.357 0 0 1-.121-.595 10.24 10.24 0 0 1-.087-.563c-.017-.141-.035-.28-.047-.424a.372.372 0 0 0-.005-.052l-.007-.09c0-.02-.003-.039-.005-.056 0-.02-.003-.04-.003-.057a12.645 12.645 0 0 1-.02-.315l-.002-.085-.008-.28v-.027V12c0-.119 0-.238.005-.36 0-.044.003-.089.005-.13a11.622 11.622 0 0 1 .318-2.312 1.68 1.68 0 0 1 .027-.107 10.399 10.399 0 0 1 .164-.595c.024-.082.052-.164.077-.246a12.044 12.044 0 0 1 1.3-2.723l.09-.141c.038-.055.073-.112.113-.166.138-.204.282-.402.434-.596l.037-.05a12.226 12.226 0 0 1 1.766-1.807 3.722 3.722 0 0 1 .163-.132c.097-.079.196-.153.295-.228.018-.012.035-.027.052-.04l.038-.027.148-.109.117-.082c.045-.03.087-.06.131-.092.043-.027.085-.057.127-.084.015-.01.027-.02.042-.027.055-.037.112-.072.166-.107.042-.025.082-.052.122-.077l.027-.015a4.424 4.424 0 0 1 .258-.154c.015-.01.032-.017.047-.027l.09-.05.109-.059.047-.024c.032-.018.062-.035.094-.05l.094-.05.013-.007c.024-.013.05-.027.074-.037.077-.04.156-.077.233-.114.06-.03.12-.057.181-.085.087-.04.174-.08.263-.116l.067-.03.035-.015c.05-.02.101-.042.151-.06.005-.002.007-.004.012-.004.04-.015.077-.033.12-.048l.007-.002c.035-.012.067-.027.102-.04.034-.012.069-.027.104-.04A11.306 11.306 0 0 1 8.96.395L9.097.36l.109-.028c.007-.002.015-.005.022-.005l.06-.012A.396.396 0 0 0 9.34.303h.005c.042-.01.084-.02.129-.028L9.499.27c.044-.01.089-.02.134-.027.042-.007.084-.017.126-.025a.385.385 0 0 0 .052-.01c.037-.005.075-.012.112-.02.05-.007.099-.017.146-.024.146-.025.293-.045.442-.062a13.648 13.648 0 0 1 .444-.047c.044-.003.086-.008.129-.01l.062-.003.044-.002c.05-.003.1-.008.149-.01h.005l.146-.008.07-.002h.03c.061-.003.126-.005.19-.005H12.01a12.067 12.067 0 0 1 2.026.169h.002c.052.007.104.017.156.027.085.015.167.032.249.05.086.017.176.037.262.056a11.067 11.067 0 0 1 1.64.506 10.53 10.53 0 0 1 .694.293c.06.027.12.055.176.084l.12.057c.23.107.466.231.696.367l.201.12c.01.004.02.012.032.02a11.809 11.809 0 0 1 1.253.882c.007.005.015.01.022.018.005.005.013.01.017.015a9.178 9.178 0 0 1 .476.41 11.967 11.967 0 0 1 .839.835c.035.037.07.074.104.114.02.022.042.044.06.067l.111.131c.023.027.045.052.067.08.06.071.12.143.176.218.042.05.08.099.12.15.052.07.104.14.158.21.124.168.246.341.362.518.04.057.075.114.112.173l.096.156a10.465 10.465 0 0 1 .526.955 11.157 11.157 0 0 1 .519 1.208c.091.253.176.509.25.769.01.037.023.072.032.11.01.029.018.061.028.093.07.26.131.524.183.787.03.146.055.292.077.441l.022.144c.015.104.03.208.043.31l.017.146c.005.04.01.08.012.12 0 .017.003.031.005.049a116.792 116.792 0 0 0 .018.233c.005.064.01.131.012.196v.03l.008.158.004.152c.005.104.008.218.008.33z" fill="url(#paint0_linear_187_7)"/>
    <path opacity=".3" d="M23.849 10.099c-.065.025-.132.05-.196.07-2.138.714-4.477.597-6.64 1.234-.53.157-1.073.387-1.525.712-.473.34-.845.782-.994 1.345-.276 1.058.34 2.204.044 3.256-.156.55-.545 1.01-.716 1.555a2.33 2.33 0 0 0-.072.302c-.159.955.36 1.774 1.071 2.572.566.635 1.257 1.26 1.82 1.925l-.056.025-.199.082-.176.067-.161.06-.201.069c-.005 0-.008.002-.013.005l-.16.052a9.916 9.916 0 0 1-.78.223l-.086.022-.1.022c-.04.008-.079.018-.121.028-.03.007-.06.015-.092.02a.4.4 0 0 0-.047.01l-.149.03a.383.383 0 0 0-.052.01l-.03.004c-.19.037-.384.067-.577.094l-.13.018-.061.007c-.055.008-.11.013-.164.02l-.082.007c-.042.003-.082.008-.124.01-.27.025-.543.04-.818.048-.214-1.062-.474-2.101-1.248-2.796a4.537 4.537 0 0 0-.575-.424c-.543-.354-1.114-.682-1.31-1.28-.111-.347-.072-.711.025-1.08.243-.913.836-1.848.305-2.583-1.907.353-3.958-.505-5.134-2.03a4.787 4.787 0 0 1-.617-1.042c-.382.82-.608 1.706-.876 2.574-.168.548-.354 1.086-.607 1.595-.07.139-.144.275-.224.409-.124.208-.27.407-.439.59a11.494 11.494 0 0 1-.818-1.758 11.888 11.888 0 0 1-.36-1.138c-.027-.105-.052-.211-.076-.316a9.356 9.356 0 0 1-.122-.595 10.24 10.24 0 0 1-.087-.563c-.017-.141-.035-.28-.047-.424 0-.017-.002-.035-.005-.052L.04 13c0-.02-.003-.039-.005-.056 0-.02-.003-.04-.003-.057.764-.489 1.55-.955 2.208-1.528.458-.402.855-.853 1.14-1.404.142-.27.248-.56.362-.843.137-.342.28-.68.494-.977C5.533 6.332 7.988 6.939 9.685 5.93c1.456-.866 1.567-2.041 1.662-3.328.062-.841.119-1.722.533-2.6H12a12.073 12.073 0 0 1 1.34.072c.158.018.317.04.476.062.07.01.141.023.21.035h.003l.156.027c.085.015.166.033.248.05a11.077 11.077 0 0 1 1.902.563c.184.07.367.146.546.226l.149.067c.06.027.119.054.176.084a7.106 7.106 0 0 1-1.25.593c-1.136.414-1.81 1.396-2.393 2.502-.546 1.034-1.01 2.178-1.692 3.063-.377.491-.826.903-1.389 1.173-1.632.784-4.166.395-4.754 2.108-.454 1.315 1.017 2.654 2.408 2.61.598-.018 1.158-.202 1.684-.477.7-.367 1.34-.895 1.932-1.423.246-.219.494-.444.747-.663.816-.704 1.691-1.341 2.733-1.545.63-.124 1.327-.101 1.991-.131.849-.042 1.637-.171 2.148-.811a.582.582 0 0 0 .03-.04c.444-.588.464-1.386.632-2.105a4.555 4.555 0 0 1 1.002-1.94l.112.132.243.297c.042.05.08.1.119.151.052.07.104.14.159.209.124.168.245.342.362.518.04.057.074.114.111.174l.097.156a10.51 10.51 0 0 1 .526.955 11.157 11.157 0 0 1 .518 1.208c.092.253.176.508.25.768.01.038.023.072.033.11.01.03.017.062.027.094.07.26.132.523.184.786.025.144.052.29.072.439z" fill="#fff"/>
    <path opacity=".8" d="M5.402 4.335c-.015.28.027.573-.07.836-.107.295-.367.503-.625.682-.58.397-1.24.727-1.637 1.31-.397.58-.374 1.53.253 1.845.462.23 1.015.027 1.478-.204 1.62-.8 3.225-1.932 5.03-1.825.806.047 1.582.347 2.388.404.806.057 1.734-.218 2.066-.955.263-.58.065-1.29-.344-1.78-.41-.489-.993-.796-1.578-1.047-.362-.156-.764-.327-.922-.687-.067-.151-.082-.322-.144-.474-.238-.57-1.002-.66-1.62-.61-1.527.124-4.176.534-4.275 2.505z" fill="url(#paint1_linear_187_7)"/>
    <path opacity=".8" d="M12.028 24h-.03a12.018 12.018 0 0 1-1.83-.139l-.052-.007c-.149-.023-.292-.05-.439-.077a2.693 2.693 0 0 1-.151-.033 10.96 10.96 0 0 1-1.265-.337 8.847 8.847 0 0 1-.151-1.679c-.003-.34.002-.684-.102-1.01-.154-.473-.52-.842-.846-1.22-.34-.391-.654-.825-.783-1.329-.097-.374-.047-1.493.446-1.679.727-.27.85.9 1.121 1.28.27.382.75.501 1.21.65.32.104.635.22.864.456.434.447.416 1.143.419 1.764 0 .047 0 .094.002.14.007.539.067 1.09.31 1.568.285.563.791.977 1.163 1.486.042.054.08.109.114.166z" fill="url(#paint2_linear_187_7)"/>
    <path opacity=".8" d="M19.905 4.675c-.082.305.055.625.037.937-.027.444-.352.809-.468 1.238-.097.36-.04.74-.057 1.111a1.59 1.59 0 0 1-.018.184c-.047.315-.178.627-.451.773-.094.053-.204.08-.288.144-.476.352.065 1.32-.441 1.627-.278.166-.653-.062-.782-.362-.129-.297-.099-.637-.131-.96a1.614 1.614 0 0 0-.082-.372c-.072-.19-.193-.357-.377-.431-.414-.169-1.02.146-1.265-.226-.106-.164-.064-.394.06-.545.124-.152.315-.234.503-.283.424-.11.888-.067 1.285.116.21.1.427.238.655.196.168-.032.302-.158.414-.29a2.812 2.812 0 0 0 .652-1.58c.065-.793-.22-1.664.157-2.41.14-.28.366-.457.627-.546.035.03.067.06.102.092a11.956 11.956 0 0 1 .942.95c-.444.064-.92.064-1.074.637z" fill="url(#paint3_linear_187_7)"/>
    <path opacity=".8" d="M22.145 18.415c-.023.037-.047.072-.07.106-.06.097-.124.191-.188.283-.052.072-.102.147-.154.216-.035.05-.07.1-.107.146l-.153.201c-.02.027-.043.055-.062.082-.03.04-.06.077-.092.114l-.077.092c-.02.025-.04.05-.06.072-.04.047-.076.091-.116.136-.03.037-.062.072-.094.107-.023.027-.048.052-.07.08-.005.007-.012.014-.02.021-.047.05-.091.102-.139.152-.03.03-.057.062-.089.092l-.015.014-.074.077-.03.03c-.064.065-.129.13-.196.194l-.082.079c-.054.052-.111.107-.168.156l-.025.023a.492.492 0 0 1-.04.034c-.037.035-.072.065-.107.097-.066.06-.136.117-.205.176-.05.04-.1.082-.147.122l-.141.111c-.015.01-.027.023-.042.032-.06.047-.12.095-.181.14a7.87 7.87 0 0 1-.176.128l-.008.005c-.104.077-.213.151-.322.226l-.14.092a2.606 2.606 0 0 1-.208.131l-.074.047c-.054.035-.109.067-.163.1l-.013.007-.102.06a9.952 9.952 0 0 1-.45.245c-.048.025-.095.05-.145.074-.034.018-.07.038-.106.052-.09.045-.179.087-.268.13-.025.01-.047.022-.07.032-.077.034-.156.069-.233.101-.025.01-.05.023-.074.032-.018.008-.038.018-.057.025-.065.028-.132.055-.199.082-.057.023-.116.045-.176.067l-.161.06a6.373 6.373 0 0 1-.2.07c-.006 0-.008.002-.013.004l-.162.052c-.104.035-.21.067-.32.1a7.054 7.054 0 0 1-1.316-.435c-.524-.23-1.092-.68-.982-1.24.099-.508.706-.739 1.225-.739.18 0 .362.018.543.032.342.028.682.05 1.004-.054.655-.213 1.067-.995.87-1.654-.059-.201-.173-.392-.351-.499-.288-.174-.653-.084-.987-.044-.554.067-1.139-.018-1.608-.318l-.05-.032c-.475-.325-.798-.898-.738-1.47.072-.69.63-1.211.964-1.816.335-.605.313-1.575-.354-1.769-.218-.062-.457-.017-.675.05-.518.161-.992.454-1.52.578-.528.126-1.168.034-1.47-.417-.197-.29-.197-.617-.09-.942.146-.437.496-.866.848-1.183.342-.31.705-.61 1.136-.772a2.09 2.09 0 0 1 .694-.131c.499-.017 1.01.117 1.461.34.566.277 1.057.682 1.53 1.1l.251.224c.565.508 1.156 1.044 1.414 1.761.23.64.17 1.36.404 1.996.526 1.441 2.257 1.967 3.757 2.297.268.06.556.12.816.03-.002.005.003.002.008 0z" fill="url(#paint4_linear_187_7)"/>
    <path opacity=".8" d="M4.75 13.653c-.132.07-.283.102-.42.154a.84.84 0 0 0-.198.104c-.295.228-.28.687-.127 1.027.159.352.44.687.395 1.071-.048.402-.494.69-.89.613-.398-.08-.693-.47-.71-.873a2.094 2.094 0 0 1 .037-.41c.047-.275.107-.55-.005-.8a.653.653 0 0 0-.813-.318c-.372.159-.504.64-.427 1.037.077.399.305.746.464 1.118a3.394 3.394 0 0 1 .07 2.435 10.514 10.514 0 0 1-.293-.443 11.507 11.507 0 0 1-1.084-2.195 11.87 11.87 0 0 1-.36-1.138c-.027-.105-.052-.211-.077-.316a9.357 9.357 0 0 1-.121-.595 10.24 10.24 0 0 1-.087-.563c-.017-.141-.035-.28-.047-.424a.372.372 0 0 0-.005-.052l-.007-.09c0-.02-.003-.039-.005-.056 0-.02-.003-.04-.003-.057a12.645 12.645 0 0 1-.02-.315l-.002-.085-.008-.28c.44-.285.846-.627 1.342-.813.283-.107.625-.14.895-.033a.66.66 0 0 1 .308.233c.278.383.07.923.161 1.387.015.077.045.159.112.196a.25.25 0 0 0 .153.017c.474-.067.678-.667 1.11-.873.346-.164.813 0 .984.345a.78.78 0 0 1-.323.992z" fill="url(#paint5_linear_187_7)"/>
    <path opacity=".1" d="M6.15 7.294c-.138.992.578 1.885.836 2.852.238.89.07 1.88-.451 2.641-.407.596-1.052 1.21-.84 1.898.096.317.364.553.646.721.645.387 1.441.514 2.175.348.546-.124 1.042-.4 1.548-.635 1.163-.543 2.532-.886 3.715-.39.63.266 1.213.762 1.893.712.476-.035.897-.342 1.195-.717.704-.878.836-2.16.374-3.187-.463-1.026-1.48-1.765-2.591-1.941-.982-.157-2.103.064-2.885-.549a1.095 1.095 0 0 1-.357-.451c-.126-.322-.04-.694.127-1 .69-1.262 2.591-1.686 2.884-3.095.127-.607-.112-1.245-.479-1.746-.19-.26-.431-.503-.736-.61-.37-.129-.774-.044-1.153.04-.56.126-1.196.31-1.436.83-.157.34-.097.735-.097 1.11.002.468-.129 1.192-.615 1.418-.394.184-.734-.074-1.126-.131-1.124-.157-2.465.729-2.627 1.882z" fill="#fff"/>
    <path opacity=".1" d="M9.548 18.524c.392-.263.742-.6 1.174-.794 1.175-.53 2.611.114 3.821-.335 1.288-.476 1.855-1.979 2.934-2.83a3.418 3.418 0 0 1 1.238-.617c.238-.062.488-.1.729-.05.811.167 1.126 1.149 1.223 1.972.032.275.052.576-.097.811-.196.308-.6.387-.957.454-.923.169-1.828.432-2.699.779-.508.203-1.074.528-1.123 1.071-.037.407.235.77.345 1.16.215.77-.308 1.663-1.082 1.851-.776.189-1.649-.367-1.81-1.148-.114-.556.072-1.213-.298-1.642-.293-.34-.808-.37-1.25-.285a3.345 3.345 0 0 0-1.575.783c-.478.43-.85 1.007-1.446 1.253-.64.263-1.369.064-2.023-.156-.811-.276-1.687-.623-2.257-1.292-.377-.444-.717-1.045.05-1.08.696-.032 1.438.474 2.093.653 1.016.275 2.142.025 3.01-.558zm10.065-12.54c0 .524.404.953.565 1.451.308.948-.466 2.081-1.458 2.138-.995.057-1.893-.977-1.7-1.952.043-.21.127-.416.135-.63.03-.806-.953-1.282-1.18-2.056-.132-.446.036-1.242.446-1.53.515-.367.878.23 1.428.194.489-.033.695-.665.605-1.146-.044-.233-.126-.459-.193-.687a11.808 11.808 0 0 1 1.275.9l.017.015c.047.037.094.074.139.114.08.067.159.134.235.203.035.03.067.06.102.092a11.956 11.956 0 0 1 .943.95c.02.022.042.045.06.067.036.045.074.087.11.132l.068.079c-.228.119-.46.238-.677.374-.467.29-.92.737-.92 1.292z" fill="#fff"/>
    <path opacity=".1" d="M23.873 10.24a11.724 11.724 0 0 0-.82-2.922 12.162 12.162 0 0 0-.91-1.735c-.038-.057-.075-.117-.112-.174a10.78 10.78 0 0 0-.521-.729 10.56 10.56 0 0 0-.362-.449 12.276 12.276 0 0 0-1.454-1.44 5.62 5.62 0 0 0-.139-.115l-.017-.015a11.704 11.704 0 0 0-.8-.593c-.232-.156-.467-.305-.708-.446-.37-.216-.754-.414-1.15-.588a11.77 11.77 0 0 0-2.698-.833c-.053-.01-.105-.017-.157-.027h-.003c-.07-.013-.139-.023-.21-.035A11.761 11.761 0 0 0 12.002 0h-.227c-.062 0-.126.002-.19.005h-.03l-.07.002c-.05 0-.096.003-.146.008h-.005c-.05.002-.1.005-.149.01-.035 0-.07.002-.104.005-.042.002-.084.007-.129.01-.092.007-.181.017-.273.027a10.83 10.83 0 0 1 .704.1h.003c.052.007.104.017.156.026a11.078 11.078 0 0 1 1.32.32 13.193 13.193 0 0 1 1.379.514c.394.176.778.372 1.15.588a12.593 12.593 0 0 1 1.508 1.04l.018.014c.047.037.094.074.139.114a12.271 12.271 0 0 1 1.453 1.44 12.887 12.887 0 0 1 .883 1.178c.04.058.074.115.111.174a11.787 11.787 0 0 1 1.139 2.314c.114.318.218.643.307.972a12.415 12.415 0 0 1 .285 1.372c.085.565.127 1.14.13 1.729v.119c0 .146-.003.292-.01.436a12.147 12.147 0 0 1-.183 1.65c-.01.056-.023.111-.036.168a11.84 11.84 0 0 1-.592 2.026 12.049 12.049 0 0 1-1.03 2.034c-.084.136-.173.268-.263.4-.052.071-.101.146-.153.215-.035.05-.07.1-.107.146l-.154.201-.062.082c-.03.04-.06.077-.091.114l-.077.092c-.02.025-.04.05-.06.072-.04.047-.077.092-.116.136-.03.037-.063.072-.095.107-.022.027-.047.052-.07.08-.004.007-.012.014-.019.022-.047.05-.092.101-.139.15-.03.03-.057.063-.09.093l-.088.094-.226.223-.082.08-.169.156-.024.022-.147.132c-.067.059-.136.116-.206.176-.05.04-.099.081-.146.121l-.141.112-.224.17c-.059.046-.116.088-.176.13-.002.002-.005.002-.007.005-.104.077-.213.151-.322.225l-.14.092-.208.134-.074.047c-.055.035-.11.067-.164.1l-.012.007-.102.06a9.858 9.858 0 0 1-.595.32c-.035.017-.07.037-.107.051-.089.045-.178.087-.268.13-.024.01-.047.022-.069.032a9.202 9.202 0 0 1-.365.156l-.198.082a13.31 13.31 0 0 1-.337.126c-.067.025-.134.047-.201.07a11.687 11.687 0 0 1-.952.278l-.087.022-.1.022-.121.027a.987.987 0 0 1-.092.02c-.015.003-.03.005-.047.01l-.149.03a10 10 0 0 1-.66.11c-.042.004-.086.011-.128.016l-.062.008-.124.015c.275.03.55.052.83.062.162.005.323.01.484.01.365 0 .724-.015 1.081-.05.042-.002.085-.007.124-.01l.082-.007c.055-.005.11-.013.164-.02l.062-.008c.042-.005.087-.01.129-.017a10 10 0 0 0 .607-.1c.018-.002.035-.004.053-.01l.148-.029c.015-.002.03-.007.047-.01a.987.987 0 0 0 .092-.02c.042-.007.082-.017.122-.027l.099-.022.087-.023a11.687 11.687 0 0 0 .952-.277l.201-.07.161-.06.176-.066c.067-.028.132-.052.199-.082.044-.017.089-.037.131-.055.077-.032.156-.067.233-.101l.07-.033c.089-.042.178-.084.268-.129.037-.017.072-.034.106-.052.05-.024.097-.05.144-.074.154-.08.303-.159.451-.246l.102-.06.013-.007c.054-.032.109-.064.163-.099l.075-.047.208-.134.139-.092c.109-.074.216-.148.322-.225.003 0 .005-.003.008-.005.06-.042.116-.087.176-.13l.223-.17.141-.112.147-.121c.07-.057.136-.117.206-.176l.146-.132c.007-.005.015-.015.025-.022.054-.052.111-.105.168-.157.028-.024.055-.052.082-.079.077-.074.151-.149.226-.223l.09-.094.088-.092a7.342 7.342 0 0 0 .16-.174c.024-.024.046-.052.069-.08a3.6 3.6 0 0 0 .094-.106c.04-.047.08-.091.116-.136.02-.025.043-.05.06-.072l.077-.092.092-.114c.022-.027.042-.052.062-.082.052-.064.104-.134.153-.2.038-.05.072-.1.107-.147.052-.072.104-.144.154-.216.091-.131.178-.263.263-.399a11.934 11.934 0 0 0 1.622-4.06l.034-.169c.01-.062.023-.121.033-.183a12.113 12.113 0 0 0 .16-1.902v-.12a12.81 12.81 0 0 0-.13-1.72z" fill="#000"/>
    <defs>
        <linearGradient id="paint0_linear_187_7" x1="20.823" y1="17.872" x2=".839" y2="4.576" gradientUnits="userSpaceOnUse">
            <stop stop-color="#C91F3E"/>
            <stop offset="1" stop-color="#E33C50"/>
        </linearGradient>
        <linearGradient id="paint1_linear_187_7" x1="2.804" y1="5.463" x2="14.403" y2="5.463" gradientUnits="userSpaceOnUse">
            <stop stop-color="#A91A34"/>
            <stop offset="1" stop-color="#C33445"/>
        </linearGradient>
        <linearGradient id="paint2_linear_187_7" x1="6.342" y1="20.226" x2="12.03" y2="20.226" gradientUnits="userSpaceOnUse">
            <stop stop-color="#A91A34"/>
            <stop offset="1" stop-color="#C33445"/>
        </linearGradient>
        <linearGradient id="paint3_linear_187_7" x1="15.517" y1="6.871" x2="20.975" y2="6.871" gradientUnits="userSpaceOnUse">
            <stop stop-color="#A91A34"/>
            <stop offset="1" stop-color="#C33445"/>
        </linearGradient>
        <linearGradient id="paint4_linear_187_7" x1="9.747" y1="17.099" x2="22.145" y2="17.099" gradientUnits="userSpaceOnUse">
            <stop stop-color="#A91A34"/>
            <stop offset="1" stop-color="#C33445"/>
        </linearGradient>
        <linearGradient id="paint5_linear_187_7" x1=".002" y1="15.05" x2="5.139" y2="15.05" gradientUnits="userSpaceOnUse">
            <stop stop-color="#A91A34"/>
            <stop offset="1" stop-color="#C33445"/>
        </linearGradient>
    </defs>
</svg>
