<svg width="24" height="24" viewBox="0 0 24 24" fill="none" xmlns="http://www.w3.org/2000/svg">
    <g clip-path="url(#clip0_187_61)">
        <path d="M24 11.971v.12c0 .145-.003.292-.01.436-.002.109-.01.22-.017.33a12.149 12.149 0 0 1-.166 1.319c-.01.057-.023.111-.035.168a11.838 11.838 0 0 1-.948 2.84v.005c-.037.08-.077.159-.116.236-.055.106-.11.213-.169.317-.042.077-.084.156-.129.23-.05.088-.099.172-.151.256-.035.057-.07.114-.107.171-.024.04-.05.077-.074.117-.06.097-.124.191-.189.283-.052.072-.101.146-.153.216-.035.05-.07.099-.107.146l-.154.2-.062.083c-.03.04-.06.076-.091.114l-.077.091c-.02.025-.04.05-.06.072l-.116.137c-.03.037-.063.072-.095.106-.022.028-.047.055-.07.08-.004.007-.012.015-.019.022-.047.05-.092.102-.139.151-.03.03-.057.062-.09.092l-.014.015-.075.077c-.074.074-.148.149-.225.223-.027.027-.055.052-.082.08-.055.052-.112.106-.169.156l-.024.022a.492.492 0 0 1-.04.035l-.107.096c-.067.06-.136.117-.206.177-.05.04-.099.081-.146.121l-.141.112-.224.17c-.059.046-.116.088-.176.13-.002.002-.005.002-.007.005-.107.077-.213.151-.322.225l-.14.092-.208.134-.074.047c-.055.035-.11.067-.164.1l-.012.007-.102.06a9.954 9.954 0 0 1-.451.245c-.047.025-.095.05-.144.074-.035.018-.07.038-.107.053-.089.044-.178.086-.268.128-.024.01-.047.023-.069.033a9.41 9.41 0 0 1-.365.156l-.198.082a13.878 13.878 0 0 1-.538.196c-.005 0-.008.002-.013.005l-.16.052c-.256.082-.517.156-.78.22l-.086.023-.1.022-.121.027c-.03.008-.06.015-.092.02-.015.003-.03.005-.047.01l-.149.03c-.017.002-.035.005-.052.01-.01.002-.02.002-.03.005-.19.037-.384.067-.578.094l-.129.017-.062.008c-.054.007-.109.012-.163.02l-.082.007c-.042.003-.082.008-.124.01a11.983 11.983 0 0 1-2.964-.097c-.149-.022-.292-.05-.439-.077a2.695 2.695 0 0 1-.151-.032 10.36 10.36 0 0 1-.498-.114c-.377-.097-.747-.21-1.11-.34a10.995 10.995 0 0 1-.617-.243c-.084-.037-.168-.072-.25-.109a11.814 11.814 0 0 1-1.19-.622 11.48 11.48 0 0 1-1.804-1.317 11.852 11.852 0 0 1-1.875-2.094 11.512 11.512 0 0 1-1.805-3.859c-.027-.104-.052-.21-.077-.314-.09-.377-.159-.764-.208-1.156-.018-.142-.035-.28-.047-.424-.005-.047-.01-.095-.013-.142A13.808 13.808 0 0 1 0 12c0-.118 0-.237.005-.359.015-.543.067-1.076.154-1.597.062-.39.146-.771.248-1.148a10.4 10.4 0 0 1 .287-.928c.31-.865.715-1.684 1.203-2.445A11.845 11.845 0 0 1 4.5 2.633c.097-.079.196-.153.295-.228l.052-.04c.013-.01.025-.017.037-.027l.15-.109.116-.082a4.2 4.2 0 0 0 .131-.091l.169-.112c.054-.037.111-.072.166-.107.042-.024.082-.052.121-.077a4.437 4.437 0 0 1 .285-.169c.016-.01.033-.017.048-.026.03-.018.06-.035.09-.05l.108-.06.047-.024c.033-.018.062-.035.095-.05l.094-.05.012-.007c.025-.012.05-.027.075-.037.077-.04.156-.077.233-.114.06-.03.119-.057.18-.085.088-.04.174-.08.264-.116L7.37.927c.05-.02.102-.042.151-.06.005-.002.008-.004.013-.004.04-.015.076-.033.119-.047L7.66.813c.035-.012.067-.027.102-.04.034-.012.07-.027.104-.04A11.309 11.309 0 0 1 8.956.392l.136-.034.11-.028c.007-.002.014-.005.022-.005.02-.005.04-.007.059-.012A.396.396 0 0 0 9.335.3h.005c.042-.013.084-.023.129-.03.007-.003.015-.003.025-.005.044-.01.09-.02.134-.027.042-.008.084-.018.126-.025.018-.003.035-.005.052-.01.038-.005.075-.012.112-.02.05-.007.1-.017.146-.025.147-.025.293-.044.442-.062.037-.005.074-.01.111-.012.11-.013.221-.025.333-.035.044-.002.087-.007.129-.01.034-.002.07-.005.104-.005.05-.002.099-.007.149-.01h.005l.146-.007.07-.003h.03c.061-.002.126-.005.19-.005h.225a11.951 11.951 0 0 1 2.027.172h.002c.053.007.105.017.157.027.17.032.342.067.51.107.273.062.544.133.81.215a13.193 13.193 0 0 1 1.378.514c.394.176.779.372 1.15.587.241.142.477.29.708.447.111.077.225.156.335.238.158.114.315.233.466.357l.017.015c.047.037.094.074.139.114a12.325 12.325 0 0 1 1.453 1.44 12.938 12.938 0 0 1 .883 1.178c.04.058.075.115.112.175a11.796 11.796 0 0 1 1.138 2.314 11.567 11.567 0 0 1 .308.972 12.482 12.482 0 0 1 .285 1.371c.015.104.03.209.042.31.01.09.023.176.03.263 0 .018.002.033.005.05l.017.233c.005.064.01.131.013.196v.03l.007.158c.003.05.003.102.005.152.002.101.005.215.005.327z" fill="url(#paint0_linear_187_61)"/>
        <path opacity=".5" d="M20.637 20.334l-.074.077-.226.223c-.027.027-.055.052-.082.08a4.985 4.985 0 0 1-.233.213l-.107.096c-.067.06-.136.117-.206.177-.05.04-.099.081-.146.121l-.141.112-.224.17a7.87 7.87 0 0 1-.176.13c-.002.002-.005.002-.007.005-.107.077-.213.151-.322.225l-.14.092-.208.134-.074.047c-.055.035-.11.067-.164.1l-.012.007-.102.06a9.902 9.902 0 0 1-.451.245c-.047.025-.094.05-.144.074-.035.018-.07.037-.107.052-.089.045-.178.087-.268.13-.024.01-.047.022-.069.032a9.801 9.801 0 0 1-.365.156l-.198.082a12.81 12.81 0 0 1-.176.067l-.161.06a6.286 6.286 0 0 1-.201.069c-.005 0-.008.002-.013.005a11.628 11.628 0 0 1-.94.273l-.086.022-.1.022-.121.027c-.03.008-.06.015-.092.02a.396.396 0 0 0-.047.01l-.149.03c-.017.002-.034.005-.052.01-.01.002-.02.002-.03.005.56-1.516 2.359-2.95 1.838-4.521-1.689-.422-3.42-.01-5.126.466-.489.136-.975.277-1.456.404-1.67.444-3.571.68-5.126.09a4.118 4.118 0 0 1-1.283-.767c-.19-.169-.374-.372-.406-.625-.038-.298.146-.578.327-.816 1.3-1.691 3.018-2.929 4.92-3.896 1.263-.643 2.612-1.166 3.974-1.627a63.247 63.247 0 0 1 2.212-.695c.95-.282 1.952-.587 2.621-1.317.67-.731.814-2.038.03-2.64-.952-.735-2.284.044-3.271.73a22.384 22.384 0 0 1-6.485 3.088c-2.014.588-4.11.898-6.206.903a3.32 3.32 0 0 1-.774-.087A7.868 7.868 0 0 1 0 12.001c0-.12 0-.238.005-.36.015-.543.067-1.076.154-1.597a9.657 9.657 0 0 1 5.067-2.493c2.296-.367 6.349-.168 6.505-3.256.005-.084.005-.171.005-.263-2.756.543-5.28.04-7.235-1.399.097-.079.196-.153.296-.228l.052-.04c.012-.01.024-.017.037-.027l.149-.109c.04-.027.077-.054.116-.082l.132-.091.168-.112c.055-.037.112-.072.166-.107.043-.024.082-.052.122-.077a4.437 4.437 0 0 1 .285-.169c.015-.01.032-.017.047-.027l.09-.05.109-.059.047-.024c.032-.018.062-.035.094-.05l.094-.05.013-.007c.025-.012.05-.027.074-.037.077-.04.156-.077.233-.114.06-.03.12-.057.181-.085.087-.04.174-.08.263-.116l.104-.045c.05-.02.102-.042.152-.06.005-.002.007-.004.012-.004.04-.015.077-.033.12-.047.002 0 .004-.003.007-.003.034-.012.067-.027.101-.04.035-.012.07-.027.104-.04.229-.084.46-.16.692-.23.948.057 1.927.134 2.93.337.359.075.726.176 1.009.412.072.06.136.126.193.193 1.022 1.258-.754 3.745.211 5.065.052.072.114.141.186.208 1.071-.652 2.188-1.297 3.425-1.505 1.238-.209 2.639.109 3.415 1.098.625.797.744 1.885.63 2.89-.29 2.577-2.138 4.987-4.64 5.667-1.538.416-3.38.292-4.851.724-.774.226-1.444.605-1.915 1.297.305.704.977.923 1.761.928.744.005 1.587-.181 2.304-.323 2.557-.503 5.347.444 7.068 2.398.122.137.24.286.35.442z" fill="#C2A9FF"/>
        <path opacity=".5" d="M24 11.971v.12c0 .145-.003.292-.01.436-.002.109-.01.22-.017.33a12.149 12.149 0 0 1-.166 1.319c-.01.057-.023.111-.035.168a11.83 11.83 0 0 1-.948 2.84v.005c-.037.08-.077.159-.116.236-.055.106-.11.213-.169.317-.042.077-.084.156-.129.23a8.577 8.577 0 0 1-.258.427c-.025.04-.05.077-.074.117-.305-.833-.687-1.642-1.307-2.267-.6-.602-1.483-1.227-1.282-2.053.21-.856 1.356-.977 2.093-1.464.942-.62 1.19-1.86 1.468-2.95.092-.363.263-.757.484-1.122a12.481 12.481 0 0 1 .342 1.575c.015.104.03.208.042.31.01.09.022.176.03.263 0 .017.002.032.005.05l.017.233c.005.064.01.131.013.196v.03l.007.158c.003.05.003.102.005.151.002.12.005.233.005.345z" fill="#C2A9FF"/>
        <path opacity=".2" d="M19.072 2.306c-.67.781-1.602 1.314-2.53 1.776-1.032.513-2.108.977-2.98 1.73-.874.752-1.526 1.87-1.392 3.014.06.509.273.995.302 1.506.048.78-.325 1.515-.617 2.242-.657 1.632-.928 3.405-.94 5.163-.008 1.218.104 2.453-.134 3.646-.176.888-.593 1.77-1.253 2.361a10.357 10.357 0 0 1-.498-.114c-.377-.097-.747-.21-1.109-.34a10.992 10.992 0 0 1-.617-.243c-.085-.037-.169-.072-.25-.109a11.818 11.818 0 0 1-1.142-.593l-.05-.03A11.493 11.493 0 0 1 4.06 21c.188-.69.568-1.32.992-1.898.808-1.103 1.805-2.088 2.408-3.318.6-1.23.71-2.847-.21-3.862-.34-.377-.794-.64-1.134-1.016-.395-.44-.613-1.007-.794-1.57-.322-.987-.536-2.15.062-2.996.655-.928 1.95-1.044 3.076-1.19.77-.1 1.532-.254 2.284-.457.459-.124.93-.28 1.262-.615.789-.794.459-2.136.821-3.195.104-.3.28-.57.513-.806.16.018.318.04.477.062.069.01.14.023.21.035h.003l.156.027c.171.033.342.067.511.107.273.062.543.134.809.216a13.193 13.193 0 0 1 1.378.513c.395.176.78.372 1.151.588.24.141.476.29.707.446.11.077.22.154.33.236z" fill="#C2A9FF"/>
        <path opacity=".3" d="M24 11.971v.12c0 .145-.003.292-.01.436-.002.109-.01.22-.017.33a12.115 12.115 0 0 1-.166 1.319c-.01.057-.023.111-.035.168a11.82 11.82 0 0 1-.948 2.84v.003a1.088 1.088 0 0 1-.205-.313c-.14-.315-.137-.687-.31-.984-.36-.613-1.382-.796-1.41-1.508-.014-.397.328-.72.685-.896.454-.228.943-.347 1.265-.766.298-.382.28-.84.462-1.26.143-.33.364-.526.64-.6.004.077.012.156.017.233.005.065.01.132.012.196v.03l.008.158c.002.05.002.102.005.152.005.116.007.23.007.342zm-3.98 8.956c-.038.034-.073.064-.107.096-.067.06-.137.117-.206.177-.05.04-.1.081-.146.121l-.142.112-.223.17c-.06.045-.117.088-.176.13l-.008.005c-.106.077-.213.151-.322.225l-.139.092-.208.134-.075.047c-.054.035-.109.067-.163.1l-.013.007-.101.06a9.902 9.902 0 0 1-.452.245c-.047.025-.094.05-.144.074-.034.018-.069.037-.106.052-.09.045-.179.087-.268.13-.025.01-.047.022-.07.032a9.808 9.808 0 0 1-.364.156l-.198.082-.177.067-.16.06a6.373 6.373 0 0 1-.202.069c-.005 0-.007.002-.012.005.134-.44.367-.878.414-1.342.017-.169.027-.347.102-.501.131-.268.426-.412.63-.633.253-.28.34-.699.215-1.056-.129-.37-.463-.71-.367-1.089.1-.392.65-.52 1.002-.32.353.201.531.608.633 1 .064.258.124.55.35.692.22.15.528.084.766.208.178.094.288.283.377.466.022.042.042.082.06.127zm-14.544-4.92c-.245.272-.496.582-.52.949-.02.285.094.59-.038.843-.166.323-.637.377-.82.69-.122.208-.075.486.066.684.142.196.357.325.58.42.75.317 1.593.31 2.406.294.263-.004.531-.01.774-.111.516-.213.781-.888.55-1.394-.153-.34-.483-.59-.572-.95-.104-.426.17-.86.513-1.133.342-.273.759-.442 1.106-.71.137-.104.266-.23.32-.391.137-.405-.285-.824-.71-.844-.426-.02-.813.234-1.142.504-.496.407-.72.295-1.258.362-.518.067-.913.41-1.255.786zM2.406 9.51c-.179.19-.34.424-.343.687-.002.421.432.746.854.764.421.017.818-.194 1.168-.43.35-.235.687-.505 1.086-.64.427-.143.89-.116 1.342-.096.451.02.917.025 1.332-.151.414-.179.763-.59.721-1.04-.047-.515-.59-.872-1.106-.892-.518-.02-1.01.206-1.473.436-1.205.593-2.587.305-3.581 1.362zm15.75-.915c-.036 1.17-.795 2.289-1.872 2.755-.367.159-.763.245-1.12.427-.358.18-.685.488-.742.885-.077.55.429 1.059.98 1.136.55.08 1.098-.174 1.537-.513.466-.36.853-.821 1.121-1.345.196-.38.335-.796.613-1.118.2-.233.464-.405.67-.633.275-.305.436-.7.513-1.1.215-1.157-.323-2.419-1.305-3.066a3.06 3.06 0 0 0-1.996-.467c-.402.043-1.317.15-1.034.678.22.409 1.148.515 1.532.68.74.314 1.129.87 1.104 1.68zm-6.755-5.779c-.27.253-.665.342-1.032.303-.697-.075-1.398-.561-2.043-.288-.159.067-.298.173-.462.223-.843.246-2.1-.151-2.715-.905l.131-.092.169-.112c.054-.037.111-.071.166-.106.042-.025.082-.052.121-.077l.028-.015c.025-.015.05-.03.074-.047.06-.037.122-.072.184-.107.015-.01.032-.017.047-.027a1.6 1.6 0 0 1 .09-.05l.108-.06.047-.024c.033-.017.062-.035.095-.05l.094-.05.012-.007c.025-.012.05-.027.075-.037.077-.04.156-.077.233-.114.06-.03.119-.057.18-.084.088-.04.174-.08.264-.117L7.37.93c.05-.02.102-.043.151-.06-.032.38-.097.766.114 1.067.037.052.082.099.142.119.057.02.121.01.18-.005.571-.14.985-.648 1.54-.836.452-.154.948-.075 1.397.084.283.1.57.248.712.509.174.322.064.756-.206 1.009z" fill="#6C53CE"/>
        <path opacity=".2" d="M19.528 4.898c.273.084.56.141.801.292.568.358.712 1.129.643 1.794-.037.377-.127.76-.052 1.133.074.372.377.739.756.724.278-.01.516-.228.62-.483.104-.256.094-.546.047-.819a3.25 3.25 0 0 0-.503-1.257c-.464-.69-1.196-1.2-1.506-1.972-.208-.518-.816-1.297-1.43-.704-.546.525.116 1.133.624 1.292zm-5.436 10.719c-.199.022-.407.057-.558.186-.151.129-.218.38-.09.53.075.087.194.122.306.144.424.092.865.11 1.294.052.474-.061.943-.215 1.419-.166.863.09 1.505.804 2.227 1.285.37.245.898.427 1.228.129.255-.23.248-.655.067-.947-.184-.293-.494-.474-.806-.62-.196-.092-.407-.184-.524-.365-.082-.127-.109-.28-.176-.417-.392-.779-1.369-.548-1.942-.245-.741.397-1.634.342-2.445.434z" fill="#6C53CE"/>
        <path opacity=".3" d="M1.637 14.858c-.01.245-.008.51.144.704a.74.74 0 0 0 .374.238c.308.095.655.055.933-.106.565-.33.813-1.104 1.438-1.305.442-.144.943.057 1.382-.094a.496.496 0 0 0 .21-.127.449.449 0 0 0 .107-.233c.067-.362-.164-.729-.476-.92-.313-.193-.692-.243-1.06-.258-.661-.027-1.495-.007-2.115.26-.749.323-.905 1.107-.937 1.84z" fill="#6C53CE"/>
        <path opacity=".1" d="M23.874 10.237a11.724 11.724 0 0 0-.82-2.922 12.151 12.151 0 0 0-.912-1.735l-.111-.174c-.164-.25-.337-.493-.52-.729a10.638 10.638 0 0 0-.363-.449 12.323 12.323 0 0 0-1.592-1.555l-.018-.015a11.706 11.706 0 0 0-.8-.593c-.231-.156-.467-.305-.707-.446-.37-.216-.755-.414-1.151-.588a11.787 11.787 0 0 0-2.698-.833c-.053-.01-.105-.017-.157-.027h-.002c-.07-.013-.14-.023-.211-.035a11.761 11.761 0 0 0-1.81-.139h-.226c-.062 0-.127.003-.191.005h-.03l-.07.003c-.05 0-.096.002-.146.007h-.005c-.05.002-.099.005-.149.01-.034 0-.07.002-.104.005-.042.002-.084.007-.129.01-.091.007-.18.017-.273.027a10.835 10.835 0 0 1 .707.1h.003c.052.007.104.017.156.027a11.077 11.077 0 0 1 1.32.32 13.193 13.193 0 0 1 1.378.513c.395.176.78.372 1.151.588a12.62 12.62 0 0 1 1.508 1.04l.017.014c.047.037.095.074.14.114.307.258.602.53.882.818.199.201.387.41.57.623a12.837 12.837 0 0 1 .883 1.178c.04.057.075.114.112.173a11.787 11.787 0 0 1 1.139 2.314c.114.318.218.643.307.972a12.415 12.415 0 0 1 .285 1.372c.085.566.127 1.14.13 1.729v.119c0 .146-.003.292-.01.436a12.115 12.115 0 0 1-.184 1.65c-.01.056-.022.111-.035.168a12.045 12.045 0 0 1-1.515 3.889 11.136 11.136 0 0 1-.37.57c-.052.072-.101.147-.154.216-.034.05-.069.1-.106.146l-.154.201-.062.082c-.03.04-.06.077-.092.114l-.077.092c-.02.025-.04.05-.06.072-.039.047-.076.092-.116.136-.03.037-.062.072-.094.107-.022.027-.047.052-.07.08-.004.007-.012.014-.02.022-.046.05-.091.101-.138.15-.03.03-.057.063-.09.093l-.089.094-.225.223-.082.08-.169.156c-.007.007-.015.015-.025.022l-.146.132c-.067.06-.136.116-.206.176-.05.04-.1.082-.146.121l-.142.112-.223.17c-.06.046-.116.088-.176.13-.002.002-.005.002-.007.005-.105.077-.214.151-.323.226l-.139.091-.208.134-.074.047c-.055.035-.11.067-.164.1l-.012.007-.102.06a9.902 9.902 0 0 1-.595.32c-.035.017-.07.037-.107.052l-.268.128c-.025.01-.047.023-.07.033a9.801 9.801 0 0 1-.364.156l-.198.082-.176.067-.162.06-.2.069a11.687 11.687 0 0 1-.952.278l-.088.022-.099.022-.121.027a.997.997 0 0 1-.092.02.376.376 0 0 0-.047.01l-.149.03a10.089 10.089 0 0 1-.66.11c-.042.004-.086.011-.129.016l-.062.008-.124.015c.276.03.55.052.831.062.161.005.322.01.484.01.364 0 .724-.015 1.081-.05.042-.002.084-.007.124-.01l.082-.007c.054-.005.109-.013.164-.02l.062-.008c.042-.005.086-.01.129-.017a10.089 10.089 0 0 0 .66-.11l.148-.029c.015-.002.03-.007.047-.01a.99.99 0 0 0 .092-.02c.042-.007.082-.017.122-.027l.099-.022.087-.023a11.707 11.707 0 0 0 .952-.277l.2-.07.162-.06.176-.066c.067-.027.131-.052.198-.082.045-.017.09-.037.132-.055.077-.032.156-.067.233-.101.022-.01.047-.023.07-.032a13.622 13.622 0 0 0 .97-.502l.1-.059c.006-.002.008-.005.013-.008.055-.032.11-.064.164-.099l.074-.047.209-.134.139-.091a14.829 14.829 0 0 0 .33-.231c.059-.042.116-.087.175-.13l.224-.17.141-.112c.05-.04.1-.082.146-.121.07-.057.137-.117.206-.176l.147-.132c.007-.005.015-.015.024-.022l.17-.157a19.106 19.106 0 0 0 .308-.302c.028-.032.058-.062.088-.094l.09-.092.138-.151c.005-.008.012-.015.02-.023a1.05 1.05 0 0 0 .07-.079l.094-.107c.04-.047.079-.091.116-.136l.06-.072.076-.092.092-.114c.023-.027.043-.052.062-.082.052-.064.104-.134.154-.2l.107-.147a11.498 11.498 0 0 0 .416-.615c.038-.057.072-.114.107-.171a11.935 11.935 0 0 0 1.515-3.889c.013-.057.023-.112.035-.169l.032-.183c.062-.372.107-.752.134-1.136.008-.11.015-.218.018-.33.007-.144.01-.29.01-.436v-.12a13.22 13.22 0 0 0-.134-1.72z" fill="#000"/>
        <path opacity=".2" d="M15.262 7.747c-.587.181-1.135.593-1.336 1.176-.256.737.084 1.533.402 2.247.317.712.625 1.533.315 2.25-.221.513-.71.848-1.087 1.26-.374.414-.645 1.05-.335 1.515.206.307.596.429.96.498.61.12 1.248.159 1.845-.012.598-.171 1.149-.578 1.384-1.154.454-1.123-.377-2.51.204-3.57.357-.656 1.145-.96 1.59-1.563.525-.715.419-1.82-.234-2.42-.741-.685-1.875-.64-2.88-.556" fill="#fff"/>
    </g>
    <defs>
        <linearGradient id="paint0_linear_187_61" x1="20.824" y1="17.871" x2=".839" y2="4.575" gradientUnits="userSpaceOnUse">
            <stop stop-color="#5851F8"/>
            <stop offset="1" stop-color="#9268FC"/>
        </linearGradient>
        <clipPath id="clip0_187_61">
            <path fill="#fff" transform="translate(0 -.003)" d="M0 0H24V24.005H0z"/>
        </clipPath>
    </defs>
</svg>
