<svg width="16" height="16" xmlns="http://www.w3.org/2000/svg">
    <ellipse fill="#FFFFFF" cx="8.017" cy="9.528" rx="6.227" ry="6.217"/>
    <path fill="#3C2B99" fill-rule="evenodd" clip-rule="evenodd" d="M12.041.144l-.506.416.6.5-1.008-.24-.921.605.421-.716L9.201.48l1.586-.186.128-.305.312.304.814-.148zm-.689 10.176c-.251.3-.69.177-.86-.142-.21-.396-.284-.814-.042-.963.135-.083.15-.343.01-.437-.741-.501-2.021-.487-2.949-.192-.422.134-.939.367-1.258.692-.288.294-.391.593-.394.823.066-.103.086-.046.093 0 .043.273.158.325.338 1.058.025.103.05.233.072.348.021.116.046.18.031.199.033.188-.116.246-.217.049-.105-.169-.193-.347-.254-.736-.05-.312.031-.555-.06-.623-.042-.032-.102.437-.04.834.063.399.348.928.536 1.18.325.438.726.8 1.085 1.042-.024.019-.033.05-.045.074a.38.38 0 0 1 .17-.046c.157-.005.322.073.336.122.002.025-.1.005-.219-.02-.133-.028-.292-.008-.344.054-.117.142.01.307.072.368-.043.151-.21.357-.383.244-.213-.14-.39-.488-.03-.664.008-.004.156-.06.326-.083-.843-.467-1.353-.868-1.727-1.829-.093-.237-.323-1.189-.26-1.862.12-1.298 1.072-1.892 2.318-2.14 1.303-.26 2.748-.172 3.042.225.141.19.341.016.569.204a2.605 2.605 0 0 1 1.047 2.017c.042 1.273-.586 1.888-.556 1.681.028-.189.077-.697-.028-1.12-.219-.888-.401-1.265-1.011-1.733-.068-.064-.106-.003-.034.088.336.376.452.582.666 1.288zm-.184 1.657a1.406 1.406 0 0 1-.393.809c.093.061.224.234.279.327-.206-.023-.452.076-.674.355-.076-.035-.156-.18-.127-.259.063-.175.246-.28.456-.292.066-.003-.005-.072-.033-.072-.164.002-.465.088-.532.342-.126-.079-.442.159-.525.27-.194.26-.243.413-.65.48-.404.067-.582-.027-.727-.223.044-.287-.187-.354-.262-.396-.076-.042-.384-.098-.493.071-.29-.304-.895-1.015-.939-1.47-.018-.187.058-.172.025-.593-.02-.259-.097-.473-.116-.54-.025-.094-.172-.123-.185-.218-.024-.185-.014-.38.116-.413.187-.048.374-.01.555.049a.668.668 0 0 0-.288.191c-.07.085-.123.14-.16.19-.027.035.085.057.146.048.15-.022.157-.249.321-.27.025.094.075.171.16.195l.218-.03c.055-.038.08-.103.075-.189.125-.022.242.065.288.179.02.05.02.092.034.096.027.008.004-.31-.119-.457-.166-.2-.382-.252-.77-.252-.154 0-.458-.069-.58.027-.06.047-.063.121-.088.16h-.028a.904.904 0 0 1 .279-.88c.267-.23.784-.398 1.092-.502.727-.245 1.381-.294 1.751-.181.27.082.511.236.425.393-.033.06-.105-.007-.185-.014-.274-.024-.241.106-.916.488-.068.038-.086.08-.215.112-.043.011-.078.078-.074.173.005.09.14.054.095.104-.046.05-.097.117-.1.194-.004.1.013.153.014.21 0 .01.013.203.091.235.07.029.153-.102.154-.193-.024-.143.21-.396.237-.302.015.05-.09.157-.01.19.036.022.2-.018.225-.065.008-.013-.098-.018-.093-.033.051-.046.124-.193.182-.226-.008.13.055.214.185.235a.36.36 0 0 0 .05.005l.143-.05a.245.245 0 0 0 .064-.178c.047.007.133.029.163.076.119-.06.23-.152.346-.26.075-.069.082.077.094.126.107.426.245.675.504.797-.043.105-.1.26-.133.405-.042.189.156.397.174.706.013.227-.049.518-.024.49.126-.06.165-.384.156-.631-.006-.146-.037-.287.034-.304.279-.069.365.367.308.765zm-3.6-.017c-.005.062-.024.146-.03.226-.006.082.001.16-.013.21-.013.043-.184-.042-.132-.14.051-.099.185-.42.175-.296zm2.142-.757c.158.066.426.21.52.331.069.087.04.156.03.188-.015.05-.31-.259-.555-.378-.296-.144-.468-.12-.492-.16-.029-.046.304-.06.497.02zM.477 8.367c0-3.99 3.149-7.28 7.132-7.602-3.326.614-5.857 3.49-5.857 6.928 0 .113.003.226.008.338.672-2.907 3.33-5.089 6.49-5.089 3.665 0 6.655 2.934 6.655 6.53S11.915 16 8.25 16C4 16 .477 12.565.477 8.367zm5.552 6.84l.27-.343c1.507.771 3.724-.1 5.011-1.136l.243.295.632-.583-.276-.278c1.33-1.531 1.402-3.329.901-4.997-.064-.194-.13-.14-.095.056.302 1.652.104 3.27-1.062 4.533-1.03 1.116-2.282 1.819-3.85 1.916-1.101.069-2.228-.615-2.6-1.203-.704-1.111-.826-1.942-.883-2.721l-.29-.192c-.079 1.56.36 2.959 1.53 3.86l-.261.294.73.5zm-3.4-5.42c-.105.332-.191 2.007 1.396 2.589.064.024-.56-.756-.713-1.324-.13-.483.025-.857.053-.866-.173-.088-.489-.311-.625-.467-.129-.148-.35-.857.097-1.516.634-.935 1.73-1.415 2.718-1.713 1.074-.325 2.992-.497 4.521-.275 1.699.247 2.521.752 2.86.982-.013.013-.07.079-.125.122.088.756.374 1.53.863 2.222.15.214.445.339.334.139-.11-.198-.338-.794-.474-1.434-.093-.438-.114-.897-.14-1.263-.032-.485-.537-.155-.686-.297-.257-.244-.64-.49-1.038-.682-.35-.17-.63-.228-.591-.374.03-.115.541-.076.911.03.165.046.084-.962-1.519-1.804-.702-.369-1.718-.568-3.067-.275a1.741 1.741 0 0 0-.736-.051c-.537.108-.921.317-1.281.719-.387-.007-1.118.825-1.404 1.15-.08.006-.255.116-.33.166-.587.39-.787 1.955-1.071 2.506-.338.459-.423 1.36.047 1.717zm2.874 3.78c-.587-.71-.727-1.361-.78-1.502-.107-.28-.296-1.182-.158-1.227.03-.01.294.355.403.512.14.202.343.527.204.642-.132.11 0 .657.31 1.233.36.668 1.01.946 1.05 1.018.067.116-.57-.122-1.029-.676zM8.676 6.57l.059.161c-1.538-.012-4.189.496-5.246 1.664-.353.39-.526.96-.286 1.089-.048-.292.165-.612.428-.949.605-.774 2.42-1.3 3.46-1.455 1.223-.183 2.428-.194 3.407-.015.573.105 1.22.295 1.533.471.086-.15-.653-.7-2.632-.794l-.016-.484c-1.746-.112-4.197.092-5.944 1.554-.135.112-.214.36-.146.453C4.444 7.158 6.63 6.55 8.676 6.569zm-1.52 3.74c.024 0 .043.02.043.043 0 .023-.02.042-.043.042a.042.042 0 0 1-.043-.042c0-.023.02-.042.043-.042zm2.102-.552c.024 0 .043.019.043.042 0 .023-.019.042-.043.042a.042.042 0 0 1-.042-.042c0-.023.019-.042.042-.042zm.379-.476c.25 0 .313.093.313.18 0 .088-.113.152-.38.069-.266-.083-.406.007-.425-.04-.022-.056.242-.21.492-.21zm-1.332 2.563c.118-.02.142-.108.255-.22.047-.046.032-.102-.001-.213-.04-.133-.09-.28-.059-.326.048-.066.13.016.248.013.147-.005.224.06.348.13.04.023.188.256.052.357a1.43 1.43 0 0 0-.27.237c-.032.078-.19.207-.44.199a.592.592 0 0 1-.241-.048c-.13-.059-.231-.037-.28-.07-.034-.02-.096-.074-.04-.131.008-.008.066.046.168.08.075.025.18.006.26-.008zm.542-.647c.095 0 .146.063.146.142 0 .08-.1.182-.182.182-.048 0-.091.006-.108-.112-.005-.033-.025-.064-.035-.092-.038-.108.085-.12.18-.12zm-.184 1.269c.122-.027.085-.081.322-.188.11-.051.22-.062.339-.12.212-.105.426-.2.566-.232.075-.018.125.025.154.05-.075.038-.154.116-.253.175a.8.8 0 0 0-.247.276c-.05.09-.062.215-.128.301-.116.151-.622.385-1.009.245-.237-.086-.303-.284-.392-.307-.206-.054-.215-.038-.21-.126.046.009.125.03.315.008.1-.012.218-.071.313-.082.096-.01.181.01.23 0zm.032.18c.297-.084.571-.312.617-.227.046.085-.158.325-.585.409-.236.046-.47-.012-.491-.084-.026-.088.099.003.459-.098zM7.03 4.26c.132-.002.217-.035.319-.049.123-.017.26-.015.396-.016.199 0 .323.131.324.247.003.292-.083.39-.253.5-.143.091-.459.104-.648.11-.027.085-.043.142-.015.182.014.019.066 0 .062.016l-.019.066-.42.03.014-.068c.023-.02.11-.008.133-.108l.198-.854h-.087l-.004-.056zm.33.045c.074 0 .366-.076.413.055.041.117.002.476-.202.552-.15.057-.262.064-.377.072l.167-.68zm-1.053.093c.29-.003.256.34.082.32-.198-.022-.048-.18-.157-.202-.148-.03-.238.172-.296.348-.061.185-.171.469-.064.535a.244.244 0 0 0 .34-.181c.032-.145.278-.15.233-.014-.08.248-.363.317-.553.324-.316.013-.33-.406-.233-.607.165-.342.324-.52.648-.523zm-1.294.515c.148 0 .098.3-.04.278-.125-.019-.003-.105-.084-.14-.097-.042-.223.305-.242.354-.067.18-.146.494-.094.524.041.023.2.026.239-.199.025-.144.18-.122.17-.067-.045.251-.306.372-.457.38-.211.013-.163-.35-.077-.547.085-.198.327-.583.585-.583zm-.778.52c.138 0 .056.29-.073.27-.117-.02.065-.142-.01-.177-.091-.042-.231.358-.249.408-.063.18-.188.437-.139.467.038.023.186.026.223-.199.024-.144.15-.122.141-.067a.477.477 0 0 1-.409.38c-.152.01-.063-.333.006-.494.069-.161.314-.588.51-.588z"/>
    <path fill="#3C2B99" d="M11.535.56l.506-.416-.814.148-.312-.304-.128.305L9.201.48l1.426.229-.421.716.921-.605 1.008.24-.6-.5z"/>
</svg>
