<svg width="16" height="16" viewBox="0 0 16 16" fill="none" xmlns="http://www.w3.org/2000/svg">
<g clip-path="url(#clip0_1352_52378)">
<circle cx="8.33013" cy="8.79851" r="4.9207" fill="white"/>
<path fill-rule="evenodd" clip-rule="evenodd" d="M11.5038 1.37101L11.1039 1.7002L11.5778 2.0956L10.7821 1.90594L10.0541 2.38474L10.3873 1.81803L9.26078 1.63665L10.5137 1.48873L10.6141 1.24725L10.8606 1.48779L11.5038 1.37101ZM10.9598 9.42555C10.761 9.66199 10.4144 9.56513 10.2808 9.3131C10.1145 8.99951 10.0564 8.66837 10.247 8.55083C10.3537 8.48501 10.3656 8.27907 10.2553 8.20438C9.66968 7.80787 8.65886 7.81937 7.92617 8.05245C7.59279 8.1585 7.18464 8.34285 6.93238 8.60067C6.70512 8.83294 6.62356 9.06972 6.62122 9.25171C6.67371 9.17016 6.68895 9.21542 6.69462 9.25168C6.72845 9.46786 6.81913 9.50954 6.96148 10.0895C6.98154 10.1712 7.00098 10.2736 7.01822 10.3651C7.03546 10.4567 7.0552 10.5075 7.04306 10.5221C7.06901 10.6711 6.95154 10.7172 6.87164 10.5606C6.78853 10.4274 6.71921 10.2866 6.67082 9.97863C6.63195 9.73138 6.69581 9.53886 6.62427 9.48543C6.59057 9.46027 6.54296 9.83152 6.59223 10.1454C6.64183 10.4613 6.86694 10.8799 7.01552 11.0802C7.27182 11.4259 7.5887 11.7121 7.87257 11.904C7.85354 11.919 7.84634 11.9433 7.83693 11.9627C7.88879 11.9351 7.93502 11.9273 7.97027 11.9262C8.09493 11.9222 8.22493 11.984 8.23617 12.0228C8.23795 12.0431 8.15741 12.0274 8.06337 12.0072C7.95862 11.9847 7.83287 12.0006 7.79186 12.0501C7.69894 12.1621 7.79902 12.2928 7.84861 12.3409C7.81449 12.461 7.68238 12.6238 7.54609 12.5345C7.37755 12.4242 7.23827 12.1482 7.52201 12.0087C7.529 12.0053 7.64576 11.9611 7.77973 11.9433C7.11395 11.5735 6.71132 11.2556 6.41573 10.4957C6.34263 10.3078 6.16041 9.55446 6.2101 9.0212C6.30577 7.99447 7.05691 7.52436 8.04158 7.32791C9.07075 7.12257 10.2117 7.19182 10.4442 7.506C10.5553 7.65617 10.7135 7.5181 10.8931 7.66735C11.279 7.957 11.6948 8.489 11.7202 9.26385C11.7532 10.2717 11.2574 10.7579 11.2812 10.5944C11.3029 10.4447 11.3416 10.0422 11.2591 9.70727C11.0861 9.00484 10.9422 8.70676 10.4602 8.33593C10.4065 8.28579 10.3768 8.33344 10.4336 8.40576C10.6989 8.70326 10.7902 8.86666 10.9598 9.42555ZM10.8139 10.737C10.772 11.0288 10.6389 11.2444 10.5037 11.3768C10.5772 11.4255 10.681 11.562 10.7239 11.6362C10.5619 11.6179 10.3674 11.696 10.1919 11.9172C10.1319 11.8889 10.0686 11.7745 10.0913 11.7121C10.1417 11.5734 10.286 11.4905 10.4513 11.4811C10.5038 11.4781 10.4474 11.4238 10.4254 11.4241C10.2962 11.4258 10.0585 11.4934 10.0052 11.6948C9.90612 11.6322 9.65602 11.8202 9.59052 11.9081C9.43729 12.1137 9.39896 12.2355 9.0779 12.2885C8.75829 12.3413 8.61788 12.267 8.50338 12.1116C8.53841 11.8848 8.35528 11.8313 8.29622 11.7983C8.23654 11.7649 7.9927 11.7207 7.90716 11.8545C7.67821 11.6138 7.20003 11.0508 7.16562 10.6914C7.15143 10.5431 7.21096 10.5548 7.18543 10.2213C7.16977 10.0166 7.10829 9.84742 7.09366 9.79346C7.07368 9.71966 6.95731 9.6964 6.94752 9.62178C6.92828 9.47509 6.93641 9.32113 7.03867 9.29482C7.18657 9.25674 7.3347 9.28604 7.47726 9.33319C7.41158 9.35163 7.30811 9.4137 7.24964 9.48492C7.19458 9.55198 7.15255 9.59546 7.12334 9.63456C7.10228 9.66274 7.19032 9.68004 7.23884 9.67286C7.35681 9.65542 7.36287 9.47615 7.49239 9.45858C7.5119 9.53327 7.55156 9.59497 7.61939 9.61334L7.7907 9.58951C7.83441 9.55962 7.85434 9.50859 7.8501 9.44031C7.94925 9.42256 8.04153 9.49197 8.07776 9.58196C8.09372 9.62155 8.09316 9.65507 8.1041 9.65826C8.1255 9.66453 8.10756 9.41302 8.01049 9.29593C7.8794 9.13778 7.70844 9.09649 7.40288 9.09649C7.28085 9.09649 7.04083 9.04241 6.94391 9.11841C6.89683 9.15535 6.89426 9.21407 6.87435 9.24451C6.86101 9.24542 6.85265 9.24561 6.85231 9.24413C6.7856 8.9641 6.90299 8.6959 7.07289 8.54856C7.28365 8.36579 7.69207 8.23308 7.9354 8.15099C8.50971 7.95726 9.02626 7.91823 9.31837 8.00737C9.53117 8.07231 9.72212 8.19414 9.65403 8.31836C9.62818 8.36552 9.57099 8.3135 9.50781 8.30789C9.29189 8.2887 9.31732 8.39186 8.78455 8.69388C8.73115 8.72414 8.71639 8.75734 8.61436 8.78277C8.5805 8.7912 8.55285 8.84422 8.5565 8.91921C8.55996 8.99023 8.6674 8.96223 8.63128 9.00173C8.59508 9.04131 8.55464 9.09447 8.55233 9.15543C8.54931 9.23495 8.56244 9.2766 8.56364 9.32215C8.56384 9.3288 8.57388 9.48218 8.63553 9.50745C8.69105 9.5302 8.75603 9.42684 8.75679 9.35472C8.73796 9.24129 8.92264 9.04105 8.94421 9.11592C8.95565 9.15561 8.8722 9.24011 8.93617 9.26611C8.96446 9.28337 9.09375 9.25188 9.11417 9.21455C9.11989 9.2041 9.03621 9.20065 9.04052 9.18859C9.08073 9.1519 9.13869 9.03546 9.18383 9.00938C9.17742 9.11301 9.22751 9.17932 9.33023 9.196C9.34438 9.1983 9.3577 9.1995 9.37022 9.19972L9.48301 9.16041C9.51743 9.12713 9.53278 9.07595 9.53313 9.01956C9.57001 9.02492 9.63861 9.04184 9.66158 9.07924C9.75556 9.0322 9.84323 8.95925 9.93529 8.87365C9.99409 8.81898 10 8.93436 10.0097 8.97331C10.0935 9.31083 10.2029 9.50732 10.4074 9.60437C10.3732 9.68738 10.3281 9.81012 10.3026 9.92484C10.2695 10.0743 10.4259 10.2391 10.4399 10.4834C10.4502 10.663 10.4015 10.8934 10.4212 10.8711C10.5204 10.824 10.5512 10.5677 10.5439 10.3717C10.5396 10.2564 10.515 10.1449 10.5709 10.1311C10.7913 10.0767 10.859 10.422 10.8139 10.737ZM7.97079 10.7231C7.96677 10.7721 7.95169 10.8385 7.94703 10.9026C7.94237 10.9667 7.94813 11.0284 7.93667 11.0679C7.92667 11.1025 7.7917 11.035 7.83246 10.9572C7.87321 10.8794 7.97881 10.625 7.97079 10.7231ZM9.66297 10.1243C9.78751 10.176 9.99919 10.2909 10.0738 10.3865C10.1275 10.4553 10.1048 10.5094 10.0969 10.5354C10.0851 10.5743 9.85196 10.3302 9.65904 10.2359C9.42524 10.1216 9.28946 10.1403 9.27006 10.1092C9.24745 10.073 9.50998 10.0609 9.66297 10.1243ZM2.37048 7.87913C2.37048 4.72144 4.85738 2.11696 8.00355 1.86204C5.37618 2.34828 3.37771 4.62489 3.37774 7.34615C3.37774 7.43567 3.37995 7.52471 3.38422 7.61322C3.91474 5.31239 6.01375 3.58578 8.51002 3.58578C11.4046 3.58576 13.7654 5.90734 13.7654 8.7538C13.7654 11.6002 11.4046 13.9218 8.51002 13.9218C5.15283 13.9218 2.37048 11.202 2.37048 7.87913ZM6.7558 13.294L6.96886 13.0222C8.15905 13.6322 9.90963 12.9426 10.9268 12.1225L11.1186 12.3559L11.6178 11.8946L11.3993 11.6744C12.45 10.4627 12.5072 9.0401 12.1111 7.71941C12.0609 7.56584 12.0089 7.60882 12.0358 7.76384C12.2743 9.07181 12.1184 10.3516 11.1971 11.3519C10.384 12.2348 9.39535 12.7914 8.15588 12.8686C7.28666 12.9228 6.397 12.3812 6.10295 11.9161C5.54685 11.0366 5.45067 10.3787 5.4058 9.76226L5.17673 9.61069C5.11427 10.8454 5.46172 11.9523 6.38533 12.6656L6.17866 12.8987L6.7558 13.294ZM4.07049 9.00402C3.98689 9.26608 3.9193 10.5923 5.17256 11.0526C5.22362 11.0713 4.7304 10.4538 4.60968 10.0044C4.50698 9.62217 4.62966 9.32636 4.65144 9.31909C4.51473 9.24914 4.2653 9.07269 4.1579 8.94938C4.056 8.83239 3.88122 8.27087 4.23436 7.74922C4.73485 7.00989 5.60025 6.62987 6.38117 6.39332C7.22934 6.1364 8.74446 6.00006 9.95183 6.17605C11.2934 6.3716 11.9428 6.77145 12.2108 6.95341C12.2003 6.96322 12.1549 7.01566 12.1119 7.04955C12.1816 7.6483 12.4076 8.26051 12.7931 8.80902C12.912 8.97809 13.1447 9.07663 13.0571 8.91854C12.9704 8.76196 12.7904 8.29039 12.683 7.78362C12.6095 7.4369 12.5927 7.07366 12.5729 6.78357C12.5467 6.40031 12.1482 6.66093 12.0307 6.54914C11.8273 6.35552 11.5248 6.16124 11.2108 6.0087C10.9338 5.87409 10.7138 5.82825 10.7439 5.71288C10.7677 5.6217 11.1716 5.65272 11.4636 5.73622C11.5939 5.77348 11.5299 4.97537 10.264 4.30909C9.70915 4.01705 8.90704 3.85918 7.8415 4.09153C7.70956 4.04647 7.43557 4.01546 7.2605 4.05073C6.83572 4.13631 6.53279 4.30153 6.24843 4.61958C5.94276 4.61404 5.36559 5.27272 5.13935 5.53077C5.07686 5.53497 4.9378 5.62195 4.87826 5.66159C4.41524 5.96973 4.25729 7.20898 4.03284 7.64506C3.76619 8.0083 3.69899 8.72189 4.07049 9.00402ZM6.3402 11.9955C5.87634 11.434 5.7656 10.9179 5.72334 10.8063C5.63923 10.5843 5.49034 9.87059 5.59907 9.83491C5.62244 9.82724 5.83148 10.1162 5.91749 10.2406C6.02807 10.4006 6.18874 10.6577 6.07893 10.7486C5.97427 10.8352 6.07912 11.2686 6.32411 11.7247C6.60816 12.2536 7.12065 12.4732 7.15345 12.5304C7.20598 12.6221 6.70221 12.4336 6.3402 11.9955ZM8.84627 6.45659L8.89227 6.5838C7.67784 6.57407 5.58429 6.97605 4.74939 7.9004C4.47073 8.2089 4.33386 8.66121 4.52352 8.76259C4.48598 8.53172 4.65375 8.27831 4.86142 8.0119C5.33934 7.39878 6.77299 6.98288 7.59402 6.85985C8.56009 6.71507 9.51214 6.70649 10.2853 6.84808C10.738 6.931 11.2489 7.08164 11.4957 7.22102C11.5635 7.10138 10.9803 6.66714 9.41723 6.59255L9.40453 6.20893C8.02566 6.12073 6.08946 6.28212 4.70974 7.43895C4.60359 7.52795 4.54094 7.72443 4.59476 7.79764C5.50396 6.92244 7.23044 6.44182 8.84627 6.45659ZM7.64559 9.41724C7.6642 9.41724 7.67935 9.43216 7.67935 9.45045C7.67935 9.46873 7.6642 9.48365 7.6456 9.48365C7.62699 9.48365 7.61183 9.46873 7.61182 9.45045C7.61183 9.43214 7.62699 9.41726 7.64559 9.41724ZM9.3061 8.97973C9.3247 8.97973 9.33985 8.99463 9.33985 9.01294C9.33986 9.03122 9.3247 9.04614 9.3061 9.04614C9.28749 9.04614 9.27232 9.03122 9.27233 9.01294C9.2723 8.99463 9.28749 8.97973 9.3061 8.97973ZM9.60495 8.60258C9.80215 8.60258 9.8523 8.67619 9.8523 8.74545C9.8523 8.8147 9.76312 8.86557 9.55273 8.79976C9.34233 8.73395 9.23122 8.80546 9.21661 8.76855C9.19902 8.72412 9.40775 8.60258 9.60495 8.60258ZM8.55277 10.6315C8.64612 10.615 8.66549 10.5462 8.75408 10.4579C8.79125 10.4209 8.77987 10.3769 8.75363 10.2892C8.72216 10.1839 8.68192 10.0665 8.7074 10.0309C8.74515 9.97821 8.80905 10.0436 8.9032 10.0408C9.01931 10.0374 9.07978 10.0879 9.1779 10.1445C9.20896 10.1624 9.32613 10.3467 9.21891 10.4261C9.09637 10.517 9.01197 10.5975 9.00535 10.6141C8.98061 10.6762 8.85607 10.7775 8.65834 10.7715C8.56819 10.7688 8.51467 10.7549 8.46755 10.7335C8.36522 10.6871 8.28522 10.7042 8.24592 10.6787C8.22012 10.662 8.17088 10.6199 8.2149 10.5743C8.22098 10.568 8.26729 10.6109 8.34792 10.638C8.40676 10.6577 8.48965 10.6426 8.55277 10.6315ZM8.98143 10.1194C9.05578 10.1194 9.09658 10.1689 9.09658 10.2318C9.09658 10.2946 9.01785 10.3762 8.95243 10.3762C8.91506 10.3762 8.88065 10.381 8.86724 10.2876C8.86343 10.2611 8.84737 10.2368 8.83959 10.2144C8.80986 10.1286 8.90708 10.1194 8.98143 10.1194ZM8.83547 11.1236C8.93231 11.1026 8.90318 11.0597 9.0898 10.9747C9.17774 10.9346 9.26403 10.9264 9.35774 10.88C9.5252 10.7971 9.69409 10.7221 9.80469 10.6964C9.86429 10.6825 9.9037 10.7165 9.92662 10.7352C9.86729 10.7663 9.80497 10.8279 9.7265 10.8745C9.64477 10.923 9.5703 11.0247 9.53197 11.0932C9.49222 11.1641 9.48246 11.2629 9.43023 11.3314C9.33916 11.4509 8.93899 11.6362 8.63372 11.5252C8.44677 11.4572 8.39445 11.3004 8.32412 11.282C8.16133 11.2396 8.15444 11.2518 8.15746 11.1828C8.19463 11.1892 8.25721 11.2065 8.40732 11.1888C8.48592 11.1795 8.57884 11.1322 8.65406 11.1242C8.73006 11.1161 8.7973 11.1319 8.83547 11.1236ZM8.8609 11.266C9.0953 11.2001 9.31236 11.0197 9.34864 11.0868C9.38489 11.1538 9.22354 11.3443 8.88632 11.4103C8.69971 11.4469 8.51539 11.401 8.49829 11.3436C8.47775 11.2746 8.57678 11.3459 8.8609 11.266ZM7.54609 4.62912C7.65007 4.62813 7.71729 4.60201 7.79788 4.59082C7.89512 4.57732 8.00361 4.57842 8.11103 4.57821C8.26778 4.5779 8.36584 4.68196 8.36675 4.77379C8.36902 5.00457 8.30119 5.08219 8.16649 5.16895C8.05407 5.24134 7.80456 5.25169 7.65526 5.25603C7.63357 5.32342 7.62097 5.3691 7.64343 5.4002C7.65414 5.41504 7.69553 5.40077 7.69196 5.41341L7.67724 5.46564L7.34613 5.48835L7.35636 5.43505C7.37466 5.41973 7.443 5.42917 7.46145 5.34933L7.61757 4.67365L7.5491 4.67438L7.54609 4.62912ZM7.80733 4.66492C7.86494 4.66493 8.09577 4.60495 8.13258 4.70853C8.16538 4.80086 8.1342 5.08537 7.97336 5.1458C7.85433 5.19053 7.7664 5.19607 7.67539 5.20284L7.80733 4.66492ZM6.97519 4.73874C7.20469 4.73651 7.17758 5.00726 7.03975 4.99198C6.88379 4.9747 7.00152 4.84984 6.91561 4.83194C6.79878 4.80762 6.72759 4.96788 6.6817 5.10778C6.63367 5.25419 6.54693 5.47869 6.6312 5.53128C6.68398 5.56419 6.86132 5.56558 6.90046 5.38768C6.92561 5.27329 7.11925 5.26843 7.08435 5.37681C7.02125 5.57288 6.79741 5.62733 6.6469 5.63339C6.39754 5.64341 6.38629 5.31152 6.46295 5.1525C6.59346 4.88172 6.71878 4.74124 6.97519 4.73874ZM5.95297 5.14666C6.07002 5.14666 6.03024 5.38304 5.9212 5.36637C5.82277 5.3513 5.91928 5.28342 5.85522 5.25552C5.77881 5.22222 5.67908 5.49657 5.66434 5.53583C5.61088 5.6781 5.54863 5.92687 5.59004 5.95038C5.62221 5.96862 5.74727 5.97129 5.77829 5.79336C5.79825 5.67897 5.92113 5.69647 5.91329 5.73999C5.87754 5.93872 5.67127 6.03413 5.55198 6.04129C5.38493 6.05133 5.42345 5.76412 5.49088 5.6074C5.55831 5.45068 5.74962 5.14666 5.95297 5.14666ZM5.33822 5.55819C5.44775 5.55819 5.38288 5.78788 5.28082 5.7712C5.18872 5.75614 5.33223 5.65918 5.27231 5.63128C5.20078 5.59798 5.09045 5.91481 5.07665 5.95406C5.02661 6.09637 4.92792 6.30039 4.96669 6.32389C4.99678 6.34213 5.1138 6.3448 5.14285 6.16688C5.16153 6.05248 5.2616 6.06998 5.25426 6.1135C5.22081 6.31223 5.0323 6.40917 4.93107 6.41483C4.81111 6.42153 4.88103 6.15107 4.93563 6.02343C4.99021 5.89577 5.18413 5.55819 5.33822 5.55819Z" fill="#3C2B99"/>
<path d="M11.104 1.70002L11.5039 1.37082L10.8607 1.4876L10.6142 1.24707L10.5138 1.48855L9.26086 1.63647L10.3874 1.81784L10.0542 2.38456L10.7822 1.90576L11.5779 2.09541L11.104 1.70002Z" fill="#3C2B99"/>
<path d="M13.6729 2.90638L13.9422 3.23126C14.0064 3.30875 14.0496 3.37696 14.0717 3.4359C14.0916 3.49034 14.0962 3.53387 14.0855 3.56651C14.0756 3.60008 14.0511 3.63318 14.012 3.66579L13.8906 3.76712C13.8543 3.7974 13.8174 3.81081 13.7799 3.80736C13.7433 3.80312 13.703 3.78388 13.6588 3.74964L13.6532 3.7543C13.6859 3.81076 13.7016 3.8648 13.7003 3.91642C13.7007 3.96819 13.6818 4.00999 13.6437 4.04183L13.4915 4.16878C13.4255 4.22391 13.3584 4.238 13.2904 4.21103C13.2224 4.18407 13.1404 4.11271 13.0445 3.99695L12.767 3.66227L13.6729 2.90638ZM13.5493 3.56624C13.5965 3.62318 13.6385 3.6568 13.6754 3.6671C13.714 3.67755 13.7519 3.66725 13.7891 3.63619L13.8952 3.54768C13.9296 3.51895 13.9433 3.48615 13.9364 3.4493C13.9295 3.41245 13.9016 3.36462 13.8529 3.3058L13.6961 3.11676L13.3891 3.37299L13.5493 3.56624ZM13.138 3.91892C13.1945 3.98707 13.2413 4.02932 13.2785 4.04568C13.3157 4.06204 13.351 4.05624 13.3845 4.02829L13.5213 3.91415C13.5455 3.89396 13.5603 3.87291 13.5658 3.85099C13.5729 3.82924 13.5712 3.80537 13.5607 3.7794C13.5493 3.7542 13.5374 3.73328 13.5252 3.71663C13.5139 3.69921 13.4951 3.67462 13.4688 3.64288L13.3039 3.44404L12.9731 3.72007L13.138 3.91892Z" fill="#3C2B99"/>
<path d="M13.7299 4.97253C13.6879 4.90008 13.6622 4.83994 13.6527 4.79212C13.6438 4.74534 13.6515 4.70296 13.6757 4.66499C13.7005 4.62806 13.7454 4.59069 13.8102 4.55289C13.8678 4.51934 13.9168 4.5013 13.9574 4.49876C13.9995 4.49665 14.0387 4.51106 14.0748 4.54198C14.1115 4.57396 14.1508 4.62617 14.1927 4.69862L14.3249 4.927L14.4458 4.85656C14.4741 4.8401 14.4922 4.82182 14.5001 4.80173C14.5098 4.78208 14.5101 4.75731 14.5012 4.7274C14.4929 4.69854 14.4744 4.65943 14.4459 4.61008C14.4003 4.53133 14.3436 4.44784 14.2757 4.35961L14.3793 4.29923C14.4489 4.39769 14.508 4.48893 14.5566 4.57293C14.6077 4.66113 14.6386 4.73019 14.6493 4.78012C14.661 4.82944 14.6553 4.87143 14.6319 4.90608C14.6086 4.94074 14.5629 4.97788 14.4949 5.01752L13.958 5.33037L13.8787 5.19334L13.9509 5.15126C13.8856 5.17386 13.8119 5.11429 13.7299 4.97253ZM13.8362 4.94219C13.8659 4.99364 13.8948 5.03508 13.9228 5.06651C13.9596 5.10827 13.9953 5.11909 14.0298 5.09897L14.237 4.97822L14.1103 4.75929C14.0841 4.71414 14.0616 4.68373 14.0428 4.66805C14.0249 4.65176 14.0048 4.64595 13.9823 4.65063C13.9598 4.6553 13.9276 4.66984 13.8858 4.69423C13.8481 4.71618 13.8209 4.73694 13.8042 4.75648C13.7886 4.77542 13.7816 4.79708 13.7831 4.82147C13.7856 4.84525 13.7979 4.87604 13.8198 4.91384L13.8362 4.94219Z" fill="#3C2B99"/>
<path d="M14.0952 5.59327C14.0885 5.57635 14.0837 5.55931 14.0808 5.54217L14.2107 5.49039C14.2136 5.50753 14.2182 5.524 14.2245 5.5398C14.2437 5.58833 14.2937 5.6128 14.3746 5.61322C14.4571 5.61431 14.5934 5.57698 14.7835 5.50122L14.9758 5.42457L15.1963 5.98147L14.3797 6.30693L14.3194 6.15458L15.0365 5.8688L14.9299 5.59966L14.8118 5.64673C14.6262 5.72069 14.4707 5.75719 14.3453 5.75622C14.221 5.75479 14.1377 5.70048 14.0952 5.59327Z" fill="#3C2B99"/>
<path d="M14.5358 6.93865C14.4743 6.67624 14.5307 6.52447 14.7051 6.48333L15.0426 6.4037C15.1463 6.37924 15.2274 6.39128 15.2861 6.43982C15.3461 6.48927 15.3918 6.58077 15.4231 6.71434C15.4528 6.84082 15.4523 6.93697 15.4217 7.00281C15.3914 7.06983 15.3227 7.11599 15.2155 7.14128L15.0264 7.18589L14.8913 6.60966L14.7623 6.64009C14.7034 6.65399 14.6659 6.68468 14.6496 6.73217C14.6334 6.77965 14.6354 6.84654 14.6556 6.93283C14.6747 7.01439 14.7115 7.10738 14.7658 7.21182L14.6438 7.24059C14.5948 7.1374 14.5588 7.03676 14.5358 6.93865ZM15.0933 7.00172L15.2276 6.97004C15.2794 6.95781 15.311 6.93351 15.3224 6.89715C15.3352 6.86169 15.3328 6.80614 15.315 6.73049C15.2978 6.6572 15.2754 6.60638 15.2476 6.578C15.221 6.54936 15.1817 6.54115 15.1299 6.55337L14.9956 6.58506L15.0933 7.00172Z" fill="#3C2B99"/>
<path d="M15.5614 7.49628L15.5744 7.65968L15.2107 7.68891L15.2452 8.12102L15.6089 8.09179L15.622 8.25519L14.7461 8.32557L14.7331 8.16217L15.1258 8.13061L15.0913 7.69851L14.6986 7.73006L14.6855 7.56666L15.5614 7.49628Z" fill="#3C2B99"/>
<path d="M15.4916 8.85391L15.5141 8.54509L15.6336 8.55385L15.5768 9.33315L15.4573 9.32439L15.4797 9.0174L14.7228 8.96195L14.7347 8.79846L15.4916 8.85391Z" fill="#3C2B99"/>
<path d="M15.3392 10.5494L14.4835 10.3492L14.5206 10.1896L15.1517 10.3373L14.6244 9.7426L14.6615 9.58296L15.5173 9.78314L15.4802 9.94278L14.8278 9.79016L15.3742 10.3986L15.3392 10.5494Z" fill="#3C2B99"/>
<path d="M15.2288 10.8962L15.1667 11.0479L14.8292 10.9088L14.665 11.3097L15.0026 11.4488L14.9405 11.6005L14.1277 11.2655L14.1898 11.1139L14.5542 11.2641L14.7184 10.8631L14.354 10.7129L14.4161 10.5613L15.2288 10.8962Z" fill="#3C2B99"/>
<path d="M14.7703 11.9656L14.6784 12.1054L14.4132 11.9299L14.3192 12.0728C14.2779 12.1356 14.2407 12.1823 14.2076 12.2127C14.1738 12.2442 14.1397 12.2609 14.1051 12.2627C14.0715 12.2653 14.034 12.2528 13.9926 12.2254L13.8411 12.1251C13.735 12.0549 13.741 11.9301 13.859 11.7507L14.0369 11.4801L14.7703 11.9656ZM14.3384 12.6223L14.2484 12.7591L13.515 12.2736L13.605 12.1368L14.3384 12.6223ZM13.9528 11.7997C13.9335 11.8291 13.9176 11.8622 13.905 11.899C13.8907 11.9405 13.9048 11.9752 13.9473 12.0033L14.0397 12.0645C14.069 12.0839 14.0939 12.0946 14.1144 12.0965C14.1342 12.0994 14.1538 12.0928 14.1732 12.0765C14.1919 12.0613 14.2143 12.0339 14.2403 11.9944L14.3233 11.8682L14.0338 11.6766L13.9528 11.7997Z" fill="#3C2B99"/>
<path d="M13.507 14.036L13.1732 14.2936C13.0936 14.3551 13.024 14.3957 12.9644 14.4157C12.9094 14.4336 12.8659 14.4365 12.8338 14.4245C12.8008 14.4133 12.7687 14.3874 12.7377 14.347L12.6414 14.2214C12.6127 14.1839 12.6007 14.1464 12.6056 14.1089C12.6112 14.0724 12.6319 14.0327 12.6677 13.9898L12.6633 13.984C12.6058 14.0146 12.5513 14.0282 12.5 14.025C12.4484 14.0234 12.4075 14.0029 12.3772 13.9634L12.2566 13.8061C12.2042 13.7377 12.1927 13.67 12.2222 13.6028C12.2516 13.5357 12.3258 13.4562 12.4448 13.3644L12.7887 13.099L13.507 14.036ZM12.8545 13.8869C12.796 13.9321 12.7609 13.973 12.7493 14.0095C12.7374 14.0478 12.7462 14.0862 12.7757 14.1247L12.8598 14.2344C12.8871 14.27 12.9193 14.2851 12.9562 14.2795C12.9932 14.274 13.0419 14.2479 13.1024 14.2012L13.2966 14.0513L13.0531 13.7337L12.8545 13.8869ZM12.5189 13.4612C12.4489 13.5152 12.405 13.5605 12.3873 13.5972C12.3696 13.6338 12.374 13.6695 12.4006 13.7041L12.5091 13.8456C12.5283 13.8706 12.5487 13.8863 12.5703 13.8926C12.5917 13.9006 12.6155 13.8998 12.6418 13.8903C12.6673 13.8797 12.6886 13.8687 12.7057 13.8571C12.7234 13.8464 12.7486 13.8285 12.7813 13.8033L12.9856 13.6456L12.7233 13.3035L12.5189 13.4612Z" fill="#3C2B99"/>
<path d="M11.7347 13.8698C11.7509 13.8617 11.7675 13.8555 11.7843 13.8512L11.8463 13.9769C11.8295 13.9812 11.8136 13.9871 11.7984 13.9947C11.7517 14.0178 11.7315 14.0699 11.7377 14.1508C11.7434 14.2334 11.7917 14.3666 11.8825 14.5505L11.9744 14.7365L11.4392 15.0026L11.0491 14.2128L11.1954 14.14L11.5381 14.8335L11.7967 14.7049L11.7403 14.5907C11.6516 14.4112 11.6026 14.2587 11.5933 14.1332C11.5845 14.0088 11.6317 13.921 11.7347 13.8698Z" fill="#3C2B99"/>
<path d="M10.5341 14.3795C10.6139 14.3549 10.6781 14.3434 10.7267 14.345C10.7741 14.3469 10.8135 14.364 10.8449 14.3963C10.8751 14.4289 10.9012 14.4812 10.9232 14.5532C10.9427 14.617 10.9491 14.669 10.9424 14.7092C10.9349 14.7509 10.912 14.7859 10.8738 14.8141C10.8344 14.8427 10.7748 14.8693 10.695 14.8939L10.4433 14.9712L10.4843 15.1053C10.4938 15.1367 10.5075 15.1585 10.5252 15.1709C10.5421 15.1847 10.566 15.1907 10.5971 15.1887C10.627 15.1872 10.6691 15.178 10.7235 15.1613C10.8103 15.1346 10.9042 15.0981 11.0053 15.0518L11.0404 15.1668C10.929 15.2124 10.827 15.2495 10.7345 15.278C10.6373 15.3078 10.5632 15.3224 10.5123 15.3215C10.4618 15.3218 10.4223 15.3066 10.394 15.276C10.3656 15.2453 10.3399 15.1922 10.3169 15.1168L10.135 14.5212L10.286 14.4748L10.3104 14.5549C10.3033 14.486 10.3779 14.4275 10.5341 14.3795ZM10.5394 14.4902C10.4827 14.5076 10.4359 14.5265 10.3991 14.5467C10.3502 14.5731 10.3316 14.6055 10.3433 14.6438L10.4135 14.8737L10.6548 14.7995C10.7046 14.7842 10.7392 14.7691 10.7587 14.7543C10.7785 14.7405 10.7888 14.7222 10.7893 14.6991C10.7899 14.6761 10.7831 14.6414 10.7689 14.5949C10.7561 14.5531 10.7421 14.5219 10.7269 14.5011C10.7121 14.4816 10.6927 14.4698 10.6687 14.4657C10.645 14.4628 10.6123 14.4678 10.5707 14.4806L10.5394 14.4902Z" fill="#3C2B99"/>
<path d="M9.02286 14.8173L8.97419 14.4691L9.11263 14.4497L9.14641 14.6914L9.81701 14.597L9.78322 14.3553L9.92165 14.3358L9.97031 14.6839L9.91458 14.6918C9.88821 14.6955 9.86522 14.719 9.8456 14.7622C9.82614 14.8066 9.81424 14.8745 9.8099 14.9658C9.80573 15.0584 9.81331 15.1738 9.83264 15.3121L9.85634 15.4816L9.25227 15.5666L9.14511 14.8001L9.02286 14.8173ZM9.30691 14.7773L9.3992 15.4375L9.69944 15.3952L9.68179 15.2689C9.6643 15.1439 9.65765 15.0351 9.66182 14.9425C9.66496 14.8514 9.6845 14.7769 9.72042 14.7191L9.30691 14.7773Z" fill="#3C2B99"/>
<path d="M8.02968 15.5846L8.04583 14.7032L8.20919 14.7062L8.19728 15.3564L8.6666 14.7147L8.82996 14.7177L8.81381 15.5991L8.65045 15.5961L8.66276 14.9241L8.18397 15.5875L8.02968 15.5846Z" fill="#3C2B99"/>
<path d="M7.66187 15.561L7.40344 15.5107L7.27758 14.7553L7.27045 14.7539L6.89015 15.4109L6.64064 15.3624L6.80786 14.4969L6.95578 14.5257L6.8169 15.2445L6.82581 15.2462L7.23025 14.5791L7.39244 14.6106L7.5298 15.3832L7.53871 15.3849L7.6776 14.6661L7.82909 14.6955L7.66187 15.561Z" fill="#3C2B99"/>
<path d="M5.45439 14.9418L5.76995 14.1191L5.92244 14.1779L5.68968 14.7848L6.34941 14.3428L6.50189 14.4017L6.18633 15.2244L6.03384 15.1655L6.27443 14.5383L5.5984 14.9974L5.45439 14.9418Z" fill="#3C2B99"/>
<path d="M5.14043 14.795L4.99796 14.7148L5.04419 14.6322C4.99584 14.6913 4.89041 14.6751 4.72789 14.5835C4.63081 14.5288 4.56902 14.4668 4.54253 14.3976C4.51546 14.3294 4.51969 14.2636 4.55525 14.2001L4.73214 13.884C4.75762 13.8385 4.7867 13.8027 4.81939 13.7765C4.85101 13.7498 4.88271 13.7328 4.91449 13.7256C4.94355 13.7183 4.97794 13.7189 5.01763 13.7273C5.05627 13.7352 5.09284 13.7467 5.12733 13.762C5.15865 13.7755 5.19542 13.7941 5.23763 13.8179C5.28407 13.844 5.32384 13.8734 5.35696 13.906C5.38843 13.939 5.40299 13.9688 5.40064 13.9954L5.60419 13.6317L5.74666 13.7119L5.14043 14.795ZM5.18024 13.913C5.12537 13.8821 5.08161 13.8623 5.04897 13.8536C5.01468 13.8455 4.98528 13.8484 4.96077 13.8624C4.93625 13.8765 4.91184 13.9052 4.88755 13.9486L4.72932 14.2313C4.70266 14.2789 4.68914 14.318 4.68876 14.3484C4.68839 14.3788 4.7009 14.4061 4.7263 14.4301C4.75005 14.4546 4.78989 14.4827 4.84582 14.5142C4.90175 14.5457 4.94686 14.5655 4.98115 14.5737C5.01379 14.5823 5.04296 14.5786 5.06866 14.5624C5.09436 14.5463 5.12055 14.5144 5.14721 14.4667L5.30544 14.184C5.32914 14.1417 5.34088 14.1058 5.34067 14.0765C5.3388 14.0476 5.32546 14.0205 5.30066 13.9954C5.27526 13.9714 5.23512 13.9439 5.18024 13.913Z" fill="#3C2B99"/>
<path d="M4.40582 13.2689C4.46714 13.3164 4.51129 13.3544 4.53825 13.3829C4.56595 13.4105 4.58959 13.4434 4.60916 13.4816C4.62969 13.5205 4.63494 13.5613 4.62491 13.6042C4.61415 13.648 4.58769 13.6973 4.54555 13.7521L4.35922 13.9943C4.32595 14.0376 4.29147 14.0715 4.25579 14.096C4.22011 14.1205 4.18663 14.1353 4.15533 14.1402C4.12839 14.1454 4.09722 14.1412 4.06182 14.1276C4.02472 14.1142 3.98973 14.0971 3.95685 14.0762C3.92088 14.0515 3.88421 14.0246 3.84684 13.9957C3.79701 13.9571 3.76075 13.9267 3.73806 13.9045C3.71367 13.8826 3.69006 13.8566 3.66723 13.8267C3.64418 13.7951 3.63116 13.7643 3.62818 13.7344C3.62521 13.7044 3.63054 13.6687 3.64418 13.6271C3.65952 13.5853 3.68419 13.5423 3.7182 13.4981L3.90453 13.2558C3.96738 13.1741 4.0319 13.129 4.09811 13.1204C4.12527 13.1169 4.15655 13.1219 4.19195 13.1355C4.22735 13.1491 4.26149 13.1664 4.29437 13.1872C4.33226 13.2135 4.36941 13.2407 4.40582 13.2689ZM4.34038 13.354C4.30014 13.3228 4.27018 13.3012 4.25049 13.289C4.23081 13.2768 4.20902 13.2684 4.18511 13.2637C4.16195 13.258 4.14036 13.2612 4.12035 13.2734C4.09863 13.2857 4.07558 13.3077 4.05118 13.3394L3.83379 13.6221C3.80052 13.6653 3.78176 13.7006 3.77751 13.728C3.77253 13.7564 3.78075 13.7835 3.80218 13.8092C3.82192 13.8353 3.85862 13.869 3.91228 13.9106C3.96593 13.9521 4.00828 13.9795 4.03933 13.9928C4.06868 14.0064 4.09639 14.0071 4.12246 13.9951C4.14778 13.984 4.17708 13.9569 4.21036 13.9136L4.42774 13.631C4.45214 13.5992 4.46801 13.5717 4.47535 13.5482C4.48099 13.525 4.47815 13.5028 4.46682 13.4818C4.45622 13.4598 4.44256 13.4408 4.42584 13.4247C4.40911 13.4087 4.38063 13.3851 4.34038 13.354Z" fill="#3C2B99"/>
<path d="M3.24829 13.4757L2.98017 13.1987C2.92536 13.1421 2.88499 13.0934 2.85906 13.0526C2.83225 13.0128 2.81907 12.9774 2.81953 12.9464C2.81995 12.9173 2.82587 12.8929 2.83728 12.8733C2.8487 12.8537 2.8683 12.8304 2.89608 12.8033L2.91822 12.7817C2.95208 12.7487 2.98569 12.7329 3.01905 12.7343C3.05241 12.7356 3.09325 12.7525 3.14156 12.785L3.14677 12.78C3.06633 12.662 3.06127 12.5687 3.1316 12.5002L3.16937 12.4634C3.21192 12.422 3.25378 12.3981 3.29495 12.3919C3.33441 12.3856 3.37833 12.3969 3.42669 12.426C3.47505 12.455 3.53338 12.5048 3.60167 12.5754L3.87865 12.8616L3.24829 13.4757ZM3.23574 12.9294C3.20201 12.8945 3.17411 12.8709 3.15204 12.8586C3.1291 12.8471 3.1086 12.8442 3.09054 12.85C3.07162 12.8566 3.04913 12.8725 3.02308 12.8979L3.01527 12.9055C2.99182 12.9284 2.97783 12.9488 2.97329 12.9667C2.9679 12.9838 2.97189 13.0036 2.98526 13.0262C2.99691 13.0487 3.02002 13.0778 3.05459 13.1135L3.21521 13.2794L3.40015 13.0993L3.23574 12.9294ZM3.51069 12.6513C3.47107 12.6104 3.43853 12.582 3.41308 12.5662C3.38764 12.5504 3.36548 12.544 3.3466 12.5472C3.32686 12.5512 3.30526 12.5646 3.28182 12.5874L3.24014 12.628C3.21844 12.6492 3.20906 12.6761 3.212 12.7088C3.21666 12.7415 3.24639 12.7861 3.3012 12.8428L3.477 13.0244L3.68017 12.8264L3.51069 12.6513Z" fill="#3C2B99"/>
<path d="M2.47556 12.6434L2.37956 12.5108L2.67483 12.2957L2.42097 11.9449L2.1257 12.16L2.0297 12.0273L2.74071 11.5094L2.83671 11.642L2.51793 11.8742L2.77179 12.225L3.09057 11.9928L3.18657 12.1254L2.47556 12.6434Z" fill="#3C2B99"/>
<path d="M1.80295 11.6896L1.72919 11.5393L2.01423 11.3985L1.93887 11.2449C1.90573 11.1774 1.88442 11.1216 1.87495 11.0775C1.86495 11.0324 1.86789 10.9944 1.88378 10.9635C1.89858 10.9332 1.92824 10.9071 1.97276 10.8851L2.13564 10.8047C2.24966 10.7483 2.35397 10.8166 2.44858 11.0094L2.59129 11.3003L1.80295 11.6896ZM1.4566 10.9837L1.38444 10.8366L2.17277 10.4473L2.24493 10.5944L1.4566 10.9837ZM2.35892 11.0659C2.34342 11.0343 2.32304 11.0038 2.29778 10.9743C2.2693 10.941 2.23226 10.9356 2.18665 10.9581L2.0873 11.0072C2.05581 11.0227 2.03405 11.0389 2.02204 11.0556C2.0095 11.0713 2.00531 11.0917 2.00949 11.1167C2.01313 11.1406 2.02537 11.1738 2.04621 11.2163L2.11276 11.3519L2.42386 11.1983L2.35892 11.0659Z" fill="#3C2B99"/>
<path d="M0.731332 9.32504L0.805932 9.71869L0.684655 9.74183L0.502563 8.78096L0.62384 8.75782L0.69844 9.15148L1.73464 8.95382L1.76753 9.12738L0.731332 9.32504Z" fill="#3C2B99"/>
<path d="M1.65312 8.04849C1.66293 8.31787 1.57833 8.45585 1.39933 8.46241L1.05281 8.47511C0.946375 8.47901 0.869074 8.45147 0.820904 8.39248C0.771481 8.33232 0.744274 8.23368 0.739281 8.09656C0.734553 7.96672 0.753526 7.87247 0.7962 7.8138C0.83883 7.75391 0.915177 7.72195 1.02524 7.71792L1.21936 7.7108L1.2409 8.30236L1.37334 8.2975C1.43381 8.29529 1.47658 8.27246 1.50164 8.22901C1.5267 8.18556 1.53762 8.11955 1.5344 8.03097C1.53135 7.94724 1.51323 7.84888 1.48005 7.73588L1.60523 7.73129C1.63349 7.84204 1.64945 7.94777 1.65312 8.04849ZM1.11829 7.87854L0.980406 7.88359C0.927189 7.88554 0.891501 7.90326 0.873342 7.93673C0.85393 7.96903 0.845638 8.02401 0.848465 8.10167C0.851205 8.17691 0.863473 8.23114 0.885272 8.26436C0.90586 8.29763 0.942763 8.31329 0.99598 8.31133L1.13386 8.30628L1.11829 7.87854Z" fill="#3C2B99"/>
<path d="M0.752672 7.3143L0.771763 7.1515L0.865519 7.16256C0.792551 7.1405 0.766956 7.03661 0.788734 6.8509C0.801745 6.73995 0.835012 6.65891 0.888537 6.60776C0.940859 6.55647 1.00308 6.53509 1.0752 6.5436L1.434 6.58595C1.48568 6.59205 1.52984 6.60521 1.56646 6.62543C1.60323 6.64444 1.63102 6.66728 1.64982 6.69395C1.66771 6.71807 1.6804 6.75014 1.6879 6.79015C1.69553 6.82895 1.69896 6.86726 1.69818 6.90506C1.69783 6.93926 1.69483 6.98047 1.68917 7.02871C1.68295 7.08177 1.67121 7.1299 1.65396 7.1731C1.63564 7.21496 1.61383 7.23989 1.58852 7.24791L2.0014 7.29664L1.98231 7.45944L0.752672 7.3143ZM1.57961 7.01211C1.58696 6.9494 1.58834 6.90127 1.58375 6.86772C1.57809 6.83281 1.56409 6.80671 1.54175 6.7894C1.51941 6.77209 1.48359 6.76053 1.43431 6.75471L1.11338 6.71683C1.05929 6.71044 1.01817 6.71293 0.990034 6.72428C0.961893 6.73563 0.941636 6.75769 0.929262 6.79046C0.915828 6.82189 0.905363 6.86956 0.897868 6.93347C0.890373 6.99739 0.889453 7.04679 0.895109 7.08169C0.899705 7.11525 0.914376 7.14082 0.939123 7.15841C0.96387 7.17601 1.00329 7.188 1.05738 7.19438L1.37831 7.23226C1.42639 7.23794 1.4639 7.23503 1.49084 7.22354C1.51672 7.2107 1.53644 7.18796 1.55002 7.15533C1.56239 7.12256 1.57226 7.07482 1.57961 7.01211Z" fill="#3C2B99"/>
<path d="M1.87075 6.07895C1.79792 6.33842 1.67529 6.4438 1.50288 6.39508L1.16911 6.30079C1.0666 6.27182 1.0014 6.22186 0.973539 6.15092C0.944836 6.07847 0.949021 5.97621 0.986093 5.84414C1.0212 5.71908 1.06801 5.63517 1.12653 5.59241C1.18538 5.54849 1.26782 5.5415 1.37383 5.57146L1.56081 5.62428L1.40087 6.19407L1.52844 6.23011C1.58669 6.24657 1.63437 6.23797 1.67148 6.2043C1.70859 6.17063 1.73912 6.11114 1.76307 6.02582C1.78571 5.94517 1.79846 5.84596 1.80134 5.7282L1.92192 5.76226C1.91503 5.87637 1.89798 5.98194 1.87075 6.07895ZM1.41342 5.75294L1.28061 5.71542C1.22935 5.70094 1.18997 5.70684 1.16248 5.73313C1.13414 5.75793 1.10948 5.80772 1.08848 5.88253C1.06814 5.95499 1.06328 6.01039 1.0739 6.04871C1.08335 6.0867 1.11371 6.11294 1.16497 6.12742L1.29777 6.16494L1.41342 5.75294Z" fill="#3C2B99"/>
<path d="M1.23281 5.07848L1.30594 4.9319L1.98454 5.27267L2.13811 4.96483L1.45952 4.62406L1.53347 4.47585L2.21206 4.81662L2.36563 4.50878L1.68704 4.16801L1.76017 4.02142L2.54591 4.416L2.01855 5.47306L1.23281 5.07848Z" fill="#3C2B99"/>
<path d="M1.96585 3.72364L2.06599 3.59411L2.3658 3.82742C2.37692 3.81302 2.38296 3.79928 2.38389 3.78618C2.38462 3.77137 2.38348 3.75204 2.38047 3.72819L2.30632 3.28324L2.42871 3.12493L2.51243 3.69718C2.52494 3.68694 2.55157 3.67924 2.59233 3.67407C2.63382 3.66795 2.6982 3.66195 2.78544 3.65608L3.15082 3.62923L3.02732 3.78898L2.66528 3.81152C2.6156 3.81435 2.57252 3.82155 2.53602 3.8331C2.50875 3.84261 2.49119 3.85046 2.48334 3.85665C2.47454 3.86209 2.46717 3.86865 2.46124 3.87633C2.4553 3.884 2.45122 3.88928 2.449 3.89216L2.76029 4.13439L2.66015 4.26392L1.96585 3.72364Z" fill="#3C2B99"/>
<path d="M3.57398 3.23465C3.51703 3.28732 3.47227 3.3246 3.43969 3.34647C3.40793 3.36924 3.37166 3.38709 3.33088 3.40004C3.28921 3.41381 3.24817 3.41213 3.20775 3.39502C3.16651 3.37701 3.12251 3.34256 3.07575 3.29167L2.86903 3.06669C2.83211 3.02652 2.8046 2.98673 2.7865 2.94732C2.7684 2.90791 2.75956 2.87232 2.75999 2.84054C2.75939 2.81302 2.76875 2.7829 2.78806 2.75017C2.80744 2.71573 2.83014 2.684 2.85616 2.65499C2.88655 2.62357 2.9191 2.59181 2.9538 2.55972C3.00008 2.51692 3.03601 2.48616 3.06161 2.46744C3.08727 2.447 3.11674 2.42801 3.14999 2.41046C3.18496 2.39298 3.21739 2.38528 3.24729 2.38736C3.27718 2.38944 3.31141 2.40072 3.34998 2.42119C3.38848 2.44339 3.4266 2.47502 3.46434 2.51609L3.67106 2.74106C3.74079 2.81695 3.7743 2.88835 3.77159 2.95527C3.77048 2.98272 3.76026 3.01281 3.74095 3.04553C3.72164 3.07826 3.69898 3.10913 3.67296 3.13815C3.64079 3.17121 3.60779 3.20338 3.57398 3.23465ZM3.50138 3.15564C3.53875 3.12107 3.56507 3.09508 3.58034 3.07765C3.59561 3.06023 3.60756 3.04009 3.61619 3.01725C3.62565 2.99529 3.6261 2.97339 3.61757 2.95156C3.6091 2.92802 3.59133 2.90151 3.56426 2.87205L3.32308 2.60958C3.28616 2.5694 3.25461 2.54491 3.22841 2.53611C3.2014 2.52642 3.17342 2.53 3.14447 2.54687C3.11559 2.56202 3.07623 2.59264 3.0264 2.63873C2.97657 2.68482 2.94251 2.7221 2.92423 2.75057C2.90602 2.77732 2.90063 2.8046 2.90807 2.8324C2.91469 2.85931 2.93645 2.89285 2.97337 2.93303L3.21455 3.1955C3.24162 3.22496 3.26606 3.2453 3.28788 3.2565C3.30976 3.26598 3.332 3.26689 3.35458 3.25922C3.37798 3.25244 3.39895 3.24212 3.4175 3.22827C3.43605 3.21442 3.46401 3.19021 3.50138 3.15564Z" fill="#3C2B99"/>
<path d="M3.56418 2.05593L3.88627 1.84456C3.95211 1.80136 4.00743 1.77086 4.05223 1.75307C4.09637 1.73426 4.13351 1.72802 4.16367 1.73435C4.19215 1.74032 4.21489 1.75079 4.23188 1.76576C4.24887 1.78073 4.26796 1.80447 4.28916 1.83699L4.30605 1.8629C4.33189 1.90253 4.34098 1.93865 4.33331 1.97125C4.32564 2.00385 4.30131 2.04085 4.26033 2.08226L4.26431 2.08835C4.39505 2.03157 4.48725 2.04434 4.54091 2.12665L4.56973 2.17085C4.60219 2.22065 4.61757 2.26642 4.61587 2.30816C4.61451 2.34823 4.59502 2.38931 4.55739 2.43142C4.51976 2.47352 4.45992 2.5215 4.37788 2.57533L4.04516 2.79368L3.56418 2.05593ZM4.10115 2.14754C4.14167 2.12095 4.17006 2.09796 4.18635 2.07857C4.20197 2.05817 4.20868 2.03852 4.2065 2.01964C4.20365 1.99975 4.19229 1.97456 4.17241 1.94407L4.16645 1.93493C4.14856 1.90749 4.13126 1.88983 4.11455 1.88193C4.09884 1.87338 4.0787 1.87354 4.05412 1.88241C4.02989 1.88961 3.99701 1.90683 3.95548 1.93408L3.76253 2.0607L3.90364 2.27715L4.10115 2.14754ZM4.32088 2.47127C4.36849 2.44003 4.40246 2.41339 4.42279 2.39134C4.44313 2.36929 4.45354 2.34867 4.45405 2.32948C4.45389 2.30927 4.44486 2.28544 4.42698 2.25801L4.39518 2.20923C4.37861 2.18383 4.35407 2.16946 4.32153 2.16615C4.28865 2.16451 4.23929 2.1853 4.17346 2.2285L3.96227 2.36708L4.1173 2.60487L4.32088 2.47127Z" fill="#3C2B99"/>
<path d="M5.23954 2.12203C5.1686 2.15323 5.11418 2.17385 5.07628 2.18389C5.03886 2.19504 4.99878 2.20008 4.95602 2.199C4.91215 2.1984 4.87388 2.18341 4.84122 2.15403C4.80807 2.12353 4.77765 2.07658 4.74995 2.01319L4.62751 1.73294C4.60564 1.6829 4.59254 1.63629 4.58822 1.59312C4.58389 1.54994 4.58708 1.5134 4.5978 1.4835C4.60617 1.45728 4.62479 1.43186 4.65368 1.40722C4.68318 1.38099 4.71494 1.3584 4.74895 1.33947C4.78788 1.31969 4.82896 1.3003 4.87219 1.28129C4.92983 1.25594 4.97379 1.23859 5.00407 1.22925C5.03497 1.21831 5.06899 1.20998 5.10613 1.20425C5.14487 1.19915 5.17803 1.20246 5.20562 1.21419C5.23321 1.22592 5.26192 1.24777 5.29174 1.27973C5.32094 1.31329 5.34671 1.35565 5.36907 1.40681L5.49151 1.68706C5.53282 1.78158 5.54133 1.86004 5.51705 1.92242C5.50709 1.94802 5.48767 1.97313 5.45879 1.99777C5.42991 2.0224 5.39846 2.04418 5.36445 2.06312C5.3233 2.08387 5.28166 2.10351 5.23954 2.12203ZM5.19654 2.02361C5.24309 2.00314 5.27641 1.98716 5.2965 1.97567C5.31659 1.96418 5.33443 1.94905 5.35 1.93026C5.36607 1.91259 5.37361 1.89204 5.37262 1.86861C5.37226 1.84358 5.36406 1.81272 5.34802 1.77602L5.20517 1.44906C5.1833 1.39902 5.16141 1.36555 5.1395 1.34867C5.1171 1.33068 5.08948 1.32493 5.05664 1.33142C5.02442 1.33631 4.97727 1.35241 4.9152 1.37971C4.85312 1.40701 4.80882 1.43113 4.78229 1.45208C4.75639 1.47143 4.74244 1.49546 4.74045 1.52417C4.73798 1.55178 4.74768 1.5906 4.76954 1.64065L4.9124 1.9676C4.92843 2.0043 4.94495 2.03151 4.96194 2.04923C4.97955 2.06535 5.00028 2.07347 5.02412 2.07359C5.04844 2.07482 5.07162 2.07192 5.09365 2.06488C5.11569 2.05784 5.14998 2.04409 5.19654 2.02361Z" fill="#3C2B99"/>
<path d="M6.34819 0.816353L6.56706 1.67012L6.40882 1.71095L6.24738 1.08121L5.96575 1.82528L5.80751 1.86611L5.58865 1.01235L5.74688 0.971515L5.91375 1.62242L6.19874 0.854917L6.34819 0.816353ZM5.93722 0.792636C5.85868 0.812901 5.79143 0.808939 5.73547 0.780752C5.67921 0.751388 5.64057 0.703057 5.61957 0.635757L5.74968 0.602184C5.7814 0.691794 5.83652 0.726466 5.91506 0.706201C5.99242 0.686239 6.02403 0.629184 6.00989 0.535038L6.14 0.501465C6.15484 0.569101 6.14409 0.629548 6.10776 0.682806C6.0726 0.735761 6.01575 0.772371 5.93722 0.792636Z" fill="#3C2B99"/>
</g>
<defs>
<clipPath id="clip0_1352_52378">
<rect width="16" height="16" fill="white"/>
</clipPath>
</defs>
</svg>
