<svg width="5644" height="8320" viewBox="0 0 5644 8320" fill="none" xmlns="http://www.w3.org/2000/svg">
    <g clip-path="url(#clip0_229_1689)">
        <circle cx="1733" cy="2458" r="272" fill="#8E8FFA" filter="url(#filter0_f_229_1689)"/>
        <circle cx="1598" cy="5271" r="272" fill="#8E8FFA" filter="url(#filter1_f_229_1689)"/>
        <circle cx="2821.5" cy="7230.5" r="234.5" fill="#8E8FFA" filter="url(#filter2_f_229_1689)"/>
        <g opacity=".65">
            <circle cx="3769.55" cy="782.677" r="15.717" transform="rotate(-180 3769.55 782.677)" fill="#C2D9FF"/>
            <circle cx="3769.55" cy="782.677" r="15.217" transform="rotate(-180 3769.55 782.677)" stroke="#C3D3FE" stroke-opacity=".6"/>
            <circle cx="3761.7" cy="683.133" r="5.239" transform="rotate(-180 3761.7 683.133)" fill="#C2D9FF"/>
            <circle cx="3761.7" cy="683.133" r="4.739" transform="rotate(-180 3761.7 683.133)" stroke="#C3D3FE" stroke-opacity=".6"/>
            <circle cx="3769.55" cy="782.677" r="30.935" transform="rotate(-180 3769.55 782.677)" stroke="#C3D3FE" stroke-opacity=".6"/>
            <circle cx="3769.55" cy="782.676" r="101.664" transform="rotate(-180 3769.55 782.676)" stroke="#C3D3FE" stroke-opacity=".6"/>
            <circle cx="3769.55" cy="782.676" r="57.131" transform="rotate(-180 3769.55 782.676)" stroke="#C3D3FE" stroke-opacity=".6" stroke-linejoin="round" stroke-dasharray="2 3"/>
            <path transform="rotate(-180 3709.3 863.884)" fill="#C2D9FF" d="M3709.3 863.884H3722.398V876.982H3709.3z"/>
            <path transform="rotate(-180 3708.8 863.384)" stroke="#C3D3FE" stroke-opacity=".6" d="M3708.8 863.384H3720.898V875.482H3708.8z"/>
            <circle cx="3576.42" cy="1162.79" r="7.859" transform="rotate(-180 3576.42 1162.79)" fill="#C2D9FF"/>
            <circle cx="3576.42" cy="1162.79" r="7.359" transform="rotate(-180 3576.42 1162.79)" stroke="#C3D3FE" stroke-opacity=".6"/>
            <circle cx="3355.66" cy="913.655" r="7.859" transform="rotate(-180 3355.66 913.655)" fill="#C2D9FF"/>
            <circle cx="3355.66" cy="913.655" r="7.359" transform="rotate(-180 3355.66 913.655)" stroke="#C3D3FE" stroke-opacity=".6"/>
            <circle cx="3879.57" cy="615.023" r="7.859" transform="rotate(-180 3879.57 615.023)" fill="#C2D9FF"/>
            <circle cx="3879.57" cy="615.023" r="7.359" transform="rotate(-180 3879.57 615.023)" stroke="#C3D3FE" stroke-opacity=".6"/>
            <circle cx="3662.05" cy="946.458" r="5.239" transform="rotate(-180 3662.05 946.458)" fill="#C2D9FF"/>
            <circle cx="3662.05" cy="946.458" r="4.739" transform="rotate(-180 3662.05 946.458)" stroke="#C3D3FE" stroke-opacity=".6"/>
            <path d="M3446.43 801.005c-61.53-75.535-94.61-162.328-98.37-241.575-3.75-79.247 21.81-150.913 77.51-196.285 55.7-45.373 131.05-55.912 207.9-36.207 76.85 19.706 155.16 69.652 216.69 145.188 61.53 75.535 94.61 162.328 98.37 241.575 3.75 79.247-21.81 150.913-77.51 196.285-55.7 45.373-131.05 55.912-207.9 36.207-76.85-19.706-155.16-69.652-216.69-145.188z" stroke="#C3D3FE" stroke-opacity=".6"/>
            <path fill-rule="evenodd" clip-rule="evenodd"
                  d="M3614.27 701.235c-25.85 55.383-41.19 124.441-41.19 199.323 0 182.292 90.9 330.062 203.02 330.062s203.02-147.77 203.02-330.062c0-182.291-90.9-330.067-203.02-330.067-54.15 0-103.35 34.469-139.75 90.648a22.847 22.847 0 0 0-9.69-2.142c-12.67 0-22.94 10.268-22.94 22.935 0 8.102 4.2 15.223 10.55 19.303zm.86.526c-25.75 55.216-41.05 124.087-41.05 198.797 0 90.991 22.69 173.322 59.32 232.872 36.63 59.56 87.12 96.19 142.7 96.19 55.58 0 106.07-36.63 142.7-96.19 36.63-59.55 59.32-141.881 59.32-232.872 0-90.991-22.69-173.32-59.32-232.869-36.63-59.565-87.12-96.198-142.7-96.198-53.66 0-102.56 34.14-138.85 90.094 7.34 3.826 12.34 11.502 12.34 20.347 0 12.667-10.26 22.935-22.93 22.935a22.78 22.78 0 0 1-11.53-3.106zm-10.41-19.829c0-12.114 9.82-21.935 21.94-21.935 12.11 0 21.93 9.821 21.93 21.935 0 12.115-9.82 21.935-21.93 21.935-12.12 0-21.94-9.82-21.94-21.935z"
                  fill="#C3D3FE" fill-opacity=".6"/>
            <path d="M3337.82 801.014c0-215.303 169.85-389.817 379.34-389.817 209.49 0 379.34 174.514 379.34 389.817 0 215.306-169.85 389.816-379.34 389.816-209.49 0-379.34-174.51-379.34-389.816z" stroke="#C3D3FE" stroke-opacity=".6"/>
            <circle cx="3848.63" cy="1008.26" r="13.908" transform="rotate(-180 3848.63 1008.26)" stroke="#C3D3FE" stroke-opacity=".6"/>
            <path fill-rule="evenodd" clip-rule="evenodd"
                  d="M3514.41 561.369c22.75-3.668 46.32-5.596 70.46-5.596 192.83 0 348.72 122.91 348.72 274.056 0 63.683-27.68 122.354-74.13 168.931.22.252.44.513.64.781 46.66-46.745 74.49-105.673 74.49-169.712 0-151.909-156.58-275.056-349.72-275.056-24.2 0-47.83 1.934-70.64 5.615-1.19-5.259-5.89-9.187-11.5-9.187-6.51 0-11.79 5.278-11.79 11.788 0 6.511 5.28 11.788 11.79 11.788 6.51 0 11.79-5.277 11.79-11.788 0-.549-.04-1.09-.11-1.62zm70.46 542.511c99.84 0 189.78-32.95 253.3-85.71.24.25.47.48.72.71-63.74 52.96-153.97 86-254.02 86-193.14 0-349.71-123.142-349.71-275.051 0-126.327 108.28-232.764 255.82-265.029.03.334.07.666.12.992-147.17 32.209-254.94 138.362-254.94 264.037 0 151.146 155.89 274.051 348.71 274.051zm-92.93-540.891c0-5.958 4.83-10.788 10.79-10.788 5.96 0 10.79 4.83 10.79 10.788s-4.83 10.788-10.79 10.788c-5.96 0-10.79-4.83-10.79-10.788z"
                  fill="#C3D3FE" fill-opacity=".6"/>
        </g>
        <g opacity=".65">
            <circle cx="1818.45" cy="4916.95" r="15.717" fill="#C2D9FF"/>
            <circle cx="1818.45" cy="4916.95" r="15.217" stroke="#C3D3FE" stroke-opacity=".6"/>
            <ellipse cx="1826.3" cy="5016.49" rx="5.239" ry="5.239" fill="#C2D9FF"/>
            <path d="M1831.04 5016.49c0 2.62-2.12 4.74-4.74 4.74-2.61 0-4.74-2.12-4.74-4.74s2.13-4.74 4.74-4.74c2.62 0 4.74 2.12 4.74 4.74zm18.34-99.54c0 17.08-13.85 30.93-30.93 30.93-17.09 0-30.94-13.85-30.94-30.93 0-17.09 13.85-30.94 30.94-30.94 17.08 0 30.93 13.85 30.93 30.94z" stroke="#C3D3FE" stroke-opacity=".6"/>
            <circle cx="1818.45" cy="4916.95" r="101.664" stroke="#C3D3FE" stroke-opacity=".6"/>
            <circle cx="1818.45" cy="4916.95" r="57.131" stroke="#C3D3FE" stroke-opacity=".6" stroke-linejoin="round" stroke-dasharray="2 3"/>
            <path fill="#C2D9FF" d="M1878.7 4835.74H1891.798V4848.838H1878.7z"/>
            <path stroke="#C3D3FE" stroke-opacity=".6" d="M1879.2 4836.24H1891.298V4848.338H1879.2z"/>
            <circle cx="2011.58" cy="4536.83" r="7.859" fill="#C2D9FF"/>
            <circle cx="2011.58" cy="4536.83" r="7.359" stroke="#C3D3FE" stroke-opacity=".6"/>
            <circle cx="2232.34" cy="4785.97" r="7.859" fill="#C2D9FF"/>
            <circle cx="2232.34" cy="4785.97" r="7.359" stroke="#C3D3FE" stroke-opacity=".6"/>
            <circle cx="1708.43" cy="5084.6" r="7.859" fill="#C2D9FF"/>
            <circle cx="1708.43" cy="5084.6" r="7.359" stroke="#C3D3FE" stroke-opacity=".6"/>
            <ellipse cx="1925.95" cy="4753.17" rx="5.239" ry="5.239" fill="#C2D9FF"/>
            <path d="M1930.69 4753.17c0 2.61-2.12 4.74-4.74 4.74s-4.74-2.13-4.74-4.74c0-2.62 2.12-4.74 4.74-4.74s4.74 2.12 4.74 4.74z" stroke="#C3D3FE" stroke-opacity=".6"/>
            <path d="M2141.57 4898.62c61.53 75.54 94.61 162.33 98.37 241.57 3.75 79.25-21.81 150.92-77.51 196.29-55.7 45.37-131.05 55.91-207.9 36.21-76.85-19.71-155.16-69.65-216.69-145.19-61.53-75.54-94.61-162.33-98.37-241.58-3.75-79.24 21.81-150.91 77.51-196.28 55.7-45.37 131.05-55.91 207.9-36.21 76.85 19.71 155.16 69.65 216.69 145.19z" stroke="#C3D3FE" stroke-opacity=".6"/>
            <path fill-rule="evenodd" clip-rule="evenodd"
                  d="M1973.73 4998.39c25.85-55.38 41.19-124.44 41.19-199.32 0-182.29-90.9-330.07-203.02-330.07s-203.02 147.78-203.02 330.07 90.9 330.06 203.02 330.06c54.15 0 103.35-34.47 139.75-90.64 2.94 1.37 6.23 2.14 9.69 2.14 12.67 0 22.94-10.27 22.94-22.94 0-8.1-4.2-15.22-10.55-19.3zm-.86-.53c25.75-55.21 41.05-124.08 41.05-198.79 0-90.99-22.69-173.32-59.32-232.87-36.63-59.57-87.12-96.2-142.7-96.2-55.58 0-106.07 36.63-142.7 96.2-36.63 59.55-59.32 141.88-59.32 232.87 0 90.99 22.69 173.32 59.32 232.87 36.63 59.56 87.12 96.19 142.7 96.19 53.66 0 102.56-34.14 138.85-90.09-7.34-3.83-12.34-11.5-12.34-20.35 0-12.66 10.26-22.93 22.93-22.93 4.21 0 8.15 1.13 11.53 3.1zm10.41 19.83c0 12.12-9.82 21.94-21.94 21.94-12.11 0-21.93-9.82-21.93-21.94 0-12.11 9.82-21.93 21.93-21.93 12.12 0 21.94 9.82 21.94 21.93z"
                  fill="#C3D3FE" fill-opacity=".6"/>
            <path d="M2250.18 4898.61c0 215.3-169.85 389.82-379.34 389.82-209.49 0-379.34-174.52-379.34-389.82 0-215.3 169.85-389.82 379.34-389.82 209.49 0 379.34 174.52 379.34 389.82z" stroke="#C3D3FE" stroke-opacity=".6"/>
            <circle cx="1739.37" cy="4691.37" r="13.908" stroke="#C3D3FE" stroke-opacity=".6"/>
            <path fill-rule="evenodd" clip-rule="evenodd"
                  d="M2073.59 5138.26c-22.75 3.66-46.32 5.59-70.46 5.59-192.83 0-348.72-122.91-348.72-274.05 0-63.69 27.68-122.36 74.13-168.93-.22-.26-.44-.52-.64-.79-46.66 46.75-74.49 105.68-74.49 169.72 0 151.91 156.58 275.05 349.72 275.05 24.2 0 47.83-1.93 70.64-5.61 1.19 5.26 5.89 9.18 11.5 9.18 6.51 0 11.79-5.27 11.79-11.78s-5.28-11.79-11.79-11.79c-6.51 0-11.79 5.28-11.79 11.79 0 .55.04 1.09.11 1.62zm-70.46-542.52c-99.84 0-189.78 32.95-253.3 85.71-.24-.24-.47-.48-.72-.7 63.74-52.97 153.97-86.01 254.02-86.01 193.14 0 349.71 123.15 349.71 275.06 0 126.32-108.28 232.76-255.82 265.03-.03-.34-.07-.67-.12-1 147.17-32.21 254.94-138.36 254.94-264.03 0-151.15-155.89-274.06-348.71-274.06zm92.93 540.9c0 5.95-4.83 10.78-10.79 10.78-5.96 0-10.79-4.83-10.79-10.78 0-5.96 4.83-10.79 10.79-10.79 5.96 0 10.79 4.83 10.79 10.79z"
                  fill="#C3D3FE" fill-opacity=".6"/>
        </g>
        <g opacity=".8">
            <circle cx="2036.04" cy="1916" r="4.877" transform="rotate(-15 2036.04 1916)" fill="#C3D3FE"/>
            <circle cx="2036.04" cy="1916" r="3.877" transform="rotate(-15 2036.04 1916)" stroke="#C3D3FE" stroke-opacity=".6" stroke-width="2"/>
            <circle cx="2116.81" cy="1878.28" r="3.877" transform="rotate(-15 2116.81 1878.28)" stroke="#C3D3FE" stroke-opacity=".6" stroke-width="2"/>
            <circle cx="1918.58" cy="1880.34" r="1.89" transform="rotate(-15 1918.58 1880.34)" stroke="#C3D3FE" stroke-opacity=".6" stroke-width="2"/>
            <circle cx="2080.16" cy="1855.93" r="4.877" transform="rotate(-15 2080.16 1855.93)" fill="#C3D3FE"/>
            <circle cx="2080.16" cy="1855.93" r="3.877" transform="rotate(-15 2080.16 1855.93)" stroke="#C3D3FE" stroke-opacity=".6" stroke-width="2"/>
            <circle cx="1872.33" cy="1863.37" r="4.877" transform="rotate(-15 1872.33 1863.37)" fill="#C3D3FE"/>
            <circle cx="1872.33" cy="1863.37" r="3.877" transform="rotate(-15 1872.33 1863.37)" stroke="#C3D3FE" stroke-opacity=".6" stroke-width="2"/>
            <circle cx="1994.41" cy="1650.39" r="4.877" transform="rotate(-15 1994.41 1650.39)" fill="#C3D3FE"/>
            <circle cx="1994.41" cy="1650.39" r="3.877" transform="rotate(-15 1994.41 1650.39)" stroke="#C3D3FE" stroke-opacity=".6" stroke-width="2"/>
            <circle cx="2026.99" cy="1664.47" r="3.071" transform="rotate(-15 2026.99 1664.47)" fill="#C3D3FE"/>
            <circle cx="2026.99" cy="1664.47" r="2.071" transform="rotate(-15 2026.99 1664.47)" stroke="#C3D3FE" stroke-opacity=".6" stroke-width="2"/>
            <circle cx="2064.68" cy="1589.48" r="4.335" transform="rotate(-15 2064.68 1589.48)" fill="#C3D3FE"/>
            <circle cx="2064.68" cy="1589.48" r="3.335" transform="rotate(-15 2064.68 1589.48)" stroke="#C3D3FE" stroke-opacity=".6" stroke-width="2"/>
            <circle cx="2173.75" cy="1587.56" r="4.335" transform="rotate(-15 2173.75 1587.56)" fill="#C3D3FE"/>
            <circle cx="2173.75" cy="1587.56" r="3.335" transform="rotate(-15 2173.75 1587.56)" stroke="#C3D3FE" stroke-opacity=".6" stroke-width="2"/>
            <circle cx="2221.3" cy="1689.64" r="4.335" transform="rotate(-15 2221.3 1689.64)" fill="#C3D3FE"/>
            <circle cx="2221.3" cy="1689.64" r="3.335" transform="rotate(-15 2221.3 1689.64)" stroke="#C3D3FE" stroke-opacity=".6" stroke-width="2"/>
            <circle cx="2243.57" cy="1596.9" r="4.335" transform="rotate(-15 2243.57 1596.9)" fill="#C3D3FE"/>
            <circle cx="2243.57" cy="1596.9" r="3.335" transform="rotate(-15 2243.57 1596.9)" stroke="#C3D3FE" stroke-opacity=".6" stroke-width="2"/>
            <circle cx="2162.86" cy="1471.54" r="4.335" transform="rotate(-15 2162.86 1471.54)" fill="#C3D3FE"/>
            <circle cx="2162.86" cy="1471.54" r="3.335" transform="rotate(-15 2162.86 1471.54)" stroke="#C3D3FE" stroke-opacity=".6" stroke-width="2"/>
            <circle cx="1943.34" cy="1591.7" r="4.335" transform="rotate(-15 1943.34 1591.7)" fill="#C3D3FE"/>
            <circle cx="1943.34" cy="1591.7" r="3.335" transform="rotate(-15 1943.34 1591.7)" stroke="#C3D3FE" stroke-opacity=".6" stroke-width="2"/>
            <circle cx="1957.67" cy="1568.41" r="3.251" transform="rotate(-15 1957.67 1568.41)" fill="#C3D3FE"/>
            <circle cx="1957.67" cy="1568.41" r="2.251" transform="rotate(-15 1957.67 1568.41)" stroke="#C3D3FE" stroke-opacity=".6" stroke-width="2"/>
            <circle cx="1882.64" cy="1561.96" r="5.419" transform="rotate(-15 1882.64 1561.96)" fill="#C3D3FE"/>
            <circle cx="1882.64" cy="1561.96" r="4.419" transform="rotate(-15 1882.64 1561.96)" stroke="#C3D3FE" stroke-opacity=".6" stroke-width="2"/>
            <circle cx="1855.52" cy="1561.93" r="3.432" transform="rotate(-15 1855.52 1561.93)" fill="#C3D3FE"/>
            <circle cx="1855.52" cy="1561.93" r="2.432" transform="rotate(-15 1855.52 1561.93)" stroke="#C3D3FE" stroke-opacity=".6" stroke-width="2"/>
            <circle cx="1953.18" cy="1895.01" r="3.974" transform="rotate(-15 1953.18 1895.01)" fill="#C3D3FE"/>
            <circle cx="1953.18" cy="1895.01" r="2.974" transform="rotate(-15 1953.18 1895.01)" stroke="#C3D3FE" stroke-opacity=".6" stroke-width="2"/>
            <path d="M1855.52 1561.93l25.99.71 61.18 29.42 14.51-23.34 29.83-7.99m0 0l7.73 89.56m-7.73-89.56l78.17 28.61m-70.44 60.95l32.39 13.39 38.05-74.34m-70.44 60.95l-129.37 37.84 6.76 175.29 44.44 15.77m148.61-289.85l64.78-32.51m0 0l34.1-85.62m-34.1 85.62l43.33 30.47m0 0l69.41 8.52 59.25-69.92-128.66 61.4zm0 0l18.32 89.34 34.14 12.92m-271.49 206.08l81.71 20.19m0 0l45.97-59.45m-45.97 59.45l77.28-34.73" stroke="#C3D3FE" stroke-opacity=".6" stroke-width="2"/>
            <path d="M1986.66 1550.17l1.85 6.84 5.75-4.15-3.54 6.15 7 1.13-6.84 1.85 4.15 5.74-6.15-3.53-1.13 7-1.85-6.85-5.74 4.15 3.53-6.14-7-1.13 6.85-1.85-4.15-5.75 6.14 3.54 1.13-7z" fill="#C3D3FE"/>
            <path d="M1988.8 1557.42l3.87-2.79-2.38 4.13-.36.63.71.11 4.71.76-4.6 1.24-.7.19.42.59 2.79 3.86-4.13-2.37-.63-.36-.11.71-.76 4.7-1.24-4.6-.19-.7-.59.43-3.86 2.79 2.37-4.13.36-.63-.71-.12-4.7-.76 4.6-1.24.69-.19-.42-.58-2.79-3.87 4.13 2.38.63.36.12-.71.76-4.71 1.24 4.6.19.7.58-.42z" stroke="#C3D3FE" stroke-opacity=".6"/>
            <path d="M1864.71 1677.1l1.85 6.84 5.74-4.15-3.53 6.15 7 1.13-6.85 1.84 4.15 5.75-6.14-3.53-1.13 6.99-1.85-6.84-5.75 4.15 3.54-6.14-7-1.14 6.84-1.84-4.15-5.75 6.15 3.53 1.13-6.99z" fill="#C3D3FE"/>
            <path d="M1866.85 1684.35l3.86-2.79-2.37 4.13-.36.62.71.12 4.7.76-4.6 1.24-.7.19.43.59 2.79 3.86-4.13-2.38-.63-.36-.12.72-.76 4.7-1.24-4.6-.19-.7-.58.43-3.87 2.78 2.38-4.13.36-.62-.71-.12-4.71-.76 4.6-1.24.7-.19-.42-.58-2.79-3.87 4.13 2.38.63.36.11-.72.76-4.7 1.24 4.6.19.7.59-.42z" stroke="#C3D3FE" stroke-opacity=".6"/>
            <path d="M2129.66 1548.51l1.39 5.16 4.33-3.13-2.66 4.64 5.28.85-5.17 1.39 3.13 4.34-4.63-2.67-.85 5.28-1.4-5.16-4.33 3.13 2.66-4.64-5.28-.85 5.17-1.39-3.13-4.34 4.63 2.67.86-5.28z" fill="#C3D3FE"/>
            <path d="M2131.34 1554.08l2.45-1.77-1.5 2.62-.37.62.72.12 2.98.48-2.92.79-.69.19.42.58 1.77 2.46-2.62-1.51-.63-.36-.11.71-.49 2.99-.78-2.92-.19-.7-.59.42-2.45 1.77 1.51-2.62.36-.63-.72-.11-2.98-.48 2.92-.79.7-.19-.43-.59-1.77-2.45 2.62 1.51.63.36.12-.71.48-2.99.79 2.92.18.7.59-.42z" stroke="#C3D3FE" stroke-opacity=".6"/>
            <path d="M2298.64 1518.94l1.39 5.16 4.34-3.13-2.67 4.64 5.28.85-5.16 1.39 3.13 4.34-4.64-2.67-.85 5.28-1.39-5.16-4.34 3.13 2.67-4.64-5.28-.85 5.16-1.39-3.13-4.34 4.64 2.67.85-5.28z" fill="#C3D3FE"/>
            <path d="M2300.33 1524.5l2.45-1.76-1.51 2.62-.36.62.71.12 2.99.48-2.92.79-.7.19.42.58 1.77 2.45-2.62-1.5-.62-.36-.12.71-.48 2.99-.79-2.92-.19-.7-.58.42-2.46 1.77 1.51-2.62.36-.63-.71-.11-2.99-.48 2.92-.79.7-.19-.42-.59-1.77-2.45 2.62 1.51.63.36.11-.72.48-2.98.79 2.92.19.7.59-.43z" stroke="#C3D3FE" stroke-opacity=".6"/>
            <path d="M2190.96 1666.35l1.85 6.84 5.75-4.14-3.54 6.14 7 1.13-6.84 1.85 4.14 5.75-6.14-3.54-1.13 7-1.85-6.84-5.74 4.14 3.53-6.14-7-1.13 6.84-1.85-4.14-5.75 6.14 3.54 1.13-7z" fill="#C3D3FE"/>
            <path d="M2193.1 1673.6l3.86-2.79-2.37 4.13-.36.63.71.11 4.71.77-4.6 1.24-.7.18.42.59 2.79 3.86-4.13-2.37-.63-.36-.11.71-.76 4.71-1.24-4.6-.19-.7-.59.42-3.86 2.79 2.37-4.13.36-.63-.71-.11-4.7-.76 4.6-1.24.69-.19-.42-.59-2.79-3.86 4.13 2.37.63.36.11-.71.77-4.7 1.24 4.59.18.7.59-.42z" stroke="#C3D3FE" stroke-opacity=".6"/>
        </g>
        <g opacity=".8">
            <circle cx="3563.04" cy="6024" r="4.877" transform="rotate(-15 3563.04 6024)" fill="#C3D3FE"/>
            <circle cx="3563.04" cy="6024" r="3.877" transform="rotate(-15 3563.04 6024)" stroke="#C3D3FE" stroke-opacity=".6" stroke-width="2"/>
            <circle cx="3643.81" cy="5986.27" r="3.877" transform="rotate(-15 3643.81 5986.27)" stroke="#C3D3FE" stroke-opacity=".6" stroke-width="2"/>
            <circle cx="3445.58" cy="5988.34" r="1.89" transform="rotate(-15 3445.58 5988.34)" stroke="#C3D3FE" stroke-opacity=".6" stroke-width="2"/>
            <circle cx="3607.16" cy="5963.93" r="4.877" transform="rotate(-15 3607.16 5963.93)" fill="#C3D3FE"/>
            <circle cx="3607.16" cy="5963.93" r="3.877" transform="rotate(-15 3607.16 5963.93)" stroke="#C3D3FE" stroke-opacity=".6" stroke-width="2"/>
            <circle cx="3399.33" cy="5971.37" r="4.877" transform="rotate(-15 3399.33 5971.37)" fill="#C3D3FE"/>
            <circle cx="3399.33" cy="5971.37" r="3.877" transform="rotate(-15 3399.33 5971.37)" stroke="#C3D3FE" stroke-opacity=".6" stroke-width="2"/>
            <circle cx="3521.41" cy="5758.38" r="4.877" transform="rotate(-15 3521.41 5758.38)" fill="#C3D3FE"/>
            <circle cx="3521.41" cy="5758.38" r="3.877" transform="rotate(-15 3521.41 5758.38)" stroke="#C3D3FE" stroke-opacity=".6" stroke-width="2"/>
            <circle cx="3553.99" cy="5772.47" r="3.071" transform="rotate(-15 3553.99 5772.47)" fill="#C3D3FE"/>
            <circle cx="3553.99" cy="5772.47" r="2.071" transform="rotate(-15 3553.99 5772.47)" stroke="#C3D3FE" stroke-opacity=".6" stroke-width="2"/>
            <circle cx="3591.68" cy="5697.48" r="4.335" transform="rotate(-15 3591.68 5697.48)" fill="#C3D3FE"/>
            <circle cx="3591.68" cy="5697.48" r="3.335" transform="rotate(-15 3591.68 5697.48)" stroke="#C3D3FE" stroke-opacity=".6" stroke-width="2"/>
            <circle cx="3700.75" cy="5695.56" r="4.335" transform="rotate(-15 3700.75 5695.56)" fill="#C3D3FE"/>
            <circle cx="3700.75" cy="5695.56" r="3.335" transform="rotate(-15 3700.75 5695.56)" stroke="#C3D3FE" stroke-opacity=".6" stroke-width="2"/>
            <circle cx="3748.3" cy="5797.64" r="4.335" transform="rotate(-15 3748.3 5797.64)" fill="#C3D3FE"/>
            <circle cx="3748.3" cy="5797.64" r="3.335" transform="rotate(-15 3748.3 5797.64)" stroke="#C3D3FE" stroke-opacity=".6" stroke-width="2"/>
            <circle cx="3770.57" cy="5704.9" r="4.335" transform="rotate(-15 3770.57 5704.9)" fill="#C3D3FE"/>
            <circle cx="3770.57" cy="5704.9" r="3.335" transform="rotate(-15 3770.57 5704.9)" stroke="#C3D3FE" stroke-opacity=".6" stroke-width="2"/>
            <circle cx="3689.86" cy="5579.54" r="4.335" transform="rotate(-15 3689.86 5579.54)" fill="#C3D3FE"/>
            <circle cx="3689.86" cy="5579.54" r="3.335" transform="rotate(-15 3689.86 5579.54)" stroke="#C3D3FE" stroke-opacity=".6" stroke-width="2"/>
            <circle cx="3470.34" cy="5699.7" r="4.335" transform="rotate(-15 3470.34 5699.7)" fill="#C3D3FE"/>
            <circle cx="3470.34" cy="5699.7" r="3.335" transform="rotate(-15 3470.34 5699.7)" stroke="#C3D3FE" stroke-opacity=".6" stroke-width="2"/>
            <circle cx="3484.67" cy="5676.41" r="3.251" transform="rotate(-15 3484.67 5676.41)" fill="#C3D3FE"/>
            <circle cx="3484.67" cy="5676.41" r="2.251" transform="rotate(-15 3484.67 5676.41)" stroke="#C3D3FE" stroke-opacity=".6" stroke-width="2"/>
            <circle cx="3409.64" cy="5669.96" r="5.419" transform="rotate(-15 3409.64 5669.96)" fill="#C3D3FE"/>
            <circle cx="3409.64" cy="5669.96" r="4.419" transform="rotate(-15 3409.64 5669.96)" stroke="#C3D3FE" stroke-opacity=".6" stroke-width="2"/>
            <circle cx="3382.52" cy="5669.93" r="3.432" transform="rotate(-15 3382.52 5669.93)" fill="#C3D3FE"/>
            <circle cx="3382.52" cy="5669.93" r="2.432" transform="rotate(-15 3382.52 5669.93)" stroke="#C3D3FE" stroke-opacity=".6" stroke-width="2"/>
            <circle cx="3480.18" cy="6003.01" r="3.974" transform="rotate(-15 3480.18 6003.01)" fill="#C3D3FE"/>
            <circle cx="3480.18" cy="6003.01" r="2.974" transform="rotate(-15 3480.18 6003.01)" stroke="#C3D3FE" stroke-opacity=".6" stroke-width="2"/>
            <path d="M3382.52 5669.93l25.99.7 61.18 29.43 14.51-23.34 29.83-7.99m0 0l7.73 89.56m-7.73-89.56l78.17 28.61m-70.44 60.95l32.39 13.39 38.05-74.34m-70.44 60.95l-129.37 37.84 6.76 175.29 44.44 15.77m148.61-289.85l64.78-32.51m0 0l34.1-85.62m-34.1 85.62l43.33 30.47m0 0l69.41 8.52 59.25-69.92-128.66 61.4zm0 0l18.32 89.34 34.14 12.92m-271.49 206.08l81.71 20.19m0 0l45.97-59.45m-45.97 59.45l77.28-34.74" stroke="#C3D3FE" stroke-opacity=".6" stroke-width="2"/>
            <path d="M3513.66 5658.17l1.85 6.84 5.75-4.15-3.53 6.15 6.99 1.13-6.84 1.84 4.15 5.75-6.15-3.53-1.13 7-1.85-6.85-5.74 4.15 3.53-6.14-7-1.14 6.85-1.84-4.15-5.75 6.14 3.53 1.13-6.99z" fill="#C3D3FE"/>
            <path d="M3515.8 5665.42l3.87-2.79-2.38 4.13-.36.62.72.12 4.7.76-4.6 1.24-.7.19.42.59 2.79 3.86-4.13-2.38-.63-.36-.11.72-.76 4.7-1.24-4.6-.19-.7-.59.43-3.86 2.78 2.37-4.13.36-.62-.71-.12-4.7-.76 4.6-1.24.7-.19-.43-.58-2.79-3.87 4.13 2.38.63.36.12-.72.76-4.7 1.24 4.6.19.7.58-.42z" stroke="#C3D3FE" stroke-opacity=".6"/>
            <path d="M3391.71 5785.1l1.85 6.84 5.74-4.15-3.53 6.15 7 1.13-6.85 1.84 4.15 5.75-6.14-3.53-1.13 6.99-1.85-6.84-5.75 4.15 3.54-6.15-7-1.13 6.84-1.84-4.15-5.75 6.15 3.53 1.13-6.99z" fill="#C3D3FE"/>
            <path d="M3393.85 5792.35l3.86-2.79-2.37 4.13-.36.62.71.12 4.7.76-4.6 1.24-.7.19.43.59 2.79 3.86-4.13-2.38-.63-.36-.12.72-.76 4.7-1.24-4.6-.19-.7-.58.43-3.87 2.78 2.38-4.13.36-.62-.71-.12-4.71-.76 4.6-1.24.7-.19-.42-.59-2.79-3.86 4.13 2.38.63.36.11-.72.76-4.7 1.24 4.6.19.7.59-.42z" stroke="#C3D3FE" stroke-opacity=".6"/>
            <path d="M3656.66 5656.51l1.39 5.16 4.33-3.13-2.66 4.64 5.28.85-5.17 1.39 3.13 4.34-4.63-2.67-.85 5.28-1.4-5.16-4.33 3.13 2.66-4.64-5.28-.85 5.17-1.39-3.13-4.34 4.63 2.67.86-5.28z" fill="#C3D3FE"/>
            <path d="M3658.34 5662.07l2.45-1.76-1.5 2.62-.37.62.72.12 2.98.48-2.92.79-.69.19.42.58 1.77 2.46-2.62-1.51-.63-.36-.11.71-.49 2.99-.78-2.92-.19-.7-.59.42-2.45 1.77 1.51-2.62.36-.63-.72-.11-2.98-.48 2.92-.79.7-.19-.43-.59-1.77-2.45 2.62 1.51.63.36.12-.71.48-2.99.79 2.92.18.7.59-.43z" stroke="#C3D3FE" stroke-opacity=".6"/>
            <path d="M3825.64 5626.94l1.39 5.16 4.34-3.13-2.67 4.63 5.28.86-5.16 1.39 3.13 4.34-4.64-2.67-.85 5.28-1.39-5.16-4.34 3.13 2.67-4.64-5.28-.85 5.16-1.4-3.13-4.33 4.64 2.66.85-5.27z" fill="#C3D3FE"/>
            <path d="M3827.33 5632.5l2.45-1.77-1.51 2.62-.36.63.71.12 2.99.48-2.92.79-.7.19.42.58 1.77 2.45-2.62-1.5-.62-.36-.12.71-.48 2.98-.79-2.91-.19-.7-.59.42-2.45 1.77 1.51-2.62.36-.63-.71-.11-2.99-.49 2.92-.78.7-.19-.42-.59-1.77-2.45 2.62 1.51.63.36.11-.72.48-2.98.79 2.92.19.7.59-.43z" stroke="#C3D3FE" stroke-opacity=".6"/>
            <path d="M3717.96 5774.35l1.85 6.84 5.75-4.14-3.54 6.14 7 1.13-6.84 1.85 4.14 5.75-6.14-3.54-1.13 7-1.85-6.84-5.75 4.14 3.54-6.14-7-1.13 6.84-1.85-4.14-5.75 6.14 3.54 1.13-7z" fill="#C3D3FE"/>
            <path d="M3720.1 5781.6l3.86-2.79-2.37 4.13-.36.63.71.11 4.7.76-4.59 1.24-.7.19.42.59 2.79 3.86-4.13-2.37-.63-.36-.11.71-.76 4.7-1.25-4.59-.18-.7-.59.42-3.86 2.79 2.37-4.13.36-.63-.71-.11-4.7-.77 4.59-1.24.7-.18-.42-.59-2.79-3.86 4.13 2.37.63.36.11-.71.76-4.71 1.25 4.6.18.7.59-.42z" stroke="#C3D3FE" stroke-opacity=".6"/>
        </g>
        <circle cx="1763" cy="681" r="168" fill="#8E8FFA" filter="url(#filter3_f_229_1689)"/>
        <circle cx="3859" cy="2294" r="272" fill="#8E8FFA" filter="url(#filter4_f_229_1689)"/>
        <circle cx="3696" cy="5561" r="272" fill="#8E8FFA" filter="url(#filter5_f_229_1689)"/>
        <g opacity=".8">
            <circle cx="3615" cy="3077" r="17" fill="#C3D3FE" fill-opacity=".6"/>
            <circle cx="3557.5" cy="3076.5" r="8.5" fill="#C3D3FE" fill-opacity=".6"/>
            <circle cx="3672.5" cy="3076.5" r="8.5" fill="#C3D3FE" fill-opacity=".6"/>
            <circle cx="3698.5" cy="3076.5" r="5.5" fill="#C3D3FE" fill-opacity=".6"/>
            <circle cx="3807.5" cy="3143.36" r="5.5" fill="#C3D3FE" fill-opacity=".6"/>
            <circle cx="3831.5" cy="2977.36" r="5.5" fill="#C3D3FE" fill-opacity=".6"/>
            <circle cx="3531.5" cy="3076.5" r="5.5" fill="#C3D3FE" fill-opacity=".6"/>
            <circle cx="3615" cy="3077" r="35.5" stroke="#C3D3FE" stroke-opacity=".6" stroke-width="3"/>
            <path d="M3705.17 3105.44c-12.61 39.34-34.08 71.71-58.59 92.25-24.52 20.54-52 29.19-76.68 21.29-24.67-7.91-42-30.93-50.01-61.89-8.01-30.96-6.67-69.78 5.94-109.13 12.6-39.34 34.08-71.71 58.59-92.24 24.52-20.54 52-29.2 76.68-21.29 24.67 7.91 42 30.93 50.01 61.89 8.01 30.95 6.67 69.78-5.94 109.12z" stroke="#C3D3FE" stroke-opacity=".6"/>
            <path d="M3661.89 3158.06c-58.63 33.86-116.99 55.32-163.93 62.67-23.47 3.68-44.07 3.82-60.4.24-16.33-3.59-28.35-10.88-34.79-22.04-6.44-11.15-6.75-25.21-1.69-41.15 5.07-15.93 15.48-33.69 30.4-52.18 29.84-36.98 77.61-76.79 136.24-110.64 58.63-33.85 116.99-55.31 163.93-62.67 23.47-3.67 44.07-3.81 60.4-.23s28.35 10.88 34.79 22.03c6.44 11.16 6.75 25.22 1.69 41.15-5.07 15.94-15.48 33.7-30.4 52.19-29.84 36.98-77.61 76.78-136.24 110.63z" stroke="#C3D3FE" stroke-opacity=".6"/>
            <path d="M3606.34 3148.62c-67.21-8.27-127.07-23.67-169.5-41.85-21.22-9.1-38.06-18.88-49.29-28.79-11.24-9.94-16.75-19.92-15.58-29.42 1.17-9.51 8.94-17.85 22.25-24.76 13.3-6.9 32.01-12.3 54.8-15.98 45.58-7.35 107.38-7.76 174.59.52 67.21 8.27 127.06 23.66 169.5 41.85 21.22 9.09 38.06 18.87 49.28 28.79 11.24 9.93 16.76 19.91 15.59 29.42-1.17 9.5-8.94 17.85-22.26 24.76-13.29 6.89-32 12.3-54.8 15.97-45.58 7.35-107.38 7.77-174.58-.51z" stroke="#C3D3FE" stroke-opacity=".6"/>
            <path fill-rule="evenodd" clip-rule="evenodd"
                  d="M3627.56 3161.9l-.08-.49-.09-.49c1.13-.2 2.25-.41 3.38-.62 1.13-.2 2.26-.41 3.39-.62l.09.49.09.49c-1.13.21-2.25.42-3.39.63-1.13.21-2.26.41-3.39.61zm13.51-2.53l-.09-.49-.1-.5c2.25-.44 4.49-.89 6.72-1.35l.1.49.1.49c-2.23.46-4.47.91-6.73 1.36zm13.43-2.78l-.1-.49-.11-.49c2.25-.49 4.48-.98 6.7-1.49l.11.49.11.49c-2.22.5-4.46 1-6.71 1.49zm13.38-3.04l-.12-.49-.11-.48c2.23-.53 4.46-1.07 6.67-1.62l.12.49.12.48c-2.21.55-4.44 1.09-6.68 1.62zm13.32-3.3l-.12-.48-.13-.49c2.23-.57 4.44-1.15 6.63-1.74l.13.48.13.48c-2.2.59-4.41 1.18-6.64 1.75zm13.26-3.56l-.13-.49-.14-.48c2.21-.62 4.4-1.24 6.57-1.88l.14.48.14.48c-2.18.64-4.37 1.27-6.58 1.89zm13.18-3.85l-.15-.47-.14-.48c2.19-.67 4.36-1.34 6.52-2.02l.15.48.15.47c-2.16.68-4.34 1.36-6.53 2.02zm13.08-4.12l-.16-.48-.16-.47c2.19-.72 4.35-1.44 6.5-2.18l.16.48.16.47c-2.15.73-4.32 1.46-6.5 2.18zm12.96-4.43l-.17-.47-.16-.47c2.17-.77 4.33-1.55 6.46-2.34l.17.47.18.47c-2.14.79-4.3 1.57-6.48 2.34zm12.89-4.76l-.18-.46-.18-.47c2.14-.82 4.27-1.66 6.36-2.5l.19.47.18.46c-2.1.84-4.22 1.68-6.37 2.5zm12.74-5.1l-.19-.46-.19-.46c2.12-.89 4.22-1.78 6.29-2.68l.2.46.2.46c-2.08.9-4.18 1.79-6.31 2.68zm12.56-5.46l-.21-.46-.2-.45c2.11-.96 4.18-1.92 6.23-2.89l.21.45.22.45c-2.05.97-4.14 1.94-6.25 2.9zm12.41-5.9c2.07-1.03 4.1-2.06 6.1-3.1l-.24-.44-.23-.45a380.05 380.05 0 0 1-6.07 3.1l.22.44.22.45zm12.15-6.34l-.24-.44-.24-.44c2.03-1.12 4.02-2.24 5.97-3.37l.25.43.25.44a297.85 297.85 0 0 1-5.99 3.38zm11.88-6.9c1.98-1.22 3.91-2.44 5.79-3.67l-.27-.42-.28-.42c-1.87 1.22-3.79 2.44-5.76 3.66l.26.42.26.43zm11.46-7.51l-.29-.41-.28-.41c1.9-1.33 3.73-2.67 5.5-4.01l.3.4.31.4c-1.79 1.35-3.63 2.69-5.54 4.03zm10.91-8.27l-.31-.39-.32-.38c1.8-1.49 3.52-2.97 5.15-4.46l.34.37.33.37c-1.64 1.5-3.37 2.99-5.19 4.49zm10.14-9.26l-.36-.35-.36-.35c1.64-1.67 3.17-3.35 4.58-5.02l.39.32.38.32c-1.43 1.7-2.98 3.39-4.63 5.08zm8.83-10.51l-.41-.29-.41-.29a58 58 0 0 0 3.57-5.71l.44.24.43.24a56.872 56.872 0 0 1-3.62 5.81zm6.46-12.03l-.47-.18-.47-.17c.79-2.17 1.37-4.32 1.72-6.45l.49.09.49.08c-.36 2.19-.95 4.4-1.76 6.63zm2.13-13.46l-.5.03-.5.03c-.07-1.1-.2-2.19-.4-3.28-.2-1.09-.46-2.16-.79-3.22l.48-.15.48-.14c.33 1.09.61 2.2.81 3.33.21 1.13.35 2.26.42 3.4zm-3.99-12.99l-.43.25-.43.25a35.947 35.947 0 0 0-3.89-5.42l.38-.33.38-.32c1.54 1.79 2.88 3.65 3.99 5.57zm-8.85-10.39l-.32.38-.33.38a59.608 59.608 0 0 0-5.35-4.09l.28-.41.28-.42c1.96 1.34 3.78 2.72 5.44 4.16zm-11.3-7.75l-.24.44-.24.44a92.85 92.85 0 0 0-6.07-3.09l.21-.45.22-.45c2.14 1 4.19 2.03 6.12 3.11zm-12.44-5.82l-.18.46-.18.47c-2.06-.81-4.19-1.6-6.4-2.35l.16-.47.16-.47c2.23.75 4.37 1.54 6.44 2.36zm-12.97-4.43l-.14.48-.14.48c-2.13-.63-4.32-1.23-6.57-1.8l.12-.48.13-.49c2.26.58 4.46 1.18 6.6 1.81zm-13.26-3.39l-.11.49-.11.48c-2.18-.48-4.41-.94-6.68-1.37l.09-.5.09-.49c2.29.44 4.53.9 6.72 1.39zm-13.47-2.59l-.08.49-.09.49c-2.22-.36-4.47-.71-6.77-1.04l.07-.49.07-.5c2.3.33 4.57.68 6.8 1.05zm-13.61-1.94l-.06.5-.06.5c-2.23-.27-4.48-.52-6.77-.75l.05-.5.05-.49c2.29.23 4.56.48 6.79.74zm-13.63-1.36l-.04.49-.04.5c-2.25-.18-4.54-.35-6.85-.5l.04-.5.03-.5c2.31.15 4.6.32 6.86.51zm-13.7-.89l-.02.5-.02.5c-2.26-.11-4.53-.21-6.83-.28l.01-.5.02-.5c2.3.07 4.59.17 6.84.28zm-13.72-.46l-.01.5-.01.5c-2.25-.05-4.53-.07-6.83-.08v-1c2.31.01 4.59.03 6.85.08zm-13.7-.07l.01.5v.5c-2.27.01-4.56.05-6.87.09l-.01-.5-.01-.5c2.31-.04 4.6-.08 6.88-.09zm-13.72.28l.02.5.01.5c-2.26.07-4.54.16-6.84.26l-.02-.5-.03-.5c2.31-.1 4.59-.19 6.86-.26zm-13.72.61l.03.5.02.5c-2.25.12-4.53.26-6.81.42l-.04-.5-.03-.5c2.29-.15 4.57-.29 6.83-.42zm-13.69.92l.04.5.04.5c-2.26.17-4.53.36-6.81.56l-.05-.49-.04-.5c2.28-.2 4.56-.39 6.82-.57zm-13.65 1.21l.05.5.05.5c-2.27.22-4.54.46-6.82.71l-.06-.5-.05-.5c2.28-.25 4.56-.48 6.83-.71zm-13.64 1.49l.06.5.06.5c-2.26.27-4.54.55-6.82.85l-.06-.5-.07-.5c2.29-.29 4.57-.58 6.83-.85zm-13.6 1.77l.07.49.06.5c-2.25.31-4.52.64-6.79.98l-.07-.5-.08-.49c2.28-.34 4.55-.67 6.81-.98zm-13.57 2.02l.07.49.08.5c-2.25.35-4.5.72-6.77 1.1l-.08-.49-.08-.49c2.26-.38 4.52-.75 6.78-1.11zm-13.54 2.28c-1.13.2-2.26.4-3.39.61-1.13.21-2.26.42-3.38.63l.09.49.09.49 3.38-.63c1.13-.2 2.26-.41 3.39-.61l-.09-.49-.09-.49zm-13.51 2.53l.1.49.1.49c-2.25.45-4.49.9-6.73 1.36l-.1-.49-.1-.49c2.24-.46 4.48-.91 6.73-1.36zm-13.43 2.78l.11.49.11.49c-2.25.49-4.48.98-6.71 1.49l-.11-.49-.11-.49c2.23-.5 4.47-1 6.71-1.49zm-13.37 3.04l.12.48.11.49c-2.24.53-4.46 1.07-6.68 1.62l-.12-.49-.12-.48c2.22-.55 4.45-1.09 6.69-1.62zm-13.33 3.3l.13.48.12.49c-2.22.57-4.43 1.15-6.63 1.74l-.13-.48-.13-.48c2.2-.6 4.42-1.18 6.64-1.75zm-13.25 3.56l.13.48.14.49c-2.21.61-4.4 1.24-6.58 1.87l-.14-.48-.14-.48c2.18-.63 4.38-1.26 6.59-1.88zm-13.18 3.84l.15.48.14.48c-2.19.67-4.37 1.34-6.52 2.02l-.15-.48-.15-.47c2.16-.69 4.34-1.36 6.53-2.03zm-13.08 4.13l.16.48.15.47c-2.18.72-4.35 1.44-6.49 2.18l-.16-.48-.17-.47a708.2 708.2 0 0 1 6.51-2.18zm-12.97 4.43c-2.17.77-4.33 1.55-6.47 2.34l.17.47.18.47c2.13-.79 4.28-1.57 6.46-2.34l-.17-.47-.17-.47zm-12.88 4.75l.18.47.18.47c-2.03.78-4.03 1.56-6.01 2.35a6.24 6.24 0 0 0-.35-.94c1.98-.79 3.98-1.57 6-2.35zm-16.17 7.64c-.83.35-1.66.71-2.48 1.07l-.2-.46-.2-.46c.88-.38 1.75-.76 2.64-1.14a5.497 5.497 0 0 1 5.44-6.3c3.04 0 5.5 2.46 5.5 5.5s-2.46 5.5-5.5 5.5c-2.41 0-4.46-1.55-5.2-3.71zm-9.14 2.93l.21.46.21.45c-2.11.96-4.19 1.92-6.23 2.89l-.21-.45-.22-.45c2.05-.97 4.13-1.94 6.24-2.9zm-12.41 5.9l.22.44.23.45c-2.06 1.03-4.09 2.06-6.08 3.1l-.23-.45-.23-.44c1.99-1.04 4.03-2.08 6.09-3.1zm-12.14 6.34l.24.44.24.44c-2.03 1.12-4.02 2.24-5.97 3.37l-.25-.43-.25-.44c1.95-1.13 3.95-2.26 5.99-3.38zm-11.89 6.9l.27.43.26.42c-1.97 1.22-3.9 2.43-5.77 3.66l-.27-.42-.27-.42c1.87-1.23 3.8-2.45 5.78-3.67zm-11.45 7.51l.28.41.29.41c-1.9 1.33-3.74 2.67-5.51 4.01l-.3-.4-.3-.4a185 185 0 0 1 5.54-4.03zm-10.92 8.27l.32.39.32.38c-1.8 1.49-3.52 2.97-5.15 4.46l-.34-.37-.34-.37c1.65-1.5 3.38-3 5.19-4.49zm-10.13 9.26l.36.34.35.35c-1.63 1.68-3.16 3.36-4.58 5.03l-.38-.32-.38-.32c1.43-1.7 2.97-3.39 4.63-5.08zm-8.84 10.51l.41.29.41.28a59.918 59.918 0 0 0-3.56 5.72l-.44-.24-.44-.24c1.05-1.93 2.26-3.87 3.62-5.81zm-6.45 12.03l.47.18.47.17c-.8 2.17-1.37 4.32-1.72 6.44l-.49-.08-.5-.08c.36-2.19.95-4.4 1.77-6.63zm-2.13 13.46l.5-.03.5-.03c.06 1.1.2 2.19.4 3.28.2 1.09.46 2.16.79 3.22l-.48.15-.48.14c-.34-1.09-.61-2.2-.82-3.33-.2-1.13-.34-2.26-.41-3.4zm3.98 12.99l.44-.25.43-.25c1.08 1.86 2.38 3.67 3.89 5.42l-.38.33-.38.32a36.944 36.944 0 0 1-4-5.57zm8.85 10.39l.33-.38.33-.38c1.63 1.41 3.42 2.77 5.35 4.09l-.28.41-.28.41a61.307 61.307 0 0 1-5.45-4.15zm11.3 7.75l.25-.44.24-.44a92.55 92.55 0 0 0 6.06 3.09l-.21.45-.21.45c-2.15-1-4.19-2.04-6.13-3.11zm12.44 5.82l.19-.47.18-.46c2.06.81 4.19 1.59 6.39 2.34l-.16.48-.16.47c-2.22-.75-4.37-1.54-6.44-2.36zm12.98 4.43l.14-.48.14-.48c2.13.62 4.32 1.22 6.57 1.8l-.13.48-.12.49c-2.26-.58-4.46-1.18-6.6-1.81zm13.26 3.39l.11-.49.11-.49c2.18.49 4.41.95 6.68 1.38l-.09.49-.1.5c-2.28-.44-4.52-.9-6.71-1.39zm13.47 2.59l.08-.49.08-.5c2.22.37 4.48.72 6.78 1.04l-.07.5-.07.49c-2.31-.32-4.57-.67-6.8-1.04zm13.61 1.93l.06-.49.06-.5c2.22.27 4.48.52 6.77.75l-.05.49-.05.5c-2.3-.23-4.56-.48-6.79-.75zm13.62 1.37l.04-.49.04-.5c2.26.18 4.54.35 6.85.5l-.03.5-.03.5c-2.32-.15-4.61-.32-6.87-.51zm13.7.89l.03-.5.02-.5c2.25.11 4.53.21 6.83.28l-.02.5-.01.5c-2.31-.07-4.59-.17-6.85-.28zm13.72.46l.01-.5.01-.5c2.26.04 4.54.07 6.84.08v.5l-.01.5c-2.3-.01-4.58-.04-6.85-.08zm13.7.07v-1c2.27-.01 4.56-.05 6.87-.09l.01.49.01.5c-2.31.05-4.61.09-6.89.1zm13.73-.28l-.02-.5-.02-.5c2.27-.07 4.55-.16 6.85-.26l.02.5.02.5c-2.3.1-4.58.19-6.85.26zm13.72-.61l-.03-.5-.03-.5c1.06-.06 2.12-.12 3.18-.19.05-2.99 2.49-5.4 5.5-5.4 2.74 0 5.02 2.01 5.43 4.64 2.11-.17 4.24-.35 6.37-.54l.04.5.05.5c-2.14.19-4.27.37-6.39.54-.07 2.97-2.51 5.36-5.5 5.36-2.73 0-5-1.99-5.43-4.6-1.06.07-2.13.13-3.19.19zm27.34-2.13c2.27-.23 4.54-.46 6.83-.71l-.06-.5-.05-.5c-2.28.25-4.56.49-6.82.71l.05.5.05.5zm13.63-1.49l-.06-.5-.05-.5c2.26-.27 4.53-.55 6.81-.85l.07.5.06.5c-2.28.29-4.56.57-6.83.85zm13.61-1.77l-.07-.49-.07-.5c2.26-.31 4.52-.64 6.8-.98l.07.5.07.49c-2.27.34-4.54.67-6.8.98zm13.57-2.02l-.08-.49-.08-.5c2.25-.36 4.51-.72 6.77-1.11l.08.5.09.49c-2.27.38-4.53.75-6.78 1.11zM3554.5 3175c2.49 0 4.5-2.01 4.5-4.5s-2.01-4.5-4.5-4.5-4.5 2.01-4.5 4.5 2.01 4.5 4.5 4.5zm-75.5-139.5c0 2.49-2.01 4.5-4.5 4.5s-4.5-2.01-4.5-4.5 2.01-4.5 4.5-4.5 4.5 2.01 4.5 4.5z"
                  fill="#C3D3FE" fill-opacity=".6"/>
            <path fill-rule="evenodd" clip-rule="evenodd"
                  d="M3720.92 2914.3c.05-.31.08-.62.08-.94v-.08c1.22.36 2.41.77 3.57 1.23l-.18.47-.19.46c-1.07-.42-2.16-.8-3.28-1.14zm-10.57-2.88c-1.9-.13-3.85-.16-5.84-.1l.02.5.01.5c1.89-.05 3.74-.03 5.54.09.06-.34.15-.67.27-.99zM3681 3132.03l.4.3c.69-.91 1.37-1.82 2.06-2.73.68-.92 1.37-1.84 2.04-2.75l-.4-.3-.4-.3c-.68.92-1.36 1.83-2.04 2.75-.69.91-1.37 1.82-2.06 2.72l.4.31zm12.44-16.28c-1.3 1.86-2.61 3.73-3.94 5.59l-.41-.29-.4-.29c1.33-1.86 2.63-3.72 3.92-5.58l.41.28.42.29zm3.42-5.92l.42.28c1.27-1.89 2.52-3.79 3.75-5.68l-.42-.27-.42-.28c-1.23 1.89-2.48 3.78-3.74 5.67l.41.28zm7.42-11.43l.42.27c1.22-1.94 2.41-3.88 3.58-5.81l-.43-.26-.43-.26a337.19 337.19 0 0 1-3.57 5.8l.43.26zm7.05-11.65l.43.25c1.15-1.98 2.28-3.95 3.39-5.92l-.44-.24-.44-.25c-1.1 1.97-2.22 3.93-3.37 5.9l.43.26zm6.67-11.89l.44.23c1.09-2.01 2.15-4.02 3.18-6.03l-.44-.23-.44-.23c-1.04 2-2.1 4.01-3.18 6.02l.44.24zm6.25-12.1l.45.22c1.01-2.05 2-4.1 2.96-6.14l-.45-.21-.45-.22c-.96 2.04-1.95 4.08-2.96 6.13l.45.22zm5.81-12.33l.45.2c.94-2.09 1.85-4.18 2.73-6.26l-.46-.19-.46-.2c-.88 2.07-1.79 4.15-2.72 6.24l.46.21zm5.3-12.55l.47.19c.84-2.13 1.66-4.25 2.44-6.35l-.47-.18-.46-.17c-.78 2.1-1.6 4.21-2.44 6.33l.46.18zm4.75-12.75l.47.16c.75-2.18 1.47-4.34 2.15-6.48l-.48-.15-.48-.15c-.67 2.13-1.39 4.29-2.14 6.46l.48.16zm4.11-13l.48.14c.64-2.22 1.23-4.41 1.79-6.58l-.49-.13-.48-.12c-.55 2.16-1.15 4.35-1.78 6.56l.48.13zm3.36-13.19l.49.11c.49-2.26.94-4.49 1.35-6.69l-.49-.09-.49-.09c-.41 2.19-.86 4.41-1.35 6.65l.49.11zm2.44-13.38l.5.07c.33-2.29.6-4.55.82-6.77l-.5-.05-.5-.05c-.21 2.21-.48 4.45-.81 6.73l.49.07zm1.31-13.53l.5.03c.11-2.32.15-4.6.13-6.82l-.5.01h-.5c.02 2.2-.02 4.46-.13 6.76l.5.02zm-.17-13.55l.5-.04c-.19-2.33-.45-4.58-.8-6.76l-.5.07-.49.08c.35 2.16.61 4.39.79 6.69l.5-.04zm-2.18-13.37l.48-.13c-.59-2.26-1.28-4.42-2.08-6.49l-.46.19-.47.18c.78 2.02 1.47 4.15 2.04 6.37l.49-.12zm-4.91-12.55l.44-.24a43.043 43.043 0 0 0-3.75-5.69l-.4.31-.39.31c1.34 1.72 2.57 3.57 3.66 5.55l.44-.24zm-8.29-10.54l.33-.37c-.84-.76-1.72-1.48-2.63-2.17-.92-.68-1.86-1.32-2.82-1.92l-.27.43-.26.42c.94.59 1.86 1.21 2.75 1.88.89.66 1.74 1.37 2.57 2.1l.33-.37zm-38.02-9.65l-.06-.5c-2.2.28-4.44.66-6.72 1.13l.1.49.11.49c2.25-.47 4.47-.84 6.63-1.12l-.06-.49zm-13.26 2.74l-.13-.48c-2.14.6-4.31 1.28-6.51 2.04l.17.47.16.48c2.18-.76 4.33-1.43 6.45-2.03l-.14-.48zm-12.84 4.41l-.18-.46c-2.07.83-4.16 1.73-6.27 2.69l.2.46.21.45c2.1-.95 4.17-1.84 6.23-2.67l-.19-.47zm-12.38 5.63l-.22-.45c-2 1.01-4.01 2.07-6.04 3.18l.24.44.25.44c2.01-1.11 4.01-2.16 6-3.16l-.23-.45zm-11.92 6.55l-.26-.43a207.79 207.79 0 0 0-5.82 3.57l.27.42.27.42c1.94-1.23 3.87-2.41 5.79-3.55l-.25-.43zm-11.51 7.28l-.28-.41c-1.87 1.25-3.74 2.55-5.62 3.88l.29.41.29.41c1.87-1.33 3.74-2.62 5.6-3.87l-.28-.42zm-11.12 7.9l-.3-.4c-1.8 1.34-3.6 2.72-5.4 4.13l.3.4.31.39c1.8-1.41 3.6-2.78 5.39-4.12l-.3-.4zm-10.71 8.38l-.31-.39c-1.75 1.43-3.49 2.89-5.24 4.38l.32.38.33.38c1.74-1.49 3.48-2.94 5.22-4.36l-.32-.39zm-10.37 8.84l-.34-.37c-1.68 1.5-3.37 3.02-5.06 4.58l.34.36.34.37c1.68-1.55 3.36-3.07 5.05-4.56l-.33-.38zm-10.02 9.23l-.34-.37a363.19 363.19 0 0 0-4.9 4.76l.36.35.35.36c1.62-1.61 3.25-3.19 4.88-4.74l-.35-.36zm-9.7 9.58l-.35-.35c-1.58 1.62-3.16 3.26-4.73 4.92l.36.34.37.35c1.57-1.66 3.14-3.3 4.71-4.91l-.36-.35zm-9.35 9.89l-.37-.33c-1.53 1.67-3.05 3.36-4.57 5.07l.37.33.38.33c1.51-1.71 3.03-3.39 4.56-5.06l-.37-.34zm-9.05 10.21l-.38-.33c-1.47 1.72-2.94 3.45-4.4 5.2l.38.32.39.32c1.45-1.75 2.92-3.47 4.39-5.18l-.38-.33zm-8.72 10.46l-.39-.31c-1.42 1.76-2.84 3.54-4.26 5.34l.4.31.39.31c1.41-1.8 2.83-3.58 4.25-5.34l-.39-.31zm-10.87 13.16c.69-.92 1.38-1.83 2.07-2.74l.39.31.4.3c-.69.9-1.37 1.81-2.06 2.73-.68.91-1.36 1.82-2.03 2.74l-.41-.3-.4-.29c.68-.92 1.36-1.84 2.04-2.75zm-5.63 8.54l-.41-.29c-1.33 1.87-2.64 3.73-3.93 5.59l.41.29.41.28c1.29-1.86 2.6-3.72 3.92-5.57l-.4-.3zm-7.77 11.22l-.42-.28c-1.27 1.9-2.52 3.79-3.74 5.68l.41.28.42.27c1.23-1.89 2.48-3.78 3.74-5.67l-.41-.28zm-7.41 11.43l-.43-.27c-1.21 1.94-2.41 3.88-3.58 5.82l.43.26.43.25c1.17-1.93 2.36-3.86 3.57-5.79l-.42-.27zm-7.06 11.66l-.43-.26c-1.15 1.98-2.28 3.95-3.38 5.92l.43.25.44.24c1.1-1.96 2.23-3.93 3.38-5.9l-.44-.25zm-6.67 11.89l-.44-.24c-1.08 2.01-2.15 4.03-3.18 6.03l.44.23.45.23c1.03-2 2.09-4.01 3.17-6.02l-.44-.23zm-6.25 12.09l-.44-.22c-1.02 2.05-2.01 4.1-2.97 6.14l.45.22.45.21c.96-2.04 1.95-4.08 2.96-6.13l-.45-.22zm-5.8 12.34l-.46-.21c-.94 2.1-1.85 4.18-2.72 6.26l.46.19.46.2c.87-2.07 1.78-4.15 2.71-6.24l-.45-.2zm-5.31 12.54l-.46-.19c-.85 2.13-1.67 4.25-2.45 6.36l.47.17.47.17c.78-2.09 1.59-4.2 2.44-6.33l-.47-.18zm-4.74 12.75l-.48-.16c-.75 2.18-1.47 4.34-2.14 6.49l.47.15.48.15c.68-2.14 1.39-4.29 2.14-6.46l-.47-.17zm-4.12 13l-.48-.14c-.63 2.22-1.23 4.41-1.78 6.59l.48.12.49.12c.55-2.16 1.14-4.35 1.77-6.55l-.48-.14zm-3.36 13.19l-.48-.11c-.5 2.26-.95 4.49-1.36 6.69l.5.09.49.09c.4-2.19.85-4.41 1.34-6.65l-.49-.11zm-2.44 13.38l-.5-.07c-.33 2.29-.6 4.55-.82 6.77l.5.05.5.05c.22-2.2.49-4.45.81-6.73l-.49-.07zm-1.31 13.53l-.5-.02c-.11 2.32-.15 4.59-.13 6.81h.5l.5-.01c-.02-2.2.02-4.45.13-6.76l-.5-.02zm.17 13.56l-.5.04c.19 2.32.45 4.57.8 6.76l.5-.08.49-.08c-.34-2.16-.61-4.39-.79-6.68l-.5.04zm2.18 13.36l-.48.13c.59 2.26 1.28 4.42 2.08 6.49l.47-.18.46-.18a60.25 60.25 0 0 1-2.04-6.38l-.49.12zm4.91 12.55l-.44.24c1.13 2.03 2.38 3.93 3.76 5.69l.39-.31.39-.3a43.767 43.767 0 0 1-3.66-5.56l-.44.24zm10.59 13.08c-.91-.69-1.79-1.41-2.63-2.17l.33-.37.34-.37c.82.74 1.67 1.44 2.56 2.11.89.66 1.81 1.29 2.75 1.87l-.26.42-.26.43c-.97-.6-1.91-1.24-2.83-1.92zm9.09 4.51l-.18.46c2.08.83 4.26 1.49 6.52 2l.11-.49.1-.49c-2.21-.49-4.33-1.14-6.36-1.95l-.19.47zm13.11 2.98l-.04.5c2.21.18 4.48.24 6.81.17l-.02-.5-.01-.5c-2.3.07-4.53.01-6.7-.17l-.04.5zm13.52-.37l.07.49c2.19-.28 4.43-.65 6.71-1.13l-.1-.49-.11-.49c-2.25.47-4.46.85-6.63 1.12l.06.5zm13.26-2.75l.13.48c2.14-.6 4.31-1.28 6.51-2.04l-.17-.47-.16-.47c-2.18.75-4.33 1.42-6.45 2.02l.14.48zm12.84-4.41l.19.46c2.06-.83 4.16-1.73 6.26-2.69l-.2-.45-.21-.46c-2.1.96-4.17 1.85-6.23 2.67l.19.47zm12.38-5.63l.22.45c2-1.01 4.01-2.07 6.04-3.18l-.24-.44-.24-.44a206.7 206.7 0 0 1-6.01 3.17l.23.44zm11.93-6.55l.25.43c1.93-1.14 3.87-2.33 5.82-3.56l-.27-.42-.27-.43c-1.94 1.23-3.87 2.42-5.79 3.55l.26.43zm17.4-10.75c-1.88 1.33-3.75 2.63-5.62 3.88l-.28-.41-.27-.42c1.86-1.25 3.72-2.54 5.59-3.87l.29.41.29.41zm10.93-8.16c-1.81 1.41-3.61 2.79-5.41 4.14l-.3-.4-.3-.4c1.79-1.34 3.59-2.72 5.39-4.13l.31.4.31.39zm10.55-8.63c-1.74 1.49-3.49 2.94-5.23 4.37l-.32-.39-.32-.38c1.74-1.43 3.48-2.88 5.22-4.36l.33.38.32.38zm4.83-4.86l.33.37c1.69-1.49 3.37-3.02 5.06-4.57l-.34-.37-.34-.37c-1.68 1.55-3.36 3.07-5.05 4.56l.34.38zm10.01-9.22l.35.36c1.63-1.56 3.26-3.15 4.89-4.76l-.35-.35-.36-.36c-1.62 1.61-3.25 3.19-4.87 4.75l.34.36zm9.7-9.59l.36.35c1.57-1.62 3.15-3.25 4.72-4.92l-.36-.34-.37-.34a440.84 440.84 0 0 1-4.71 4.9l.36.35zm9.35-9.89l.37.34c1.53-1.67 3.05-3.36 4.57-5.08l-.37-.33-.38-.33c-1.51 1.71-3.03 3.4-4.56 5.06l.37.34zm9.05-10.21l.38.33c1.48-1.71 2.94-3.45 4.4-5.2l-.38-.32-.39-.32c-1.45 1.75-2.92 3.48-4.38 5.19l.37.32zm8.72-10.46l.39.32c1.43-1.77 2.85-3.55 4.26-5.35l-.4-.31-.39-.31c-1.41 1.8-2.82 3.58-4.25 5.34l.39.31z"
                  fill="#C3D3FE" fill-opacity=".6"/>
            <circle cx="3715.5" cy="2913.5" r="4.5" stroke="#C3D3FE" stroke-opacity=".6" stroke-width="2"/>
        </g>
        <g opacity=".8">
            <circle cx="2115" cy="6677" r="17" fill="#C3D3FE" fill-opacity=".6"/>
            <circle cx="2057.5" cy="6676.5" r="8.5" fill="#C3D3FE" fill-opacity=".6"/>
            <circle cx="2172.5" cy="6676.5" r="8.5" fill="#C3D3FE" fill-opacity=".6"/>
            <circle cx="2198.5" cy="6676.5" r="5.5" fill="#C3D3FE" fill-opacity=".6"/>
            <circle cx="2307.5" cy="6743.36" r="5.5" fill="#C3D3FE" fill-opacity=".6"/>
            <circle cx="2331.5" cy="6577.36" r="5.5" fill="#C3D3FE" fill-opacity=".6"/>
            <circle cx="2031.5" cy="6676.5" r="5.5" fill="#C3D3FE" fill-opacity=".6"/>
            <circle cx="2115" cy="6677" r="35.5" stroke="#C3D3FE" stroke-opacity=".6" stroke-width="3"/>
            <path d="M2205.17 6705.44c-12.61 39.34-34.08 71.71-58.59 92.25-24.52 20.54-52 29.19-76.68 21.29-24.67-7.91-42-30.93-50.01-61.89-8.01-30.96-6.67-69.78 5.94-109.13 12.6-39.34 34.08-71.71 58.59-92.24 24.52-20.54 52-29.2 76.68-21.29 24.67 7.91 42 30.93 50.01 61.89 8.01 30.95 6.67 69.78-5.94 109.12z" stroke="#C3D3FE" stroke-opacity=".6"/>
            <path d="M2161.89 6758.06c-58.63 33.86-116.99 55.32-163.93 62.67-23.47 3.68-44.07 3.82-60.4.24-16.33-3.59-28.35-10.88-34.79-22.04-6.44-11.15-6.75-25.21-1.69-41.15 5.07-15.93 15.48-33.69 30.4-52.18 29.84-36.98 77.61-76.79 136.24-110.64 58.63-33.85 116.99-55.31 163.93-62.67 23.47-3.67 44.07-3.81 60.4-.23s28.35 10.88 34.79 22.03c6.44 11.16 6.75 25.22 1.69 41.15-5.07 15.94-15.48 33.7-30.4 52.19-29.84 36.98-77.61 76.78-136.24 110.63z" stroke="#C3D3FE" stroke-opacity=".6"/>
            <path d="M2106.34 6748.62c-67.21-8.27-127.07-23.67-169.5-41.85-21.22-9.1-38.06-18.88-49.29-28.79-11.24-9.94-16.75-19.92-15.58-29.42 1.17-9.51 8.94-17.85 22.25-24.76 13.3-6.9 32.01-12.3 54.8-15.98 45.58-7.35 107.38-7.76 174.59.52 67.21 8.27 127.06 23.66 169.5 41.85 21.22 9.09 38.06 18.87 49.28 28.79 11.24 9.93 16.76 19.91 15.59 29.42-1.17 9.5-8.94 17.85-22.26 24.76-13.29 6.89-32 12.3-54.8 15.97-45.58 7.35-107.38 7.77-174.58-.51z" stroke="#C3D3FE" stroke-opacity=".6"/>
            <path fill-rule="evenodd" clip-rule="evenodd"
                  d="M2127.56 6761.9l-.08-.49-.09-.49c1.13-.2 2.25-.41 3.38-.62 1.13-.2 2.26-.41 3.39-.62l.09.49.09.49c-1.13.21-2.25.42-3.39.63-1.13.21-2.26.41-3.39.61zm13.51-2.53l-.09-.49-.1-.5c2.25-.44 4.49-.89 6.72-1.35l.1.49.1.49c-2.23.46-4.47.91-6.73 1.36zm13.43-2.78l-.1-.49-.11-.49c2.25-.49 4.48-.98 6.7-1.49l.11.49.11.49c-2.22.5-4.46 1-6.71 1.49zm13.38-3.04l-.12-.49-.11-.48c2.23-.53 4.46-1.07 6.67-1.62l.12.49.12.48c-2.21.55-4.44 1.09-6.68 1.62zm13.32-3.3l-.12-.48-.13-.49c2.23-.57 4.44-1.15 6.63-1.74l.13.48.13.48c-2.2.59-4.41 1.18-6.64 1.75zm13.26-3.56l-.13-.49-.14-.48c2.21-.62 4.4-1.24 6.57-1.88l.14.48.14.48c-2.18.64-4.37 1.27-6.58 1.89zm13.18-3.85l-.15-.47-.14-.48c2.19-.67 4.36-1.34 6.52-2.02l.15.48.15.47c-2.16.68-4.34 1.36-6.53 2.02zm13.08-4.12l-.16-.48-.16-.47c2.19-.72 4.35-1.44 6.5-2.18l.16.48.16.47c-2.15.73-4.32 1.46-6.5 2.18zm12.96-4.43l-.17-.47-.16-.47c2.17-.77 4.33-1.55 6.46-2.34l.17.47.18.47c-2.14.79-4.3 1.57-6.48 2.34zm12.89-4.76l-.18-.46-.18-.47c2.14-.82 4.27-1.66 6.36-2.5l.19.47.18.46c-2.1.84-4.22 1.68-6.37 2.5zm12.74-5.1l-.19-.46-.19-.46c2.12-.89 4.22-1.78 6.29-2.68l.2.46.2.46c-2.08.9-4.18 1.79-6.31 2.68zm12.56-5.46l-.21-.46-.2-.45c2.11-.96 4.18-1.92 6.23-2.89l.21.45.22.45c-2.05.97-4.14 1.94-6.25 2.9zm12.41-5.9c2.07-1.03 4.1-2.06 6.1-3.1l-.24-.44-.23-.45a380.05 380.05 0 0 1-6.07 3.1l.22.44.22.45zm12.15-6.34l-.24-.44-.24-.44c2.03-1.12 4.02-2.24 5.97-3.37l.25.43.25.44a297.85 297.85 0 0 1-5.99 3.38zm11.88-6.9c1.98-1.22 3.91-2.44 5.79-3.67l-.27-.42-.28-.42c-1.87 1.22-3.79 2.44-5.76 3.66l.26.42.26.43zm11.46-7.51l-.29-.41-.28-.41c1.9-1.33 3.73-2.67 5.5-4.01l.3.4.31.4c-1.79 1.35-3.63 2.69-5.54 4.03zm10.91-8.27l-.31-.39-.32-.38c1.8-1.49 3.52-2.97 5.15-4.46l.34.37.33.37c-1.64 1.5-3.37 2.99-5.19 4.49zm10.14-9.26l-.36-.35-.36-.35c1.64-1.67 3.17-3.35 4.58-5.02l.39.32.38.32c-1.43 1.7-2.98 3.39-4.63 5.08zm8.83-10.51l-.41-.29-.41-.29a58 58 0 0 0 3.57-5.71l.44.24.43.24a56.872 56.872 0 0 1-3.62 5.81zm6.46-12.03l-.47-.18-.47-.17c.79-2.17 1.37-4.32 1.72-6.45l.49.09.49.08c-.36 2.19-.95 4.4-1.76 6.63zm2.13-13.46l-.5.03-.5.03c-.07-1.1-.2-2.19-.4-3.28-.2-1.09-.46-2.16-.79-3.22l.48-.15.48-.14c.33 1.09.61 2.2.81 3.33.21 1.13.35 2.26.42 3.4zm-3.99-12.99l-.43.25-.43.25a35.947 35.947 0 0 0-3.89-5.42l.38-.33.38-.32c1.54 1.79 2.88 3.65 3.99 5.57zm-8.85-10.39l-.32.38-.33.38a59.608 59.608 0 0 0-5.35-4.09l.28-.41.28-.42c1.96 1.34 3.78 2.72 5.44 4.16zm-11.3-7.75l-.24.44-.24.44a92.85 92.85 0 0 0-6.07-3.09l.21-.45.22-.45c2.14 1 4.19 2.03 6.12 3.11zm-12.44-5.82l-.18.46-.18.47c-2.06-.81-4.19-1.6-6.4-2.35l.16-.47.16-.47c2.23.75 4.37 1.54 6.44 2.36zm-12.97-4.43l-.14.48-.14.48c-2.13-.63-4.32-1.23-6.57-1.8l.12-.48.13-.49c2.26.58 4.46 1.18 6.6 1.81zm-13.26-3.39l-.11.49-.11.48c-2.18-.48-4.41-.94-6.68-1.37l.09-.5.09-.49c2.29.44 4.53.9 6.72 1.39zm-13.47-2.59l-.08.49-.09.49c-2.22-.36-4.47-.71-6.77-1.04l.07-.49.07-.5c2.3.33 4.57.68 6.8 1.05zm-13.61-1.94l-.06.5-.06.5c-2.23-.27-4.48-.52-6.77-.75l.05-.5.05-.49c2.29.23 4.56.48 6.79.74zm-13.63-1.36l-.04.49-.04.5c-2.25-.18-4.54-.35-6.85-.5l.04-.5.03-.5c2.31.15 4.6.32 6.86.51zm-13.7-.89l-.02.5-.02.5c-2.26-.11-4.53-.21-6.83-.28l.01-.5.02-.5c2.3.07 4.59.17 6.84.28zm-13.72-.46l-.01.5-.01.5c-2.25-.05-4.53-.07-6.83-.08v-1c2.31.01 4.59.03 6.85.08zm-13.7-.07l.01.5v.5c-2.27.01-4.56.05-6.87.09l-.01-.5-.01-.5c2.31-.04 4.6-.08 6.88-.09zm-13.72.28l.02.5.01.5c-2.26.07-4.54.16-6.84.26l-.02-.5-.03-.5c2.31-.1 4.59-.19 6.86-.26zm-13.72.61l.03.5.02.5c-2.25.12-4.53.26-6.81.42l-.04-.5-.03-.5c2.29-.15 4.57-.29 6.83-.42zm-13.69.92l.04.5.04.5c-2.26.17-4.53.36-6.81.56l-.05-.49-.04-.5c2.28-.2 4.56-.39 6.82-.57zm-13.65 1.21l.05.5.05.5c-2.27.22-4.54.46-6.82.71l-.06-.5-.05-.5c2.28-.25 4.56-.48 6.83-.71zm-13.64 1.49l.06.5.06.5c-2.26.27-4.54.55-6.82.85l-.06-.5-.07-.5c2.29-.29 4.57-.58 6.83-.85zm-13.6 1.77l.07.49.06.5c-2.25.31-4.52.64-6.79.98l-.07-.5-.08-.49c2.28-.34 4.55-.67 6.81-.98zm-13.57 2.02l.07.49.08.5c-2.25.35-4.5.72-6.77 1.1l-.08-.49-.08-.49c2.26-.38 4.52-.75 6.78-1.11zm-13.54 2.28c-1.13.2-2.26.4-3.39.61-1.13.21-2.26.42-3.38.63l.09.49.09.49 3.38-.63c1.13-.2 2.26-.41 3.39-.61l-.09-.49-.09-.49zm-13.51 2.53l.1.49.1.49c-2.25.45-4.49.9-6.73 1.36l-.1-.49-.1-.49c2.24-.46 4.48-.91 6.73-1.36zm-13.43 2.78l.11.49.11.49c-2.25.49-4.48.98-6.71 1.49l-.11-.49-.11-.49c2.23-.5 4.47-1 6.71-1.49zm-13.37 3.04l.12.48.11.49c-2.24.53-4.46 1.07-6.68 1.62l-.12-.49-.12-.48c2.22-.55 4.45-1.09 6.69-1.62zm-13.33 3.3l.13.48.12.49c-2.22.57-4.43 1.15-6.63 1.74l-.13-.48-.13-.48c2.2-.6 4.42-1.18 6.64-1.75zm-13.25 3.56l.13.48.14.49c-2.21.61-4.4 1.24-6.58 1.87l-.14-.48-.14-.48c2.18-.63 4.38-1.26 6.59-1.88zm-13.18 3.84l.15.48.14.48c-2.19.67-4.37 1.34-6.52 2.02l-.15-.48-.15-.47c2.16-.69 4.34-1.36 6.53-2.03zm-13.08 4.13l.16.48.15.47c-2.18.72-4.35 1.44-6.49 2.18l-.16-.48-.17-.47a708.2 708.2 0 0 1 6.51-2.18zm-12.97 4.43c-2.17.77-4.33 1.55-6.47 2.34l.17.47.18.47c2.13-.79 4.28-1.57 6.46-2.34l-.17-.47-.17-.47zm-12.88 4.75l.18.47.18.47c-2.03.78-4.03 1.56-6.01 2.35a6.24 6.24 0 0 0-.35-.94c1.98-.79 3.98-1.57 6-2.35zm-16.17 7.64c-.83.35-1.66.71-2.48 1.07l-.2-.46-.2-.46c.88-.38 1.75-.76 2.64-1.14a5.497 5.497 0 0 1 5.44-6.3c3.04 0 5.5 2.46 5.5 5.5s-2.46 5.5-5.5 5.5c-2.41 0-4.46-1.55-5.2-3.71zm-9.14 2.93l.21.46.21.45c-2.11.96-4.19 1.92-6.23 2.89l-.21-.45-.22-.45c2.05-.97 4.13-1.94 6.24-2.9zm-12.41 5.9l.22.44.23.45c-2.06 1.03-4.09 2.06-6.08 3.1l-.23-.45-.23-.44c1.99-1.04 4.03-2.08 6.09-3.1zm-12.14 6.34l.24.44.24.44c-2.03 1.12-4.02 2.24-5.97 3.37l-.25-.43-.25-.44c1.95-1.13 3.95-2.26 5.99-3.38zm-11.89 6.9l.27.43.26.42c-1.97 1.22-3.9 2.43-5.77 3.66l-.27-.42-.27-.42c1.87-1.23 3.8-2.45 5.78-3.67zm-11.45 7.51l.28.41.29.41c-1.9 1.33-3.74 2.67-5.51 4.01l-.3-.4-.3-.4a185 185 0 0 1 5.54-4.03zm-10.92 8.27l.32.39.32.38c-1.8 1.49-3.52 2.97-5.15 4.46l-.34-.37-.34-.37c1.65-1.5 3.38-3 5.19-4.49zm-10.13 9.26l.36.34.35.35c-1.63 1.68-3.16 3.36-4.58 5.03l-.38-.32-.38-.32c1.43-1.7 2.97-3.39 4.63-5.08zm-8.84 10.51l.41.29.41.28a59.918 59.918 0 0 0-3.56 5.72l-.44-.24-.44-.24c1.05-1.93 2.26-3.87 3.62-5.81zm-6.45 12.03l.47.18.47.17c-.8 2.17-1.37 4.32-1.72 6.44l-.49-.08-.5-.08c.36-2.19.95-4.4 1.77-6.63zm-2.13 13.46l.5-.03.5-.03c.06 1.1.2 2.19.4 3.28.2 1.09.46 2.16.79 3.22l-.48.15-.48.14c-.34-1.09-.61-2.2-.82-3.33-.2-1.13-.34-2.26-.41-3.4zm3.98 12.99l.44-.25.43-.25c1.08 1.86 2.38 3.67 3.89 5.42l-.38.33-.38.32a36.944 36.944 0 0 1-4-5.57zm8.85 10.39l.33-.38.33-.38c1.63 1.41 3.42 2.77 5.35 4.09l-.28.41-.28.41a61.307 61.307 0 0 1-5.45-4.15zm11.3 7.75l.25-.44.24-.44a92.55 92.55 0 0 0 6.06 3.09l-.21.45-.21.45c-2.15-1-4.19-2.04-6.13-3.11zm12.44 5.82l.19-.47.18-.46c2.06.81 4.19 1.59 6.39 2.34l-.16.48-.16.47c-2.22-.75-4.37-1.54-6.44-2.36zm12.98 4.43l.14-.48.14-.48c2.13.62 4.32 1.22 6.57 1.8l-.13.48-.12.49c-2.26-.58-4.46-1.18-6.6-1.81zm13.26 3.39l.11-.49.11-.49c2.18.49 4.41.95 6.68 1.38l-.09.49-.1.5c-2.28-.44-4.52-.9-6.71-1.39zm13.47 2.59l.08-.49.08-.5c2.22.37 4.48.72 6.78 1.04l-.07.5-.07.49c-2.31-.32-4.57-.67-6.8-1.04zm13.61 1.93l.06-.49.06-.5c2.22.27 4.48.52 6.77.75l-.05.49-.05.5c-2.3-.23-4.56-.48-6.79-.75zm13.62 1.37l.04-.49.04-.5c2.26.18 4.54.35 6.85.5l-.03.5-.03.5c-2.32-.15-4.61-.32-6.87-.51zm13.7.89l.03-.5.02-.5c2.25.11 4.53.21 6.83.28l-.02.5-.01.5c-2.31-.07-4.59-.17-6.85-.28zm13.72.46l.01-.5.01-.5c2.26.04 4.54.07 6.84.08v.5l-.01.5c-2.3-.01-4.58-.04-6.85-.08zm13.7.07v-1c2.27-.01 4.56-.05 6.87-.09l.01.49.01.5c-2.31.05-4.61.09-6.89.1zm13.73-.28l-.02-.5-.02-.5c2.27-.07 4.55-.16 6.85-.26l.02.5.02.5c-2.3.1-4.58.19-6.85.26zm13.72-.61l-.03-.5-.03-.5c1.06-.06 2.12-.12 3.18-.19.05-2.99 2.49-5.4 5.5-5.4 2.74 0 5.02 2.01 5.43 4.64 2.11-.17 4.24-.35 6.37-.54l.04.5.05.5c-2.14.19-4.27.37-6.39.54-.07 2.97-2.51 5.36-5.5 5.36-2.73 0-5-1.99-5.43-4.6-1.06.07-2.13.13-3.19.19zm27.34-2.13c2.27-.23 4.54-.46 6.83-.71l-.06-.5-.05-.5c-2.28.25-4.56.49-6.82.71l.05.5.05.5zm13.63-1.49l-.06-.5-.05-.5c2.26-.27 4.53-.55 6.81-.85l.07.5.06.5c-2.28.29-4.56.57-6.83.85zm13.61-1.77l-.07-.49-.07-.5c2.26-.31 4.52-.64 6.8-.98l.07.5.07.49c-2.27.34-4.54.67-6.8.98zm13.57-2.02l-.08-.49-.08-.5c2.25-.36 4.51-.72 6.77-1.11l.08.5.09.49c-2.27.38-4.53.75-6.78 1.11zM2054.5 6775c2.49 0 4.5-2.01 4.5-4.5s-2.01-4.5-4.5-4.5-4.5 2.01-4.5 4.5 2.01 4.5 4.5 4.5zm-75.5-139.5c0 2.49-2.01 4.5-4.5 4.5s-4.5-2.01-4.5-4.5 2.01-4.5 4.5-4.5 4.5 2.01 4.5 4.5z"
                  fill="#C3D3FE" fill-opacity=".6"/>
            <path fill-rule="evenodd" clip-rule="evenodd"
                  d="M2220.92 6514.3c.05-.31.08-.62.08-.94v-.08c1.22.36 2.41.77 3.57 1.23l-.18.47-.19.46c-1.07-.42-2.16-.8-3.28-1.14zm-10.57-2.88c-1.9-.13-3.85-.16-5.84-.1l.02.5.01.5c1.89-.05 3.74-.03 5.54.09.06-.34.15-.67.27-.99zM2181 6732.03l.4.3c.69-.91 1.37-1.82 2.06-2.73.68-.92 1.37-1.84 2.04-2.75l-.4-.3-.4-.3c-.68.92-1.36 1.83-2.04 2.75-.69.91-1.37 1.82-2.06 2.72l.4.31zm12.44-16.28c-1.3 1.86-2.61 3.73-3.94 5.59l-.41-.29-.4-.29c1.33-1.86 2.63-3.72 3.92-5.58l.41.28.42.29zm3.42-5.92l.42.28c1.27-1.89 2.52-3.79 3.75-5.68l-.42-.27-.42-.28c-1.23 1.89-2.48 3.78-3.74 5.67l.41.28zm7.42-11.43l.42.27c1.22-1.94 2.41-3.88 3.58-5.81l-.43-.26-.43-.26a337.19 337.19 0 0 1-3.57 5.8l.43.26zm7.05-11.65l.43.25c1.15-1.98 2.28-3.95 3.39-5.92l-.44-.24-.44-.25c-1.1 1.97-2.22 3.93-3.37 5.9l.43.26zm6.67-11.89l.44.23c1.09-2.01 2.15-4.02 3.18-6.03l-.44-.23-.44-.23c-1.04 2-2.1 4.01-3.18 6.02l.44.24zm6.25-12.1l.45.22c1.01-2.05 2-4.1 2.96-6.14l-.45-.21-.45-.22c-.96 2.04-1.95 4.08-2.96 6.13l.45.22zm5.81-12.33l.45.2c.94-2.09 1.85-4.18 2.73-6.26l-.46-.19-.46-.2c-.88 2.07-1.79 4.15-2.72 6.24l.46.21zm5.3-12.55l.47.19c.84-2.13 1.66-4.25 2.44-6.35l-.47-.18-.46-.17c-.78 2.1-1.6 4.21-2.44 6.33l.46.18zm4.75-12.75l.47.16c.75-2.18 1.47-4.34 2.15-6.48l-.48-.15-.48-.15c-.67 2.13-1.39 4.29-2.14 6.46l.48.16zm4.11-13l.48.14c.64-2.22 1.23-4.41 1.79-6.58l-.49-.13-.48-.12c-.55 2.16-1.15 4.35-1.78 6.56l.48.13zm3.36-13.19l.49.11c.49-2.26.94-4.49 1.35-6.69l-.49-.09-.49-.09c-.41 2.19-.86 4.41-1.35 6.65l.49.11zm2.44-13.38l.5.07c.33-2.29.6-4.55.82-6.77l-.5-.05-.5-.05c-.21 2.21-.48 4.45-.81 6.73l.49.07zm1.31-13.53l.5.03c.11-2.32.15-4.6.13-6.82l-.5.01h-.5c.02 2.2-.02 4.46-.13 6.76l.5.02zm-.17-13.55l.5-.04c-.19-2.33-.45-4.58-.8-6.76l-.5.07-.49.08c.35 2.16.61 4.39.79 6.69l.5-.04zm-2.18-13.37l.48-.13c-.59-2.26-1.28-4.42-2.08-6.49l-.46.19-.47.18c.78 2.02 1.47 4.15 2.04 6.37l.49-.12zm-4.91-12.55l.44-.24a43.043 43.043 0 0 0-3.75-5.69l-.4.31-.39.31c1.34 1.72 2.57 3.57 3.66 5.55l.44-.24zm-8.29-10.54l.33-.37c-.84-.76-1.72-1.48-2.63-2.17-.92-.68-1.86-1.32-2.82-1.92l-.27.43-.26.42c.94.59 1.86 1.21 2.75 1.88.89.66 1.74 1.37 2.57 2.1l.33-.37zm-38.02-9.65l-.06-.5c-2.2.28-4.44.66-6.72 1.13l.1.49.11.49c2.25-.47 4.47-.84 6.63-1.12l-.06-.49zm-13.26 2.74l-.13-.48c-2.14.6-4.31 1.28-6.51 2.04l.17.47.16.48c2.18-.76 4.33-1.43 6.45-2.03l-.14-.48zm-12.84 4.41l-.18-.46c-2.07.83-4.16 1.73-6.27 2.69l.2.46.21.45c2.1-.95 4.17-1.84 6.23-2.67l-.19-.47zm-12.38 5.63l-.22-.45c-2 1.01-4.01 2.07-6.04 3.18l.24.44.25.44c2.01-1.11 4.01-2.16 6-3.16l-.23-.45zm-11.92 6.55l-.26-.43a207.79 207.79 0 0 0-5.82 3.57l.27.42.27.42c1.94-1.23 3.87-2.41 5.79-3.55l-.25-.43zm-11.51 7.28l-.28-.41c-1.87 1.25-3.74 2.55-5.62 3.88l.29.41.29.41c1.87-1.33 3.74-2.62 5.6-3.87l-.28-.42zm-11.12 7.9l-.3-.4c-1.8 1.34-3.6 2.72-5.4 4.13l.3.4.31.39c1.8-1.41 3.6-2.78 5.39-4.12l-.3-.4zm-10.71 8.38l-.31-.39c-1.75 1.43-3.49 2.89-5.24 4.38l.32.38.33.38c1.74-1.49 3.48-2.94 5.22-4.36l-.32-.39zm-10.37 8.84l-.34-.37c-1.68 1.5-3.37 3.02-5.06 4.58l.34.36.34.37c1.68-1.55 3.36-3.07 5.05-4.56l-.33-.38zm-10.02 9.23l-.34-.37a363.19 363.19 0 0 0-4.9 4.76l.36.35.35.36c1.62-1.61 3.25-3.19 4.88-4.74l-.35-.36zm-9.7 9.58l-.35-.35c-1.58 1.62-3.16 3.26-4.73 4.92l.36.34.37.35c1.57-1.66 3.14-3.3 4.71-4.91l-.36-.35zm-9.35 9.89l-.37-.33c-1.53 1.67-3.05 3.36-4.57 5.07l.37.33.38.33c1.51-1.71 3.03-3.39 4.56-5.06l-.37-.34zm-9.05 10.21l-.38-.33c-1.47 1.72-2.94 3.45-4.4 5.2l.38.32.39.32c1.45-1.75 2.92-3.47 4.39-5.18l-.38-.33zm-8.72 10.46l-.39-.31c-1.42 1.76-2.84 3.54-4.26 5.34l.4.31.39.31c1.41-1.8 2.83-3.58 4.25-5.34l-.39-.31zm-10.87 13.16c.69-.92 1.38-1.83 2.07-2.74l.39.31.4.3c-.69.9-1.37 1.81-2.06 2.73-.68.91-1.36 1.82-2.03 2.74l-.41-.3-.4-.29c.68-.92 1.36-1.84 2.04-2.75zm-5.63 8.54l-.41-.29c-1.33 1.87-2.64 3.73-3.93 5.59l.41.29.41.28c1.29-1.86 2.6-3.72 3.92-5.57l-.4-.3zm-7.77 11.22l-.42-.28c-1.27 1.9-2.52 3.79-3.74 5.68l.41.28.42.27c1.23-1.89 2.48-3.78 3.74-5.67l-.41-.28zm-7.41 11.43l-.43-.27c-1.21 1.94-2.41 3.88-3.58 5.82l.43.26.43.25c1.17-1.93 2.36-3.86 3.57-5.79l-.42-.27zm-7.06 11.66l-.43-.26c-1.15 1.98-2.28 3.95-3.38 5.92l.43.25.44.24c1.1-1.96 2.23-3.93 3.38-5.9l-.44-.25zm-6.67 11.89l-.44-.24c-1.08 2.01-2.15 4.03-3.18 6.03l.44.23.45.23c1.03-2 2.09-4.01 3.17-6.02l-.44-.23zm-6.25 12.09l-.44-.22c-1.02 2.05-2.01 4.1-2.97 6.14l.45.22.45.21c.96-2.04 1.95-4.08 2.96-6.13l-.45-.22zm-5.8 12.34l-.46-.21c-.94 2.1-1.85 4.18-2.72 6.26l.46.19.46.2c.87-2.07 1.78-4.15 2.71-6.24l-.45-.2zm-5.31 12.54l-.46-.19c-.85 2.13-1.67 4.25-2.45 6.36l.47.17.47.17c.78-2.09 1.59-4.2 2.44-6.33l-.47-.18zm-4.74 12.75l-.48-.16c-.75 2.18-1.47 4.34-2.14 6.49l.47.15.48.15c.68-2.14 1.39-4.29 2.14-6.46l-.47-.17zm-4.12 13l-.48-.14c-.63 2.22-1.23 4.41-1.78 6.59l.48.12.49.12c.55-2.16 1.14-4.35 1.77-6.55l-.48-.14zm-3.36 13.19l-.48-.11c-.5 2.26-.95 4.49-1.36 6.69l.5.09.49.09c.4-2.19.85-4.41 1.34-6.65l-.49-.11zm-2.44 13.38l-.5-.07c-.33 2.29-.6 4.55-.82 6.77l.5.05.5.05c.22-2.2.49-4.45.81-6.73l-.49-.07zm-1.31 13.53l-.5-.02c-.11 2.32-.15 4.59-.13 6.81h.5l.5-.01c-.02-2.2.02-4.45.13-6.76l-.5-.02zm.17 13.56l-.5.04c.19 2.32.45 4.57.8 6.76l.5-.08.49-.08c-.34-2.16-.61-4.39-.79-6.68l-.5.04zm2.18 13.36l-.48.13c.59 2.26 1.28 4.42 2.08 6.49l.47-.18.46-.18a60.25 60.25 0 0 1-2.04-6.38l-.49.12zm4.91 12.55l-.44.24c1.13 2.03 2.38 3.93 3.76 5.69l.39-.31.39-.3a43.767 43.767 0 0 1-3.66-5.56l-.44.24zm10.59 13.08c-.91-.69-1.79-1.41-2.63-2.17l.33-.37.34-.37c.82.74 1.67 1.44 2.56 2.11.89.66 1.81 1.29 2.75 1.87l-.26.42-.26.43c-.97-.6-1.91-1.24-2.83-1.92zm9.09 4.51l-.18.46c2.08.83 4.26 1.49 6.52 2l.11-.49.1-.49c-2.21-.49-4.33-1.14-6.36-1.95l-.19.47zm13.11 2.98l-.04.5c2.21.18 4.48.24 6.81.17l-.02-.5-.01-.5c-2.3.07-4.53.01-6.7-.17l-.04.5zm13.52-.37l.07.49c2.19-.28 4.43-.65 6.71-1.13l-.1-.49-.11-.49c-2.25.47-4.46.85-6.63 1.12l.06.5zm13.26-2.75l.13.48c2.14-.6 4.31-1.28 6.51-2.04l-.17-.47-.16-.47c-2.18.75-4.33 1.42-6.45 2.02l.14.48zm12.84-4.41l.19.46c2.06-.83 4.16-1.73 6.26-2.69l-.2-.45-.21-.46c-2.1.96-4.17 1.85-6.23 2.67l.19.47zm12.38-5.63l.22.45c2-1.01 4.01-2.07 6.04-3.18l-.24-.44-.24-.44a206.7 206.7 0 0 1-6.01 3.17l.23.44zm11.93-6.55l.25.43c1.93-1.14 3.87-2.33 5.82-3.56l-.27-.42-.27-.43c-1.94 1.23-3.87 2.42-5.79 3.55l.26.43zm17.4-10.75c-1.88 1.33-3.75 2.63-5.62 3.88l-.28-.41-.27-.42c1.86-1.25 3.72-2.54 5.59-3.87l.29.41.29.41zm10.93-8.16c-1.81 1.41-3.61 2.79-5.41 4.14l-.3-.4-.3-.4c1.79-1.34 3.59-2.72 5.39-4.13l.31.4.31.39zm10.55-8.63c-1.74 1.49-3.49 2.94-5.23 4.37l-.32-.39-.32-.38c1.74-1.43 3.48-2.88 5.22-4.36l.33.38.32.38zm4.83-4.86l.33.37c1.69-1.49 3.37-3.02 5.06-4.57l-.34-.37-.34-.37c-1.68 1.55-3.36 3.07-5.05 4.56l.34.38zm10.01-9.22l.35.36c1.63-1.56 3.26-3.15 4.89-4.76l-.35-.35-.36-.36c-1.62 1.61-3.25 3.19-4.87 4.75l.34.36zm9.7-9.59l.36.35c1.57-1.62 3.15-3.25 4.72-4.92l-.36-.34-.37-.34a440.84 440.84 0 0 1-4.71 4.9l.36.35zm9.35-9.89l.37.34c1.53-1.67 3.05-3.36 4.57-5.08l-.37-.33-.38-.33c-1.51 1.71-3.03 3.4-4.56 5.06l.37.34zm9.05-10.21l.38.33c1.48-1.71 2.94-3.45 4.4-5.2l-.38-.32-.39-.32c-1.45 1.75-2.92 3.48-4.38 5.19l.37.32zm8.72-10.46l.39.32c1.43-1.77 2.85-3.55 4.26-5.35l-.4-.31-.39-.31c-1.41 1.8-2.82 3.58-4.25 5.34l.39.31z"
                  fill="#C3D3FE" fill-opacity=".6"/>
            <circle cx="2215.5" cy="6513.5" r="4.5" stroke="#C3D3FE" stroke-opacity=".6" stroke-width="2"/>
        </g>
    </g>
    <defs>
        <filter id="filter0_f_229_1689" x="661" y="1386" width="2144" height="2144" filterUnits="userSpaceOnUse" color-interpolation-filters="sRGB">
            <feFlood flood-opacity="0" result="BackgroundImageFix"/>
            <feBlend in="SourceGraphic" in2="BackgroundImageFix" result="shape"/>
            <feGaussianBlur stdDeviation="400" result="effect1_foregroundBlur_229_1689"/>
        </filter>
        <filter id="filter1_f_229_1689" x="726" y="4399" width="1744" height="1744" filterUnits="userSpaceOnUse" color-interpolation-filters="sRGB">
            <feFlood flood-opacity="0" result="BackgroundImageFix"/>
            <feBlend in="SourceGraphic" in2="BackgroundImageFix" result="shape"/>
            <feGaussianBlur stdDeviation="300" result="effect1_foregroundBlur_229_1689"/>
        </filter>
        <filter id="filter2_f_229_1689" x="1987" y="6396" width="1669" height="1669" filterUnits="userSpaceOnUse" color-interpolation-filters="sRGB">
            <feFlood flood-opacity="0" result="BackgroundImageFix"/>
            <feBlend in="SourceGraphic" in2="BackgroundImageFix" result="shape"/>
            <feGaussianBlur stdDeviation="300" result="effect1_foregroundBlur_229_1689"/>
        </filter>
        <filter id="filter3_f_229_1689" x="795" y="-287" width="1936" height="1936" filterUnits="userSpaceOnUse" color-interpolation-filters="sRGB">
            <feFlood flood-opacity="0" result="BackgroundImageFix"/>
            <feBlend in="SourceGraphic" in2="BackgroundImageFix" result="shape"/>
            <feGaussianBlur stdDeviation="400" result="effect1_foregroundBlur_229_1689"/>
        </filter>
        <filter id="filter4_f_229_1689" x="2587" y="1022" width="2544" height="2544" filterUnits="userSpaceOnUse" color-interpolation-filters="sRGB">
            <feFlood flood-opacity="0" result="BackgroundImageFix"/>
            <feBlend in="SourceGraphic" in2="BackgroundImageFix" result="shape"/>
            <feGaussianBlur stdDeviation="500" result="effect1_foregroundBlur_229_1689"/>
        </filter>
        <filter id="filter5_f_229_1689" x="2424" y="4289" width="2544" height="2544" filterUnits="userSpaceOnUse" color-interpolation-filters="sRGB">
            <feFlood flood-opacity="0" result="BackgroundImageFix"/>
            <feBlend in="SourceGraphic" in2="BackgroundImageFix" result="shape"/>
            <feGaussianBlur stdDeviation="500" result="effect1_foregroundBlur_229_1689"/>
        </filter>
        <clipPath id="clip0_229_1689">
            <path fill="#fff" d="M0 0H5644V8320H0z"/>
        </clipPath>
    </defs>
</svg>
