<svg width="5644" height="7230" viewBox="0 0 5644 7230" fill="none" xmlns="http://www.w3.org/2000/svg">
    <g clip-path="url(#clip0_229_1955)">
        <circle cx="1232" cy="3177" r="648" fill="#8E8FFA" filter="url(#filter0_f_229_1955)"/>
        <circle cx="4042" cy="5074" r="425" fill="#8E8FFA" filter="url(#filter1_f_229_1955)"/>
        <circle cx="1541" cy="909" r="343" fill="#8E8FFA" filter="url(#filter2_f_229_1955)"/>
        <g opacity=".65" filter="url(#filter3_f_229_1955)">
            <circle cx="1948.45" cy="746.948" r="15.717" fill="#C2D9FF"/>
            <circle cx="1948.45" cy="746.948" r="15.217" stroke="#C3D3FE" stroke-opacity=".6"/>
            <circle cx="1956.3" cy="846.492" r="5.239" fill="#C2D9FF"/>
            <circle cx="1956.3" cy="846.492" r="4.739" stroke="#C3D3FE" stroke-opacity=".6"/>
            <circle cx="1948.45" cy="746.948" r="30.935" stroke="#C3D3FE" stroke-opacity=".6"/>
            <circle cx="1948.45" cy="746.949" r="101.664" stroke="#C3D3FE" stroke-opacity=".6"/>
            <circle cx="1948.45" cy="746.949" r="57.131" stroke="#C3D3FE" stroke-opacity=".6" stroke-linejoin="round" stroke-dasharray="2 3"/>
            <path fill="#C2D9FF" d="M2008.7 665.741H2021.798V678.8389999999999H2008.7z"/>
            <path stroke="#C3D3FE" stroke-opacity=".6" d="M2009.2 666.241H2021.298V678.3389999999999H2009.2z"/>
            <circle cx="2141.58" cy="366.832" r="7.859" fill="#C2D9FF"/>
            <circle cx="2141.58" cy="366.832" r="7.359" stroke="#C3D3FE" stroke-opacity=".6"/>
            <circle cx="2362.34" cy="615.97" r="7.859" fill="#C2D9FF"/>
            <circle cx="2362.34" cy="615.97" r="7.359" stroke="#C3D3FE" stroke-opacity=".6"/>
            <circle cx="1838.43" cy="914.602" r="7.859" fill="#C2D9FF"/>
            <circle cx="1838.43" cy="914.602" r="7.359" stroke="#C3D3FE" stroke-opacity=".6"/>
            <circle cx="2055.95" cy="583.167" r="5.239" fill="#C2D9FF"/>
            <circle cx="2055.95" cy="583.167" r="4.739" stroke="#C3D3FE" stroke-opacity=".6"/>
            <path d="M2271.57 728.62c61.53 75.535 94.61 162.328 98.37 241.575 3.75 79.245-21.81 150.915-77.51 196.285-55.7 45.37-131.05 55.91-207.9 36.21-76.85-19.71-155.16-69.65-216.69-145.19-61.53-75.536-94.61-162.329-98.37-241.576-3.75-79.247 21.81-150.913 77.51-196.285 55.7-45.373 131.05-55.912 207.9-36.207 76.85 19.706 155.16 69.652 216.69 145.188z" stroke="#C3D3FE" stroke-opacity=".6"/>
            <path fill-rule="evenodd" clip-rule="evenodd"
                  d="M2103.73 828.39c25.85-55.383 41.19-124.441 41.19-199.323 0-182.291-90.9-330.067-203.02-330.067s-203.02 147.776-203.02 330.067 90.9 330.067 203.02 330.067c54.15 0 103.35-34.469 139.75-90.648a22.847 22.847 0 0 0 9.69 2.142c12.67 0 22.94-10.268 22.94-22.935 0-8.102-4.2-15.223-10.55-19.303zm-.86-.526c25.75-55.216 41.05-124.087 41.05-198.797 0-90.991-22.69-173.32-59.32-232.869-36.63-59.565-87.12-96.198-142.7-96.198-55.58 0-106.07 36.633-142.7 96.198-36.63 59.549-59.32 141.878-59.32 232.869 0 90.991 22.69 173.32 59.32 232.869 36.63 59.565 87.12 96.198 142.7 96.198 53.66 0 102.56-34.14 138.85-90.094-7.34-3.826-12.34-11.502-12.34-20.347 0-12.667 10.26-22.935 22.93-22.935 4.21 0 8.15 1.131 11.53 3.106zm10.41 19.829c0 12.114-9.82 21.935-21.94 21.935-12.11 0-21.93-9.821-21.93-21.935 0-12.115 9.82-21.935 21.93-21.935 12.12 0 21.94 9.82 21.94 21.935z"
                  fill="#C3D3FE" fill-opacity=".6"/>
            <path d="M2380.18 728.611c0 215.303-169.85 389.819-379.34 389.819-209.49 0-379.34-174.516-379.34-389.819 0-215.303 169.85-389.817 379.34-389.817 209.49 0 379.34 174.514 379.34 389.817z" stroke="#C3D3FE" stroke-opacity=".6"/>
            <circle cx="1869.37" cy="521.367" r="13.908" stroke="#C3D3FE" stroke-opacity=".6"/>
            <path fill-rule="evenodd" clip-rule="evenodd"
                  d="M2203.59 968.256c-22.75 3.668-46.32 5.596-70.46 5.596-192.83 0-348.72-122.91-348.72-274.056 0-63.683 27.68-122.354 74.13-168.931-.22-.252-.44-.513-.64-.781-46.66 46.745-74.49 105.673-74.49 169.712 0 151.909 156.58 275.056 349.72 275.056 24.2 0 47.83-1.934 70.64-5.615 1.19 5.259 5.89 9.187 11.5 9.187 6.51 0 11.79-5.278 11.79-11.788 0-6.511-5.28-11.788-11.79-11.788-6.51 0-11.79 5.277-11.79 11.788 0 .549.04 1.09.11 1.62zm-70.46-542.516c-99.84 0-189.78 32.951-253.3 85.712-.24-.243-.47-.479-.72-.705 63.74-52.965 153.97-86.007 254.02-86.007 193.14 0 349.71 123.147 349.71 275.056 0 126.327-108.28 232.764-255.82 265.03-.03-.335-.07-.667-.12-.993 147.17-32.209 254.94-138.362 254.94-264.037 0-151.146-155.89-274.056-348.71-274.056zm92.93 540.896c0 5.958-4.83 10.788-10.79 10.788-5.96 0-10.79-4.83-10.79-10.788s4.83-10.788 10.79-10.788c5.96 0 10.79 4.83 10.79 10.788z"
                  fill="#C3D3FE" fill-opacity=".6"/>
        </g>
        <g opacity=".65" filter="url(#filter4_f_229_1955)">
            <circle cx="3740.55" cy="3607.68" r="15.717" transform="rotate(-180 3740.55 3607.68)" fill="#C2D9FF"/>
            <circle cx="3740.55" cy="3607.68" r="15.217" transform="rotate(-180 3740.55 3607.68)" stroke="#C3D3FE" stroke-opacity=".6"/>
            <circle cx="3732.7" cy="3508.13" r="5.239" transform="rotate(-180 3732.7 3508.13)" fill="#C2D9FF"/>
            <circle cx="3732.7" cy="3508.13" r="4.739" transform="rotate(-180 3732.7 3508.13)" stroke="#C3D3FE" stroke-opacity=".6"/>
            <circle cx="3740.56" cy="3607.68" r="30.935" transform="rotate(-180 3740.56 3607.68)" stroke="#C3D3FE" stroke-opacity=".6"/>
            <circle cx="3740.55" cy="3607.68" r="101.664" transform="rotate(-180 3740.55 3607.68)" stroke="#C3D3FE" stroke-opacity=".6"/>
            <circle cx="3740.56" cy="3607.68" r="57.131" transform="rotate(-180 3740.56 3607.68)" stroke="#C3D3FE" stroke-opacity=".6" stroke-linejoin="round" stroke-dasharray="2 3"/>
            <path transform="rotate(-180 3680.3 3688.88)" fill="#C2D9FF" d="M3680.3 3688.88H3693.398V3701.978H3680.3z"/>
            <path transform="rotate(-180 3679.8 3688.38)" stroke="#C3D3FE" stroke-opacity=".6" d="M3679.8 3688.38H3691.898V3700.478H3679.8z"/>
            <circle cx="3547.42" cy="3987.79" r="7.859" transform="rotate(-180 3547.42 3987.79)" fill="#C2D9FF"/>
            <circle cx="3547.42" cy="3987.79" r="7.359" transform="rotate(-180 3547.42 3987.79)" stroke="#C3D3FE" stroke-opacity=".6"/>
            <circle cx="3326.66" cy="3738.65" r="7.859" transform="rotate(-180 3326.66 3738.65)" fill="#C2D9FF"/>
            <circle cx="3326.66" cy="3738.65" r="7.359" transform="rotate(-180 3326.66 3738.65)" stroke="#C3D3FE" stroke-opacity=".6"/>
            <circle cx="3850.58" cy="3440.02" r="7.859" transform="rotate(-180 3850.58 3440.02)" fill="#C2D9FF"/>
            <circle cx="3850.58" cy="3440.02" r="7.359" transform="rotate(-180 3850.58 3440.02)" stroke="#C3D3FE" stroke-opacity=".6"/>
            <circle cx="3633.05" cy="3771.46" r="5.239" transform="rotate(-180 3633.05 3771.46)" fill="#C2D9FF"/>
            <circle cx="3633.05" cy="3771.46" r="4.739" transform="rotate(-180 3633.05 3771.46)" stroke="#C3D3FE" stroke-opacity=".6"/>
            <path d="M3417.43 3626c-61.53-75.53-94.61-162.32-98.36-241.57-3.76-79.25 21.8-150.91 77.5-196.29 55.7-45.37 131.05-55.91 207.9-36.2 76.85 19.7 155.16 69.65 216.7 145.18 61.53 75.54 94.6 162.33 98.36 241.58 3.76 79.25-21.81 150.91-77.51 196.29-55.69 45.37-131.05 55.91-207.9 36.2-76.85-19.7-155.16-69.65-216.69-145.19z" stroke="#C3D3FE" stroke-opacity=".6"/>
            <path fill-rule="evenodd" clip-rule="evenodd"
                  d="M3585.27 3526.23c-25.85 55.39-41.19 124.44-41.19 199.33 0 182.29 90.9 330.06 203.02 330.06 112.13 0 203.02-147.77 203.02-330.06s-90.89-330.07-203.02-330.07c-54.15 0-103.35 34.47-139.75 90.65a22.756 22.756 0 0 0-9.69-2.14c-12.67 0-22.93 10.26-22.93 22.93 0 8.1 4.2 15.22 10.54 19.3zm.86.53c-25.75 55.22-41.05 124.09-41.05 198.8 0 90.99 22.69 173.32 59.32 232.87 36.64 59.56 87.12 96.19 142.7 96.19 55.59 0 106.07-36.63 142.7-96.19 36.63-59.55 59.32-141.88 59.32-232.87 0-90.99-22.69-173.32-59.31-232.87-36.64-59.57-87.12-96.2-142.71-96.2-53.66 0-102.56 34.14-138.85 90.09 7.34 3.83 12.35 11.51 12.35 20.35 0 12.67-10.27 22.94-22.94 22.94-4.2 0-8.14-1.14-11.53-3.11zm-10.4-19.83c0-12.11 9.82-21.93 21.93-21.93s21.94 9.82 21.94 21.93c0 12.12-9.83 21.94-21.94 21.94-12.11 0-21.93-9.82-21.93-21.94z"
                  fill="#C3D3FE" fill-opacity=".6"/>
            <path d="M3308.82 3626.01c0-215.3 169.85-389.81 379.34-389.81 209.49 0 379.34 174.51 379.34 389.81 0 215.31-169.85 389.82-379.34 389.82-209.49 0-379.34-174.51-379.34-389.82z" stroke="#C3D3FE" stroke-opacity=".6"/>
            <circle cx="3819.63" cy="3833.26" r="13.908" transform="rotate(-180 3819.63 3833.26)" stroke="#C3D3FE" stroke-opacity=".6"/>
            <path fill-rule="evenodd" clip-rule="evenodd"
                  d="M3485.41 3386.37c22.75-3.67 46.32-5.6 70.46-5.6 192.83 0 348.72 122.91 348.72 274.06 0 63.68-27.68 122.35-74.13 168.93.23.25.44.51.64.78 46.66-46.75 74.49-105.67 74.49-169.71 0-151.91-156.57-275.06-349.72-275.06-24.2 0-47.82 1.94-70.64 5.62-1.18-5.26-5.88-9.19-11.5-9.19-6.51 0-11.79 5.28-11.79 11.79 0 6.51 5.28 11.79 11.79 11.79 6.51 0 11.79-5.28 11.79-11.79 0-.55-.04-1.09-.11-1.62zm70.46 542.51c99.85 0 189.78-32.95 253.31-85.71.23.25.47.48.71.71-63.74 52.96-153.97 86-254.02 86-193.14 0-349.71-123.14-349.71-275.05 0-126.33 108.28-232.77 255.82-265.03.03.33.07.66.12.99-147.17 32.21-254.94 138.36-254.94 264.04 0 151.14 155.89 274.05 348.71 274.05zm-92.93-540.89c0-5.96 4.83-10.79 10.79-10.79 5.96 0 10.79 4.83 10.79 10.79 0 5.96-4.83 10.79-10.79 10.79-5.96 0-10.79-4.83-10.79-10.79z"
                  fill="#C3D3FE" fill-opacity=".6"/>
        </g>
        <circle cx="3929" cy="1313" r="272" fill="#8E8FFA" filter="url(#filter5_f_229_1955)"/>
        <circle cx="2025" cy="6279" r="272" fill="#8E8FFA" filter="url(#filter6_f_229_1955)"/>
        <g opacity=".8" filter="url(#filter7_f_229_1955)">
            <circle cx="3534.56" cy="1757.83" r="4.877" transform="rotate(15 3534.56 1757.83)" fill="#C3D3FE"/>
            <circle cx="3534.56" cy="1757.83" r="3.877" transform="rotate(15 3534.56 1757.83)" stroke="#C3D3FE" stroke-opacity=".6" stroke-width="2"/>
            <circle cx="3623.37" cy="1765.55" r="3.877" transform="rotate(15 3623.37 1765.55)" stroke="#C3D3FE" stroke-opacity=".6" stroke-width="2"/>
            <circle cx="3450.66" cy="1668.22" r="1.89" transform="rotate(15 3450.66 1668.22)" stroke="#C3D3FE" stroke-opacity=".6" stroke-width="2"/>
            <circle cx="3602.8" cy="1727.87" r="4.877" transform="rotate(15 3602.8 1727.87)" fill="#C3D3FE"/>
            <circle cx="3602.8" cy="1727.87" r="3.877" transform="rotate(15 3602.8 1727.87)" stroke="#C3D3FE" stroke-opacity=".6" stroke-width="2"/>
            <circle cx="3419.1" cy="1630.4" r="4.877" transform="rotate(15 3419.1 1630.4)" fill="#C3D3FE"/>
            <circle cx="3419.1" cy="1630.4" r="3.877" transform="rotate(15 3419.1 1630.4)" stroke="#C3D3FE" stroke-opacity=".6" stroke-width="2"/>
            <circle cx="3631.32" cy="1506.99" r="4.877" transform="rotate(15 3631.32 1506.99)" fill="#C3D3FE"/>
            <circle cx="3631.32" cy="1506.99" r="3.877" transform="rotate(15 3631.32 1506.99)" stroke="#C3D3FE" stroke-opacity=".6" stroke-width="2"/>
            <circle cx="3652.48" cy="1535.48" r="3.071" transform="rotate(15 3652.48 1535.48)" fill="#C3D3FE"/>
            <circle cx="3652.48" cy="1535.48" r="2.071" transform="rotate(15 3652.48 1535.48)" stroke="#C3D3FE" stroke-opacity=".6" stroke-width="2"/>
            <circle cx="3722.62" cy="1489.38" r="4.335" transform="rotate(15 3722.62 1489.38)" fill="#C3D3FE"/>
            <circle cx="3722.62" cy="1489.38" r="3.335" transform="rotate(15 3722.62 1489.38)" stroke="#C3D3FE" stroke-opacity=".6" stroke-width="2"/>
            <circle cx="3818.04" cy="1542.25" r="4.335" transform="rotate(15 3818.04 1542.25)" fill="#C3D3FE"/>
            <circle cx="3818.04" cy="1542.25" r="3.335" transform="rotate(15 3818.04 1542.25)" stroke="#C3D3FE" stroke-opacity=".6" stroke-width="2"/>
            <circle cx="3808.18" cy="1654.43" r="4.335" transform="rotate(15 3808.18 1654.43)" fill="#C3D3FE"/>
            <circle cx="3808.18" cy="1654.43" r="3.335" transform="rotate(15 3808.18 1654.43)" stroke="#C3D3FE" stroke-opacity=".6" stroke-width="2"/>
            <circle cx="3873.84" cy="1585.25" r="4.335" transform="rotate(15 3873.84 1585.25)" fill="#C3D3FE"/>
            <circle cx="3873.84" cy="1585.25" r="3.335" transform="rotate(15 3873.84 1585.25)" stroke="#C3D3FE" stroke-opacity=".6" stroke-width="2"/>
            <circle cx="3866.62" cy="1436.33" r="4.335" transform="rotate(15 3866.62 1436.33)" fill="#C3D3FE"/>
            <circle cx="3866.62" cy="1436.33" r="3.335" transform="rotate(15 3866.62 1436.33)" stroke="#C3D3FE" stroke-opacity=".6" stroke-width="2"/>
            <circle cx="3616.43" cy="1430.63" r="4.335" transform="rotate(15 3616.43 1430.63)" fill="#C3D3FE"/>
            <circle cx="3616.43" cy="1430.63" r="3.335" transform="rotate(15 3616.43 1430.63)" stroke="#C3D3FE" stroke-opacity=".6" stroke-width="2"/>
            <circle cx="3640.49" cy="1417.63" r="3.251" transform="rotate(15 3640.49 1417.63)" fill="#C3D3FE"/>
            <circle cx="3640.49" cy="1417.63" r="2.251" transform="rotate(15 3640.49 1417.63)" stroke="#C3D3FE" stroke-opacity=".6" stroke-width="2"/>
            <circle cx="3578.73" cy="1374.53" r="5.419" transform="rotate(15 3578.73 1374.53)" fill="#C3D3FE"/>
            <circle cx="3578.73" cy="1374.53" r="4.419" transform="rotate(15 3578.73 1374.53)" stroke="#C3D3FE" stroke-opacity=".6" stroke-width="2"/>
            <circle cx="3555.25" cy="1360.94" r="3.432" transform="rotate(15 3555.25 1360.94)" fill="#C3D3FE"/>
            <circle cx="3555.25" cy="1360.94" r="2.432" transform="rotate(15 3555.25 1360.94)" stroke="#C3D3FE" stroke-opacity=".6" stroke-width="2"/>
            <circle cx="3473.3" cy="1698.22" r="3.974" transform="rotate(15 3473.3 1698.22)" fill="#C3D3FE"/>
            <circle cx="3473.3" cy="1698.22" r="2.974" transform="rotate(15 3473.3 1698.22)" stroke="#C3D3FE" stroke-opacity=".6" stroke-width="2"/>
            <path d="M3555.25 1360.94l22.17 13.61 38.27 56.07 24.23-12.96 29.83 8m0 0l-38.08 81.42m38.08-81.42l53.39 63.86m-91.47 17.56l21.35 27.79 70.12-45.35m-91.47 17.56l-130.96-31.91-81.79 155.18 30.6 35.88m273.62-176.71l72.36 4.24m0 0l72.34-57.1m-72.34 57.1l22.28 48.05m0 0l55.86 42.08 86.27-30.93-142.13-11.15zm0 0l-28.79 86.53 23.09 28.26m-338.15 42.73l60.67 58.33m0 0l69.54-28.49m-69.54 28.49l84.29 8.56" stroke="#C3D3FE" stroke-opacity=".6" stroke-width="2"/>
            <path d="M3674.72 1416.33l-1.83 6.85 7.05-.72-6.13 3.55 5.5 4.48-6.85-1.82.71 7.05-3.55-6.13-4.48 5.49 1.82-6.85-7.05.72 6.14-3.56-5.5-4.47 6.85 1.82-.72-7.05 3.56 6.13 4.48-5.49z" fill="#C3D3FE"/>
            <path d="M3672.94 1423.67l4.74-.48-4.12 2.39-.62.36.56.46 3.69 3.01-4.6-1.23-.7-.18.07.72.48 4.74-2.39-4.12-.36-.63-.46.56-3.01 3.69 1.23-4.6.18-.7-.72.07-4.73.49 4.12-2.39.62-.37-.56-.45-3.69-3.01 4.6 1.22.7.19-.07-.72-.48-4.74 2.38 4.12.37.63.46-.56 3-3.7-1.22 4.61-.19.7.72-.08z" stroke="#C3D3FE" stroke-opacity=".6"/>
            <path d="M3505.64 1465.27l-1.83 6.85 7.05-.72-6.13 3.56 5.5 4.48-6.85-1.83.71 7.06-3.55-6.14-4.48 5.5 1.82-6.85-7.05.72 6.14-3.56-5.5-4.48 6.85 1.83-.72-7.05 3.56 6.13 4.48-5.5z" fill="#C3D3FE"/>
            <path d="M3503.86 1472.62l4.74-.48-4.12 2.39-.62.36.56.46 3.69 3.01-4.6-1.23-.7-.19.07.72.48 4.74-2.39-4.12-.36-.62-.46.56-3.01 3.69 1.23-4.6.18-.7-.72.07-4.73.48 4.12-2.39.62-.36-.56-.46-3.69-3.01 4.6 1.23.7.19-.07-.72-.48-4.74 2.38 4.12.37.62.45-.56 3.01-3.69-1.22 4.6-.19.7.72-.07z" stroke="#C3D3FE" stroke-opacity=".6"/>
            <path d="M3799.38 1486.38l-1.37 5.17 5.31-.54-4.62 2.68 4.14 3.38-5.16-1.38.54 5.32-2.68-4.62-3.38 4.14 1.37-5.16-5.32.54 4.63-2.68-4.14-3.38 5.16 1.37-.54-5.32 2.68 4.63 3.38-4.15z" fill="#C3D3FE"/>
            <path d="M3798.06 1492.05l3-.31-2.61 1.52-.63.36.56.46 2.35 1.91-2.93-.78-.69-.19.07.72.31 3.01-1.52-2.61-.36-.63-.46.56-1.91 2.34.78-2.92.18-.7-.72.08-3 .3 2.61-1.51.63-.36-.56-.46-2.35-1.91 2.92.78.7.18-.07-.72-.31-3.01 1.52 2.62.36.63.46-.57 1.91-2.34-.78 2.92-.18.7.72-.07z" stroke="#C3D3FE" stroke-opacity=".6"/>
            <path d="M3960.51 1545.27l-1.37 5.16 5.32-.54-4.63 2.68 4.14 3.38-5.16-1.37.54 5.32-2.68-4.63-3.38 4.15 1.37-5.17-5.31.54 4.62-2.68-4.14-3.38 5.16 1.38-.54-5.32 2.68 4.62 3.38-4.14z" fill="#C3D3FE"/>
            <path d="M3959.19 1550.93l3-.3-2.61 1.51-.63.36.56.46 2.35 1.91-2.92-.78-.7-.18.07.72.31 3.01-1.52-2.62-.36-.63-.46.56-1.91 2.35.78-2.92.18-.7-.72.07-3 .31 2.61-1.52.63-.36-.56-.46-2.35-1.91 2.93.78.69.18-.07-.72-.31-3 1.52 2.61.36.63.46-.56 1.91-2.34-.78 2.92-.18.7.72-.08z" stroke="#C3D3FE" stroke-opacity=".6"/>
            <path d="M3793.55 1619.09l-1.82 6.85 7.05-.72-6.13 3.56 5.49 4.48-6.85-1.83.72 7.06-3.55-6.14-4.48 5.5 1.82-6.85-7.05.72 6.13-3.56-5.49-4.48 6.85 1.83-.72-7.06 3.55 6.14 4.48-5.5z" fill="#C3D3FE"/>
            <path d="M3791.78 1626.44l4.74-.48-4.12 2.39-.63.36.56.46 3.69 3.01-4.6-1.23-.7-.19.08.72.48 4.74-2.39-4.12-.36-.62-.46.56-3.01 3.69 1.22-4.6.19-.7-.72.07-4.74.48 4.12-2.39.63-.36-.56-.46-3.69-3.01 4.6 1.23.7.19-.08-.72-.48-4.74 2.39 4.12.36.62.46-.56 3.01-3.69-1.22 4.6-.19.7.72-.07z" stroke="#C3D3FE" stroke-opacity=".6"/>
        </g>
        <g opacity=".8" filter="url(#filter8_f_229_1955)">
            <circle cx="2042" cy="5311" r="17" fill="#C3D3FE" fill-opacity=".6"/>
            <circle cx="1984.5" cy="5310.5" r="8.5" fill="#C3D3FE" fill-opacity=".6"/>
            <circle cx="2099.5" cy="5310.5" r="8.5" fill="#C3D3FE" fill-opacity=".6"/>
            <circle cx="2125.5" cy="5310.5" r="5.5" fill="#C3D3FE" fill-opacity=".6"/>
            <circle cx="2234.5" cy="5377.36" r="5.5" fill="#C3D3FE" fill-opacity=".6"/>
            <circle cx="2258.5" cy="5211.36" r="5.5" fill="#C3D3FE" fill-opacity=".6"/>
            <circle cx="1958.5" cy="5310.5" r="5.5" fill="#C3D3FE" fill-opacity=".6"/>
            <circle cx="2042" cy="5311" r="35.5" stroke="#C3D3FE" stroke-opacity=".6" stroke-width="3"/>
            <path d="M2132.17 5339.44c-12.61 39.34-34.08 71.71-58.59 92.25-24.52 20.54-52 29.19-76.68 21.29-24.67-7.91-42-30.93-50.01-61.89-8.01-30.96-6.67-69.78 5.94-109.13 12.6-39.34 34.08-71.71 58.59-92.24 24.52-20.54 52-29.2 76.68-21.29 24.67 7.91 42 30.93 50.01 61.89 8.01 30.95 6.67 69.78-5.94 109.12z" stroke="#C3D3FE" stroke-opacity=".6"/>
            <path d="M2088.89 5392.06c-58.63 33.86-116.99 55.32-163.93 62.67-23.47 3.68-44.07 3.82-60.4.24-16.33-3.59-28.35-10.88-34.79-22.04-6.44-11.15-6.75-25.21-1.69-41.15 5.07-15.93 15.48-33.69 30.4-52.18 29.84-36.98 77.61-76.79 136.24-110.64 58.63-33.85 116.99-55.31 163.93-62.67 23.47-3.67 44.07-3.81 60.4-.23s28.35 10.88 34.79 22.03c6.44 11.16 6.75 25.22 1.69 41.15-5.07 15.94-15.48 33.7-30.4 52.19-29.84 36.98-77.61 76.78-136.24 110.63z" stroke="#C3D3FE" stroke-opacity=".6"/>
            <path d="M2033.34 5382.62c-67.21-8.27-127.07-23.67-169.5-41.85-21.22-9.1-38.06-18.88-49.29-28.79-11.24-9.94-16.75-19.92-15.58-29.42 1.17-9.51 8.94-17.85 22.25-24.76 13.3-6.9 32.01-12.3 54.8-15.98 45.58-7.35 107.38-7.76 174.59.52 67.21 8.27 127.06 23.66 169.5 41.85 21.22 9.09 38.06 18.87 49.28 28.79 11.24 9.93 16.76 19.91 15.59 29.42-1.17 9.5-8.94 17.85-22.26 24.76-13.29 6.89-32 12.3-54.8 15.97-45.58 7.35-107.38 7.77-174.58-.51z" stroke="#C3D3FE" stroke-opacity=".6"/>
            <path fill-rule="evenodd" clip-rule="evenodd"
                  d="M2054.56 5395.9l-.08-.49-.09-.49c1.13-.2 2.25-.41 3.38-.62 1.13-.2 2.26-.41 3.39-.62l.09.49.09.49c-1.13.21-2.25.42-3.39.63-1.13.21-2.26.41-3.39.61zm13.51-2.53l-.09-.49-.1-.5c2.25-.44 4.49-.89 6.72-1.35l.1.49.1.49c-2.23.46-4.47.91-6.73 1.36zm13.43-2.78l-.1-.49-.11-.49c2.25-.49 4.48-.98 6.7-1.49l.11.49.11.49c-2.22.5-4.46 1-6.71 1.49zm13.38-3.04l-.12-.49-.11-.48c2.23-.53 4.46-1.07 6.67-1.62l.12.49.12.48c-2.21.55-4.44 1.09-6.68 1.62zm13.32-3.3l-.12-.48-.13-.49c2.23-.57 4.44-1.15 6.63-1.74l.13.48.13.48c-2.2.59-4.41 1.18-6.64 1.75zm13.26-3.56l-.13-.49-.14-.48c2.21-.62 4.4-1.24 6.57-1.88l.14.48.14.48c-2.18.64-4.37 1.27-6.58 1.89zm13.18-3.85l-.15-.47-.14-.48c2.19-.67 4.36-1.34 6.52-2.02l.15.48.15.47c-2.16.68-4.34 1.36-6.53 2.02zm13.08-4.12l-.16-.48-.16-.47c2.19-.72 4.35-1.44 6.5-2.18l.16.48.16.47c-2.15.73-4.32 1.46-6.5 2.18zm12.96-4.43l-.17-.47-.16-.47c2.17-.77 4.33-1.55 6.46-2.34l.17.47.18.47c-2.14.79-4.3 1.57-6.48 2.34zm12.89-4.76l-.18-.46-.18-.47c2.14-.82 4.27-1.66 6.36-2.5l.19.47.18.46c-2.1.84-4.22 1.68-6.37 2.5zm12.74-5.1l-.19-.46-.19-.46c2.12-.89 4.22-1.78 6.29-2.68l.2.46.2.46c-2.08.9-4.18 1.79-6.31 2.68zm12.56-5.46l-.21-.46-.2-.45c2.11-.96 4.18-1.92 6.23-2.89l.21.45.22.45c-2.05.97-4.14 1.94-6.25 2.9zm12.41-5.9c2.07-1.03 4.1-2.06 6.1-3.1l-.24-.44-.23-.45a380.05 380.05 0 0 1-6.07 3.1l.22.44.22.45zm12.15-6.34l-.24-.44-.24-.44c2.03-1.12 4.02-2.24 5.97-3.37l.25.43.25.44a297.85 297.85 0 0 1-5.99 3.38zm11.88-6.9c1.98-1.22 3.91-2.44 5.79-3.67l-.27-.42-.28-.42c-1.87 1.22-3.79 2.44-5.76 3.66l.26.42.26.43zm11.46-7.51l-.29-.41-.28-.41c1.9-1.33 3.73-2.67 5.5-4.01l.3.4.31.4c-1.79 1.35-3.63 2.69-5.54 4.03zm10.91-8.27l-.31-.39-.32-.38c1.8-1.49 3.52-2.97 5.15-4.46l.34.37.33.37c-1.64 1.5-3.37 2.99-5.19 4.49zm10.14-9.26l-.36-.35-.36-.35c1.64-1.67 3.17-3.35 4.58-5.02l.39.32.38.32c-1.43 1.7-2.98 3.39-4.63 5.08zm8.83-10.51l-.41-.29-.41-.29a58 58 0 0 0 3.57-5.71l.44.24.43.24a56.872 56.872 0 0 1-3.62 5.81zm6.46-12.03l-.47-.18-.47-.17c.79-2.17 1.37-4.32 1.72-6.45l.49.09.49.08c-.36 2.19-.95 4.4-1.76 6.63zm2.13-13.46l-.5.03-.5.03c-.07-1.1-.2-2.19-.4-3.28-.2-1.09-.46-2.16-.79-3.22l.48-.15.48-.14c.33 1.09.61 2.2.81 3.33.21 1.13.35 2.26.42 3.4zm-3.99-12.99l-.43.25-.43.25a35.947 35.947 0 0 0-3.89-5.42l.38-.33.38-.32c1.54 1.79 2.88 3.65 3.99 5.57zm-8.85-10.39l-.32.38-.33.38a59.608 59.608 0 0 0-5.35-4.09l.28-.41.28-.42c1.96 1.34 3.78 2.72 5.44 4.16zm-11.3-7.75l-.24.44-.24.44a92.85 92.85 0 0 0-6.07-3.09l.21-.45.22-.45c2.14 1 4.19 2.03 6.12 3.11zm-12.44-5.82l-.18.46-.18.47c-2.06-.81-4.19-1.6-6.4-2.35l.16-.47.16-.47c2.23.75 4.37 1.54 6.44 2.36zm-12.97-4.43l-.14.48-.14.48c-2.13-.63-4.32-1.23-6.57-1.8l.12-.48.13-.49c2.26.58 4.46 1.18 6.6 1.81zm-13.26-3.39l-.11.49-.11.48c-2.18-.48-4.41-.94-6.68-1.37l.09-.5.09-.49c2.29.44 4.53.9 6.72 1.39zm-13.47-2.59l-.08.49-.09.49c-2.22-.36-4.47-.71-6.77-1.04l.07-.49.07-.5c2.3.33 4.57.68 6.8 1.05zm-13.61-1.94l-.06.5-.06.5c-2.23-.27-4.48-.52-6.77-.75l.05-.5.05-.49c2.29.23 4.56.48 6.79.74zm-13.63-1.36l-.04.49-.04.5c-2.25-.18-4.54-.35-6.85-.5l.04-.5.03-.5c2.31.15 4.6.32 6.86.51zm-13.7-.89l-.02.5-.02.5c-2.26-.11-4.53-.21-6.83-.28l.01-.5.02-.5c2.3.07 4.59.17 6.84.28zm-13.72-.46l-.01.5-.01.5c-2.25-.05-4.53-.07-6.83-.08v-1c2.31.01 4.59.03 6.85.08zm-13.7-.07l.01.5v.5c-2.27.01-4.56.05-6.87.09l-.01-.5-.01-.5c2.31-.04 4.6-.08 6.88-.09zm-13.72.28l.02.5.01.5c-2.26.07-4.54.16-6.84.26l-.02-.5-.03-.5c2.31-.1 4.59-.19 6.86-.26zm-13.72.61l.03.5.02.5c-2.25.12-4.53.26-6.81.42l-.04-.5-.03-.5c2.29-.15 4.57-.29 6.83-.42zm-13.69.92l.04.5.04.5c-2.26.17-4.53.36-6.81.56l-.05-.49-.04-.5c2.28-.2 4.56-.39 6.82-.57zm-13.65 1.21l.05.5.05.5c-2.27.22-4.54.46-6.82.71l-.06-.5-.05-.5c2.28-.25 4.56-.48 6.83-.71zm-13.64 1.49l.06.5.06.5c-2.26.27-4.54.55-6.82.85l-.06-.5-.07-.5c2.29-.29 4.57-.58 6.83-.85zm-13.6 1.77l.07.49.06.5c-2.25.31-4.52.64-6.79.98l-.07-.5-.08-.49c2.28-.34 4.55-.67 6.81-.98zm-13.57 2.02l.07.49.08.5c-2.25.35-4.5.72-6.77 1.1l-.08-.49-.08-.49c2.26-.38 4.52-.75 6.78-1.11zm-13.54 2.28c-1.13.2-2.26.4-3.39.61-1.13.21-2.26.42-3.38.63l.09.49.09.49 3.38-.63c1.13-.2 2.26-.41 3.39-.61l-.09-.49-.09-.49zm-13.51 2.53l.1.49.1.49c-2.25.45-4.49.9-6.73 1.36l-.1-.49-.1-.49c2.24-.46 4.48-.91 6.73-1.36zm-13.43 2.78l.11.49.11.49c-2.25.49-4.48.98-6.71 1.49l-.11-.49-.11-.49c2.23-.5 4.47-1 6.71-1.49zm-13.37 3.04l.12.48.11.49c-2.24.53-4.46 1.07-6.68 1.62l-.12-.49-.12-.48c2.22-.55 4.45-1.09 6.69-1.62zm-13.33 3.3l.13.48.12.49c-2.22.57-4.43 1.15-6.63 1.74l-.13-.48-.13-.48c2.2-.6 4.42-1.18 6.64-1.75zm-13.25 3.56l.13.48.14.49c-2.21.61-4.4 1.24-6.58 1.87l-.14-.48-.14-.48c2.18-.63 4.38-1.26 6.59-1.88zm-13.18 3.84l.15.48.14.48c-2.19.67-4.37 1.34-6.52 2.02l-.15-.48-.15-.47c2.16-.69 4.34-1.36 6.53-2.03zm-13.08 4.13l.16.48.15.47c-2.18.72-4.35 1.44-6.49 2.18l-.16-.48-.17-.47a708.2 708.2 0 0 1 6.51-2.18zm-12.97 4.43c-2.17.77-4.33 1.55-6.47 2.34l.17.47.18.47c2.13-.79 4.28-1.57 6.46-2.34l-.17-.47-.17-.47zm-12.88 4.75l.18.47.18.47c-2.03.78-4.03 1.56-6.01 2.35a6.24 6.24 0 0 0-.35-.94c1.98-.79 3.98-1.57 6-2.35zm-16.17 7.64c-.83.35-1.66.71-2.48 1.07l-.2-.46-.2-.46c.88-.38 1.75-.76 2.64-1.14a5.497 5.497 0 0 1 5.44-6.3c3.04 0 5.5 2.46 5.5 5.5s-2.46 5.5-5.5 5.5c-2.41 0-4.46-1.55-5.2-3.71zm-9.14 2.93l.21.46.21.45c-2.11.96-4.19 1.92-6.23 2.89l-.21-.45-.22-.45c2.05-.97 4.13-1.94 6.24-2.9zm-12.41 5.9l.22.44.23.45c-2.06 1.03-4.09 2.06-6.08 3.1l-.23-.45-.23-.44c1.99-1.04 4.03-2.08 6.09-3.1zm-12.14 6.34l.24.44.24.44c-2.03 1.12-4.02 2.24-5.97 3.37l-.25-.43-.25-.44c1.95-1.13 3.95-2.26 5.99-3.38zm-11.89 6.9l.27.43.26.42c-1.97 1.22-3.9 2.43-5.77 3.66l-.27-.42-.27-.42c1.87-1.23 3.8-2.45 5.78-3.67zm-11.45 7.51l.28.41.29.41c-1.9 1.33-3.74 2.67-5.51 4.01l-.3-.4-.3-.4a185 185 0 0 1 5.54-4.03zm-10.92 8.27l.32.39.32.38c-1.8 1.49-3.52 2.97-5.15 4.46l-.34-.37-.34-.37c1.65-1.5 3.38-3 5.19-4.49zm-10.13 9.26l.36.34.35.35c-1.63 1.68-3.16 3.36-4.58 5.03l-.38-.32-.38-.32c1.43-1.7 2.97-3.39 4.63-5.08zm-8.84 10.51l.41.29.41.28a59.918 59.918 0 0 0-3.56 5.72l-.44-.24-.44-.24c1.05-1.93 2.26-3.87 3.62-5.81zm-6.45 12.03l.47.18.47.17c-.8 2.17-1.37 4.32-1.72 6.44l-.49-.08-.5-.08c.36-2.19.95-4.4 1.77-6.63zm-2.13 13.46l.5-.03.5-.03c.06 1.1.2 2.19.4 3.28.2 1.09.46 2.16.79 3.22l-.48.15-.48.14c-.34-1.09-.61-2.2-.82-3.33-.2-1.13-.34-2.26-.41-3.4zm3.98 12.99l.44-.25.43-.25c1.08 1.86 2.38 3.67 3.89 5.42l-.38.33-.38.32a36.944 36.944 0 0 1-4-5.57zm8.85 10.39l.33-.38.33-.38c1.63 1.41 3.42 2.77 5.35 4.09l-.28.41-.28.41a61.307 61.307 0 0 1-5.45-4.15zm11.3 7.75l.25-.44.24-.44a92.55 92.55 0 0 0 6.06 3.09l-.21.45-.21.45c-2.15-1-4.19-2.04-6.13-3.11zm12.44 5.82l.19-.47.18-.46c2.06.81 4.19 1.59 6.39 2.34l-.16.48-.16.47c-2.22-.75-4.37-1.54-6.44-2.36zm12.98 4.43l.14-.48.14-.48c2.13.62 4.32 1.22 6.57 1.8l-.13.48-.12.49c-2.26-.58-4.46-1.18-6.6-1.81zm13.26 3.39l.11-.49.11-.49c2.18.49 4.41.95 6.68 1.38l-.09.49-.1.5c-2.28-.44-4.52-.9-6.71-1.39zm13.47 2.59l.08-.49.08-.5c2.22.37 4.48.72 6.78 1.04l-.07.5-.07.49c-2.31-.32-4.57-.67-6.8-1.04zm13.61 1.93l.06-.49.06-.5c2.22.27 4.48.52 6.77.75l-.05.49-.05.5c-2.3-.23-4.56-.48-6.79-.75zm13.62 1.37l.04-.49.04-.5c2.26.18 4.54.35 6.85.5l-.03.5-.03.5c-2.32-.15-4.61-.32-6.87-.51zm13.7.89l.03-.5.02-.5c2.25.11 4.53.21 6.83.28l-.02.5-.01.5c-2.31-.07-4.59-.17-6.85-.28zm13.72.46l.01-.5.01-.5c2.26.04 4.54.07 6.84.08v.5l-.01.5c-2.3-.01-4.58-.04-6.85-.08zm13.7.07v-1c2.27-.01 4.56-.05 6.87-.09l.01.49.01.5c-2.31.05-4.61.09-6.89.1zm13.73-.28l-.02-.5-.02-.5c2.27-.07 4.55-.16 6.85-.26l.02.5.02.5c-2.3.1-4.58.19-6.85.26zm13.72-.61l-.03-.5-.03-.5c1.06-.06 2.12-.12 3.18-.19.05-2.99 2.49-5.4 5.5-5.4 2.74 0 5.02 2.01 5.43 4.64 2.11-.17 4.24-.35 6.37-.54l.04.5.05.5c-2.14.19-4.27.37-6.39.54-.07 2.97-2.51 5.36-5.5 5.36-2.73 0-5-1.99-5.43-4.6-1.06.07-2.13.13-3.19.19zm27.34-2.13c2.27-.23 4.54-.46 6.83-.71l-.06-.5-.05-.5c-2.28.25-4.56.49-6.82.71l.05.5.05.5zm13.63-1.49l-.06-.5-.05-.5c2.26-.27 4.53-.55 6.81-.85l.07.5.06.5c-2.28.29-4.56.57-6.83.85zm13.61-1.77l-.07-.49-.07-.5c2.26-.31 4.52-.64 6.8-.98l.07.5.07.49c-2.27.34-4.54.67-6.8.98zm13.57-2.02l-.08-.49-.08-.5c2.25-.36 4.51-.72 6.77-1.11l.08.5.09.49c-2.27.38-4.53.75-6.78 1.11zM1981.5 5409c2.49 0 4.5-2.01 4.5-4.5s-2.01-4.5-4.5-4.5-4.5 2.01-4.5 4.5 2.01 4.5 4.5 4.5zm-75.5-139.5c0 2.49-2.01 4.5-4.5 4.5s-4.5-2.01-4.5-4.5 2.01-4.5 4.5-4.5 4.5 2.01 4.5 4.5z"
                  fill="#C3D3FE" fill-opacity=".6"/>
            <path fill-rule="evenodd" clip-rule="evenodd"
                  d="M2147.92 5148.3c.05-.31.08-.62.08-.94v-.08c1.22.36 2.41.77 3.57 1.23l-.18.47-.19.46c-1.07-.42-2.16-.8-3.28-1.14zm-10.57-2.88c-1.9-.13-3.85-.16-5.84-.1l.02.5.01.5c1.89-.05 3.74-.03 5.54.09.06-.34.15-.67.27-.99zM2108 5366.03l.4.3c.69-.91 1.37-1.82 2.06-2.73.68-.92 1.37-1.84 2.04-2.75l-.4-.3-.4-.3c-.68.92-1.36 1.83-2.04 2.75-.69.91-1.37 1.82-2.06 2.72l.4.31zm12.44-16.28c-1.3 1.86-2.61 3.73-3.94 5.59l-.41-.29-.4-.29c1.33-1.86 2.63-3.72 3.92-5.58l.41.28.42.29zm3.42-5.92l.42.28c1.27-1.89 2.52-3.79 3.75-5.68l-.42-.27-.42-.28c-1.23 1.89-2.48 3.78-3.74 5.67l.41.28zm7.42-11.43l.42.27c1.22-1.94 2.41-3.88 3.58-5.81l-.43-.26-.43-.26a337.19 337.19 0 0 1-3.57 5.8l.43.26zm7.05-11.65l.43.25c1.15-1.98 2.28-3.95 3.39-5.92l-.44-.24-.44-.25c-1.1 1.97-2.22 3.93-3.37 5.9l.43.26zm6.67-11.89l.44.23c1.09-2.01 2.15-4.02 3.18-6.03l-.44-.23-.44-.23c-1.04 2-2.1 4.01-3.18 6.02l.44.24zm6.25-12.1l.45.22c1.01-2.05 2-4.1 2.96-6.14l-.45-.21-.45-.22c-.96 2.04-1.95 4.08-2.96 6.13l.45.22zm5.81-12.33l.45.2c.94-2.09 1.85-4.18 2.73-6.26l-.46-.19-.46-.2c-.88 2.07-1.79 4.15-2.72 6.24l.46.21zm5.3-12.55l.47.19c.84-2.13 1.66-4.25 2.44-6.35l-.47-.18-.46-.17c-.78 2.1-1.6 4.21-2.44 6.33l.46.18zm4.75-12.75l.47.16c.75-2.18 1.47-4.34 2.15-6.48l-.48-.15-.48-.15c-.67 2.13-1.39 4.29-2.14 6.46l.48.16zm4.11-13l.48.14c.64-2.22 1.23-4.41 1.79-6.58l-.49-.13-.48-.12c-.55 2.16-1.15 4.35-1.78 6.56l.48.13zm3.36-13.19l.49.11c.49-2.26.94-4.49 1.35-6.69l-.49-.09-.49-.09c-.41 2.19-.86 4.41-1.35 6.65l.49.11zm2.44-13.38l.5.07c.33-2.29.6-4.55.82-6.77l-.5-.05-.5-.05c-.21 2.21-.48 4.45-.81 6.73l.49.07zm1.31-13.53l.5.03c.11-2.32.15-4.6.13-6.82l-.5.01h-.5c.02 2.2-.02 4.46-.13 6.76l.5.02zm-.17-13.55l.5-.04c-.19-2.33-.45-4.58-.8-6.76l-.5.07-.49.08c.35 2.16.61 4.39.79 6.69l.5-.04zm-2.18-13.37l.48-.13c-.59-2.26-1.28-4.42-2.08-6.49l-.46.19-.47.18c.78 2.02 1.47 4.15 2.04 6.37l.49-.12zm-4.91-12.55l.44-.24a43.043 43.043 0 0 0-3.75-5.69l-.4.31-.39.31c1.34 1.72 2.57 3.57 3.66 5.55l.44-.24zm-8.29-10.54l.33-.37c-.84-.76-1.72-1.48-2.63-2.17-.92-.68-1.86-1.32-2.82-1.92l-.27.43-.26.42c.94.59 1.86 1.21 2.75 1.88.89.66 1.74 1.37 2.57 2.1l.33-.37zm-38.02-9.65l-.06-.5c-2.2.28-4.44.66-6.72 1.13l.1.49.11.49c2.25-.47 4.47-.84 6.63-1.12l-.06-.49zm-13.26 2.74l-.13-.48c-2.14.6-4.31 1.28-6.51 2.04l.17.47.16.48c2.18-.76 4.33-1.43 6.45-2.03l-.14-.48zm-12.84 4.41l-.18-.46c-2.07.83-4.16 1.73-6.27 2.69l.2.46.21.45c2.1-.95 4.17-1.84 6.23-2.67l-.19-.47zm-12.38 5.63l-.22-.45c-2 1.01-4.01 2.07-6.04 3.18l.24.44.25.44c2.01-1.11 4.01-2.16 6-3.16l-.23-.45zm-11.92 6.55l-.26-.43a207.79 207.79 0 0 0-5.82 3.57l.27.42.27.42c1.94-1.23 3.87-2.41 5.79-3.55l-.25-.43zm-11.51 7.28l-.28-.41c-1.87 1.25-3.74 2.55-5.62 3.88l.29.41.29.41c1.87-1.33 3.74-2.62 5.6-3.87l-.28-.42zm-11.12 7.9l-.3-.4c-1.8 1.34-3.6 2.72-5.4 4.13l.3.4.31.39c1.8-1.41 3.6-2.78 5.39-4.12l-.3-.4zm-10.71 8.38l-.31-.39c-1.75 1.43-3.49 2.89-5.24 4.38l.32.38.33.38c1.74-1.49 3.48-2.94 5.22-4.36l-.32-.39zm-10.37 8.84l-.34-.37c-1.68 1.5-3.37 3.02-5.06 4.58l.34.36.34.37c1.68-1.55 3.36-3.07 5.05-4.56l-.33-.38zm-10.02 9.23l-.34-.37a363.19 363.19 0 0 0-4.9 4.76l.36.35.35.36c1.62-1.61 3.25-3.19 4.88-4.74l-.35-.36zm-9.7 9.58l-.35-.35c-1.58 1.62-3.16 3.26-4.73 4.92l.36.34.37.35c1.57-1.66 3.14-3.3 4.71-4.91l-.36-.35zm-9.35 9.89l-.37-.33c-1.53 1.67-3.05 3.36-4.57 5.07l.37.33.38.33c1.51-1.71 3.03-3.39 4.56-5.06l-.37-.34zm-9.05 10.21l-.38-.33c-1.47 1.72-2.94 3.45-4.4 5.2l.38.32.39.32c1.45-1.75 2.92-3.47 4.39-5.18l-.38-.33zm-8.72 10.46l-.39-.31c-1.42 1.76-2.84 3.54-4.26 5.34l.4.31.39.31c1.41-1.8 2.83-3.58 4.25-5.34l-.39-.31zm-10.87 13.16c.69-.92 1.38-1.83 2.07-2.74l.39.31.4.3c-.69.9-1.37 1.81-2.06 2.73-.68.91-1.36 1.82-2.03 2.74l-.41-.3-.4-.29c.68-.92 1.36-1.84 2.04-2.75zm-5.63 8.54l-.41-.29c-1.33 1.87-2.64 3.73-3.93 5.59l.41.29.41.28c1.29-1.86 2.6-3.72 3.92-5.57l-.4-.3zm-7.77 11.22l-.42-.28c-1.27 1.9-2.52 3.79-3.74 5.68l.41.28.42.27c1.23-1.89 2.48-3.78 3.74-5.67l-.41-.28zm-7.41 11.43l-.43-.27c-1.21 1.94-2.41 3.88-3.58 5.82l.43.26.43.25c1.17-1.93 2.36-3.86 3.57-5.79l-.42-.27zm-7.06 11.66l-.43-.26c-1.15 1.98-2.28 3.95-3.38 5.92l.43.25.44.24c1.1-1.96 2.23-3.93 3.38-5.9l-.44-.25zm-6.67 11.89l-.44-.24c-1.08 2.01-2.15 4.03-3.18 6.03l.44.23.45.23c1.03-2 2.09-4.01 3.17-6.02l-.44-.23zm-6.25 12.09l-.44-.22c-1.02 2.05-2.01 4.1-2.97 6.14l.45.22.45.21c.96-2.04 1.95-4.08 2.96-6.13l-.45-.22zm-5.8 12.34l-.46-.21c-.94 2.1-1.85 4.18-2.72 6.26l.46.19.46.2c.87-2.07 1.78-4.15 2.71-6.24l-.45-.2zm-5.31 12.54l-.46-.19c-.85 2.13-1.67 4.25-2.45 6.36l.47.17.47.17c.78-2.09 1.59-4.2 2.44-6.33l-.47-.18zm-4.74 12.75l-.48-.16c-.75 2.18-1.47 4.34-2.14 6.49l.47.15.48.15c.68-2.14 1.39-4.29 2.14-6.46l-.47-.17zm-4.12 13l-.48-.14c-.63 2.22-1.23 4.41-1.78 6.59l.48.12.49.12c.55-2.16 1.14-4.35 1.77-6.55l-.48-.14zm-3.36 13.19l-.48-.11c-.5 2.26-.95 4.49-1.36 6.69l.5.09.49.09c.4-2.19.85-4.41 1.34-6.65l-.49-.11zm-2.44 13.38l-.5-.07c-.33 2.29-.6 4.55-.82 6.77l.5.05.5.05c.22-2.2.49-4.45.81-6.73l-.49-.07zm-1.31 13.53l-.5-.02c-.11 2.32-.15 4.59-.13 6.81h.5l.5-.01c-.02-2.2.02-4.45.13-6.76l-.5-.02zm.17 13.56l-.5.04c.19 2.32.45 4.57.8 6.76l.5-.08.49-.08c-.34-2.16-.61-4.39-.79-6.68l-.5.04zm2.18 13.36l-.48.13c.59 2.26 1.28 4.42 2.08 6.49l.47-.18.46-.18a60.25 60.25 0 0 1-2.04-6.38l-.49.12zm4.91 12.55l-.44.24c1.13 2.03 2.38 3.93 3.76 5.69l.39-.31.39-.3a43.767 43.767 0 0 1-3.66-5.56l-.44.24zm10.59 13.08c-.91-.69-1.79-1.41-2.63-2.17l.33-.37.34-.37c.82.74 1.67 1.44 2.56 2.11.89.66 1.81 1.29 2.75 1.87l-.26.42-.26.43c-.97-.6-1.91-1.24-2.83-1.92zm9.09 4.51l-.18.46c2.08.83 4.26 1.49 6.52 2l.11-.49.1-.49c-2.21-.49-4.33-1.14-6.36-1.95l-.19.47zm13.11 2.98l-.04.5c2.21.18 4.48.24 6.81.17l-.02-.5-.01-.5c-2.3.07-4.53.01-6.7-.17l-.04.5zm13.52-.37l.07.49c2.19-.28 4.43-.65 6.71-1.13l-.1-.49-.11-.49c-2.25.47-4.46.85-6.63 1.12l.06.5zm13.26-2.75l.13.48c2.14-.6 4.31-1.28 6.51-2.04l-.17-.47-.16-.47c-2.18.75-4.33 1.42-6.45 2.02l.14.48zm12.84-4.41l.19.46c2.06-.83 4.16-1.73 6.26-2.69l-.2-.45-.21-.46c-2.1.96-4.17 1.85-6.23 2.67l.19.47zm12.38-5.63l.22.45c2-1.01 4.01-2.07 6.04-3.18l-.24-.44-.24-.44a206.7 206.7 0 0 1-6.01 3.17l.23.44zm11.93-6.55l.25.43c1.93-1.14 3.87-2.33 5.82-3.56l-.27-.42-.27-.43c-1.94 1.23-3.87 2.42-5.79 3.55l.26.43zm17.4-10.75c-1.88 1.33-3.75 2.63-5.62 3.88l-.28-.41-.27-.42c1.86-1.25 3.72-2.54 5.59-3.87l.29.41.29.41zm10.93-8.16c-1.81 1.41-3.61 2.79-5.41 4.14l-.3-.4-.3-.4c1.79-1.34 3.59-2.72 5.39-4.13l.31.4.31.39zm10.55-8.63c-1.74 1.49-3.49 2.94-5.23 4.37l-.32-.39-.32-.38c1.74-1.43 3.48-2.88 5.22-4.36l.33.38.32.38zm4.83-4.86l.33.37c1.69-1.49 3.37-3.02 5.06-4.57l-.34-.37-.34-.37c-1.68 1.55-3.36 3.07-5.05 4.56l.34.38zm10.01-9.22l.35.36c1.63-1.56 3.26-3.15 4.89-4.76l-.35-.35-.36-.36c-1.62 1.61-3.25 3.19-4.87 4.75l.34.36zm9.7-9.59l.36.35c1.57-1.62 3.15-3.25 4.72-4.92l-.36-.34-.37-.34a440.84 440.84 0 0 1-4.71 4.9l.36.35zm9.35-9.89l.37.34c1.53-1.67 3.05-3.36 4.57-5.08l-.37-.33-.38-.33c-1.51 1.71-3.03 3.4-4.56 5.06l.37.34zm9.05-10.21l.38.33c1.48-1.71 2.94-3.45 4.4-5.2l-.38-.32-.39-.32c-1.45 1.75-2.92 3.48-4.38 5.19l.37.32zm8.72-10.46l.39.32c1.43-1.77 2.85-3.55 4.26-5.35l-.4-.31-.39-.31c-1.41 1.8-2.82 3.58-4.25 5.34l.39.31z"
                  fill="#C3D3FE" fill-opacity=".6"/>
            <circle cx="2142.5" cy="5147.5" r="4.5" stroke="#C3D3FE" stroke-opacity=".6" stroke-width="2"/>
        </g>
    </g>
    <defs>
        <filter id="filter0_f_229_1955" x="-216" y="1729" width="2896" height="2896" filterUnits="userSpaceOnUse" color-interpolation-filters="sRGB">
            <feFlood flood-opacity="0" result="BackgroundImageFix"/>
            <feBlend in="SourceGraphic" in2="BackgroundImageFix" result="shape"/>
            <feGaussianBlur stdDeviation="400" result="effect1_foregroundBlur_229_1955"/>
        </filter>
        <filter id="filter1_f_229_1955" x="2617" y="3649" width="2850" height="2850" filterUnits="userSpaceOnUse" color-interpolation-filters="sRGB">
            <feFlood flood-opacity="0" result="BackgroundImageFix"/>
            <feBlend in="SourceGraphic" in2="BackgroundImageFix" result="shape"/>
            <feGaussianBlur stdDeviation="500" result="effect1_foregroundBlur_229_1955"/>
        </filter>
        <filter id="filter2_f_229_1955" x="398" y="-234" width="2286" height="2286" filterUnits="userSpaceOnUse" color-interpolation-filters="sRGB">
            <feFlood flood-opacity="0" result="BackgroundImageFix"/>
            <feBlend in="SourceGraphic" in2="BackgroundImageFix" result="shape"/>
            <feGaussianBlur stdDeviation="400" result="effect1_foregroundBlur_229_1955"/>
        </filter>
        <filter id="filter3_f_229_1955" x="1615" y="293" width="873.842" height="925.663" filterUnits="userSpaceOnUse" color-interpolation-filters="sRGB">
            <feFlood flood-opacity="0" result="BackgroundImageFix"/>
            <feBlend in="SourceGraphic" in2="BackgroundImageFix" result="shape"/>
            <feGaussianBlur stdDeviation="3" result="effect1_foregroundBlur_229_1955"/>
        </filter>
        <filter id="filter4_f_229_1955" x="3200.16" y="3135.96" width="873.842" height="925.662" filterUnits="userSpaceOnUse" color-interpolation-filters="sRGB">
            <feFlood flood-opacity="0" result="BackgroundImageFix"/>
            <feBlend in="SourceGraphic" in2="BackgroundImageFix" result="shape"/>
            <feGaussianBlur stdDeviation="3" result="effect1_foregroundBlur_229_1955"/>
        </filter>
        <filter id="filter5_f_229_1955" x="2657" y="41" width="2544" height="2544" filterUnits="userSpaceOnUse" color-interpolation-filters="sRGB">
            <feFlood flood-opacity="0" result="BackgroundImageFix"/>
            <feBlend in="SourceGraphic" in2="BackgroundImageFix" result="shape"/>
            <feGaussianBlur stdDeviation="500" result="effect1_foregroundBlur_229_1955"/>
        </filter>
        <filter id="filter6_f_229_1955" x="753" y="5007" width="2544" height="2544" filterUnits="userSpaceOnUse" color-interpolation-filters="sRGB">
            <feFlood flood-opacity="0" result="BackgroundImageFix"/>
            <feBlend in="SourceGraphic" in2="BackgroundImageFix" result="shape"/>
            <feGaussianBlur stdDeviation="500" result="effect1_foregroundBlur_229_1955"/>
        </filter>
        <filter id="filter7_f_229_1955" x="3408.22" y="1351.51" width="562.236" height="424.92" filterUnits="userSpaceOnUse" color-interpolation-filters="sRGB">
            <feFlood flood-opacity="0" result="BackgroundImageFix"/>
            <feBlend in="SourceGraphic" in2="BackgroundImageFix" result="shape"/>
            <feGaussianBlur stdDeviation="3" result="effect1_foregroundBlur_229_1955"/>
        </filter>
        <filter id="filter8_f_229_1955" x="1733" y="5096" width="635" height="432.223" filterUnits="userSpaceOnUse" color-interpolation-filters="sRGB">
            <feFlood flood-opacity="0" result="BackgroundImageFix"/>
            <feBlend in="SourceGraphic" in2="BackgroundImageFix" result="shape"/>
            <feGaussianBlur stdDeviation="3" result="effect1_foregroundBlur_229_1955"/>
        </filter>
        <clipPath id="clip0_229_1955">
            <path fill="#fff" d="M0 0H5644V7230H0z"/>
        </clipPath>
    </defs>
</svg>
