<svg width="213" height="74" viewBox="0 0 213 74" fill="none" xmlns="http://www.w3.org/2000/svg">
<g clip-path="url(#clip0_117_118)">
<circle cx="177.036" cy="40.7182" r="23.9514" fill="white"/>
<path fill-rule="evenodd" clip-rule="evenodd" d="M192.513 4.56547L190.565 6.16783L192.873 8.0924L188.998 7.16927L185.453 9.49981L187.075 6.74134L181.59 5.8585L187.691 5.13849L188.18 3.96311L189.381 5.1339L192.513 4.56547ZM189.864 43.7707C188.896 44.9216 187.207 44.4501 186.557 43.2234C185.747 41.697 185.464 40.0852 186.392 39.5131C186.912 39.1927 186.97 38.1902 186.433 37.8267C183.581 35.8967 178.658 35.9527 175.09 37.0872C173.467 37.6034 171.479 38.5007 170.25 39.7556C169.144 40.8862 168.746 42.0387 168.735 42.9246C168.991 42.5276 169.065 42.7479 169.092 42.9244C169.257 43.9767 169.699 44.1795 170.392 47.0026C170.49 47.4003 170.584 47.8985 170.668 48.344C170.752 48.7896 170.848 49.0371 170.789 49.1084C170.916 49.8333 170.344 50.0577 169.955 49.2958C169.55 48.6473 169.212 47.962 168.977 46.4628C168.787 45.2593 169.098 44.3223 168.75 44.0622C168.586 43.9397 168.354 45.7468 168.594 47.2745C168.835 48.8123 169.932 50.8496 170.655 51.8248C171.903 53.5072 173.447 54.9005 174.829 55.8347C174.736 55.9073 174.701 56.0257 174.655 56.12C174.908 55.9858 175.133 55.9479 175.305 55.9424C175.912 55.9231 176.545 56.2238 176.6 56.4126C176.608 56.5115 176.216 56.435 175.758 56.3367C175.248 56.2271 174.636 56.3048 174.436 56.5454C173.983 57.0906 174.471 57.7271 174.712 57.9613C174.546 58.5455 173.903 59.338 173.239 58.9036C172.418 58.3666 171.74 57.023 173.122 56.3441C173.156 56.3274 173.725 56.1124 174.377 56.0258C171.135 54.2256 169.174 52.6785 167.734 48.9797C167.378 48.065 166.491 44.3982 166.733 41.8026C167.199 36.805 170.857 34.5167 175.652 33.5605C180.664 32.561 186.22 32.8981 187.353 34.4274C187.894 35.1583 188.664 34.4863 189.539 35.2128C191.418 36.6226 193.443 39.2121 193.567 42.9837C193.727 47.8892 191.313 50.2561 191.429 49.4598C191.535 48.7314 191.723 46.7725 191.321 45.142C190.479 41.7229 189.778 40.272 187.43 38.467C187.169 38.223 187.024 38.4549 187.301 38.8069C188.593 40.255 189.038 41.0503 189.864 43.7707ZM189.153 50.1543C188.949 51.5747 188.301 52.6239 187.643 53.2684C188 53.5052 188.506 54.17 188.715 54.5312C187.926 54.4421 186.979 54.8219 186.124 55.8988C185.832 55.761 185.524 55.2041 185.634 54.9007C185.879 54.2252 186.582 53.8218 187.388 53.7761C187.643 53.7615 187.368 53.4972 187.261 53.4985C186.632 53.5069 185.474 53.8361 185.215 54.8163C184.732 54.5114 183.514 55.4266 183.195 55.8543C182.449 56.8551 182.262 57.4479 180.699 57.706C179.142 57.9629 178.459 57.6014 177.901 56.8451C178.072 55.7411 177.18 55.4807 176.892 55.3199C176.602 55.1574 175.414 54.9421 174.998 55.5934C173.883 54.4222 171.554 51.6817 171.386 49.932C171.317 49.2106 171.607 49.2675 171.483 47.6439C171.406 46.6476 171.107 45.8241 171.036 45.5615C170.938 45.2023 170.372 45.0891 170.324 44.7259C170.23 44.0119 170.27 43.2625 170.768 43.1344C171.488 42.9491 172.21 43.0917 172.904 43.3212C172.584 43.4109 172.08 43.713 171.795 44.0597C171.527 44.3861 171.323 44.5978 171.18 44.7881C171.078 44.9252 171.507 45.0094 171.743 44.9745C172.317 44.8896 172.347 44.017 172.978 43.9315C173.073 44.2951 173.266 44.5954 173.596 44.6848L174.43 44.5688C174.643 44.4233 174.74 44.1749 174.72 43.8426C175.202 43.7562 175.652 44.094 175.828 44.532C175.906 44.7247 175.903 44.8879 175.957 44.9035C176.061 44.934 175.973 43.7097 175.501 43.1398C174.862 42.37 174.03 42.169 172.542 42.169C171.947 42.169 170.779 41.9058 170.307 42.2757C170.077 42.4555 170.065 42.7413 169.968 42.8895C169.903 42.894 169.862 42.8949 169.86 42.8877C169.536 41.5246 170.107 40.2192 170.935 39.502C171.961 38.6124 173.95 37.9664 175.135 37.5668C177.932 36.6238 180.447 36.4339 181.87 36.8678C182.906 37.1838 183.836 37.7769 183.505 38.3815C183.379 38.611 183.1 38.3578 182.793 38.3305C181.741 38.2371 181.865 38.7393 179.27 40.2093C179.01 40.3566 178.938 40.5182 178.442 40.642C178.277 40.6831 178.142 40.9411 178.16 41.3061C178.177 41.6518 178.7 41.5155 178.524 41.7078C178.348 41.9005 178.151 42.1592 178.139 42.4559C178.125 42.843 178.189 43.0457 178.195 43.2674C178.195 43.2998 178.244 44.0464 178.545 44.1694C178.815 44.2801 179.131 43.777 179.135 43.4259C179.043 42.8738 179.943 41.8992 180.048 42.2636C180.104 42.4568 179.697 42.8681 180.009 42.9947C180.146 43.0787 180.776 42.9254 180.876 42.7437C180.903 42.6928 180.496 42.676 180.517 42.6173C180.713 42.4387 180.995 41.872 181.215 41.745C181.184 42.2495 181.428 42.5722 181.928 42.6534C181.997 42.6646 182.062 42.6704 182.122 42.6715L182.672 42.4802C182.839 42.3182 182.914 42.0691 182.916 41.7946C183.095 41.8207 183.43 41.903 183.541 42.0851C183.999 41.8561 184.426 41.501 184.874 41.0844C185.161 40.8183 185.19 41.3799 185.237 41.5695C185.645 43.2123 186.177 44.1687 187.173 44.6411C187.007 45.0452 186.787 45.6426 186.663 46.201C186.502 46.9285 187.264 47.7305 187.332 48.9197C187.382 49.7938 187.145 50.9155 187.241 50.8067C187.724 50.5778 187.874 49.3301 187.838 48.3762C187.817 47.8149 187.698 47.272 187.97 47.2049C189.043 46.94 189.373 48.6211 189.153 50.1543ZM175.307 50.0863C175.288 50.3249 175.214 50.6484 175.192 50.9603C175.169 51.2721 175.197 51.5726 175.141 51.765C175.092 51.9331 174.435 51.6045 174.634 51.2259C174.832 50.8474 175.346 49.6088 175.307 50.0863ZM183.548 47.1721C184.155 47.4235 185.186 47.9826 185.549 48.4481C185.811 48.7829 185.7 49.0461 185.662 49.1727C185.604 49.3624 184.469 48.1739 183.529 47.7149C182.39 47.1586 181.729 47.2497 181.635 47.0984C181.525 46.9222 182.803 46.8632 183.548 47.1721ZM148.034 36.2436C148.034 20.8736 160.145 8.19639 175.467 6.95554C162.672 9.32232 152.939 20.4037 152.939 33.6493C152.939 34.0851 152.95 34.5184 152.971 34.9492C155.555 23.75 165.777 15.3458 177.933 15.3458C192.03 15.3457 203.527 26.646 203.527 40.501C203.527 54.3559 192.03 65.656 177.933 65.656C161.584 65.656 148.034 52.4174 148.034 36.2436ZM169.39 62.6004L170.428 61.2771C176.224 64.2466 184.749 60.89 189.703 56.898L190.637 58.0339L193.068 55.7885L192.004 54.7167C197.121 48.8189 197.399 41.8946 195.471 35.4662C195.226 34.7186 194.973 34.9279 195.104 35.6824C196.265 42.0489 195.506 48.2783 191.019 53.1473C187.06 57.4448 182.245 60.1537 176.209 60.5297C171.976 60.7933 167.643 58.1571 166.211 55.8935C163.503 51.6127 163.035 48.4101 162.816 45.4096L161.7 44.6719C161.396 50.682 163.088 56.0698 167.586 59.5418L166.58 60.6761L169.39 62.6004ZM156.313 41.7189C155.906 42.9945 155.577 49.4501 161.68 51.6902C161.929 51.7815 159.527 48.7757 158.939 46.5883C158.439 44.7278 159.036 43.2879 159.142 43.2525C158.477 42.912 157.262 42.0532 156.739 41.453C156.243 40.8835 155.391 38.1504 157.111 35.6113C159.549 32.0126 163.763 30.1628 167.566 29.0114C171.697 27.7609 179.075 27.0973 184.955 27.9539C191.488 28.9057 194.651 30.852 195.956 31.7376C195.905 31.7854 195.684 32.0407 195.474 32.2056C195.814 35.12 196.914 38.0999 198.792 40.7698C199.371 41.5927 200.504 42.0723 200.078 41.3029C199.655 40.5407 198.778 38.2454 198.255 35.7787C197.898 34.091 197.816 32.323 197.719 30.911C197.592 29.0454 195.651 30.314 195.079 29.7699C194.089 28.8274 192.615 27.8818 191.086 27.1393C189.737 26.4841 188.665 26.261 188.812 25.6994C188.928 25.2556 190.895 25.4066 192.317 25.813C192.952 25.9944 192.64 22.1096 186.475 18.8665C183.773 17.445 179.867 16.6766 174.678 17.8075C174.035 17.5882 172.701 17.4373 171.848 17.6089C169.78 18.0255 168.304 18.8297 166.92 20.3778C165.431 20.3508 162.62 23.5569 161.518 24.813C161.214 24.8334 160.537 25.2568 160.247 25.4498C157.992 26.9496 157.223 32.9816 156.13 35.1043C154.831 36.8723 154.504 40.3457 156.313 41.7189ZM167.366 56.2797C165.108 53.5469 164.568 51.0345 164.362 50.4917C163.953 49.4109 163.228 45.9369 163.757 45.7633C163.871 45.726 164.889 47.1322 165.308 47.7378C165.846 48.5165 166.629 49.7682 166.094 50.2106C165.584 50.6324 166.095 52.7415 167.288 54.9619C168.671 57.5364 171.167 58.6049 171.327 58.8836C171.583 59.3296 169.129 58.4124 167.366 56.2797ZM179.571 29.3194L179.795 29.9386C173.881 29.8912 163.685 31.8479 159.619 36.3471C158.262 37.8487 157.596 40.0503 158.519 40.5438C158.337 39.42 159.154 38.1866 160.165 36.8898C162.492 33.9055 169.474 31.8811 173.473 31.2822C178.177 30.5775 182.814 30.5358 186.579 31.2249C188.783 31.6286 191.272 32.3618 192.474 33.0402C192.804 32.4579 189.964 30.3442 182.351 29.9812L182.29 28.1139C175.575 27.6846 166.145 28.4702 159.426 34.101C158.909 34.5342 158.604 35.4906 158.866 35.8469C163.294 31.5869 171.702 29.2475 179.571 29.3194ZM173.724 43.7303C173.814 43.7303 173.888 43.8029 173.888 43.8919C173.888 43.9809 173.814 44.0535 173.724 44.0535C173.633 44.0535 173.559 43.9809 173.559 43.8919C173.559 43.8028 173.633 43.7304 173.724 43.7303ZM181.81 41.6007C181.901 41.6007 181.975 41.6732 181.975 41.7623C181.975 41.8513 181.901 41.9239 181.81 41.9239C181.72 41.9239 181.646 41.8513 181.646 41.7623C181.646 41.6732 181.72 41.6007 181.81 41.6007ZM183.266 39.7649C184.226 39.7649 184.47 40.1232 184.47 40.4603C184.47 40.7974 184.036 41.0451 183.011 40.7247C181.987 40.4044 181.446 40.7525 181.374 40.5728C181.289 40.3565 182.305 39.7649 183.266 39.7649ZM178.142 49.6404C178.596 49.5605 178.691 49.2254 179.122 48.7957C179.303 48.6155 179.248 48.4014 179.12 47.9743C178.967 47.4617 178.771 46.8907 178.895 46.7175C179.078 46.4608 179.39 46.7788 179.848 46.7655C180.414 46.749 180.708 46.9946 181.186 47.2701C181.337 47.3573 181.908 48.2543 181.386 48.641C180.789 49.0832 180.378 49.4752 180.346 49.5561C180.225 49.8581 179.619 50.3515 178.656 50.3222C178.217 50.3089 177.956 50.2415 177.727 50.1373C177.228 49.9111 176.839 49.9945 176.647 49.8704C176.522 49.7889 176.282 49.584 176.496 49.3621C176.526 49.3315 176.751 49.5406 177.144 49.6723C177.43 49.7684 177.834 49.6944 178.142 49.6404ZM180.229 47.1481C180.591 47.1481 180.79 47.389 180.79 47.6949C180.79 48.0008 180.406 48.3979 180.088 48.3979C179.906 48.3979 179.738 48.4214 179.673 47.9668C179.654 47.8375 179.576 47.7196 179.538 47.6103C179.394 47.1927 179.867 47.148 180.229 47.1481ZM179.518 52.0362C179.99 51.9337 179.848 51.7248 180.757 51.3111C181.185 51.1161 181.605 51.0759 182.062 50.8502C182.877 50.4469 183.7 50.0819 184.238 49.9565C184.529 49.889 184.721 50.0541 184.832 50.1456C184.543 50.2966 184.24 50.5966 183.858 50.8233C183.46 51.0593 183.097 51.5547 182.91 51.8879C182.717 52.2332 182.669 52.7137 182.415 53.0473C181.971 53.6289 180.022 54.5309 178.536 53.9905C177.625 53.6596 177.371 52.8963 177.028 52.8071C176.235 52.6005 176.202 52.6601 176.216 52.3239C176.397 52.355 176.702 52.4394 177.433 52.3532C177.816 52.308 178.269 52.0779 178.635 52.0389C179.005 51.9994 179.332 52.0766 179.518 52.0362ZM179.642 52.729C180.784 52.4081 181.841 51.5303 182.017 51.8567C182.194 52.1831 181.408 53.1102 179.766 53.4316C178.857 53.6094 177.96 53.3862 177.876 53.1066C177.776 52.7708 178.258 53.1181 179.642 52.729ZM173.239 20.4242C173.745 20.4194 174.073 20.2923 174.465 20.2378C174.939 20.1721 175.467 20.1775 175.99 20.1764C176.754 20.1749 177.231 20.6814 177.236 21.1284C177.247 22.2518 176.916 22.6295 176.26 23.0518C175.713 23.4042 174.498 23.4546 173.771 23.4757C173.665 23.8037 173.604 24.0261 173.713 24.1775C173.765 24.2497 173.967 24.1802 173.949 24.2417L173.878 24.496L172.265 24.6065L172.315 24.3471C172.404 24.2725 172.737 24.3184 172.827 23.9299L173.587 20.641L173.254 20.6445L173.239 20.4242ZM174.511 20.5985C174.792 20.5986 175.916 20.3066 176.095 20.8108C176.255 21.2602 176.103 22.645 175.32 22.9391C174.74 23.1569 174.312 23.1839 173.869 23.2168L174.511 20.5985ZM170.459 20.9578C171.576 20.947 171.444 22.2648 170.773 22.1905C170.014 22.1063 170.587 21.4986 170.169 21.4115C169.6 21.2931 169.253 22.0731 169.03 22.7541C168.796 23.4668 168.373 24.5595 168.784 24.8155C169.041 24.9757 169.904 24.9824 170.095 24.1165C170.217 23.5597 171.16 23.5361 170.99 24.0636C170.683 25.018 169.593 25.283 168.86 25.3125C167.646 25.3613 167.591 23.7458 167.964 22.9718C168.6 21.6537 169.21 20.97 170.459 20.9578ZM165.481 22.9433C166.051 22.9433 165.857 24.0939 165.326 24.0128C164.847 23.9395 165.317 23.609 165.005 23.4732C164.633 23.3112 164.147 24.6465 164.075 24.8376C163.815 25.5301 163.512 26.741 163.713 26.8554C163.87 26.9442 164.479 26.9572 164.63 26.0911C164.727 25.5343 165.326 25.6195 165.287 25.8314C165.113 26.7987 164.109 27.2631 163.528 27.298C162.714 27.3468 162.902 25.9488 163.23 25.186C163.559 24.4231 164.49 22.9433 165.481 22.9433ZM162.487 24.9465C163.02 24.9465 162.704 26.0645 162.207 25.9833C161.759 25.91 162.458 25.438 162.166 25.3022C161.818 25.1402 161.28 26.6823 161.213 26.8734C160.969 27.566 160.489 28.5591 160.678 28.6735C160.824 28.7623 161.394 28.7753 161.535 27.9093C161.626 27.3524 162.114 27.4376 162.078 27.6494C161.915 28.6167 160.997 29.0886 160.504 29.1161C159.92 29.1487 160.26 27.8323 160.526 27.211C160.792 26.5896 161.736 24.9465 162.487 24.9465Z" fill="#3C2B99"/>
<path d="M190.563 6.16654L192.511 4.56406L189.379 5.13253L188.178 3.96166L187.689 5.13713L181.587 5.85719L187.073 6.74009L185.451 9.49876L188.996 7.16805L192.872 8.09125L190.563 6.16654Z" fill="#3C2B99"/>
<path d="M203.076 12.0391L204.387 13.6205C204.7 13.9976 204.91 14.3296 205.018 14.6165C205.115 14.8815 205.138 15.0934 205.085 15.2523C205.037 15.4157 204.917 15.5768 204.727 15.7355L204.136 16.2287C203.959 16.3761 203.779 16.4414 203.597 16.4246C203.419 16.404 203.222 16.3103 203.007 16.1436L202.98 16.1663C203.139 16.4412 203.215 16.7042 203.209 16.9554C203.211 17.2074 203.119 17.4109 202.933 17.5659L202.193 18.1838C201.871 18.4521 201.544 18.5207 201.213 18.3895C200.882 18.2582 200.483 17.9109 200.015 17.3474L198.664 15.7184L203.076 12.0391ZM202.474 15.2509C202.704 15.5281 202.908 15.6918 203.088 15.7419C203.276 15.7928 203.46 15.7426 203.642 15.5914L204.158 15.1606C204.326 15.0207 204.393 14.8611 204.359 14.6818C204.325 14.5024 204.19 14.2696 203.952 13.9833L203.189 13.0631L201.694 14.3103L202.474 15.2509ZM200.471 16.9676C200.746 17.2993 200.974 17.505 201.155 17.5846C201.336 17.6642 201.508 17.636 201.671 17.5L202.338 16.9444C202.455 16.8461 202.528 16.7437 202.554 16.637C202.589 16.5311 202.581 16.4149 202.529 16.2885C202.474 16.1658 202.416 16.064 202.357 15.983C202.302 15.8982 202.21 15.7785 202.082 15.624L201.279 14.6561L199.668 15.9997L200.471 16.9676Z" fill="#3C2B99"/>
<path d="M203.353 22.096C203.149 21.7434 203.024 21.4507 202.978 21.2179C202.934 20.9902 202.972 20.7839 203.089 20.5991C203.21 20.4193 203.429 20.2375 203.745 20.0534C204.025 19.8902 204.264 19.8023 204.461 19.7899C204.666 19.7797 204.857 19.8498 205.033 20.0004C205.212 20.156 205.403 20.4101 205.607 20.7628L206.251 21.8744L206.84 21.5315C206.977 21.4514 207.066 21.3624 207.104 21.2647C207.151 21.169 207.153 21.0484 207.11 20.9028C207.069 20.7624 206.979 20.572 206.84 20.3318C206.618 19.9485 206.342 19.5421 206.011 19.1126L206.516 18.8188C206.855 19.298 207.143 19.7421 207.38 20.151C207.628 20.5803 207.779 20.9165 207.831 21.1595C207.888 21.3995 207.86 21.6039 207.746 21.7726C207.633 21.9413 207.41 22.1221 207.079 22.315L204.464 23.8378L204.078 23.1708L204.43 22.966C204.112 23.076 203.753 22.786 203.353 22.096ZM203.871 21.9483C204.016 22.1988 204.157 22.4005 204.293 22.5535C204.472 22.7568 204.646 22.8094 204.814 22.7115L205.823 22.1237L205.206 21.0581C205.079 20.8383 204.969 20.6903 204.877 20.614C204.79 20.5347 204.692 20.5064 204.583 20.5292C204.473 20.5519 204.316 20.6227 204.112 20.7414C203.929 20.8483 203.797 20.9493 203.715 21.0444C203.639 21.1366 203.605 21.242 203.612 21.3607C203.625 21.4765 203.684 21.6264 203.791 21.8104L203.871 21.9483Z" fill="#3C2B99"/>
<path d="M205.132 25.1175C205.1 25.0351 205.076 24.9522 205.062 24.8687L205.695 24.6167C205.709 24.7001 205.731 24.7803 205.762 24.8572C205.855 25.0934 206.099 25.2125 206.493 25.2145C206.895 25.2199 207.559 25.0382 208.484 24.6694L209.421 24.2963L210.495 27.007L206.518 28.5912L206.224 27.8496L209.716 26.4586L209.197 25.1485L208.622 25.3777C207.718 25.7377 206.961 25.9153 206.35 25.9106C205.745 25.9037 205.339 25.6393 205.132 25.1175Z" fill="#3C2B99"/>
<path d="M207.278 31.6661C206.978 30.3888 207.253 29.65 208.102 29.4498L209.746 29.0622C210.251 28.9432 210.646 29.0018 210.932 29.238C211.224 29.4787 211.447 29.9241 211.599 30.5742C211.744 31.1899 211.741 31.6579 211.593 31.9784C211.445 32.3046 211.11 32.5293 210.588 32.6524L209.667 32.8695L209.01 30.0647L208.381 30.2128C208.094 30.2805 207.911 30.4299 207.832 30.661C207.753 30.8921 207.763 31.2177 207.862 31.6377C207.955 32.0347 208.134 32.4874 208.398 32.9957L207.804 33.1357C207.565 32.6335 207.39 32.1436 207.278 31.6661ZM209.993 31.9731L210.647 31.8188C210.899 31.7593 211.053 31.641 211.109 31.4641C211.171 31.2915 211.159 31.0211 211.073 30.6528C210.989 30.2961 210.88 30.0487 210.744 29.9106C210.615 29.7712 210.424 29.7312 210.171 29.7907L209.517 29.945L209.993 31.9731Z" fill="#3C2B99"/>
<path d="M212.273 34.3803L212.336 35.1757L210.565 35.3179L210.733 37.4212L212.504 37.2789L212.568 38.0743L208.302 38.4168L208.239 37.6215L210.151 37.4679L209.983 35.3646L208.071 35.5182L208.007 34.7229L212.273 34.3803Z" fill="#3C2B99"/>
<path d="M211.933 40.9885L212.042 39.4854L212.624 39.528L212.348 43.3212L211.766 43.2786L211.875 41.7843L208.189 41.5144L208.247 40.7186L211.933 40.9885Z" fill="#3C2B99"/>
<path d="M211.19 49.2414L207.023 48.267L207.204 47.4899L210.278 48.2086L207.71 45.3142L207.89 44.5371L212.058 45.5115L211.877 46.2886L208.7 45.5457L211.361 48.5075L211.19 49.2414Z" fill="#3C2B99"/>
<path d="M210.653 50.9295L210.351 51.6676L208.707 50.9905L207.907 52.9422L209.551 53.6193L209.249 54.3574L205.291 52.7269L205.593 51.9888L207.368 52.7199L208.167 50.7681L206.393 50.0371L206.695 49.2991L210.653 50.9295Z" fill="#3C2B99"/>
<path d="M208.42 56.1344L207.972 56.8152L206.681 55.9607L206.223 56.6563C206.022 56.9622 205.841 57.1893 205.68 57.3376C205.515 57.4908 205.349 57.5719 205.181 57.5809C205.017 57.5932 204.835 57.5326 204.633 57.3991L203.895 56.9108C203.378 56.5691 203.407 55.9616 203.982 55.0884L204.849 53.7712L208.42 56.1344ZM206.317 59.3311L205.879 59.9971L202.307 57.634L202.745 56.968L206.317 59.3311ZM204.439 55.3272C204.345 55.4703 204.267 55.6313 204.206 55.8102C204.137 56.0122 204.205 56.1815 204.412 56.3183L204.862 56.6161C205.005 56.7105 205.126 56.7624 205.226 56.7717C205.322 56.786 205.418 56.7536 205.512 56.6745C205.603 56.6003 205.712 56.467 205.839 56.2746L206.243 55.6604L204.834 54.7278L204.439 55.3272Z" fill="#3C2B99"/>
<path d="M202.268 66.2121L200.642 67.4661C200.254 67.7652 199.916 67.9632 199.626 68.0602C199.358 68.1474 199.146 68.1618 198.99 68.1034C198.829 68.0486 198.673 67.9228 198.522 67.7261L198.053 67.1147C197.913 66.932 197.854 66.7495 197.878 66.5671C197.905 66.3895 198.006 66.1961 198.18 65.9871L198.159 65.959C197.879 66.1078 197.614 66.1743 197.364 66.1585C197.113 66.1509 196.913 66.0511 196.766 65.859L196.178 65.093C195.923 64.7604 195.867 64.4307 196.011 64.1038C196.154 63.777 196.516 63.3901 197.095 62.9433L198.77 61.6515L202.268 66.2121ZM199.09 65.4866C198.805 65.7064 198.635 65.9054 198.578 66.0834C198.52 66.2697 198.563 66.4565 198.707 66.6439L199.116 67.178C199.249 67.3513 199.406 67.4245 199.586 67.3975C199.766 67.3704 200.003 67.2434 200.297 67.0164L201.243 66.2867L200.057 64.7407L199.09 65.4866ZM197.456 63.4141C197.115 63.6772 196.901 63.8979 196.815 64.0763C196.729 64.2547 196.75 64.4282 196.88 64.5968L197.408 65.2855C197.501 65.4073 197.601 65.4835 197.706 65.5141C197.81 65.5531 197.926 65.5493 198.054 65.5028C198.179 65.4516 198.282 65.3978 198.365 65.3412C198.452 65.2893 198.575 65.2021 198.734 65.0796L199.729 64.3121L198.451 62.6466L197.456 63.4141Z" fill="#3C2B99"/>
<path d="M193.637 65.4032C193.716 65.3639 193.796 65.3338 193.878 65.3129L194.181 65.9246C194.099 65.9454 194.021 65.9742 193.947 66.011C193.72 66.1238 193.621 66.3772 193.652 66.7712C193.679 67.173 193.914 67.8214 194.357 68.7164L194.804 69.622L192.198 70.9172L190.298 67.0726L191.011 66.7183L192.679 70.0942L193.939 69.4682L193.664 68.9122C193.232 68.0384 192.994 67.2962 192.948 66.6854C192.906 66.08 193.135 65.6526 193.637 65.4032Z" fill="#3C2B99"/>
<path d="M187.79 67.8839C188.179 67.7644 188.492 67.7085 188.728 67.7162C188.959 67.7256 189.151 67.8088 189.304 67.9658C189.451 68.1246 189.578 68.3792 189.685 68.7295C189.78 69.0404 189.811 69.2935 189.778 69.489C189.742 69.6919 189.63 69.8621 189.444 69.9996C189.253 70.1389 188.962 70.2683 188.574 70.3878L187.348 70.7644L187.547 71.4171C187.594 71.5697 187.66 71.676 187.747 71.7361C187.829 71.8035 187.946 71.8325 188.097 71.8232C188.242 71.8155 188.448 71.771 188.713 71.6896C189.135 71.5597 189.593 71.3821 190.085 71.1567L190.256 71.7161C189.713 71.9384 189.217 72.1188 188.766 72.2574C188.292 72.4028 187.932 72.4735 187.684 72.4693C187.438 72.4707 187.246 72.3969 187.108 72.2477C186.97 72.0985 186.844 71.8402 186.732 71.4729L185.846 68.5739L186.582 68.3479L186.701 68.7379C186.666 68.4024 187.029 68.1177 187.79 67.8839ZM187.816 68.423C187.54 68.5079 187.312 68.5995 187.133 68.6979C186.894 68.8267 186.804 68.9844 186.861 69.1708L187.203 70.2897L188.378 69.9287C188.62 69.8542 188.789 69.7808 188.884 69.7083C188.98 69.6415 189.03 69.552 189.033 69.4399C189.036 69.3278 189.002 69.1587 188.933 68.9327C188.871 68.7293 188.803 68.5771 188.729 68.4762C188.657 68.381 188.562 68.3235 188.445 68.3038C188.33 68.2898 188.171 68.3139 187.968 68.3763L187.816 68.423Z" fill="#3C2B99"/>
<path d="M180.43 70.0149L180.193 68.3205L180.868 68.2256L181.032 69.4021L184.298 68.9428L184.133 67.7664L184.807 67.6716L185.044 69.366L184.773 69.4042C184.645 69.4223 184.533 69.5365 184.437 69.7469C184.342 69.9631 184.284 70.2935 184.263 70.7382C184.243 71.1886 184.28 71.7504 184.374 72.4235L184.489 73.2488L181.548 73.6625L181.026 69.9312L180.43 70.0149ZM181.814 69.8204L182.263 73.0337L183.725 72.8281L183.639 72.2135C183.554 71.6048 183.522 71.0752 183.542 70.6247C183.557 70.1809 183.653 69.8184 183.827 69.5372L181.814 69.8204Z" fill="#3C2B99"/>
<path d="M175.594 73.75L175.672 69.4598L176.468 69.4745L176.41 72.639L178.695 69.5156L179.491 69.5302L179.412 73.8204L178.617 73.8057L178.677 70.5349L176.345 73.7639L175.594 73.75Z" fill="#3C2B99"/>
<path d="M173.802 73.635L172.544 73.3903L171.931 69.7131L171.896 69.7064L170.044 72.9044L168.829 72.6682L169.643 68.4557L170.364 68.5958L169.687 72.0946L169.731 72.103L171.7 68.8556L172.49 69.0091L173.159 72.7695L173.203 72.7779L173.879 69.2791L174.617 69.4225L173.802 73.635Z" fill="#3C2B99"/>
<path d="M163.052 70.6212L164.589 66.6165L165.332 66.9031L164.198 69.8569L167.411 67.7055L168.153 67.992L166.617 71.9967L165.874 71.7101L167.046 68.657L163.753 70.8918L163.052 70.6212Z" fill="#3C2B99"/>
<path d="M161.523 69.9068L160.829 69.5161L161.054 69.1141C160.819 69.4018 160.306 69.3228 159.514 68.8772C159.041 68.6109 158.74 68.3093 158.611 67.9723C158.48 67.6404 158.5 67.3199 158.673 67.0107L159.535 65.4724C159.659 65.2508 159.801 65.0764 159.96 64.9491C160.114 64.8189 160.268 64.7364 160.423 64.7015C160.564 64.666 160.732 64.6688 160.925 64.7098C161.113 64.748 161.291 64.8042 161.459 64.8785C161.612 64.9441 161.791 65.0347 161.997 65.1505C162.223 65.2778 162.416 65.4208 162.578 65.5794C162.731 65.7403 162.802 65.8852 162.79 66.0144L163.782 64.2442L164.475 64.6349L161.523 69.9068ZM161.717 65.6133C161.45 65.4628 161.237 65.3666 161.078 65.3245C160.911 65.2847 160.768 65.299 160.648 65.3673C160.529 65.4357 160.41 65.5755 160.292 65.7868L159.521 67.1627C159.391 67.3946 159.325 67.5846 159.324 67.7327C159.322 67.8808 159.383 68.0134 159.506 68.1305C159.622 68.2499 159.816 68.3863 160.088 68.5397C160.361 68.693 160.581 68.7896 160.747 68.8294C160.906 68.8715 161.049 68.8532 161.174 68.7745C161.299 68.6959 161.426 68.5406 161.556 68.3087L162.327 66.9328C162.442 66.7266 162.499 66.5521 162.498 66.4091C162.489 66.2684 162.424 66.137 162.303 66.0147C162.18 65.8976 161.984 65.7638 161.717 65.6133Z" fill="#3C2B99"/>
<path d="M157.946 62.4784C158.244 62.7095 158.459 62.8945 158.591 63.0334C158.726 63.1677 158.841 63.3277 158.936 63.5134C159.036 63.7028 159.061 63.9017 159.013 64.1103C158.96 64.3236 158.831 64.5635 158.626 64.8303L157.719 66.0094C157.557 66.22 157.389 66.3849 157.215 66.5043C157.041 66.6237 156.878 66.6953 156.726 66.7192C156.595 66.7446 156.443 66.7242 156.27 66.658C156.09 66.5929 155.919 66.5095 155.759 66.408C155.584 66.2874 155.405 66.1567 155.223 66.0159C154.981 65.8281 154.804 65.6803 154.694 65.5723C154.575 65.4655 154.46 65.3392 154.349 65.1934C154.237 65.0394 154.173 64.8896 154.159 64.7439C154.144 64.5983 154.17 64.4243 154.236 64.2219C154.311 64.0184 154.431 63.809 154.597 63.5938L155.504 62.4147C155.81 62.0169 156.125 61.7972 156.447 61.7556C156.579 61.7385 156.732 61.763 156.904 61.8292C157.077 61.8954 157.243 61.9793 157.403 62.0808C157.587 62.2087 157.768 62.3412 157.946 62.4784ZM157.627 62.8925C157.431 62.7409 157.285 62.6354 157.189 62.5762C157.093 62.5169 156.987 62.4758 156.871 62.453C156.758 62.4254 156.653 62.4411 156.555 62.5C156.45 62.5601 156.337 62.6673 156.219 62.8217L155.16 64.1974C154.998 64.4079 154.907 64.5799 154.886 64.7132C154.862 64.8512 154.902 64.9829 155.006 65.1085C155.102 65.2351 155.281 65.3995 155.542 65.6017C155.803 65.804 156.01 65.9374 156.161 66.0022C156.304 66.068 156.439 66.0716 156.566 66.0131C156.689 65.9592 156.832 65.827 156.994 65.6164L158.052 64.2407C158.171 64.0863 158.249 63.952 158.284 63.8378C158.312 63.7247 158.298 63.617 158.243 63.5145C158.191 63.4074 158.125 63.3149 158.043 63.2369C157.962 63.159 157.823 63.0442 157.627 62.8925Z" fill="#3C2B99"/>
<path d="M152.309 63.485L151.003 62.1366C150.736 61.861 150.539 61.6241 150.413 61.4257C150.282 61.2316 150.218 61.0593 150.22 60.9088C150.223 60.7667 150.251 60.648 150.307 60.5527C150.363 60.4574 150.458 60.3439 150.593 60.2121L150.701 60.1071C150.866 59.9465 151.03 59.8695 151.192 59.8761C151.355 59.8827 151.554 59.965 151.789 60.1231L151.814 60.0984C151.422 59.5242 151.398 59.0703 151.74 58.7368L151.924 58.5577C152.131 58.356 152.335 58.2398 152.536 58.2093C152.728 58.1787 152.942 58.2341 153.177 58.3755C153.413 58.5169 153.697 58.7593 154.03 59.1028L155.378 60.4957L152.309 63.485ZM152.247 60.8258C152.083 60.6562 151.947 60.5413 151.84 60.4812C151.728 60.4252 151.628 60.4112 151.54 60.4392C151.448 60.4713 151.339 60.5491 151.212 60.6726L151.174 60.7097C151.06 60.8208 150.991 60.9202 150.969 61.0076C150.943 61.0908 150.963 61.1872 151.028 61.2969C151.084 61.4064 151.197 61.548 151.365 61.7219L152.147 62.5296L153.048 61.6526L152.247 60.8258ZM153.586 59.4724C153.393 59.2732 153.235 59.135 153.111 59.0579C152.987 58.9809 152.879 58.95 152.787 58.9654C152.691 58.9849 152.586 59.0502 152.472 59.1614L152.269 59.359C152.163 59.462 152.117 59.5929 152.132 59.752C152.155 59.9112 152.299 60.1285 152.566 60.4041L153.422 61.2882L154.412 60.3247L153.586 59.4724Z" fill="#3C2B99"/>
<path d="M148.545 59.4337L148.078 58.7881L149.516 57.7411L148.28 56.0337L146.842 57.0807L146.374 56.435L149.837 53.9139L150.304 54.5596L148.752 55.6899L149.988 57.3973L151.54 56.267L152.008 56.9126L148.545 59.4337Z" fill="#3C2B99"/>
<path d="M145.27 54.7913L144.911 54.0596L146.299 53.3744L145.932 52.6267C145.77 52.2979 145.667 52.0263 145.62 51.8119C145.572 51.5922 145.586 51.4073 145.663 51.2571C145.736 51.1096 145.88 50.9823 146.097 50.8752L146.89 50.4837C147.445 50.2096 147.953 50.5419 148.414 51.4805L149.109 52.8963L145.27 54.7913ZM143.583 51.3551L143.232 50.6393L147.071 48.7443L147.422 49.4601L143.583 51.3551ZM147.977 51.7553C147.902 51.6015 147.803 51.4529 147.68 51.3094C147.541 51.1473 147.361 51.121 147.138 51.2307L146.655 51.4695C146.501 51.5452 146.395 51.6238 146.337 51.7054C146.276 51.7817 146.255 51.8807 146.276 52.0024C146.293 52.1188 146.353 52.2804 146.455 52.4872L146.779 53.1474L148.294 52.3996L147.977 51.7553Z" fill="#3C2B99"/>
<path d="M140.051 43.2817L140.414 45.1978L139.824 45.3104L138.937 40.6334L139.528 40.5208L139.891 42.4369L144.937 41.4748L145.097 42.3197L140.051 43.2817Z" fill="#3C2B99"/>
<path d="M144.54 37.0682C144.588 38.3794 144.176 39.051 143.304 39.0829L141.617 39.1447C141.098 39.1637 140.722 39.0296 140.487 38.7425C140.247 38.4497 140.114 37.9696 140.09 37.3022C140.067 36.6702 140.159 36.2114 140.367 35.9258C140.575 35.6343 140.946 35.4788 141.482 35.4591L142.428 35.4245L142.533 38.3039L143.178 38.2802C143.472 38.2694 143.68 38.1583 143.802 37.9468C143.925 37.7354 143.978 37.4141 143.962 36.9829C143.947 36.5753 143.859 36.0966 143.697 35.5465L144.307 35.5242C144.445 36.0633 144.522 36.5779 144.54 37.0682ZM141.936 36.2409L141.264 36.2655C141.005 36.275 140.831 36.3612 140.743 36.5242C140.648 36.6814 140.608 36.949 140.622 37.327C140.635 37.6932 140.695 37.9572 140.801 38.1189C140.901 38.2808 141.081 38.3571 141.34 38.3476L142.011 38.323L141.936 36.2409Z" fill="#3C2B99"/>
<path d="M140.155 33.4945L140.248 32.7021L140.705 32.7559C140.349 32.6486 140.225 32.1429 140.331 31.2389C140.394 30.6989 140.556 30.3044 140.817 30.0555C141.071 29.8058 141.375 29.7017 141.726 29.7432L143.473 29.9493C143.725 29.979 143.94 30.043 144.118 30.1415C144.297 30.234 144.433 30.3452 144.524 30.475C144.611 30.5924 144.673 30.7485 144.71 30.9432C144.747 31.1321 144.763 31.3185 144.76 31.5026C144.758 31.669 144.743 31.8696 144.716 32.1044C144.685 32.3627 144.628 32.597 144.544 32.8072C144.455 33.011 144.349 33.1323 144.226 33.1713L146.236 33.4086L146.143 34.201L140.155 33.4945ZM144.182 32.0236C144.218 31.7184 144.225 31.4841 144.202 31.3208C144.175 31.1509 144.107 31.0238 143.998 30.9396C143.889 30.8553 143.715 30.7991 143.475 30.7707L141.912 30.5863C141.648 30.5553 141.448 30.5674 141.311 30.6226C141.174 30.6778 141.075 30.7852 141.015 30.9447C140.95 31.0977 140.899 31.3297 140.862 31.6408C140.826 31.952 140.821 32.1924 140.849 32.3623C140.871 32.5256 140.943 32.6501 141.063 32.7358C141.184 32.8214 141.376 32.8797 141.639 32.9108L143.202 33.0952C143.436 33.1228 143.619 33.1087 143.75 33.0527C143.876 32.9902 143.972 32.8796 144.038 32.7208C144.098 32.5612 144.146 32.3289 144.182 32.0236Z" fill="#3C2B99"/>
<path d="M145.6 27.4815C145.245 28.7444 144.648 29.2574 143.808 29.0203L142.183 28.5613C141.684 28.4203 141.366 28.1771 141.231 27.8318C141.091 27.4792 141.111 26.9814 141.292 26.3386C141.463 25.7298 141.691 25.3214 141.976 25.1133C142.262 24.8995 142.664 24.8655 143.18 25.0113L144.091 25.2684L143.312 28.0418L143.933 28.2173C144.217 28.2974 144.449 28.2555 144.63 28.0916C144.81 27.9278 144.959 27.6382 145.076 27.2229C145.186 26.8303 145.248 26.3474 145.262 25.7742L145.849 25.94C145.816 26.4955 145.733 27.0093 145.6 27.4815ZM143.373 25.8947L142.726 25.712C142.476 25.6415 142.285 25.6703 142.151 25.7982C142.013 25.9189 141.893 26.1613 141.79 26.5254C141.691 26.8781 141.668 27.1478 141.719 27.3343C141.765 27.5192 141.913 27.6469 142.163 27.7174L142.81 27.9001L143.373 25.8947Z" fill="#3C2B99"/>
<path d="M142.493 22.6117L142.849 21.8982L146.154 23.5569L146.902 22.0586L143.597 20.3999L143.957 19.6784L147.262 21.3371L148.01 19.8387L144.705 18.1801L145.062 17.4665L148.888 19.3871L146.32 24.5323L142.493 22.6117Z" fill="#3C2B99"/>
<path d="M146.063 16.0171L146.551 15.3866L148.011 16.5222C148.065 16.4522 148.094 16.3853 148.099 16.3215C148.103 16.2494 148.097 16.1553 148.082 16.0393L147.721 13.8735L148.317 13.1029L148.725 15.8883C148.786 15.8385 148.916 15.801 149.114 15.7758C149.316 15.746 149.63 15.7168 150.055 15.6883L151.834 15.5576L151.232 16.3351L149.469 16.4448C149.227 16.4586 149.018 16.4936 148.84 16.5499C148.707 16.5962 148.622 16.6344 148.583 16.6645C148.54 16.691 148.505 16.7229 148.476 16.7603C148.447 16.7977 148.427 16.8233 148.416 16.8374L149.932 18.0164L149.444 18.6469L146.063 16.0171Z" fill="#3C2B99"/>
<path d="M153.895 13.6369C153.617 13.8933 153.399 14.0748 153.241 14.1812C153.086 14.292 152.909 14.379 152.711 14.442C152.508 14.509 152.308 14.5008 152.111 14.4175C151.91 14.3299 151.696 14.1622 151.468 13.9145L150.462 12.8194C150.282 12.6239 150.148 12.4302 150.06 12.2384C149.971 12.0466 149.928 11.8733 149.931 11.7186C149.928 11.5847 149.973 11.4381 150.067 11.2788C150.162 11.1111 150.272 10.9567 150.399 10.8154C150.547 10.6625 150.705 10.508 150.874 10.3517C151.1 10.1434 151.275 9.99369 151.399 9.90257C151.524 9.8031 151.668 9.71065 151.83 9.62523C152 9.54016 152.158 9.50267 152.304 9.51279C152.449 9.52291 152.616 9.5778 152.804 9.67748C152.991 9.7855 153.177 9.93946 153.361 10.1394L154.367 11.2344C154.707 11.6038 154.87 11.9513 154.857 12.2771C154.852 12.4107 154.802 12.5571 154.708 12.7164C154.614 12.8757 154.503 13.026 154.377 13.1672C154.22 13.3281 154.059 13.4847 153.895 13.6369ZM153.541 13.2524C153.723 13.0841 153.851 12.9576 153.926 12.8728C154 12.788 154.058 12.69 154.1 12.5787C154.146 12.4719 154.148 12.3653 154.107 12.259C154.066 12.1444 153.979 12.0154 153.847 11.872L152.673 10.5944C152.493 10.3989 152.339 10.2797 152.212 10.2368C152.08 10.1896 151.944 10.2071 151.803 10.2892C151.662 10.3629 151.471 10.512 151.228 10.7363C150.985 10.9606 150.819 11.1421 150.73 11.2807C150.642 11.4109 150.615 11.5437 150.652 11.679C150.684 11.81 150.79 11.9733 150.97 12.1688L152.144 13.4464C152.276 13.5898 152.395 13.6888 152.501 13.7433C152.608 13.7895 152.716 13.7939 152.826 13.7565C152.94 13.7235 153.042 13.6733 153.133 13.6059C153.223 13.5385 153.359 13.4206 153.541 13.2524Z" fill="#3C2B99"/>
<path d="M153.847 7.89957L155.415 6.87075C155.736 6.66046 156.005 6.51201 156.224 6.4254C156.439 6.33385 156.62 6.30347 156.766 6.33427C156.905 6.36335 157.016 6.41432 157.099 6.48718C157.181 6.56004 157.274 6.6756 157.378 6.83388L157.46 6.96001C157.586 7.15292 157.63 7.32871 157.593 7.48739C157.555 7.64608 157.437 7.82618 157.237 8.0277L157.256 8.05738C157.893 7.78101 158.342 7.84315 158.604 8.2438L158.744 8.45896C158.902 8.70132 158.977 8.92411 158.969 9.12731C158.962 9.32232 158.867 9.52231 158.684 9.72725C158.501 9.93219 158.209 10.1657 157.81 10.4277L156.189 11.4905L153.847 7.89957ZM156.462 8.34547C156.659 8.21606 156.798 8.10417 156.877 8.00978C156.953 7.91045 156.986 7.81484 156.975 7.72295C156.961 7.62611 156.906 7.50349 156.809 7.35511L156.78 7.31059C156.693 7.17704 156.609 7.09106 156.527 7.05264C156.451 7.01098 156.353 7.01176 156.233 7.05497C156.115 7.09 155.955 7.17384 155.753 7.30648L154.813 7.92281L155.5 8.97635L156.462 8.34547ZM157.532 9.92123C157.764 9.76917 157.929 9.63948 158.028 9.53215C158.127 9.42483 158.178 9.32446 158.181 9.23104C158.18 9.13267 158.136 9.01672 158.049 8.88317L157.894 8.64575C157.813 8.52209 157.694 8.45219 157.535 8.43605C157.375 8.42808 157.135 8.52925 156.814 8.73954L155.786 9.4141L156.541 10.5715L157.532 9.92123Z" fill="#3C2B99"/>
<path d="M162.006 8.22132C161.66 8.37318 161.395 8.47355 161.211 8.52241C161.029 8.57669 160.833 8.6012 160.625 8.59594C160.411 8.59305 160.225 8.52008 160.066 8.37704C159.905 8.22859 159.756 8.00009 159.622 7.69155L159.025 6.32744C158.919 6.08385 158.855 5.85699 158.834 5.64684C158.813 5.43669 158.828 5.25884 158.881 5.11328C158.921 4.98566 159.012 4.8619 159.153 4.74199C159.296 4.6143 159.451 4.50437 159.617 4.4122C159.806 4.31595 160.006 4.22155 160.217 4.12901C160.498 4.00562 160.712 3.9212 160.859 3.87574C161.01 3.8225 161.175 3.78194 161.356 3.75405C161.545 3.72921 161.706 3.74534 161.841 3.80244C161.975 3.85953 162.115 3.96587 162.26 4.12144C162.402 4.28479 162.528 4.49097 162.637 4.73998L163.233 6.10408C163.434 6.56419 163.476 6.94608 163.357 7.24973C163.309 7.37431 163.214 7.49655 163.074 7.61645C162.933 7.73636 162.78 7.84239 162.614 7.93457C162.414 8.03556 162.211 8.13115 162.006 8.22132ZM161.796 7.74226C162.023 7.64259 162.185 7.56481 162.283 7.5089C162.381 7.45299 162.468 7.37932 162.544 7.28789C162.622 7.20187 162.659 7.10184 162.654 6.98779C162.652 6.86596 162.612 6.71573 162.534 6.53709L161.838 4.94564C161.732 4.70205 161.625 4.53918 161.519 4.45702C161.41 4.36944 161.275 4.34145 161.115 4.37304C160.958 4.39684 160.729 4.47519 160.426 4.60807C160.124 4.74095 159.908 4.85837 159.779 4.96033C159.653 5.05451 159.585 5.17148 159.575 5.31126C159.563 5.44562 159.61 5.6346 159.717 5.87819L160.413 7.46964C160.491 7.64827 160.571 7.78071 160.654 7.86695C160.74 7.9454 160.841 7.98492 160.957 7.98552C161.075 7.99152 161.188 7.9774 161.295 7.94314C161.403 7.90888 161.57 7.84192 161.796 7.74226Z" fill="#3C2B99"/>
<path d="M167.405 1.86596L168.471 6.02163L167.7 6.22038L166.914 3.15514L165.542 6.77688L164.772 6.97563L163.706 2.81996L164.477 2.62121L165.289 5.78948L166.677 2.05367L167.405 1.86596ZM165.403 1.75052C165.021 1.84916 164.694 1.82988 164.421 1.69267C164.147 1.54975 163.959 1.3145 163.857 0.986916L164.49 0.8235C164.645 1.25967 164.913 1.42844 165.296 1.3298C165.672 1.23263 165.826 0.954922 165.757 0.496668L166.391 0.333252C166.463 0.662468 166.411 0.956691 166.234 1.21592C166.063 1.47368 165.786 1.65188 165.403 1.75052Z" fill="#3C2B99"/>
<path d="M42.8851 18.3738C43.6283 18.5601 44.2752 18.8728 44.8257 19.312C45.3762 19.7512 45.8579 20.3501 46.2708 21.1087L48.4591 25.1611H46.4566L44.4954 21.6477C44.11 20.9689 43.7178 20.4565 43.3186 20.1105C42.9195 19.7512 42.4516 19.505 41.9148 19.3719C41.3918 19.2255 40.7243 19.1523 39.9123 19.1523V25.1611H37.8892V12.2052H39.9123V17.7948C40.7381 17.7948 41.3781 17.7216 41.8322 17.5752C42.2864 17.4155 42.6993 17.0762 43.0709 16.5571L46.2708 12.2052H48.4591L44.6399 17.0562C44.1306 17.695 43.5457 18.1342 42.8851 18.3738Z" fill="#3C2B99"/>
<path d="M52.6591 25.3008L48.7986 15.4991H50.8217L53.6087 23.3844H53.65L56.1686 15.4991H58.0473L53.0307 29.3134H51.0901L52.6591 25.3008Z" fill="#3C2B99"/>
<path d="M59.3884 25.1811C59.1819 25.1811 58.9824 25.1611 58.7897 25.1212V23.584C58.9824 23.624 59.175 23.6439 59.3677 23.6439C59.9595 23.6439 60.4275 23.2314 60.7715 22.4062C61.1294 21.5678 61.3083 20.024 61.3083 17.7749V15.4991H68.1003V25.1611H66.2423V16.6769H62.9598V18.0743C62.9598 20.2702 62.6915 22.007 62.1547 23.2846C61.618 24.5489 60.6958 25.1811 59.3884 25.1811Z" fill="#3C2B99"/>
<path d="M71.3124 15.4991H73.1704V18.9926H75.7303C76.5836 18.9926 77.258 19.0525 77.7535 19.1723C78.2627 19.292 78.6343 19.505 78.8683 19.8111C79.1022 20.1039 79.2192 20.5231 79.2192 21.0687V23.065C79.2192 24.4624 78.0012 25.1611 75.5652 25.1611H71.3124V15.4991ZM75.4413 24.0033C75.8404 24.0033 76.2533 23.95 76.68 23.8436C77.1617 23.7238 77.4025 23.3844 77.4025 22.8255V21.6077C77.4025 21.2218 77.3475 20.929 77.2374 20.7294C77.141 20.5297 76.9552 20.39 76.68 20.3101C76.4185 20.2303 76.0194 20.1904 75.4826 20.1904H73.1498V24.0033H75.4413Z" fill="#3C2B99"/>
<path d="M83.9718 16.8167H80.4622V15.4991H89.3187V16.8167H85.8298V25.1611H83.9718V16.8167Z" fill="#3C2B99"/>
<path d="M93.9277 25.3008L90.0672 15.4991H92.0904L94.8774 23.3844H94.9186L97.4373 15.4991H99.3159L94.2993 29.3134H92.3587L93.9277 25.3008Z" fill="#3C2B99"/>
<path d="M101.049 15.4991H102.907V16.5372C103.059 15.712 104.194 15.2995 106.314 15.2995C107.58 15.2995 108.536 15.559 109.183 16.078C109.83 16.5838 110.153 17.2359 110.153 18.0344V22.007C110.153 22.5792 110.064 23.0783 109.885 23.5042C109.72 23.9301 109.5 24.2628 109.224 24.5023C108.977 24.7286 108.633 24.9082 108.192 25.0413C107.766 25.1744 107.339 25.2609 106.912 25.3008C106.527 25.3408 106.059 25.3607 105.508 25.3607C104.903 25.3607 104.345 25.2942 103.836 25.1611C103.341 25.0147 103.031 24.8084 102.907 24.5423V29.1137H101.049V15.4991ZM105.55 24.143C106.265 24.143 106.809 24.0964 107.181 24.0033C107.566 23.8968 107.841 23.7105 108.006 23.4443C108.172 23.1781 108.254 22.7722 108.254 22.2266V18.6732C108.254 18.0743 108.172 17.6285 108.006 17.3357C107.841 17.0429 107.566 16.8499 107.181 16.7568C106.809 16.6503 106.258 16.5971 105.529 16.5971C104.8 16.5971 104.242 16.6503 103.857 16.7568C103.485 16.8499 103.217 17.0429 103.052 17.3357C102.887 17.6285 102.804 18.0743 102.804 18.6732V22.2266C102.804 22.7589 102.887 23.1648 103.052 23.4443C103.231 23.7105 103.513 23.8968 103.898 24.0033C104.284 24.0964 104.834 24.143 105.55 24.143Z" fill="#3C2B99"/>
<path d="M113.004 15.4991H114.862V19.5116H119.776V15.4991H121.634V25.1611H119.776V20.8292H114.862V25.1611H113.004V15.4991Z" fill="#3C2B99"/>
<path d="M129.091 25.3607C128.21 25.3607 127.549 25.3275 127.109 25.2609C126.669 25.2077 126.228 25.0813 125.788 24.8816C125.334 24.682 125.003 24.3626 124.797 23.9234C124.59 23.4709 124.487 22.8654 124.487 22.1068V18.753C124.487 18.1542 124.563 17.6285 124.714 17.176C124.866 16.7235 125.065 16.3708 125.313 16.118C125.519 15.8917 125.829 15.7187 126.242 15.5989C126.669 15.4658 127.102 15.3793 127.543 15.3394C128.038 15.3128 128.554 15.2995 129.091 15.2995C129.807 15.2995 130.343 15.3194 130.701 15.3594C131.073 15.386 131.465 15.4525 131.878 15.559C132.305 15.6788 132.635 15.8584 132.869 16.098C133.103 16.3375 133.302 16.6836 133.468 17.1361C133.619 17.6019 133.695 18.1409 133.695 18.753V22.1068C133.695 23.238 133.426 24.0632 132.889 24.5822C132.669 24.7951 132.353 24.9615 131.94 25.0813C131.527 25.201 131.1 25.2809 130.66 25.3208C130.137 25.3474 129.614 25.3607 129.091 25.3607ZM129.091 24.1829C129.669 24.1829 130.089 24.1696 130.35 24.143C130.612 24.1164 130.866 24.0432 131.114 23.9234C131.362 23.8169 131.534 23.6439 131.63 23.4044C131.74 23.1515 131.795 22.8055 131.795 22.3663V18.4536C131.795 17.8547 131.72 17.4222 131.568 17.156C131.417 16.8765 131.155 16.6969 130.784 16.617C130.426 16.5239 129.862 16.4773 129.091 16.4773C128.32 16.4773 127.749 16.5239 127.377 16.617C127.02 16.6969 126.765 16.8765 126.614 17.156C126.462 17.4222 126.387 17.8547 126.387 18.4536V22.3663C126.387 22.8055 126.435 23.1515 126.531 23.4044C126.641 23.6439 126.82 23.8169 127.068 23.9234C127.316 24.0432 127.57 24.1164 127.832 24.143C128.093 24.1696 128.513 24.1829 129.091 24.1829Z" fill="#3C2B99"/>
<path d="M0.25 32.9385H6.55982V40.4832H5.17135V33.9673H1.63847V40.4832H0.25V32.9385Z" fill="#3C2B99"/>
<path d="M9.06136 32.9385H10.4498V33.7491C10.563 33.1048 11.4115 32.7826 12.9954 32.7826C13.9416 32.7826 14.6564 32.9853 15.1398 33.3906C15.6232 33.7855 15.8649 34.2947 15.8649 34.9182V38.0203C15.8649 38.4672 15.798 38.8569 15.6643 39.1894C15.5409 39.522 15.3763 39.7818 15.1706 39.9688C14.9855 40.1455 14.7284 40.2858 14.3993 40.3897C14.0804 40.4936 13.7616 40.5612 13.4428 40.5924C13.1548 40.6235 12.8051 40.6391 12.3937 40.6391C11.9411 40.6391 11.5246 40.5872 11.1441 40.4832C10.7738 40.3689 10.5424 40.2079 10.4498 40V43.5697H9.06136V32.9385ZM12.4245 39.6882C12.9594 39.6882 13.3656 39.6519 13.6433 39.5791C13.9313 39.496 14.137 39.3505 14.2604 39.1427C14.3838 38.9348 14.4455 38.6178 14.4455 38.1918V35.4171C14.4455 34.9494 14.3838 34.6013 14.2604 34.3726C14.137 34.144 13.9313 33.9933 13.6433 33.9206C13.3656 33.8374 12.9542 33.7959 12.4091 33.7959C11.864 33.7959 11.4475 33.8374 11.1595 33.9206C10.8818 33.9933 10.6812 34.144 10.5578 34.3726C10.4344 34.6013 10.3727 34.9494 10.3727 35.4171V38.1918C10.3727 38.6075 10.4344 38.9244 10.5578 39.1427C10.6915 39.3505 10.9024 39.496 11.1903 39.5791C11.4783 39.6519 11.8897 39.6882 12.4245 39.6882Z" fill="#3C2B99"/>
<path d="M21.158 40.6391C20.4998 40.6391 20.0061 40.6131 19.677 40.5612C19.3479 40.5196 19.0188 40.4209 18.6896 40.265C18.3502 40.1091 18.1034 39.8597 17.9491 39.5168C17.7949 39.1634 17.7177 38.6906 17.7177 38.0982V35.4794C17.7177 35.0118 17.7743 34.6013 17.8874 34.2479C18.0006 33.8946 18.1497 33.6192 18.3348 33.4218C18.4891 33.2451 18.7205 33.11 19.0291 33.0165C19.3479 32.9125 19.6719 32.845 20.001 32.8138C20.3712 32.793 20.7569 32.7826 21.158 32.7826C21.6929 32.7826 22.094 32.7982 22.3614 32.8294C22.6391 32.8502 22.9322 32.9022 23.2407 32.9853C23.5596 33.0788 23.8064 33.2191 23.9813 33.4062C24.1561 33.5932 24.3052 33.8634 24.4287 34.2168C24.5418 34.5805 24.5984 35.0014 24.5984 35.4794V38.0982C24.5984 38.9816 24.3978 39.6259 23.9967 40.0312C23.8321 40.1975 23.5956 40.3274 23.287 40.4209C22.9785 40.5144 22.6596 40.5768 22.3305 40.608C21.9397 40.6287 21.5489 40.6391 21.158 40.6391ZM21.158 39.7194C21.59 39.7194 21.9037 39.709 22.0991 39.6882C22.2945 39.6675 22.4848 39.6103 22.6699 39.5168C22.8551 39.4336 22.9836 39.2985 23.0556 39.1115C23.1379 38.914 23.179 38.6438 23.179 38.3009V35.2456C23.179 34.7779 23.1225 34.4402 23.0093 34.2323C22.8962 34.0141 22.7008 33.8738 22.4231 33.8115C22.1557 33.7387 21.734 33.7023 21.158 33.7023C20.5821 33.7023 20.1553 33.7387 19.8776 33.8115C19.6102 33.8738 19.4199 34.0141 19.3067 34.2323C19.1936 34.4402 19.137 34.7779 19.137 35.2456V38.3009C19.137 38.6438 19.173 38.914 19.245 39.1115C19.3273 39.2985 19.461 39.4336 19.6461 39.5168C19.8313 39.6103 20.0215 39.6675 20.217 39.6882C20.4124 39.709 20.7261 39.7194 21.158 39.7194Z" fill="#3C2B99"/>
<path d="M29.7721 40.6391C29.2578 40.6391 28.8824 40.6287 28.6459 40.608C28.4196 40.5872 28.1574 40.5352 27.8591 40.4521C27.5403 40.3689 27.2934 40.2442 27.1186 40.0779C26.9437 39.9117 26.7946 39.6675 26.6712 39.3453C26.5478 39.0335 26.486 38.6438 26.486 38.1762V35.4015C26.486 34.5597 26.6455 33.957 26.9643 33.5932C27.1391 33.3854 27.314 33.2295 27.4888 33.1256C27.674 33.0113 27.9105 32.9333 28.1985 32.8918C28.4865 32.8502 28.7436 32.8242 28.9699 32.8138C29.1961 32.793 29.515 32.7826 29.9264 32.7826C30.636 32.7826 31.3457 32.8606 32.0554 33.0165V34.0453C31.2326 33.8374 30.4663 33.7335 29.7567 33.7335C29.2218 33.7335 28.8259 33.7751 28.5688 33.8582C28.3219 33.931 28.1471 34.0713 28.0442 34.2791C27.9517 34.4766 27.9054 34.7831 27.9054 35.1988V38.2853C27.9054 38.6698 27.9568 38.9556 28.0596 39.1427C28.1728 39.3297 28.3682 39.4648 28.6459 39.5479C28.9339 39.6207 29.3556 39.6571 29.9109 39.6571C30.6617 39.6571 31.4125 39.5583 32.1633 39.3609V40.4209C31.464 40.5664 30.6669 40.6391 29.7721 40.6391Z" fill="#3C2B99"/>
<path d="M34.0126 32.9385H37.2832C37.9517 32.9385 38.4865 32.9801 38.8877 33.0632C39.2888 33.136 39.5819 33.2659 39.767 33.4529C39.9419 33.6296 40.055 33.8115 40.1064 33.9985C40.1579 34.1856 40.1836 34.4454 40.1836 34.7779V35.0429C40.1836 35.4482 40.0807 35.7496 39.875 35.9471C39.6693 36.1445 39.3248 36.2952 38.8414 36.3991V36.4615C40.0344 36.6693 40.631 37.1941 40.631 38.0359V38.4879C40.631 38.9972 40.5281 39.3973 40.3224 39.6882C40.127 39.9688 39.7979 40.1715 39.3351 40.2962C38.8722 40.4209 38.2243 40.4832 37.3912 40.4832H34.0126V32.9385ZM37.4066 36.1185C37.818 36.1185 38.1266 36.0874 38.3323 36.025C38.538 35.9523 38.6768 35.8431 38.7488 35.6976C38.8208 35.5418 38.8568 35.3079 38.8568 34.9962V34.9026C38.8568 34.6221 38.8157 34.4142 38.7334 34.2791C38.6614 34.144 38.5174 34.0505 38.3014 33.9985C38.0957 33.9362 37.782 33.905 37.3603 33.905H35.4011V36.1185H37.4066ZM37.4683 39.47C37.9517 39.47 38.3168 39.4388 38.5637 39.3765C38.8105 39.3141 38.9802 39.2154 39.0728 39.0803C39.1654 38.9348 39.2116 38.7218 39.2116 38.4412V37.9424C39.2116 37.6826 39.1036 37.4643 38.8877 37.2876C38.6614 37.1214 38.214 37.0382 37.5455 37.0382H35.4011V39.47H37.4683Z" fill="#3C2B99"/>
<path d="M45.9109 40.6391C43.6276 40.6391 42.486 39.8701 42.486 38.3321V35.3547C42.486 34.4402 42.7431 33.7855 43.2574 33.3906C43.7819 32.9853 44.6253 32.7826 45.7875 32.7826C46.888 32.7826 47.6799 32.9749 48.1633 33.3594C48.657 33.7439 48.9038 34.409 48.9038 35.3547V37.0226H43.8899V38.1606C43.8899 38.6802 44.0699 39.0543 44.4298 39.2829C44.7898 39.5116 45.3452 39.6259 46.096 39.6259C46.8057 39.6259 47.6439 39.5012 48.6107 39.2518V40.3274C47.6645 40.5352 46.7645 40.6391 45.9109 40.6391ZM47.5153 36.1029V34.9182C47.5153 34.461 47.3765 34.1492 47.0988 33.9829C46.8314 33.8063 46.3686 33.7179 45.7103 33.7179C45.0727 33.7179 44.6098 33.8063 44.3219 33.9829C44.0339 34.1492 43.8899 34.461 43.8899 34.9182V36.1029H47.5153Z" fill="#3C2B99"/>
<path d="M52.9019 33.9673H50.2793V32.9385H56.8976V33.9673H54.2904V40.4832H52.9019V33.9673Z" fill="#3C2B99"/>
<path d="M65.2324 32.9385V40.4832H63.844V34.9182L59.9562 40.4832H58.5678V32.9385H59.9562V38.6906L63.9211 32.9385H65.2324Z" fill="#3C2B99"/>
<path d="M69.5196 33.9673H66.8969V32.9385H73.5153V33.9673H70.908V40.4832H69.5196V33.9673Z" fill="#3C2B99"/>
<path d="M78.3326 40.6391C76.0494 40.6391 74.9077 39.8701 74.9077 38.3321V35.3547C74.9077 34.4402 75.1648 33.7855 75.6791 33.3906C76.2036 32.9853 77.047 32.7826 78.2092 32.7826C79.3097 32.7826 80.1016 32.9749 80.585 33.3594C81.0787 33.7439 81.3255 34.409 81.3255 35.3547V37.0226H76.3116V38.1606C76.3116 38.6802 76.4916 39.0543 76.8516 39.2829C77.2115 39.5116 77.7669 39.6259 78.5177 39.6259C79.2274 39.6259 80.0656 39.5012 81.0324 39.2518V40.3274C80.0862 40.5352 79.1863 40.6391 78.3326 40.6391ZM79.9371 36.1029V34.9182C79.9371 34.461 79.7982 34.1492 79.5205 33.9829C79.2531 33.8063 78.7903 33.7179 78.1321 33.7179C77.4944 33.7179 77.0316 33.8063 76.7436 33.9829C76.4556 34.1492 76.3116 34.461 76.3116 34.9182V36.1029H79.9371Z" fill="#3C2B99"/>
<path d="M83.1484 40.4988C82.9941 40.4988 82.845 40.4832 82.701 40.4521V39.2518C82.845 39.2829 82.989 39.2985 83.133 39.2985C83.5752 39.2985 83.9249 38.9764 84.182 38.3321C84.4494 37.6774 84.5831 36.4719 84.5831 34.7156V32.9385H89.6588V40.4832H88.2703V33.8582H85.8173V34.9494C85.8173 36.6641 85.6168 38.0203 85.2157 39.0179C84.8145 40.0052 84.1255 40.4988 83.1484 40.4988Z" fill="#3C2B99"/>
<path d="M92.0592 32.9385H93.4476V35.6665H95.3606C95.9983 35.6665 96.5023 35.7132 96.8725 35.8068C97.2531 35.9003 97.5308 36.0666 97.7056 36.3056C97.8805 36.5342 97.9679 36.8616 97.9679 37.2876V38.8465C97.9679 39.9377 97.0577 40.4832 95.2372 40.4832H92.0592V32.9385ZM95.1447 39.5791C95.4429 39.5791 95.7515 39.5376 96.0703 39.4544C96.4303 39.3609 96.6103 39.0959 96.6103 38.6594V37.7085C96.6103 37.4072 96.5691 37.1785 96.4868 37.0226C96.4149 36.8668 96.276 36.7576 96.0703 36.6953C95.8749 36.6329 95.5766 36.6018 95.1755 36.6018H93.4322V39.5791H95.1447Z" fill="#3C2B99"/>
<path d="M102.646 40.6391C102.131 40.6391 101.756 40.6287 101.519 40.608C101.293 40.5872 101.031 40.5352 100.733 40.4521C100.414 40.3689 100.167 40.2442 99.9921 40.0779C99.8173 39.9117 99.6682 39.6675 99.5447 39.3453C99.4213 39.0335 99.3596 38.6438 99.3596 38.1762V35.4015C99.3596 34.5597 99.519 33.957 99.8379 33.5932C100.013 33.3854 100.188 33.2295 100.362 33.1256C100.548 33.0113 100.784 32.9333 101.072 32.8918C101.36 32.8502 101.617 32.8242 101.843 32.8138C102.07 32.793 102.389 32.7826 102.8 32.7826C103.51 32.7826 104.219 32.8606 104.929 33.0165V34.0453C104.106 33.8374 103.34 33.7335 102.63 33.7335C102.095 33.7335 101.699 33.7751 101.442 33.8582C101.195 33.931 101.021 34.0713 100.918 34.2791C100.825 34.4766 100.779 34.7831 100.779 35.1988V38.2853C100.779 38.6698 100.83 38.9556 100.933 39.1427C101.046 39.3297 101.242 39.4648 101.519 39.5479C101.807 39.6207 102.229 39.6571 102.785 39.6571C103.535 39.6571 104.286 39.5583 105.037 39.3609V40.4209C104.338 40.5664 103.54 40.6391 102.646 40.6391Z" fill="#3C2B99"/>
<path d="M106.778 32.9385H108.167V36.1965C108.321 36.1965 108.444 36.1653 108.537 36.1029C108.64 36.0302 108.763 35.9211 108.907 35.7756L111.499 32.9385H113.196L109.802 36.5082C109.936 36.5394 110.126 36.6797 110.373 36.9291C110.63 37.1785 111.005 37.5838 111.499 38.145L113.582 40.4832H111.869L109.833 38.145C109.555 37.8228 109.283 37.5682 109.015 37.3812C108.809 37.2461 108.665 37.1681 108.583 37.1474C108.501 37.1162 108.419 37.1006 108.336 37.1006C108.254 37.1006 108.197 37.1006 108.167 37.1006V40.4832H106.778V32.9385Z" fill="#3C2B99"/>
<path d="M121.202 32.9385V40.4832H119.814V34.9182L115.926 40.4832H114.537V32.9385H115.926V38.6906L119.891 32.9385H121.202Z" fill="#3C2B99"/>
<path d="M130.272 32.9385V40.4832H128.883V34.9182L124.996 40.4832H123.607V32.9385H124.996V38.6906L128.96 32.9385H130.272ZM126.939 31.8629C126.25 31.8629 125.705 31.6863 125.304 31.3329C124.903 30.9692 124.687 30.486 124.656 29.8832H125.798C125.87 30.6938 126.25 31.0991 126.939 31.0991C127.618 31.0991 127.999 30.6938 128.081 29.8832H129.223C129.202 30.4756 128.986 30.9536 128.575 31.3173C128.174 31.6811 127.629 31.8629 126.939 31.8629Z" fill="#3C2B99"/>
<path d="M9.56539 59.5313H0.25V48.3633H2.29484V58.0084H7.72503V48.3633H9.76988V58.0084H11.3149V62.3926H9.56539V59.5313Z" fill="#3C2B99"/>
<path d="M18.3942 59.7621C15.0316 59.7621 13.3503 58.6237 13.3503 56.347V51.9398C13.3503 50.5861 13.729 49.617 14.4863 49.0324C15.2588 48.4325 16.5009 48.1325 18.2125 48.1325C19.8332 48.1325 20.9995 48.4171 21.7114 48.9863C22.4385 49.5554 22.802 50.54 22.802 51.9398V54.4088H15.4179V56.0932C15.4179 56.8624 15.6829 57.4162 16.2131 57.7546C16.7432 58.093 17.5612 58.2622 18.6669 58.2622C19.712 58.2622 20.9465 58.0776 22.3703 57.7084V59.3006C20.9768 59.6082 19.6514 59.7621 18.3942 59.7621ZM20.7572 53.0474V51.2937C20.7572 50.6169 20.5527 50.1554 20.1437 49.9092C19.7499 49.6477 19.0683 49.517 18.0989 49.517C17.1598 49.517 16.4782 49.6477 16.054 49.9092C15.6299 50.1554 15.4179 50.6169 15.4179 51.2937V53.0474H20.7572Z" fill="#3C2B99"/>
<path d="M25.9183 48.3633H27.9631V53.0012H33.3706V48.3633H35.4154V59.5313H33.3706V54.5242H27.9631V59.5313H25.9183V48.3633Z" fill="#3C2B99"/>
<path d="M41.7367 49.8862H37.8742V48.3633H47.6213V49.8862H43.7815V59.5313H41.7367V49.8862Z" fill="#3C2B99"/>
<path d="M50.081 48.3633H52.1258V49.5631C52.2924 48.6094 53.542 48.1325 55.8747 48.1325C57.2682 48.1325 58.3209 48.4325 59.0328 49.0324C59.7447 49.617 60.1007 50.3707 60.1007 51.2937V55.8856C60.1007 56.547 60.0022 57.1239 59.8053 57.6161C59.6235 58.1084 59.3812 58.493 59.0783 58.7699C58.8056 59.0314 58.4269 59.2391 57.9422 59.3929C57.4727 59.5467 57.0031 59.6467 56.5336 59.6929C56.1094 59.739 55.5945 59.7621 54.9886 59.7621C54.3221 59.7621 53.7087 59.6852 53.1482 59.5313C52.6029 59.3621 52.2621 59.1237 52.1258 58.816V64.1001H50.081V48.3633ZM55.034 58.3545C55.8217 58.3545 56.42 58.3007 56.8289 58.193C57.253 58.0699 57.556 57.8546 57.7377 57.5469C57.9195 57.2393 58.0104 56.7701 58.0104 56.1394V52.0321C58.0104 51.3399 57.9195 50.8245 57.7377 50.4861C57.556 50.1477 57.253 49.9246 56.8289 49.8169C56.42 49.6939 55.8141 49.6324 55.0113 49.6324C54.2085 49.6324 53.595 49.6939 53.1709 49.8169C52.762 49.9246 52.4666 50.1477 52.2848 50.4861C52.1031 50.8245 52.0122 51.3399 52.0122 52.0321V56.1394C52.0122 56.7547 52.1031 57.2239 52.2848 57.5469C52.4817 57.8546 52.7923 58.0699 53.2164 58.193C53.6405 58.3007 54.2464 58.3545 55.034 58.3545Z" fill="#3C2B99"/>
<path d="M78.29 48.3633V59.5313H76.2452V51.2937L70.5196 59.5313H68.4748V48.3633H70.5196V56.8778L76.3588 48.3633H78.29Z" fill="#3C2B99"/>
<path d="M81.9682 48.3633H85.2627L88.6026 57.4546H88.6935L91.8062 48.3633H94.9871V59.5313H93.1013V50.2554H92.9877L89.6023 59.5313H87.5348L84.0131 50.2554H83.8995V59.5313H81.9682V48.3633Z" fill="#3C2B99"/>
<path d="M103.308 59.7621C99.9449 59.7621 98.2636 58.6237 98.2636 56.347V51.9398C98.2636 50.5861 98.6423 49.617 99.3996 49.0324C100.172 48.4325 101.414 48.1325 103.126 48.1325C104.747 48.1325 105.913 48.4171 106.625 48.9863C107.352 49.5554 107.715 50.54 107.715 51.9398V54.4088H100.331V56.0932C100.331 56.8624 100.596 57.4162 101.126 57.7546C101.657 58.093 102.474 58.2622 103.58 58.2622C104.625 58.2622 105.86 58.0776 107.284 57.7084V59.3006C105.89 59.6082 104.565 59.7621 103.308 59.7621ZM105.67 53.0474V51.2937C105.67 50.6169 105.466 50.1554 105.057 49.9092C104.663 49.6477 103.982 49.517 103.012 49.517C102.073 49.517 101.391 49.6477 100.967 49.9092C100.543 50.1554 100.331 50.6169 100.331 51.2937V53.0474H105.67Z" fill="#3C2B99"/>
<path d="M110.832 48.3633H112.876V53.0012H118.284V48.3633H120.329V59.5313H118.284V54.5242H112.876V59.5313H110.832V48.3633Z" fill="#3C2B99"/>
<path d="M133.693 48.3633V59.5313H131.648V51.2937L125.923 59.5313H123.878V48.3633H125.923V56.8778L131.762 48.3633H133.693Z" fill="#3C2B99"/>
<path d="M0.25 19.7044H3.8051V20.284H1.12082V25.2366H0.25V19.7044Z" fill="#3C2B99"/>
<path d="M6.52319 19.7044H7.52868L9.79102 25.2366H8.88429L8.21995 23.5573H5.72419L5.06883 25.2366H4.20699L6.52319 19.7044ZM8.00449 22.9862L7.01696 20.4886H6.93616L5.94863 22.9862H8.00449Z" fill="#3C2B99"/>
<path d="M15.0819 19.7044L12.8375 24.2563C12.7118 24.512 12.5951 24.7138 12.4874 24.8615C12.3796 25.0093 12.251 25.1229 12.1013 25.2025C11.9517 25.282 11.7662 25.3218 11.5447 25.3218C11.3053 25.3218 11.054 25.2934 10.7906 25.2366V24.6399C10.9642 24.6797 11.1467 24.6996 11.3382 24.6996C11.5357 24.6996 11.6914 24.6456 11.8051 24.5376C11.9188 24.4239 12.0385 24.2392 12.1642 23.9835L12.2629 23.7704L9.92877 19.7044H10.8983L12.6579 22.9521L14.22 19.7044H15.0819Z" fill="#3C2B99"/>
<path d="M17.7387 22.3383C18.0619 22.4179 18.3432 22.5515 18.5826 22.739C18.822 22.9265 19.0315 23.1822 19.211 23.5062L20.1627 25.2366H19.2918L18.439 23.7363C18.2714 23.4465 18.1008 23.2277 17.9273 23.08C17.7537 22.9265 17.5502 22.8214 17.3168 22.7646C17.0894 22.702 16.7991 22.6708 16.446 22.6708V25.2366H15.5662V19.7044H16.446V22.0911C16.8051 22.0911 17.0834 22.0599 17.2809 21.9974C17.4784 21.9292 17.6579 21.7843 17.8195 21.5626L19.211 19.7044H20.1627L18.5018 21.7757C18.2804 22.0485 18.026 22.2361 17.7387 22.3383Z" fill="#3C2B99"/>
<path d="M27.0656 19.7044V25.2366H26.1948V23.1311H24.8661L23.6811 25.2366H22.6128L24.0043 22.9862C23.6931 22.9294 23.4417 22.8157 23.2502 22.6452C23.0646 22.4747 22.9719 22.2588 22.9719 21.9974V20.7869C22.9719 20.4914 23.0377 20.267 23.1694 20.1135C23.301 19.9601 23.5105 19.855 23.7978 19.7981C24.0911 19.7356 24.498 19.7044 25.0187 19.7044H27.0656ZM26.1948 20.2499H24.9739C24.2197 20.2499 23.8427 20.4573 23.8427 20.8722V21.8951C23.8427 22.1281 23.9325 22.3014 24.112 22.4151C24.2916 22.5287 24.6058 22.5855 25.0547 22.5855H26.1948V20.2499Z" fill="#3C2B99"/>
<path d="M30.8569 25.3218C29.2289 25.3218 28.415 24.8217 28.415 23.8216V21.2046C28.415 20.1476 29.2289 19.6191 30.8569 19.6191C32.5028 19.6191 33.3257 20.1448 33.3257 21.1961V23.8216C33.3257 24.3557 33.0983 24.7393 32.6434 24.9723C32.1885 25.2053 31.593 25.3218 30.8569 25.3218ZM30.8748 24.7678C31.9462 24.7678 32.4818 24.4495 32.4818 23.813V21.1791C32.4818 20.4971 31.9432 20.1561 30.8659 20.1561C30.3452 20.1561 29.9442 20.2329 29.6629 20.3863C29.3876 20.5397 29.2499 20.804 29.2499 21.1791V23.813C29.2499 24.4495 29.7915 24.7678 30.8748 24.7678Z" fill="#3C2B99"/>
</g>
<defs>
<clipPath id="clip0_117_118">
<rect width="213" height="74" fill="white"/>
</clipPath>
</defs>
</svg>
