<svg width="44" height="44" viewBox="0 0 44 44" fill="none" xmlns="http://www.w3.org/2000/svg">
<g clip-path="url(#clip0_187_20)">
<path d="M44 21.9477V22.0023C44 22.0568 44 22.1114 44 22.166C44 22.2296 44 22.2978 44 22.3615C44 22.5615 43.9955 22.7661 43.9818 22.9662C43.9773 23.1663 43.9636 23.3709 43.95 23.5709C43.9 24.2757 43.8181 24.9714 43.7045 25.6534C43.6863 25.7671 43.6681 25.8762 43.6453 25.9899C43.6272 26.0945 43.6044 26.1945 43.5817 26.2991C43.5317 26.5582 43.4771 26.8174 43.4135 27.072C43.2998 27.5676 43.1634 28.0496 43.0179 28.5316C42.8633 29.0317 42.6905 29.5273 42.4995 30.0138C42.3677 30.3503 42.2267 30.6822 42.0812 31.0051C42.0539 31.0687 42.0267 31.1369 41.9948 31.2006C41.9494 31.3006 41.8993 31.4052 41.8493 31.5052V31.5098V31.5143C41.7811 31.6598 41.7084 31.8053 41.6356 31.9463C41.5356 32.1418 41.4356 32.3373 41.3264 32.5283C41.2491 32.6692 41.1719 32.8147 41.09 32.9511C41.0354 33.0466 40.9809 33.1421 40.9263 33.233C40.8899 33.2967 40.8536 33.3558 40.8172 33.4194C40.7535 33.524 40.6899 33.6286 40.6217 33.7332C40.5762 33.8059 40.5307 33.8741 40.4853 33.9469C40.3762 34.1242 40.2579 34.297 40.1397 34.4652C40.0442 34.5971 39.9533 34.7335 39.8578 34.8608C39.7942 34.9517 39.7305 35.0427 39.6623 35.1291C39.5668 35.2518 39.4759 35.3746 39.3804 35.4974C39.344 35.5474 39.3031 35.5974 39.2667 35.6474C39.2122 35.7202 39.1576 35.7884 39.0985 35.8566C39.053 35.9111 39.003 35.9702 38.9575 36.0248C38.9212 36.0703 38.8848 36.1157 38.8484 36.1567C38.7757 36.243 38.7075 36.3249 38.6347 36.4067C38.5801 36.4749 38.521 36.5386 38.4619 36.6023C38.421 36.6523 38.3755 36.6977 38.3346 36.7478C38.3255 36.7614 38.3119 36.775 38.2982 36.7887C38.2118 36.8796 38.13 36.9751 38.0436 37.066C37.989 37.1206 37.939 37.1797 37.8799 37.2343C37.8708 37.2434 37.8617 37.2525 37.8526 37.2615C37.8072 37.307 37.7617 37.357 37.7162 37.4025C37.5798 37.5389 37.4434 37.6753 37.3025 37.8117C37.2525 37.8617 37.2024 37.9118 37.1524 37.9572C37.0524 38.0527 36.9478 38.1482 36.8432 38.2437C36.8296 38.2573 36.816 38.271 36.7978 38.2846C36.775 38.3073 36.7478 38.3301 36.725 38.3482C36.6568 38.4119 36.5932 38.4665 36.5295 38.5256C36.4067 38.6347 36.2794 38.7393 36.1521 38.8484C36.0612 38.9212 35.9702 38.9985 35.8838 39.0712L35.6247 39.2758C35.4883 39.3804 35.3519 39.485 35.2155 39.5895C35.1063 39.6714 35.0018 39.7487 34.8926 39.826C34.8881 39.8305 34.8835 39.8305 34.879 39.8351C34.6835 39.976 34.488 40.1124 34.2879 40.2488L34.0333 40.4171C33.906 40.4989 33.7787 40.5808 33.6513 40.6626C33.6059 40.6899 33.5604 40.7217 33.5149 40.749C33.4149 40.8127 33.3149 40.8718 33.2148 40.9309C33.2057 40.9354 33.2012 40.94 33.1921 40.9445C33.1284 40.9809 33.0693 41.0173 33.0057 41.0536C32.7329 41.2128 32.4601 41.3583 32.1782 41.5038C32.0918 41.5492 32.0054 41.5947 31.9144 41.6402C31.8508 41.672 31.7871 41.7084 31.7189 41.7357C31.5552 41.8175 31.3915 41.8948 31.2279 41.9721C31.1824 41.9903 31.1415 42.013 31.1005 42.0312C30.9596 42.0949 30.8141 42.1585 30.6731 42.2176C30.5913 42.254 30.514 42.2858 30.4322 42.3177C30.3139 42.3677 30.1912 42.4177 30.0684 42.4677C29.9638 42.5086 29.8547 42.5496 29.7456 42.5905C29.6501 42.6268 29.5501 42.6632 29.45 42.6996C29.3273 42.7451 29.2045 42.786 29.0817 42.8269C29.0726 42.8269 29.0681 42.8315 29.059 42.836C28.9635 42.8678 28.8635 42.8997 28.7635 42.9315C28.2951 43.0815 27.8177 43.2179 27.3357 43.3362L27.1766 43.3771C27.1175 43.3907 27.0538 43.4044 26.9947 43.418C26.922 43.4316 26.8492 43.4498 26.7719 43.468C26.7174 43.4817 26.6628 43.4953 26.6037 43.5044C26.5764 43.5089 26.5491 43.5135 26.5173 43.5226C26.4264 43.5408 26.3354 43.559 26.2445 43.5771C26.2127 43.5817 26.1808 43.5862 26.149 43.5953C26.1308 43.5999 26.1126 43.5999 26.0945 43.6044C25.7443 43.6726 25.3897 43.7272 25.035 43.7772C24.9577 43.7863 24.8759 43.7999 24.7986 43.809C24.7622 43.8136 24.7213 43.8181 24.6849 43.8227C24.5849 43.8363 24.4849 43.8454 24.3848 43.859C24.3348 43.8636 24.2848 43.8681 24.2348 43.8727C24.1575 43.8772 24.0847 43.8863 24.0074 43.8909C23.3527 43.95 22.6934 43.9818 22.025 43.9818C21.7295 43.9818 21.4339 43.9773 21.1384 43.9636C20.3017 43.9318 19.4788 43.85 18.6694 43.7272C18.6376 43.7226 18.6058 43.7181 18.5739 43.7135C18.3011 43.6726 18.0374 43.6226 17.7691 43.5726C17.6737 43.5544 17.5827 43.5362 17.4918 43.5135C17.1826 43.4498 16.878 43.3816 16.5779 43.3043C15.8867 43.127 15.2093 42.9178 14.5454 42.6814C14.1635 42.545 13.7861 42.395 13.4132 42.2358C13.2587 42.1676 13.1041 42.104 12.954 42.0358C12.2356 41.7084 11.5354 41.3492 10.8625 40.9491C10.8306 40.9309 10.7988 40.9127 10.7715 40.8945C10.4487 40.7035 10.1304 40.5035 9.82123 40.2989C9.68482 40.2079 9.54841 40.1124 9.41655 40.0215C9.2756 39.926 9.1392 39.826 9.00279 39.726C8.90731 39.6577 8.81182 39.585 8.71634 39.5168C8.56629 39.4031 8.42079 39.2895 8.27075 39.1712C7.99339 38.9484 7.72512 38.7211 7.4614 38.4892C6.72026 37.839 6.02459 37.1388 5.38349 36.3886C5.11522 36.0839 4.85605 35.7656 4.61052 35.4428C4.40591 35.1836 4.2104 34.9199 4.02397 34.6516C3.9876 34.5971 3.94668 34.5471 3.91485 34.4925C3.72388 34.2197 3.54201 33.9469 3.36923 33.665C2.45985 32.2145 1.71417 30.6459 1.15945 28.9908C1.00031 28.5179 0.859357 28.0405 0.732045 27.554C0.68203 27.363 0.636561 27.1675 0.591092 26.9765C0.427405 26.2854 0.300093 25.5761 0.209156 24.8577C0.177328 24.5985 0.1455 24.3439 0.122765 24.0802C0.113672 23.9938 0.104578 23.9074 0.100031 23.821C0.100031 23.7846 0.0954841 23.7483 0.0909373 23.7164C0.0727498 23.4891 0.0591092 23.2618 0.0500155 23.0344C0.0500155 22.9844 0.0454686 22.9298 0.0454686 22.8798C0.00909373 22.6979 0.00454686 22.507 0 22.3206C0 22.216 0 22.1069 0 22.0023C0 21.784 0 21.5658 0.00909373 21.343C0.0272812 20.7382 0.068203 20.1381 0.136406 19.5515C0.177328 19.1696 0.23189 18.7876 0.290999 18.4148C0.37739 17.8874 0.481968 17.369 0.604733 16.8598C0.650202 16.6734 0.69567 16.4915 0.745686 16.3141C0.809342 16.0686 0.877545 15.8276 0.950294 15.5866C0.950294 15.5821 0.950294 15.5776 0.954841 15.573C1.05033 15.2502 1.15945 14.9274 1.27312 14.6136C1.84148 13.0268 2.58262 11.5263 3.47835 10.1304C3.59657 9.93945 3.72388 9.75302 3.85119 9.5666C4.12401 9.16648 4.415 8.7709 4.7151 8.38896C5.67449 7.17495 6.75664 6.06552 7.94792 5.0743C8.03885 4.997 8.13434 4.91971 8.22982 4.84696C8.23437 4.84241 8.23892 4.83786 8.24801 4.83332C8.42534 4.68782 8.60721 4.55141 8.78909 4.41501C8.82092 4.39227 8.85274 4.36499 8.88457 4.34226C8.90731 4.32407 8.93004 4.31043 8.95277 4.29224C9.04371 4.22404 9.13465 4.16038 9.22559 4.09218C9.29834 4.04216 9.36654 3.99215 9.43929 3.94213C9.52113 3.88757 9.59843 3.83301 9.68027 3.7739C9.78485 3.7057 9.88488 3.63749 9.98946 3.56929C10.0895 3.50109 10.1941 3.43743 10.2941 3.37377C10.3714 3.32831 10.4441 3.27829 10.5169 3.23282C10.5305 3.22373 10.5487 3.21463 10.5669 3.20554C10.6124 3.17826 10.6578 3.15098 10.7033 3.11915C10.8124 3.05095 10.9261 2.98729 11.0398 2.92363C11.0671 2.90545 11.0989 2.89181 11.1262 2.87362C11.1807 2.84179 11.2353 2.80996 11.2899 2.78268C11.3581 2.74631 11.4217 2.70993 11.4899 2.67356L11.5763 2.62809C11.6354 2.59626 11.69 2.56443 11.7491 2.53715C11.8037 2.50532 11.8582 2.47804 11.9219 2.44621C11.931 2.44167 11.9355 2.43712 11.9446 2.43257C11.9901 2.40984 12.0355 2.38256 12.081 2.36437C12.222 2.29162 12.3675 2.22342 12.5084 2.15521C12.6175 2.09156 12.7312 2.04154 12.8403 1.99153C12.9995 1.91878 13.1586 1.84603 13.3223 1.77782C13.386 1.75054 13.4496 1.72326 13.5133 1.69598C13.6042 1.65961 13.6997 1.61868 13.7906 1.58686C13.7997 1.58231 13.8043 1.57776 13.8134 1.57776C13.8861 1.55048 13.9543 1.51865 14.0316 1.49137C14.0362 1.49137 14.0407 1.48683 14.0453 1.48683C14.1089 1.46409 14.168 1.43681 14.2317 1.41408C14.2953 1.39134 14.359 1.36406 14.4227 1.34133C14.841 1.18673 15.2638 1.04578 15.6912 0.918468C15.9322 0.845718 16.1732 0.777515 16.4187 0.713859C16.5051 0.691124 16.587 0.672937 16.6688 0.650203C16.737 0.632015 16.8007 0.618375 16.8689 0.600187C16.8825 0.59564 16.8961 0.591093 16.9098 0.591093C16.9462 0.582 16.9825 0.577453 17.0189 0.568359C17.0507 0.563812 17.0826 0.554718 17.1144 0.545625C17.1144 0.545625 17.1189 0.545625 17.1235 0.545625C17.2008 0.527437 17.2781 0.50925 17.3599 0.495609C17.3736 0.491062 17.3872 0.491062 17.4054 0.486515C17.4872 0.468328 17.5691 0.450141 17.6509 0.4365C17.7282 0.422859 17.8055 0.404672 17.8828 0.391031C17.9146 0.386484 17.9465 0.381938 17.9783 0.372844C18.0465 0.36375 18.1147 0.35011 18.1829 0.336469C18.2738 0.322828 18.3648 0.304641 18.4512 0.291C18.7194 0.245532 18.9877 0.209157 19.2605 0.177329C19.3287 0.168235 19.3969 0.159141 19.4651 0.154594C19.6652 0.13186 19.8698 0.109126 20.0744 0.0909383C20.1562 0.0863914 20.2335 0.0772977 20.3108 0.0727508C20.3745 0.068204 20.4382 0.0636571 20.5018 0.0636571C20.5927 0.0591103 20.6837 0.0500165 20.7746 0.0454697H20.7837C20.8747 0.0409228 20.9656 0.0363759 21.052 0.0318291L21.1793 0.0272822H21.2339C21.3475 0.0227353 21.4657 0.0181885 21.584 0.0181885H21.5931C21.7295 0.0181885 21.8659 0.0181885 21.9977 0.0181885C22.8298 0.0181885 23.6437 0.0636571 24.453 0.154594C24.744 0.186422 25.035 0.227344 25.326 0.268266C25.4533 0.286453 25.5852 0.309188 25.7125 0.331922C25.7125 0.331922 25.7125 0.331922 25.7171 0.331922C25.8125 0.345563 25.908 0.36375 26.0035 0.381938C26.3172 0.441047 26.631 0.504703 26.9402 0.577453C27.4403 0.691124 27.9359 0.822983 28.4224 0.97303C28.5179 1.00031 28.618 1.03214 28.7134 1.06851C29.1318 1.20037 29.541 1.35042 29.9456 1.50501C30.2821 1.63233 30.6186 1.77328 30.946 1.91878C31.0369 1.9597 31.1278 2.00062 31.2188 2.04154C31.8462 2.33254 32.4601 2.65082 33.0557 2.99638C33.4967 3.25556 33.9287 3.52837 34.3516 3.81482C34.5562 3.95577 34.7653 4.10127 34.9654 4.25132C35.2427 4.45138 35.5156 4.66054 35.7793 4.87424C35.7929 4.88333 35.8066 4.89243 35.8202 4.90607C35.8293 4.91516 35.8429 4.92425 35.852 4.93335C35.9384 5.00155 36.0248 5.06975 36.1066 5.1425C36.6705 5.61538 37.2115 6.11553 37.7253 6.64297C37.9118 6.82939 38.0891 7.02036 38.2619 7.21587C38.4346 7.4023 38.6029 7.59326 38.7666 7.78878C38.9939 8.05704 39.2167 8.32986 39.4304 8.61176C39.5259 8.73907 39.6214 8.86639 39.7214 8.99824C39.9487 9.30743 40.1715 9.62571 40.3852 9.94854C40.458 10.0531 40.5216 10.1577 40.5899 10.2668C40.7399 10.5033 40.8854 10.7397 41.0218 10.9807C41.4856 11.7718 41.8948 12.5994 42.2586 13.4496C42.4086 13.7997 42.545 14.1498 42.6769 14.509C42.8451 14.9728 42.9997 15.4411 43.1361 15.9186C43.1725 16.0413 43.2088 16.1641 43.2407 16.2914C43.368 16.7688 43.4817 17.2508 43.5771 17.7373C43.6499 18.092 43.709 18.4512 43.7636 18.8104C43.7908 19.0013 43.8181 19.1923 43.8409 19.3787C43.85 19.4697 43.8636 19.5561 43.8727 19.647C43.8818 19.7197 43.8909 19.7925 43.8954 19.8652C43.8954 19.8971 43.9 19.9244 43.9045 19.9562C43.9136 20.0971 43.9272 20.2426 43.9363 20.3836C43.9454 20.5018 43.9545 20.6246 43.9591 20.7428C43.9591 20.761 43.9591 20.7792 43.9591 20.7974C43.9636 20.8974 43.9682 20.9883 43.9727 21.0884C43.9773 21.1793 43.9773 21.2748 43.9818 21.3657C43.9955 21.5339 44 21.7386 44 21.9477Z" fill="url(#paint0_linear_187_20)"/>
<path d="M38.2664 7.18859C37.8845 7.57053 37.4298 7.88426 36.9114 8.09796C34.9563 8.9073 32.4191 8.48445 30.9596 10.0213C29.7638 11.2853 29.8774 13.345 28.8544 14.75C27.6631 16.396 25.2897 16.6688 23.289 16.2914C21.2884 15.9095 19.3833 15.0319 17.3508 14.9319C15.3229 14.8273 12.9858 15.8413 12.5493 17.8237C12.3902 18.5467 12.5039 19.2969 12.3948 20.0289C11.9037 23.2299 7.70239 24.2257 4.50139 23.7346C2.95546 23.4982 1.49592 23.189 0.0272812 23.0435C0.0272812 22.9935 0.0227343 22.9389 0.0227343 22.8889C0.00909373 22.6979 0.00454686 22.507 0 22.3206C0 22.216 0 22.1068 0 22.0023C0 21.784 0 21.5658 0.00909373 21.343C0.0272812 20.7382 0.068203 20.1381 0.136406 19.5515C0.177328 19.1696 0.23189 18.7876 0.290999 18.4148C0.37739 17.8874 0.481968 17.369 0.604733 16.8598C3.88757 16.346 6.63387 18.2966 9.41655 15.5093C11.3944 13.5269 10.676 9.77121 13.4223 8.32076C16.446 6.72026 20.079 10.4032 23.3618 9.42565C26.6446 8.44352 26.8856 3.9876 28.7134 1.04578C29.1318 1.17764 29.541 1.32768 29.9456 1.48228C30.2821 1.60959 30.6186 1.75054 30.946 1.89604C31.0369 1.93696 31.1278 1.97788 31.2188 2.01881C31.8462 2.3098 32.4601 2.62808 33.0557 2.97365C33.4967 3.23282 33.9287 3.50563 34.3516 3.79208C34.5562 3.93303 34.7653 4.07853 34.9654 4.22858C35.2427 4.42864 35.5156 4.6378 35.7793 4.8515C35.7929 4.86059 35.8066 4.86969 35.8202 4.88333C35.8293 4.89242 35.8429 4.90152 35.852 4.91061C35.9384 4.97881 36.0248 5.04702 36.1066 5.11977C36.6705 5.59264 37.2115 6.09279 37.7253 6.62023C37.9118 6.80211 38.0936 6.99307 38.2664 7.18859Z" fill="#BDF0FD"/>
<path d="M43.9999 21.9477V22.0023C43.9999 22.0568 43.9999 22.1114 43.9999 22.166C43.9999 22.2296 43.9999 22.2978 43.9999 22.3615C41.7219 23.1299 39.2257 23.4891 37.3751 25.0077C36.3384 25.8535 35.5882 27.0084 34.5515 27.8495C29.8637 31.6416 22.3477 27.4494 17.0188 30.2594C15.7548 30.9278 14.7135 31.9463 13.5814 32.8193C11.6444 34.3061 8.33883 36.0248 5.36973 36.3976C5.10146 36.093 4.84229 35.7747 4.59676 35.4519C4.39215 35.1927 4.19664 34.929 4.01022 34.6607C3.97384 34.6062 3.93292 34.5562 3.90109 34.5016C3.71012 34.2288 3.52825 33.956 3.35547 33.6741C4.80592 32.6874 6.7247 32.4419 8.49797 31.728C12.8266 29.9911 14.0042 26.2036 17.8327 24.1484C19.856 23.0617 22.3432 23.4073 24.5666 22.8025C28.3496 21.7749 30.8003 18.242 33.1011 15.0683C34.8743 12.6175 37.0432 10.0849 39.7395 8.96642C39.9668 9.2756 40.1896 9.59388 40.4033 9.91671C40.4761 10.0213 40.5397 10.1259 40.6079 10.235C40.758 10.4714 40.9035 10.7079 41.0399 10.9488C41.5037 11.74 41.9129 12.5675 42.2766 13.4178C42.4267 13.7679 42.5631 14.118 42.6949 14.4772C42.8632 14.941 43.0178 15.4093 43.1542 15.8867C43.1905 16.0095 43.2269 16.1323 43.2587 16.2596C43.3861 16.737 43.4997 17.219 43.5952 17.7055C43.668 18.0601 43.7271 18.4193 43.7816 18.7785C43.8089 18.9695 43.8362 19.1605 43.8589 19.3469C43.868 19.4378 43.8817 19.5242 43.8908 19.6152C43.8999 19.6879 43.909 19.7607 43.9135 19.8334C43.9135 19.8652 43.918 19.8925 43.9226 19.9244C43.9317 20.0653 43.9453 20.2108 43.9544 20.3518C43.9635 20.47 43.9726 20.5927 43.9772 20.711C43.9772 20.7292 43.9772 20.7473 43.9772 20.7655C43.9817 20.8656 43.9862 20.9565 43.9908 21.0565C43.9953 21.1475 43.9953 21.2429 43.9999 21.3339C43.9953 21.5339 43.9999 21.7386 43.9999 21.9477Z" fill="#BDF0FD"/>
<path d="M43.4134 27.072C43.2997 27.5676 43.1633 28.0496 43.0178 28.5316C42.8632 29.0317 42.6904 29.5273 42.4995 30.0139C42.3676 30.3503 42.2267 30.6822 42.0812 31.0051C42.0539 31.0687 42.0266 31.1369 41.9948 31.2006C41.9493 31.3006 41.8993 31.4052 41.8493 31.5052V31.5098V31.5143C41.7811 31.6598 41.7083 31.8053 41.6356 31.9463C41.5355 32.1418 41.4355 32.3373 41.3264 32.5283C41.2491 32.6692 41.1718 32.8147 41.09 32.9511C41.0354 33.0466 40.9808 33.1421 40.9263 33.233C39.0711 33.3285 37.1842 33.1239 35.3745 33.565C34.1651 33.8605 32.9374 34.5334 32.4236 35.7293C32.1781 36.3022 32.119 36.9433 31.9371 37.5435C31.6598 38.4483 31.0277 39.294 30.1547 39.5213C29.2817 39.7487 28.2223 39.1349 28.1405 38.18C28.1132 37.8117 28.2178 37.4389 28.1314 37.0797C27.9359 36.2703 26.9128 36.0885 26.1353 36.2385C23.8573 36.6796 21.9749 38.5119 19.6879 38.8893C17.1962 39.2985 14.6272 37.9163 12.1764 38.5483C10.9488 38.8666 10.3077 39.5213 9.80752 40.2943C9.67112 40.2034 9.53471 40.1079 9.40285 40.017C9.2619 39.9215 9.1255 39.8214 8.98909 39.7214C8.89361 39.6532 8.79812 39.5805 8.70264 39.5122C9.30737 38.7575 10.0712 38.13 10.6396 37.8117C12.2356 36.9251 14.1043 36.7159 15.9003 36.8842C17.1143 36.9978 18.3238 37.2706 19.5333 37.1433C22.9934 36.7705 25.5806 33.2376 29.0362 32.8329C30.0047 32.7192 30.9914 32.8602 31.9553 32.7374C33.9741 32.4692 35.6655 31.0778 37.3979 29.9456C39.2712 28.7225 41.2991 27.7541 43.4134 27.072Z" fill="#BDF0FD"/>
<path d="M35.7793 4.84696C35.7156 4.91971 35.6474 4.98791 35.5747 5.05156C34.7926 5.74269 33.6877 5.91092 32.7101 6.28376C31.3552 6.79756 30.1684 7.74785 29.3727 8.96187C28.3861 10.476 27.9723 12.3993 26.6128 13.5951C24.7804 15.2047 22.0023 14.8773 19.6061 14.4181C17.2099 13.9589 14.4727 13.5451 12.5493 15.0456C10.2714 16.8279 10.2214 20.5336 7.88426 22.2342C6.07916 23.5482 3.59202 23.1845 1.42317 22.657C0.959388 22.5433 0.481968 22.4251 0 22.3206C0 22.216 0 22.1068 0 22.0023C0 21.784 0 21.5658 0.00909373 21.343C0.0272812 20.7382 0.068203 20.1381 0.136406 19.5515C0.827529 19.6379 1.42317 19.7425 1.78237 19.7743C5.76997 20.1426 9.87579 17.9283 11.7582 14.3908C12.4402 13.1132 12.9495 11.5809 14.2453 10.9261C15.6321 10.2259 17.2781 10.8579 18.7876 11.2398C20.5473 11.6854 22.4524 11.7582 24.1439 11.0898C27.3721 9.81668 28.9999 6.31105 30.5504 3.21008C30.7504 2.80541 30.9687 2.3962 31.2233 2.01426C31.8508 2.30526 32.4646 2.62354 33.0603 2.9691C33.5013 3.22827 33.9332 3.50108 34.3561 3.78754C34.5607 3.92849 34.7699 4.07399 34.9699 4.22404C35.2427 4.42864 35.5156 4.63325 35.7793 4.84696Z" fill="#71DAF8"/>
<path d="M43.8725 19.6106C43.4178 19.7652 42.9404 19.8698 42.4721 19.9244C40.9716 20.1108 39.3984 20.0062 38.0071 20.5927C37.3614 20.8656 36.7567 21.3021 36.4566 21.9341C36.2338 22.4024 36.1929 22.9344 36.0565 23.4345C35.8655 24.1438 35.3926 24.8622 34.6742 25.0168C33.9558 25.1714 33.1101 24.4348 33.3965 23.7528C33.5329 23.43 33.8558 23.2345 34.0877 22.9708C34.3196 22.707 34.4423 22.2614 34.1695 22.0386C34.0695 21.9523 33.9331 21.925 33.8012 21.9022C32.8918 21.7476 31.7369 21.9432 31.4368 22.8116C31.2004 23.5027 31.646 24.2302 31.7415 24.9532C31.8733 25.9535 31.2504 27.0084 30.3047 27.3676C29.3589 27.7268 28.1904 27.3585 27.6266 26.5173C27.4583 26.2672 27.3356 25.9808 27.1082 25.7853C26.7263 25.4624 26.1761 25.4806 25.676 25.517C24.5574 25.5988 23.4389 25.6852 22.3477 25.9489C19.0648 26.7537 16.4458 29.1272 13.6541 31.0323C10.8668 32.9375 7.80224 34.4289 4.59215 35.4519C4.38755 35.1927 4.19203 34.929 4.00561 34.6607C3.96923 34.6062 3.92831 34.5562 3.89648 34.5016C4.51486 34.3788 5.12414 34.2106 5.71978 34.0105C7.81588 33.2967 9.7392 32.1645 11.6262 31.0051C12.731 30.3276 13.8496 29.6183 14.6635 28.6089C15.1045 28.0632 15.4501 27.4358 15.9639 26.9538C17.146 25.8444 18.9239 25.7534 20.538 25.5716C27.3856 24.8031 34.0695 21.0383 37.3978 15.0001C37.8934 14.1044 38.3208 13.1586 38.9619 12.3584C39.4939 11.6991 40.2168 11.1398 41.0307 10.9488C41.4945 11.74 41.9037 12.5675 42.2675 13.4178C42.4175 13.7679 42.5539 14.118 42.6858 14.4772C42.854 14.941 43.0086 15.4093 43.145 15.8867C43.1814 16.0095 43.2178 16.1323 43.2496 16.2596C43.3769 16.737 43.4906 17.219 43.5861 17.7055C43.6588 18.0601 43.7179 18.4193 43.7725 18.7785C43.7998 18.9695 43.827 19.1605 43.8498 19.3469C43.8543 19.4333 43.8634 19.5242 43.8725 19.6106Z" fill="#71DAF8"/>
<path d="M30.7957 37.4571C30.6456 37.5662 30.4819 37.6617 30.2955 37.6844C29.6862 37.7617 29.277 37.0706 29.1133 36.4749C28.9542 35.8793 28.786 35.1654 28.2085 34.9472C27.9402 34.8472 27.6402 34.8835 27.3582 34.9472C26.0442 35.2382 24.9029 36.0339 23.7208 36.6795C21.2154 38.0436 18.2736 38.7802 15.4727 38.2255C14.7543 38.0845 14.045 37.8572 13.313 37.8254C11.9808 37.7617 10.6349 38.3801 9.81645 39.4304C9.6664 39.6259 9.53 39.8305 9.39814 40.0306C9.25719 39.9351 9.12078 39.8351 8.98438 39.735C9.18898 39.5077 9.41178 39.294 9.60729 39.0985C10.4348 38.2528 11.426 37.5253 12.6037 37.2843C13.8723 37.0251 15.1818 37.357 16.4685 37.5116C18.0417 37.7026 19.6468 37.6253 21.1972 37.2888C21.9975 37.116 22.7977 36.866 23.4707 36.3931C24.1527 35.9111 24.662 35.2246 25.3167 34.7017C26.4943 33.7696 28.0357 33.4513 29.5135 33.1648C30.0045 33.0693 30.5411 32.9784 30.9776 33.2148C31.5141 33.5013 31.7232 34.1606 31.7733 34.7608C31.8551 35.7565 31.5868 36.8569 30.7957 37.4571Z" fill="#71DAF8"/>
<path d="M43.0136 28.5361C42.859 29.0363 42.6862 29.5319 42.4952 30.0184C42.3634 30.3549 42.2224 30.6868 42.0769 31.0096C41.7404 31.2733 41.3631 31.4688 40.9538 31.578C40.4491 31.7144 39.9172 31.7098 39.3943 31.7462C37.9438 31.8462 36.5116 32.2782 35.243 32.9966C34.8701 33.2057 34.4973 33.4467 34.0744 33.5195C33.6516 33.5968 33.156 33.4558 32.9604 33.0739C33.4424 32.4146 34.2108 32.0236 34.9974 31.8008C35.7795 31.578 36.5979 31.4916 37.3936 31.3097C38.2439 31.1096 39.0669 30.7959 39.8308 30.3731C40.5992 29.9502 41.2994 29.4228 42.0678 28.9999C42.327 28.8499 42.6589 28.6816 43.0136 28.5361Z" fill="#71DAF8"/>
<path opacity="0.1" d="M43.7637 18.774C43.7137 18.4103 43.65 18.0556 43.5773 17.7009C43.4818 17.2144 43.3681 16.7325 43.2408 16.2596C43.0771 15.6549 42.8861 15.0592 42.677 14.4772C42.5451 14.118 42.4087 13.7679 42.2587 13.4178C41.7858 12.3084 41.2265 11.2398 40.59 10.235C40.5218 10.1304 40.4536 10.0213 40.3854 9.91671C40.0853 9.45748 39.767 9.01188 39.4305 8.57993C39.2168 8.29803 38.994 8.02521 38.7667 7.75695C38.4302 7.36592 38.0847 6.98398 37.7209 6.61569C37.2071 6.08825 36.666 5.5881 36.1022 5.11522C36.0158 5.04247 35.934 4.97427 35.8476 4.90607C35.8385 4.89697 35.8249 4.88788 35.8158 4.87878C35.3429 4.49685 34.8518 4.1331 34.3471 3.79208C33.9243 3.50563 33.4923 3.23282 33.0513 2.97365C32.3738 2.57807 31.669 2.21432 30.9415 1.89604C30.6142 1.75054 30.2777 1.60959 29.9412 1.48228C29.4411 1.29131 28.9318 1.10943 28.4135 0.954841C27.927 0.804795 27.4314 0.672936 26.9312 0.559264C26.622 0.486514 26.3083 0.422858 25.9945 0.363749C25.8991 0.345562 25.8036 0.331921 25.7081 0.313734C25.7081 0.313734 25.7081 0.313734 25.7035 0.313734C25.5762 0.290999 25.4489 0.272812 25.3216 0.250078C24.2395 0.0863904 23.1255 0 21.9978 0C21.8614 0 21.725 0 21.5932 0H21.5841C21.4704 0 21.3522 0.00454686 21.234 0.00909373H21.1794L21.0521 0.0181875C20.9612 0.0181875 20.8748 0.0227343 20.7838 0.031828H20.7747C20.6838 0.0363749 20.5929 0.0409218 20.5019 0.0500155C20.4383 0.0500155 20.3746 0.0545624 20.3064 0.0591092C20.2291 0.0636561 20.1518 0.0727498 20.07 0.0772967C19.9017 0.0909373 19.7381 0.109125 19.5698 0.127312C19.8745 0.15914 20.1791 0.200062 20.4792 0.245531C20.6065 0.263718 20.7384 0.286452 20.8657 0.309187C20.8657 0.309187 20.8657 0.309187 20.8702 0.309187C20.9657 0.322827 21.0612 0.341015 21.1567 0.359202C21.4704 0.418311 21.7841 0.481968 22.0933 0.554717C22.5935 0.668389 23.0891 0.800248 23.5756 0.950295C24.094 1.10943 24.6032 1.28676 25.1034 1.47773C25.4398 1.60504 25.7763 1.746 26.1037 1.8915C26.8266 2.21432 27.5314 2.57353 28.2134 2.9691C28.6545 3.22827 29.0864 3.50109 29.5093 3.78754C30.014 4.1331 30.505 4.4923 30.9779 4.87424C30.987 4.88333 31.0006 4.89243 31.0097 4.90152C31.0961 4.96972 31.1825 5.03793 31.2644 5.11068C31.8282 5.58355 32.3692 6.0837 32.883 6.61114C33.2468 6.97944 33.5924 7.36137 33.9288 7.7524C34.1562 8.02067 34.379 8.29348 34.5927 8.57539C34.9246 9.00734 35.2429 9.45293 35.5475 9.91216C35.6203 10.0167 35.6839 10.1213 35.7521 10.2304C36.3932 11.2398 36.9525 12.3038 37.4208 13.4132C37.5709 13.7634 37.7073 14.1135 37.8391 14.4727C38.0483 15.0547 38.2392 15.6503 38.4029 16.255C38.5302 16.7325 38.6439 17.2144 38.7394 17.6964C38.8122 18.051 38.8713 18.4103 38.9258 18.7695C39.0804 19.8061 39.1577 20.861 39.1623 21.9386V21.9932C39.1623 22.0477 39.1623 22.1023 39.1623 22.1569C39.1623 22.4251 39.1577 22.6934 39.1441 22.9571C39.1395 23.1572 39.1259 23.3618 39.1122 23.5618C39.0622 24.2666 38.9804 24.9623 38.8667 25.6443C38.8485 25.758 38.8303 25.8671 38.8076 25.9808C38.7894 26.0854 38.7667 26.1854 38.7439 26.29C38.4893 27.5722 38.1256 28.8135 37.6572 30.0048C37.1889 31.196 36.6251 32.3373 35.9658 33.4195C35.9022 33.524 35.8385 33.6286 35.7703 33.7332C35.6157 33.9833 35.452 34.2242 35.2883 34.4652C35.1928 34.5971 35.1019 34.7335 35.0064 34.8608C34.9428 34.9517 34.8791 35.0427 34.8109 35.1291C34.7154 35.2518 34.6245 35.3746 34.529 35.4974C34.4926 35.5474 34.4517 35.5974 34.4153 35.6474C34.3608 35.7202 34.3062 35.7884 34.2471 35.8566C34.2016 35.9111 34.1516 35.9702 34.1061 36.0248C34.0698 36.0703 34.0334 36.1157 33.997 36.1567C33.9243 36.2431 33.8561 36.3249 33.7833 36.4067C33.7288 36.4749 33.6696 36.5386 33.6105 36.6023C33.5696 36.6523 33.5241 36.6977 33.4832 36.7478C33.4741 36.7614 33.4605 36.775 33.4469 36.7887C33.3605 36.8796 33.2786 36.9751 33.1922 37.066C33.1377 37.1206 33.0877 37.1797 33.0285 37.2343C32.974 37.2934 32.9194 37.3479 32.8649 37.407C32.7284 37.5435 32.592 37.6799 32.4511 37.8163C32.4011 37.8663 32.3511 37.9118 32.301 37.9618C32.201 38.0573 32.0964 38.1527 31.9919 38.2482C31.9782 38.2619 31.9646 38.2755 31.9464 38.2891C31.8555 38.371 31.7645 38.4528 31.6781 38.5301C31.5554 38.6392 31.428 38.7438 31.3007 38.853C31.2098 38.9257 31.1189 39.003 31.0325 39.0758C30.9461 39.144 30.8597 39.2122 30.7733 39.2804C30.6369 39.3849 30.5005 39.4895 30.3641 39.5941C30.255 39.6759 30.1504 39.7532 30.0413 39.8305C30.0367 39.8351 30.0322 39.8351 30.0276 39.8396C29.8321 39.9806 29.6366 40.117 29.4365 40.2534L29.1819 40.4216C29.0546 40.5035 28.9273 40.5853 28.8 40.6672C28.7545 40.6944 28.709 40.7263 28.6636 40.7535C28.5635 40.8172 28.4635 40.8763 28.3635 40.9354C28.3544 40.94 28.3498 40.9445 28.3407 40.9491C28.2771 40.9854 28.218 41.0218 28.1543 41.0582C27.8815 41.2173 27.6087 41.3628 27.3268 41.5083C27.2404 41.5538 27.154 41.5993 27.0631 41.6447C26.9994 41.6766 26.9357 41.7129 26.8675 41.7402C26.7039 41.8221 26.5402 41.8994 26.3765 41.9766C26.331 41.9948 26.2901 42.0176 26.2492 42.0358C26.1082 42.0994 25.9627 42.1631 25.8218 42.2222C25.7399 42.2586 25.6626 42.2904 25.5808 42.3222C25.4626 42.3722 25.3398 42.4222 25.217 42.4723C25.1125 42.5132 25.0033 42.5541 24.8942 42.595C24.7942 42.6314 24.6987 42.6678 24.5987 42.7041C24.4759 42.7496 24.3531 42.7905 24.2304 42.8315C24.1258 42.8678 24.0167 42.9042 23.9121 42.936C23.4438 43.0861 22.9663 43.2225 22.4844 43.3407L22.3252 43.3816C22.2661 43.3953 22.2025 43.4089 22.1433 43.4226C22.0706 43.4362 21.9978 43.4544 21.9206 43.4726C21.866 43.4862 21.8114 43.4998 21.7523 43.5089C21.725 43.5135 21.6978 43.518 21.6659 43.5271C21.575 43.5453 21.4841 43.5635 21.3931 43.5817C21.3613 43.5862 21.3295 43.5908 21.2976 43.5999C20.9293 43.6726 20.5565 43.7317 20.1837 43.7818C20.1064 43.7908 20.0245 43.8045 19.9472 43.8136C19.9108 43.8181 19.8699 43.8227 19.8335 43.8272C19.7608 43.8363 19.6835 43.8454 19.6062 43.8545C20.1109 43.9091 20.6156 43.95 21.1294 43.9682C21.4249 43.9773 21.7205 43.9864 22.016 43.9864C22.6844 43.9864 23.3437 43.9591 23.9985 43.8954C24.0758 43.8909 24.1531 43.8818 24.2258 43.8772C24.2758 43.8727 24.3258 43.8681 24.3759 43.8636C24.4759 43.8545 24.5759 43.8409 24.676 43.8272C24.7123 43.8227 24.7532 43.8181 24.7896 43.8136C24.8669 43.8045 24.9488 43.7954 25.0261 43.7818C25.3989 43.7317 25.7717 43.6726 26.14 43.5999C26.1719 43.5953 26.2037 43.5908 26.2355 43.5817C26.3265 43.5635 26.4174 43.5453 26.5083 43.5271C26.5356 43.5226 26.5629 43.5135 26.5947 43.5089C26.6538 43.4998 26.7084 43.4862 26.763 43.4726C26.8403 43.4589 26.913 43.4407 26.9858 43.4226C27.0449 43.4089 27.1085 43.3953 27.1676 43.3816L27.3268 43.3407C27.8087 43.2225 28.2862 43.0861 28.7545 42.936C28.8591 42.9042 28.9682 42.8678 29.0728 42.8315C29.1955 42.7905 29.3183 42.7451 29.4411 42.7041C29.5411 42.6678 29.6411 42.6314 29.7366 42.595C29.8457 42.5541 29.9503 42.5132 30.0594 42.4723C30.1822 42.4222 30.3004 42.3768 30.4232 42.3222C30.505 42.2904 30.5869 42.254 30.6642 42.2222C30.8051 42.1631 30.9506 42.0994 31.0916 42.0358C31.1325 42.0176 31.178 41.9948 31.2189 41.9766C31.3826 41.8994 31.5463 41.8221 31.7099 41.7402C31.7782 41.7084 31.8418 41.6766 31.9055 41.6447C31.9964 41.5993 32.0828 41.5538 32.1692 41.5083C32.4511 41.3628 32.7239 41.2173 32.9967 41.0582C33.0604 41.0218 33.1195 40.9854 33.1831 40.9491C33.1922 40.9445 33.1968 40.94 33.2059 40.9354C33.3059 40.8763 33.4059 40.8172 33.506 40.7535C33.5514 40.7263 33.5969 40.6944 33.6424 40.6672C33.7697 40.5853 33.897 40.5035 34.0243 40.4216L34.2789 40.2534C34.479 40.117 34.6745 39.9806 34.87 39.8396C34.8746 39.8396 34.8791 39.8351 34.8837 39.8305C34.9928 39.7532 35.0974 39.6714 35.2065 39.5941C35.3429 39.4895 35.4793 39.3849 35.6157 39.2804C35.7021 39.2122 35.7885 39.144 35.8749 39.0758C35.9658 39.003 36.0568 38.9257 36.1431 38.853C36.2705 38.7484 36.3932 38.6392 36.5205 38.5301C36.6115 38.4483 36.6979 38.371 36.7888 38.2891C36.8024 38.28 36.8161 38.2619 36.8343 38.2482C36.9343 38.1527 37.0389 38.0573 37.1435 37.9618C37.1935 37.9163 37.2435 37.8663 37.2935 37.8163C37.4345 37.6799 37.5709 37.5435 37.7073 37.407C37.7618 37.3479 37.8164 37.2934 37.871 37.2343C37.9255 37.1797 37.9801 37.1206 38.0346 37.066C38.121 36.9751 38.2074 36.8796 38.2893 36.7887C38.2984 36.775 38.312 36.7614 38.3256 36.7478C38.3711 36.7023 38.412 36.6523 38.4529 36.6023C38.5121 36.5386 38.5712 36.4704 38.6257 36.4067C38.6985 36.3203 38.7712 36.2385 38.8394 36.1567C38.8758 36.1112 38.9167 36.0657 38.9486 36.0248C38.994 35.9702 39.044 35.9111 39.0895 35.8566C39.1486 35.7838 39.2032 35.7156 39.2577 35.6474C39.2987 35.5974 39.335 35.5474 39.3714 35.4974C39.4669 35.3791 39.5624 35.2518 39.6533 35.1291C39.7215 35.0381 39.7852 34.9472 39.8488 34.8608C39.9443 34.7289 40.0398 34.5971 40.1307 34.4652C40.299 34.2242 40.4581 33.9833 40.6127 33.7332C40.6809 33.6286 40.7446 33.524 40.8082 33.4195C41.4675 32.3373 42.0313 31.2006 42.4997 30.0048C42.968 28.8135 43.3317 27.5722 43.5864 26.29C43.6091 26.1854 43.6273 26.0854 43.65 25.9808C43.6682 25.8671 43.6909 25.758 43.7091 25.6443C43.8228 24.9623 43.9046 24.2666 43.9547 23.5618C43.9683 23.3618 43.9819 23.1617 43.9865 22.9571C44.0001 22.6934 44.0047 22.4251 44.0047 22.1569C44.0047 22.1023 44.0047 22.0477 44.0047 21.9932V21.9386C43.9956 20.8701 43.9137 19.8107 43.7637 18.774Z" fill="black"/>
<path opacity="0.3" d="M6.72464 10.9898C6.69281 12.1037 7.05201 13.1904 7.46577 14.2226C7.83862 15.1547 8.27057 16.1414 8.06141 17.1235C7.77496 18.4603 6.43364 19.2469 5.57883 20.3108C5.05594 20.961 4.70583 21.7476 4.57397 22.5706C4.46484 23.2436 4.54669 24.0438 5.09686 24.4439C5.6925 24.8804 6.52912 24.6531 7.21115 24.3757C8.31604 23.9256 9.45275 23.2981 9.93927 22.2114C10.2394 21.5385 10.2439 20.7701 10.2439 20.0335C10.2439 18.3239 10.2439 16.6097 10.2439 14.9001C10.2439 14.2862 10.2485 13.6542 10.4894 13.095C11.0123 11.8855 12.4582 11.3672 13.7723 11.2535C15.1 11.1398 16.4413 11.299 17.7735 11.2808C19.1103 11.2626 20.4971 11.0398 21.5838 10.2623C22.6705 9.48475 23.3525 8.02976 22.9069 6.77482C22.5159 5.66539 21.3974 4.98791 20.297 4.57869C19.3149 4.21494 18.21 3.99214 17.2279 4.35135C16.2867 4.69691 15.6047 5.51534 14.7362 6.01095C13.0721 6.96125 11.3488 5.91547 9.69374 6.68843C8.02504 7.46595 6.7792 9.11646 6.72464 10.9898Z" fill="url(#paint1_linear_187_20)"/>
<path opacity="0.3" d="M19.4834 30.3776C18.5468 30.0366 17.5192 30.0002 16.5325 30.1366C15.7459 30.2457 14.9547 30.4731 14.3182 30.9505C13.6816 31.4234 13.2133 32.1782 13.2315 32.9739C13.2678 34.7881 15.614 35.902 15.6913 37.7162C15.705 38.0345 15.6459 38.3619 15.7186 38.6711C15.8959 39.3986 16.7098 39.7487 17.4328 39.9397C18.4558 40.2079 19.7017 40.3125 20.4292 39.5395C20.7702 39.1758 20.9248 38.6802 21.1794 38.2528C21.6113 37.5253 22.3479 36.9887 23.1709 36.8023C24.003 36.6114 24.9942 36.725 25.5808 36.1021C26.0855 35.5656 26.0263 34.6653 25.6035 34.0651C25.1806 33.4649 24.4804 33.1148 23.7756 32.9057C22.889 32.6374 22.1251 32.6419 21.5204 31.9963C20.8702 31.3006 20.411 30.7141 19.4834 30.3776Z" fill="url(#paint2_linear_187_20)"/>
<path opacity="0.3" d="M27.1675 14.6364C26.3945 15.4821 26.0581 16.6733 26.1399 17.8146C26.1581 18.0374 26.1945 18.2738 26.3354 18.4421C26.4673 18.6012 26.6765 18.6785 26.8765 18.7194C27.6995 18.8877 28.6089 18.5194 29.0817 17.8283C29.3727 17.4008 29.5319 16.8507 29.9729 16.587C30.2685 16.4142 30.6277 16.4051 30.9687 16.4142C31.5871 16.4324 32.2054 16.4824 32.8193 16.5733C33.3785 16.6552 34.006 16.7506 34.4607 16.4142C34.8244 16.1459 34.9745 15.6503 34.8881 15.2047C34.8017 14.7637 34.5107 14.3772 34.1515 14.1044C33.0602 13.2814 31.6962 13.5269 30.4322 13.5542C29.1818 13.5815 28.0814 13.6406 27.1675 14.6364Z" fill="url(#paint3_linear_187_20)"/>
<path opacity="0.3" d="M6.47007 27.986C5.84715 28.6134 5.54251 29.5091 5.50614 30.3912C5.49704 30.6231 5.50614 30.8641 5.60617 31.0733C5.75621 31.3961 6.09723 31.5962 6.4337 31.7144C7.11118 31.9508 7.92962 31.9281 8.47524 31.4598C8.90719 31.0915 9.11635 30.5004 9.58013 30.1775C10.2167 29.741 11.067 29.9456 11.8354 30.0229C12.722 30.1139 13.6769 29.9866 14.3725 29.4364C15.0727 28.8817 15.4092 27.8268 14.9591 27.0584C14.5362 26.3445 13.6268 26.099 12.8039 26.0217C11.3307 25.8808 10.7259 26.4082 9.52102 27.0175C8.49797 27.5358 7.40218 27.0493 6.47007 27.986Z" fill="url(#paint4_linear_187_20)"/>
</g>
<defs>
<linearGradient id="paint0_linear_187_20" x1="38.1764" y1="32.7627" x2="1.5382" y2="8.38646" gradientUnits="userSpaceOnUse">
<stop stop-color="#19A0E4"/>
<stop offset="1" stop-color="#46B9D6"/>
</linearGradient>
<linearGradient id="paint1_linear_187_20" x1="4.5305" y1="14.4307" x2="23.047" y2="14.4307" gradientUnits="userSpaceOnUse">
<stop stop-color="white"/>
<stop offset="1" stop-color="white" stop-opacity="0.5"/>
</linearGradient>
<linearGradient id="paint2_linear_187_20" x1="13.2271" y1="35.0979" x2="25.9337" y2="35.0979" gradientUnits="userSpaceOnUse">
<stop stop-color="white"/>
<stop offset="1" stop-color="white" stop-opacity="0.5"/>
</linearGradient>
<linearGradient id="paint3_linear_187_20" x1="26.1306" y1="16.1308" x2="34.9195" y2="16.1308" gradientUnits="userSpaceOnUse">
<stop stop-color="white"/>
<stop offset="1" stop-color="white" stop-opacity="0.5"/>
</linearGradient>
<linearGradient id="paint4_linear_187_20" x1="5.50336" y1="28.9296" x2="15.1626" y2="28.9296" gradientUnits="userSpaceOnUse">
<stop stop-color="white"/>
<stop offset="1" stop-color="white" stop-opacity="0.5"/>
</linearGradient>
<clipPath id="clip0_187_20">
<rect width="44" height="44" fill="white"/>
</clipPath>
</defs>
</svg>
