<svg width="1074" height="375" viewBox="0 0 1074 375" fill="none" xmlns="http://www.w3.org/2000/svg">
<g clip-path="url(#clip0_82_32)">
<path d="M877.372 203.448L874.642 216.137L863.74 209.095L870.782 219.997L858.093 222.727L870.782 225.457L863.74 236.359L874.642 229.317L877.372 242.006L880.102 229.317L891.005 236.359L883.963 225.457L896.651 222.727L883.963 219.997L891.005 209.095L880.102 216.137L877.372 203.448Z" fill="#C5C0E1"/>
<path d="M591.858 -0.359985L589.128 12.3289L578.225 5.28674L585.267 16.1894L572.578 18.9192L585.267 21.6489L578.225 32.5516L589.128 25.5094L591.858 38.1983L594.587 25.5094L605.49 32.5516L598.448 21.6489L611.137 18.9192L598.448 16.1894L605.49 5.28674L594.587 12.3289L591.858 -0.359985Z" fill="#C5C0E1"/>
<path d="M954.949 294.335L952.995 301.51L945.805 299.614L951.042 304.893L945.805 310.172L952.995 308.276L954.949 315.451L956.902 308.276L964.092 310.172L958.855 304.893L964.092 299.614L956.902 301.51L954.949 294.335Z" fill="#C5C0E1"/>
<path d="M562.021 187.841L560.068 195.016L552.878 193.12L558.115 198.399L552.878 203.677L560.068 201.782L562.021 208.956L563.974 201.782L571.164 203.677L565.927 198.399L571.164 193.12L563.974 195.016L562.021 187.841Z" fill="#C5C0E1"/>
<path d="M789.699 230.99L787.745 238.164L780.555 236.268L785.792 241.547L780.555 246.826L787.745 244.93L789.699 252.105L791.652 244.93L798.842 246.826L793.605 241.547L798.842 236.268L791.652 238.164L789.699 230.99Z" fill="#C5C0E1"/>
<path d="M713.041 143.315C713.041 147.118 716.123 150.201 719.926 150.201C723.729 150.201 726.812 147.118 726.812 143.315C726.812 139.513 723.729 136.43 719.926 136.43C716.123 136.43 713.041 139.513 713.041 143.315Z" fill="#C5C0E1"/>
<path d="M803.01 322.336C803.01 326.139 806.093 329.222 809.896 329.222C813.699 329.222 816.781 326.139 816.781 322.336C816.781 318.534 813.699 315.451 809.896 315.451C806.093 315.451 803.01 318.534 803.01 322.336Z" fill="#C5C0E1"/>
<path fill-rule="evenodd" clip-rule="evenodd" d="M685.04 268.282C696.511 272.119 704.779 282.95 704.779 295.713C704.779 308.475 696.511 319.306 685.04 323.144C687.925 324.109 691.012 324.631 694.221 324.631C710.192 324.631 723.14 311.684 723.14 295.713C723.14 279.741 710.192 266.794 694.221 266.794C691.012 266.794 687.925 267.317 685.04 268.282Z" fill="#C5C0E1"/>
<path fill-rule="evenodd" clip-rule="evenodd" d="M526.552 475.393C526.519 475.226 526.486 475.059 526.453 474.891C523.105 457.871 521.352 440.289 521.352 422.304C521.352 321.547 576.369 233.503 658.321 185.902C586.87 144.794 503.787 121.246 415.132 121.246C312.435 121.246 217.215 152.845 138.891 206.734C45.5342 293.857 -12.7179 417.286 -12.7179 554.145C-12.7179 818.057 203.894 1032.03 471.133 1032.03C573.83 1032.03 669.05 1000.43 747.374 946.541C784.305 912.077 815.741 871.931 840.252 827.52C759.601 886.346 659.872 921.119 551.922 921.119C283.596 921.119 66.0598 706.271 66.0598 441.224H67.4006C67.4006 705.515 284.32 919.778 551.922 919.778C660.614 919.778 760.944 884.43 841.774 824.74C865.892 780.342 883.114 731.745 892.024 680.346C862.824 690.678 831.36 696.307 798.568 696.307C664.067 696.307 551.926 601.627 526.672 475.997L525.982 476.374L526.552 475.393ZM892.539 677.315C863.225 687.868 831.577 693.625 798.568 693.625C665.055 693.625 553.816 599.437 529.138 474.648L809.012 321.516C865.653 399.769 898.983 495.607 898.983 599.13C898.983 625.756 896.778 651.874 892.539 677.315ZM811.384 320.218C868.223 398.859 901.665 495.135 901.665 599.13C901.665 625.383 899.533 651.144 895.432 676.254C912.811 669.777 929.349 661.607 944.842 651.948C951.49 620.377 954.984 587.664 954.984 554.145C954.984 455.145 924.503 363.173 872.302 286.887L811.384 320.218ZM808.218 320.422L529.554 472.891L686.12 203.169C733.48 234.849 774.854 274.6 808.218 320.422ZM687.468 200.846C735.246 232.781 776.972 272.883 810.591 319.124L871.54 285.776C836.608 235.034 792.048 191.278 740.452 157.073C729.214 159.467 718.231 162.54 707.551 166.248L687.468 200.846ZM685.002 202.424L528.602 471.861C525.602 455.794 524.034 439.23 524.034 422.304C524.034 322.007 579.102 234.411 660.997 187.453C669.156 192.217 677.16 197.21 685.002 202.424ZM663.695 185.927C671.386 190.45 678.941 195.177 686.35 200.101L705.603 166.933C691.022 172.118 677.013 178.489 663.695 185.927ZM661.011 184.36C588.86 142.541 504.829 118.564 415.132 118.564C318.365 118.564 228.192 146.469 152.415 194.578C237.541 120.913 349.055 76.2613 471.133 76.2613C561.767 76.2613 646.578 100.873 719.091 143.697L707.671 163.37C691.374 168.959 675.767 176.008 661.011 184.36ZM709.601 162.716L720.244 144.381C726.015 147.81 731.706 151.355 737.317 155.012C727.887 157.114 718.64 159.691 709.601 162.716ZM739.151 154.609C733.165 150.684 727.086 146.887 720.917 143.221C720.533 142.993 720.149 142.765 719.764 142.538C647.052 99.5977 562.01 74.9205 471.133 74.9205C345.46 74.9205 230.946 122.113 144.766 199.535C142.507 201.565 140.267 203.616 138.047 205.686C135.545 207.409 133.06 209.154 130.593 210.921C9.01245 298.007 -70.0598 439.447 -70.0598 599.13C-70.0598 863.798 147.168 1078.35 415.132 1078.35C540.805 1078.35 655.319 1031.16 741.498 953.739C743.758 951.71 745.997 949.659 748.217 947.589C750.719 945.866 753.204 944.121 755.672 942.354C817.164 898.309 867.782 840.359 902.796 773.178C903.518 771.792 904.233 770.402 904.942 769.009C923.154 733.208 936.957 694.841 945.647 654.605C945.778 653.997 945.908 653.39 946.037 652.782C946.565 652.451 947.092 652.119 947.617 651.785C971.116 636.845 992.17 618.476 1010.06 597.393C1010.87 596.436 1011.67 595.473 1012.47 594.505C1051.21 547.555 1074.44 487.611 1074.44 422.304C1074.44 341.745 1039.1 269.346 982.893 219.431C981.948 218.592 980.997 217.759 980.041 216.933C931.535 175.03 868.051 149.641 798.568 149.641C779.382 149.641 760.653 151.577 742.571 155.262C741.954 155.388 741.338 155.515 740.723 155.645C740.2 155.299 739.676 154.954 739.151 154.609ZM744.144 156.313C761.735 152.817 779.935 150.982 798.568 150.982C868.996 150.982 933.225 177.19 981.821 220.272C982.526 221.608 983.224 222.946 983.917 224.289L873.906 284.481C839.255 234.087 795.164 190.538 744.144 156.313ZM874.668 285.593L984.53 225.482C1017.74 290.307 1036.44 363.607 1036.44 441.224C1036.44 494.587 1027.6 545.91 1011.28 593.842C993.283 615.617 971.928 634.577 947.997 649.951C954.338 618.992 957.666 586.952 957.666 554.145C957.666 454.673 927.07 362.263 874.668 285.593ZM1013.69 590.885C1029.33 543.791 1037.78 493.483 1037.78 441.224C1037.78 363.144 1018.9 289.417 985.408 224.257C985.165 223.784 984.922 223.312 984.677 222.841C1039.05 272.418 1073.1 343.434 1073.1 422.304C1073.1 486.007 1050.89 544.587 1013.69 590.885ZM944.062 655.579C928.624 665.007 912.179 672.978 894.925 679.301C886.374 729.593 869.915 777.235 846.854 820.937C866.362 806.134 884.696 789.897 901.695 772.386C920.679 735.925 935.055 696.739 944.062 655.579ZM899.511 776.531C866.098 839.187 819.005 893.622 762.156 935.958C795.078 902.871 823.186 865.096 845.363 823.741C864.581 809.335 882.681 793.549 899.511 776.531ZM733.85 958.696C648.724 1032.36 537.21 1077.01 415.132 1077.01C147.893 1077.01 -68.719 863.042 -68.719 599.13C-68.719 443.106 6.98914 304.538 124.108 217.317C37.8259 304.034 -15.3995 422.947 -15.3995 554.145C-15.3995 819.569 202.445 1034.71 471.133 1034.71C567.901 1034.71 658.073 1006.81 733.85 958.696Z" fill="#C5C0E1"/>
</g>
<defs>
<clipPath id="clip0_82_32">
<rect width="1074" height="375" fill="white"/>
</clipPath>
</defs>
</svg>
